<?xml version="1.0" encoding="utf-8"?>
<!-- Generator: Adobe Illustrator 28.1.0, SVG Export Plug-In . SVG Version: 6.00 Build 0)  -->
<svg version="1.1" id="图层_1" xmlns="http://www.w3.org/2000/svg" xmlns:xlink="http://www.w3.org/1999/xlink" x="0px" y="0px"
	 width="256px" height="256px" viewBox="0 0 256 256" style="enable-background:new 0 0 256 256;" xml:space="preserve">
<style type="text/css">
	.st0{fill-rule:evenodd;clip-rule:evenodd;fill:url(#SVGID_1_);}
	.st1{fill-rule:evenodd;clip-rule:evenodd;fill-opacity:0.3;}
	.st2{fill-rule:evenodd;clip-rule:evenodd;fill:url(#SVGID_00000116918691005917387950000005654439208430848416_);}
	.st3{display:none;fill:url(#SVGID_00000019663543464664360250000011202993402688106424_);}
	.st4{fill:url(#SVGID_00000147915042602962982830000016860404345307671216_);}
	.st5{fill:url(#SVGID_00000037668576819279652220000002366203381543317693_);}
	.st6{fill:url(#SVGID_00000052800141993494387710000017517664644188699581_);}
	.st7{fill:url(#SVGID_00000106122904165336925780000016512004618557394878_);}
</style>
<linearGradient id="SVGID_1_" gradientUnits="userSpaceOnUse" x1="17" y1="103" x2="241" y2="103">
	<stop  offset="0" style="stop-color:#1E74C0"/>
	<stop  offset="1" style="stop-color:#E85D7B"/>
</linearGradient>
<path class="st0" d="M104.4,42.4C100,37.1,93.5,34,86.6,34H29c-6.6,0-12,5.4-12,12v12.1v10.1V160c0,6.6,5.4,12,12,12h200
	c6.6,0,12-5.4,12-12V70.1c0-6.6-5.4-12-12-12H117.4L104.4,42.4z"/>
<g>
	<g>
		<path class="st1" d="M92.8,74c5,0,9.8-1.6,13.8-4.6l9.9-7.4H229c6.6,0,12,5.4,12,12v34v52c0,6.6-5.4,12-12,12H29
			c-6.6,0-12-5.4-12-12v-52V86c0-6.6,5.4-12,12-12h58H92.8z"/>
	</g>
</g>
<g>
	
		<linearGradient id="SVGID_00000076566410679434031490000012912023252901323931_" gradientUnits="userSpaceOnUse" x1="17" y1="304" x2="241" y2="452" gradientTransform="matrix(1 0 0 1 0 -242)">
		<stop  offset="0" style="stop-color:#FAFAFA"/>
		<stop  offset="1" style="stop-color:#DFD8D8"/>
	</linearGradient>
	<path style="fill-rule:evenodd;clip-rule:evenodd;fill:url(#SVGID_00000076566410679434031490000012912023252901323931_);" d="
		M92.8,74c5,0,9.8-1.6,13.8-4.6l9.9-7.4H229c6.6,0,12,5.4,12,12v34v90c0,6.6-5.4,12-12,12H29c-6.6,0-12-5.4-12-12v-90V86
		c0-6.6,5.4-12,12-12h58H92.8z"/>
</g>
<g>
	<g>
		
			<linearGradient id="SVGID_00000163768829740252269720000002013880222633059222_" gradientUnits="userSpaceOnUse" x1="60.9777" y1="174.4206" x2="195.6177" y2="174.4206">
			<stop  offset="0" style="stop-color:#1E74C0"/>
			<stop  offset="1" style="stop-color:#E85D7B"/>
		</linearGradient>
		<path style="display:none;fill:url(#SVGID_00000163768829740252269720000002013880222633059222_);" d="M61,77.9
			c44.9,0,89.8,0,134.6,0c0,64.3,0,128.6,0,193c-44.9,0-89.8,0-134.6,0C61,206.6,61,142.3,61,77.9z M150.7,167c-0.5,0-0.9,0-1.4,0
			c-3.8,0-7.6-0.1-11.4,0c-1.6,0-3.3,0.3-4.8,0.7c-2.5,0.7-3.9,3.1-3.9,5.7c0,2.8,1.4,5,3.9,5.7c1.6,0.5,3.3,0.7,4.9,0.7
			c12.7,0.1,25.4,0,38.2,0c1.1,0,2.2-0.1,3.3-0.3c2.4-0.4,4.4-1.5,5.2-4.1c1.1-3.8-0.5-8-5.7-8.4c-4.6-0.3-9.3-0.2-13.9-0.2
			c-0.5,0-0.9,0-1.5,0c0-23.4,0-46.7,0-70c-0.5,0.1-0.8,0.1-1.2,0.2c-6.5,1.7-13,3.3-19.5,5c-3.4,0.9-6.7,1.8-10,2.9
			c-2.5,0.8-3.7,2.7-3.8,5.3c-0.2,4.2,3.1,7.8,7.3,6.9c1-0.2,2-0.4,2.9-0.6c3.7-1,7.5-1.9,11.3-2.9
			C150.7,131.5,150.7,149.1,150.7,167z M80.6,166.2c-1.8,1-3.5,1.9-5.1,2.8c-3.8,2.1-7.5,4.2-11.3,6.3c-1.2,0.7-1.5,2-0.9,3.1
			c0.6,1.2,1.9,1.6,3.2,1.1c0.5-0.2,0.9-0.4,1.4-0.7c7.3-4,14.5-8.1,21.8-12.1c0.3-0.2,0.6-0.4,1-0.6c-6.7-3.7-13.2-7.4-19.8-11
			c-1.4-0.8-2.8-1.6-4.3-2.3c-1.3-0.6-2.6-0.1-3.2,1.1c-0.6,1.1-0.2,2.3,0.9,3.1c0.5,0.3,1,0.6,1.4,0.8
			C70.6,160.6,75.5,163.3,80.6,166.2z M104.3,158.6c-2.2,0-3.7,1.3-3.7,3.2c0,1.9,1.5,3.3,3.6,3.3c2.1,0,3.6-1.3,3.6-3.1
			C107.9,160,106.5,158.6,104.3,158.6z M104.3,180.8c2.1,0,3.6-1.3,3.6-3.1c0-2-1.4-3.2-3.6-3.2c-2.2,0-3.6,1.2-3.6,3.1
			C100.7,179.4,102.1,180.8,104.3,180.8z"/>
		
			<linearGradient id="SVGID_00000092442957200858777330000010481512410962434998_" gradientUnits="userSpaceOnUse" x1="129.1875" y1="138.4813" x2="185.1362" y2="138.4813">
			<stop  offset="0" style="stop-color:#1E74C0"/>
			<stop  offset="1" style="stop-color:#E85D7B"/>
		</linearGradient>
		<path style="fill:url(#SVGID_00000092442957200858777330000010481512410962434998_);" d="M150.7,167c0-17.9,0-35.5,0-53.3
			c-3.8,1-7.6,2-11.3,2.9c-1,0.2-1.9,0.4-2.9,0.6c-4.2,0.8-7.4-2.7-7.3-6.9c0.1-2.6,1.3-4.5,3.8-5.3c3.3-1,6.7-2,10-2.9
			c6.5-1.7,13-3.4,19.5-5c0.3-0.1,0.7-0.1,1.2-0.2c0,23.3,0,46.6,0,70c0.6,0,1,0,1.5,0c4.6,0.1,9.3-0.1,13.9,0.2
			c5.3,0.4,6.9,4.5,5.7,8.4c-0.7,2.5-2.7,3.7-5.2,4.1c-1.1,0.2-2.2,0.3-3.3,0.3c-12.7,0-25.4,0-38.2,0c-1.7,0-3.4-0.2-4.9-0.7
			c-2.5-0.7-3.9-2.9-3.9-5.7c0-2.7,1.4-5,3.9-5.7c1.5-0.5,3.2-0.7,4.8-0.7c3.8-0.1,7.6,0,11.4,0C149.8,167,150.2,167,150.7,167z"/>
		
			<linearGradient id="SVGID_00000065792417758147093500000015809951153665222323_" gradientUnits="userSpaceOnUse" x1="70.0742" y1="149.8327" x2="97.6168" y2="149.8327">
			<stop  offset="0" style="stop-color:#1E74C0"/>
			<stop  offset="1" style="stop-color:#E85D7B"/>
		</linearGradient>
		<path style="fill:url(#SVGID_00000065792417758147093500000015809951153665222323_);" d="M87.7,149.8c-5.1-2.8-10-5.6-14.9-8.3
			c-0.5-0.3-1-0.5-1.4-0.8c-1.2-0.8-1.5-2-0.9-3.1c0.6-1.2,1.9-1.7,3.2-1.1c1.5,0.7,2.9,1.5,4.3,2.3c6.6,3.6,13.1,7.3,19.8,11
			c-0.4,0.2-0.7,0.4-1,0.6c-7.3,4-14.5,8.1-21.8,12.1c-0.5,0.3-0.9,0.5-1.4,0.7c-1.3,0.5-2.6,0.1-3.2-1.1c-0.6-1.1-0.2-2.4,0.9-3.1
			c3.7-2.1,7.5-4.2,11.3-6.3C84.2,151.8,85.8,150.9,87.7,149.8z"/>
		
			<linearGradient id="SVGID_00000096041162166745564930000001219822857388067224_" gradientUnits="userSpaceOnUse" x1="107.6887" y1="145.4966" x2="114.9646" y2="145.4966">
			<stop  offset="0" style="stop-color:#1E74C0"/>
			<stop  offset="1" style="stop-color:#E85D7B"/>
		</linearGradient>
		<path style="fill:url(#SVGID_00000096041162166745564930000001219822857388067224_);" d="M111.4,142.3c2.2,0,3.6,1.3,3.6,3.3
			c0,1.9-1.5,3.1-3.6,3.1c-2.2,0-3.7-1.4-3.6-3.3C107.7,143.6,109.3,142.3,111.4,142.3z"/>
		
			<linearGradient id="SVGID_00000106849212008452409700000011104806331470991295_" gradientUnits="userSpaceOnUse" x1="107.7715" y1="161.2347" x2="115.0443" y2="161.2347">
			<stop  offset="0" style="stop-color:#1E74C0"/>
			<stop  offset="1" style="stop-color:#E85D7B"/>
		</linearGradient>
		<path style="fill:url(#SVGID_00000106849212008452409700000011104806331470991295_);" d="M111.4,164.4c-2.2,0-3.7-1.3-3.6-3.3
			c0-1.9,1.5-3.1,3.6-3.1c2.2,0,3.7,1.3,3.6,3.2C115,163.2,113.5,164.4,111.4,164.4z"/>
	</g>
</g>
</svg>
