<?xml version="1.0" encoding="utf-8"?>
<!-- Generator: Adobe Illustrator 28.1.0, SVG Export Plug-In . SVG Version: 6.00 Build 0)  -->
<svg version="1.1" id="图层_1" xmlns="http://www.w3.org/2000/svg" xmlns:xlink="http://www.w3.org/1999/xlink" x="0px" y="0px"
	 width="256px" height="256px" viewBox="0 0 256 256" style="enable-background:new 0 0 256 256;" xml:space="preserve">
<style type="text/css">
	.st0{fill-rule:evenodd;clip-rule:evenodd;fill:url(#SVGID_1_);}
	
		.st1{fill-rule:evenodd;clip-rule:evenodd;fill:url(#SVGID_00000005265612812020017180000010766913325272012472_);filter:url(#Adobe_OpacityMaskFilter);}
	.st2{mask:url(#mask0_1710_30103_00000116918409057800521200000001555055473685679014_);}
	.st3{fill-rule:evenodd;clip-rule:evenodd;fill-opacity:0.3;}
	.st4{fill-rule:evenodd;clip-rule:evenodd;fill:url(#SVGID_00000116227295561086654000000008464784532836170422_);}
	.st5{display:none;fill:#FFFFFF;}
	.st6{fill:#FFFFFF;}
</style>
<linearGradient id="SVGID_1_" gradientUnits="userSpaceOnUse" x1="23.1646" y1="178.9939" x2="225.6646" y2="109.9939" gradientTransform="matrix(1 0 0 -1 0 258)">
	<stop  offset="0" style="stop-color:#7E0001"/>
	<stop  offset="1" style="stop-color:#CC0102"/>
</linearGradient>
<path class="st0" d="M104.4,42.4c-4.4-5.3-10.9-8.4-17.8-8.4H29c-6.6,0-12,5.4-12,12v12.1v10.1V160c0,6.6,5.4,12,12,12h200
	c6.6,0,12-5.4,12-12V70.1c0-6.6-5.4-12-12-12H117.4L104.4,42.4z"/>
<defs>
	<filter id="Adobe_OpacityMaskFilter" filterUnits="userSpaceOnUse" x="17" y="62" width="224" height="110">
		<feColorMatrix  type="matrix" values="1 0 0 0 0  0 1 0 0 0  0 0 1 0 0  0 0 0 1 0"/>
	</filter>
</defs>
<mask maskUnits="userSpaceOnUse" x="17" y="62" width="224" height="110" id="mask0_1710_30103_00000116918409057800521200000001555055473685679014_">
	
		<linearGradient id="SVGID_00000152231309634066846150000014105217466134736515_" gradientUnits="userSpaceOnUse" x1="32.5816" y1="239.5494" x2="213.3495" y2="58.4074" gradientTransform="matrix(1 0 0 -1 0 258)">
		<stop  offset="0" style="stop-color:#05815D"/>
		<stop  offset="1" style="stop-color:#0C575F"/>
	</linearGradient>
	
		<path style="fill-rule:evenodd;clip-rule:evenodd;fill:url(#SVGID_00000152231309634066846150000014105217466134736515_);filter:url(#Adobe_OpacityMaskFilter);" d="
		M104.4,42.4c-4.4-5.3-10.9-8.4-17.8-8.4H29c-6.6,0-12,5.4-12,12v12.1v10.1V160c0,6.6,5.4,12,12,12h200c6.6,0,12-5.4,12-12V70.1
		c0-6.6-5.4-12-12-12H117.4L104.4,42.4z"/>
</mask>
<g class="st2">
	<g>
		<path class="st3" d="M92.8,74c5,0,9.8-1.6,13.8-4.6l9.9-7.4H229c6.6,0,12,5.4,12,12v34v52c0,6.6-5.4,12-12,12H29
			c-6.6,0-12-5.4-12-12v-52V86c0-6.6,5.4-12,12-12h58H92.8z"/>
	</g>
</g>
<g>
	
		<linearGradient id="SVGID_00000068645461853098345340000014144642516734888374_" gradientUnits="userSpaceOnUse" x1="17" y1="196" x2="241" y2="48" gradientTransform="matrix(1 0 0 -1 0 258)">
		<stop  offset="0" style="stop-color:#E90003"/>
		<stop  offset="1" style="stop-color:#E60012"/>
	</linearGradient>
	<path style="fill-rule:evenodd;clip-rule:evenodd;fill:url(#SVGID_00000068645461853098345340000014144642516734888374_);" d="
		M92.8,74c5,0,9.8-1.6,13.8-4.6l9.9-7.4H229c6.6,0,12,5.4,12,12v34v90c0,6.6-5.4,12-12,12H29c-6.6,0-12-5.4-12-12v-90V86
		c0-6.6,5.4-12,12-12h58H92.8z"/>
</g>
<path class="st5" d="M116.3,126.9c-2.8,0-6,1.3-8,3.9l0,0l0,0l0-3.5h-6.7v24.4h6.7v-13.9c0-2.5,1.9-5.2,5.5-5.2
	c2.8,0,5.7,1.9,5.7,5.2v13.9h6.7v-15.2C126.3,131,122.2,126.9,116.3,126.9z"/>
<path class="st5" d="M174,127.3l-6.1,16.7l-6.1-16.7h-7.7l10.1,24.4h7.4l10.1-24.4H174z"/>
<path class="st5" d="M81.6,134.7c1.1-1.5,3-2.4,5.2-2.4c2.4,0,4.3,1.4,5.2,3.4l-11.7,4.9C79.9,138,80.6,136.1,81.6,134.7z
	 M94.5,144.2c-2.8,2.1-4.4,2.6-7,2.6c-2.3,0-4.1-0.7-5.4-2l17.2-7.1c-0.4-2.7-1.4-5-2.9-6.8c-2.3-2.6-5.6-4-9.7-4
	c-7.4,0-12.9,5.4-12.9,12.6c0,7.4,5.6,12.6,13.7,12.6c4.5,0,9.2-2.2,11.4-4.7L94.5,144.2z"/>
<path class="st5" d="M73.1,145.6H57.8V120H51v31.8h22.1V145.6z"/>
<path class="st5" d="M193.7,132.7c-3.7,0-6.5,2.8-6.5,6.9c0,3.9,2.9,6.9,6.6,6.9c3.8,0,6.5-2.9,6.5-6.9
	C200.2,135.7,197.4,132.7,193.7,132.7z M193.7,152.2c-7.3,0-13.1-5.5-13.1-12.6c0-7.1,5.8-12.6,13.2-12.6c7.3,0,13.1,5.5,13.1,12.6
	C206.9,146.6,201.1,152.2,193.7,152.2z"/>
<path class="st5" d="M142,132.7c-3.7,0-6.5,2.8-6.5,6.9c0,3.9,2.9,6.9,6.6,6.9c3.7,0,6.5-2.9,6.5-6.9
	C148.6,135.7,145.7,132.7,142,132.7z M142,152.2c-7.3,0-13.1-5.5-13.1-12.6c0-7.1,5.8-12.6,13.2-12.6c7.3,0,13.1,5.5,13.1,12.6
	C155.2,146.6,149.4,152.2,142,152.2z"/>
<g>
	<path class="st6" d="M171.3,95.2c-1.2,0-2.3,0.5-3.1,1.4l-30.8,33.8c1.7,2.7,3,5.7,3.8,8.8l25.8-28.3v35.9h-24.8c0,0.2,0,0.3,0,0.5
		c0,2.9-0.4,5.6-1.1,8.3h25.9V171c0,2.4,2,4.4,4.4,4.4c2.4,0,4.4-2,4.4-4.4v-15.5h11.5c2.4,0,4.4-2,4.4-4.4c0,0,0,0,0,0
		c0-2.4-2-4.4-4.4-4.4c0,0,0,0,0,0h-11.5V99.5c0-1.8-1.1-3.4-2.8-4.1C172.5,95.3,171.9,95.2,171.3,95.2z"/>
	<path class="st6" d="M108.3,96.5c-7,4-15,11.2-21.5,20c-6.5,8.9-11.5,19.5-11.5,30.7c0,15.8,14,28.4,30.6,28.4
		c16.7,0,30.6-12.6,30.6-28.4c0-15.8-14-28.3-30.6-28.3c-4,0-7.8,0.8-11.4,2.1c5.7-7.5,12.8-13.8,18.2-16.9c2.1-1.2,2.8-3.9,1.6-6
		c0,0,0,0,0,0C113.1,96,110.4,95.3,108.3,96.5C108.3,96.5,108.3,96.5,108.3,96.5L108.3,96.5z M105.9,127.6c12.3,0,21.9,9,21.9,19.6
		c0,10.7-9.6,19.7-21.9,19.7c-12.3,0-21.8-9-21.8-19.7C84,136.6,93.6,127.6,105.9,127.6L105.9,127.6z"/>
</g>
</svg>
