<?xml version="1.0" encoding="UTF-8"?>
<svg id="_图层_1" data-name="图层_1" xmlns="http://www.w3.org/2000/svg" width="256" height="256" version="1.1" xmlns:xlink="http://www.w3.org/1999/xlink" viewBox="0 0 256 256">
  <!-- Generator: Adobe Illustrator 29.3.1, SVG Export Plug-In . SVG Version: 2.1.0 Build 151)  -->
  <defs>
    <style>
      .st0 {
        fill-opacity: .3;
      }

      .st0, .st1, .st2 {
        fill-rule: evenodd;
      }

      .st3 {
        fill: #fbfcfd;
      }

      .st1 {
        fill: url(#_未命名的渐变_4);
      }

      .st2 {
        fill: #0c6bbd;
      }
    </style>
    <linearGradient id="_未命名的渐变_4" data-name="未命名的渐变 4" x1="17" y1="198" x2="241" y2="50" gradientTransform="translate(0 260) scale(1 -1)" gradientUnits="userSpaceOnUse">
      <stop offset="0" stop-color="#44a8ff"/>
      <stop offset="1" stop-color="#0092e2"/>
    </linearGradient>
  </defs>
  <g id="_图层_11" data-name="_图层_1">
    <path class="st2" d="M104.4,42.4c-4.4-5.3-10.9-8.4-17.8-8.4H29c-6.6,0-12,5.4-12,12v114c0,6.6,5.4,12,12,12h200c6.6,0,12-5.4,12-12v-89.9c0-6.6-5.4-12-12-12h-111.6s-13-15.7-13-15.7Z"/>
    <path class="st0" d="M92.8,74c5,0,9.8-1.6,13.8-4.6l9.9-7.4h112.5c6.6,0,12,5.4,12,12v86c0,6.6-5.4,12-12,12H29c-6.6,0-12-5.4-12-12v-74c0-6.6,5.4-12,12-12h63.8Z"/>
    <path class="st1" d="M92.8,74c5,0,9.8-1.6,13.8-4.6l9.9-7.4h112.5c6.6,0,12,5.4,12,12v124c0,6.6-5.4,12-12,12H29c-6.6,0-12-5.4-12-12v-112c0-6.6,5.4-12,12-12h63.8Z"/>
  </g>
  <g id="alldup_x5F_ico">
    <polygon class="st3" points="124.8 144.6 179.1 145.1 179.1 186.7 124.8 186.7 124.8 144.6"/>
    <path class="st3" d="M158.9,117.6l.6.3c.1,0,.6-.2.7.2.1,8-.2,16,0,23.9h-.6c-11.9,0-23.7.2-35.6.3s-1.4-.2-1.8.3c0,.3,0,.7,0,1v16.1h-16.7c0-13.2,0-26.4,0-39.6s0-1.3,0-1.9v-.3c.3,0,.7,0,1-.3h52.4Z"/>
    <path class="st3" d="M140.8,93.8v21.2h-37.5c-.3,0-.6.8-.5,1.1v19.8s-16.4,0-16.4,0v-41.8s.3-.3.3-.3h54Z"/>
  </g>
</svg>