<?xml version="1.0" encoding="utf-8"?>
<!-- Generator: Adobe Illustrator 28.1.0, SVG Export Plug-In . SVG Version: 6.00 Build 0)  -->
<svg version="1.1" id="图层_1" xmlns="http://www.w3.org/2000/svg" xmlns:xlink="http://www.w3.org/1999/xlink" x="0px" y="0px"
	 width="256px" height="256px" viewBox="0 0 256 256" style="enable-background:new 0 0 256 256;" xml:space="preserve">
<style type="text/css">
	.st0{fill-rule:evenodd;clip-rule:evenodd;fill:url(#SVGID_1_);}
	
		.st1{fill-rule:evenodd;clip-rule:evenodd;fill:url(#SVGID_00000068669396638973278980000008096692170898787487_);filter:url(#Adobe_OpacityMaskFilter);}
	.st2{mask:url(#mask0_823_19995_00000146473755070622982410000016494835984356917911_);}
	.st3{fill-rule:evenodd;clip-rule:evenodd;fill-opacity:0.3;}
	.st4{fill-rule:evenodd;clip-rule:evenodd;fill:url(#SVGID_00000066516734307168909150000005082666301160192926_);}
	.st5{display:none;}
	.st6{display:inline;fill:#CCF4C6;}
	.st7{display:inline;fill:#92E285;}
	.st8{display:inline;fill-rule:evenodd;clip-rule:evenodd;fill:url(#SVGID_00000015329871064522985640000006999619929827871166_);}
	.st9{display:inline;fill:url(#SVGID_00000103956167829741012310000008319937613224372917_);}
	.st10{display:inline;fill:#228FFF;}
	.st11{display:inline;fill:#FF8037;}
	.st12{display:inline;fill:#FFCA22;}
	.st13{fill:#3AAE29;}
</style>
<linearGradient id="SVGID_1_" gradientUnits="userSpaceOnUse" x1="129" y1="224" x2="129" y2="86" gradientTransform="matrix(1 0 0 -1 0 258)">
	<stop  offset="1.118836e-07" style="stop-color:#3AAE29"/>
	<stop  offset="1" style="stop-color:#277217"/>
</linearGradient>
<path class="st0" d="M104.4,42.4c-4.4-5.3-10.9-8.4-17.8-8.4H29c-6.6,0-12,5.4-12,12v12.1v10.1V160c0,6.6,5.4,12,12,12h200
	c6.6,0,12-5.4,12-12V70.1c0-6.6-5.4-12-12-12H117.4L104.4,42.4z"/>
<defs>
	<filter id="Adobe_OpacityMaskFilter" filterUnits="userSpaceOnUse" x="17" y="62" width="224" height="110">
		<feColorMatrix  type="matrix" values="1 0 0 0 0  0 1 0 0 0  0 0 1 0 0  0 0 0 1 0"/>
	</filter>
</defs>
<mask maskUnits="userSpaceOnUse" x="17" y="62" width="224" height="110" id="mask0_823_19995_00000146473755070622982410000016494835984356917911_">
	
		<linearGradient id="SVGID_00000041279788839873206690000012602905969002910143_" gradientUnits="userSpaceOnUse" x1="32.5816" y1="239.5494" x2="213.3495" y2="58.4074" gradientTransform="matrix(1 0 0 -1 0 258)">
		<stop  offset="0" style="stop-color:#05815D"/>
		<stop  offset="1" style="stop-color:#0C575F"/>
	</linearGradient>
	
		<path style="fill-rule:evenodd;clip-rule:evenodd;fill:url(#SVGID_00000041279788839873206690000012602905969002910143_);filter:url(#Adobe_OpacityMaskFilter);" d="
		M104.4,42.4c-4.4-5.3-10.9-8.4-17.8-8.4H29c-6.6,0-12,5.4-12,12v12.1v10.1V160c0,6.6,5.4,12,12,12h200c6.6,0,12-5.4,12-12V70.1
		c0-6.6-5.4-12-12-12H117.4L104.4,42.4z"/>
</mask>
<g class="st2">
	<g>
		<path class="st3" d="M92.8,74c5,0,9.8-1.6,13.8-4.6l9.9-7.4H229c6.6,0,12,5.4,12,12v34v52c0,6.6-5.4,12-12,12H29
			c-6.6,0-12-5.4-12-12v-52V86c0-6.6,5.4-12,12-12h58H92.8z"/>
	</g>
</g>
<g>
	
		<linearGradient id="SVGID_00000131330230151572627290000002605276042657525685_" gradientUnits="userSpaceOnUse" x1="17" y1="196" x2="241" y2="48" gradientTransform="matrix(1 0 0 -1 0 258)">
		<stop  offset="0" style="stop-color:#FCFCFC"/>
		<stop  offset="1" style="stop-color:#D5D6D7"/>
	</linearGradient>
	<path style="fill-rule:evenodd;clip-rule:evenodd;fill:url(#SVGID_00000131330230151572627290000002605276042657525685_);" d="
		M92.8,74c5,0,9.8-1.6,13.8-4.6l9.9-7.4H229c6.6,0,12,5.4,12,12v34v90c0,6.6-5.4,12-12,12H29c-6.6,0-12-5.4-12-12v-90V86
		c0-6.6,5.4-12,12-12h58H92.8z"/>
</g>
<g class="st5">
	<path class="st6" d="M160.3,97H85v69.9h75.3V97z"/>
	<path class="st7" d="M160.3,97H85v16.1h75.3V97z"/>
	
		<linearGradient id="SVGID_00000139294562565063604290000012202361785828913313_" gradientUnits="userSpaceOnUse" x1="122.6535" y1="161" x2="122.6535" y2="91.072" gradientTransform="matrix(1 0 0 -1 0 258)">
		<stop  offset="0" style="stop-color:#18A303"/>
		<stop  offset="1" style="stop-color:#106802"/>
	</linearGradient>
	
		<path style="display:inline;fill-rule:evenodd;clip-rule:evenodd;fill:url(#SVGID_00000139294562565063604290000012202361785828913313_);" d="
		M85,97v69.9h75.3V97H85z M87.7,99.7h21.5v10.8H87.7V99.7z M111.9,99.7h21.5v10.8h-21.5V99.7z M136.1,99.7h21.5v10.8h-21.5V99.7z
		 M87.7,113.1h21.5v10.8H87.7V113.1z M111.9,113.1h21.5v10.8h-21.5V113.1z M136.1,113.1h21.5v10.8h-21.5V113.1z M87.7,126.6h21.5
		v10.8H87.7V126.6z M111.9,126.6h21.5v10.8h-21.5V126.6z M136.1,126.6h21.5v10.8h-21.5V126.6z M87.7,140h21.5v10.8H87.7V140z
		 M111.9,140h21.5v10.8h-21.5V140z M136.1,140h21.5v10.8h-21.5V140z M87.7,153.5h21.5v10.8H87.7V153.5z M111.9,153.5h21.5v10.8
		h-21.5V153.5z M136.1,153.5h21.5v10.8h-21.5V153.5z"/>
	
		<linearGradient id="SVGID_00000005267634236823424750000006302732843678927779_" gradientUnits="userSpaceOnUse" x1="154.9275" y1="83.187" x2="154.9275" y2="120.84" gradientTransform="matrix(1 0 0 -1 0 258)">
		<stop  offset="0" style="stop-color:#FFFFFF"/>
		<stop  offset="1" style="stop-color:#FFFFFF"/>
	</linearGradient>
	<path style="display:inline;fill:url(#SVGID_00000005267634236823424750000006302732843678927779_);" d="M171.1,137.3h-32.3
		c-1.5,0-2.7,1.2-2.7,2.7v32.3c0,1.5,1.2,2.7,2.7,2.7h32.3c1.5,0,2.7-1.2,2.7-2.7V140C173.8,138.5,172.6,137.3,171.1,137.3z"/>
	<path class="st10" d="M146.9,158.9h-8.1V175h8.1V158.9z"/>
	<path class="st11" d="M160.3,145.4h-10.8V175h10.8V145.4z"/>
	<path class="st12" d="M171.1,164.2H163V175h8.1V164.2z"/>
</g>
<path class="st13" d="M86.2,166.1l0.5,0.7c2.9,4.3,6.3,8,10.1,11.1L97,178l0.6,0.5v-0.8c-0.4-2.8-0.7-6.1-0.8-9.4l0-0.2v-0.3h-0.3
	c-3.5-0.3-6.8-0.9-9.9-1.7l0.5,0.1L86.2,166.1z M99.7,157.5v0.5c-0.3,2.2-0.5,4.8-0.6,7.4l0,0.1v0.3h3.8c1.2,0,2.6,0.1,3.9,0h0.9
	l-0.7-0.5c-2.6-2.1-4.8-4.6-6.6-7.4l-0.1-0.1L99.7,157.5z M89.3,152.7l-0.1,0.3c-1.5,2.8-2.8,6.2-3.9,9.7l-0.1,0.5v0.3h0.4
	c3.1,0.9,6.9,1.6,10.7,2l0.3,0l0.3,0v-0.4c0.1-3,0.3-5.9,0.7-8.8l0,0.4v-0.3h-0.3C94.2,155.3,91.7,154.1,89.3,152.7l0.3,0.2
	L89.3,152.7z M78.9,145.3v0.8c0.7,5.1,2,9.7,4,13.9l-0.1-0.3l0.3,0.8l0.3-0.8c1.1-3.3,2.3-6,3.6-8.6l-0.2,0.4l0.2-0.3l-0.3-0.2
	c-2.8-1.7-5.1-3.5-7.4-5.3l0.1,0.1L78.9,145.3z M95.2,143.4l-0.5,0.7c-1.2,1.7-2.5,3.6-3.6,5.6l-0.2,0.3l-0.2,0.3l0.3,0.2
	c1.7,1,3.8,2,6,3l0.4,0.2l0.8,0.4l-0.4-0.8c-1.2-2.6-2.2-5.6-2.7-8.7l0-0.2L95.2,143.4z M87.6,134.9l-0.3,0.2
	c-2.7,2.2-5.1,4.5-7.4,7l-0.1,0.1l-0.2,0.2l0.3,0.2c2.4,2.1,5.1,4.1,7.9,5.9l0.3,0.2l0.3,0.2l0.2-0.3c1.5-2.6,2.9-4.8,4.4-6.9
	l-0.1,0.2v-0.2l-0.2-0.2c-1.6-1.9-3.2-3.9-4.7-6.1l-0.2-0.2L87.6,134.9z M96.6,128.7l-0.7,0.4c-1.9,1.1-3.8,2.3-5.6,3.6L90,133
	l0.2,0.3c1.3,1.8,2.6,3.5,4.1,5.2l0.6,0.7v-0.9c0.1-3.2,0.6-6.2,1.6-9l-0.1,0.2L96.6,128.7z M81.2,123.6l-0.3,0.8
	c-1.4,4.1-2.2,8.8-2.4,13.7v0.1v0.9l0.6-0.6c2-2.1,4.1-4,6.4-5.8l0.1-0.1l0.2-0.2l-0.2-0.3c-1.4-2.1-2.8-4.7-4-7.3l-0.2-0.4
	L81.2,123.6z M93.9,116.5c-4.1,0.8-7.7,1.8-11.1,3.1l0.4-0.1h-0.3v0.3c1.6,4,3.4,7.5,5.4,10.7l-0.2-0.3l0.2,0.3l0.3-0.2
	c2-1.5,4.3-2.9,6.8-4.3l0.3-0.2l0.2-0.1v-0.2c-0.6-2.3-1.2-5.3-1.6-8.2l0-0.4v-0.4L93.9,116.5z M104.4,115.9c-2.3,0-4.5,0.2-6.7,0.5
	l0.3,0c0.3,2.1,0.6,4.2,1.1,6.4C100.6,120.1,102.4,117.9,104.4,115.9L104.4,115.9L104.4,115.9z M111.4,106c-0.6,1.8-1.1,3.6-1.6,5.5
	c2-1.3,4.2-2.4,6.6-3.2l0.2-0.1C115,107.4,113.2,106.6,111.4,106L111.4,106z M93.4,104.8c-2.9,2.8-5.4,6-7.5,9.5l-0.1,0.2
	c2-0.6,4.6-1.3,7.3-1.8l0.4-0.1c-0.1-1.4-0.2-3-0.2-4.7c0-1.1,0-2.3,0.1-3.4L93.4,104.8L93.4,104.8z M97.7,102.5
	c-0.1,1.4-0.2,3.1-0.2,4.8s0.1,3.4,0.2,5l0-0.2c2.4-0.3,4.9-0.4,7.4-0.4c0.6-2.9,1.3-5.3,2.1-7.6l-0.1,0.5c-2.6-0.8-5.8-1.5-9-1.9
	L97.7,102.5L97.7,102.5z M117.1,93.5c-1.4,2.3-2.7,5-3.9,7.7l-0.2,0.4c2.7,0.9,4.9,1.9,7,2.9l-0.4-0.2c0.6-0.7,1.1-1.4,1.8-2.1
	c1-1.2,1.9-2.3,2.9-3.3c-2.1-1.9-4.5-3.7-7-5.3L117.1,93.5L117.1,93.5z M112,93.2c-4.1,1.4-7.7,3.2-10.9,5.3l0.2-0.1
	c2.9,0.5,5.4,1.1,7.9,1.9l-0.4-0.1c1.2-2.9,2.3-5.1,3.5-7.4C112.2,92.8,112,93.2,112,93.2z M127.9,90.6c-2,0-3.9,0.1-5.8,0.3l0.2,0
	c2.8,1.9,5.2,3.8,7.5,5.9l-0.1-0.1l2,1.8l-1.9,1.8c-1.6,1.5-3.1,3.2-4.5,4.8l-0.1,0.1l-0.7,0.9c1-0.1,2.3-0.2,3.5-0.2h0
	c18.3,0.2,33,15.1,33,33.4c0,18.4-14.9,33.4-33.4,33.4c-6.3,0-12.3-1.8-17.3-4.8l0.1,0.1c-2.2,0.3-4.8,0.4-7.5,0.4c0,0,0,0-0.1,0
	h-3.5c0.1,4.2,0.5,8.3,1.1,12.2l-0.1-0.5c7.7,5.2,17.2,8.4,27.4,8.4c27.1,0,49-21.9,49-49C176.8,112.5,154.9,90.6,127.9,90.6
	L127.9,90.6L127.9,90.6z"/>
</svg>
