<?xml version="1.0" encoding="UTF-8"?>
<svg xmlns="http://www.w3.org/2000/svg" width="256" height="256" version="1.1" xmlns:xlink="http://www.w3.org/1999/xlink" viewBox="0 0 256 256">
  <!-- Generator: Adobe Illustrator 30.0.0, SVG Export Plug-In . SVG Version: 2.1.1 Build 123)  -->
  <defs>
    <style>
      .st0 {
        fill-opacity: .3;
      }

      .st0, .st1, .st2, .st3 {
        fill-rule: evenodd;
      }

      .st4 {
        fill: #fff;
      }

      .st5 {
        mask: url(#mask);
      }

      .st1 {
        fill: url(#_未命名的渐变);
      }

      .st6 {
        isolation: isolate;
      }

      .st7 {
        mix-blend-mode: multiply;
      }

      .st8 {
        fill: #a3dbfe;
      }

      .st2 {
        fill: #191919;
      }

      .st3 {
        fill: url(#_未命名的渐变_2);
      }

      .st9 {
        display: none;
        fill: #d4003b;
      }
    </style>
    <linearGradient id="_未命名的渐变" data-name="未命名的渐变" x1="32.58" y1="239.55" x2="213.35" y2="58.41" gradientTransform="translate(0 258) scale(1 -1)" gradientUnits="userSpaceOnUse">
      <stop offset="0" stop-color="#05815d"/>
      <stop offset="1" stop-color="#0c575f"/>
    </linearGradient>
    <mask id="mask" x="17" y="34" width="224" height="138" maskUnits="userSpaceOnUse">
      <g id="mask0_804_18508">
        <path class="st1" d="M104.43,42.38c-4.37-5.31-10.88-8.38-17.75-8.38H29c-6.63,0-12,5.37-12,12v114c0,6.63,5.37,12,12,12h200c6.63,0,12-5.37,12-12v-89.86c0-6.63-5.37-12-12-12h-111.6l-12.98-15.76Z"/>
      </g>
    </mask>
    <linearGradient id="_未命名的渐变_2" data-name="未命名的渐变 2" x1="17" y1="196" x2="241" y2="48" gradientTransform="translate(0 258) scale(1 -1)" gradientUnits="userSpaceOnUse">
      <stop offset="0" stop-color="#444545"/>
      <stop offset="1" stop-color="#161616"/>
    </linearGradient>
  </defs>
  <g class="st6">
    <g id="_图层_1" data-name="图层_1">
      <path class="st2" d="M104.43,42.38c-4.37-5.31-10.88-8.38-17.75-8.38H29c-6.63,0-12,5.37-12,12v114c0,6.63,5.37,12,12,12h200c6.63,0,12-5.37,12-12v-89.86c0-6.63-5.37-12-12-12h-111.6l-12.98-15.76Z"/>
      <g class="st5">
        <g class="st7">
          <path class="st0" d="M92.79,74c4.98,0,9.82-1.61,13.8-4.6l9.87-7.4h112.54c6.63,0,12,5.37,12,12v86c0,6.63-5.37,12-12,12H29c-6.63,0-12-5.37-12-12v-74c0-6.63,5.37-12,12-12h63.79Z"/>
        </g>
      </g>
      <path class="st3" d="M92.79,74c4.98,0,9.82-1.61,13.8-4.6l9.87-7.4h112.54c6.63,0,12,5.37,12,12v124c0,6.63-5.37,12-12,12H29c-6.63,0-12-5.37-12-12v-112c0-6.63,5.37-12,12-12h63.79Z"/>
      <path class="st9" d="M160.65,160.27h-44.59c-7.92,0-14.32-6.4-14.32-14.27s6.4-14.3,14.32-14.3h24.88c2.96,0,5.36-2.39,5.36-5.35s-2.4-5.34-5.36-5.34h-24.88c-13.82,0-25.06,11.2-25.06,24.99s11.24,25.01,25.06,25.01h44.59c2.96,0,5.35-2.41,5.35-5.37s-2.39-5.37-5.35-5.37Z"/>
      <path class="st9" d="M140.97,101h-44.6c-2.97,0-5.36,2.43-5.36,5.35s2.39,5.37,5.36,5.37h44.6c7.89,0,14.3,6.41,14.3,14.27s-6.41,14.3-14.3,14.3h-24.9c-2.96,0-5.35,2.4-5.35,5.35s2.39,5.35,5.35,5.35h24.9c13.8,0,25.03-11.21,25.03-25.01s-11.23-24.99-25.03-24.99Z"/>
      <path id="logo" class="st8" d="M133.07,75.63l6.97,34.32,33.25-11.14-26.29,23.19,26.29,23.19-33.25-11.14-6.97,34.32-6.97-34.32-33.25,11.14,26.28-23.19-26.28-23.19,33.25,11.14,6.97-34.32Z"/>
      <g id="script">
        <path class="st4" d="M132.53,179.19c-1.41-1.7-3.46-2.56-6.06-2.56-2.34,0-4.22.71-5.58,2.11-2.22,2.28-2.31,5.53-2.28,6.48.02.87.23,3.11,1.69,5.05,1.45,1.94,3.63,2.92,6.48,2.92,3.34,0,5.16-1.53,6.09-2.81,1.01-1.39,1.23-2.75,1.24-2.81v-.1s-2.78-.2-2.78-.2l-.02.07c-.68,2.22-2.23,3.35-4.61,3.35-1.55,0-2.84-.53-3.73-1.53-.84-.95-1.3-2.28-1.31-3.86h12.59v-.07c.3-1.58-.12-4.14-1.71-6.04h0ZM131.33,183.36h-9.55c.09-1.23.54-2.28,1.33-3.03.84-.81,2.04-1.24,3.45-1.24s2.6.43,3.45,1.24c.78.75,1.24,1.8,1.33,3.03Z"/>
        <path class="st4" d="M114.45,179.06c-1.33-1.59-3.18-2.43-5.36-2.43-3.17,0-5.31,1.65-6.19,4.76h-.17l.45-4.58h-2.83v22.48h3.06v-6.19c0-1.22-.35-2.74-.46-3.24-.1-.46-.19-1.19-.21-1.45h.18c.43,1.47,1.14,2.63,2.12,3.44,1.07.89,2.43,1.34,4.05,1.34,2.17,0,4.02-.84,5.36-2.43,1.26-1.5,1.95-3.58,1.95-5.85s-.69-4.36-1.93-5.85ZM113.32,184.88c0,1.61-.47,3.07-1.32,4.12-.9,1.11-2.18,1.7-3.68,1.7s-2.79-.59-3.69-1.69c-.84-1.04-1.31-2.5-1.31-4.12s.47-3.07,1.32-4.12c.9-1.11,2.18-1.7,3.68-1.7s2.79.59,3.69,1.69c.84,1.04,1.31,2.5,1.31,4.12Z"/>
        <path class="st4" d="M141.73,185.05c0-.71,0-2.2.52-3.46.61-1.48,1.77-2.23,3.44-2.23h2.39v-2.55h-1.97c-2.06,0-3.33,1.16-4.03,2.14-.65.91-.94,1.81-1.01,2.06h-.19l.27-1.66h0l.4-2.54h-5.06v2.54h2.2v11.07h-2.2v2.55h9.2v-2.55h-3.96v-5.38Z"/>
        <path class="st4" d="M153.45,187.75v-8.38h5.78v-2.55h-5.78v-4.48h-3.02v16.72c0,1.29.33,2.28.99,2.93.94.93,2.35,1,3.23,1,.08,0,.15,0,.22,0,.06,0,.12,0,.18,0h5.58v-2.54h-5.25c-.66,0-1.15-.16-1.46-.48-.5-.51-.48-1.34-.46-1.94,0-.1,0-.19,0-.27Z"/>
        <path class="st4" d="M175.08,176.81l-4.78,14.07-5.37-14.07h-3.2l6.28,16.11.02.06h1.54c-.17.4-.7,1.64-.92,2.16-.46,1.06-1.11,1.58-1.97,1.58h-2.86v2.53h3.68s.08,0,.12,0c.05,0,.1,0,.15,0,.9,0,2.54-.14,3.51-2.87l6.92-19.44.04-.12h-3.17Z"/>
        <path class="st4" d="M96.18,178.42c-1.15-1.19-2.88-1.79-5.15-1.79-2.59,0-4.53.63-5.77,1.87-1.34,1.34-1.35,2.88-1.35,2.95v.08l2.82.15h.09s0-.08,0-.08c0,0,.06-.64.6-1.26.71-.83,1.93-1.27,3.52-1.27,1.35,0,2.37.39,3.03,1.16.67.78.72,1.65.72,1.9v.76c-.25.03-1.22.16-4.94.66-2.6.32-4.44,1.09-5.47,2.29-.83.97-.9,1.97-.93,2.4,0,.04,0,.07,0,.1,0,.07-.13,1.82,1.17,3.23.99,1.08,2.51,1.62,4.52,1.62,2.82,0,4.45-1.18,5.33-2.17.82-.94,1.14-1.86,1.22-2.11h.14l-.54,4.08h2.48v-10.39s0-.01,0-.03c.02-.59-.04-2.62-1.51-4.14h0ZM93.04,189.78c-.86.58-2.04.91-3.26.91s-3.36-.32-3.36-2.46c0-.83.44-1.5,1.3-2,.81-.47,1.73-.63,2.09-.68.42-.06,4.22-.59,4.9-.68v1.65c0,2.14-1.45,3.13-1.66,3.27Z"/>
      </g>
    </g>
  </g>
</svg>