<?xml version="1.0" encoding="UTF-8"?>
<svg xmlns="http://www.w3.org/2000/svg" width="256" height="256" version="1.1" xmlns:xlink="http://www.w3.org/1999/xlink" viewBox="0 0 256 256">
  <defs>
    <style>
      .cls-1 {
        fill: url(#_未命名的渐变_14-2);
      }

      .cls-1, .cls-2, .cls-3, .cls-4, .cls-5, .cls-6, .cls-7, .cls-8, .cls-9, .cls-10 {
        stroke-width: 0px;
      }

      .cls-2 {
        fill: url(#_未命名的渐变_14-5);
      }

      .cls-11 {
        isolation: isolate;
      }

      .cls-3 {
        fill: #000;
        fill-opacity: .3;
      }

      .cls-3, .cls-4, .cls-5, .cls-7 {
        fill-rule: evenodd;
      }

      .cls-4 {
        fill: url(#_未命名的渐变);
      }

      .cls-5 {
        fill: #0c0c65;
      }

      .cls-6 {
        fill: url(#_未命名的渐变_14-4);
      }

      .cls-12 {
        mask: url(#mask);
      }

      .cls-7 {
        fill: url(#_未命名的渐变_2);
      }

      .cls-8 {
        fill: url(#_未命名的渐变_14-6);
      }

      .cls-13 {
        mix-blend-mode: multiply;
      }

      .cls-9 {
        fill: url(#_未命名的渐变_14);
      }

      .cls-10 {
        fill: url(#_未命名的渐变_14-3);
      }
    </style>
    <linearGradient id="_未命名的渐变" data-name="未命名的渐变" x1="32.6" y1="239.5" x2="213.3" y2="58.4" gradientTransform="translate(0 258) scale(1 -1)" gradientUnits="userSpaceOnUse">
      <stop offset="0" stop-color="#05815d"/>
      <stop offset="1" stop-color="#0c575f"/>
    </linearGradient>
    <mask id="mask" x="17" y="34" width="224" height="138" maskUnits="userSpaceOnUse">
      <g id="mask0_539_13120" data-name="mask0 539 13120">
        <path class="cls-4" d="M104.4,42.4c-4.4-5.3-10.9-8.4-17.8-8.4H29c-6.6,0-12,5.4-12,12v114c0,6.6,5.4,12,12,12h200c6.6,0,12-5.4,12-12v-89.9c0-6.6-5.4-12-12-12h-111.6l-13-15.8Z"/>
      </g>
    </mask>
    <linearGradient id="_未命名的渐变_2" data-name="未命名的渐变 2" x1="17" y1="196" x2="241" y2="48" gradientTransform="translate(0 258) scale(1 -1)" gradientUnits="userSpaceOnUse">
      <stop offset="0" stop-color="#6d6db6"/>
      <stop offset="1" stop-color="#00005b"/>
    </linearGradient>
    <linearGradient id="_未命名的渐变_14" data-name="未命名的渐变 14" x1="353.3" y1="141.8" x2="353.8" y2="141.8" gradientUnits="userSpaceOnUse">
      <stop offset="0" stop-color="#fff"/>
      <stop offset=".3" stop-color="#fcfcfd"/>
      <stop offset=".4" stop-color="#f4f4f8"/>
      <stop offset=".6" stop-color="#e5e5f1"/>
      <stop offset=".7" stop-color="#d1d1e5"/>
      <stop offset=".8" stop-color="#b7b7d7"/>
      <stop offset=".9" stop-color="#9696c5"/>
      <stop offset="1" stop-color="#7171b1"/>
      <stop offset="1" stop-color="#5f5fa7"/>
    </linearGradient>
    <linearGradient id="_未命名的渐变_14-2" data-name="未命名的渐变 14" y1="142.2" y2="142.2" xlink:href="#_未命名的渐变_14"/>
    <linearGradient id="_未命名的渐变_14-3" data-name="未命名的渐变 14" y1="131.5" y2="131.5" xlink:href="#_未命名的渐变_14"/>
    <linearGradient id="_未命名的渐变_14-4" data-name="未命名的渐变 14" y1="149.6" y2="149.6" xlink:href="#_未命名的渐变_14"/>
    <linearGradient id="_未命名的渐变_14-5" data-name="未命名的渐变 14" y1="123" y2="123" xlink:href="#_未命名的渐变_14"/>
    <linearGradient id="_未命名的渐变_14-6" data-name="未命名的渐变 14" y1="159.9" y2="159.9" xlink:href="#_未命名的渐变_14"/>
  </defs>
  <g class="cls-11">
    <g id="_图层_1" data-name="图层 1">
      <path class="cls-5" d="M104.4,42.4c-4.4-5.3-10.9-8.4-17.8-8.4H29c-6.6,0-12,5.4-12,12v114c0,6.6,5.4,12,12,12h200c6.6,0,12-5.4,12-12v-89.9c0-6.6-5.4-12-12-12h-111.6l-13-15.8Z"/>
      <g class="cls-12">
        <g class="cls-13">
          <path class="cls-3" d="M92.8,74c5,0,9.8-1.6,13.8-4.6l9.9-7.4h112.5c6.6,0,12,5.4,12,12v86c0,6.6-5.4,12-12,12H29c-6.6,0-12-5.4-12-12v-74c0-6.6,5.4-12,12-12h63.8Z"/>
        </g>
      </g>
      <path class="cls-7" d="M92.8,74c5,0,9.8-1.6,13.8-4.6l9.9-7.4h112.5c6.6,0,12,5.4,12,12v124c0,6.6-5.4,12-12,12H29c-6.6,0-12-5.4-12-12v-112c0-6.6,5.4-12,12-12h63.8Z"/>
      <g id="azul">
        <path class="cls-9" d="M42.5,150.8c2.6-9.8,10.6-11.5,19-12.4,4-.4,8,0,11.9,0,1.4-5-.8-9.1-5.2-10.4-5.7-1.6-10.6.7-12.4,6h-11.9c.6-6.4,3.5-11.1,9.1-13.8,7.6-3.5,15.4-3.6,23.2-.7,6.2,2.4,9.6,7.2,10.2,13.7.5,5.9.3,11.8.4,17.7,0,3.8.5,4.3,4.8,4.1,0,3.1,0,6.2,0,9.3,0,.5-.8,1.1-1.3,1.3-.7.3-1.5.4-2.3.6h-3.4c-3.3-.6-6.4-1.6-8.3-4.6-.6-1-1.1-2-1.7-3.1-2.7,4.3-6.5,6.4-11.1,7.2-1.3.2-2.7.4-4,.6h-2.4c-.3-.1-.6-.3-.9-.3-7-.5-11.9-3.6-13.6-10.7v-4.3ZM73.6,145.3c-2.8,0-5.6-.2-8.3,0-2.4.2-4.7.8-6.9,1.7-2.2.9-3.1,3-2.7,5.4.4,2.3,2,3.3,4.1,3.8,3.4.7,6.6.2,9.6-1.4,3.8-2,5.1-4.9,4.3-9.6Z"/>
        <path class="cls-1" d="M154.9,166.2c-.9-.2-1.9-.4-2.8-.6-6.6-1.6-11.3-6.7-11.6-13.9-.4-8.9-.2-17.9-.3-26.9,0-2.1,0-4.3,0-6.6h13.3c0,2.3,0,4.5,0,6.7,0,7,0,14.1,0,21.1,0,5.1,2.8,8.1,7.4,8.5,4.5.4,8.4-2.5,9.4-7.2.3-1.4.4-2.9.4-4.3,0-7.4,0-14.7,0-22.1v-2.8h13.3c0,.9,0,1.8,0,2.6,0,9.8,0,19.7,0,29.5,0,4.2.5,4.7,4.7,4.7,0,2.9,0,5.9,0,8.8,0,.5-.8,1.2-1.3,1.5-.7.4-1.7.5-2.5.7h-3.9c-4.5-.9-8.2-2.8-9.6-8.1-3.4,5-8,7-13.1,8.1h-3.4Z"/>
        <path class="cls-10" d="M202.7,166.2c-.9-.2-1.9-.4-2.8-.7-4.2-1.2-6.9-4.7-7.4-9.4-.2-1.7-.2-3.4-.2-5,0-17,0-34.1,0-51.1v-3.2h13.3v2.8c0,17,0,34.1,0,51.1,0,4.1.6,4.6,4.7,4.3v10.1c-1.4.4-2.8.7-4.2,1.1h-3.4Z"/>
        <path class="cls-6" d="M116.8,134.3c-.5.8-1,1.6-1.5,2.4l.2.2c.6-.7,1.2-1.4,1.8-2,.2.1.3.2.5.4-.5.8-1,1.6-1.5,2.4.1,0,.2.2.3.3,1.1-1.3,2.2-2.5,3.2-3.8.1,0,.2.2.4.3-1,1.4-2,2.8-3,4.1,0,0,.2.2.3.3.7-.6,1.3-1.2,2-1.9,0,0,.2.1.3.2-.5.8-1,1.6-1.5,2.4.1,0,.2.2.3.2,1.1-1.3,2.2-2.5,3.3-3.8.1,0,.2.1.3.2-1,1.4-2,2.8-3,4.3.1,0,.2.2.3.3,1.1-1.3,2.2-2.5,3.3-3.8.1,0,.2.2.4.3l-3,4.1c.1.1.3.2.4.3,1.1-1.2,2.1-2.5,3.2-3.7.1,0,.2.2.4.2l-3,4.1c.1,0,.2.2.3.3l3.3-3.7c0,0,.1,0,.2.1-1.2,2.1-2.2,4.2-3.7,6.1-4.6,6.2-9.3,12.2-13.9,18.4-1,1.4-2.1,1.9-3.8,1.8-2.3-.1-4.6,0-7,0-.4-4.1-.6-7.8,2.5-11.1,3.2-3.3,5.6-7.2,8.6-10.6,2.8-3.3,5.8-6.4,8.8-9.6.2.1.3.2.5.4Z"/>
        <path class="cls-2" d="M100.7,123.9h14c0-.2,0-.3,0-.5h-16c0-.1,0-.2,0-.4,4.7-.2,9.3-.4,14-.6,0-.1,0-.3,0-.4h-15.6c0-.2,0-.4,0-.6h14.8c0-.2,0-.5,0-.7h-14.5c0-.2,0-.4,0-.6h16.8c0-.1,0-.2,0-.4-4.1-.2-8.1-.4-12.2-.5,0-.2,0-.4,0-.5h12.3c0-.2,0-.4,0-.5h-9.9c0,0,0-.2,0-.3h29.8v10.3h-27.8c0,0,0-.1,0-.2,2.2-.1,4.5-.2,6.7-.3,0-.1,0-.2,0-.3h-15.9c0-.2,0-.3,0-.5h14.7c0-.2,0-.5,0-.7h-14.2c0-.2,0-.5,0-.7h17.6v-.3c-4.9-.3-9.8-.5-14.6-.8,0-.1,0-.3.1-.4Z"/>
        <path class="cls-8" d="M120.7,158.2c-1.8-.2-3.6-.4-5.4-.6,0-.1,0-.2,0-.3,1.9,0,3.8-.2,5.7-.3,0,0,0-.2,0-.2l-5.5-.2c0-.2,0-.5,0-.7,6.1-.3,12.2-.7,18.6-1.1v10.4h-23.9c0-.1,0-.2,0-.4h8.9v-.5h-9.1c0-.2,0-.3,0-.5h10c0-.1,0-.2,0-.3-2.5-.2-5-.5-7.5-.7,0-.1,0-.3,0-.4h8.2c0-.2,0-.3,0-.5h-8.6c0-.1,0-.3,0-.4,2.6-.2,5.3-.5,7.9-.7,0-.1,0-.2,0-.3h-7.3v-.5c2.2,0,4.4-.2,6.6-.3,0-.2,0-.3,0-.5-1.9-.1-3.9-.2-5.8-.3,0-.1,0-.3,0-.4h7.1c0-.1,0-.2,0-.4Z"/>
      </g>
    </g>
  </g>
</svg>