<?xml version="1.0" encoding="utf-8"?>
<!-- Generator: Adobe Illustrator 28.1.0, SVG Export Plug-In . SVG Version: 6.00 Build 0)  -->
<svg version="1.1" id="图层_1" xmlns="http://www.w3.org/2000/svg" xmlns:xlink="http://www.w3.org/1999/xlink" x="0px" y="0px"
	 width="256px" height="256px" viewBox="0 0 256 256" style="enable-background:new 0 0 256 256;" xml:space="preserve">
<style type="text/css">
	.st0{fill-rule:evenodd;clip-rule:evenodd;fill:#0C6BBD;}
	.st1{fill-rule:evenodd;clip-rule:evenodd;fill:url(#SVGID_1_);filter:url(#Adobe_OpacityMaskFilter);}
	.st2{mask:url(#mask0_546_12158_00000145766081719161164070000000726237961382425741_);}
	.st3{fill-rule:evenodd;clip-rule:evenodd;fill-opacity:0.3;}
	.st4{fill-rule:evenodd;clip-rule:evenodd;fill:url(#SVGID_00000138557089056824194570000000903731243767826615_);}
	.st5{display:none;fill-rule:evenodd;clip-rule:evenodd;fill:#FFFFFF;}
	.st6{display:none;fill:#FFFFFF;}
	.st7{fill:#FCFDFE;}
</style>
<path class="st0" d="M104.4,42.4c-4.4-5.3-10.9-8.4-17.8-8.4H29c-6.6,0-12,5.4-12,12v12.1v10.1V160c0,6.6,5.4,12,12,12h200
	c6.6,0,12-5.4,12-12V70.1c0-6.6-5.4-12-12-12H117.4L104.4,42.4z"/>
<defs>
	<filter id="Adobe_OpacityMaskFilter" filterUnits="userSpaceOnUse" x="17" y="62" width="224" height="110">
		<feColorMatrix  type="matrix" values="1 0 0 0 0  0 1 0 0 0  0 0 1 0 0  0 0 0 1 0"/>
	</filter>
</defs>
<mask maskUnits="userSpaceOnUse" x="17" y="62" width="224" height="110" id="mask0_546_12158_00000145766081719161164070000000726237961382425741_">
	
		<linearGradient id="SVGID_1_" gradientUnits="userSpaceOnUse" x1="32.5816" y1="239.5494" x2="213.3495" y2="58.4074" gradientTransform="matrix(1 0 0 -1 0 258)">
		<stop  offset="0" style="stop-color:#05815D"/>
		<stop  offset="1" style="stop-color:#0C575F"/>
	</linearGradient>
	<path class="st1" d="M104.4,42.4c-4.4-5.3-10.9-8.4-17.8-8.4H29c-6.6,0-12,5.4-12,12v12.1v10.1V160c0,6.6,5.4,12,12,12h200
		c6.6,0,12-5.4,12-12V70.1c0-6.6-5.4-12-12-12H117.4L104.4,42.4z"/>
</mask>
<g class="st2">
	<g>
		<path class="st3" d="M92.8,74c5,0,9.8-1.6,13.8-4.6l9.9-7.4H229c6.6,0,12,5.4,12,12v34v52c0,6.6-5.4,12-12,12H29
			c-6.6,0-12-5.4-12-12v-52V86c0-6.6,5.4-12,12-12h58H92.8z"/>
	</g>
</g>
<g>
	
		<linearGradient id="SVGID_00000057851264917520814340000001964871767460424833_" gradientUnits="userSpaceOnUse" x1="17" y1="196" x2="241" y2="48" gradientTransform="matrix(1 0 0 -1 0 258)">
		<stop  offset="0" style="stop-color:#44A8FF"/>
		<stop  offset="1" style="stop-color:#0175DA"/>
	</linearGradient>
	<path style="fill-rule:evenodd;clip-rule:evenodd;fill:url(#SVGID_00000057851264917520814340000001964871767460424833_);" d="
		M92.8,74c5,0,9.8-1.6,13.8-4.6l9.9-7.4H229c6.6,0,12,5.4,12,12v34v90c0,6.6-5.4,12-12,12H29c-6.6,0-12-5.4-12-12v-90V86
		c0-6.6,5.4-12,12-12h58H92.8z"/>
</g>
<path class="st5" d="M60.7,163H48v12.7h12.7V163z M58.2,165.5h-7.6v7.6h7.6V165.5z"/>
<rect x="53.1" y="168.1" class="st6" width="2.5" height="2.5"/>
<path class="st5" d="M60.7,178.3H48V191h12.7V178.3z M58.2,180.8h-7.6v7.6h7.6V180.8z"/>
<rect x="53.1" y="183.4" class="st6" width="2.5" height="2.5"/>
<path class="st5" d="M76,163H63.3v12.7H76V163z M73.5,165.5h-7.6v7.6h7.6V165.5z"/>
<rect x="68.4" y="168.1" class="st6" width="2.5" height="2.5"/>
<rect x="73.5" y="178.3" class="st6" width="2.5" height="12.7"/>
<rect x="68.4" y="183.4" class="st6" width="5.1" height="2.5"/>
<rect x="63.3" y="183.4" class="st6" width="2.5" height="7.6"/>
<rect x="63.3" y="178.3" class="st6" width="5.1" height="2.5"/>
<rect x="70.9" y="178.3" class="st6" width="2.5" height="2.5"/>
<rect x="68.4" y="188.5" class="st6" width="2.5" height="2.5"/>
<path class="st5" d="M74.3,92c-6.6,8.4-10.6,19.1-10.6,30.6c0,11,3.6,21.2,9.7,29.4H78c-3.3-3.6-9.8-14.4-9.8-29.4S75.1,96,78.6,92
	H74.3z M54.5,108.9c0,1.8-1.5,3.3-3.3,3.3s-3.3-1.5-3.3-3.3c0-1.8,1.5-3.3,3.3-3.3S54.5,107.1,54.5,108.9z M51.3,141.9
	c1.8,0,3.3-1.5,3.3-3.3c0-1.8-1.5-3.3-3.3-3.3s-3.3,1.5-3.3,3.3C48,140.4,49.5,141.9,51.3,141.9z"/>
<path class="st7" d="M114.9,95.8c6.3,6.8,12.6,13.5,18.8,20.3c9.2,10,18.4,20.1,27.9,30.5c-8.5,0-16.6,0-25.1,0
	c4,12,7.8,23.6,11.7,35.3c-0.1,0.1-0.2,0.2-0.4,0.3c-6.2-6.7-12.4-13.4-18.6-20.1c-9.3-10.1-18.6-20.2-28.1-30.7
	c8.5,0,16.6,0,25.1,0c-4-12-7.8-23.6-11.7-35.2C114.7,96.1,114.8,95.9,114.9,95.8z"/>
</svg>
