<?xml version="1.0" encoding="UTF-8"?>
<svg id="_图层_1" data-name="图层 1" xmlns="http://www.w3.org/2000/svg" width="256" height="256" version="1.1" xmlns:xlink="http://www.w3.org/1999/xlink" viewBox="0 0 256 256">
  <defs>
    <style>
      .cls-1, .cls-2, .cls-3, .cls-4, .cls-5 {
        stroke-width: 0px;
      }

      .cls-1, .cls-4 {
        fill: #06b6f2;
      }

      .cls-2 {
        fill: #000;
        fill-opacity: .3;
      }

      .cls-2, .cls-4, .cls-5 {
        fill-rule: evenodd;
      }

      .cls-3 {
        fill: none;
      }

      .cls-6 {
        clip-path: url(#clippath);
      }

      .cls-5 {
        fill: url(#_未命名的渐变_2);
      }
    </style>
    <clipPath id="clippath">
      <rect class="cls-3" width="256" height="256"/>
    </clipPath>
    <linearGradient id="_未命名的渐变_2" data-name="未命名的渐变 2" x1="17" y1="572" x2="241" y2="720" gradientTransform="translate(0 -510)" gradientUnits="userSpaceOnUse">
      <stop offset="0" stop-color="#fbfafa"/>
      <stop offset="1" stop-color="#e9e4e4"/>
    </linearGradient>
  </defs>
  <g class="cls-6">
    <g>
      <path class="cls-4" d="M104.4,42.4c-4.4-5.3-10.9-8.4-17.8-8.4H29c-6.6,0-12,5.4-12,12v114c0,6.6,5.4,12,12,12h200c6.6,0,12-5.4,12-12v-89.9c0-6.6-5.4-12-12-12h-111.6l-13-15.7Z"/>
      <path class="cls-2" d="M92.8,74c5,0,9.8-1.6,13.8-4.6l9.9-7.4h112.5c6.6,0,12,5.4,12,12v86c0,6.6-5.4,12-12,12H29c-6.6,0-12-5.4-12-12v-74c0-6.6,5.4-12,12-12h63.8Z"/>
      <path class="cls-5" d="M92.8,74c5,0,9.8-1.6,13.8-4.6l9.9-7.4h112.5c6.6,0,12,5.4,12,12v124c0,6.6-5.4,12-12,12H29c-6.6,0-12-5.4-12-12v-112c0-6.6,5.4-12,12-12h63.8Z"/>
    </g>
  </g>
  <g id="tv">
    <path id="path14" class="cls-1" d="M107.6,126.2c4.4,0,8,3.6,8,8v15c0,4.4-3.6,8-8,8s-8-3.6-8-8v-15c0-4.4,3.6-8,8-8Z"/>
    <path id="path15" class="cls-1" d="M147.6,126.2c4.4,0,8,3.6,8,8v15c0,4.4-3.6,8-8,8s-8-3.6-8-8v-15c0-4.4,3.6-8,8-8h0Z"/>
    <path id="path16" class="cls-1" d="M179.8,108.8c-2-3.8-5-6.8-8.8-8.8-3.8-2-7.6-3.1-17.6-3.1h-1.2l4.1-4.8c2.2-2.5,1.9-6.3-.6-8.5-2.5-2.1-6.2-1.9-8.5.7l-10.9,12.7h-18.3l-10.9-12.7c-2.2-2.4-5.9-2.7-8.4-.6-2.5,2.2-2.8,6-.6,8.5l4.1,4.8h-1.3c-9.8,0-13.7,1-17.3,3h-.2c-3.8,2.2-6.8,5.1-8.8,8.9-2,3.8-3.1,7.6-3.1,17.6v31c0,9.6,1.1,13.4,3,17.1v.2c2.2,3.8,5.1,6.8,8.9,8.8l.3.2c3.6,1.9,7.4,2.9,17.2,2.9h52.7c9.6,0,13.4-1.1,17-3h.2c3.8-2.2,6.8-5.1,8.8-8.9,2-3.8,3.1-7.6,3.1-17.6v-30.7c0-9.8-1-13.7-3-17.3v-.2ZM170.6,126.3v30.9c0,3.8-.2,6.6-.5,8.5h0c-.2,1.3-.5,2-1.1,3.1-.9,1.6-2.1,2.9-3.8,3.8-1.1.6-1.8.9-3,1.1-1.9.4-4.8.5-8.8.5h-52.6c-3.8,0-6.6-.2-8.5-.5h-.1c-1.2-.2-1.9-.5-3-1.1-1.7-.9-2.9-2.1-3.8-3.8-.6-1.1-.9-1.8-1.1-3-.4-1.8-.5-4.5-.6-8.1v-31.5c0-3.8.2-6.6.5-8.5h0c.2-1.3.5-2,1.1-3.1.9-1.7,2.1-2.9,3.8-3.8,1.1-.6,1.8-.9,3-1.1,1.8-.3,4.5-.5,8.1-.6h53.3c3.8,0,6.6.2,8.5.5h.1c1.2.2,1.9.5,3,1.1,1.7.9,2.9,2.1,3.8,3.8.6,1.1.8,1.8,1.1,3,.4,1.9.5,4.8.5,8.8h0Z"/>
  </g>
</svg>