<?xml version="1.0" encoding="UTF-8"?>
<svg id="_图层_1" data-name="图层 1" xmlns="http://www.w3.org/2000/svg" width="256" height="256" version="1.1" xmlns:xlink="http://www.w3.org/1999/xlink" viewBox="0 0 256 256">
  <defs>
    <style>
      .cls-1 {
        fill: #000;
        fill-opacity: .3;
      }

      .cls-1, .cls-2, .cls-3, .cls-4, .cls-5 {
        stroke-width: 0px;
      }

      .cls-1, .cls-3, .cls-5 {
        fill-rule: evenodd;
      }

      .cls-2 {
        fill: none;
      }

      .cls-6 {
        clip-path: url(#clippath);
      }

      .cls-3 {
        fill: #1c9bcd;
      }

      .cls-4 {
        fill: #07a3d7;
      }

      .cls-5 {
        fill: url(#_未命名的渐变_2);
      }
    </style>
    <clipPath id="clippath">
      <rect class="cls-2" width="256" height="256"/>
    </clipPath>
    <linearGradient id="_未命名的渐变_2" data-name="未命名的渐变 2" x1="17" y1="572" x2="241" y2="720" gradientTransform="translate(0 -510)" gradientUnits="userSpaceOnUse">
      <stop offset="0" stop-color="#fbfafa"/>
      <stop offset="1" stop-color="#e9e4e4"/>
    </linearGradient>
  </defs>
  <g class="cls-6">
    <g>
      <path class="cls-3" d="M104.4,42.4c-4.4-5.3-10.9-8.4-17.8-8.4H29c-6.6,0-12,5.4-12,12v114c0,6.6,5.4,12,12,12h200c6.6,0,12-5.4,12-12v-89.9c0-6.6-5.4-12-12-12h-111.6l-13-15.7Z"/>
      <path class="cls-1" d="M92.8,74c5,0,9.8-1.6,13.8-4.6l9.9-7.4h112.5c6.6,0,12,5.4,12,12v86c0,6.6-5.4,12-12,12H29c-6.6,0-12-5.4-12-12v-74c0-6.6,5.4-12,12-12h63.8Z"/>
      <path class="cls-5" d="M92.8,74c5,0,9.8-1.6,13.8-4.6l9.9-7.4h112.5c6.6,0,12,5.4,12,12v124c0,6.6-5.4,12-12,12H29c-6.6,0-12-5.4-12-12v-112c0-6.6,5.4-12,12-12h63.8Z"/>
    </g>
  </g>
  <path class="cls-4" d="M202,165c-.7,0-1.4,0-2,0-1.3,0-2.5-.1-3.8-.1s-.8,0-.9-.8l-1.2-13.5-1.2-11.2-.8-6.9-.7-6-1.3-9.3c-.4-3.3-1-6.6-1.6-9.9,0-.5,0-.6.5-.7,2.3-.4,4.7-.7,7-.7h.8c.4,0,.6.3.7.7l.3,5.1,2.1,27.7,1,12.7.7,7.3.4,5.8h0ZM111.1,105.8h1.3c.7,0,.8.2.8.9l.6,9,1.3,18.6.8,9.7.6,7.5,1.2,12.9c0,.6,0,.7-.7.7l-5.3-.2c-.4,0-.6-.1-.6-.5l-.2-2.6c-.2-2.2-.4-4.4-.6-6.7l-1.2-11.7-1.3-10.6-.9-7.5-1-6.8c-.4-3-1-6.2-1.5-9.2l-.4-2.1c0-.4,0-.5.4-.6,2.1-.4,4.1-.7,6.5-.7h0ZM185.7,135.7c1.9,0,2.1,0,2.4,1.9.4,2.2.7,4.4.9,6.7l.8,7.2,1.6,15.3c0,.4,0,.5-.4.5l-5.8.7c-.6,0-.7,0-.8-.6l-3.3-17.1-2.1-11.3-.3-1.6c0-.3,0-.5.4-.6,2.3-.5,4.5-.9,6.7-1h0ZM101.4,135.7c2,0,2.2.1,2.4,2,.5,3,.9,6,1.2,9l1,8.9.6,6,.5,4.8c0,.7,0,.8-.7.9l-5.5.5c-.6,0-.7,0-.8-.6l-4.5-23.3-1.2-6.6c0-.4,0-.6.4-.7,2.3-.5,4.4-.9,6.5-1h0ZM129.7,158.7v9.5c0,.4-.1.7-.6.6h-1.8c-1.3,0-2.5,0-3.8.1-.7,0-.7,0-.8-.7l-1.2-13.3-.6-6.6-.9-10.1c0-.8,0-1,.7-1,2.1-.2,4.2-.2,6.2-.1l1.6.2c.6.2.7.3.7.9l.2,4v4.4c.1,4.1.2,8.1.2,12.2h0ZM213.8,159.1v9.1c0,.4-.1.6-.5.5h-2.7c-1,0-2.1,0-3,.1-.6,0-.7,0-.7-.7l-1.6-17.4-.8-8.6-.3-4.4c0-.6,0-.7.7-.7,2.4-.3,5-.4,7.4,0,1,0,1.1.4,1.2,1.3l.2,9.9v10.8h.1ZM183.5,119.9c.7,0,1.4,0,1.9.1.4,0,.5.2.6.6l1,10.3c.2.9,0,1-.8,1h-2.5c-.5.2-.7.3-.7-.5l-1-8.4-.3-2.4c0-.4,0-.7.5-.7h1.4ZM99.5,119.9c.6,0,1.2,0,1.7.1.3,0,.4.2.5.6l.3,2.6.7,8.1c0,.6,0,.7-.5.7h-2.9c-.6.2-.7.1-.7-.4l-.7-5.9-.6-5c0-.4,0-.6.4-.6.5,0,1.1-.1,1.7-.1h0ZM129.1,127.3v5.1c0,.8,0,.8-.7.8-1,0-1.9,0-2.7-.1-.6,0-.7,0-.6-.7l-.2-6.3c0-1.4,0-2.8,0-4.2,0-.7,0-.7.7-.7,1,0,2.1,0,3.1.2.6,0,.6.1.6.7v5.2h0ZM213.3,127.4v5.1c0,.7,0,.7-.7.7h-2.8c-.4-.2-.7-.4-.6-.8l-.2-10.6c0-.6,0-.7.7-.7,1,0,1.9,0,2.7.1,1.1,0,1,.3,1,1.1v5h0ZM97.2,131.4c0,.9,0,1-.9,1.1l-1.8.4c-.6.2-.7,0-.7-.4l-1.9-10.5c-.2-.7,0-.8.6-.9l2.6-.4c.6,0,.7,0,.7.5.2,1.3.4,2.5.6,3.8l.7,5.9v.4h0ZM176.1,121.2c1.1-.2,2.3-.4,3.5-.5.4,0,.5.1.6.5l.6,4.1c.3,2,.5,4,.6,6v.6c0,.3,0,.5-.4.6l-2.4.5c-.4,0-.5,0-.6-.4l-1.9-11v-.3h0ZM123.5,129.2c0,1.2,0,2.3-.1,3.3,0,.4-.1.5-.5.6l-2.3.2c-.4,0-.5-.1-.5-.5-.1-1.1-.2-2.2-.3-3.3-.1-2-.3-4.1-.4-6.2v-1.5c-.2-.3,0-.4.2-.4l3-.2c.5,0,.7,0,.7.7l.2,7.3h0ZM207.5,128c0,1.4,0,2.9,0,4.3,0,.7,0,.8-.7.8l-2.1.2c-.4,0-.6-.1-.6-.5,0-1.9-.2-3.8-.4-5.6l-.3-5.2c0-.4,0-.5.4-.5l3-.2c.5,0,.6,0,.6.7.1,2,.2,4.1.1,6.1h0ZM94.3,153.3c1.2,1.4,1.4,3,.9,4.7-.4,1.6-1.3,3-2.4,4.2-1.9,2-4.2,3.6-6.6,4.9-4.2,2.2-8.6,3.8-13.3,4.6-3.3.7-6.7,1.1-10,1.3-1,0-2.1,0-3.1,0h-2.2c-.6,0-.7-.1-.8-.7l-.5-7.2-1.4-14.2-1.6-13.5-.9-7.2-1-6.9c-.5-3.8-1.2-7.6-1.9-11.3-.5-3-1-6.1-1.7-9.1,0-.4,0-.7.4-.7l10.3-4.3c.7-.3,1.3-.5,1.9-.7.4,0,.7,0,.6.5,0,1.2,0,2.4,0,3.6v1c-.1,4.3-.1,8.6,0,13,0,3.8.3,7.6.5,11.4.4,5.9,1,11.9,1.6,17.7,0,.6,0,.6.7.5,1.3-.2,2.4-.3,3.7-.3,3.9,0,7.9.4,11.6,1.4,3.3.8,6.5,1.9,9.7,3.3,1.6.7,3,1.6,4.3,2.7.5.4.9.7,1.3,1.2h0ZM177.9,152.7c1.6,1.3,2.1,3,1.6,5-.4,1.6-1.1,3-2.2,4.3-1.8,2-3.9,3.6-6.2,4.8-4.4,2.4-9.2,4.2-14.2,5-2.7.5-5.5,1-8.2,1.2-1.6.1-3.3.2-5,.1h-2c-.4,0-.7-.1-.7-.6-.1-2.1-.3-4.2-.5-6.2l-1.2-12.7-1.3-11-1.6-12.5c-.2-2.2-.5-4.4-.9-6.5l-1.3-8.3c-.6-3.9-1.3-7.9-2.2-11.8v-.5c-.2-.4,0-.7.3-.7,3.6-1.5,7.2-3.1,10.8-4.5,1-.4,2.2-.8,2.1,0-.3,2.7-.2,5.5-.3,8.2,0,2.2,0,4.4,0,6.6v1.7c0,2.7,0,5.3.3,7.9.1,3.5.4,7,.7,10.5l.7,7.5c0,1.4.2,2.7.4,4.2,0,.8.1.7.8.7,1.3-.2,2.7-.3,4-.3,4.7,0,9.2.8,13.6,2.1,3,.8,5.9,1.9,8.7,3.4,1.3.7,2.4,1.5,3.5,2.4h0ZM70.7,165.7c1.1-.7,3-2,5.7-4.1,2.7-2.2,4.3-3.6,5-4.3-4-1.8-8.2-3.3-12.5-4.7l1.8,13.1h0ZM165.4,157.7c.2-.2.1-.4,0-.5l-1.8-.7c-3.1-1.3-6.2-2.5-9.4-3.6h-.4c-.1-.2-.3-.1-.5,0l1.8,12.8c.2,0,.4,0,.4-.1,2.9-2.1,5.8-4.2,8.7-6.5l1.3-1.3h0Z"/>
</svg>