<?xml version="1.0" encoding="UTF-8"?>
<svg id="_图层_1" data-name="图层 1" xmlns="http://www.w3.org/2000/svg" width="256" height="256" version="1.1" xmlns:xlink="http://www.w3.org/1999/xlink" viewBox="0 0 256 256">
  <defs>
    <style>
      .cls-1, .cls-2, .cls-3, .cls-4, .cls-5 {
        stroke-width: 0px;
      }

      .cls-1, .cls-4 {
        fill: #1c9bcd;
      }

      .cls-2 {
        fill: #000;
        fill-opacity: .3;
      }

      .cls-2, .cls-4, .cls-5 {
        fill-rule: evenodd;
      }

      .cls-3 {
        fill: none;
      }

      .cls-6 {
        clip-path: url(#clippath);
      }

      .cls-5 {
        fill: url(#_未命名的渐变_2);
      }
    </style>
    <clipPath id="clippath">
      <rect class="cls-3" width="256" height="256"/>
    </clipPath>
    <linearGradient id="_未命名的渐变_2" data-name="未命名的渐变 2" x1="17" y1="572" x2="241" y2="720" gradientTransform="translate(0 -510)" gradientUnits="userSpaceOnUse">
      <stop offset="0" stop-color="#fbfafa"/>
      <stop offset="1" stop-color="#e9e4e4"/>
    </linearGradient>
  </defs>
  <g class="cls-6">
    <g>
      <path class="cls-4" d="M104.4,42.4c-4.4-5.3-10.9-8.4-17.8-8.4H29c-6.6,0-12,5.4-12,12v114c0,6.6,5.4,12,12,12h200c6.6,0,12-5.4,12-12v-89.9c0-6.6-5.4-12-12-12h-111.6l-13-15.7Z"/>
      <path class="cls-2" d="M92.8,74c5,0,9.8-1.6,13.8-4.6l9.9-7.4h112.5c6.6,0,12,5.4,12,12v86c0,6.6-5.4,12-12,12H29c-6.6,0-12-5.4-12-12v-74c0-6.6,5.4-12,12-12h63.8Z"/>
      <path class="cls-5" d="M92.8,74c5,0,9.8-1.6,13.8-4.6l9.9-7.4h112.5c6.6,0,12,5.4,12,12v124c0,6.6-5.4,12-12,12H29c-6.6,0-12-5.4-12-12v-112c0-6.6,5.4-12,12-12h63.8Z"/>
    </g>
  </g>
  <g>
    <path class="cls-1" d="M93.8,101.8c-13.9,3.9-12.8,17.8-12.8,17.8,0,0,.2,29.6,0,44.7,1.5,15,13.1,17.4,13.1,17.4,0,0,4.6,0,8,0,.4,1,.6,5.7,5.9,5.7s5.9-5.7,5.9-5.7c0,0,38.3-.2,41.5-.2.2,1.6,1,5.9,6.2,5.9,5.2,0,5.6-6.2,5.6-6.2,0,0,1.8-.2,7.1,0,12.4-2.3,13.1-16.9,13.1-16.9,0,0-.2-29.8,0-44.7-.4-14.9-13.3-17.8-13.3-17.8,0,0-10.2,0-23.4,0l9.6-9.3s1.5-1.9-1.1-4c-2.6-2.1-2.7-1.2-3.6-.6-.8.5-12.4,12-14.4,14h-13.7s-13.9-13.7-14.8-14.3c-.9-.6-1-1.5-3.6.6-2.6,2.1-1.1,4-1.1,4l10,9.7h-24.2q0,0,0,0ZM176.7,167c0,2.4-1.9,4.3-4.2,4.3h-75.6c-2.3,0-4.2-1.9-4.2-4.3v-50.1c0-2.4,1.9-4.3,4.2-4.3h75.6c2.3,0,4.2,1.9,4.2,4.3v50.1h0Z"/>
    <path class="cls-1" d="M134.2,116.4c-13.9,0-25.2,11.3-25.2,25.2s11.3,25.2,25.2,25.2,25.2-11.3,25.2-25.2-11.3-25.2-25.2-25.2ZM134.2,161.4c-10.9,0-19.8-8.9-19.8-19.8s8.9-19.8,19.8-19.8,19.8,8.9,19.8,19.8-8.9,19.8-19.8,19.8Z"/>
    <path class="cls-1" d="M134.2,134.4c-4,0-7.2,3.2-7.2,7.2s-1.2,2.7-2.7,2.7-2.7-1.2-2.7-2.7c0-7,5.6-12.6,12.6-12.6s2.7,1.2,2.7,2.7-1.2,2.7-2.7,2.7Z"/>
  </g>
</svg>