<?xml version="1.0" encoding="utf-8"?>
<!-- Generator: Adobe Illustrator 28.3.0, SVG Export Plug-In . SVG Version: 6.00 Build 0)  -->
<svg version="1.1" id="图层_1" xmlns="http://www.w3.org/2000/svg" xmlns:xlink="http://www.w3.org/1999/xlink" x="0px" y="0px"
	 width="256px" height="256px" viewBox="0 0 256 256" style="enable-background:new 0 0 256 256;" xml:space="preserve">
<style type="text/css">
	.st0{fill-rule:evenodd;clip-rule:evenodd;fill:#4C4C4C;}
	.st1{fill-rule:evenodd;clip-rule:evenodd;fill-opacity:0.3;}
	.st2{fill-rule:evenodd;clip-rule:evenodd;fill:url(#SVGID_1_);}
	.st3{fill:#4C4C4C;}
</style>
<path class="st0" d="M104.4,42.4C100,37.1,93.5,34,86.6,34H29c-6.6,0-12,5.4-12,12v12.1v10.1V160c0,6.6,5.4,12,12,12h200
	c6.6,0,12-5.4,12-12V70.1c0-6.6-5.4-12-12-12H117.4L104.4,42.4z"/>
<g>
	<g>
		<path class="st1" d="M92.8,74c5,0,9.8-1.6,13.8-4.6l9.9-7.4H229c6.6,0,12,5.4,12,12v34v52c0,6.6-5.4,12-12,12H29
			c-6.6,0-12-5.4-12-12v-52V86c0-6.6,5.4-12,12-12h58H92.8z"/>
	</g>
</g>
<g>
	
		<linearGradient id="SVGID_1_" gradientUnits="userSpaceOnUse" x1="17" y1="304" x2="241" y2="452" gradientTransform="matrix(1 0 0 1 0 -242)">
		<stop  offset="0" style="stop-color:#FFFFFF"/>
		<stop  offset="1" style="stop-color:#CFCFCF"/>
	</linearGradient>
	<path class="st2" d="M92.8,74c5,0,9.8-1.6,13.8-4.6l9.9-7.4H229c6.6,0,12,5.4,12,12v34v90c0,6.6-5.4,12-12,12H29
		c-6.6,0-12-5.4-12-12v-90V86c0-6.6,5.4-12,12-12h58H92.8z"/>
</g>
<path class="st3" d="M79.9,112.9c0.8-7.1,6.7-12.6,13.9-13h61.1c4.4,0.4,8.5,2.7,11,6.4c1.1,1.6,1.9,3.5,2.3,5.4l17.9-8.9
	c0.4-0.2,0.9,0,1.1,0.4c0,0.1,0.1,0.2,0.1,0.3c0,3.4,0,6.7,0,10.1c0,0.7-0.4,1.3-1,1.6c-16.5,8.2-33,16.4-49.5,24.6l49.4,24.5
	c0.6,0.2,1.1,0.8,1.1,1.5c0,3.4,0,6.7,0,10.1c0,0.5-0.4,0.8-0.8,0.8c-0.2,0-0.4-0.1-0.5-0.2c-5.9-3-11.9-5.8-17.7-8.8
	c-0.4,1.4-0.9,2.8-1.6,4.1c-2,3.7-5.5,6.4-9.5,7.4c-1.3,0.3-2.7,0.4-4.1,0.3H96.1c-1.3,0-2.6,0-3.8-0.1c-6.6-1-11.7-6.3-12.4-13
	c0-3.3,0-6.5,0-9.8c0.1-0.8,0.7-1.5,1.5-1.8c10.2-5,20.3-10.1,30.4-15.1c-10.2-5.1-20.5-10.2-30.7-15.3c-0.7-0.3-1.2-1-1.2-1.8
	C79.9,119.4,79.9,116.1,79.9,112.9z M91.2,112.9c-0.6,1.2-0.3,2.7-0.4,4c11.2,5.5,22.3,11.1,33.4,16.6c11-5.5,22.1-10.9,33.1-16.4
	c0-1,0-2,0-3c-0.3-1.8-1.9-3.2-3.7-3.2h-59C93.2,110.9,91.9,111.7,91.2,112.9L91.2,112.9z M90.8,162.4c0.1,1.3-0.2,2.8,0.4,4
	c0.7,1.2,2,2,3.4,2h59.1c1.3,0,2.6-0.7,3.2-1.9c0.7-1.3,0.4-2.9,0.5-4.3c-11.1-5.5-22.1-11-33.2-16.4
	C113.1,151.4,101.9,156.9,90.8,162.4L90.8,162.4z"/>
</svg>
