<?xml version="1.0" encoding="utf-8"?>
<!-- Generator: Adobe Illustrator 28.1.0, SVG Export Plug-In . SVG Version: 6.00 Build 0)  -->
<svg version="1.1" id="图层_1" xmlns="http://www.w3.org/2000/svg" xmlns:xlink="http://www.w3.org/1999/xlink" x="0px" y="0px"
	 width="256px" height="256px" viewBox="0 0 256 256" style="enable-background:new 0 0 256 256;" xml:space="preserve">
<style type="text/css">
	.st0{fill-rule:evenodd;clip-rule:evenodd;fill:#E74C3C;}
	.st1{fill-rule:evenodd;clip-rule:evenodd;fill:url(#SVGID_1_);filter:url(#Adobe_OpacityMaskFilter);}
	.st2{mask:url(#mask0_955_21200_00000000192906137620020290000013603404230208776622_);}
	.st3{fill-rule:evenodd;clip-rule:evenodd;fill-opacity:0.3;}
	.st4{fill-rule:evenodd;clip-rule:evenodd;fill:url(#SVGID_00000024704770292521264280000013662425493874625163_);}
	.st5{fill:#E74C3C;}
	.st6{fill:#2980B9;}
	.st7{fill:#F39C12;}
	.st8{fill:#F1C40F;}
	.st9{fill:#3498DB;}
</style>
<path class="st0" d="M104.4,42.4c-4.4-5.3-10.9-8.4-17.8-8.4H29c-6.6,0-12,5.4-12,12v12.1v10.1V160c0,6.6,5.4,12,12,12h200
	c6.6,0,12-5.4,12-12V70.1c0-6.6-5.4-12-12-12H117.4L104.4,42.4z"/>
<defs>
	<filter id="Adobe_OpacityMaskFilter" filterUnits="userSpaceOnUse" x="17" y="62" width="224" height="110">
		<feColorMatrix  type="matrix" values="1 0 0 0 0  0 1 0 0 0  0 0 1 0 0  0 0 0 1 0"/>
	</filter>
</defs>
<mask maskUnits="userSpaceOnUse" x="17" y="62" width="224" height="110" id="mask0_955_21200_00000000192906137620020290000013603404230208776622_">
	
		<linearGradient id="SVGID_1_" gradientUnits="userSpaceOnUse" x1="32.5816" y1="239.5494" x2="213.3495" y2="58.4074" gradientTransform="matrix(1 0 0 -1 0 258)">
		<stop  offset="0" style="stop-color:#05815D"/>
		<stop  offset="1" style="stop-color:#0C575F"/>
	</linearGradient>
	<path class="st1" d="M104.4,42.4c-4.4-5.3-10.9-8.4-17.8-8.4H29c-6.6,0-12,5.4-12,12v12.1v10.1V160c0,6.6,5.4,12,12,12h200
		c6.6,0,12-5.4,12-12V70.1c0-6.6-5.4-12-12-12H117.4L104.4,42.4z"/>
</mask>
<g class="st2">
	<g>
		<path class="st3" d="M92.8,74c5,0,9.8-1.6,13.8-4.6l9.9-7.4H229c6.6,0,12,5.4,12,12v34v52c0,6.6-5.4,12-12,12H29
			c-6.6,0-12-5.4-12-12v-52V86c0-6.6,5.4-12,12-12h58H92.8z"/>
	</g>
</g>
<g>
	
		<linearGradient id="SVGID_00000088116236106277141010000016629607353993436551_" gradientUnits="userSpaceOnUse" x1="17" y1="196" x2="241" y2="48" gradientTransform="matrix(1 0 0 -1 0 258)">
		<stop  offset="0" style="stop-color:#FFFFFF"/>
		<stop  offset="1" style="stop-color:#E3E3E3"/>
	</linearGradient>
	<path style="fill-rule:evenodd;clip-rule:evenodd;fill:url(#SVGID_00000088116236106277141010000016629607353993436551_);" d="
		M92.8,74c5,0,9.8-1.6,13.8-4.6l9.9-7.4H229c6.6,0,12,5.4,12,12v34v90c0,6.6-5.4,12-12,12H29c-6.6,0-12-5.4-12-12v-90V86
		c0-6.6,5.4-12,12-12h58H92.8z"/>
</g>
<path class="st5" d="M160.7,145.7c-4.6,7.3-14.6,12.4-22.9,12.4c0,0,0,0-0.2,0l0,0c-11.5,0-20.7-9.3-20.7-20.7
	c6.8-4.1,5.1-15.6,12.2-18.8c2.7-1.2,5.6-2,8.5-2l0,0c0,0,0,0,0.2,0c8.3,0,18.1,4.9,22.7,12l16.6-18.1
	c-8.8-12.4-23.2-20.7-39.3-20.7c-26.4,0-47.6,21.2-47.6,47.6s21.2,47.6,47.6,47.6c16.8,0,31.7-8.8,40-22.2L160.7,145.7z"/>
<path class="st6" d="M141.2,98.1c0-2-1.5-3.4-3.4-3.4c-1.5,0-2.7,1-3.2,2.4l-17.1,36.6l4.9,9.8c0,0,18.1-43,18.3-43.9l0,0
	C140.9,99.1,141.2,98.6,141.2,98.1z"/>
<path class="st6" d="M133.9,150.8l-12.2-2.4l2.7-13.4c0.5-1-0.5-3.2,0.7-2.9l9.5,3.4c1.2,0.5,2,1.5,1.7,2.7L133.9,150.8z"/>
<path class="st7" d="M121.6,148.4L102.1,163l-7.3,17.1h9.8c1-0.5,2.4-1.7,2.9-2.4c0,0-0.2,1.2-1.2,2.4h8.1c0,0,14.2-7.1,19.5-29.3
	L121.6,148.4z"/>
<path class="st8" d="M102.1,136.2c0,0-13.4,19.5-29.3,19.5c0,0,0.5,8.3,10.3,16.8c2.2-0.2,4.9-0.7,6.8-2.2c0,0-1.5,2.7-3.4,4.9
	c2.4,1.7,5.1,3.4,8.3,4.9c0,0,18.8-12.2,26.8-31.7L102.1,136.2z"/>
<path class="st9" d="M102.1,136.2l19.5,12.2l5.4-12.4c0.7-1.2,0-2.9-1.2-3.4l-14.4-5.6c-1-0.5-2.2,0-2.9,0.7L102.1,136.2z"/>
</svg>
