<?xml version="1.0" encoding="UTF-8"?>
<svg id="_图层_1" data-name="图层 1" xmlns="http://www.w3.org/2000/svg" width="256" height="256" xmlns:xlink="http://www.w3.org/1999/xlink" viewBox="0 0 256 256">
  <defs>
    <style>
      .cls-1 {
        fill: url(#_未命名的渐变_10);
      }

      .cls-1, .cls-2, .cls-3, .cls-4, .cls-5, .cls-6, .cls-7, .cls-8, .cls-9, .cls-10, .cls-11 {
        stroke-width: 0px;
      }

      .cls-2, .cls-4, .cls-6 {
        fill-rule: evenodd;
      }

      .cls-3 {
        fill: url(#_未命名的渐变_10-3);
      }

      .cls-4 {
        fill: url(#_未命名的渐变);
      }

      .cls-5 {
        fill: url(#_未命名的渐变_10-5);
      }

      .cls-6 {
        fill: #dad5d5;
      }

      .cls-7 {
        fill: url(#_未命名的渐变_10-2);
      }

      .cls-8 {
        fill: url(#_未命名的渐变_12);
      }

      .cls-9 {
        fill: url(#_未命名的渐变_10-4);
      }

      .cls-10 {
        fill: url(#_未命名的渐变_10-6);
      }

      .cls-11 {
        fill: url(#_未命名的渐变_10-7);
      }
    </style>
    <linearGradient id="_未命名的渐变" data-name="未命名的渐变" x1="17" y1="155" x2="241" y2="155" gradientTransform="translate(0 258) scale(1 -1)" gradientUnits="userSpaceOnUse">
      <stop offset="0" stop-color="#383636"/>
      <stop offset="1" stop-color="#1d1b1b"/>
    </linearGradient>
    <linearGradient id="_未命名的渐变_12" data-name="未命名的渐变 12" x1="-34.04" y1="171.29" x2="-33.54" y2="171.29" gradientUnits="userSpaceOnUse">
      <stop offset="0" stop-color="#1d2a12"/>
      <stop offset="1" stop-color="#1d1b1b"/>
    </linearGradient>
    <linearGradient id="_未命名的渐变_10" data-name="未命名的渐变 10" x1="-34.04" y1="161.27" x2="-33.54" y2="161.27" gradientUnits="userSpaceOnUse">
      <stop offset="0" stop-color="#383636"/>
      <stop offset="1" stop-color="#1d1b1b"/>
    </linearGradient>
    <linearGradient id="_未命名的渐变_10-2" data-name="未命名的渐变 10" y1="160.96" y2="160.96" xlink:href="#_未命名的渐变_10"/>
    <linearGradient id="_未命名的渐变_10-3" data-name="未命名的渐变 10" y1="135.21" y2="135.21" xlink:href="#_未命名的渐变_10"/>
    <linearGradient id="_未命名的渐变_10-4" data-name="未命名的渐变 10" y1="120.3" y2="120.3" xlink:href="#_未命名的渐变_10"/>
    <linearGradient id="_未命名的渐变_10-5" data-name="未命名的渐变 10" y1="127.75" y2="127.75" xlink:href="#_未命名的渐变_10"/>
    <linearGradient id="_未命名的渐变_10-6" data-name="未命名的渐变 10" y1="135.21" y2="135.21" xlink:href="#_未命名的渐变_10"/>
    <linearGradient id="_未命名的渐变_10-7" data-name="未命名的渐变 10" y1="127.75" y2="127.75" xlink:href="#_未命名的渐变_10"/>
  </defs>
  <path class="cls-4" d="M104.4,42.4c-4.4-5.3-10.9-8.4-17.8-8.4H29c-6.6,0-12,5.4-12,12v114c0,6.6,5.4,12,12,12h200c6.6,0,12-5.4,12-12v-89.9c0-6.6-5.4-12-12-12h-111.6l-13-15.7Z"/>
  <path class="cls-2" d="M92.8,74c5,0,9.8-1.6,13.8-4.6l9.9-7.4h112.5c6.6,0,12,5.4,12,12v86c0,6.6-5.4,12-12,12H29c-6.6,0-12-5.4-12-12v-74c0-6.6,5.4-12,12-12h63.8Z"/>
  <path class="cls-6" d="M92.8,74c5,0,9.8-1.6,13.8-4.6l9.9-7.4h112.5c6.6,0,12,5.4,12,12v124c0,6.6-5.4,12-12,12H29c-6.6,0-12-5.4-12-12v-112c0-6.6,5.4-12,12-12h63.8Z"/>
  <g>
    <path class="cls-8" d="M97.72,165.36c-8.31.48-16.42,1.92-24.45,3.96-.49.13-.98.33-1.48.37-1.22.1-2.08-.45-2.41-1.65-.33-1.23.28-2.2,1.55-2.53,10.44-2.75,20.99-4.76,31.86-4.31,8.3.35,16.15,2.19,22.93,7.32,1.7,1.29,3.24,2.65,4.11,4.77.96,2.33,2.84,3.9,5.53,3.96,2.63.06,4.6-1.39,5.56-3.65,1.24-2.94,3.56-4.65,6.01-6.29,5.2-3.48,11.05-5.16,17.21-5.8,12.28-1.29,24.17.95,35.97,4.02,1.26.33,1.71,1.24,1.48,2.45-.23,1.22-1.41,1.93-2.67,1.65-3.13-.69-6.24-1.52-9.39-2.12-8.7-1.68-17.45-2.64-26.3-1.38-5.99.85-11.61,2.68-16.51,6.35-.61.46-1.15,1.16-1.44,1.86-1.88,4.45-5.46,7.1-9.77,7.11-4.39,0-7.94-2.62-9.85-7.19-.28-.66-.79-1.31-1.37-1.74-4.84-3.66-10.41-5.55-16.35-6.34-3.38-.45-6.8-.55-10.21-.81Z"/>
    <path class="cls-1" d="M71.11,161c1.17-1.68,2.09-3.08,3.11-4.41.31-.4.86-.73,1.36-.85,8.86-2.12,17.83-3.45,26.97-2.78,12.25.9,22.59,5.46,29.77,15.89.11.17.22.34.33.51.02.04.02.09.06.39-.76-.72-1.37-1.33-2.01-1.9-.64-.58-1.3-1.15-1.97-1.69-6.46-5.21-13.93-7.93-22.08-8.91-11.74-1.42-23.16.51-34.46,3.49-.24.06-.48.12-1.07.27Z"/>
    <path class="cls-7" d="M138.78,169.13c2.06-3.59,4.84-6.5,8.15-8.91,6.43-4.69,13.76-6.73,21.58-7.26,9.09-.62,18,.67,26.82,2.78.46.11.99.36,1.27.72,1.05,1.37,2,2.81,3.16,4.47-3.03-.7-5.77-1.37-8.52-1.97-8.06-1.75-16.21-2.65-24.46-1.98-10.53.85-19.97,4.33-27.63,11.88-.11.11-.24.18-.36.27Z"/>
    <rect class="cls-3" x="92.17" y="123.28" width="14.88" height="23.86"/>
    <rect class="cls-9" x="126.36" y="93.46" width="14.88" height="53.68"/>
    <rect class="cls-5" x="143.72" y="108.37" width="14.88" height="38.77"/>
    <rect class="cls-10" x="160.98" y="123.28" width="14.88" height="23.86"/>
    <rect class="cls-11" x="109.6" y="108.37" width="14.88" height="38.77"/>
  </g>
</svg>