<?xml version="1.0" encoding="UTF-8"?>
<svg xmlns="http://www.w3.org/2000/svg" width="256" height="256" version="1.1" xmlns:xlink="http://www.w3.org/1999/xlink" viewBox="0 0 256 256">
  <!-- Generator: Adobe Illustrator 29.3.1, SVG Export Plug-In . SVG Version: 2.1.0 Build 151)  -->
  <defs>
    <style>
      .st0 {
        fill-opacity: .3;
      }

      .st0, .st1, .st2, .st3 {
        fill-rule: evenodd;
      }

      .st4 {
        fill: #f0a600;
      }

      .st5 {
        fill: #76828d;
      }

      .st6 {
        fill: #f2ce74;
      }

      .st7 {
        mask: url(#mask);
      }

      .st8 {
        fill: #020201;
      }

      .st1 {
        fill: #2d2c2b;
      }

      .st2 {
        fill: url(#_未命名的渐变);
      }

      .st9 {
        isolation: isolate;
      }

      .st10 {
        fill: #f6cf00;
      }

      .st11 {
        fill: #3f4955;
      }

      .st12 {
        mix-blend-mode: multiply;
      }

      .st3 {
        fill: url(#_未命名的渐变_2);
      }

      .st13 {
        fill: #e98500;
      }
    </style>
    <linearGradient id="_未命名的渐变" data-name="未命名的渐变" x1="32.6" y1="239.5" x2="213.3" y2="58.4" gradientTransform="translate(0 258) scale(1 -1)" gradientUnits="userSpaceOnUse">
      <stop offset="0" stop-color="#05815d"/>
      <stop offset="1" stop-color="#0c575f"/>
    </linearGradient>
    <mask id="mask" x="17" y="34" width="224" height="138" maskUnits="userSpaceOnUse">
      <g id="mask0_539_13440">
        <path class="st2" d="M104.4,42.4c-4.4-5.3-10.9-8.4-17.8-8.4H29c-6.6,0-12,5.4-12,12v114c0,6.6,5.4,12,12,12h200c6.6,0,12-5.4,12-12v-89.9c0-6.6-5.4-12-12-12h-111.6l-13-15.8Z"/>
      </g>
    </mask>
    <linearGradient id="_未命名的渐变_2" data-name="未命名的渐变 2" x1="17" y1="196" x2="241" y2="48" gradientTransform="translate(0 258) scale(1 -1)" gradientUnits="userSpaceOnUse">
      <stop offset="0" stop-color="#f36b72"/>
      <stop offset="1" stop-color="#ef526f"/>
    </linearGradient>
  </defs>
  <g class="st9">
    <g id="_图层_1" data-name="图层_1">
      <path class="st1" d="M104.4,42.4c-4.4-5.3-10.9-8.4-17.8-8.4H29c-6.6,0-12,5.4-12,12v114c0,6.6,5.4,12,12,12h200c6.6,0,12-5.4,12-12v-89.9c0-6.6-5.4-12-12-12h-111.6l-13-15.8Z"/>
      <g class="st7">
        <g class="st12">
          <path class="st0" d="M92.8,74c5,0,9.8-1.6,13.8-4.6l9.9-7.4h112.5c6.6,0,12,5.4,12,12v86c0,6.6-5.4,12-12,12H29c-6.6,0-12-5.4-12-12v-74c0-6.6,5.4-12,12-12h63.8Z"/>
        </g>
      </g>
      <path class="st3" d="M92.8,74c5,0,9.8-1.6,13.8-4.6l9.9-7.4h112.5c6.6,0,12,5.4,12,12v124c0,6.6-5.4,12-12,12H29c-6.6,0-12-5.4-12-12v-112c0-6.6,5.4-12,12-12h63.8Z"/>
      <g>
        <g>
          <path class="st11" d="M89.1,112.8c5.1-.2,10.3.1,15.4,0v3.9s-15.4,0-15.4,0v-3.9Z"/>
          <rect class="st11" x="89.1" y="169" width="12.4" height="4.7"/>
          <path class="st11" d="M89.1,159.6h12.4v4.7h-12.4c-.3-2,1.3-2.9,0-4.7Z"/>
          <rect class="st11" x="89.1" y="178.4" width="16.3" height="3.4"/>
          <path class="st11" d="M100.2,145.4l-11.2-.4v-4.3c1.6,0,11.5-.2,12,.2.6.9.8,4.1-.3,4.5h-.6Z"/>
          <path class="st11" d="M89.1,150.1c4.1-.1,8.3.1,12.4,0v4.3s-12.4,0-12.4,0v-4.3Z"/>
          <path class="st11" d="M104.5,104.7c0,1.1,0,2.3,0,3.4-4.5-.1-9,.1-13.5,0s-1.6-.4-1.9-.4v-3s15.4,0,15.4,0Z"/>
          <path class="st11" d="M89.1,122.3c4.4-.2,8.9.1,13.3,0l-.9,3.9h-12.4s0-3.9,0-3.9Z"/>
          <path class="st11" d="M89.1,131.7c4.1-.1,8.3.1,12.4,0v3.9c-.7,0-1.4,0-2.1,0-3.4.2-6.9-.1-10.3,0v-3.9Z"/>
          <polygon class="st5" points="89.1 178.4 89.1 181.9 105.4 181.9 105.4 183.2 86.5 183.2 86.5 178.4 89.1 178.4"/>
          <path class="st5" d="M89.1,107.7c-.9,0-1.7.5-2.6.4v-4.3s18,0,18,0c0,.3,0,.6,0,.9h-15.4s0,3,0,3Z"/>
          <path class="st5" d="M89.1,112.8v3.9s15.4,0,15.4,0l-18,.9v-4.7c.9,0,1.7,0,2.6,0Z"/>
          <path class="st5" d="M89.1,150.1v4.3s12.4,0,12.4,0l-15,.4v-4.7c.9,0,1.7,0,2.6,0Z"/>
          <path class="st5" d="M89.1,140.7v4.3s11.1.4,11.1.4h-13.7s0-4.7,0-4.7c.9,0,1.7,0,2.6,0Z"/>
          <path class="st5" d="M89.1,122.3v3.9s12.4,0,12.4,0l-15,.4v-4.3c.9,0,1.7,0,2.6,0Z"/>
          <path class="st5" d="M89.1,131.7v3.9c3.4-.1,6.9.2,10.3,0l-12.9.4v-4.3c.9,0,1.7,0,2.6,0Z"/>
          <path class="st5" d="M89.1,159.6c1.3,1.8-.3,2.7,0,4.7h-2.6v-4.7h2.6Z"/>
          <rect class="st5" x="86.5" y="169" width="2.6" height="4.7"/>
        </g>
        <g>
          <path class="st8" d="M134.5,106.8h12.2c.3,0,1.2.8,1.4,1.1l3.5,6.6v-11.4c0-.5,1.6-1.4,2.3-1.5,3.6-.5,16.6-.5,20.2,0s2.5,1.2,2.4,2.8v79.3c-.6,1-1.2,1.5-2.4,1.6-6.2.8-14.2-.6-20.6,0-2.9-.5-1.7-4.7-1.9-6.8h-44.2c-.2,1.9.8,5.4-1,6.5-2.5,1.5-16.3-.3-20.2.4-1.3-.2-2.1-1.5-2-2.7v-79.3c.7-1.3,1.5-1.5,2.8-1.6,3.8-.4,14.4-.5,18.1,0s2.3,1,2.3,1.5v7.9h.4c.2-1.1,1.7-4.3,2.8-4.3h13.1v-25.5c0,0,1.1-1.2,1.3-1.3,1.2-.6,9.4-.7,9.4,1.3v25.5ZM125.9,125.3h6.5s0-43.3,0-43.3h-6.5s0,43.3,0,43.3ZM104.5,104.7c0-.3,0-.6,0-.9h-18s0,4.3,0,4.3c.9,0,1.7-.5,2.6-.4s1.1.4,1.9.4c4.5.1,9-.1,13.5,0,0-1.1,0-2.3,0-3.4ZM154.7,108.1h19.7s0-4.3,0-4.3h-19.7s0,4.3,0,4.3ZM110.9,110.2c-1.6,2-5.4,9.7-6.4,12.4s-1,1.6-.9,2.8v50.8s49.3,0,49.3,0c.2-.2,0-.6,0-.8.2-.5.7-.9.4-1.7-1.8.2-2.8,1.5-4.7.6s-.7-1-.8-1.1c-.6-3.5,2.9-5.3,4.9-2.2l1.1-1.5c-.9-14.1,1.2-29.8,0-43.7s-.6-1.6-.9-2.3-.2-.8-.4-1.3c-.4-.7-.6-1.6-1.3-2.1,0-.1,0-.3,0-.4-.2-1-1-2.6-1.7-3.4,0-.1,0-.3,0-.4-.3-1.5-1.4-1.9-1.8-2.7-.7-1.3-.6-3.1-1.8-4.2h-11.4v16.5c1.8,1.5,11.8,2.3,12.6,4.2v26.1c-.3.7-2.1,1.4-2.9,1.8-2.2,1.1-12.4,5.8-14.2,5.9s-1.6,0-2.4-.2c-2.5-.7-9.3-4-11.9-5.3s-3.7-1.4-4-2.9v-25.2c.3-.6.6-.8,1.2-1,1.5-.7,10.4-2.3,10.8-2.7.1-1.8,0-3.7,0-5.5,0-3.4,0-6.9,0-10.3s0-.9,0-1.3l-12.5.2c-.4.3-.3,1-.4,1.1ZM89.1,112.8c-.9,0-1.7,0-2.6,0v4.7s18-.9,18-.9v-3.9c-5.1.1-10.3-.2-15.4,0ZM171.8,112.8c-3.8-.1-12.3-.6-15.6.1s-1,.2-1.2.6l-.4,3.1,19.7.9v-4.7c-.9,0-1.7,0-2.6,0ZM89.1,122.3c-.9,0-1.7,0-2.6,0v4.3s15-.4,15-.4l.9-3.9c-4.4.1-8.9-.2-13.3,0ZM157.7,126.1l16.7.4v-4.3c-.9,0-1.7,0-2.6,0-5-.2-10,.1-15,0,1.1,1.2.9,2.3.9,3.9ZM113.9,130.8l.2,24,15.7,6.7c.4-.1.7-.6.8-.7,4.2-1.6,9.5-3.6,13.3-6s.8,0,1.1-.4l.2-23.3c0-.5-.7-.2-.9-.3-4-2-10.3-2.6-14.8-3.9l-15.7,3.9ZM171.8,131.7c-4.5.4-9.6-.3-14.2,0v3.9s16.7.4,16.7.4v-4.7c-.9-.4-2.1.4-2.6.4ZM89.1,131.7c-.9,0-1.7,0-2.6,0v4.3s12.9-.4,12.9-.4c.7,0,1.4,0,2.1,0v-3.9c-4.1.1-8.3-.1-12.4,0ZM89.1,140.7c-.9,0-1.7,0-2.6,0v4.7s13.7,0,13.7,0h.6c1-.5.9-3.6.3-4.5-.6-.4-10.4-.2-12-.2ZM157.7,145.4h16.7s0-4.8,0-4.8h-16.7s0,4.8,0,4.8ZM89.1,150.1c-.9,0-1.7,0-2.6,0v4.7s15-.4,15-.4v-4.3c-4.1.1-8.3-.1-12.4,0ZM157.7,150.1v4.7h16.7v-4.7h-16.7ZM86.5,159.6v4.7h15v-4.7h-15ZM157.7,159.6v4.7h16.7v-4.7h-16.7ZM86.5,169v4.7h15v-4.7h-15ZM171.8,169c-3.1-.1-10.4-.5-13.1,0s-.7,0-.9.4l-.2,4.3c4.2-.2,8.6.3,12.7,0,.8,0,1.2-.4,1.4-.5.8-.1,1.7,0,2.6,0v-4c0-.5-2-.2-2.6-.2ZM149.1,173.7l2.4-.4-.2-2.4-2,.2-.2,2.6ZM86.5,178.4v4.7s18.9,0,18.9,0v-4.7s-18.9,0-18.9,0ZM153.8,178.4v4.7h20.6v-4.7h-20.6Z"/>
          <g>
            <rect class="st11" x="157.7" y="159.6" width="14.2" height="4.7"/>
            <path class="st11" d="M171.8,169v4.3c-.2,0-.6.4-1.4.5-4.1.2-8.5-.2-12.7,0l.2-4.3c.2-.3.5-.3.9-.4,2.7-.5,9.9-.1,13.1,0Z"/>
            <path class="st11" d="M171.8,112.8v3.9s-17.2,0-17.2,0l.4-3.1c.2-.5.7-.6,1.2-.6,3.3-.7,11.8-.2,15.6-.1Z"/>
            <path class="st11" d="M171.8,178.4c-.1,1.3.5,3-.6,3.9h-16.1v-3.9h16.7Z"/>
            <path class="st11" d="M171.8,150.1v4.3c-.4.4-8.2-.7-9.4.4h-4.7s0-4.7,0-4.7h14.2Z"/>
            <polygon class="st11" points="171.8 140.7 171.8 145 157.7 145 157.7 140.7 171.8 140.7"/>
            <path class="st11" d="M171.8,122.3v3.9s-14.2,0-14.2,0c0-1.5.2-2.7-.9-3.9,5,.1,10-.2,15,0Z"/>
            <path class="st11" d="M171.8,131.7v3.9s-14.2,0-14.2,0v-3.9c4.6-.3,9.6.4,14.2,0Z"/>
            <rect class="st11" x="154.7" y="105.1" width="17.2" height="3"/>
            <polygon class="st5" points="154.7 105.1 154.7 103.8 174.4 103.8 174.4 108.1 171.8 108.1 171.8 105.1 154.7 105.1"/>
            <path class="st5" d="M155.1,178.4v3.9h16.1c1.1-.9.5-2.6.6-3.9h2.6v4.7h-20.6v-4.7h1.3Z"/>
            <path class="st5" d="M171.8,112.8c.9,0,1.7,0,2.6,0v4.7s-19.7-.9-19.7-.9h17.2s0-3.9,0-3.9Z"/>
            <path class="st5" d="M171.8,131.7c.5,0,1.6-.9,2.6-.4v4.7s-16.7-.4-16.7-.4h14.2s0-3.9,0-3.9Z"/>
            <polygon class="st5" points="174 140.7 174.4 141.1 174.4 145.4 157.7 145.4 157.7 145 171.8 145 171.8 140.7 174 140.7"/>
            <path class="st5" d="M171.8,122.3c.9,0,1.7,0,2.6,0v4.3s-16.7-.4-16.7-.4h14.2s0-3.9,0-3.9Z"/>
            <path class="st5" d="M171.8,150.1h2.6s0,4.7,0,4.7h-12c1.2-1.1,9,0,9.4-.4v-4.3Z"/>
            <rect class="st5" x="171.8" y="159.6" width="2.6" height="4.7"/>
            <path class="st5" d="M171.8,169c.6,0,2.5-.2,2.6.2v4c-.8,0-1.8-.1-2.6,0v-4.3Z"/>
            <polygon class="st11" points="174.4 141.1 174 140.7 174.4 140.7 174.4 141.1"/>
          </g>
          <g>
            <path class="st4" d="M113.1,110.2c-2.3,1.3-1.9,2.8-1.2,5.1,4,1.1,6.4-2.6,3-5.1h9c0,3.4,0,6.9,0,10.3l-1.3,1.1.9.4-.5,1c-1.7-.1-3.1.5-4.5,1.5s-.4,1.6-1.8,1.1l-.2-1.7c-1,1.3-1.9,2.3-3.3,3.2s-1.2.2-1.7.5-1.5,3-1.3,3.2c3.4,0-1.3,2.7-1.3,4.5,1.8.5.2,1.6.4,3s.9,1.2.9,1.8-1.1,1.1-.9,1.9c.6.1,1.4-.4,1.2.6-.3,2.3-3.7,4.4-3.8,5.2s.3,1.1.3,1.6c-.1,3,.3,1.8.6,2.7.6,2-.8,1.3-.8,2.7h2.4s1.1,2.8,1.1,2.8l-.9,1.5c2.1-.6,2.2,1.4,4.3.9v1.7c1.4-.4,2.2,1.3,2.4,1.3,1,0,4.5-.6,5.4-.4s2.6,2.1,2.7,2.1c1.3,0,3.4,0,4.6,0s2.5.6,3.8.3c.6.1-.2,1.7.9,1.3s2.6-5,4.1-1.3h.6c.6-.3.6-1.5,1.1-1.9.9-.7,4.2-1.5,5.4-1.6s3.7-3,4.1-3.6.3-1.8.5-1.9c.2-.2,2.6,0,2.9-2l-1.7.2,1.2-3.4c-1.8-.2-.3-3,.9-3.5v21h-4.7c.5,2-1.2,2.5-1.3,4.5,0,.5,1,0,1.3.2s.3.8.8,1.1c1.9.9,3-.4,4.7-.6.3.8-.2,1.2-.4,1.7-1.4,0-2.7.1-4.1,0s-1.1-.4-1.3-.4h-37.3c-.1,0-.7.4-1.3.4-1.4,0-2.7,0-4.1,0,0-.6,0-1.1,0-1.7,6.2,4.3,7.1-6.9,0-3.4-.2-15.1.2-30.2,0-45.2s.3-1.9-.4-2.4c1.1-2.7,4.8-10.5,6.4-12.4h2.1Z"/>
            <path class="st4" d="M153,123.5l-.4,9.9h-1.4c-1.2-1,0-1.5.2-2.6l-1.7.4c.6-2.7-2.2-2.1-.9-4.7h-1.3s.4-2.6.4-2.6h-2.1s0-1.3,0-1.3c-1.6-.5-1.2,1.2-2.4,1.3-2.2-1.4-2.5,0-4.7,0l-.2-1.3h-2.1s0-12.4,0-12.4l3.8.5c.7,1.2.4,2.6.7,3.8s3,1.7,4.3,2.5c.9-.5.5-1.5.7-2.1.6,0,1.5-.4,1.9-.4s1,1.4,2,1.3c0,.1,0,.3,0,.4.3,1.3-.5,3.1,1.7,3.4,0,.1,0,.3,0,.4.1.6,0,1.5,0,2.1h1.3c.2.5.3.9.4,1.3Z"/>
            <path class="st4" d="M130.7,81.9c.7,2.4,0,5.1,0,7.5,0,8.8.6,17.6,0,26.6s.6,2.1-.3,4-1.5,1.9-3.2,2.2v-40.3s3.4,0,3.4,0Z"/>
            <path class="st10" d="M104.9,170.3c0,1.1,0,2.3,0,3.4s0,1.1,0,1.7c1.4,0,2.7.1,4.1,0s1.1-.4,1.3-.4h37.3c.1,0,.7.4,1.3.4,1.4.1,2.7,0,4.1,0,0,.2.1.5,0,.8h-49.3c0,0,0-50.8,0-50.8-.2-1.1.5-1.9.9-2.8.7.4.4,1.6.4,2.4.2,15.1-.2,30.2,0,45.2Z"/>
            <path class="st13" d="M130.7,81.9h1.7s0,43.3,0,43.3h-6.5s0-2.6,0-2.6c.7,0,1.1-.4,1.3-.4,1.7-.3,2.3-.3,3.2-2.2s.2-2.4.3-4c.6-9,0-17.8,0-26.6,0-2.4.6-5.1,0-7.5Z"/>
            <path class="st10" d="M127.2,81.9v40.3c-.3,0-.6.3-1.3.4v-40.7s1.3,0,1.3,0Z"/>
            <path class="st13" d="M110.9,110.2c.1-.1,0-.8.4-1.1l12.5-.2c0,.4,0,.9,0,1.3h-12.9Z"/>
            <polygon class="st4" points="149.1 173.7 149.3 171.1 151.3 170.9 151.5 173.3 149.1 173.7"/>
            <path class="st13" d="M151.2,119.7c-2.2-.4-1.4-2.1-1.7-3.4.7.8,1.5,2.4,1.7,3.4Z"/>
            <path class="st13" d="M123.8,120.5c0,1.8,0,3.7,0,5.5-.4.4-9.3,2-10.8,2.7s-.9.4-1.1,1v25.2c.2,1.5,2.6,2.2,3.9,2.9,2.6,1.3,9.4,4.6,11.9,5.3s1.5.3,2.4.2c1.9-.2,12-4.8,14.2-5.9s2.6-1.1,2.9-1.8v-26.1c-.8-1.8-10.8-2.7-12.7-4.2v-16.5h11.4c1.2,1,1.1,2.9,1.8,4.2s1.5,1.2,1.8,2.7c-1,.2-1.9-1.3-2-1.3-.4,0-1.2.4-1.9.4.3-1.4,1-2.7-.2-3.9-2.5-2.5-5.9,1.9-3.1,3.9s2.1,0,3.2,0c-.2.7.3,1.6-.7,2.1-1.3-.9-3.8-.8-4.3-2.5s0-2.7-.7-3.8l-3.8-.5v12.4h2.1s.2,1.3.2,1.3c2.2,0,2.5-1.3,4.7,0,1.2,0,.8-1.8,2.4-1.3v1.2s2.1,0,2.1,0l-.4,2.6h1.3c-1.4,2.7,1.5,2,.9,4.7l1.7-.4c0,1.1-1.3,1.6-.2,2.6h1.4s.4-9.9.4-9.9c.3.7.7.7.9,2.3,1.2,13.9-.9,29.6,0,43.7l-1.1,1.5c-2.1-3.2-5.6-1.3-4.9,2.2-.2-.2-1.3.3-1.3-.2,0-2,1.8-2.5,1.3-4.5h4.7s0-21,0-21c-1.3.5-2.7,3.3-.9,3.5l-1.2,3.4,1.7-.2c-.3,1.9-2.7,1.8-2.9,2s0,1.2-.5,1.9-3.5,3.5-4.1,3.6c-1.2,0-4.4.9-5.4,1.6s-.5,1.7-1.1,1.9h-.6c-1.5-3.7-2.8.8-4.1,1.3s-.3-1.2-.9-1.3c-1.4.3-2.6-.2-3.8-.3s-3.4,0-4.6,0-2-1.9-2.7-2.1-4.4.4-5.4.4-.9-1.7-2.3-1.3v-1.7c-2.1.6-2.2-1.4-4.3-.9l.9-1.5-1.1-2.8h-2.4c0-1.4,1.4-.7.8-2.7s-.7.3-.6-2.7-.3-1.2-.3-1.6c.1-.9,3.5-2.9,3.8-5.2s-.6-.5-1.2-.6c-.2-.9.9-1.2.9-1.9s-.8-1.1-.9-1.8c-.2-1.4,1.3-2.5-.4-3,0-1.8,4.7-4.6,1.3-4.5-.2-.2.8-2.9,1.3-3.2s1.2-.2,1.7-.5c1.4-.9,2.2-1.9,3.3-3.2l.2,1.7c1.5.4,1.3-.8,1.8-1.1,1.4-1,2.8-1.6,4.5-1.5l.5-1-.9-.4,1.3-1.1ZM152.5,134.3c-2.9.5-.9,2.6-.9,3.6s-1,1.3-.8,2.2l1.3.4-1.3,3,1.7-.2v-9ZM152.5,144.1c-1.3-.4-2,2.7-1.7,3l1.6-.5v-2.5Z"/>
            <path class="st13" d="M152.5,122.3h-1.3c0-.7.1-1.5,0-2.1.7.5.9,1.4,1.3,2.1Z"/>
            <path class="st8" d="M104.9,173.7c0-1.1,0-2.3,0-3.4,7.1-3.5,6.2,7.7,0,3.4ZM108.3,173.6c1.2-2.6.1-3.5-2.5-2.5l.5,2.5h2.1Z"/>
            <path class="st8" d="M114.8,110.2c3.4,2.5,1,6.2-3,5.1-.6-2.2-1.1-3.8,1.2-5.1h1.7ZM114.7,114.5c1.9-4.1-3.7-4.5-2.1,0h2.1Z"/>
            <path class="st8" d="M145.7,115c-1.2.1-2,.9-3.2,0-2.9-2.1.5-6.4,3.1-3.9s.5,2.5.2,3.9ZM145.2,114.1c.1-1.4,0-2.6-1.5-2.8-2.9.7-.7,3.6,1.5,2.8Z"/>
            <path class="st4" d="M152.5,134.3v9l-1.7.2,1.3-3-1.3-.4c-.2-.9.7-1.6.8-2.2,0-.9-1.9-3.1.9-3.6Z"/>
            <path class="st4" d="M152.5,144.1v2.5c0,0-1.7.5-1.7.5-.3-.3.4-3.4,1.7-3Z"/>
            <path class="st4" d="M108.3,173.6h-2.1s-.5-2.5-.5-2.5c2.6-1,3.7-.1,2.5,2.5Z"/>
            <path class="st13" d="M114.7,114.5h-2.1c-1.6-4.5,4-4.1,2.1,0Z"/>
            <path class="st13" d="M145.2,114.1c-2.2.7-4.4-2.1-1.5-2.8,1.6.3,1.6,1.4,1.5,2.8Z"/>
            <g>
              <path class="st4" d="M115.2,131.7c0,0,.5,0,.7.1.5.5.7,1.4,1.5,1.8,1.6.7,9.4-2.7,12.3-2.8,3.1,0,9.4,3.6,12.1,2.3,1-.4.6-1.4,2.1-1.9v9.9s-1.3,0-1.3,0v-1.7c-.4-.2-1.1,0-1.3,0s-.1-1-.4-1.4c-.8-1.1-2.4-2.5-3.8-2.1v-1.2s-2.2.9-2.2.9c-.4-.1-1.2,0-1.7,0s-.5-.6-1.4-.4-3.7,1.3-4.1,1.5c-1.5.8-1.4,2.3-2.2,2.9s-2.1.7-2.5,1.8c-.4,1,1.2.5,1.3,1.7s-1.6,1.8-1.7,2.2.7,1.2.8,1.8-.4,1.2-.1,1.8c.6,1.5,2.4,2.5,2.8,3.9.4.3,3.1-2.2,3.7,0l1-.4.2,2.6c1.9-1.6,3.8.2,5.8-1.1s1-2.2,2.8-1.9l.9.9c2.5-1.5,1.3-2.5,1.6-4s1.2-2.3,1-3.8l1.1,1.1v8.8c-3.8,2.4-9.1,4.4-13.3,6,.2-1.4-.7-.7-1.5-.8-1.2-.2-1.6,0-2.8-.6-3.4-1.6-6.3-3.5-9.8-4.7-.4-.1-.8-.3-1.1-.7l-.2-22.3Z"/>
              <path class="st6" d="M144.4,130.8c-.2,0-.3.4-.4.4-1.5.6-1.2,1.5-2.1,1.9-2.8,1.3-9.1-2.4-12.1-2.3-2.9,0-10.7,3.5-12.3,2.8s-.9-1.3-1.5-1.8-.6,0-.7-.1.1-.6,0-.8h-1.2c0,0,15.7-4,15.7-4,4.5,1.3,10.8,1.9,14.8,3.9Z"/>
              <path class="st10" d="M113.9,130.8h1.2c.2.3,0,.8,0,.9l.2,22.3c.3.3.7.5,1.1.7,3.6,1.2,6.4,3.1,9.8,4.7s1.7.4,2.8.6,1.7-.6,1.5.8c-.2,0-.4.6-.8.7l-15.7-6.7-.2-24Z"/>
              <path class="st8" d="M134.9,135.5c1.8.7,4.2,3.6,6.4,3.9-.4,2.6.9,8.1-.8,10.1s-5.5,3.6-5.8,3.6c-2.2-.8-7.7-2.5-8.3-5s-.3-6.3,0-7.5c.6-2.5,5.4-2.9,6.8-5,.5,0,1.4-.1,1.7,0ZM128.9,140.3c-1.7,1.2-.6,5.8-.8,7.9.3,1,4.8,2.7,5.9,2.9s.4.6.8.2l4.7-2.9v-7.4c-.2-.7-4.5-3.2-5.3-3.3s-4.4,1.9-5.3,2.6Z"/>
              <path class="st13" d="M144.4,130.8c.2,0,.8-.3.9.3l-.2,23.3c-.3.4-.9.3-1.1.4v-8.8s-1.1-1.1-1.1-1.1c.2,1.5-.8,2.9-1,3.8-.3,1.5,1,2.4-1.6,4l-.9-.9c-1.7-.3-1.9,1.4-2.8,1.9-1.9,1.3-3.9-.5-5.8,1.1l-.2-2.6-1,.4c-.6-2.2-3.3.3-3.7,0-.4-1.4-2.2-2.4-2.8-3.9s.2-1.2.1-1.8-.9-1.3-.8-1.8,1.8-.7,1.7-2.2-1.6-.7-1.3-1.7c.4-1.1,2-1.3,2.5-1.8s.7-2.1,2.2-2.9,3.8-1.5,4.1-1.5c.9-.1,1.2.4,1.4.4-1.3,2.2-6.2,2.5-6.8,5s-.3,6.3,0,7.5c.6,2.5,6,4.3,8.3,5,.3,0,5.5-3.3,5.8-3.6,1.7-2,.5-7.5.8-10.1-2.3-.2-4.6-3.2-6.4-3.9l2.1-.9v1.2c1.5-.4,3,1,3.9,2.1s.4,1.4.4,1.4c.2.1.9-.2,1.2,0v1.7s1.3,0,1.3,0v-9.9c.1,0,.3-.3.4-.4Z"/>
              <path class="st4" d="M128.9,140.3c.9-.6,4.4-2.6,5.3-2.6s5.1,2.6,5.3,3.3v7.4s-4.7,2.9-4.7,2.9c-.4.4-.7-.2-.8-.2.3-1.8-.2-1-1-1.3s-3.3-1.8-3.6-2.4c-1.3-2.2.3-4.7-.5-7ZM134.9,140.3h-2.1v3s-3,0-3,0v2.1h3s0,3,0,3h2.1v-3s3,0,3,0v-2.1h-3s0-3,0-3Z"/>
              <path class="st10" d="M128.9,140.3c.8,2.3-.8,4.8.5,7s2.8,2.1,3.6,2.4,1.3-.5,1,1.3c-1.1-.2-5.6-1.9-5.9-2.9.2-2.1-.9-6.7.8-7.9Z"/>
              <polygon class="st8" points="134.9 140.3 134.9 143.3 137.9 143.3 137.9 145.4 134.9 145.4 134.9 148.4 132.8 148.4 132.8 145.4 129.8 145.4 129.8 143.3 132.8 143.3 132.8 140.3 134.9 140.3"/>
            </g>
          </g>
        </g>
      </g>
    </g>
  </g>
</svg>