<?xml version="1.0" encoding="UTF-8"?>
<svg xmlns="http://www.w3.org/2000/svg" width="256" height="256" version="1.1" xmlns:xlink="http://www.w3.org/1999/xlink" viewBox="0 0 256 256">
  <defs>
    <style>
      .cls-1 {
        fill-opacity: .3;
      }

      .cls-1, .cls-2, .cls-3 {
        fill-rule: evenodd;
      }

      .cls-4, .cls-5 {
        fill: #fff;
      }

      .cls-5 {
        display: none;
      }

      .cls-6 {
        isolation: isolate;
      }

      .cls-7 {
        mix-blend-mode: multiply;
      }

      .cls-2 {
        fill: #766afe;
      }

      .cls-3 {
        fill: url(#_未命名的渐变_2);
      }
    </style>
    <linearGradient id="_未命名的渐变_2" data-name="未命名的渐变 2" x1="129" y1="196" x2="129" y2="48" gradientTransform="translate(0 258) scale(1 -1)" gradientUnits="userSpaceOnUse">
      <stop offset="0" stop-color="#f481b0"/>
      <stop offset="1" stop-color="#9082f9"/>
    </linearGradient>
  </defs>
  <!-- Generator: Adobe Illustrator 28.6.0, SVG Export Plug-In . SVG Version: 1.2.0 Build 709)  -->
  <g>
    <g id="_图层_1" data-name="图层_1">
      <g class="cls-6">
        <g id="_图层_1-2" data-name="_图层_1">
          <path class="cls-2" d="M104.4,42.4c-4.4-5.3-10.9-8.4-17.8-8.4H29c-6.6,0-12,5.4-12,12v114c0,6.6,5.4,12,12,12h200c6.6,0,12-5.4,12-12v-89.9c0-6.6-5.4-12-12-12h-111.6l-13-15.8h0Z"/>
          <g class="cls-7">
            <path class="cls-1" d="M92.8,74c5,0,9.8-1.6,13.8-4.6l9.9-7.4h112.5c6.6,0,12,5.4,12,12v86c0,6.6-5.4,12-12,12H29c-6.6,0-12-5.4-12-12v-74c0-6.6,5.4-12,12-12h63.8Z"/>
          </g>
          <path class="cls-3" d="M92.8,74c5,0,9.8-1.6,13.8-4.6l9.9-7.4h112.5c6.6,0,12,5.4,12,12v124c0,6.6-5.4,12-12,12H29c-6.6,0-12-5.4-12-12v-112c0-6.6,5.4-12,12-12h63.8Z"/>
          <path class="cls-5" d="M179.8,144.8c-1-3.3-2.1-6.6-3.7-9.8-.6-1.2-.8-2.4-.8-3.8.2-4.9.5-9.8.4-14.4.1-6.8,0-13.4-1.1-19.9-.3-2.2-.8-4.4-1.9-6.4-1-1.9-2.3-2.4-4.3-1.7-.8.3-1.6.7-2.4,1.2-2.9,1.9-5.5,4.1-7.9,6.6-3.5,3.4-7,6.9-10.7,10.1-1.6,1.4-3.3,1.7-5.4,1.2-7.7-2-15.5-2-23.2,0-2.4.6-4.3.2-6-1.4-3.9-3.7-7.9-7.5-11.8-11.2-2.6-2.4-5.1-4.8-8.4-6.2-2.2-.9-3.6-.4-4.7,1.7-1.1,2-1.6,4.2-1.9,6.4-1.4,9.9-1.4,19.8-.9,29.7.2,3.6.3,7-1.6,10.3-1.4,2.6-2.1,5.5-2.9,8.4s-.5,5.7.7,8.5c1.3,2.9,3,5.5,5,7.9,5.5,6.5,12.1,11.6,19.6,15.5,9.5,4.9,19.5,7.2,30.2,5.8,10.8-1.4,20.2-6,28.7-12.6,5.7-4.5,10.8-9.6,14-16.3,1.5-3.1,1.8-6.2.8-9.5h.2ZM118.5,153.6c-1.1,2.5-3.4,2.9-5.8,3.1-5.3.5-10.6-2.8-12.6-7.7-1.8-4.4.2-7.4,5.7-7.4,3.9.4,8.1,1.8,11.2,5.5,1.6,1.9,2.6,4.1,1.5,6.5h0ZM136.3,166.3c-.9,1.1-2,2-3.2,2.7-2,1.3-4.1,1.4-6.2.2-1.4-.8-2.8-1.8-3.8-3.2-1.2-1.5-.8-2.6,1-3.2,2-.7,4.1-.7,6-.9,1.8.2,3.6.2,5.2.8,2.2.7,2.5,1.9,1,3.7h0ZM159.6,148.8c-2.1,5.6-8.6,9-14.5,7.6-3.7-.8-5.2-3.7-3.7-7.3.4-1,1.1-1.9,1.9-2.7,3.1-3.2,7-4.5,10.7-4.8,5.2,0,7.3,2.9,5.6,7.2Z"/>
        </g>
      </g>
      <path class="cls-4" d="M80.8,146.9c1.1-4.3,2.6-8.3,4.5-12.2.5-1,.5-2.1.4-3.2-.4-7-.5-14-.4-21.1,0-3.4.5-22.2,5.6-22.6,1.1,0,2.1.1,3.1.5,1.6.8,3.4,2,5.4,3.7,5.2,4.5,9.9,9.7,15.1,14.2.8.7,2.4,2,3.4,1.9.2,0,.5,0,.7-.1,3.6-1,6.7-1.5,9.3-1.7,4.6-.3,9.6-.2,14.2.8,1.5.3,2.8.6,4.2,1,1.3.3,3-1.2,4-2,1.6-1.4,3.1-2.8,4.5-4.1,4-4,8-8,12.5-11.5,1.2-.9,2.6-1.8,4-2.3.9-.3,2.6-.5,3.4,0,1.1.8,1.8,2.3,2.2,3.6.5,1.6.9,3.1,1.2,4.6.7,4.3,1.1,9.3,1.2,14.8,0,6.2,0,10.7-.1,13.5-.1,2.9-.3,5.6-.3,8.1,0,.7.2,1.3.5,2,1.9,4,3.4,8,4.4,12.1.3,1.2.5,2.5.4,3.8-.4,3.3-2,6.4-3.8,9.2-2.5,3.8-5.9,7.4-10,10.9-6,5.1-12.5,9-19.6,11.7-9.6,3.6-19.3,4.4-29.2,2.2-3.7-.8-7.5-2.1-11.3-3.8-7.1-3.3-13.5-7.6-19.1-13.1-2.8-2.7-5.1-5.6-7.1-8.6-1.7-2.7-3.1-5.8-3.3-8.9,0-.9,0-2,.4-3.3ZM101.7,150.9c2.2,4.5,6.4,6.7,11.2,7,1.2,0,2.5,0,3.9-.5,1.4-.4,2.4-1.3,3-2.5,1.4-3-1.2-6.7-3.4-8.4-3-2.4-7.3-3.9-11.1-3.7-1.5,0-2.7.6-3.6,1.5-1.8,1.7-1,4.5,0,6.5ZM154.9,143c-4,.8-7.9,2.7-10.3,5.9-1,1.3-1.6,2.9-1.5,4.5.3,2.7,2.2,3.8,4.7,4.3,3.9.7,8.5-.7,11.3-3.4,2.3-2.2,5.7-8.2,1.6-10.7-1.6-1-4-.9-5.9-.6ZM124.9,167.4c1.6,1.9,3.5,3.4,5.8,4.1,2.4.7,5.6-1.8,7.2-3.5.5-.5,1.1-1.1,1.3-1.8.2-.6-.6-1.3-1.1-1.5-.7-.3-1.4-.5-2.1-.6-2.8-.4-5.6-.4-8.4,0-.7,0-1.4.3-2.2.6-.6.2-1.4.9-1.2,1.7.2.4.4.7.7,1.1Z"/>
    </g>
  </g>
</svg>