<?xml version="1.0" encoding="utf-8"?>
<!-- Generator: Adobe Illustrator 28.1.0, SVG Export Plug-In . SVG Version: 6.00 Build 0)  -->
<svg version="1.1" id="图层_1" xmlns="http://www.w3.org/2000/svg" xmlns:xlink="http://www.w3.org/1999/xlink" x="0px" y="0px"
	 width="256px" height="256px" viewBox="0 0 256 256" style="enable-background:new 0 0 256 256;" xml:space="preserve">
<style type="text/css">
	.st0{clip-path:url(#SVGID_00000121257456037408923350000011763816107569863345_);}
	.st1{fill-rule:evenodd;clip-rule:evenodd;fill:#DFC57A;}
	.st2{fill-rule:evenodd;clip-rule:evenodd;fill-opacity:0.3;}
	.st3{fill-rule:evenodd;clip-rule:evenodd;fill:url(#SVGID_00000056404652163441211270000016422213816215551886_);}
	.st4{fill:#DFC57A;}
</style>
<g>
	<g>
		<defs>
			<rect id="SVGID_1_" width="256" height="256"/>
		</defs>
		<clipPath id="SVGID_00000049937177498700358070000012467522154866333354_">
			<use xlink:href="#SVGID_1_"  style="overflow:visible;"/>
		</clipPath>
		<g style="clip-path:url(#SVGID_00000049937177498700358070000012467522154866333354_);">
			<path class="st1" d="M104.4,42.4C100,37.1,93.5,34,86.6,34H29c-6.6,0-12,5.4-12,12v12.1v10.1V160c0,6.6,5.4,12,12,12h200
				c6.6,0,12-5.4,12-12V70.1c0-6.6-5.4-12-12-12H117.4L104.4,42.4z"/>
			<g>
				<g>
					<path class="st2" d="M92.8,74c5,0,9.8-1.6,13.8-4.6l9.9-7.4H229c6.6,0,12,5.4,12,12v34v52c0,6.6-5.4,12-12,12H29
						c-6.6,0-12-5.4-12-12v-52V86c0-6.6,5.4-12,12-12h58H92.8z"/>
				</g>
			</g>
			<g>
				
					<linearGradient id="SVGID_00000128483809965826211450000000792130409963891638_" gradientUnits="userSpaceOnUse" x1="17" y1="304" x2="241" y2="452" gradientTransform="matrix(1 0 0 1 0 -242)">
					<stop  offset="0" style="stop-color:#5F585E"/>
					<stop  offset="1" style="stop-color:#010101"/>
				</linearGradient>
				<path style="fill-rule:evenodd;clip-rule:evenodd;fill:url(#SVGID_00000128483809965826211450000000792130409963891638_);" d="
					M92.8,74c5,0,9.8-1.6,13.8-4.6l9.9-7.4H229c6.6,0,12,5.4,12,12v34v90c0,6.6-5.4,12-12,12H29c-6.6,0-12-5.4-12-12v-90V86
					c0-6.6,5.4-12,12-12h58H92.8z"/>
			</g>
		</g>
	</g>
</g>
<g>
	<path id="path3870_1_" class="st4" d="M136.9,130.3v4.7h-8.2c-2.9,0,1.2-3.5,4.7-3.5c-2.4-0.5-6.5-3-3.5-3h7.6l-1.2-2.5h-8.8
		c-2.9,0-7.5,1.8-4.4,4.3l-52.1,1l51.9,0.9c-4.8,3.6-0.1,5.2,4.6,5.2H141V132l48.7-0.6L136.9,130.3z"/>
	<path class="st4" d="M71.5,116.1c-0.6-0.3-1.2-0.5-1.9-0.7c-0.7-0.2-1.5-0.3-2.3-0.3c-0.5,0-1,0.1-1.5,0.2
		c-0.5,0.1-0.9,0.2-1.2,0.4c-0.4,0.2-0.6,0.4-0.8,0.6c-0.2,0.2-0.3,0.5-0.3,0.8c0,0.3,0.1,0.6,0.3,0.8c0.2,0.2,0.5,0.5,0.9,0.6
		c0.4,0.2,0.8,0.3,1.3,0.4c0.5,0.1,1,0.2,1.5,0.2c0.8,0,1.6-0.1,2.2-0.3c0.7-0.2,1.3-0.4,1.8-0.7l-0.2,3.9c-0.3,0.1-0.7,0.1-1.1,0.2
		c-0.4,0.1-0.9,0.1-1.4,0.1s-0.9,0.1-1.4,0.1c-0.5,0-0.9,0-1.2,0c-1.4,0-2.7-0.1-3.9-0.4c-1.2-0.3-2.2-0.6-3.1-1.1
		c-0.9-0.5-1.6-1-2.1-1.7c-0.5-0.6-0.8-1.3-0.8-2.1c0-0.8,0.3-1.5,0.8-2.1c0.5-0.7,1.2-1.3,2.2-1.7c0.9-0.5,2-0.9,3.2-1.2
		s2.6-0.4,4-0.4c0.8,0,1.6,0,2.4,0.1c0.8,0.1,1.6,0.2,2.3,0.3L71.5,116.1z"/>
	<path class="st4" d="M83.3,111.7c1.4,0,2.8,0.1,4.1,0.4c1.3,0.3,2.4,0.6,3.3,1.1c0.9,0.5,1.7,1,2.2,1.7s0.8,1.4,0.8,2.2
		c0,0.8-0.3,1.6-0.8,2.3s-1.3,1.2-2.2,1.7c-0.9,0.5-2.1,0.8-3.3,1.1c-1.3,0.2-2.6,0.4-4.1,0.4s-2.8-0.1-4.1-0.4
		c-1.3-0.2-2.4-0.6-3.3-1.1c-0.9-0.5-1.7-1-2.2-1.7c-0.6-0.7-0.8-1.4-0.8-2.3c0-0.8,0.3-1.6,0.8-2.2c0.6-0.7,1.3-1.2,2.2-1.7
		c0.9-0.5,2.1-0.8,3.3-1.1C80.5,111.8,81.8,111.7,83.3,111.7z M83.3,115.2c-0.6,0-1,0.1-1.5,0.2c-0.4,0.1-0.8,0.3-1.1,0.4
		c-0.3,0.2-0.5,0.4-0.7,0.7c-0.2,0.2-0.2,0.5-0.2,0.8c0,0.6,0.3,1.1,1,1.5c0.7,0.4,1.5,0.6,2.6,0.6s1.9-0.2,2.6-0.6
		c0.7-0.4,1-0.9,1-1.5c0-0.3-0.1-0.5-0.2-0.8s-0.4-0.5-0.7-0.7c-0.3-0.2-0.7-0.3-1.1-0.4C84.3,115.2,83.8,115.2,83.3,115.2z"/>
	<path class="st4" d="M96.4,111.9h7.2l2.6,5.5h0.2c0.1-0.2,0.1-0.5,0.2-0.7c0.1-0.2,0.2-0.5,0.3-0.7l2.2-4.1h7.1l3.1,10.5h-6.7
		l-0.9-5.7h-0.1c-0.1,0.2-0.1,0.4-0.2,0.5c-0.1,0.2-0.2,0.3-0.3,0.5l-2.8,4.7h-4.1l-2.5-4.4c-0.1-0.2-0.2-0.4-0.3-0.7
		c-0.1-0.2-0.1-0.4-0.2-0.7H101c0,0.2-0.1,0.4-0.1,0.6c0,0.2-0.1,0.4-0.1,0.6l-0.8,4.5h-6.7L96.4,111.9z"/>
	<path class="st4" d="M150.8,122.4h-7.2l6.5-10.5h7.6l6.7,10.5h-7.2l-0.6-1.3h-5.2L150.8,122.4z M155.3,118.6l-0.8-1.9
		c-0.1-0.2-0.2-0.4-0.2-0.7c-0.1-0.2-0.1-0.5-0.2-0.7h-0.2l-1.2,3.2C152.5,118.6,155.3,118.6,155.3,118.6z"/>
	<path class="st4" d="M165.8,111.9h6.6l6.1,5.8h0.2c-0.1-0.4-0.3-0.9-0.4-1.3c-0.1-0.4-0.2-0.9-0.2-1.3v-3.1h6.5v10.5h-6.5l-6-5.5
		h-0.2c0.1,0.4,0.2,0.7,0.3,1.1c0.1,0.3,0.1,0.7,0.1,1v3.4h-6.5L165.8,111.9L165.8,111.9z"/>
	<path class="st4" d="M186.8,111.9h7c1.6,0,3.1,0.1,4.4,0.3c1.4,0.2,2.5,0.5,3.5,1s1.8,1,2.4,1.7c0.6,0.7,0.9,1.5,0.9,2.5
		c0,0.8-0.2,1.5-0.7,2.1c-0.5,0.6-1.1,1.2-2,1.6c-0.8,0.4-1.8,0.8-3,1c-1.2,0.2-2.4,0.4-3.8,0.4h-8.7V111.9z M193.7,119.2h0.4
		c0.6,0,1.1,0,1.6-0.1c0.5-0.1,0.9-0.2,1.3-0.4c0.4-0.2,0.6-0.4,0.9-0.6c0.2-0.2,0.3-0.5,0.3-0.9c0-0.7-0.4-1.3-1.1-1.6
		c-0.7-0.3-1.7-0.5-3-0.5h-0.4L193.7,119.2L193.7,119.2z"/>
	<path class="st4" d="M72.8,145.4c-0.6-0.3-1.2-0.6-1.9-0.8c-0.7-0.2-1.5-0.3-2.3-0.3c-0.5,0-1,0.1-1.5,0.2
		c-0.5,0.1-0.9,0.3-1.2,0.5c-0.4,0.2-0.6,0.4-0.8,0.7c-0.2,0.3-0.3,0.5-0.3,0.9c0,0.3,0.1,0.6,0.3,0.9c0.2,0.3,0.5,0.5,0.9,0.7
		c0.4,0.2,0.8,0.3,1.3,0.5c0.5,0.1,1,0.2,1.5,0.2c0.8,0,1.6-0.1,2.2-0.3s1.3-0.4,1.8-0.8l-0.2,4.2c-0.3,0.1-0.7,0.1-1.1,0.2
		c-0.4,0.1-0.9,0.1-1.4,0.1c-0.5,0-0.9,0.1-1.4,0.1c-0.5,0-0.9,0-1.2,0c-1.4,0-2.7-0.1-3.9-0.4c-1.2-0.3-2.3-0.7-3.2-1.2
		s-1.6-1.1-2.1-1.8c-0.5-0.7-0.8-1.4-0.8-2.2c0-0.8,0.3-1.6,0.8-2.3c0.5-0.7,1.2-1.3,2.2-1.9s2-0.9,3.2-1.2c1.2-0.3,2.6-0.5,4-0.5
		c0.8,0,1.6,0,2.4,0.1s1.6,0.2,2.4,0.3L72.8,145.4z"/>
	<path class="st4" d="M85.5,140.7c1.5,0,2.9,0.1,4.3,0.4c1.3,0.3,2.5,0.7,3.5,1.2c1,0.5,1.8,1.1,2.4,1.8c0.6,0.7,0.9,1.5,0.9,2.4
		c0,0.9-0.3,1.7-0.9,2.4c-0.6,0.7-1.4,1.3-2.4,1.8s-2.2,0.9-3.5,1.1c-1.3,0.3-2.7,0.4-4.3,0.4c-1.5,0-2.9-0.1-4.3-0.4
		c-1.3-0.3-2.5-0.6-3.5-1.1c-1-0.5-1.8-1.1-2.4-1.8c-0.6-0.7-0.9-1.5-0.9-2.4c0-0.9,0.3-1.7,0.9-2.4c0.6-0.7,1.4-1.3,2.4-1.8
		c1-0.5,2.1-0.9,3.5-1.2C82.6,140.9,84,140.7,85.5,140.7z M85.5,144.4c-0.6,0-1.1,0.1-1.6,0.2c-0.5,0.1-0.8,0.3-1.2,0.5
		s-0.6,0.4-0.7,0.7c-0.2,0.3-0.3,0.5-0.3,0.8c0,0.6,0.3,1.2,1,1.6c0.7,0.4,1.6,0.6,2.7,0.6c1.1,0,2-0.2,2.7-0.6c0.7-0.4,1-0.9,1-1.6
		c0-0.3-0.1-0.6-0.3-0.8s-0.4-0.5-0.7-0.7c-0.3-0.2-0.7-0.4-1.2-0.5C86.6,144.4,86.1,144.4,85.5,144.4z"/>
	<path class="st4" d="M98.2,140.9h7l6.5,6.2h0.2c-0.1-0.5-0.3-0.9-0.4-1.4c-0.1-0.5-0.2-0.9-0.2-1.4v-3.3h6.9V152h-6.9l-6.4-5.9
		h-0.2c0.1,0.4,0.2,0.8,0.3,1.1c0.1,0.4,0.1,0.7,0.1,1.1v3.6h-6.9V140.9z"/>
	<path class="st4" d="M163.2,140.9v6.6c0,0.8-0.2,1.5-0.7,2.1c-0.4,0.6-1.1,1.1-1.9,1.5c-0.8,0.4-1.8,0.7-2.9,0.9s-2.4,0.3-3.8,0.3
		s-2.7-0.1-3.8-0.3c-1.1-0.2-2.1-0.5-2.9-0.9c-0.8-0.4-1.4-0.9-1.9-1.5c-0.4-0.6-0.7-1.3-0.7-2.1v-6.6h7.3v6.2c0,0.2,0,0.4,0,0.6
		c0,0.2,0.1,0.4,0.2,0.5c0.1,0.2,0.3,0.3,0.6,0.4c0.3,0.1,0.6,0.1,1.1,0.1c0.5,0,0.9,0,1.1-0.1c0.3-0.1,0.5-0.2,0.6-0.4
		c0.1-0.2,0.2-0.3,0.2-0.5c0-0.2,0-0.4,0-0.6v-6.2H163.2z"/>
	<path class="st4" d="M166.6,140.9h15.7v3h-8.4v1.1h8.6v2.9h-8.6v1.1h8.6v3h-15.9L166.6,140.9L166.6,140.9z"/>
	<path class="st4" d="M186,140.9h8.9c1.1,0,2.2,0.1,3.2,0.2c1,0.1,1.9,0.4,2.7,0.7c0.8,0.3,1.4,0.7,1.8,1.2s0.7,1.1,0.7,1.8
		c0,0.4-0.1,0.8-0.2,1.1c-0.2,0.3-0.4,0.6-0.7,0.8c-0.3,0.2-0.7,0.4-1.2,0.6c-0.5,0.2-1.1,0.3-1.8,0.4v0.1c0.2,0.1,0.4,0.2,0.6,0.3
		c0.2,0.1,0.4,0.2,0.6,0.4l4.4,3.6h-8.5l-3.2-3.6h-0.1v3.6H186L186,140.9L186,140.9z M193.2,145.8h0.5c0.3,0,0.6,0,0.9,0
		c0.3,0,0.5-0.1,0.8-0.1c0.2-0.1,0.4-0.2,0.5-0.3s0.2-0.3,0.2-0.5c0-0.2-0.1-0.4-0.2-0.5s-0.3-0.2-0.5-0.3c-0.2-0.1-0.5-0.1-0.7-0.1
		c-0.3,0-0.6,0-0.9,0h-0.6L193.2,145.8L193.2,145.8z"/>
	<path class="st4" d="M141.5,142.1c-0.6-1-1.4-1.9-2.4-2.6c-1-0.7-2.2-1.3-3.6-1.7c-1.4-0.4-2.8-0.6-4.4-0.6c-1.5,0-3,0.2-4.4,0.6
		c-1.4,0.4-2.6,0.9-3.6,1.7c-1,0.7-1.8,1.6-2.4,2.6s-0.9,2.1-0.9,3.4c0,1.3,0.3,2.4,0.9,3.4c0.6,1,1.4,1.9,2.4,2.6
		c1,0.7,2.2,1.2,3.6,1.6c1.4,0.4,2.8,0.6,4.4,0.6c0.1,0,0.3,0,0.4,0l4.8,6.2l-2.1-6.4c0.4-0.1,0.8-0.2,1.2-0.3
		c1.4-0.4,2.6-0.9,3.6-1.6c1-0.7,1.8-1.6,2.4-2.6c0.6-1,0.9-2.1,0.9-3.4C142.4,144.3,142.1,143.1,141.5,142.1z M134,147.8
		c-0.7,0.6-1.6,0.8-2.7,0.8c-1.1,0-2-0.3-2.7-0.8c-0.7-0.6-1-1.3-1-2.2c0-0.4,0.1-0.8,0.3-1.2c0.2-0.4,0.4-0.7,0.8-1
		c0.3-0.3,0.7-0.5,1.2-0.7c0.5-0.2,1-0.2,1.6-0.2c0.6,0,1.1,0.1,1.6,0.2c0.5,0.2,0.9,0.4,1.2,0.7s0.6,0.6,0.8,1
		c0.2,0.4,0.3,0.8,0.3,1.2C135,146.5,134.7,147.2,134,147.8z"/>
	<path id="path3892-7" class="st4" d="M119.3,124l2.9-13.5h7.3l2,11.2l1.9-11.2h7.2l2.8,13.5h-5.9l-1.1-7.5l-4,9.5h-1.8l-4-9.6
		l-1.1,7.6H119.3z"/>
</g>
</svg>
