<?xml version="1.0" encoding="utf-8"?>
<!-- Generator: Adobe Illustrator 28.1.0, SVG Export Plug-In . SVG Version: 6.00 Build 0)  -->
<svg version="1.1" id="图层_1" xmlns="http://www.w3.org/2000/svg" xmlns:xlink="http://www.w3.org/1999/xlink" x="0px" y="0px"
	 width="256px" height="256px" viewBox="0 0 256 256" style="enable-background:new 0 0 256 256;" xml:space="preserve">
<style type="text/css">
	.st0{fill-rule:evenodd;clip-rule:evenodd;fill:#EC4A00;}
	.st1{fill-rule:evenodd;clip-rule:evenodd;fill:url(#SVGID_1_);filter:url(#Adobe_OpacityMaskFilter);}
	.st2{mask:url(#mask0_1032_27553_00000174584808477165034000000015902020202426867083_);}
	.st3{fill-rule:evenodd;clip-rule:evenodd;fill-opacity:0.3;}
	.st4{fill-rule:evenodd;clip-rule:evenodd;fill:url(#SVGID_00000154392069493696178480000001135823512140097416_);}
	.st5{display:none;fill:#EEC749;}
	.st6{display:none;fill:#EDB406;}
	.st7{display:none;fill:#EC9500;}
	.st8{fill:#1E3952;}
	.st9{fill:#FCFCFC;}
	.st10{fill:#F7BC5D;}
	.st11{fill:#F8BC5D;}
</style>
<path class="st0" d="M104.4,42.4c-4.4-5.3-10.9-8.4-17.8-8.4H29c-6.6,0-12,5.4-12,12v12.1v10.1V160c0,6.6,5.4,12,12,12h200
	c6.6,0,12-5.4,12-12V70.1c0-6.6-5.4-12-12-12H117.4L104.4,42.4z"/>
<defs>
	<filter id="Adobe_OpacityMaskFilter" filterUnits="userSpaceOnUse" x="17" y="62" width="224" height="110">
		<feColorMatrix  type="matrix" values="1 0 0 0 0  0 1 0 0 0  0 0 1 0 0  0 0 0 1 0"/>
	</filter>
</defs>
<mask maskUnits="userSpaceOnUse" x="17" y="62" width="224" height="110" id="mask0_1032_27553_00000174584808477165034000000015902020202426867083_">
	
		<linearGradient id="SVGID_1_" gradientUnits="userSpaceOnUse" x1="32.5816" y1="239.5494" x2="213.3495" y2="58.4074" gradientTransform="matrix(1 0 0 -1 0 258)">
		<stop  offset="0" style="stop-color:#05815D"/>
		<stop  offset="1" style="stop-color:#0C575F"/>
	</linearGradient>
	<path class="st1" d="M104.4,42.4c-4.4-5.3-10.9-8.4-17.8-8.4H29c-6.6,0-12,5.4-12,12v12.1v10.1V160c0,6.6,5.4,12,12,12h200
		c6.6,0,12-5.4,12-12V70.1c0-6.6-5.4-12-12-12H117.4L104.4,42.4z"/>
</mask>
<g class="st2">
	<g>
		<path class="st3" d="M92.8,74c5,0,9.8-1.6,13.8-4.6l9.9-7.4H229c6.6,0,12,5.4,12,12v34v52c0,6.6-5.4,12-12,12H29
			c-6.6,0-12-5.4-12-12v-52V86c0-6.6,5.4-12,12-12h58H92.8z"/>
	</g>
</g>
<g>
	
		<linearGradient id="SVGID_00000004540310771733589780000005970512999128093866_" gradientUnits="userSpaceOnUse" x1="17" y1="196" x2="241" y2="48" gradientTransform="matrix(1 0 0 -1 0 258)">
		<stop  offset="0" style="stop-color:#ED9E06"/>
		<stop  offset="1" style="stop-color:#EC4700"/>
	</linearGradient>
	<path style="fill-rule:evenodd;clip-rule:evenodd;fill:url(#SVGID_00000004540310771733589780000005970512999128093866_);" d="
		M92.8,74c5,0,9.8-1.6,13.8-4.6l9.9-7.4H229c6.6,0,12,5.4,12,12v34v90c0,6.6-5.4,12-12,12H29c-6.6,0-12-5.4-12-12v-90V86
		c0-6.6,5.4-12,12-12h58H92.8z"/>
</g>
<path class="st5" d="M127.1,177.9c-7.7-0.4-15.1-2.8-21.4-7c-4.7-3.1-8.4-6.8-11.6-11.5c-3.8-5.5-6-11.5-6.9-18.5
	c-0.3-1.9-0.3-8,0-9.9c0.8-5.8,2.5-11,5.2-15.7c0.7-1.3,2.7-4.3,3.6-5.4c2-2.5,4.3-4.8,6.8-6.8c1.2-1,4.1-2.9,5.5-3.7
	c4.7-2.7,9.9-4.4,15.7-5.2c1.9-0.3,8-0.3,9.9,0c5.8,0.8,11,2.5,15.7,5.2c1.3,0.7,4.3,2.7,5.4,3.6c8.7,7,14.2,16.7,15.6,27.6
	c1.5,11.5-1.7,22.7-8.9,31.8c-1.3,1.6-4.7,5.1-6.3,6.3c-6.3,5-13.5,8-21.1,9c-1.3,0.2-4.6,0.4-5.2,0.4
	C128.9,178,128,177.9,127.1,177.9L127.1,177.9z M132.3,152.8c2.2-0.4,4.4-1.4,6.4-2.7c1.2-0.8,3.6-3.2,4.4-4.4
	c1.4-2.1,2.3-4.4,2.7-6.7c0.3-1.6,0.3-4.5,0-6.1c-0.6-2.9-1.8-5.4-3.8-8c-2.2-2.8-6-5-9.9-5.7c-1.2-0.2-3.1-0.3-4.4-0.2
	c-2.4,0.2-4.3,0.7-6.4,1.8c-1.7,0.8-3,1.8-4.4,3.2c-0.6,0.6-1.5,1.6-1.8,2.1c-3.4,4.8-4.1,11.2-1.8,16.6c1.1,2.6,2.8,4.8,4.6,6.3
	c2.9,2.3,6.1,3.7,9.5,4C128.4,153.2,131.3,153,132.3,152.8z"/>
<path class="st6" d="M127,177.7c-7.1-0.4-13.6-2.4-19.6-5.9c-4.9-2.9-9.3-7.1-12.7-11.8c-2.8-4-5.2-9.1-6.4-14
	c-1.3-5.3-1.5-11.6-0.6-17.1c1.2-7.1,4.2-13.7,9-19.5c1.1-1.3,4.3-4.5,5.6-5.6c5-4.1,10.4-6.8,16.5-8.3c5.4-1.3,11.6-1.6,17.2-0.6
	c11.9,2,22.5,9.3,28.7,19.6c2.6,4.3,4.5,9.3,5.3,14.1c0.6,3.3,0.8,7.5,0.6,10.3c-1.1,15.2-10,28.4-23.6,34.9
	C140.8,176.7,133.9,178.1,127,177.7z M132.4,165.5c0.7-0.1,1.4-0.2,1.4-0.2c0.1-0.1-3-3.2-7.1-7.3c-6.8-6.8-7.7-7.7-7.5-7.6
	c0.1,0,0.6,0.3,1.1,0.6c6.9,4,15.2,2.9,20.8-2.7c3.8-3.8,5.6-9,4.9-14.3c-0.3-2.5-1.1-4.6-2.6-7.2c-0.3-0.5-0.3-0.6-0.1-0.4
	c0.1,0.1,3.5,3.4,7.4,7.3c3.9,3.9,7.2,7.1,7.2,7.1s0.1-0.2,0.2-0.4c0-0.2,0.1-0.5,0.1-0.7c0.3-1.9,0.2-5.7-0.1-8
	c-0.8-5.4-3.1-10.4-6.7-14.7c-0.5-0.6-0.9-1.1-0.9-1.2c0-0.2-1.6-1.8-3-2.9c-10.1-8.3-24.5-9-35.4-1.7c-12.7,8.5-16.9,25.1-9.8,38.6
	c1.2,2.3,3.2,5,5,6.9c2,2.1,5.1,4.3,7.7,5.6C120.7,165.1,126.3,166.1,132.4,165.5z"/>
<path class="st7" d="M128.7,177.7c-0.2-0.1-18.6-18.4-18.5-18.4c0,0,0.4,0.3,0.8,0.6c4.2,3.1,9,5.1,14.1,5.7
	c2.6,0.3,6.2,0.3,8.2-0.1c1.3-0.3,4-1,5.3-1.4c9.6-3.3,16.9-11.3,19.2-21.1c0.2-0.8,0.4-1.7,0.5-2c0.4-1.7,0.6-6.1,0.2-8.6
	c-0.7-5.6-2.9-10.7-6.4-15c-0.5-0.6-0.9-1.1-1-1.2c-0.1-0.1,4.3,4.2,9.7,9.6c5.4,5.4,9.9,9.9,9.9,10c0.1,0.2,0.1,0.9,0,2.2
	c-0.4,7.8-2.7,14.7-6.9,21.1c-2.5,3.8-6,7.5-9.6,10.2c-6.7,5-14.5,7.9-23.1,8.4C129,177.8,128.9,177.8,128.7,177.7L128.7,177.7z"/>
<g>
	<path class="st8" d="M115.5,97.8c4,0,7.9,0.1,11.9,0.1c5.1,0,8.2,3,8.3,8c0,1.8,0.6,2.2,2.3,2.1c5.5-0.1,11-0.1,16.5,0
		c5.5,0,9.2,3.7,9.2,9.2c0,16,0.1,32,0,48.1c-0.1,14.4-11.7,27.3-26,28.9c-18.5,2.1-33.9-11.6-33.9-30.2c-0.1-15.3,0-30.7,0-46
		c0-6.5,3.5-10,10.1-10c5.3,0,10.5-0.1,15.8,0c1.7,0,2.3-0.5,2.2-2.2c-0.2-2.5-1.5-3.9-4.1-3.9c-4.6,0-9.2-0.1-13.7,0
		c-2.1,0-4.1-0.2-6.1-0.9c-2.9-2-4.6-4.7-3.9-8.3c0.7-4,3.7-6.6,7.8-6.6c5.6-0.1,11.3,0,16.9,0c1.4,0,2.5-0.2,3.2-1.6
		c0.8-1.7,2.5-0.9,3.6-0.7c1.3,0.3,0.3,1.6,0.1,2.3c-0.8,2.5-3.2,4-6,4.1c-5.4,0-10.8,0-16.2,0c-0.6,0-1.2,0-1.8,0
		c-2.1,0.2-3.6,1.7-3.6,3.7c-0.1,2.1,1.4,3.8,3.6,4C112.7,97.9,114.1,97.8,115.5,97.8z M133.9,142.5c-8.1,0-16.2,0-24.3,0
		c-1.3,0-1.9,0.2-1.9,1.7c0.1,6.9-0.1,13.9,0.1,20.8c0.3,13.8,11.5,25.1,24.8,25.4c14.6,0.3,26-10,27.1-24.5
		c0.5-7.2,0.1-14.3,0.3-21.5c0-1.6-0.5-2-2-2C149.9,142.5,141.9,142.5,133.9,142.5z M147.8,138.6c3.4,0,6.7-0.1,10.1,0
		c1.5,0,2-0.5,1.9-1.9c-0.1-6.4,0-12.8,0-19.2c0-3.9-1.9-5.7-5.8-5.7c-5.2,0-10.4,0-15.6,0c-0.9,0-2.3-0.8-2.6,0.9
		c-0.2,1.3-0.1,2.4,1.4,3.2c2.4,1.2,3.6,3.5,3.7,6.2c0.1,1.6,0,3.2,0.1,4.8c0.1,3.6-0.8,6.7-4.4,8.3c-1.3,0.6-0.7,1.7-0.7,2.6
		c0,1.2,1,0.9,1.7,0.9C140.9,138.6,144.4,138.6,147.8,138.6z M119.8,139c3.2,0,6.4,0,9.6,0c0.8,0,2.2,0.7,2.4-0.9
		c0.2-1.2,0.2-2.3-1.3-3c-2.8-1.4-4-3.9-3.9-7c0-1.7,0-3.4,0-5c0-3.2,1.1-5.9,4.2-7.2c1.4-0.6,1-1.7,1-2.7c0-1.4-1.2-0.9-1.9-0.9
		c-5.6,0-11.1,0-16.7,0c-3.4,0-5.4,2-5.4,5.4c-0.1,6.6,0,13.1,0,19.7c0,1.4,0.4,1.9,1.8,1.8C113,138.9,116.4,139,119.8,139z
		 M137,125.3c0-1.1,0.1-2.3,0-3.4c-0.2-2-1.5-3.1-3.3-3c-1.9,0.1-2.9,1.3-3,3.1c-0.1,2.1-0.1,4.3,0,6.4c0.1,1.9,1.1,3,3,3.1
		c1.7,0.2,3.1-1.1,3.3-3.1C137,127.4,137,126.3,137,125.3z"/>
	<path class="st9" d="M133.9,142.5c8,0,16,0,24,0c1.6,0,2.1,0.4,2,2c-0.2,7.2,0.2,14.3-0.3,21.5c-1,14.4-12.5,24.8-27.1,24.5
		c-13.3-0.3-24.5-11.6-24.8-25.4c-0.2-6.9,0-13.9-0.1-20.8c0-1.5,0.6-1.7,1.9-1.7C117.7,142.5,125.8,142.5,133.9,142.5z
		 M133.7,149.4c-1.7-0.6-1.8,0.5-1.9,1.9c-0.1,1.8,0.7,1.9,2.2,1.9c1.5,0.1,1.9-0.5,1.9-1.9C135.8,149.8,135.5,148.9,133.7,149.4z
		 M124.8,153.1c1.8,0.6,1.8-0.5,1.9-1.9c0.1-1.5-0.4-2-1.9-1.9c-1.5,0-2.2,0.2-2.1,1.9C122.7,152.8,123,153.6,124.8,153.1z
		 M144.8,151.4c0.4-1.6-0.2-2.2-1.9-2.1c-1.2,0.1-2.2-0.1-2.1,1.7c0.1,1.3-0.1,2.4,1.8,2.2C144,153.1,145.3,153.4,144.8,151.4z"/>
	<path class="st10" d="M147.8,138.6c-3.4,0-6.9,0-10.3,0c-0.7,0-1.7,0.3-1.7-0.9c0-0.9-0.5-2,0.7-2.6c3.6-1.6,4.5-4.7,4.4-8.3
		c0-1.6,0-3.2-0.1-4.8c-0.1-2.7-1.3-4.9-3.7-6.2c-1.5-0.8-1.7-1.9-1.4-3.2c0.3-1.6,1.7-0.9,2.6-0.9c5.2-0.1,10.4-0.1,15.6,0
		c3.9,0,5.8,1.8,5.8,5.7c0,6.4,0,12.8,0,19.2c0,1.5-0.4,2-1.9,1.9C154.5,138.5,151.2,138.6,147.8,138.6z"/>
	<path class="st11" d="M119.8,139c-3.4,0-6.9-0.1-10.3,0c-1.4,0-1.8-0.5-1.8-1.8c0.1-6.6,0-13.1,0-19.7c0-3.4,2-5.4,5.4-5.4
		c5.6,0,11.1,0,16.7,0c0.7,0,1.9-0.4,1.9,0.9c0,1,0.4,2.1-1,2.7c-3.1,1.4-4.2,4-4.2,7.2c0,1.7,0,3.4,0,5c0,3.1,1.2,5.6,3.9,7
		c1.5,0.8,1.4,1.8,1.3,3c-0.2,1.6-1.6,0.9-2.4,0.9C126.2,139,123,139,119.8,139z"/>
	<path class="st9" d="M137,125.3c0,1.1,0.1,2.1,0,3.2c-0.2,1.9-1.6,3.2-3.3,3.1c-1.9-0.2-2.9-1.3-3-3.1c-0.1-2.1-0.1-4.3,0-6.4
		c0.1-1.8,1-3,3-3.1c1.8-0.1,3.1,1,3.3,3C137,123,137,124.1,137,125.3z"/>
	<path class="st8" d="M133.7,149.4c1.8-0.5,2.1,0.4,2.1,1.9c0,1.5-0.4,2-1.9,1.9c-1.4,0-2.3-0.1-2.2-1.9
		C131.8,149.9,131.9,148.8,133.7,149.4z"/>
	<path class="st8" d="M124.8,153.1c-1.8,0.5-2.1-0.4-2.2-1.9c-0.1-1.8,0.7-1.9,2.1-1.9c1.5,0,2,0.4,1.9,1.9
		C126.6,152.6,126.6,153.7,124.8,153.1z"/>
	<path class="st8" d="M144.8,151.4c0.5,2-0.8,1.7-2.1,1.8c-1.9,0.2-1.7-0.9-1.8-2.2c-0.2-1.8,0.9-1.6,2.1-1.7
		C144.7,149.2,145.2,149.8,144.8,151.4z"/>
</g>
</svg>
