<?xml version="1.0" encoding="UTF-8"?>
<svg id="_图层_1" xmlns="http://www.w3.org/2000/svg" width="256" height="256" version="1.1" xmlns:xlink="http://www.w3.org/1999/xlink" viewBox="0 0 256 256">
  <!-- Generator: Adobe Illustrator 29.3.1, SVG Export Plug-In . SVG Version: 2.1.0 Build 151)  -->
  <defs>
    <style>
      .st0 {
        fill-opacity: .3;
      }

      .st0, .st1, .st2 {
        fill-rule: evenodd;
      }

      .st3 {
        clip-path: url(#clippath-4);
      }

      .st4 {
        fill: url(#_未命名的渐变_5);
      }

      .st5 {
        fill: #fff;
      }

      .st6 {
        fill: none;
      }

      .st7 {
        clip-path: url(#clippath-1);
      }

      .st1 {
        fill: url(#_未命名的渐变);
      }

      .st8 {
        isolation: isolate;
      }

      .st9 {
        clip-path: url(#clippath-5);
      }

      .st10 {
        fill: url(#_未命名的渐变_6);
      }

      .st11 {
        fill: url(#_未命名的渐变_7);
      }

      .st12 {
        clip-path: url(#clippath-3);
      }

      .st13 {
        fill: url(#_未命名的渐变_3);
      }

      .st14 {
        mix-blend-mode: multiply;
      }

      .st15 {
        clip-path: url(#clippath-2);
      }

      .st2 {
        fill: #d3c4e2;
      }

      .st16 {
        fill: url(#_未命名的渐变_4);
      }

      .st17 {
        fill: #5b4f99;
      }

      .st18 {
        clip-path: url(#clippath);
      }

      .st19 {
        fill: #d3abdf;
      }

      .st20 {
        fill: url(#_未命名的渐变_2);
      }
    </style>
    <linearGradient id="_未命名的渐变" data-name="未命名的渐变" x1="17" y1="-99" x2="241" y2="-99" gradientTransform="translate(0 4) scale(1 -1)" gradientUnits="userSpaceOnUse">
      <stop offset="0" stop-color="#9b78e7"/>
      <stop offset="0" stop-color="#ac88e4"/>
      <stop offset=".2" stop-color="#bd97e1"/>
      <stop offset=".3" stop-color="#c9a2df"/>
      <stop offset=".5" stop-color="#d0a8de"/>
      <stop offset="1" stop-color="#d2aade"/>
    </linearGradient>
    <clipPath id="clippath">
      <path class="st6" d="M125.3,130.9l44-28.6s7.9-7.1,19.4,1.4c11.6,8.5,46.7,28.5,46.7,28.5l-82.7,15.3-27.4-16.7h0Z"/>
    </clipPath>
    <linearGradient id="_未命名的渐变_2" data-name="未命名的渐变 2" x1="275.3" y1="439.1" x2="275.3" y2="503.2" gradientTransform="translate(-39.9 -257) scale(.8)" gradientUnits="userSpaceOnUse">
      <stop offset="0" stop-color="#9371e5"/>
      <stop offset=".2" stop-color="#9371e5"/>
      <stop offset="1" stop-color="#b38eed"/>
    </linearGradient>
    <linearGradient id="_未命名的渐变_3" data-name="未命名的渐变 3" x1="213.6" y1="92" x2="213.6" y2="48" gradientTransform="translate(0 258) scale(1 -1)" gradientUnits="userSpaceOnUse">
      <stop offset="0" stop-color="#ae88b2"/>
      <stop offset="0" stop-color="#ae88b2"/>
      <stop offset="0" stop-color="#b18ab5"/>
      <stop offset=".2" stop-color="#bc94c1"/>
      <stop offset=".4" stop-color="#c39ac8"/>
      <stop offset="1" stop-color="#c59cca"/>
    </linearGradient>
    <clipPath id="clippath-1">
      <path class="st6" d="M32.9,138.4s48-20.6,63.9-35.4c16.9-15.7,25.2-4.3,32.3,0,7.1,4.3,26.9,17.9,42.7,23.1,15.8,5.2,60.5,19.1,60.5,19.1,0,0-35.1,51.2-35.3,51.1-.2-.1-161.1-11.3-161.1-11.3l-2.9-46.5h0Z"/>
    </clipPath>
    <linearGradient id="_未命名的渐变_4" data-name="未命名的渐变 4" x1="215.6" y1="433.1" x2="215.6" y2="568.1" gradientTransform="translate(-39.9 -257) scale(.8)" gradientUnits="userSpaceOnUse">
      <stop offset="0" stop-color="#9371e5"/>
      <stop offset=".2" stop-color="#9371e5"/>
      <stop offset="1" stop-color="#b38eed"/>
    </linearGradient>
    <clipPath id="clippath-2">
      <path class="st6" d="M241,174.8c0,19.4-18.1,35.2-40.3,35.2H59l24.2-34.7c22.7-15.2,56.6-29.3,56.6-29.3,0,0,28.9-9,48.7-29.8,19.4-20.3,51.3-27,52.5-27.3v85.8h0Z"/>
    </clipPath>
    <linearGradient id="_未命名的渐变_5" data-name="未命名的渐变 5" x1="59" y1="108.5" x2="241" y2="108.5" gradientTransform="translate(0 258) scale(1 -1)" gradientUnits="userSpaceOnUse">
      <stop offset="0" stop-color="#5b4f99"/>
      <stop offset=".3" stop-color="#5b4f99"/>
      <stop offset="1" stop-color="#7469ad"/>
    </linearGradient>
    <clipPath id="clippath-3">
      <path class="st6" d="M241,174.8c0,19.4-18.1,35.2-40.3,35.2H59l24.2-34.7c22.7-15.2,56.6-29.3,56.6-29.3,0,0,28.9-9,48.7-29.8,19.4-20.3,51.3-27,52.5-27.3v85.8h0Z"/>
    </clipPath>
    <linearGradient id="_未命名的渐变_6" data-name="未命名的渐变 6" x1="237.4" y1="425.1" x2="237.4" y2="586.5" gradientTransform="translate(-39.9 -257) scale(.8)" gradientUnits="userSpaceOnUse">
      <stop offset="0" stop-color="#ae88b2"/>
      <stop offset=".2" stop-color="#ae88b2"/>
      <stop offset="1" stop-color="#c59cca"/>
    </linearGradient>
    <clipPath id="clippath-4">
      <path class="st6" d="M56.6,151.8c22.9,21.6,40.8,22.6,61.1,33.2,20.2,10.5,44.3,10.7,64.6,25H56.3c-22.3,0-40.3-15.8-40.3-35.2v-47.8c1.8.4,18.9,4.3,40.6,24.8Z"/>
    </clipPath>
    <clipPath id="clippath-5">
      <path class="st6" d="M56.6,151.8c22.9,21.6,40.8,22.6,61.1,33.2,20.2,10.5,44.3,10.7,64.6,25H56.3c-22.3,0-40.3-15.8-40.3-35.2v-47.8c1.8.4,18.9,4.3,40.6,24.8Z"/>
    </clipPath>
    <linearGradient id="_未命名的渐变_7" data-name="未命名的渐变 7" x1="73.7" y1="531.9" x2="295.5" y2="531.9" gradientTransform="translate(-39.9 -257) scale(.8)" gradientUnits="userSpaceOnUse">
      <stop offset="0" stop-color="#5b4f99"/>
      <stop offset=".3" stop-color="#5b4f99"/>
      <stop offset="1" stop-color="#7469ad"/>
    </linearGradient>
  </defs>
  <g class="st8">
    <g id="_图层_11">
      <path class="st1" d="M104.4,42.4c-4.4-5.3-10.9-8.4-17.8-8.4H29c-6.6,0-12,5.4-12,12v114c0,6.6,5.4,12,12,12h200c6.6,0,12-5.4,12-12v-89.9c0-6.6-5.4-12-12-12h-111.6l-13-15.8h0Z"/>
      <g class="st14">
        <path class="st0" d="M92.8,74c5,0,9.8-1.6,13.8-4.6l9.9-7.4h112.5c6.6,0,12,5.4,12,12v86c0,6.6-5.4,12-12,12H29c-6.6,0-12-5.4-12-12v-74c0-6.6,5.4-12,12-12h63.8Z"/>
      </g>
      <path class="st2" d="M92.8,74c5,0,9.8-1.6,13.8-4.6l9.9-7.4h112.5c6.6,0,12,5.4,12,12v124c0,6.6-5.4,12-12,12H29c-6.6,0-12-5.4-12-12v-112c0-6.6,5.4-12,12-12h63.8Z"/>
    </g>
  </g>
  <g class="st18">
    <rect class="st20" x="125.3" y="95.2" width="110.1" height="52.4"/>
  </g>
  <path id="_右下" class="st13" d="M229,210h-42.7v-44h54.7v32c0,6.6-5.4,12-12,12Z"/>
  <path class="st19" d="M183.6,126.2c-2.4-2.2-6.7-3.2-4.3-9.8,2.4-6.7,2-5.9-1.3-11.4-1.4-2.3-1.5-4.1-1.3-5.5,3.2-.2,7.3.7,12.1,4.2,11.6,8.5,46.7,28.5,46.7,28.5l-31.2,5.8c-8.1-4.4-19.1-10.4-20.6-11.8h0Z"/>
  <g class="st7">
    <rect class="st16" x="32.9" y="87.3" width="199.4" height="109.1"/>
  </g>
  <path class="st19" d="M111,146.4c-13.1-5.3-3.2-8.8,3.5-15.5,4.3-11.7-10.5-10.4-2.2-18.1s0-8.8-.3-14.2c0-1.6.3-2.8.9-3.6,7,0,11.8,5.4,16.2,8,7.1,4.3,26.9,17.9,42.7,23.1,15.8,5.2,60.5,19.1,60.5,19.1,0,0-10.4,15.2-19.9,29-22.7-5.8-90.5-23.3-101.4-27.8Z"/>
  <g>
    <g class="st15">
      <rect class="st4" x="59" y="89" width="182" height="121"/>
    </g>
    <g class="st12">
      <rect class="st10" x="59" y="89" width="182" height="121"/>
    </g>
  </g>
  <g>
    <g class="st3">
      <rect class="st17" x="17" y="127" width="166.3" height="83"/>
    </g>
    <g class="st9">
      <rect class="st11" x="17" y="127" width="166.3" height="83"/>
    </g>
  </g>
  <polygon points="83 203.1 198.3 175.5 89.4 183.7 65.5 87.6 83 203.1"/>
  <path class="st5" d="M90.9,179.2l96.7-18.9-16.6-86.1-96.6,19.2,16.5,85.7h0ZM65.5,87.5l111.6-21.7,21.2,109.3-111.6,22s-21.2-109.6-21.2-109.6Z"/>
  <path id="_左下" class="st17" d="M17,166h54.7v44H29c-6.6,0-12-5.4-12-12v-32h0Z"/>
</svg>