<?xml version="1.0" encoding="UTF-8"?>
<svg xmlns="http://www.w3.org/2000/svg" width="256" height="256" version="1.1" xmlns:xlink="http://www.w3.org/1999/xlink" viewBox="0 0 256 256">
  <!-- Generator: Adobe Illustrator 30.0.0, SVG Export Plug-In . SVG Version: 2.1.1 Build 123)  -->
  <defs>
    <style>
      .st0 {
        fill-opacity: .3;
      }

      .st0, .st1, .st2, .st3 {
        fill-rule: evenodd;
      }

      .st4 {
        fill: url(#_未命名的渐变_8);
      }

      .st5 {
        fill: url(#_未命名的渐变_5);
      }

      .st6 {
        mask: url(#mask);
      }

      .st7 {
        fill: #ea3692;
      }

      .st8 {
        fill: url(#_未命名的渐变_11);
      }

      .st9 {
        fill: #da1a35;
      }

      .st1, .st10 {
        fill: #5091cd;
      }

      .st11 {
        fill: url(#_未命名的渐变_9);
      }

      .st12 {
        fill: #8d54a2;
      }

      .st2 {
        fill: url(#_未命名的渐变);
      }

      .st13 {
        isolation: isolate;
      }

      .st14 {
        fill: url(#_未命名的渐变_6);
      }

      .st15 {
        fill: url(#_未命名的渐变_7);
      }

      .st16 {
        fill: url(#_未命名的渐变_3);
      }

      .st17 {
        fill: url(#_未命名的渐变_13);
      }

      .st18 {
        mix-blend-mode: multiply;
      }

      .st19 {
        fill: url(#_未命名的渐变_12);
      }

      .st20 {
        display: none;
      }

      .st21 {
        fill: url(#_未命名的渐变_4);
      }

      .st22 {
        fill: url(#_未命名的渐变_14);
      }

      .st3 {
        fill: url(#_未命名的渐变_2);
      }

      .st23 {
        fill: url(#_未命名的渐变_10);
      }

      .st24 {
        fill: #f6861f;
      }

      .st25 {
        fill: #75c044;
      }
    </style>
    <linearGradient id="_未命名的渐变" data-name="未命名的渐变" x1="32.58" y1="237.55" x2="213.35" y2="56.41" gradientTransform="translate(0 256) scale(1 -1)" gradientUnits="userSpaceOnUse">
      <stop offset="0" stop-color="#05815d"/>
      <stop offset="1" stop-color="#0c575f"/>
    </linearGradient>
    <mask id="mask" x="17" y="34" width="224" height="138" maskUnits="userSpaceOnUse">
      <g id="mask0_1709_29772">
        <path class="st2" d="M104.43,42.38c-4.37-5.31-10.88-8.38-17.75-8.38H29c-6.63,0-12,5.37-12,12v114c0,6.63,5.37,12,12,12h200c6.63,0,12-5.37,12-12v-89.86c0-6.63-5.37-12-12-12h-111.6l-12.98-15.76Z"/>
      </g>
    </mask>
    <linearGradient id="_未命名的渐变_2" data-name="未命名的渐变 2" x1="17" y1="194" x2="241" y2="46" gradientTransform="translate(0 256) scale(1 -1)" gradientUnits="userSpaceOnUse">
      <stop offset="0" stop-color="#fff"/>
      <stop offset="1" stop-color="#c9e1f7"/>
    </linearGradient>
    <linearGradient id="_未命名的渐变_3" data-name="未命名的渐变 3" x1="90.39" y1="91.98" x2="175.38" y2="91.98" gradientTransform="translate(0 256) scale(1 -1)" gradientUnits="userSpaceOnUse">
      <stop offset="0" stop-color="#87d9ff"/>
      <stop offset="1" stop-color="#56b0fc"/>
    </linearGradient>
    <linearGradient id="_未命名的渐变_4" data-name="未命名的渐变 4" x1="64" y1="125.3" x2="103.09" y2="82.43" gradientTransform="translate(0 256) scale(1 -1)" gradientUnits="userSpaceOnUse">
      <stop offset="0" stop-color="#95dcf8"/>
      <stop offset="1" stop-color="#81d6ff"/>
    </linearGradient>
    <linearGradient id="_未命名的渐变_5" data-name="未命名的渐变 5" x1="78.38" y1="141.98" x2="101.8" y2="122.2" gradientTransform="translate(0 256) scale(1 -1)" gradientUnits="userSpaceOnUse">
      <stop offset="0" stop-color="#75d2fe"/>
      <stop offset="1" stop-color="#7cd3fe"/>
    </linearGradient>
    <linearGradient id="_未命名的渐变_6" data-name="未命名的渐变 6" x1="182.24" y1="125.97" x2="168.13" y2="73.99" gradientTransform="translate(0 256) scale(1 -1)" gradientUnits="userSpaceOnUse">
      <stop offset="0" stop-color="#5099f7"/>
      <stop offset="1" stop-color="#4dbaff"/>
    </linearGradient>
    <linearGradient id="_未命名的渐变_7" data-name="未命名的渐变 7" x1="140.35" y1="168" x2="140.35" y2="84.69" gradientTransform="translate(0 256) scale(1 -1)" gradientUnits="userSpaceOnUse">
      <stop offset="0" stop-color="#5caef8"/>
      <stop offset="1" stop-color="#60c7ff"/>
    </linearGradient>
    <linearGradient id="_未命名的渐变_8" data-name="未命名的渐变 8" x1="100.5" y1="129.48" x2="113.8" y2="96.6" gradientTransform="translate(0 256) scale(1 -1)" gradientUnits="userSpaceOnUse">
      <stop offset="0" stop-color="#38b7f5"/>
      <stop offset="1" stop-color="#60cbff"/>
    </linearGradient>
    <linearGradient id="_未命名的渐变_9" data-name="未命名的渐变 9" x1="107.87" y1="147.73" x2="107.87" y2="114.85" gradientTransform="translate(0 256) scale(1 -1)" gradientUnits="userSpaceOnUse">
      <stop offset=".25" stop-color="#24b4fd"/>
      <stop offset="1" stop-color="#5fcafe"/>
    </linearGradient>
    <linearGradient id="_未命名的渐变_10" data-name="未命名的渐变 10" x1="72.08" y1="128.78" x2="99.69" y2="115.28" gradientTransform="translate(0 256) scale(1 -1)" gradientUnits="userSpaceOnUse">
      <stop offset="0" stop-color="#68c2f5"/>
      <stop offset="1" stop-color="#7cd9f5"/>
    </linearGradient>
    <linearGradient id="_未命名的渐变_11" data-name="未命名的渐变 11" x1="185.69" y1="124.29" x2="150.18" y2="101" gradientTransform="translate(0 256) scale(1 -1)" gradientUnits="userSpaceOnUse">
      <stop offset="0" stop-color="#3991f2"/>
      <stop offset="1" stop-color="#4abdff"/>
    </linearGradient>
    <radialGradient id="_未命名的渐变_12" data-name="未命名的渐变 12" cx="62.29" cy="190.35" fx="62.29" fy="190.35" r="1" gradientTransform="translate(-7266.78 -2155.58) rotate(90) scale(37.33 -38.82)" gradientUnits="userSpaceOnUse">
      <stop offset=".47" stop-color="#6bd0fb"/>
      <stop offset="1" stop-color="#67cefe" stop-opacity="0"/>
    </radialGradient>
    <radialGradient id="_未命名的渐变_13" data-name="未命名的渐变 13" cx="62.29" cy="190.48" fx="62.29" fy="190.48" r="1" gradientTransform="translate(-7900.03 -2161.39) rotate(90) scale(37.33 -42.19)" gradientUnits="userSpaceOnUse">
      <stop offset=".47" stop-color="#46c0ff"/>
      <stop offset="1" stop-color="#46b1fb" stop-opacity="0"/>
    </radialGradient>
    <radialGradient id="_未命名的渐变_14" data-name="未命名的渐变 14" cx="62.29" cy="190.48" fx="62.29" fy="190.48" r="1" gradientTransform="translate(-7887.2 -2158.28) rotate(90) scale(37.33 -42.19)" gradientUnits="userSpaceOnUse">
      <stop offset=".47" stop-color="#46b1fb"/>
      <stop offset="1" stop-color="#46b1fb" stop-opacity="0"/>
    </radialGradient>
  </defs>
  <g class="st13">
    <g id="_图层_1" data-name="图层_1">
      <path class="st1" d="M104.43,42.38c-4.37-5.31-10.88-8.38-17.75-8.38H29c-6.63,0-12,5.37-12,12v114c0,6.63,5.37,12,12,12h200c6.63,0,12-5.37,12-12v-89.86c0-6.63-5.37-12-12-12h-111.6l-12.98-15.76Z"/>
      <g class="st6">
        <g class="st18">
          <path class="st0" d="M92.79,74c4.98,0,9.82-1.61,13.8-4.6l9.87-7.4h112.54c6.63,0,12,5.37,12,12v86c0,6.63-5.37,12-12,12H29c-6.63,0-12-5.37-12-12v-74c0-6.63,5.37-12,12-12h63.79Z"/>
        </g>
      </g>
      <path class="st3" d="M92.79,74c4.98,0,9.82-1.61,13.8-4.6l9.87-7.4h112.54c6.63,0,12,5.37,12,12v124c0,6.63-5.37,12-12,12H29c-6.63,0-12-5.37-12-12v-112c0-6.63,5.37-12,12-12h63.79Z"/>
      <g class="st20">
        <rect class="st16" x="83.84" y="144.04" width="91.54" height="39.97"/>
        <circle class="st21" cx="84.65" cy="153.35" r="30.65"/>
        <circle class="st5" cx="95.05" cy="128.1" r="22.01"/>
        <circle class="st14" cx="175.45" cy="155.04" r="28.96"/>
        <circle class="st15" cx="140.35" cy="129.65" r="41.65"/>
        <path class="st4" d="M114.07,161.98c-9.38-7.64-15.38-19.28-15.38-32.32,0-1.17.05-2.33.14-3.48,9.79,5.12,16.46,15.37,16.46,27.18,0,2.99-.43,5.89-1.23,8.63Z"/>
        <path class="st11" d="M98.69,129.29c0-1.05.06-2.09.14-3.11,6.19,3.24,11.14,8.53,13.94,14.97,2.69-3.65,4.28-8.16,4.28-13.04,0-8.73-5.09-16.28-12.46-19.83-3.69,6.15-5.84,13.34-5.9,21.02Z"/>
        <path class="st23" d="M73.27,124.88c3.52-1.41,7.36-2.18,11.38-2.18,2.5-.07,8.85.53,14.19,3.47-.1,1.15-.14,2.31-.14,3.48,0,6.8,1.63,13.22,4.52,18.89-2.53,1.01-5.28,1.57-8.17,1.57-12.15,0-22.01-9.85-22.01-22.01,0-1.09.08-2.17.23-3.22Z"/>
        <path class="st8" d="M150.66,170.02c18.02-4.59,31.34-20.92,31.34-40.37,0-.96-.03-1.91-.1-2.86-2.07-.47-4.23-.72-6.45-.72-16,0-28.96,12.97-28.96,28.96,0,5.48,1.52,10.61,4.17,14.98Z"/>
        <path class="st19" d="M158.28,184c1.88-4.39,2.93-9.2,2.93-14.24,0-20.62-17.38-37.33-38.82-37.33s-38.82,16.71-38.82,37.33c0,5.04,1.04,9.85,2.93,14.24h71.79Z"/>
        <path class="st17" d="M172.84,184c4.18-5.79,6.6-12.67,6.6-20.05,0-20.62-18.89-37.33-42.19-37.33s-42.19,16.72-42.19,37.33c0,7.38,2.42,14.26,6.6,20.05h71.2Z"/>
        <path class="st22" d="M187.68,184c2.93-5.09,4.59-10.84,4.59-16.95,0-20.62-18.89-37.33-42.19-37.33s-42.19,16.71-42.19,37.33c0,6.1,1.65,11.86,4.59,16.95h75.22Z"/>
      </g>
      <g id="cprd_x5F_color">
        <polygon class="st10" points="94.49 133.35 114.34 126.49 114.89 128.06 95.04 134.92 94.49 133.35"/>
        <polygon class="st10" points="144.09 108.02 142.21 126.94 140.55 126.78 142.42 107.85 144.09 108.02"/>
        <polygon class="st10" points="142.51 107.56 150.04 93.01 151.52 93.77 144.01 108.31 142.51 107.56"/>
        <polygon class="st10" points="111.92 141.09 121.54 152.74 120.24 153.79 110.63 142.15 111.92 141.09"/>
        <polygon class="st10" points="115.14 126.41 128.72 137.02 127.69 138.33 114.11 127.72 115.14 126.41"/>
        <rect class="st10" x="112.27" y="160.85" width="16.84" height="1.68" transform="translate(-43.94 278.33) rotate(-88.58)"/>
        <polygon class="st10" points="127.48 137.02 141.06 126.21 142.11 127.51 128.52 138.32 127.48 137.02"/>
        <polygon class="st10" points="128.75 137.3 136.48 152.9 134.98 153.63 127.25 138.04 128.75 137.3"/>
        <polygon class="st10" points="94.68 134.97 78.17 133.3 78.34 131.64 94.85 133.31 94.68 134.97"/>
        <polygon class="st10" points="81.09 154.77 96.56 148.95 97.15 150.51 81.68 156.33 81.09 154.77"/>
        <polygon class="st10" points="115.89 186.14 119.66 169.92 121.29 170.29 117.52 186.51 115.89 186.14"/>
        <polygon class="st10" points="136.96 169.91 140.93 185.7 139.31 186.11 135.34 170.31 136.96 169.91"/>
        <polygon class="st10" points="151.19 161.86 162.27 174.12 161.03 175.24 149.95 162.97 151.19 161.86"/>
        <polygon class="st10" points="159.85 148.32 175.52 153.94 174.96 155.5 159.27 149.89 159.85 148.32"/>
        <polygon class="st10" points="155.11 117.86 168.7 108.5 169.65 109.87 156.07 119.23 155.11 117.86"/>
        <polygon class="st10" points="150.12 163.11 135.29 153.76 136.18 152.36 151.02 161.71 150.12 163.11"/>
        <polygon class="st10" points="87.09 109.12 100.88 118.48 99.94 119.85 86.14 110.5 87.09 109.12"/>
        <polygon class="st10" points="99.84 118.55 111.76 107.75 112.89 108.97 100.98 119.78 99.84 118.55"/>
        <polygon class="st10" points="104.39 92.99 127.79 87.17 128.2 88.78 104.8 94.6 104.39 92.99"/>
        <polygon class="st10" points="169.96 108.89 178.52 131.34 176.96 131.94 168.4 109.48 169.96 108.89"/>
        <polygon class="st10" points="128.4 138.48 111.47 142.43 111.08 140.81 128.02 136.86 128.4 138.48"/>
        <rect class="st10" x="127.16" y="87.97" width="1.68" height="16.43"/>
        <path class="st10" d="M133.64,120.62c0,2.91-2.5,5.4-5.43,5.4-3.13,0-5.65-2.5-5.65-5.4,0-3.12,2.5-5.61,5.65-5.61,2.93,0,5.43,2.5,5.43,5.61"/>
        <path class="st10" d="M131.97,104.4c0,2.08-1.68,3.75-3.77,3.75s-3.97-1.67-3.97-3.75,1.88-3.74,3.97-3.74,3.77,1.67,3.77,3.74"/>
        <path class="st9" d="M147.02,107.93c0,2.08-1.68,3.95-3.77,3.95s-3.76-1.87-3.76-3.95,1.68-3.74,3.76-3.74,3.77,1.67,3.77,3.74"/>
        <path class="st10" d="M159.35,118.55c0,2.08-1.68,3.74-3.76,3.74s-3.77-1.67-3.77-3.74,1.68-3.74,3.77-3.74,3.76,1.67,3.76,3.74"/>
        <path class="st10" d="M165.2,133.72c0,2.08-1.68,3.75-3.76,3.75s-3.76-1.67-3.76-3.75,1.68-3.74,3.76-3.74,3.76,1.67,3.76,3.74"/>
        <path class="st10" d="M163.33,149.11c0,2.08-1.68,3.74-3.77,3.74s-3.76-1.67-3.76-3.74,1.68-3.74,3.76-3.74,3.77,1.67,3.77,3.74"/>
        <path class="st10" d="M154.34,162.41c0,2.08-1.68,3.74-3.77,3.74s-3.76-1.67-3.76-3.74,1.68-3.74,3.76-3.74,3.77,1.67,3.77,3.74"/>
        <path class="st10" d="M139.92,170.1c0,2.08-1.68,3.74-3.77,3.74s-3.77-1.67-3.77-3.74,1.68-3.74,3.77-3.74,3.77,1.67,3.77,3.74"/>
        <path class="st12" d="M124.45,170.1c0,2.08-1.88,3.95-3.97,3.95s-3.77-1.87-3.77-3.95,1.68-3.74,3.77-3.74,3.97,1.67,3.97,3.74"/>
        <path class="st10" d="M109.81,162.83c0,2.08-1.68,3.74-3.77,3.74s-3.77-1.67-3.77-3.74,1.68-3.75,3.77-3.75,3.77,1.67,3.77,3.75"/>
        <path class="st10" d="M100.62,149.73c0,2.08-1.68,3.74-3.77,3.74s-3.77-1.67-3.77-3.74,1.68-3.74,3.77-3.74,3.77,1.67,3.77,3.74"/>
        <path class="st10" d="M98.53,134.34c0,2.08-1.68,3.74-3.77,3.74s-3.77-1.67-3.77-3.74,1.68-3.95,3.77-3.95,3.77,1.87,3.77,3.95"/>
        <path class="st10" d="M104.18,119.17c0,2.08-1.68,3.74-3.77,3.74s-3.77-1.67-3.77-3.74,1.68-3.74,3.77-3.74,3.77,1.67,3.77,3.74"/>
        <path class="st10" d="M116.08,108.35c0,2.08-1.68,3.75-3.77,3.75s-3.77-1.67-3.77-3.75,1.68-3.74,3.77-3.74,3.77,1.67,3.77,3.74"/>
        <path class="st10" d="M111.7,93.8c0,3.95-3.13,7.07-7.11,7.07s-7.11-3.13-7.11-7.07,3.13-7.07,7.11-7.07,7.11,3.12,7.11,7.07"/>
        <path class="st10" d="M135.11,87.98c0,3.95-3.13,7.07-6.9,7.07-3.97,0-7.11-3.12-7.11-7.07s3.13-7.07,7.11-7.07c3.77,0,6.9,3.13,6.9,7.07"/>
        <path class="st10" d="M157.89,93.39c0,3.95-3.13,7.07-7.11,7.07s-7.11-3.12-7.11-7.07,3.13-7.07,7.11-7.07,7.11,3.12,7.11,7.07"/>
        <path class="st10" d="M176.28,109.19c0,3.95-3.34,7.07-7.11,7.07-3.97,0-7.11-3.12-7.11-7.07s3.13-7.07,7.11-7.07c3.77,0,7.11,3.13,7.11,7.07"/>
        <path class="st10" d="M184.85,131.64c0,3.95-3.14,7.07-7.11,7.07s-7.11-3.12-7.11-7.07,3.13-7.07,7.11-7.07,7.11,3.12,7.11,7.07"/>
        <path class="st10" d="M182.13,154.72c0,3.95-3.13,7.07-6.89,7.07-3.97,0-7.11-3.12-7.11-7.07s3.13-7.07,7.11-7.07c3.76,0,6.89,3.12,6.89,7.07"/>
        <path class="st24" d="M168.76,174.68c0,3.95-3.34,7.07-7.11,7.07-3.97,0-7.11-3.12-7.11-7.07s3.14-7.07,7.11-7.07c3.76,0,7.11,3.12,7.11,7.07"/>
        <path class="st10" d="M147.23,186.12c0,3.74-3.13,7.07-7.11,7.07-3.77,0-6.9-3.32-6.9-7.07,0-3.95,3.13-7.07,6.9-7.07,3.97,0,7.11,3.12,7.11,7.07"/>
        <path class="st10" d="M124.03,186.33c0,3.75-3.34,7.07-7.11,7.07-3.97,0-7.11-3.32-7.11-7.07,0-3.95,3.13-7.07,7.11-7.07,3.77,0,7.11,3.12,7.11,7.07"/>
        <path class="st10" d="M102.29,175.3c0,3.95-3.13,7.07-7.11,7.07-3.77,0-6.9-3.12-6.9-7.07s3.13-7.07,6.9-7.07c3.97,0,7.11,3.12,7.11,7.07"/>
        <path class="st10" d="M88.49,155.56c0,3.95-3.13,7.07-7.11,7.07s-7.11-3.12-7.11-7.07,3.13-7.07,7.11-7.07,7.11,3.12,7.11,7.07"/>
        <path class="st7" d="M85.36,132.47c0,3.95-3.13,7.07-7.11,7.07-3.77,0-7.11-3.12-7.11-7.07s3.34-7.07,7.11-7.07c3.97,0,7.11,3.12,7.11,7.07"/>
        <path class="st10" d="M93.72,109.81c0,3.95-3.13,7.07-7.11,7.07s-7.11-3.12-7.11-7.07c0-3.75,3.13-7.07,7.11-7.07s7.11,3.32,7.11,7.07"/>
        <path class="st10" d="M131.34,137.67c0,1.87-1.46,3.12-3.13,3.12-1.88,0-3.34-1.25-3.34-3.12,0-1.67,1.46-3.12,3.34-3.12,1.68,0,3.13,1.46,3.13,3.12"/>
        <path class="st10" d="M147.02,126.86c0,3.12-2.51,5.61-5.44,5.61-3.13,0-5.65-2.5-5.65-5.61,0-2.91,2.5-5.4,5.65-5.4,2.93,0,5.44,2.5,5.44,5.4"/>
        <path class="st10" d="M150.57,141.21c0,3.12-2.5,5.61-5.65,5.61-2.92,0-5.43-2.5-5.43-5.61,0-2.91,2.51-5.4,5.43-5.4,3.14,0,5.65,2.5,5.65,5.4"/>
        <path class="st10" d="M141.17,153.06c0,3.12-2.5,5.61-5.43,5.61-3.13,0-5.65-2.5-5.65-5.61,0-2.91,2.5-5.4,5.65-5.4,2.93,0,5.43,2.5,5.43,5.4"/>
        <path class="st10" d="M126.32,153.27c0,3.12-2.5,5.4-5.43,5.4-3.13,0-5.65-2.29-5.65-5.4s2.5-5.4,5.65-5.4c2.93,0,5.43,2.29,5.43,5.4"/>
        <path class="st10" d="M116.92,141.62c0,2.91-2.5,5.4-5.65,5.4-2.93,0-5.43-2.5-5.43-5.4,0-3.12,2.5-5.61,5.43-5.61,3.13,0,5.65,2.5,5.65,5.61"/>
        <path class="st25" d="M120.06,127.27c0,2.91-2.5,5.4-5.43,5.4-3.13,0-5.65-2.5-5.65-5.4,0-3.12,2.5-5.61,5.65-5.61,2.93,0,5.43,2.5,5.43,5.61"/>
      </g>
    </g>
  </g>
</svg>