<?xml version="1.0" encoding="UTF-8"?>
<svg xmlns="http://www.w3.org/2000/svg" width="256" height="256" version="1.1" xmlns:xlink="http://www.w3.org/1999/xlink" viewBox="0 0 256 256">
  <!-- Generator: Adobe Illustrator 30.0.0, SVG Export Plug-In . SVG Version: 2.1.1 Build 123)  -->
  <defs>
    <style>
      .st0 {
        fill-opacity: .3;
      }

      .st0, .st1, .st2, .st3 {
        fill-rule: evenodd;
      }

      .st1 {
        fill: url(#_未命名的渐变_10);
      }

      .st2 {
        fill: url(#_未命名的渐变_19);
      }

      .st4, .st5 {
        fill: #fff;
      }

      .st6 {
        mask: url(#mask);
      }

      .st7 {
        fill: none;
      }

      .st5 {
        stroke: #5490cc;
        stroke-width: 2px;
      }

      .st3 {
        fill: url(#_未命名的渐变);
      }

      .st8 {
        isolation: isolate;
      }

      .st9 {
        mix-blend-mode: multiply;
      }
    </style>
    <linearGradient id="_未命名的渐变_10" data-name="未命名的渐变 10" x1="129" y1="34" x2="129" y2="172" gradientUnits="userSpaceOnUse">
      <stop offset="0" stop-color="#5091cd"/>
      <stop offset="1" stop-color="#000"/>
    </linearGradient>
    <linearGradient id="_未命名的渐变" data-name="未命名的渐变" x1="32.58" y1="237.55" x2="213.35" y2="56.41" gradientTransform="translate(0 256) scale(1 -1)" gradientUnits="userSpaceOnUse">
      <stop offset="0" stop-color="#05815d"/>
      <stop offset="1" stop-color="#0c575f"/>
    </linearGradient>
    <mask id="mask" x="17" y="34" width="224" height="138" maskUnits="userSpaceOnUse">
      <g id="mask0_2031_33816">
        <path class="st3" d="M104.43,42.38c-4.37-5.31-10.88-8.38-17.75-8.38H29c-6.63,0-12,5.37-12,12v114c0,6.63,5.37,12,12,12h200c6.63,0,12-5.37,12-12v-89.86c0-6.63-5.37-12-12-12h-111.6l-12.98-15.76Z"/>
      </g>
    </mask>
    <linearGradient id="_未命名的渐变_19" data-name="未命名的渐变 19" x1="17" y1="194" x2="241" y2="46" gradientTransform="translate(0 256) scale(1 -1)" gradientUnits="userSpaceOnUse">
      <stop offset="0" stop-color="#5091cd"/>
      <stop offset="1" stop-color="#5091cd"/>
    </linearGradient>
  </defs>
  <g class="st8">
    <g id="_图层_1" data-name="图层_1">
      <path class="st1" d="M104.43,42.38c-4.37-5.31-10.88-8.38-17.75-8.38H29c-6.63,0-12,5.37-12,12v114c0,6.63,5.37,12,12,12h200c6.63,0,12-5.37,12-12v-89.86c0-6.63-5.37-12-12-12h-111.6l-12.98-15.76Z"/>
      <g class="st6">
        <g class="st9">
          <path class="st0" d="M92.79,74c4.98,0,9.82-1.61,13.8-4.6l9.87-7.4h112.54c6.63,0,12,5.37,12,12v86c0,6.63-5.37,12-12,12H29c-6.63,0-12-5.37-12-12v-74c0-6.63,5.37-12,12-12h63.79Z"/>
        </g>
      </g>
      <path class="st2" d="M92.79,74c4.98,0,9.82-1.61,13.8-4.6l9.87-7.4h112.54c6.63,0,12,5.37,12,12v124c0,6.63-5.37,12-12,12H29c-6.63,0-12-5.37-12-12v-112c0-6.63,5.37-12,12-12h63.79Z"/>
      <g id="CPRD">
        <g id="g8">
          <polyline id="polyline4" class="st4" points="109.32 131.18 114.15 129.44 114.22 129.44"/>
          <path id="path6" class="st4" d="M114.54,130.15l-.4.16-4.43,1.58c-.16-.24-.24-.47-.32-.71-.08-.24-.16-.47-.24-.79l4.9-1.74.24.71h0l.24.79Z"/>
        </g>
        <g id="g14">
          <polyline id="polyline10" class="st4" points="141.42 111.18 141.42 111.18 141.11 114.81"/>
          <path id="path12" class="st4" d="M142.21,111.26v.24l-.32,3.24h-.79c-.24,0-.55-.08-.79-.16l.32-3.48.79.08h0l.79.08Z"/>
        </g>
        <g id="g20">
          <line id="line16" class="st7" x1="143.08" y1="108.01" x2="141.42" y2="111.18"/>
          <path id="path18" class="st4" d="M143.72,108.49l-1.5,3v.08l-.71-.32h0l-.71-.32,1.58-3.08c.24.08.47.16.71.32.24,0,.47.16.63.32h0Z"/>
        </g>
        <g id="g26">
          <polyline id="polyline22" class="st4" points="114.22 129.44 114.22 129.44 114.22 129.44 118.34 132.6"/>
          <path id="path24" class="st4" d="M118.81,131.97c-.16.24-.24.47-.47.63-.16.24-.32.4-.55.63l-3.72-2.93-.4-.32.47-.55.08-.08h0l.47-.63,4.11,3.24Z"/>
        </g>
        <g id="g32">
          <polyline id="polyline28" class="st4" points="120 166.76 119.92 170.32 119.92 170.32"/>
          <path id="path30" class="st4" d="M120.79,166.84l-.08,3.48h-1.58l.08-3.48c.24-.08.47-.08.79-.08h0c.24,0,.47,0,.79.08Z"/>
        </g>
        <path id="path34" class="st5" d="M127.19,139.01"/>
        <path id="path36" class="st5" d="M127.19,139.56"/>
        <path id="path38" class="st5" d="M143.08,143.36"/>
        <path id="path40" class="st5" d="M110.98,142.72"/>
        <g id="g46">
          <line id="line42" class="st7" x1="86.71" y1="135.21" x2="79.99" y2="134.5"/>
          <path id="path44" class="st4" d="M86.71,134.42v.79c0,.24-.08.55-.16.79l-6.64-.71.08-.79.08-.79,6.64.71Z"/>
        </g>
        <g id="g50">
          <line id="line48" class="st7" x1="97.46" y1="150.79" x2="97.46" y2="150.79"/>
        </g>
        <g id="g56">
          <line id="line52" class="st7" x1="119.92" y1="170.32" x2="119.13" y2="173.8"/>
          <path id="path54" class="st4" d="M120.71,170.55l-.79,3.4c-.24,0-.55,0-.79-.08s-.47-.16-.71-.24l.71-3.24.08-.16.71.16h0l.79.16Z"/>
        </g>
        <g id="g62">
          <line id="line58" class="st7" x1="158.74" y1="174.59" x2="154.23" y2="169.61"/>
          <path id="path60" class="st4" d="M159.29,174.03l-.55.55-.63.55-4.43-4.9c.16-.16.32-.4.55-.55.16-.16.4-.32.63-.47l4.43,4.82Z"/>
        </g>
        <path id="path64" class="st5" d="M148.54,97.1"/>
        <path id="path66" class="st5" d="M104.9,97.26"/>
        <path id="path68" class="st5" d="M100.94,121.61"/>
        <path id="path70" class="st5" d="M120.31,154.43"/>
        <path id="path72" class="st5" d="M106.56,163.04"/>
        <path id="path74" class="st4" d="M132.25,123.19c0,2.85-2.29,5.22-5.22,5.22s-5.22-2.29-5.22-5.22,2.37-5.22,5.22-5.22,5.22,2.29,5.22,5.22Z"/>
        <path id="path76" class="st4" d="M145.06,111.26c0,1.82-1.34,3.32-3.16,3.56h-.79c-.24,0-.55-.08-.79-.16h0c-1.42-.47-2.45-1.82-2.45-3.4,0-1.98,1.58-3.56,3.56-3.56.32,0,.63.08.87.08.24.08.47.16.71.32.24.16.47.24.63.47.87.55,1.42,1.58,1.42,2.69Z"/>
        <path id="path78" class="st4" d="M180.72,133.71c0,3.72-3,6.72-6.72,6.72s-6.72-3-6.72-6.72c0-2.61,1.42-4.82,3.56-5.93l-3.4-8.93c-.55.16-1.11.24-1.66.24-1.98,0-3.8-.87-5.06-2.29l-4.51,3.16h0c.16.4.32.87.32,1.42,0,1.98-1.58,3.56-3.56,3.56s-3.56-1.58-3.56-3.56,1.58-3.56,3.56-3.56c.87,0,1.74.32,2.37.87l4.51-3.16c-.47-.95-.79-1.98-.79-3.16,0-3.72,3-6.72,6.72-6.72s6.72,3,6.72,6.72c0,2.61-1.42,4.82-3.64,5.93l3.4,8.93c.55-.16,1.11-.24,1.66-.24,3.8,0,6.8,3,6.8,6.72h0Z"/>
        <path id="path80" class="st4" d="M162.06,135.61c0,1.98-1.58,3.56-3.56,3.56s-3.56-1.58-3.56-3.56,1.58-3.56,3.56-3.56c1.98-.08,3.56,1.58,3.56,3.56Z"/>
        <path id="path82" class="st4" d="M178.27,155.61c0,3.72-3,6.72-6.72,6.72s-6.72-3-6.72-6.72c0-.55.08-1.03.16-1.5l-5.14-1.9c-.63.95-1.74,1.66-3,1.66-1.98,0-3.56-1.58-3.56-3.56s1.58-3.56,3.56-3.56,3.56,1.58,3.56,3.56v.47l5.14,1.9c1.11-2.21,3.4-3.72,6.01-3.72,3.72,0,6.72,3,6.72,6.64h0Z"/>
        <path id="path84" class="st4" d="M123.48,170.32c0,1.98-1.58,3.56-3.56,3.56h0c-.24,0-.55,0-.79-.08s-.47-.16-.71-.24c-1.19-.55-2.06-1.82-2.06-3.24,0-1.74,1.19-3.16,2.85-3.48.24-.08.47-.08.79-.08h0c.32,0,.55,0,.79.08,1.58.4,2.69,1.82,2.69,3.48h0Z"/>
        <path id="path86" class="st4" d="M109.88,163.36c0,1.98-1.58,3.56-3.56,3.56s-3.56-1.58-3.56-3.56,1.58-3.56,3.56-3.56,3.56,1.58,3.56,3.56Z"/>
        <path id="path88" class="st4" d="M101.02,150.79c0,1.98-1.58,3.56-3.56,3.56-1.27,0-2.29-.63-3-1.58l-5.14,1.98c.16.55.24,1.11.24,1.66,0,3.72-3,6.72-6.72,6.72s-6.72-3-6.72-6.72,3-6.72,6.72-6.72c2.61,0,4.82,1.42,5.93,3.56l5.14-1.98c0-.16-.08-.32-.08-.47,0-1.98,1.58-3.56,3.56-3.56s3.64,1.58,3.64,3.56Z"/>
        <path id="path90" class="st4" d="M99.12,135.69v.47c0,1.98-1.58,3.56-3.56,3.56-1.82,0-3.32-1.42-3.56-3.16l-5.46-.55c.08-.24.08-.55.16-.79v-.79l5.46.55c.47-1.42,1.82-2.45,3.4-2.45,1.27,0,2.37.63,3,1.66l10.59-3.8c.08.24.08.55.24.79.08.24.16.47.32.71l-10.59,3.8Z"/>
        <path id="path92" class="st4" d="M115.81,111.49c0,1.98-1.58,3.56-3.56,3.56-.79,0-1.5-.24-2.06-.63l-6.25,5.61c.32.47.47,1.11.47,1.74,0,1.98-1.58,3.56-3.56,3.56s-3.56-1.58-3.56-3.56c0-.47.08-.87.24-1.27l-4.59-3.08c-1.27,1.42-3.08,2.29-5.06,2.29-3.72,0-6.72-3-6.72-6.72s3-6.72,6.72-6.72,6.72,3,6.72,6.72c0,1.11-.24,2.13-.71,3.08l4.59,3.08h0c.63-.63,1.5-.95,2.45-.95.79,0,1.5.24,2.06.63l6.17-5.61c-.32-.55-.47-1.11-.47-1.74,0-1.98,1.58-3.56,3.56-3.56s3.56,1.58,3.56,3.56h0Z"/>
        <path id="path94" class="st4" d="M127.82,98.84v5.46c1.66.32,2.85,1.74,2.85,3.48,0,1.98-1.58,3.56-3.56,3.56s-3.56-1.58-3.56-3.56c0-1.66,1.19-3.08,2.77-3.48v-5.53c-2.53-.32-4.59-2.06-5.46-4.35l-9.25,2.29c.08.32.08.55.08.87,0,3.72-3,6.72-6.72,6.72s-6.72-3-6.72-6.72,3-6.72,6.72-6.72c2.85,0,5.3,1.74,6.25,4.27l9.33-2.29c0-.24-.08-.55-.08-.79,0-3.72,3-6.72,6.72-6.72s6.72,3,6.72,6.72c-.16,3.56-2.77,6.4-6.09,6.8h0Z"/>
        <path id="path96" class="st4" d="M155.26,97.26c0,3.72-3,6.72-6.72,6.72-.79,0-1.58-.16-2.29-.4l-2.53,4.9c-.24-.16-.4-.32-.63-.47s-.47-.24-.71-.32l2.45-4.9c-1.82-1.19-3-3.24-3-5.61,0-3.72,3-6.72,6.72-6.72s6.72,3.08,6.72,6.8h0Z"/>
        <path id="path98" class="st4" d="M165.46,174.59c0,3.72-3,6.72-6.72,6.72s-6.72-3-6.72-6.72c0-1.66.63-3.24,1.66-4.43.16-.16.32-.4.55-.55.16-.16.4-.32.63-.47,1.11-.79,2.45-1.19,3.87-1.19,3.72,0,6.72,3,6.72,6.64h0Z"/>
        <path id="path100" class="st4" d="M145.22,185.34c0,3.72-3,6.72-6.72,6.72s-6.72-3-6.72-6.72c0-2.85,1.82-5.3,4.35-6.25l-1.34-5.3h-.08c-1.98,0-3.56-1.58-3.56-3.56s1.58-3.56,3.56-3.56,3.56,1.58,3.56,3.56c0,1.42-.79,2.61-1.98,3.16l1.34,5.3c.32-.08.55-.08.87-.08,3.72.08,6.72,3.08,6.72,6.72Z"/>
        <path id="path102" class="st4" d="M123.16,185.58c0,3.72-3,6.72-6.72,6.72s-6.72-3-6.72-6.72,3-6.72,6.72-6.72h.71l1.27-5.38c.24.08.47.24.71.24.24.08.55.08.79.08l-1.27,5.38c2.61,1.03,4.51,3.48,4.51,6.4h0Z"/>
        <path id="path104" class="st4" d="M102.68,175.14c0,3.72-3,6.72-6.72,6.72s-6.72-3-6.72-6.72,3-6.72,6.72-6.72c3.8.08,6.72,3.08,6.72,6.72Z"/>
        <path id="path106" class="st4" d="M86.71,134.42v.79c0,.24-.08.55-.16.79-.63,3-3.32,5.22-6.56,5.22-3.72,0-6.72-3-6.72-6.72s3-6.72,6.72-6.72,6.64,3,6.72,6.64Z"/>
        <path id="path108" class="st4" d="M148.22,142.88c0,2.85-2.29,5.22-5.22,5.22s-5.22-2.37-5.22-5.22,2.37-5.22,5.22-5.22,5.22,2.29,5.22,5.22Z"/>
        <path id="path110" class="st4" d="M154.86,169.13c-.24.16-.4.32-.63.47l-.55.55-3.72-4.03c-.47.32-1.11.47-1.74.47-1.98,0-3.56-1.58-3.56-3.56,0-.4.08-.87.24-1.19l-6.8-4.27c-.95,1.11-2.37,1.82-3.95,1.82-2.85,0-5.22-2.29-5.22-5.22,0-1.74.87-3.32,2.21-4.27h0l-3.64-7.43c-.16,0-.32.08-.47.08-1.11,0-2.13-.63-2.61-1.58l-8.06,1.82v.4c0,1.34-.47,2.61-1.34,3.48l2.53,3.08c.79-.47,1.66-.71,2.61-.71,2.85,0,5.22,2.29,5.22,5.22,0,2.69-1.98,4.82-4.51,5.14l-.16,7.43c-.24-.08-.47-.08-.79-.08h0c-.24,0-.47,0-.79.08l.16-7.43c-2.45-.4-4.35-2.53-4.35-5.14,0-1.34.47-2.61,1.34-3.48l-2.45-3.08c-.79.47-1.66.71-2.61.71-2.85,0-5.22-2.37-5.22-5.22s2.37-5.22,5.22-5.22c2.21,0,4.03,1.34,4.82,3.24l8.06-1.82c0-.32.08-.71.24-1.03l-6.48-5.06c.16-.16.4-.4.55-.63s.32-.4.47-.63l6.48,5.06c.47-.4,1.11-.55,1.74-.55s1.27.24,1.74.55l6.4-5.22c-.47-.79-.71-1.66-.71-2.61,0-2.77,2.13-5.06,4.9-5.22l.87-9.41h0c.24.08.47.16.79.16h.79l-.87,9.41c2.29.55,3.95,2.61,3.95,5.06,0,2.85-2.29,5.22-5.22,5.22-1.34,0-2.61-.47-3.48-1.34l-6.4,5.22c.16.4.24.79.24,1.19,0,.87-.4,1.74-1.03,2.29l3.64,7.43c.47-.16,1.03-.24,1.58-.24,2.85,0,5.22,2.37,5.22,5.22,0,.71-.16,1.42-.47,2.06l6.72,4.27c.63-.63,1.5-1.03,2.53-1.03,1.98,0,3.56,1.58,3.56,3.56,0,.79-.24,1.5-.63,2.06l3.64,3.95Z"/>
        <path id="path112" class="st4" d="M119.44,129.44c0,.95-.24,1.82-.63,2.53-.16.24-.24.47-.47.63-.16.24-.32.4-.55.63-.95.87-2.21,1.42-3.56,1.42-1.98,0-3.72-1.11-4.59-2.77-.16-.24-.24-.47-.32-.71-.08-.24-.16-.47-.24-.79s-.08-.63-.08-.95c0-2.85,2.29-5.22,5.22-5.22s5.22,2.37,5.22,5.22h0Z"/>
      </g>
    </g>
  </g>
</svg>