<?xml version="1.0" encoding="UTF-8"?>
<svg id="_图层_1" data-name="图层_1" xmlns="http://www.w3.org/2000/svg" width="256" height="256" version="1.1" xmlns:xlink="http://www.w3.org/1999/xlink" viewBox="0 0 256 256">
  <!-- Generator: Adobe Illustrator 30.0.0, SVG Export Plug-In . SVG Version: 2.1.1 Build 123)  -->
  <defs>
    <style>
      .st0 {
        fill-opacity: .3;
      }

      .st0, .st1, .st2 {
        fill-rule: evenodd;
      }

      .st3 {
        fill: url(#_未命名的渐变_8);
      }

      .st4 {
        fill: url(#_未命名的渐变_5);
      }

      .st5 {
        fill: #ea3692;
      }

      .st6 {
        fill: none;
      }

      .st7 {
        fill: #da1a35;
      }

      .st8 {
        fill: url(#_未命名的渐变_9);
      }

      .st9 {
        fill: #8d54a2;
      }

      .st10 {
        isolation: isolate;
      }

      .st1 {
        fill: url(#_未命名的渐变_3);
      }

      .st11 {
        fill: url(#_未命名的渐变_6);
      }

      .st12 {
        fill: url(#_未命名的渐变_7);
      }

      .st13 {
        fill: #5091cd;
      }

      .st14 {
        mix-blend-mode: multiply;
      }

      .st15 {
        display: none;
      }

      .st16 {
        fill: url(#_未命名的渐变_4);
      }

      .st2 {
        fill: url(#_未命名的渐变_63);
      }

      .st17 {
        clip-path: url(#clippath);
      }

      .st18 {
        fill: #f6861f;
      }

      .st19 {
        fill: #75c044;
      }
    </style>
    <linearGradient id="_未命名的渐变_63" data-name="未命名的渐变 63" x1="129" y1="42" x2="129" y2="-96" gradientTransform="translate(0 130)" gradientUnits="userSpaceOnUse">
      <stop offset="0" stop-color="#12aef5"/>
      <stop offset="1" stop-color="#5091cd"/>
    </linearGradient>
    <linearGradient id="_未命名的渐变_3" data-name="未命名的渐变 3" x1="17" y1="-68" x2="241" y2="80" gradientTransform="translate(0 130)" gradientUnits="userSpaceOnUse">
      <stop offset="0" stop-color="#feffff"/>
      <stop offset="1" stop-color="#b5d3ef"/>
    </linearGradient>
    <clipPath id="clippath">
      <rect class="st6" x="83" y="85" width="92.7" height="102"/>
    </clipPath>
    <radialGradient id="_未命名的渐变_4" data-name="未命名的渐变 4" cx="-489.89" cy="-324.89" fx="-489.89" fy="-324.89" r="1" gradientTransform="translate(-54223.19 20211.35) rotate(110.5) scale(77.3 134.9)" gradientUnits="userSpaceOnUse">
      <stop offset="0" stop-color="#ae7fe2"/>
      <stop offset="1" stop-color="#0078d4"/>
    </radialGradient>
    <linearGradient id="_未命名的渐变_5" data-name="未命名的渐变 5" x1="128.84" y1="29.74" x2="117.84" y2="10.64" gradientTransform="translate(0 130)" gradientUnits="userSpaceOnUse">
      <stop offset="0" stop-color="#114a8b"/>
      <stop offset="1" stop-color="#0078d4" stop-opacity="0"/>
    </linearGradient>
    <radialGradient id="_未命名的渐变_6" data-name="未命名的渐变 6" cx="-483.65" cy="-315.53" fx="-483.65" fy="-315.53" r="1" gradientTransform="translate(36719.05 9954.29) rotate(-8.4) scale(72 47.5)" gradientUnits="userSpaceOnUse">
      <stop offset=".1" stop-color="#d59dff"/>
      <stop offset="1" stop-color="#5e438f"/>
    </radialGradient>
    <linearGradient id="_未命名的渐变_7" data-name="未命名的渐变 7" x1="155.96" y1="1.27" x2="144.16" y2="18.27" gradientTransform="translate(0 130)" gradientUnits="userSpaceOnUse">
      <stop offset="0" stop-color="#493474"/>
      <stop offset="1" stop-color="#8c66ba" stop-opacity="0"/>
    </linearGradient>
    <radialGradient id="_未命名的渐变_8" data-name="未命名的渐变 8" cx="-499.05" cy="-321.62" fx="-499.05" fy="-321.62" r="1" gradientTransform="translate(-20080.46 -37261.67) rotate(-165.8) scale(57.8 97.3)" gradientUnits="userSpaceOnUse">
      <stop offset="0" stop-color="#50e6ff"/>
      <stop offset="1" stop-color="#436dcd"/>
    </radialGradient>
    <linearGradient id="_未命名的渐变_9" data-name="未命名的渐变 9" x1="113.1" y1="-11.35" x2="130.5" y2="-11.35" gradientTransform="translate(0 130)" gradientUnits="userSpaceOnUse">
      <stop offset="0" stop-color="#2d3f80"/>
      <stop offset="1" stop-color="#436dcd" stop-opacity="0"/>
    </linearGradient>
  </defs>
  <g class="st10">
    <g id="_图层_11" data-name="_图层_1">
      <path class="st2" d="M104.4,42.4c-4.4-5.3-10.9-8.4-17.8-8.4H29c-6.6,0-12,5.4-12,12v114c0,6.6,5.4,12,12,12h200c6.6,0,12-5.4,12-12v-89.9c0-6.6-5.4-12-12-12h-111.6l-13-15.8v.1Z"/>
      <g class="st14">
        <path class="st0" d="M92.8,74c5,0,9.8-1.6,13.8-4.6l9.9-7.4h112.5c6.6,0,12,5.4,12,12v86c0,6.6-5.4,12-12,12H29c-6.6,0-12-5.4-12-12v-74c0-6.6,5.4-12,12-12h63.8Z"/>
      </g>
      <path class="st1" d="M92.8,74c5,0,9.8-1.6,13.8-4.6l9.9-7.4h112.5c6.6,0,12,5.4,12,12v124c0,6.6-5.4,12-12,12H29c-6.6,0-12-5.4-12-12v-112c0-6.6,5.4-12,12-12h63.8Z"/>
      <g class="st15">
        <g class="st17">
          <g>
            <path class="st16" d="M120.3,87.4l-.5.3c-.8.5-1.6,1.1-2.3,1.7l1.5-1.1h12.8l2.3,17.6-11.6,11.6-11.6,8.1v9.3c0,6.5,3.4,12.5,8.9,15.9l12.2,7.4-25.8,15h-5l-9.3-5.6c-5.6-3.4-8.9-9.4-8.9-15.9v-31.2c0-6.5,3.4-12.5,8.9-15.9l27.8-16.8c.2-.1.3-.2.5-.3l.1-.1Z"/>
            <path class="st4" d="M120.3,87.4l-.5.3c-.8.5-1.6,1.1-2.3,1.7l1.5-1.1h12.8l2.3,17.6-11.6,11.6-11.6,8.1v9.3c0,6.5,3.4,12.5,8.9,15.9l12.2,7.4-25.8,15h-5l-9.3-5.6c-5.6-3.4-8.9-9.4-8.9-15.9v-31.2c0-6.5,3.4-12.5,8.9-15.9l27.8-16.8c.2-.1.3-.2.5-.3l.1-.1Z"/>
            <path class="st11" d="M147.9,124.4v10.4c0,6.5-3.4,12.5-8.9,15.9l-27.8,16.8c-5.7,3.4-12.8,3.6-18.6.4l27.2,16.4c5.9,3.6,13.3,3.6,19.2,0l27.8-16.8c5.6-3.4,8.9-9.4,8.9-15.9v-7.5l-2.3-3.5s-25.5-16.2-25.5-16.2Z"/>
            <path class="st12" d="M147.9,124.4v10.4c0,6.5-3.4,12.5-8.9,15.9l-27.8,16.8c-5.7,3.4-12.8,3.6-18.6.4l27.2,16.4c5.9,3.6,13.3,3.6,19.2,0l27.8-16.8c5.6-3.4,8.9-9.4,8.9-15.9v-7.5l-2.3-3.5s-25.5-16.2-25.5-16.2Z"/>
            <path class="st3" d="M166.8,104.5l-27.8-16.8c-5.7-3.5-12.8-3.6-18.6-.3l-.6.3c-5.6,3.4-8.9,9.4-8.9,15.9v22l8.9-5.4c5.9-3.6,13.3-3.6,19.2,0l27.8,16.8c5.4,3.3,8.7,9,8.9,15.3v-31.8c0-6.5-3.4-12.5-8.9-15.9v-.1Z"/>
            <path class="st8" d="M166.8,104.5l-27.8-16.8c-5.7-3.5-12.8-3.6-18.6-.3l-.6.3c-5.6,3.4-8.9,9.4-8.9,15.9v22l8.9-5.4c5.9-3.6,13.3-3.6,19.2,0l27.8,16.8c5.4,3.3,8.7,9,8.9,15.3v-31.8c0-6.5-3.4-12.5-8.9-15.9v-.1Z"/>
          </g>
        </g>
      </g>
    </g>
  </g>
  <g id="cprd_x5F_color">
    <polygon class="st13" points="96.75 130.8 116.6 123.94 117.15 125.51 97.3 132.37 96.75 130.8"/>
    <polygon class="st13" points="146.35 105.47 144.47 124.39 142.81 124.23 144.68 105.3 146.35 105.47"/>
    <polygon class="st13" points="144.77 105.01 152.3 90.46 153.78 91.22 146.27 105.76 144.77 105.01"/>
    <polygon class="st13" points="114.18 138.54 123.8 150.19 122.5 151.24 112.89 139.6 114.18 138.54"/>
    <polygon class="st13" points="117.4 123.86 130.98 134.47 129.95 135.78 116.37 125.17 117.4 123.86"/>
    <rect class="st13" x="114.53" y="158.29" width="16.84" height="1.68" transform="translate(-39.18 278.11) rotate(-88.58)"/>
    <polygon class="st13" points="129.74 134.47 143.32 123.66 144.37 124.96 130.78 135.77 129.74 134.47"/>
    <polygon class="st13" points="131.01 134.75 138.74 150.35 137.24 151.08 129.51 135.49 131.01 134.75"/>
    <polygon class="st13" points="96.94 132.42 80.43 130.75 80.6 129.09 97.11 130.76 96.94 132.42"/>
    <polygon class="st13" points="83.35 152.22 98.82 146.4 99.41 147.96 83.94 153.78 83.35 152.22"/>
    <polygon class="st13" points="118.15 183.59 121.92 167.37 123.55 167.74 119.78 183.96 118.15 183.59"/>
    <polygon class="st13" points="139.22 167.36 143.19 183.15 141.57 183.56 137.6 167.76 139.22 167.36"/>
    <polygon class="st13" points="153.45 159.31 164.53 171.57 163.29 172.69 152.21 160.42 153.45 159.31"/>
    <polygon class="st13" points="162.11 145.77 177.78 151.39 177.22 152.95 161.53 147.34 162.11 145.77"/>
    <polygon class="st13" points="157.37 115.31 170.96 105.95 171.91 107.32 158.33 116.68 157.37 115.31"/>
    <polygon class="st13" points="152.38 160.56 137.55 151.21 138.44 149.81 153.28 159.16 152.38 160.56"/>
    <polygon class="st13" points="89.35 106.57 103.14 115.93 102.2 117.3 88.4 107.95 89.35 106.57"/>
    <polygon class="st13" points="102.1 116 114.02 105.2 115.15 106.42 103.24 117.23 102.1 116"/>
    <polygon class="st13" points="106.65 90.44 130.05 84.62 130.46 86.23 107.06 92.05 106.65 90.44"/>
    <polygon class="st13" points="172.22 106.34 180.78 128.79 179.22 129.39 170.66 106.93 172.22 106.34"/>
    <polygon class="st13" points="130.66 135.93 113.73 139.88 113.34 138.26 130.28 134.31 130.66 135.93"/>
    <rect class="st13" x="129.42" y="85.42" width="1.68" height="16.43"/>
    <path class="st13" d="M135.9,118.07c0,2.91-2.5,5.4-5.43,5.4-3.13,0-5.65-2.5-5.65-5.4,0-3.12,2.5-5.61,5.65-5.61,2.93,0,5.43,2.5,5.43,5.61"/>
    <path class="st13" d="M134.23,101.85c0,2.08-1.68,3.75-3.77,3.75s-3.97-1.67-3.97-3.75,1.88-3.74,3.97-3.74,3.77,1.67,3.77,3.74"/>
    <path class="st7" d="M149.28,105.38c0,2.08-1.68,3.95-3.77,3.95s-3.76-1.87-3.76-3.95,1.68-3.74,3.76-3.74,3.77,1.67,3.77,3.74"/>
    <path class="st13" d="M161.61,116c0,2.08-1.68,3.74-3.76,3.74s-3.77-1.67-3.77-3.74,1.68-3.74,3.77-3.74,3.76,1.67,3.76,3.74"/>
    <path class="st13" d="M167.46,131.17c0,2.08-1.68,3.75-3.76,3.75s-3.76-1.67-3.76-3.75,1.68-3.74,3.76-3.74,3.76,1.67,3.76,3.74"/>
    <path class="st13" d="M165.59,146.56c0,2.08-1.68,3.74-3.77,3.74s-3.76-1.67-3.76-3.74,1.68-3.74,3.76-3.74,3.77,1.67,3.77,3.74"/>
    <path class="st13" d="M156.6,159.86c0,2.08-1.68,3.74-3.77,3.74s-3.76-1.67-3.76-3.74,1.68-3.74,3.76-3.74,3.77,1.67,3.77,3.74"/>
    <path class="st13" d="M142.18,167.55c0,2.08-1.68,3.74-3.77,3.74s-3.77-1.67-3.77-3.74,1.68-3.74,3.77-3.74,3.77,1.67,3.77,3.74"/>
    <path class="st9" d="M126.71,167.55c0,2.08-1.88,3.95-3.97,3.95s-3.77-1.87-3.77-3.95,1.68-3.74,3.77-3.74,3.97,1.67,3.97,3.74"/>
    <path class="st13" d="M112.07,160.28c0,2.08-1.68,3.74-3.77,3.74s-3.77-1.67-3.77-3.74,1.68-3.75,3.77-3.75,3.77,1.67,3.77,3.75"/>
    <path class="st13" d="M102.88,147.18c0,2.08-1.68,3.74-3.77,3.74s-3.77-1.67-3.77-3.74,1.68-3.74,3.77-3.74,3.77,1.67,3.77,3.74"/>
    <path class="st13" d="M100.79,131.79c0,2.08-1.68,3.74-3.77,3.74s-3.77-1.67-3.77-3.74,1.68-3.95,3.77-3.95,3.77,1.87,3.77,3.95"/>
    <path class="st13" d="M106.44,116.62c0,2.08-1.68,3.74-3.77,3.74s-3.77-1.67-3.77-3.74,1.68-3.74,3.77-3.74,3.77,1.67,3.77,3.74"/>
    <path class="st13" d="M118.34,105.8c0,2.08-1.68,3.75-3.77,3.75s-3.77-1.67-3.77-3.75,1.68-3.74,3.77-3.74,3.77,1.67,3.77,3.74"/>
    <path class="st13" d="M113.96,91.25c0,3.95-3.13,7.07-7.11,7.07s-7.11-3.13-7.11-7.07,3.13-7.07,7.11-7.07,7.11,3.12,7.11,7.07"/>
    <path class="st13" d="M137.37,85.43c0,3.95-3.13,7.07-6.9,7.07-3.97,0-7.11-3.12-7.11-7.07s3.13-7.07,7.11-7.07c3.77,0,6.9,3.13,6.9,7.07"/>
    <path class="st13" d="M160.15,90.84c0,3.95-3.13,7.07-7.11,7.07s-7.11-3.12-7.11-7.07,3.13-7.07,7.11-7.07,7.11,3.12,7.11,7.07"/>
    <path class="st13" d="M178.54,106.64c0,3.95-3.34,7.07-7.11,7.07-3.97,0-7.11-3.12-7.11-7.07s3.13-7.07,7.11-7.07c3.77,0,7.11,3.13,7.11,7.07"/>
    <path class="st13" d="M187.11,129.09c0,3.95-3.14,7.07-7.11,7.07s-7.11-3.12-7.11-7.07,3.13-7.07,7.11-7.07,7.11,3.12,7.11,7.07"/>
    <path class="st13" d="M184.39,152.17c0,3.95-3.13,7.07-6.89,7.07-3.97,0-7.11-3.12-7.11-7.07s3.13-7.07,7.11-7.07c3.76,0,6.89,3.12,6.89,7.07"/>
    <path class="st18" d="M171.02,172.13c0,3.95-3.34,7.07-7.11,7.07-3.97,0-7.11-3.12-7.11-7.07s3.14-7.07,7.11-7.07c3.76,0,7.11,3.12,7.11,7.07"/>
    <path class="st13" d="M149.49,183.57c0,3.74-3.13,7.07-7.11,7.07-3.77,0-6.9-3.32-6.9-7.07,0-3.95,3.13-7.07,6.9-7.07,3.97,0,7.11,3.12,7.11,7.07"/>
    <path class="st13" d="M126.29,183.78c0,3.75-3.34,7.07-7.11,7.07-3.97,0-7.11-3.32-7.11-7.07,0-3.95,3.13-7.07,7.11-7.07,3.77,0,7.11,3.12,7.11,7.07"/>
    <path class="st13" d="M104.55,172.75c0,3.95-3.13,7.07-7.11,7.07-3.77,0-6.9-3.12-6.9-7.07s3.13-7.07,6.9-7.07c3.97,0,7.11,3.12,7.11,7.07"/>
    <path class="st13" d="M90.75,153.01c0,3.95-3.13,7.07-7.11,7.07s-7.11-3.12-7.11-7.07,3.13-7.07,7.11-7.07,7.11,3.12,7.11,7.07"/>
    <path class="st5" d="M87.62,129.92c0,3.95-3.13,7.07-7.11,7.07-3.77,0-7.11-3.12-7.11-7.07s3.34-7.07,7.11-7.07c3.97,0,7.11,3.12,7.11,7.07"/>
    <path class="st13" d="M95.98,107.26c0,3.95-3.13,7.07-7.11,7.07s-7.11-3.12-7.11-7.07,3.13-7.07,7.11-7.07,7.11,3.32,7.11,7.07"/>
    <path class="st13" d="M133.6,135.12c0,1.87-1.46,3.12-3.13,3.12-1.88,0-3.34-1.25-3.34-3.12,0-1.67,1.46-3.12,3.34-3.12,1.68,0,3.13,1.46,3.13,3.12"/>
    <path class="st13" d="M149.28,124.31c0,3.12-2.51,5.61-5.44,5.61-3.13,0-5.65-2.5-5.65-5.61,0-2.91,2.5-5.4,5.65-5.4,2.93,0,5.44,2.5,5.44,5.4"/>
    <path class="st13" d="M152.83,138.66c0,3.12-2.5,5.61-5.65,5.61-2.92,0-5.43-2.5-5.43-5.61,0-2.91,2.51-5.4,5.43-5.4,3.14,0,5.65,2.5,5.65,5.4"/>
    <path class="st13" d="M143.43,150.51c0,3.12-2.5,5.61-5.43,5.61-3.13,0-5.65-2.5-5.65-5.61,0-2.91,2.5-5.4,5.65-5.4,2.93,0,5.43,2.5,5.43,5.4"/>
    <path class="st13" d="M128.58,150.72c0,3.12-2.5,5.4-5.43,5.4-3.13,0-5.65-2.29-5.65-5.4s2.5-5.4,5.65-5.4c2.93,0,5.43,2.29,5.43,5.4"/>
    <path class="st13" d="M119.18,139.07c0,2.91-2.5,5.4-5.65,5.4-2.93,0-5.43-2.5-5.43-5.4,0-3.12,2.5-5.61,5.43-5.61,3.13,0,5.65,2.5,5.65,5.61"/>
    <path class="st19" d="M122.32,124.72c0,2.91-2.5,5.4-5.43,5.4-3.13,0-5.65-2.5-5.65-5.4,0-3.12,2.5-5.61,5.65-5.61,2.93,0,5.43,2.5,5.43,5.61"/>
  </g>
</svg>