<?xml version="1.0" encoding="utf-8"?>
<!-- Generator: Adobe Illustrator 28.1.0, SVG Export Plug-In . SVG Version: 6.00 Build 0)  -->
<svg version="1.1" id="图层_1" xmlns="http://www.w3.org/2000/svg" xmlns:xlink="http://www.w3.org/1999/xlink" x="0px" y="0px"
	 width="256px" height="256px" viewBox="0 0 256 256" style="enable-background:new 0 0 256 256;" xml:space="preserve">
<style type="text/css">
	.st0{fill-rule:evenodd;clip-rule:evenodd;fill:#003333;}
	.st1{fill-rule:evenodd;clip-rule:evenodd;fill-opacity:0.3;}
	.st2{fill-rule:evenodd;clip-rule:evenodd;fill:url(#SVGID_1_);}
	.st3{fill:#003333;}
</style>
<path class="st0" d="M104.4,42.4C100,37.1,93.5,34,86.6,34H29c-6.6,0-12,5.4-12,12v12.1v10.1V160c0,6.6,5.4,12,12,12h200
	c6.6,0,12-5.4,12-12V70.1c0-6.6-5.4-12-12-12H117.4L104.4,42.4z"/>
<g>
	<g>
		<path class="st1" d="M92.8,74c5,0,9.8-1.6,13.8-4.6l9.9-7.4H229c6.6,0,12,5.4,12,12v34v52c0,6.6-5.4,12-12,12H29
			c-6.6,0-12-5.4-12-12v-52V86c0-6.6,5.4-12,12-12h58H92.8z"/>
	</g>
</g>
<g>
	
		<linearGradient id="SVGID_1_" gradientUnits="userSpaceOnUse" x1="37.8196" y1="286.8196" x2="221.6509" y2="470.6509" gradientTransform="matrix(1 0 0 1 0 -242)">
		<stop  offset="4.528621e-07" style="stop-color:#9999CC"/>
		<stop  offset="0.4384" style="stop-color:#9B9ACC"/>
		<stop  offset="0.6015" style="stop-color:#A29DCC"/>
		<stop  offset="0.7187" style="stop-color:#AEA3CC"/>
		<stop  offset="0.8139" style="stop-color:#BFACCC"/>
		<stop  offset="0.8957" style="stop-color:#D5B7CC"/>
		<stop  offset="0.967" style="stop-color:#F0C4CC"/>
		<stop  offset="1" style="stop-color:#FFCCCC"/>
	</linearGradient>
	<path class="st2" d="M92.8,74c5,0,9.8-1.6,13.8-4.6l9.9-7.4H229c6.6,0,12,5.4,12,12v34v90c0,6.6-5.4,12-12,12H29
		c-6.6,0-12-5.4-12-12v-90V86c0-6.6,5.4-12,12-12h58H92.8z"/>
</g>
<g>
	<path class="st3" d="M129.9,86.6c0.5-0.3,0.9-0.5,1.4-0.8c0,6.9,0,13.8,0,20.8c-6.9,4-13.8,7.9-20.7,11.9c-0.6,0.4-1.3,0.7-1.9,1.1
		c0,2.2,0,4.4,0,6.7c0,4.7,0,9.4,0,14.1c0,0.9,0,1.7,0,2.6c-0.6-0.3-1.2-0.7-1.9-1.1c-4.2-2.5-8.4-4.9-12.5-7.4
		c-0.6-0.4-1.2-0.7-1.8-1.2c-0.9-0.8-1.5-1.9-1.6-3.1c-0.1-0.5-0.1-1-0.1-1.6c0-4.8,0-9.5,0-14.3c0-0.5,0-1,0-1.5
		c0.1-2,1.2-4,2.7-5.2c0.4-0.3,0.8-0.5,1.2-0.8C106.5,100.2,118.2,93.4,129.9,86.6z"/>
	<path class="st3" d="M136.1,85.8c2.8,1.6,5.6,3.2,8.4,4.8c9,5.2,18.1,10.4,27.1,15.6c0.8,0.5,1.6,0.9,2.3,1.5
		c1.3,1.1,2.2,2.7,2.5,4.3c0.1,0.5,0.1,1,0.1,1.5c0,5.4,0,10.9,0,16.3c-0.3-0.1-0.6-0.4-0.9-0.5c-13.2-7.6-26.3-15.1-39.5-22.7
		C136.1,99.7,136.1,92.8,136.1,85.8z"/>
	<path class="st3" d="M158.6,124.7c5.1,3,10.2,6,15.3,9c1.3,0.8,2.3,2.2,2.5,3.7c0.1,0.5,0.1,1.1,0.1,1.6c0,4.6,0,9.2,0,13.8
		c0,0.9,0.1,1.9-0.1,2.8c-0.3,1.7-1.3,3.2-2.6,4.3c-0.5,0.4-1.1,0.7-1.7,1.1c-11.2,6.5-22.4,13-33.6,19.5c-0.8,0.5-1.6,0.9-2.3,1.4
		c0-6.9,0-13.8,0-20.8c7.5-4.3,15-8.7,22.5-13c0-2.4,0-4.9,0-7.3c0-4.7,0-9.4,0-14.2C158.6,125.9,158.6,125.3,158.6,124.7z"/>
	<path class="st3" d="M90.9,137.9c0.3,0.1,0.6,0.3,0.9,0.5c10,5.8,20.1,11.5,30.1,17.3c3.2,1.8,6.3,3.6,9.5,5.4c0,6.9,0,13.8,0,20.8
		c-12.3-7-24.5-14.1-36.8-21.1c-0.9-0.5-1.7-1.3-2.4-2.2c-0.8-1.1-1.2-2.4-1.3-3.7c0-0.3,0-0.6,0-0.9
		C90.9,148.5,90.9,143.2,90.9,137.9z"/>
</g>
</svg>
