<?xml version="1.0" encoding="UTF-8"?>
<svg xmlns="http://www.w3.org/2000/svg" width="256" height="256" version="1.1" xmlns:xlink="http://www.w3.org/1999/xlink" viewBox="0 0 256 256">
  <defs>
    <style>
      .cls-1 {
        fill: url(#_未命名的渐变_14);
      }

      .cls-1, .cls-2, .cls-3, .cls-4, .cls-5, .cls-6 {
        stroke-width: 0px;
      }

      .cls-1, .cls-3, .cls-4, .cls-5 {
        fill-rule: evenodd;
      }

      .cls-2 {
        fill: #1889fc;
      }

      .cls-7 {
        isolation: isolate;
      }

      .cls-3 {
        fill: #000;
        fill-opacity: .3;
      }

      .cls-4, .cls-6 {
        fill: #e6b833;
      }

      .cls-5 {
        fill: url(#_未命名的渐变);
      }

      .cls-8 {
        mask: url(#mask);
      }

      .cls-9 {
        mix-blend-mode: multiply;
      }
    </style>
    <linearGradient id="_未命名的渐变" data-name="未命名的渐变" x1="32.6" y1="239.5" x2="213.3" y2="58.4" gradientTransform="translate(0 258) scale(1 -1)" gradientUnits="userSpaceOnUse">
      <stop offset="0" stop-color="#05815d"/>
      <stop offset="1" stop-color="#0c575f"/>
    </linearGradient>
    <mask id="mask" x="17" y="34" width="224" height="138" maskUnits="userSpaceOnUse">
      <g id="mask0_727_17535" data-name="mask0 727 17535">
        <path class="cls-5" d="M104.4,42.4c-4.4-5.3-10.9-8.4-17.8-8.4H29c-6.6,0-12,5.4-12,12v114c0,6.6,5.4,12,12,12h200c6.6,0,12-5.4,12-12v-89.9c0-6.6-5.4-12-12-12h-111.6l-13-15.8Z"/>
      </g>
    </mask>
    <linearGradient id="_未命名的渐变_14" data-name="未命名的渐变 14" x1="17" y1="196" x2="247.8" y2="43.5" gradientTransform="translate(0 258) scale(1 -1)" gradientUnits="userSpaceOnUse">
      <stop offset="0" stop-color="#dcf3ff"/>
      <stop offset=".4" stop-color="#daf1fe"/>
      <stop offset=".5" stop-color="#d3eefe"/>
      <stop offset=".6" stop-color="#c7e7fe"/>
      <stop offset=".7" stop-color="#b6defe"/>
      <stop offset=".8" stop-color="#a0d2fe"/>
      <stop offset=".8" stop-color="#85c4fd"/>
      <stop offset=".9" stop-color="#64b2fd"/>
      <stop offset="1" stop-color="#409efc"/>
      <stop offset="1" stop-color="#1889fc"/>
    </linearGradient>
  </defs>
  <g class="cls-7">
    <g id="_图层_1" data-name="图层 1">
      <path class="cls-4" d="M104.4,42.4c-4.4-5.3-10.9-8.4-17.8-8.4H29c-6.6,0-12,5.4-12,12v114c0,6.6,5.4,12,12,12h200c6.6,0,12-5.4,12-12v-89.9c0-6.6-5.4-12-12-12h-111.6l-13-15.8Z"/>
      <g class="cls-8">
        <g class="cls-9">
          <path class="cls-3" d="M92.8,74c5,0,9.8-1.6,13.8-4.6l9.9-7.4h112.5c6.6,0,12,5.4,12,12v86c0,6.6-5.4,12-12,12H29c-6.6,0-12-5.4-12-12v-74c0-6.6,5.4-12,12-12h63.8Z"/>
        </g>
      </g>
      <path class="cls-1" d="M92.8,74c5,0,9.8-1.6,13.8-4.6l9.9-7.4h112.5c6.6,0,12,5.4,12,12v124c0,6.6-5.4,12-12,12H29c-6.6,0-12-5.4-12-12v-112c0-6.6,5.4-12,12-12h63.8Z"/>
      <g>
        <path class="cls-2" d="M75,159.1c6.6-4.4,13.9-6.6,21.8-6.3,4.7.2,9.1,1.3,13.4,3.1,8.3,3.4,16.9,5.4,26,4.8,10.6-.8,19.9-8.3,22.7-18.5.7-2.7,1.8-4.7,4.1-6.1,1.6-1,1.5-1.9,0-2.8-2.4-1.5-3.7-3.6-4.9-6.1-4.2-9-15.8-12.2-24.3-6.5-1.4,1-2,1-2.7-.8-3.2-8.4-8.6-15.1-16.1-20.2-2-1.3-2-1.8.2-2.8,14.8-6.9,29.4-6.2,42.7,3.2,19.3,13.7,24.2,38.3,11.3,57.7-9.4,14.1-23.2,20.7-40.4,18.8-9.4-1-17.4-5.1-24.2-11.6-8-7.6-17.2-9.6-27.6-5.9-.4.1-.8.3-1.2.3-.2,0-.5.3-.7-.2Z"/>
        <path class="cls-6" d="M96.8,107.9q-.1-3.1,2.9-2.7c14.3,1.7,25,12.6,26.5,26.9.2,1.7,0,2.5-2.1,2.5-12.2-.3-23.9-10.3-26.7-23-.3-1.2-.4-2.4-.6-3.6Z"/>
        <path class="cls-6" d="M118.1,136.1c-12.1.6-21.3-4.3-27.3-15-.8-1.4-.7-2.1.9-2.3.2,0,.4-.1.6-.2q4.2-1.2,6.4,2.6c4.1,6.9,9.9,11.7,17.5,14.3.6.2,1.3.4,1.9.6Z"/>
        <path class="cls-6" d="M119.4,138.9c-7.4,3.6-14.9,3.5-22.4.5-2.4-.9-4.6-2.3-6.6-3.9-.8-.6-.9-1.1,0-1.7.3-.2.5-.4.8-.6,3.4-2.6,3.4-2.5,6.7-.1,5.5,3.9,11.5,5.9,18.3,5.9,1.1,0,2.2,0,3.3,0h0Z"/>
      </g>
    </g>
  </g>
</svg>