<?xml version="1.0" encoding="utf-8"?>
<!-- Generator: Adobe Illustrator 28.1.0, SVG Export Plug-In . SVG Version: 6.00 Build 0)  -->
<svg version="1.1" id="图层_1" xmlns="http://www.w3.org/2000/svg" xmlns:xlink="http://www.w3.org/1999/xlink" x="0px" y="0px"
	 width="256px" height="256px" viewBox="0 0 256 256" style="enable-background:new 0 0 256 256;" xml:space="preserve">
<style type="text/css">
	.st0{fill-rule:evenodd;clip-rule:evenodd;fill:#091631;}
	.st1{fill-rule:evenodd;clip-rule:evenodd;fill:url(#SVGID_1_);filter:url(#Adobe_OpacityMaskFilter);}
	.st2{mask:url(#mask0_657_15245_00000034790909681039915360000010968840043480628361_);}
	.st3{fill-rule:evenodd;clip-rule:evenodd;fill-opacity:0.3;}
	.st4{fill-rule:evenodd;clip-rule:evenodd;fill:url(#SVGID_00000050649542928613314450000000297941715049088694_);}
	.st5{fill:#FFFFFF;}
</style>
<path class="st0" d="M104.4,42.4c-4.4-5.3-10.9-8.4-17.8-8.4H29c-6.6,0-12,5.4-12,12v12.1v10.1V160c0,6.6,5.4,12,12,12h200
	c6.6,0,12-5.4,12-12V70.1c0-6.6-5.4-12-12-12H117.4L104.4,42.4z"/>
<defs>
	<filter id="Adobe_OpacityMaskFilter" filterUnits="userSpaceOnUse" x="17" y="62" width="224" height="110">
		<feColorMatrix  type="matrix" values="1 0 0 0 0  0 1 0 0 0  0 0 1 0 0  0 0 0 1 0"/>
	</filter>
</defs>
<mask maskUnits="userSpaceOnUse" x="17" y="62" width="224" height="110" id="mask0_657_15245_00000034790909681039915360000010968840043480628361_">
	
		<linearGradient id="SVGID_1_" gradientUnits="userSpaceOnUse" x1="32.5816" y1="239.5494" x2="213.3495" y2="58.4074" gradientTransform="matrix(1 0 0 -1 0 258)">
		<stop  offset="0" style="stop-color:#05815D"/>
		<stop  offset="1" style="stop-color:#0C575F"/>
	</linearGradient>
	<path class="st1" d="M104.4,42.4c-4.4-5.3-10.9-8.4-17.8-8.4H29c-6.6,0-12,5.4-12,12v12.1v10.1V160c0,6.6,5.4,12,12,12h200
		c6.6,0,12-5.4,12-12V70.1c0-6.6-5.4-12-12-12H117.4L104.4,42.4z"/>
</mask>
<g class="st2">
	<g>
		<path class="st3" d="M92.8,74c5,0,9.8-1.6,13.8-4.6l9.9-7.4H229c6.6,0,12,5.4,12,12v34v52c0,6.6-5.4,12-12,12H29
			c-6.6,0-12-5.4-12-12v-52V86c0-6.6,5.4-12,12-12h58H92.8z"/>
	</g>
</g>
<g>
	
		<linearGradient id="SVGID_00000042701806492592256420000016836486152241701564_" gradientUnits="userSpaceOnUse" x1="17" y1="196" x2="241" y2="48" gradientTransform="matrix(1 0 0 -1 0 258)">
		<stop  offset="0" style="stop-color:#006288"/>
		<stop  offset="1" style="stop-color:#0A0D27"/>
	</linearGradient>
	<path style="fill-rule:evenodd;clip-rule:evenodd;fill:url(#SVGID_00000042701806492592256420000016836486152241701564_);" d="
		M92.8,74c5,0,9.8-1.6,13.8-4.6l9.9-7.4H229c6.6,0,12,5.4,12,12v34v90c0,6.6-5.4,12-12,12H29c-6.6,0-12-5.4-12-12v-90V86
		c0-6.6,5.4-12,12-12h58H92.8z"/>
</g>
<path class="st5" d="M103.5,182.6c-5.3,0-8.1-2.9-8.1-8V96.1c0-5.1,2.8-8.1,8.2-8.1h54.2c5.4,0,8.1,2.9,8.1,8.1v78.4
	c0,5.2-2.8,8-8.1,8H103.5z M107.2,129.2c1.4,0,2.3-0.7,2.8-2.5l1.8-5.1h9.7l1.9,5.1c0.5,1.7,1.3,2.5,2.7,2.5c1.8,0,2.8-1,2.8-2.6
	c0-0.4-0.2-1-0.4-1.7l-7.6-21.1c-0.8-2.2-2.1-3.2-4.3-3.2c-2.1,0-3.4,1-4.2,3.2l-7.6,21.1c-0.3,0.6-0.4,1.3-0.4,1.7
	C104.4,128.2,105.5,129.2,107.2,129.2z M137.9,109.4h15.3c1.8,0,3.2-1.4,3.2-3.2c0-1.8-1.4-3.2-3.2-3.2h-15.3
	c-1.9,0-3.3,1.4-3.3,3.2C134.7,108,136,109.4,137.9,109.4z M112.9,117.2l3.5-10.9h0.4l3.5,10.9H112.9z M137.9,127.6h15.3
	c1.8,0,3.2-1.4,3.2-3.2c0-1.8-1.4-3.2-3.2-3.2h-15.3c-1.9,0-3.3,1.4-3.3,3.2C134.7,126.2,136,127.6,137.9,127.6z M103.6,170.5h3.7
	l6.8-6.9c1-0.9,2-1.3,3.1-1.3c1,0,2.2,0.4,3.2,1.3l4.3,3.9l10.6-9.4c1.2-1,2.4-1.5,3.7-1.5c1.2,0,2.6,0.4,3.5,1.5l10.4,11.9h3.6
	v-24.8c0-4.6-2.4-6.9-7-6.9h-38.9c-4.4,0-7,2.3-7,6.9V170.5z M117.2,156.7c-3.1,0-5.6-2.6-5.6-5.6c0-3.1,2.5-5.7,5.6-5.6
	c3.1,0.1,5.6,2.5,5.6,5.6C122.8,154.1,120.2,156.7,117.2,156.7z"/>
</svg>
