<?xml version="1.0" encoding="utf-8"?>
<!-- Generator: Adobe Illustrator 28.2.0, SVG Export Plug-In . SVG Version: 6.00 Build 0)  -->
<svg version="1.1" id="图层_1" xmlns="http://www.w3.org/2000/svg" xmlns:xlink="http://www.w3.org/1999/xlink" x="0px" y="0px"
	 width="256px" height="256px" viewBox="0 0 256 256" style="enable-background:new 0 0 256 256;" xml:space="preserve">
<style type="text/css">
	.st0{fill-rule:evenodd;clip-rule:evenodd;fill:#2D2C2B;}
	.st1{fill-rule:evenodd;clip-rule:evenodd;fill-opacity:0.3;}
	.st2{fill-rule:evenodd;clip-rule:evenodd;fill:url(#SVGID_1_);}
	.st3{fill:#29292A;}
</style>
<path class="st0" d="M104.4,42.4C100,37.1,93.5,34,86.6,34H29c-6.6,0-12,5.4-12,12v12.1v10.1V160c0,6.6,5.4,12,12,12h200
	c6.6,0,12-5.4,12-12V70.1c0-6.6-5.4-12-12-12H117.4L104.4,42.4z"/>
<g>
	<g>
		<path class="st1" d="M92.8,74c5,0,9.8-1.6,13.8-4.6l9.9-7.4H229c6.6,0,12,5.4,12,12v34v52c0,6.6-5.4,12-12,12H29
			c-6.6,0-12-5.4-12-12v-52V86c0-6.6,5.4-12,12-12h58H92.8z"/>
	</g>
</g>
<g>
	
		<linearGradient id="SVGID_1_" gradientUnits="userSpaceOnUse" x1="17" y1="304" x2="241" y2="452" gradientTransform="matrix(1 0 0 1 0 -242)">
		<stop  offset="0" style="stop-color:#3CF2A6"/>
		<stop  offset="1" style="stop-color:#009CB1"/>
	</linearGradient>
	<path class="st2" d="M92.8,74c5,0,9.8-1.6,13.8-4.6l9.9-7.4H229c6.6,0,12,5.4,12,12v34v90c0,6.6-5.4,12-12,12H29
		c-6.6,0-12-5.4-12-12v-90V86c0-6.6,5.4-12,12-12h58H92.8z"/>
</g>
<path class="st3" d="M132.3,156.6c-0.6,0.7-1.5,1.1-2.5,1.1s-1.8-0.4-2.5-1.1l-17.8-19.4c-1.2-1.4-1.1-3.5,0.2-4.7
	c1.4-1.2,3.5-1.1,4.7,0.2l12,13.1V96.7c0-1.8,1.5-3.3,3.3-3.3s3.3,1.5,3.3,3.3v49.2l12-13.1c1.2-1.4,3.3-1.5,4.7-0.2
	c1.4,1.2,1.5,3.3,0.2,4.7L132.3,156.6z"/>
<path class="st3" d="M93.2,150c0-1.8-1.5-3.3-3.3-3.3s-3.3,1.5-3.3,3.3v0.2c0,6.1,0,11,0.5,14.8c0.5,4,1.7,7.4,4.4,10
	c2.7,2.7,6,3.8,10,4.4c3.9,0.5,8.7,0.5,14.8,0.5h27.1c6.1,0,11,0,14.8-0.5c4-0.5,7.4-1.7,10-4.4c2.7-2.7,3.8-6,4.4-10
	c0.5-3.9,0.5-8.7,0.5-14.8V150c0-1.8-1.5-3.3-3.3-3.3s-3.3,1.5-3.3,3.3c0,6.4,0,10.8-0.5,14.2c-0.4,3.3-1.2,5-2.5,6.2
	c-1.2,1.2-3,2-6.2,2.5c-3.4,0.5-7.8,0.5-14.2,0.5h-26.7c-6.4,0-10.8,0-14.2-0.5c-3.3-0.4-5-1.2-6.2-2.5c-1.2-1.2-2-3-2.5-6.2
	C93.2,160.8,93.2,156.3,93.2,150z"/>
</svg>
