<?xml version="1.0" encoding="utf-8"?>
<!-- Generator: Adobe Illustrator 28.1.0, SVG Export Plug-In . SVG Version: 6.00 Build 0)  -->
<svg version="1.1" id="图层_1" xmlns="http://www.w3.org/2000/svg" xmlns:xlink="http://www.w3.org/1999/xlink" x="0px" y="0px"
	 width="256px" height="256px" viewBox="0 0 256 256" style="enable-background:new 0 0 256 256;" xml:space="preserve">
<style type="text/css">
	.st0{fill-rule:evenodd;clip-rule:evenodd;fill:#246191;}
	.st1{fill-rule:evenodd;clip-rule:evenodd;fill-opacity:0.3;}
	.st2{fill:url(#SVGID_1_);}
	.st3{fill:url(#SVGID_00000084503431260343471730000012795648252633697188_);}
	.st4{fill:url(#SVGID_00000052086360898259395570000010739303415016945334_);}
	.st5{fill:#2A5483;}
	.st6{display:none;fill:#FFFFFF;}
	.st7{enable-background:new    ;}
	.st8{fill:#FFFFFF;}
</style>
<path class="st0" d="M104.4,42.4C100,37.1,93.5,34,86.6,34H37h-8c-6.6,0-12,5.4-12,12v8v4.1v10.1V160c0,6.6,5.4,12,12,12h200
	c6.6,0,12-5.4,12-12V78.1c0-11-9-20-20-20H117.4L104.4,42.4z"/>
<g>
	<g>
		<path class="st1" d="M92.8,74c5,0,9.8-1.6,13.8-4.6l9.9-7.4H229c6.6,0,12,5.4,12,12v34v52c0,6.6-5.4,12-12,12H29
			c-6.6,0-12-5.4-12-12v-52V86c0-6.6,5.4-12,12-12h58H92.8z"/>
	</g>
</g>
<g>
	
		<linearGradient id="SVGID_1_" gradientUnits="userSpaceOnUse" x1="129" y1="-102.851" x2="129" y2="-193.957" gradientTransform="matrix(1 0 0 -1 0 16)">
		<stop  offset="0" style="stop-color:#1368A0"/>
		<stop  offset="1" style="stop-color:#417191"/>
	</linearGradient>
	<path class="st2" d="M17,114h224v82c0,11-9,20-20,20H37c-11,0-20-9-20-20V114z"/>
</g>
<linearGradient id="SVGID_00000178173113135395180400000000521698407771991993_" gradientUnits="userSpaceOnUse" x1="19" y1="-138" x2="237.486" y2="-138" gradientTransform="matrix(1 0 0 -1 0 16)">
	<stop  offset="0" style="stop-color:#322319"/>
	<stop  offset="5.107872e-02" style="stop-color:#1A588F"/>
	<stop  offset="0.1216" style="stop-color:#8EA2C8"/>
	<stop  offset="0.9476" style="stop-color:#A5B9EB"/>
	<stop  offset="1" style="stop-color:#1B5B92"/>
</linearGradient>
<path style="fill:url(#SVGID_00000178173113135395180400000000521698407771991993_);" d="M39,99h180c11,0,20,9,20,20v70
	c0,11-9,20-20,20H39c-11,0-20-9-20-20v-70C19,108,28,99,39,99z"/>
<g>
	
		<linearGradient id="SVGID_00000106140348118367231210000012202336685876341927_" gradientUnits="userSpaceOnUse" x1="129" y1="-39.744" x2="129" y2="-171.938" gradientTransform="matrix(1 0 0 -1 0 16)">
		<stop  offset="0" style="stop-color:#48A5F3"/>
		<stop  offset="1" style="stop-color:#155891"/>
	</linearGradient>
	<path style="fill:url(#SVGID_00000106140348118367231210000012202336685876341927_);" d="M92.8,74c5,0,9.8-1.6,13.8-4.6l9.9-7.4
		H221c11,0,20,9,20,20v100c0,6.6-5.4,12-12,12H29c-6.6,0-12-5.4-12-12V94c0-11,9-20,20-20H92.8z"/>
</g>
<g>
	<path class="st5" d="M17,182c0,6.6,5.4,12,12,12V75.7C21.9,78.8,17,85.8,17,94V182z"/>
</g>
<path class="st6" d="M113.2,104h-2.6l-14.4,36.5c-1.7,4.9-3.3,6.4-6.9,6.6H89v2.9h16.6v-2.9h-1.3c-3.4,0-5.1-1.2-5.1-3.6
	c0-0.8,0.2-1.6,0.6-2.6l2.1-5.5h16.6l3.4,8.4c0.4,1,0.5,1.4,0.5,1.7c0,1-1.6,1.6-3.9,1.6h-2.6v2.9h19.4v-2.9h-0.9
	c-3.3-0.1-3.8-0.4-5.3-4L113.2,104z M110.1,114.3l7.1,17.8h-14L110.1,114.3z"/>
<path class="st6" d="M164.1,129.9c0-3.9-0.7-5.9-2.5-7.4c-2.1-1.7-5.1-2.5-9.1-2.5c-7.1,0-12.2,3.3-12.2,7.9c0,2.3,1.4,3.8,3.6,3.8
	c2,0,3.4-1.3,3.4-3.2c0-0.8-0.3-1.7-0.9-2.6c-0.4-0.4-0.4-0.6-0.4-0.9c0-1.3,2.5-2.4,5.5-2.4c2,0,4.2,0.6,5.2,1.6
	c1.2,1,1.6,2.5,1.6,5.3v2.4c-6.5,1.1-8.6,1.6-11.6,2.8c-5.4,2-8,4.9-8,8.9c0,4.5,3.5,7.3,9.1,7.3c4.3,0,8.2-1.8,10.9-4.9
	c1,3.2,2.6,4.4,5.5,4.4c2.8,0,5.8-1.8,5.8-3.6c0-0.4-0.2-0.8-0.6-0.8c-0.2,0-0.5,0.1-0.9,0.2c-0.9,0.4-1.3,0.4-1.8,0.4
	c-1.8,0-2.4-1.1-2.4-4.3v-12.4L164.1,129.9L164.1,129.9z M158.2,137.5c0,3.8-0.2,4.6-1.3,6.3c-1.6,2.3-4.4,3.9-7.1,3.9
	c-2.9,0-4.9-2.1-4.9-4.9c0-2.6,1.3-4.5,4.1-5.8c1.9-0.9,4.4-1.5,9.3-2.3v2.8H158.2z"/>
<g>
	<g class="st7">
		<path class="st8" d="M104,138l-5,15.3h-6.5l16.5-48.5h7.5l16.6,48.5h-6.7l-5.2-15.3H104z M119.9,133.1l-4.8-14
			c-1.1-3.2-1.8-6.1-2.5-8.9h-0.2c-0.7,2.8-1.5,5.8-2.4,8.8l-4.8,14.1H119.9z"/>
		<path class="st8" d="M159.3,153.3l-0.6-4.4h-0.2c-1.9,2.7-5.7,5.2-10.7,5.2c-7,0-10.6-5-10.6-10c0-8.4,7.5-13.1,20.9-13v-0.7
			c0-2.8-0.8-8.1-7.9-8c-3.2,0-6.6,1-9.1,2.6l-1.4-4.2c2.9-1.9,7.1-3.1,11.5-3.1c10.6,0,13.2,7.3,13.2,14.3v13c0,3,0.1,5.9,0.5,8.3
			H159.3z M158.3,135.5c-6.9-0.1-14.7,1.1-14.7,7.8c0,4.2,2.7,6.1,5.9,6.1c4.6,0,7.5-2.9,8.5-5.8c0.2-0.7,0.3-1.4,0.3-2V135.5z"/>
	</g>
</g>
</svg>
