<?xml version="1.0" encoding="UTF-8"?>
<svg id="_图层_1" data-name="图层_1" xmlns="http://www.w3.org/2000/svg" width="90.3mm" height="90.3mm" version="1.1" xmlns:xlink="http://www.w3.org/1999/xlink" viewBox="0 0 256 256">
  <!-- Generator: Adobe Illustrator 29.2.1, SVG Export Plug-In . SVG Version: 2.1.0 Build 116)  -->
  <defs>
    <style>
      .st0 {
        fill-opacity: .3;
      }

      .st0, .st1 {
        fill-rule: evenodd;
      }

      .st2 {
        fill: #e0eef9;
      }

      .st3 {
        fill: url(#_未命名的渐变_3);
      }

      .st4 {
        fill: url(#_未命名的渐变);
      }

      .st1 {
        fill: #246191;
      }

      .st5 {
        fill: #2a5483;
      }

      .st6 {
        fill: url(#_未命名的渐变_2);
      }
    </style>
    <linearGradient id="_未命名的渐变" data-name="未命名的渐变" x1="129" y1="944.7" x2="129" y2="1035.8" gradientTransform="translate(0 -825.9)" gradientUnits="userSpaceOnUse">
      <stop offset="0" stop-color="#1368a0"/>
      <stop offset="1" stop-color="#417191"/>
    </linearGradient>
    <linearGradient id="_未命名的渐变_2" data-name="未命名的渐变 2" x1="19" y1="979.9" x2="237.5" y2="979.9" gradientTransform="translate(0 -825.9)" gradientUnits="userSpaceOnUse">
      <stop offset="0" stop-color="#322319"/>
      <stop offset="0" stop-color="#1a588f"/>
      <stop offset=".1" stop-color="#8ea2c8"/>
      <stop offset=".9" stop-color="#a5b9eb"/>
      <stop offset="1" stop-color="#1b5b92"/>
    </linearGradient>
    <linearGradient id="_未命名的渐变_3" data-name="未命名的渐变 3" x1="129" y1="881.6" x2="129" y2="1013.8" gradientTransform="translate(0 -825.9)" gradientUnits="userSpaceOnUse">
      <stop offset="0" stop-color="#48a5f3"/>
      <stop offset="1" stop-color="#155891"/>
    </linearGradient>
  </defs>
  <path class="st1" d="M104.4,42.4c-4.4-5.3-10.9-8.4-17.8-8.4H29c-6.6,0-12,5.4-12,12v114c0,6.6,5.4,12,12,12h200c6.6,0,12-5.4,12-12v-81.9c0-11-9-20-20-20h-103.6l-13-15.7Z"/>
  <path class="st0" d="M92.8,74c5,0,9.8-1.6,13.8-4.6l9.9-7.4h112.5c6.6,0,12,5.4,12,12v86c0,6.6-5.4,12-12,12H29c-6.6,0-12-5.4-12-12v-74c0-6.6,5.4-12,12-12h63.8Z"/>
  <path class="st4" d="M17,114h224v82c0,11-9,20-20,20H37c-11,0-20-9-20-20v-82Z"/>
  <path class="st6" d="M39,99h180c11,0,20,9,20,20v70c0,11-9,20-20,20H39c-11,0-20-9-20-20v-70c0-11,9-20,20-20Z"/>
  <path class="st3" d="M92.8,74c5,0,9.8-1.6,13.8-4.6l9.9-7.4h104.5c11,0,20,9,20,20v100c0,6.6-5.4,12-12,12H29c-6.6,0-12-5.4-12-12v-88c0-11,9-20,20-20h55.8Z"/>
  <path class="st5" d="M17,182c0,6.6,5.4,12,12,12v-118.3c-7.1,3.1-12,10.1-12,18.3v88Z"/>
  <g>
    <path class="st2" d="M183.2,148.5c5.2,8-1.7,19.2-11.5,17.4-3.4-.5-6.2-2.6-9.2-4.1-2.9-2-4.7.6-6.6,2.4-13.9,12.2-35.8,13.4-51.2,3.9-46.7-31.1-7.9-99.8,42.9-76.3,17.1,8.6,26.1,28.2,23.3,46.8,0,.9.4,1.6,1.1,2.2,3.4,2.2,8.7,3.8,10.9,7.3l.2.3ZM145,105.7c-28.4-18.6-61.6,14.4-43,42.4,11.3,17.4,38.8,17.8,50.5.5,9.5-13.2,6.5-33.6-7.2-42.7l-.3-.2Z"/>
    <path class="st2" d="M130.5,139.2c.7,0,1.7.7,1.4,1.5-.2.8-1.6.8-2.4.8-1.4,0-8,.9-5.7-1.9,1.8-1.1,0-3.4-.4-5.5-.4-1.5-.9-1.2-2.4-1.3-2,0-5-.1-5.9,0-.5,0-.8.6-1,1-.3,1.2-1.1,3.7-1.1,4.7.2.8,1.3,1.1,1.5,1.9-.1,1.7-3.2,1-5,1.2-1.4,0-2.6-.2-2.8-1-.3-.9,1.3-1.4,1.8-1.6.4-.3.5-1,.9-2.2,1.7-5.1,5.6-16.8,6.3-18.9.3-1,1-2,2-2.5,1.3-.6,3.2-.6,4,.1,1.6,3.5,6.4,19.1,8.7,23.7h.2ZM122,130.1c-.4-2.6-2.2-8.6-3.6-10.6-.6,1.2-2.2,7.5-2.9,9.7-.2.7-.4,1-.2,1,1.7,0,5.1,0,6.6,0h0Z"/>
    <path class="st2" d="M144.7,130.3c.2-3.3-2-6.9-5.9-5-.8.4-1.5,1.1-2.4,1.2-1.4.3-2.3-1.8-2.3-2.8.5-1.5,3-1.2,4.6-1.5,12.7-1.4,9.3,5.5,10,15,.1.9.9,1.6,1.2,2.3.6,1.3-1.1,1.9-2.4,1.8-1.4,0-2.2-1.4-2.9-1.4-.7,0-2,.9-3.1,1.2-9,3.2-12.1-7.8-3.3-10.1,1-.3,2.1-.4,3.1-.4.9-.1,2.4.2,3.2-.2v-.2ZM144.6,133.3c-1.5-.2-3.8-.6-5.3-.1-1.7.2-2.6,3.2-1.3,5,1.5,1.7,5.5,1.1,6.3-.8.5-1.2.5-2.7.5-3.9h-.1Z"/>
  </g>
</svg>