<?xml version="1.0" encoding="utf-8"?>
<!-- Generator: Adobe Illustrator 28.1.0, SVG Export Plug-In . SVG Version: 6.00 Build 0)  -->
<svg version="1.1" id="图层_1" xmlns="http://www.w3.org/2000/svg" xmlns:xlink="http://www.w3.org/1999/xlink" x="0px" y="0px"
	 width="256px" height="256px" viewBox="0 0 256 256" style="enable-background:new 0 0 256 256;" xml:space="preserve">
<style type="text/css">
	.st0{fill-rule:evenodd;clip-rule:evenodd;fill:#246191;}
	.st1{fill-rule:evenodd;clip-rule:evenodd;fill:url(#SVGID_1_);filter:url(#Adobe_OpacityMaskFilter);}
	.st2{mask:url(#mask0_937_21024_00000019676825979578208000000002352725869351177403_);}
	.st3{fill-rule:evenodd;clip-rule:evenodd;fill-opacity:0.3;}
	.st4{fill:url(#SVGID_00000137111677198566169970000016424242198321587599_);}
	.st5{fill:url(#SVGID_00000010279316466421205810000010679961160026866325_);}
	.st6{fill:url(#SVGID_00000047028324207747063620000007468593915401780367_);}
	.st7{fill:#2A5483;}
	.st8{fill:#FFFFFF;}
</style>
<path class="st0" d="M104.4,42.4c-4.4-5.3-10.9-8.4-17.8-8.4H37h-8c-6.6,0-12,5.4-12,12v8v4.1v10.1V160c0,6.6,5.4,12,12,12h200
	c6.6,0,12-5.4,12-12V78.1c0-11-9-20-20-20H117.4L104.4,42.4z"/>
<defs>
	<filter id="Adobe_OpacityMaskFilter" filterUnits="userSpaceOnUse" x="17" y="62" width="224" height="110">
		<feColorMatrix  type="matrix" values="1 0 0 0 0  0 1 0 0 0  0 0 1 0 0  0 0 0 1 0"/>
	</filter>
</defs>
<mask maskUnits="userSpaceOnUse" x="17" y="62" width="224" height="110" id="mask0_937_21024_00000019676825979578208000000002352725869351177403_">
	
		<linearGradient id="SVGID_1_" gradientUnits="userSpaceOnUse" x1="31.4088" y1="238.3791" x2="212.1768" y2="57.2371" gradientTransform="matrix(1 0 0 -1 0 258)">
		<stop  offset="0" style="stop-color:#05815D"/>
		<stop  offset="1" style="stop-color:#0C575F"/>
	</linearGradient>
	<path class="st1" d="M104.4,42.4c-4.4-5.3-10.9-8.4-17.8-8.4H37h-8c-6.6,0-12,5.4-12,12v8v4.1v10.1V160c0,6.6,5.4,12,12,12h200
		c6.6,0,12-5.4,12-12V78.1c0-11-9-20-20-20H117.4L104.4,42.4z"/>
</mask>
<g class="st2">
	<g>
		<path class="st3" d="M92.8,74c5,0,9.8-1.6,13.8-4.6l9.9-7.4H229c6.6,0,12,5.4,12,12v34v52c0,6.6-5.4,12-12,12H29
			c-6.6,0-12-5.4-12-12v-52V86c0-6.6,5.4-12,12-12h58H92.8z"/>
	</g>
</g>
<g>
	
		<linearGradient id="SVGID_00000022547843383110999830000005206320103564123808_" gradientUnits="userSpaceOnUse" x1="129" y1="139.149" x2="129" y2="48.043" gradientTransform="matrix(1 0 0 -1 0 258)">
		<stop  offset="0" style="stop-color:#1368A0"/>
		<stop  offset="1" style="stop-color:#417191"/>
	</linearGradient>
	<path style="fill:url(#SVGID_00000022547843383110999830000005206320103564123808_);" d="M17,114h224v82c0,11-9,20-20,20H37
		c-11,0-20-9-20-20V114z"/>
</g>
<linearGradient id="SVGID_00000169525153694690387070000018292826002113136797_" gradientUnits="userSpaceOnUse" x1="19" y1="104" x2="237.486" y2="104" gradientTransform="matrix(1 0 0 -1 0 258)">
	<stop  offset="0" style="stop-color:#322319"/>
	<stop  offset="5.107890e-02" style="stop-color:#5A4B41"/>
	<stop  offset="0.1216" style="stop-color:#B9B9AA"/>
	<stop  offset="0.9476" style="stop-color:#BEB9AA"/>
	<stop  offset="1" style="stop-color:#694B41"/>
</linearGradient>
<path style="fill:url(#SVGID_00000169525153694690387070000018292826002113136797_);" d="M39,99h180c11,0,20,9,20,20v70
	c0,11-9,20-20,20H39c-11,0-20-9-20-20v-70C19,108,28,99,39,99z"/>
<g>
	
		<linearGradient id="SVGID_00000155107362577964499490000015702085093801592456_" gradientUnits="userSpaceOnUse" x1="129" y1="202.256" x2="129" y2="70.062" gradientTransform="matrix(1 0 0 -1 0 258)">
		<stop  offset="0" style="stop-color:#48A5F3"/>
		<stop  offset="1" style="stop-color:#155891"/>
	</linearGradient>
	<path style="fill:url(#SVGID_00000155107362577964499490000015702085093801592456_);" d="M92.8,74c5,0,9.8-1.6,13.8-4.6l9.9-7.4
		H221c11,0,20,9,20,20v100c0,6.6-5.4,12-12,12H29c-6.6,0-12-5.4-12-12V94c0-11,9-20,20-20H92.8z"/>
</g>
<g>
	<path class="st7" d="M17,182c0,6.6,5.4,12,12,12V75.7C21.9,78.8,17,85.8,17,94V182z"/>
</g>
<path class="st8" d="M113.2,104h-2.6l-14.4,36.5c-1.7,4.9-3.3,6.4-6.9,6.6H89v2.9h16.6v-2.9h-1.3c-3.4,0-5.1-1.2-5.1-3.6
	c0-0.8,0.2-1.6,0.6-2.6l2.1-5.5h16.6l3.4,8.4c0.4,1,0.5,1.4,0.5,1.7c0,1-1.6,1.6-3.9,1.6h-2.6v2.9h19.4v-2.9h-0.9
	c-3.3-0.1-3.8-0.4-5.3-4L113.2,104z M110.1,114.3l7.1,17.8h-14L110.1,114.3z"/>
<path class="st8" d="M164.1,129.9c0-3.9-0.7-5.9-2.5-7.4c-2.1-1.7-5.1-2.5-9.1-2.5c-7.1,0-12.2,3.3-12.2,7.9c0,2.3,1.4,3.8,3.6,3.8
	c2,0,3.4-1.3,3.4-3.2c0-0.8-0.3-1.7-0.9-2.6c-0.4-0.4-0.4-0.6-0.4-0.9c0-1.3,2.5-2.4,5.5-2.4c2,0,4.2,0.6,5.2,1.6
	c1.2,1,1.6,2.5,1.6,5.3v2.4c-6.5,1.1-8.6,1.6-11.6,2.8c-5.4,2-8,4.9-8,8.9c0,4.5,3.5,7.3,9.1,7.3c4.3,0,8.2-1.8,10.9-4.9
	c1,3.2,2.6,4.4,5.5,4.4c2.8,0,5.8-1.8,5.8-3.6c0-0.4-0.2-0.8-0.6-0.8c-0.2,0-0.5,0.1-0.9,0.2c-0.9,0.4-1.3,0.4-1.8,0.4
	c-1.8,0-2.4-1.1-2.4-4.3V129.9z M158.2,137.5c0,3.8-0.2,4.6-1.3,6.3c-1.6,2.3-4.4,3.9-7.1,3.9c-2.9,0-4.9-2.1-4.9-4.9
	c0-2.6,1.3-4.5,4.1-5.8c1.9-0.9,4.4-1.5,9.3-2.3V137.5z"/>
</svg>
