<?xml version="1.0" encoding="utf-8"?>
<!-- Generator: Adobe Illustrator 28.1.0, SVG Export Plug-In . SVG Version: 6.00 Build 0)  -->
<svg version="1.1" id="图层_1" xmlns="http://www.w3.org/2000/svg" xmlns:xlink="http://www.w3.org/1999/xlink" x="0px" y="0px"
	 width="256px" height="256px" viewBox="0 0 256 256" style="enable-background:new 0 0 256 256;" xml:space="preserve">
<style type="text/css">
	.st0{fill-rule:evenodd;clip-rule:evenodd;fill:#731A22;}
	.st1{fill-rule:evenodd;clip-rule:evenodd;fill:url(#SVGID_1_);filter:url(#Adobe_OpacityMaskFilter);}
	.st2{mask:url(#mask0_725_16458_00000153696265736148085360000015069699498345013929_);}
	.st3{fill-rule:evenodd;clip-rule:evenodd;fill-opacity:0.3;}
	.st4{fill-rule:evenodd;clip-rule:evenodd;fill:url(#SVGID_00000000926475398754881890000007221926054646251155_);}
	.st5{display:none;}
	.st6{display:inline;fill:url(#SVGID_00000049207481938034269930000010964578051947676034_);}
	.st7{display:inline;fill:url(#SVGID_00000009555137436940110520000009079788913998171041_);}
	.st8{display:inline;fill:url(#SVGID_00000183935989511215118800000009978957131917185974_);}
	.st9{display:inline;fill:url(#SVGID_00000170959021818292242040000014742366695252339390_);}
	.st10{display:inline;fill:url(#SVGID_00000059309876801314039290000015299767991690070971_);}
</style>
<path class="st0" d="M104.4,42.4c-4.4-5.3-10.9-8.4-17.8-8.4H29c-6.6,0-12,5.4-12,12v12.1v10.1V160c0,6.6,5.4,12,12,12h200
	c6.6,0,12-5.4,12-12V70.1c0-6.6-5.4-12-12-12H117.4L104.4,42.4z"/>
<defs>
	<filter id="Adobe_OpacityMaskFilter" filterUnits="userSpaceOnUse" x="17" y="62" width="224" height="110">
		<feColorMatrix  type="matrix" values="1 0 0 0 0  0 1 0 0 0  0 0 1 0 0  0 0 0 1 0"/>
	</filter>
</defs>
<mask maskUnits="userSpaceOnUse" x="17" y="62" width="224" height="110" id="mask0_725_16458_00000153696265736148085360000015069699498345013929_">
	
		<linearGradient id="SVGID_1_" gradientUnits="userSpaceOnUse" x1="32.5816" y1="239.5494" x2="213.3495" y2="58.4074" gradientTransform="matrix(1 0 0 -1 0 258)">
		<stop  offset="0" style="stop-color:#05815D"/>
		<stop  offset="1" style="stop-color:#0C575F"/>
	</linearGradient>
	<path class="st1" d="M104.4,42.4c-4.4-5.3-10.9-8.4-17.8-8.4H29c-6.6,0-12,5.4-12,12v12.1v10.1V160c0,6.6,5.4,12,12,12h200
		c6.6,0,12-5.4,12-12V70.1c0-6.6-5.4-12-12-12H117.4L104.4,42.4z"/>
</mask>
<g class="st2">
	<g>
		<path class="st3" d="M92.8,74c5,0,9.8-1.6,13.8-4.6l9.9-7.4H229c6.6,0,12,5.4,12,12v34v52c0,6.6-5.4,12-12,12H29
			c-6.6,0-12-5.4-12-12v-52V86c0-6.6,5.4-12,12-12h58H92.8z"/>
	</g>
</g>
<g>
	
		<linearGradient id="SVGID_00000147942068651993463240000017735038392008484028_" gradientUnits="userSpaceOnUse" x1="17" y1="196" x2="241" y2="48" gradientTransform="matrix(1 0 0 -1 0 258)">
		<stop  offset="0" style="stop-color:#FBF3ED"/>
		<stop  offset="1" style="stop-color:#DA8E9A"/>
	</linearGradient>
	<path style="fill-rule:evenodd;clip-rule:evenodd;fill:url(#SVGID_00000147942068651993463240000017735038392008484028_);" d="
		M92.8,74c5,0,9.8-1.6,13.8-4.6l9.9-7.4H229c6.6,0,12,5.4,12,12v34v90c0,6.6-5.4,12-12,12H29c-6.6,0-12-5.4-12-12v-90V86
		c0-6.6,5.4-12,12-12h58H92.8z"/>
</g>
<g class="st5">
	
		<linearGradient id="SVGID_00000174580737415908696180000002834558007526684590_" gradientUnits="userSpaceOnUse" x1="105.2395" y1="134.098" x2="105.2395" y2="74" gradientTransform="matrix(1 0 0 -1 0 258)">
		<stop  offset="0" style="stop-color:#FFA358"/>
		<stop  offset="0.4745" style="stop-color:#FF974B"/>
		<stop  offset="1" style="stop-color:#D95A07"/>
	</linearGradient>
	<path style="display:inline;fill:url(#SVGID_00000174580737415908696180000002834558007526684590_);" d="M76,184v-19.9l23.8-40.2
		l34.7,60.1H76z"/>
</g>
<g class="st5">
	
		<linearGradient id="SVGID_00000171713127821374856060000000094336355258941056_" gradientUnits="userSpaceOnUse" x1="127.2902" y1="151.549" x2="127.2902" y2="74" gradientTransform="matrix(1 0 0 -1 0 258)">
		<stop  offset="0" style="stop-color:#FFA358"/>
		<stop  offset="0.4745" style="stop-color:#FF974B"/>
		<stop  offset="1" style="stop-color:#D95A07"/>
	</linearGradient>
	<path style="display:inline;fill:url(#SVGID_00000171713127821374856060000000094336355258941056_);" d="M134.5,184l-34.7-60.1
		l10.3-17.5l44.8,77.5H134.5z"/>
</g>
<g class="st5">
	
		<linearGradient id="SVGID_00000045604766021810041130000018187798229013514172_" gradientUnits="userSpaceOnUse" x1="142.8465" y1="169" x2="142.8465" y2="74" gradientTransform="matrix(1 0 0 -1 0 258)">
		<stop  offset="0" style="stop-color:#FFA358"/>
		<stop  offset="0.4745" style="stop-color:#FF974B"/>
		<stop  offset="1" style="stop-color:#D95A07"/>
	</linearGradient>
	<path style="display:inline;fill:url(#SVGID_00000045604766021810041130000018187798229013514172_);" d="M110.1,106.5L120.4,89
		l55.2,95h-20.8L110.1,106.5z"/>
</g>
<g class="st5">
	
		<linearGradient id="SVGID_00000041294203380783939330000012115348461342626693_" gradientUnits="userSpaceOnUse" x1="151.0065" y1="169" x2="151.0065" y2="74" gradientTransform="matrix(1 0 0 -1 0 258)">
		<stop  offset="0" style="stop-color:#FFA358"/>
		<stop  offset="0.4745" style="stop-color:#FF974B"/>
		<stop  offset="1" style="stop-color:#D95A07"/>
	</linearGradient>
	<path style="display:inline;fill:url(#SVGID_00000041294203380783939330000012115348461342626693_);" d="M181.6,184h-6l-55.2-95
		H141l40.7,70V184z"/>
</g>
<g class="st5">
	
		<linearGradient id="SVGID_00000098198317600143247160000002750362797251379358_" gradientUnits="userSpaceOnUse" x1="161.292" y1="169" x2="161.292" y2="98.964" gradientTransform="matrix(1 0 0 -1 0 258)">
		<stop  offset="0" style="stop-color:#FFA358"/>
		<stop  offset="0.4745" style="stop-color:#FF974B"/>
		<stop  offset="1" style="stop-color:#D95A07"/>
	</linearGradient>
	<path style="display:inline;fill:url(#SVGID_00000098198317600143247160000002750362797251379358_);" d="M181.6,89v70L141,89H181.6
		z"/>
</g>
<path class="st0" d="M171,128.1c0,22-17.9,39.9-39.9,39.9c-8.9,0-17-2.9-23.7-7.8l-20,20c-2.3,2.3-6.1,2.3-8.5,0
	c-2.3-2.3-2.3-6.1,0-8.5l20-20c-4.9-6.6-7.8-14.8-7.8-23.7c0-22,17.9-39.9,39.9-39.9C153.2,88.2,171,106.1,171,128.1z M111.9,148.4
	c-0.2-0.2-0.3-0.4-0.5-0.6c-0.2-0.2-0.4-0.4-0.6-0.5c-4.7-5-7.6-11.8-7.6-19.2c0-15.4,12.5-27.9,27.9-27.9
	c15.4,0,27.9,12.5,27.9,27.9c0,15.4-12.5,27.9-27.9,27.9C123.7,156.1,116.9,153.2,111.9,148.4z"/>
</svg>
