<?xml version="1.0" encoding="utf-8"?>
<!-- Generator: Adobe Illustrator 28.1.0, SVG Export Plug-In . SVG Version: 6.00 Build 0)  -->
<svg version="1.1" id="图层_1" xmlns="http://www.w3.org/2000/svg" xmlns:xlink="http://www.w3.org/1999/xlink" x="0px" y="0px"
	 width="256px" height="256px" viewBox="0 0 256 256" style="enable-background:new 0 0 256 256;" xml:space="preserve">
<style type="text/css">
	.st0{fill-rule:evenodd;clip-rule:evenodd;fill:#D88128;}
	.st1{fill-rule:evenodd;clip-rule:evenodd;fill-opacity:0.3;}
	.st2{fill-rule:evenodd;clip-rule:evenodd;fill:url(#SVGID_1_);}
	.st3{fill:url(#SVGID_00000039126619001306876300000012461802584424156087_);}
	.st4{fill:url(#SVGID_00000175301090367855363390000005276857614512205479_);}
	.st5{fill:#E6E6E6;}
	.st6{fill:#67874E;}
	.st7{fill:#333333;}
	.st8{fill:#FFFFFF;}
	.st9{fill:#669966;}
</style>
<path class="st0" d="M104.4,42.4C100,37.1,93.5,34,86.6,34H29c-6.6,0-12,5.4-12,12v12.1v10.1V160c0,6.6,5.4,12,12,12h200
	c6.6,0,12-5.4,12-12V70.1c0-6.6-5.4-12-12-12H117.4L104.4,42.4z"/>
<g>
	<g>
		<path class="st1" d="M92.8,74c5,0,9.8-1.6,13.8-4.6l9.9-7.4H229c6.6,0,12,5.4,12,12v34v52c0,6.6-5.4,12-12,12H29
			c-6.6,0-12-5.4-12-12v-52V86c0-6.6,5.4-12,12-12h58H92.8z"/>
	</g>
</g>
<g>
	
		<linearGradient id="SVGID_1_" gradientUnits="userSpaceOnUse" x1="17" y1="304" x2="241" y2="452" gradientTransform="matrix(1 0 0 1 0 -242)">
		<stop  offset="0" style="stop-color:#FFFFFF"/>
		<stop  offset="1" style="stop-color:#E3E3E3"/>
	</linearGradient>
	<path class="st2" d="M92.8,74c5,0,9.8-1.6,13.8-4.6l9.9-7.4H229c6.6,0,12,5.4,12,12v34v90c0,6.6-5.4,12-12,12H29
		c-6.6,0-12-5.4-12-12v-90V86c0-6.6,5.4-12,12-12h58H92.8z"/>
</g>
<g>
	
		<linearGradient id="SVGID_00000099663508804328929540000001505397041355309468_" gradientUnits="userSpaceOnUse" x1="127.5196" y1="89.2326" x2="127.5196" y2="189.2811">
		<stop  offset="1.811448e-06" style="stop-color:#CC3333"/>
		<stop  offset="1" style="stop-color:#FD7E2E"/>
	</linearGradient>
	<path style="fill:url(#SVGID_00000099663508804328929540000001505397041355309468_);" d="M124.4,187.7l-45.3-45.3
		c-2.1-2.1-2.1-5.5,0-7.6l44-44c2.1-2.1,5.5-2.1,7.6,0l45.3,45.3c2.1,2.1,2.1,5.5,0,7.6l-44,44C129.9,189.8,126.5,189.8,124.4,187.7
		z"/>
	
		<linearGradient id="SVGID_00000159429059573455674210000003706861445048653207_" gradientUnits="userSpaceOnUse" x1="89.1456" y1="140.0387" x2="168.2326" y2="140.0387">
		<stop  offset="1.353259e-06" style="stop-color:#D98127"/>
		<stop  offset="1" style="stop-color:#FDD72D"/>
	</linearGradient>
	<path style="fill:url(#SVGID_00000159429059573455674210000003706861445048653207_);" d="M148,174.2h-38.7
		c-11.2,0-20.2-9-20.2-20.2v-27.8c0-11.2,9-20.2,20.2-20.2H148c11.2,0,20.2,9,20.2,20.2v27.8C168.2,165.1,159.2,174.2,148,174.2z"/>
	<ellipse class="st5" cx="129" cy="142.3" rx="30.3" ry="21"/>
	<path class="st6" d="M166.4,137.4c-2.6-3.6-7.4-9.3-15.1-14c-6.9-4.2-13.4-6-17.6-6.8c-3-0.2-6.8-0.1-11.1,0.8
		c-3.4,0.7-6.3,1.6-8.7,2.6c-1.8,1.1-3.7,2.4-5.6,3.8c-5,3.6-9,7.4-12.4,10.9c3.9-2.4,12.8-7.6,21.7-10.7c2.3-0.8,5-1.6,8.4-1.4
		c4.2,0.1,7.3,1.5,9,2.3c1.8,0.7,4.2,1.8,6.7,3.6c2.4,1.7,4.1,3.5,5.3,5c2.6,3.9,5.2,7.8,7.8,11.8L166.4,137.4z"/>
	<path class="st6" d="M90.8,148.3c0.3,0.4,0.7,0.9,1.1,1.4c0.4,0.5,0.8,1,1.2,1.5c0.9,1.1,1.9,2.2,3.1,3.4c2.5,2.5,5.8,5.3,9.8,7.7
		c0.4,0.2,0.7,0.4,1.1,0.6c0.9,0.5,1.7,1,2.6,1.4c5.5,2.8,10.4,4.1,13.9,4.7c0.1,0,0.2,0,0.3,0c1,0,2,0.1,3.1,0
		c2.4,0,5.1-0.3,8.1-0.9c0.4-0.1,0.7-0.2,1.1-0.2c2.9-0.6,5.4-1.5,7.4-2.3c0.2-0.1,0.4-0.2,0.6-0.3c0.2-0.1,0.3-0.2,0.5-0.3
		c0.5-0.2,0.9-0.6,1.5-0.9c0.4-0.3,0.9-0.6,1.4-1c0.5-0.4,1.1-0.9,1.6-1.3c0.3-0.2,0.4-0.3,0.6-0.5c0.2-0.1,0.4-0.3,0.5-0.5
		c0.4-0.3,0.7-0.7,1.1-1.1c0.8-0.8,1.7-1.7,2.7-2.7s1.9-2.2,3-3.5c0.5-0.6,1-1.3,1.5-2c0.2-0.3,0.5-0.7,0.7-1.1
		c0.1-0.2,0.3-0.4,0.4-0.7c0-0.1,0.1-0.3,0.2-0.3c-0.1,0.1-0.2,0.2-0.3,0.2c-0.1,0.1-0.3,0.2-0.4,0.3c-0.2,0.2-0.5,0.4-0.7,0.6
		c-0.5,0.4-1,0.8-1.5,1.1c-0.9,0.7-1.8,1.3-2.6,1.8c-1.8,1.1-3.3,2-4.7,2.7c-1.7,0.9-3.5,1.6-5,2.1c-1.5,0.6-2.8,1-4,1.3
		c-1.7,0.5-3,0.9-4.2,1.2c-1.2,0.3-2.2,0.5-3.4,0.6c-1.2,0.1-2.7,0.2-4.5,0.1c-1.8-0.1-4-0.4-6.3-1c-1.5-0.7-2.9-1.4-4.4-2.3
		c-1.5-0.8-3.2-1.9-4.7-2.9c-2.1-1.4-3.9-2.8-5.5-4.1c-1.1-1.7-2.3-3.5-3.4-5.2c-0.6-0.9-1.2-1.8-1.7-2.7c-0.3-0.4-0.6-0.9-0.9-1.3
		c-0.1-0.2-0.3-0.4-0.4-0.7c-0.1-0.1-0.2-0.4-0.3-0.4c-0.2,0-0.4,0.3-0.6,0.4c-0.2,0.2-0.4,0.3-0.7,0.5c-0.4,0.3-0.9,0.6-1.3,0.9
		c-0.8,0.6-1.6,1.1-2.5,1.7c-0.9,0.6-1.8,1.2-2.6,1.8c-0.4,0.3-0.9,0.6-1.3,0.9c-0.2,0.2-0.4,0.3-0.7,0.5
		C91.2,148.1,90.9,148.2,90.8,148.3L90.8,148.3z"/>
	<circle class="st7" cx="129.1" cy="142.2" r="14.9"/>
	<circle class="st8" cx="121.4" cy="137.3" r="6"/>
</g>
<path class="st6" d="M-45.4,39.7"/>
<path class="st9" d="M-19.8,170.8"/>
</svg>
