<?xml version="1.0" encoding="utf-8"?>
<!-- Generator: Adobe Illustrator 28.1.0, SVG Export Plug-In . SVG Version: 6.00 Build 0)  -->
<svg version="1.1" id="图层_1" xmlns="http://www.w3.org/2000/svg" xmlns:xlink="http://www.w3.org/1999/xlink" x="0px" y="0px"
	 width="256px" height="256px" viewBox="0 0 256 256" style="enable-background:new 0 0 256 256;" xml:space="preserve">
<style type="text/css">
	.st0{fill-rule:evenodd;clip-rule:evenodd;fill:#191919;}
	.st1{fill-rule:evenodd;clip-rule:evenodd;fill:url(#SVGID_1_);filter:url(#Adobe_OpacityMaskFilter);}
	.st2{mask:url(#mask0_538_12134_00000079472243886669859800000007452037408107111554_);}
	.st3{fill-rule:evenodd;clip-rule:evenodd;fill-opacity:0.3;}
	.st4{fill-rule:evenodd;clip-rule:evenodd;fill:url(#SVGID_00000119084709562612266210000007855268409674643366_);}
	.st5{display:none;fill-rule:evenodd;clip-rule:evenodd;fill:#FFFFFF;}
	.st6{display:none;fill-rule:evenodd;clip-rule:evenodd;fill:#C0DBEB;}
	.st7{display:none;fill:#FFFFFF;}
	.st8{fill:#FFFFFF;}
</style>
<path class="st0" d="M104.4,42.4c-4.4-5.3-10.9-8.4-17.8-8.4H29c-6.6,0-12,5.4-12,12v12.1v10.1V160c0,6.6,5.4,12,12,12h200
	c6.6,0,12-5.4,12-12V70.1c0-6.6-5.4-12-12-12H117.4L104.4,42.4z"/>
<defs>
	<filter id="Adobe_OpacityMaskFilter" filterUnits="userSpaceOnUse" x="17" y="62" width="224" height="110">
		<feColorMatrix  type="matrix" values="1 0 0 0 0  0 1 0 0 0  0 0 1 0 0  0 0 0 1 0"/>
	</filter>
</defs>
<mask maskUnits="userSpaceOnUse" x="17" y="62" width="224" height="110" id="mask0_538_12134_00000079472243886669859800000007452037408107111554_">
	
		<linearGradient id="SVGID_1_" gradientUnits="userSpaceOnUse" x1="32.5816" y1="239.5494" x2="213.3495" y2="58.4074" gradientTransform="matrix(1 0 0 -1 0 258)">
		<stop  offset="0" style="stop-color:#05815D"/>
		<stop  offset="1" style="stop-color:#0C575F"/>
	</linearGradient>
	<path class="st1" d="M104.4,42.4c-4.4-5.3-10.9-8.4-17.8-8.4H29c-6.6,0-12,5.4-12,12v12.1v10.1V160c0,6.6,5.4,12,12,12h200
		c6.6,0,12-5.4,12-12V70.1c0-6.6-5.4-12-12-12H117.4L104.4,42.4z"/>
</mask>
<g class="st2">
	<g>
		<path class="st3" d="M92.8,74c5,0,9.8-1.6,13.8-4.6l9.9-7.4H229c6.6,0,12,5.4,12,12v34v52c0,6.6-5.4,12-12,12H29
			c-6.6,0-12-5.4-12-12v-52V86c0-6.6,5.4-12,12-12h58H92.8z"/>
	</g>
</g>
<g>
	
		<linearGradient id="SVGID_00000140707696891547934920000006939622389120646313_" gradientUnits="userSpaceOnUse" x1="17" y1="196" x2="241" y2="48" gradientTransform="matrix(1 0 0 -1 0 258)">
		<stop  offset="0" style="stop-color:#33A9DC"/>
		<stop  offset="1" style="stop-color:#1572B6"/>
	</linearGradient>
	<path style="fill-rule:evenodd;clip-rule:evenodd;fill:url(#SVGID_00000140707696891547934920000006939622389120646313_);" d="
		M92.8,74c5,0,9.8-1.6,13.8-4.6l9.9-7.4H229c6.6,0,12,5.4,12,12v34v90c0,6.6-5.4,12-12,12H29c-6.6,0-12-5.4-12-12v-90V86
		c0-6.6,5.4-12,12-12h58H92.8z"/>
</g>
<path class="st5" d="M94,106l6.4,71.1l28.6,7.9l28.7-7.9L164,106H94z M129,120.9h-21.7l0.8,8.7H129h0.2h12.1l-0.8,8.9h-11.3h-20.3
	l0.8,8.7H129h10.8l-1,11.3l-9.7,2.6l-9.7-2.6l-0.6-7h-4.7h-4l1.2,13.7l17.7,4.9v0l0.1,0l0.1,0l0,0v0l17.7-4.9l0.1-1.5l2.1-23
	l0.2-2.3l1.6-17.7h-21.7h0H129z"/>
<path class="st6" d="M129,170.4v8.6l23.5-6.4L158,112h-29v8.9h21.9l-1.6,17.7l-0.2,2.3l-2.1,23l-0.1,1.5L129,170.4z M129,161.3
	l9.7-2.6l1-11.3H129V161.3z M129,138.6h11.5l0.8-8.9H129V138.6z"/>
<path class="st7" d="M111,87h10v4.3h-5.8v4.3h5.8v4.3h-10V87z"/>
<path class="st7" d="M123,87h11v3.7h-6.4v0.7h6.4v8.5h-11v-3.9h6.4v-0.7H123V87z"/>
<path class="st7" d="M136,87h11v3.7h-6.4v0.7h6.4v8.5h-11v-3.9h6.4v-0.7H136V87z"/>
<path class="st8" d="M101.3,122.6H117c4.3,0.1,7.8-3.3,7.8-7.6c0-0.1,0-0.2,0-0.2V99.1c0.1-4.3-3.3-7.8-7.6-7.8c-0.1,0-0.2,0-0.2,0
	h-15.7c-4.3-0.1-7.8,3.3-7.8,7.6c0,0.1,0,0.2,0,0.2v15.7C93.5,119.1,97,122.6,101.3,122.6L101.3,122.6z M98.7,99.1
	c-0.1-1.4,1-2.5,2.3-2.6c0.1,0,0.2,0,0.2,0H117c1.4-0.1,2.5,1,2.6,2.3c0,0.1,0,0.2,0,0.2v15.7c0.1,1.4-1,2.5-2.3,2.6
	c-0.1,0-0.2,0-0.2,0h-15.7c-1.4,0.1-2.5-1-2.6-2.3c0-0.1,0-0.2,0-0.2V99.1z M160.3,148.7h-18.5c-3.5,0-6.3,2.8-6.3,6.3v18.8
	c0.1,3.4,2.9,6.2,6.3,6.2h18.8c3.5,0,6.3-2.8,6.3-6.3v-18.8c0-3.5-2.8-6.3-6.3-6.3L160.3,148.7z M161.1,132h-3.6l6.5,11.2l6.5-11.2
	h-4.2c-1.9-18.6-17.5-32.9-36.3-32.9v5.2C145.9,104.4,159.2,116.3,161.1,132L161.1,132z M99,139.6h3.6l-6.5-11.2l-6.5,11.2h4.2
	c2,18.5,17.6,32.6,36.3,32.6V167C114.3,167,101,155.3,99,139.6z"/>
</svg>
