<?xml version="1.0" encoding="utf-8"?>
<!-- Generator: Adobe Illustrator 28.1.0, SVG Export Plug-In . SVG Version: 6.00 Build 0)  -->
<svg version="1.1" id="图层_1" xmlns="http://www.w3.org/2000/svg" xmlns:xlink="http://www.w3.org/1999/xlink" x="0px" y="0px"
	 width="256px" height="256px" viewBox="0 0 256 256" style="enable-background:new 0 0 256 256;" xml:space="preserve">
<style type="text/css">
	.st0{fill-rule:evenodd;clip-rule:evenodd;fill:url(#SVGID_1_);}
	
		.st1{fill-rule:evenodd;clip-rule:evenodd;fill:url(#SVGID_00000096751763384025199960000009653446349637813906_);filter:url(#Adobe_OpacityMaskFilter);}
	.st2{mask:url(#mask0_995_26272_00000151515973719208547340000008848016105446216336_);}
	.st3{fill-rule:evenodd;clip-rule:evenodd;fill-opacity:0.3;}
	.st4{fill-rule:evenodd;clip-rule:evenodd;fill:#DAD5D5;}
	.st5{display:none;fill:#1B1817;}
	.st6{fill:url(#SVGID_00000082336518940062363430000000479714687604661894_);}
	.st7{fill:#DAD5D5;}
</style>
<linearGradient id="SVGID_1_" gradientUnits="userSpaceOnUse" x1="17" y1="103" x2="241" y2="103">
	<stop  offset="0" style="stop-color:#383636"/>
	<stop  offset="1" style="stop-color:#1D1B1B"/>
</linearGradient>
<path class="st0" d="M104.4,42.4C100,37.1,93.5,34,86.6,34H29c-6.6,0-12,5.4-12,12v12.1v10.1V160c0,6.6,5.4,12,12,12h200
	c6.6,0,12-5.4,12-12V70.1c0-6.6-5.4-12-12-12H117.4L104.4,42.4z"/>
<defs>
	<filter id="Adobe_OpacityMaskFilter" filterUnits="userSpaceOnUse" x="17" y="62" width="224" height="110">
		<feColorMatrix  type="matrix" values="1 0 0 0 0  0 1 0 0 0  0 0 1 0 0  0 0 0 1 0"/>
	</filter>
</defs>
<mask maskUnits="userSpaceOnUse" x="17" y="62" width="224" height="110" id="mask0_995_26272_00000151515973719208547340000008848016105446216336_">
	
		<linearGradient id="SVGID_00000008141148987243769980000010536369063173058703_" gradientUnits="userSpaceOnUse" x1="32.5909" y1="260.4413" x2="213.3588" y2="441.5833" gradientTransform="matrix(1 0 0 1 0 -242)">
		<stop  offset="0" style="stop-color:#05815D"/>
		<stop  offset="1" style="stop-color:#0C575F"/>
	</linearGradient>
	
		<path style="fill-rule:evenodd;clip-rule:evenodd;fill:url(#SVGID_00000008141148987243769980000010536369063173058703_);filter:url(#Adobe_OpacityMaskFilter);" d="
		M104.4,42.4C100,37.1,93.5,34,86.6,34H29c-6.6,0-12,5.4-12,12v12.1v10.1V160c0,6.6,5.4,12,12,12h200c6.6,0,12-5.4,12-12V70.1
		c0-6.6-5.4-12-12-12H117.4L104.4,42.4z"/>
</mask>
<g class="st2">
	<g>
		<path class="st3" d="M92.8,74c5,0,9.8-1.6,13.8-4.6l9.9-7.4H229c6.6,0,12,5.4,12,12v34v52c0,6.6-5.4,12-12,12H29
			c-6.6,0-12-5.4-12-12v-52V86c0-6.6,5.4-12,12-12h58H92.8z"/>
	</g>
</g>
<g>
	<g>
		<path class="st4" d="M92.8,74c5,0,9.8-1.6,13.8-4.6l9.9-7.4H229c6.6,0,12,5.4,12,12v34v90c0,6.6-5.4,12-12,12H29
			c-6.6,0-12-5.4-12-12v-90V86c0-6.6,5.4-12,12-12h58H92.8z"/>
	</g>
</g>
<path class="st5" d="M98.9,81.7H205c12.6,0,22.7,10.2,22.7,22.7v106.1c0,12.6-10.2,22.7-22.7,22.7H98.9c-12.6,0-22.7-10.2-22.7-22.7
	v-106C76.2,91.9,86.4,81.7,98.9,81.7z"/>
<linearGradient id="SVGID_00000069358954411323856430000002947877155209016765_" gradientUnits="userSpaceOnUse" x1="96.0447" y1="139.55" x2="171.511" y2="139.55">
	<stop  offset="0" style="stop-color:#383636"/>
	<stop  offset="1" style="stop-color:#1D1B1B"/>
</linearGradient>
<path style="fill:url(#SVGID_00000069358954411323856430000002947877155209016765_);" d="M133.8,190.7c0,0-8.6-7-17.3-16.2
	c-6.8-7.2-13.3-15.9-16.8-22.7c-7.8-15.4-3.2-33.8,14.6-63.4l13.3,18.3c0,0,3-0.5,6.2-0.5s6.2,0.5,6.2,0.5l13.3-18.3
	c17.8,29.6,22.3,48,14.6,63.4c-3.5,6.8-10,15.5-16.8,22.7C142.5,183.6,133.8,190.7,133.8,190.7z"/>
<path class="st7" d="M107.4,126.1c7.8,2,14.2,9.5,17.5,16.5c3.7,8,2.2,15.3-6.4,12.5c-9.7-3.5-14.4-11.1-16.7-17
	C100.6,134.9,98.3,123.8,107.4,126.1z"/>
<path class="st7" d="M160.2,126.1c-7.8,2-14.2,9.5-17.5,16.5c-3.7,8-2.2,15.3,6.4,12.5c9.7-3.5,14.4-11.1,16.7-17
	C167,134.9,169.4,123.8,160.2,126.1z"/>
<path class="st7" d="M133.8,165.4l-8.1,8.6c-1,1-1.7,1.2-3.2,0.5c-0.7-0.5-0.5-1.5,0-2l9.4-10.6c1-1.2,3-1.2,3.9,0l9.4,10.6
	c0.5,0.5,0.7,1.5,0,2c-1.5,0.7-2.2,0.5-3.2-0.5L133.8,165.4z"/>
</svg>
