<?xml version="1.0" encoding="utf-8"?>
<!-- Generator: Adobe Illustrator 28.1.0, SVG Export Plug-In . SVG Version: 6.00 Build 0)  -->
<svg version="1.1" id="图层_1" xmlns="http://www.w3.org/2000/svg" xmlns:xlink="http://www.w3.org/1999/xlink" x="0px" y="0px"
	 width="256px" height="256px" viewBox="0 0 256 256" style="enable-background:new 0 0 256 256;" xml:space="preserve">
<path style="fill-rule:evenodd;clip-rule:evenodd;fill:#DAD5D5;" d="M104.4,42.4c-4.4-5.3-10.9-8.4-17.8-8.4H29c-6.6,0-12,5.4-12,12
	v12.1v10.1V160c0,6.6,5.4,12,12,12h200c6.6,0,12-5.4,12-12V70.1c0-6.6-5.4-12-12-12H117.4L104.4,42.4z"/>
<defs>
	<filter id="Adobe_OpacityMaskFilter" filterUnits="userSpaceOnUse" x="17" y="62" width="224" height="110">
		<feColorMatrix  type="matrix" values="1 0 0 0 0  0 1 0 0 0  0 0 1 0 0  0 0 0 1 0"/>
	</filter>
</defs>
<mask maskUnits="userSpaceOnUse" x="17" y="62" width="224" height="110" id="mask0_995_26272_00000129920710859317120480000007871804311418902693_">
	
		<linearGradient id="SVGID_1_" gradientUnits="userSpaceOnUse" x1="32.5816" y1="239.5494" x2="213.3495" y2="58.4074" gradientTransform="matrix(1 0 0 -1 0 258)">
		<stop  offset="0" style="stop-color:#05815D"/>
		<stop  offset="1" style="stop-color:#0C575F"/>
	</linearGradient>
	<path style="fill-rule:evenodd;clip-rule:evenodd;fill:url(#SVGID_1_);filter:url(#Adobe_OpacityMaskFilter);" d="M104.4,42.4
		c-4.4-5.3-10.9-8.4-17.8-8.4H29c-6.6,0-12,5.4-12,12v12.1v10.1V160c0,6.6,5.4,12,12,12h200c6.6,0,12-5.4,12-12V70.1
		c0-6.6-5.4-12-12-12H117.4L104.4,42.4z"/>
</mask>
<g style="mask:url(#mask0_995_26272_00000129920710859317120480000007871804311418902693_);">
	<g>
		<path style="fill-rule:evenodd;clip-rule:evenodd;fill-opacity:0.3;" d="M92.8,74c5,0,9.8-1.6,13.8-4.6l9.9-7.4H229
			c6.6,0,12,5.4,12,12v34v52c0,6.6-5.4,12-12,12H29c-6.6,0-12-5.4-12-12v-52V86c0-6.6,5.4-12,12-12h58H92.8z"/>
	</g>
</g>
<g>
	<g>
		
			<linearGradient id="SVGID_00000083086686535193339540000003747288279905845638_" gradientUnits="userSpaceOnUse" x1="17" y1="196" x2="241" y2="48" gradientTransform="matrix(1 0 0 -1 0 258)">
			<stop  offset="0" style="stop-color:#383636"/>
			<stop  offset="1" style="stop-color:#1D1B1B"/>
		</linearGradient>
		<path style="fill-rule:evenodd;clip-rule:evenodd;fill:url(#SVGID_00000083086686535193339540000003747288279905845638_);" d="
			M92.8,74c5,0,9.8-1.6,13.8-4.6l9.9-7.4H229c6.6,0,12,5.4,12,12v34v90c0,6.6-5.4,12-12,12H29c-6.6,0-12-5.4-12-12v-90V86
			c0-6.6,5.4-12,12-12h58H92.8z"/>
	</g>
</g>
<path style="display:none;fill:#1B1817;" d="M98.9,81.7H205c12.6,0,22.7,10.2,22.7,22.7v106.1c0,12.6-10.2,22.7-22.7,22.7H98.9
	c-12.6,0-22.7-10.2-22.7-22.7V104.5C76.2,91.9,86.4,81.7,98.9,81.7z"/>
<path style="fill:#FFFFFF;" d="M133.8,190.7c0,0-8.6-7-17.3-16.2c-6.8-7.2-13.3-15.9-16.8-22.7c-7.8-15.4-3.2-33.8,14.6-63.4
	l13.3,18.3c0,0,3-0.5,6.2-0.5c3.2,0,6.2,0.5,6.2,0.5l13.3-18.3c17.8,29.6,22.3,48,14.6,63.4c-3.5,6.8-10,15.5-16.8,22.7
	C142.5,183.6,133.8,190.7,133.8,190.7z"/>
<linearGradient id="SVGID_00000086663792145748656900000004092593521700903067_" gradientUnits="userSpaceOnUse" x1="100.6515" y1="140.796" x2="126.8374" y2="140.796">
	<stop  offset="0" style="stop-color:#383636"/>
	<stop  offset="1" style="stop-color:#1D1B1B"/>
</linearGradient>
<path style="fill:url(#SVGID_00000086663792145748656900000004092593521700903067_);" d="M107.4,126.1c7.8,2,14.2,9.5,17.5,16.5
	c3.7,8,2.2,15.3-6.4,12.5c-9.7-3.5-14.4-11.1-16.7-17C100.6,134.9,98.3,123.8,107.4,126.1z"/>
<linearGradient id="SVGID_00000098214637547881053120000000913828897012116925_" gradientUnits="userSpaceOnUse" x1="140.8033" y1="140.796" x2="166.9892" y2="140.796">
	<stop  offset="0" style="stop-color:#383636"/>
	<stop  offset="1" style="stop-color:#1D1B1B"/>
</linearGradient>
<path style="fill:url(#SVGID_00000098214637547881053120000000913828897012116925_);" d="M160.2,126.1c-7.8,2-14.2,9.5-17.5,16.5
	c-3.7,8-2.2,15.3,6.4,12.5c9.7-3.5,14.4-11.1,16.7-17C167,134.9,169.4,123.8,160.2,126.1z"/>
<linearGradient id="SVGID_00000111161222395610331590000010877725331002135209_" gradientUnits="userSpaceOnUse" x1="122.0011" y1="167.9747" x2="145.6396" y2="167.9747">
	<stop  offset="0" style="stop-color:#383636"/>
	<stop  offset="1" style="stop-color:#1D1B1B"/>
</linearGradient>
<path style="fill:url(#SVGID_00000111161222395610331590000010877725331002135209_);" d="M133.8,165.4l-8.1,8.6
	c-1,1-1.7,1.2-3.2,0.5c-0.7-0.5-0.5-1.5,0-2l9.4-10.6c1-1.2,3-1.2,3.9,0l9.4,10.6c0.5,0.5,0.7,1.5,0,2c-1.5,0.7-2.2,0.5-3.2-0.5
	L133.8,165.4z"/>
</svg>
