<?xml version="1.0" encoding="utf-8"?>
<!-- Generator: Adobe Illustrator 28.1.0, SVG Export Plug-In . SVG Version: 6.00 Build 0)  -->
<svg version="1.1" id="图层_1" xmlns="http://www.w3.org/2000/svg" xmlns:xlink="http://www.w3.org/1999/xlink" x="0px" y="0px"
	 width="256px" height="256px" viewBox="0 0 256 256" style="enable-background:new 0 0 256 256;" xml:space="preserve">
<style type="text/css">
	.st0{fill-rule:evenodd;clip-rule:evenodd;fill:#0D5454;}
	.st1{fill-rule:evenodd;clip-rule:evenodd;fill:url(#SVGID_1_);filter:url(#Adobe_OpacityMaskFilter);}
	.st2{mask:url(#mask0_727_17526_00000171707986339233768060000001790180693255181246_);}
	.st3{fill-rule:evenodd;clip-rule:evenodd;fill-opacity:0.3;}
	.st4{fill-rule:evenodd;clip-rule:evenodd;fill:url(#SVGID_00000022552383126175127150000012604920496436612485_);}
	.st5{display:none;fill:url(#SVGID_00000104699295058031973370000007953438903359136665_);}
	.st6{display:none;fill:url(#SVGID_00000104667857627813629990000000695721309943252364_);}
	.st7{display:none;fill:url(#SVGID_00000114781539667018100670000007211829723873766809_);}
	.st8{display:none;fill:url(#SVGID_00000088113453489519885700000017548181696978017927_);}
	.st9{display:none;fill:url(#SVGID_00000136406256249554782360000010076929570312625064_);}
	.st10{display:none;fill:url(#SVGID_00000100372120244202392310000017124141157290795433_);}
	.st11{fill:#0D5454;}
</style>
<path class="st0" d="M104.4,42.4c-4.4-5.3-10.9-8.4-17.8-8.4H29c-6.6,0-12,5.4-12,12v12.1v10.1V160c0,6.6,5.4,12,12,12h200
	c6.6,0,12-5.4,12-12V70.1c0-6.6-5.4-12-12-12H117.4L104.4,42.4z"/>
<defs>
	<filter id="Adobe_OpacityMaskFilter" filterUnits="userSpaceOnUse" x="17" y="62" width="224" height="110">
		<feColorMatrix  type="matrix" values="1 0 0 0 0  0 1 0 0 0  0 0 1 0 0  0 0 0 1 0"/>
	</filter>
</defs>
<mask maskUnits="userSpaceOnUse" x="17" y="62" width="224" height="110" id="mask0_727_17526_00000171707986339233768060000001790180693255181246_">
	
		<linearGradient id="SVGID_1_" gradientUnits="userSpaceOnUse" x1="32.5816" y1="239.5494" x2="213.3495" y2="58.4074" gradientTransform="matrix(1 0 0 -1 0 258)">
		<stop  offset="0" style="stop-color:#05815D"/>
		<stop  offset="1" style="stop-color:#0C575F"/>
	</linearGradient>
	<path class="st1" d="M104.4,42.4c-4.4-5.3-10.9-8.4-17.8-8.4H29c-6.6,0-12,5.4-12,12v12.1v10.1V160c0,6.6,5.4,12,12,12h200
		c6.6,0,12-5.4,12-12V70.1c0-6.6-5.4-12-12-12H117.4L104.4,42.4z"/>
</mask>
<g class="st2">
	<g>
		<path class="st3" d="M92.8,74c5,0,9.8-1.6,13.8-4.6l9.9-7.4H229c6.6,0,12,5.4,12,12v34v52c0,6.6-5.4,12-12,12H29
			c-6.6,0-12-5.4-12-12v-52V86c0-6.6,5.4-12,12-12h58H92.8z"/>
	</g>
</g>
<g>
	
		<linearGradient id="SVGID_00000042007290787370010630000008929798225361297817_" gradientUnits="userSpaceOnUse" x1="17" y1="196" x2="241" y2="48" gradientTransform="matrix(1 0 0 -1 0 258)">
		<stop  offset="0" style="stop-color:#DDFEFF"/>
		<stop  offset="1" style="stop-color:#82F4F4"/>
	</linearGradient>
	<path style="fill-rule:evenodd;clip-rule:evenodd;fill:url(#SVGID_00000042007290787370010630000008929798225361297817_);" d="
		M92.8,74c5,0,9.8-1.6,13.8-4.6l9.9-7.4H229c6.6,0,12,5.4,12,12v34v90c0,6.6-5.4,12-12,12H29c-6.6,0-12-5.4-12-12v-90V86
		c0-6.6,5.4-12,12-12h58H92.8z"/>
</g>
<linearGradient id="SVGID_00000059272924732492679030000018288725585202676625_" gradientUnits="userSpaceOnUse" x1="99.7115" y1="123.439" x2="99.7115" y2="85.1314" gradientTransform="matrix(1 0 0 -1 0 258)">
	<stop  offset="0" style="stop-color:#198A8D"/>
	<stop  offset="1" style="stop-color:#2A616A"/>
</linearGradient>
<path style="display:none;fill:url(#SVGID_00000059272924732492679030000018288725585202676625_);" d="M109.4,168.8
	c-1.4,3.7-13.5,4.2-19.4,4c5.1-7.4,16.2-25.5,19.4-38.3V168.8z"/>
<linearGradient id="SVGID_00000071539958996627836730000006565930307496061118_" gradientUnits="userSpaceOnUse" x1="99.7115" y1="157.715" x2="99.7115" y2="85.164" gradientTransform="matrix(1 0 0 -1 0 258)">
	<stop  offset="0" style="stop-color:#13787C"/>
	<stop  offset="1" style="stop-color:#289798"/>
</linearGradient>
<path style="display:none;fill:url(#SVGID_00000071539958996627836730000006565930307496061118_);" d="M90,172.8v-72.6h19.4v34.3
	C106.2,147.4,95.1,165.4,90,172.8z"/>
<linearGradient id="SVGID_00000114763884944322340940000015110437861973350817_" gradientUnits="userSpaceOnUse" x1="102.8479" y1="158.8717" x2="124.5569" y2="98.3177" gradientTransform="matrix(1 0 0 -1 0 258)">
	<stop  offset="0" style="stop-color:#90C1C7"/>
	<stop  offset="1" style="stop-color:#377B7D"/>
</linearGradient>
<path style="display:none;fill:url(#SVGID_00000114763884944322340940000015110437861973350817_);" d="M112.9,98
	c-3.2,0.9-16.6,1.9-22.9,2.3c2.7,5.9,22.9,41.3,32.6,58.3h14.9c-0.4-0.4-3.8-8.7-8.2-19.4C123.9,125.9,117.2,108.9,112.9,98z"/>
<linearGradient id="SVGID_00000168080997187175916080000007749281866649559707_" gradientUnits="userSpaceOnUse" x1="159.1235" y1="157.715" x2="159.1235" y2="86.118" gradientTransform="matrix(1 0 0 -1 0 258)">
	<stop  offset="0" style="stop-color:#209999"/>
	<stop  offset="1" style="stop-color:#106D70"/>
</linearGradient>
<path style="display:none;fill:url(#SVGID_00000168080997187175916080000007749281866649559707_);" d="M149.4,100.3V170
	c0,0.8,0.9,1.4,2.3,1.9c13.7-30.9,17.1-60.6,17.1-71.6H149.4z"/>
<linearGradient id="SVGID_00000129897062050029502200000006611121940080256157_" gradientUnits="userSpaceOnUse" x1="160.266" y1="157.715" x2="160.266" y2="84.9997" gradientTransform="matrix(1 0 0 -1 0 258)">
	<stop  offset="0" style="stop-color:#48A4AD"/>
	<stop  offset="1" style="stop-color:#177880"/>
</linearGradient>
<path style="display:none;fill:url(#SVGID_00000129897062050029502200000006611121940080256157_);" d="M168.8,172.8v-72.6
	c0,11-3.4,40.7-17.1,71.6C155.7,173.2,164,173.1,168.8,172.8z"/>
<linearGradient id="SVGID_00000093178583675507420130000003227334386025243803_" gradientUnits="userSpaceOnUse" x1="157.3467" y1="158.4114" x2="135.6387" y2="105.855" gradientTransform="matrix(1 0 0 -1 0 258)">
	<stop  offset="0" style="stop-color:#54AAB0"/>
	<stop  offset="1" style="stop-color:#076267"/>
</linearGradient>
<path style="display:none;fill:url(#SVGID_00000093178583675507420130000003227334386025243803_);" d="M168.8,100.3
	c-2.3,5.5-21.9,41.1-31.4,58.3c-0.4-0.4-3.8-8.7-8.2-19.4l16.2-38.8H168.8z"/>
<path class="st11" d="M157,133.3c1.3,9-1.4,18.4-8.4,25.3c-10.4,10.2-26.3,11.5-38.1,3.8l8.2-8l-30.2-4.2l4.2,29.5l9.2-8.8
	c16.6,12.2,40.1,11.1,55.2-3.8c8.7-8.6,12.7-20.1,12.2-31.4L157,133.3z M105.8,116.4c10.3-10.2,26.3-11.5,38.1-3.8l-8.2,8l30.2,4.2
	l-4.2-29.5l-9.2,8.9c-16.6-12.2-40.1-11.1-55.2,3.8c-8.7,8.6-12.7,20.1-12.2,31.3l12.3,2.4C96,132.8,98.7,123.3,105.8,116.4z"/>
</svg>
