<?xml version="1.0" encoding="utf-8"?>
<!-- Generator: Adobe Illustrator 28.1.0, SVG Export Plug-In . SVG Version: 6.00 Build 0)  -->
<svg version="1.1" id="图层_1" xmlns="http://www.w3.org/2000/svg" xmlns:xlink="http://www.w3.org/1999/xlink" x="0px" y="0px"
	 width="256px" height="256px" viewBox="0 0 256 256" style="enable-background:new 0 0 256 256;" xml:space="preserve">
<style type="text/css">
	.st0{fill-rule:evenodd;clip-rule:evenodd;fill:#2D2C2B;}
	.st1{fill-rule:evenodd;clip-rule:evenodd;fill:url(#SVGID_1_);filter:url(#Adobe_OpacityMaskFilter);}
	.st2{mask:url(#mask0_539_13414_00000061471488774442865850000008350737237960062084_);}
	.st3{fill-rule:evenodd;clip-rule:evenodd;fill-opacity:0.3;}
	.st4{fill-rule:evenodd;clip-rule:evenodd;fill:url(#SVGID_00000094617136021498294510000002066642335165305259_);}
	.st5{fill:#2D2C2B;}
</style>
<path class="st0" d="M104.4,42.4c-4.4-5.3-10.9-8.4-17.8-8.4H29c-6.6,0-12,5.4-12,12v12.1v10.1V160c0,6.6,5.4,12,12,12h200
	c6.6,0,12-5.4,12-12V70.1c0-6.6-5.4-12-12-12H117.4L104.4,42.4z"/>
<defs>
	<filter id="Adobe_OpacityMaskFilter" filterUnits="userSpaceOnUse" x="17" y="62" width="224" height="110">
		<feColorMatrix  type="matrix" values="1 0 0 0 0  0 1 0 0 0  0 0 1 0 0  0 0 0 1 0"/>
	</filter>
</defs>
<mask maskUnits="userSpaceOnUse" x="17" y="62" width="224" height="110" id="mask0_539_13414_00000061471488774442865850000008350737237960062084_">
	
		<linearGradient id="SVGID_1_" gradientUnits="userSpaceOnUse" x1="32.5816" y1="239.5494" x2="213.3495" y2="58.4074" gradientTransform="matrix(1 0 0 -1 0 258)">
		<stop  offset="0" style="stop-color:#05815D"/>
		<stop  offset="1" style="stop-color:#0C575F"/>
	</linearGradient>
	<path class="st1" d="M104.4,42.4c-4.4-5.3-10.9-8.4-17.8-8.4H29c-6.6,0-12,5.4-12,12v12.1v10.1V160c0,6.6,5.4,12,12,12h200
		c6.6,0,12-5.4,12-12V70.1c0-6.6-5.4-12-12-12H117.4L104.4,42.4z"/>
</mask>
<g class="st2">
	<g>
		<path class="st3" d="M92.8,74c5,0,9.8-1.6,13.8-4.6l9.9-7.4H229c6.6,0,12,5.4,12,12v34v52c0,6.6-5.4,12-12,12H29
			c-6.6,0-12-5.4-12-12v-52V86c0-6.6,5.4-12,12-12h58H92.8z"/>
	</g>
</g>
<g>
	
		<linearGradient id="SVGID_00000073681477029286272980000004516421921317680008_" gradientUnits="userSpaceOnUse" x1="17" y1="196" x2="241" y2="48" gradientTransform="matrix(1 0 0 -1 0 258)">
		<stop  offset="0" style="stop-color:#C63EC3"/>
		<stop  offset="1" style="stop-color:#7A2598"/>
	</linearGradient>
	<path style="fill-rule:evenodd;clip-rule:evenodd;fill:url(#SVGID_00000073681477029286272980000004516421921317680008_);" d="
		M92.8,74c5,0,9.8-1.6,13.8-4.6l9.9-7.4H229c6.6,0,12,5.4,12,12v34v90c0,6.6-5.4,12-12,12H29c-6.6,0-12-5.4-12-12v-90V86
		c0-6.6,5.4-12,12-12h58H92.8z"/>
</g>
<g>
	<path class="st5" d="M184.4,154.6L184.4,154.6C184.4,154.6,184.4,154.6,184.4,154.6C184.4,154.6,184.4,154.6,184.4,154.6
		L184.4,154.6c-1.4-19.1-5.8-33.2-12-42.8c-3.1-4.8-6.7-8.4-10.5-10.9c-3.9-2.5-8.1-3.7-12.3-3.7c-3.1,0-5.8,0.6-8.1,1.4
		c-3.4,1.3-5.9,3.2-7.8,4.6c-1,0.7-1.8,1.3-2.5,1.6c-0.7,0.4-1.2,0.5-1.6,0.5c-0.3,0-0.6-0.1-1-0.2c-0.7-0.2-1.6-0.8-2.6-1.6
		c-1.6-1.2-3.6-2.7-6.3-4.1c-2.7-1.3-6-2.3-10.1-2.3c-4.2,0-8.5,1.2-12.3,3.7c-5.8,3.7-10.9,10-14.8,18.9
		c-3.9,8.9-6.7,20.4-7.7,34.7h0c0,0,0,0,0,0c0,0,0,0,0,0l0,0c-0.1,1.2-0.2,2.3-0.2,3.4c0,5.4,1.2,10,3.6,13.6
		c2.3,3.6,5.8,6.1,9.8,7.3c1.4,0.4,2.8,0.6,4.2,0.6c4.2,0,8.4-1.6,12.4-4.5c4-2.8,7.9-6.9,11.4-12c1.7-2.5,4-5.3,6.4-7.5
		c1.2-1.1,2.5-2,3.7-2.6c1.2-0.6,2.4-0.9,3.4-0.9c1.1,0,2.2,0.3,3.4,0.9c1.8,0.9,3.8,2.5,5.5,4.3c1.8,1.8,3.4,3.9,4.6,5.8
		c3.5,5.1,7.4,9.1,11.4,12c4,2.8,8.2,4.5,12.4,4.5c1.4,0,2.9-0.2,4.2-0.6c4-1.2,7.5-3.7,9.8-7.3c2.3-3.6,3.6-8.2,3.6-13.6
		C184.5,156.9,184.5,155.8,184.4,154.6z M177,169c-1.7,2.7-4.1,4.4-7.2,5.3c-0.9,0.3-1.9,0.4-2.9,0.4c-2.9,0-6.2-1.2-9.7-3.6
		c-3.4-2.4-6.9-6.1-10.2-10.8c-1.8-2.7-4.3-5.8-7.2-8.4c-1.5-1.3-3-2.4-4.8-3.3c-1.7-0.8-3.6-1.4-5.6-1.4c-2,0-3.8,0.6-5.6,1.4
		c-2.6,1.3-4.9,3.2-6.9,5.3c-2,2.1-3.7,4.4-5.1,6.4c-3.2,4.7-6.8,8.4-10.2,10.8c-3.4,2.4-6.8,3.6-9.7,3.6c-1,0-2-0.1-2.9-0.4
		c-3-0.9-5.4-2.6-7.2-5.3c-1.7-2.7-2.8-6.3-2.8-11c0-1,0-2,0.1-3v0l0,0c1.4-18.5,5.7-31.9,11.3-40.6c2.8-4.3,5.9-7.4,9.1-9.4
		c3.2-2,6.5-3,9.8-3c2.6,0,4.6,0.4,6.4,1.1c2.7,1,4.7,2.5,6.7,4c1,0.7,2,1.4,3.1,2c1.1,0.6,2.4,1,3.8,1c0.9,0,1.8-0.2,2.6-0.5
		c1.4-0.5,2.6-1.3,3.7-2.2c1.7-1.3,3.5-2.6,5.6-3.7c2.1-1,4.6-1.8,8-1.8c3.3,0,6.6,0.9,9.8,3c4.8,3,9.4,8.5,13,16.8
		c3.6,8.3,6.3,19.3,7.4,33.2v0l0,0c0.1,1,0.1,2,0.1,3C179.8,162.7,178.7,166.3,177,169z"/>
	<polygon class="st5" points="109.1,121.6 100.7,121.6 100.7,129.3 93.1,129.3 93.1,137.7 100.7,137.7 100.7,145.3 109.1,145.3 
		109.1,137.7 116.7,137.7 116.7,129.3 109.1,129.3 	"/>
	<path class="st5" d="M153.7,119.3c-2.4,0-4.4,2-4.4,4.4c0,2.4,2,4.4,4.4,4.4c2.4,0,4.4-2,4.4-4.4
		C158.1,121.2,156.2,119.3,153.7,119.3z"/>
	<path class="st5" d="M153.7,140.6c-2.4,0-4.4,2-4.4,4.4c0,2.4,2,4.4,4.4,4.4c2.4,0,4.4-2,4.4-4.4
		C158.1,142.6,156.2,140.6,153.7,140.6z"/>
	<path class="st5" d="M164.4,129.9c-2.4,0-4.4,2-4.4,4.4c0,2.4,2,4.4,4.4,4.4c2.4,0,4.4-2,4.4-4.4
		C168.8,131.9,166.8,129.9,164.4,129.9z"/>
	<path class="st5" d="M143.1,129.9c-2.4,0-4.4,2-4.4,4.4c0,2.4,2,4.4,4.4,4.4c2.4,0,4.4-2,4.4-4.4
		C147.5,131.9,145.5,129.9,143.1,129.9z"/>
</g>
</svg>
