<?xml version="1.0" encoding="utf-8"?>
<!-- Generator: Adobe Illustrator 28.1.0, SVG Export Plug-In . SVG Version: 6.00 Build 0)  -->
<svg version="1.1" id="图层_1" xmlns="http://www.w3.org/2000/svg" xmlns:xlink="http://www.w3.org/1999/xlink" x="0px" y="0px"
	 width="256px" height="256px" viewBox="0 0 256 256" style="enable-background:new 0 0 256 256;" xml:space="preserve">
<style type="text/css">
	.st0{fill-rule:evenodd;clip-rule:evenodd;fill:#D12F0E;}
	.st1{fill-rule:evenodd;clip-rule:evenodd;fill:url(#SVGID_1_);filter:url(#Adobe_OpacityMaskFilter);}
	.st2{mask:url(#mask0_571_14762_00000022549545444140464760000007964759925868754819_);}
	.st3{fill-rule:evenodd;clip-rule:evenodd;fill-opacity:0.3;}
	.st4{fill-rule:evenodd;clip-rule:evenodd;fill:url(#SVGID_00000138540048973809676530000001885798850516122507_);}
	.st5{display:none;}
	.st6{display:inline;}
	.st7{display:none;fill:#FFFFFF;}
	.st8{display:none;fill-rule:evenodd;clip-rule:evenodd;fill:#EE350F;}
	.st9{display:none;fill:#4ED5BD;}
	.st10{fill:#D12F0E;}
	.st11{display:none;fill:#26A6D1;}
</style>
<path class="st0" d="M104.4,42.4c-4.4-5.3-10.9-8.4-17.8-8.4H29c-6.6,0-12,5.4-12,12v12.1v10.1V160c0,6.6,5.4,12,12,12h200
	c6.6,0,12-5.4,12-12V70.1c0-6.6-5.4-12-12-12H117.4L104.4,42.4z"/>
<defs>
	<filter id="Adobe_OpacityMaskFilter" filterUnits="userSpaceOnUse" x="17" y="62" width="224" height="110">
		<feColorMatrix  type="matrix" values="1 0 0 0 0  0 1 0 0 0  0 0 1 0 0  0 0 0 1 0"/>
	</filter>
</defs>
<mask maskUnits="userSpaceOnUse" x="17" y="62" width="224" height="110" id="mask0_571_14762_00000022549545444140464760000007964759925868754819_">
	
		<linearGradient id="SVGID_1_" gradientUnits="userSpaceOnUse" x1="32.5816" y1="239.5494" x2="213.3495" y2="58.4074" gradientTransform="matrix(1 0 0 -1 0 258)">
		<stop  offset="0" style="stop-color:#05815D"/>
		<stop  offset="1" style="stop-color:#0C575F"/>
	</linearGradient>
	<path class="st1" d="M104.4,42.4c-4.4-5.3-10.9-8.4-17.8-8.4H29c-6.6,0-12,5.4-12,12v12.1v10.1V160c0,6.6,5.4,12,12,12h200
		c6.6,0,12-5.4,12-12V70.1c0-6.6-5.4-12-12-12H117.4L104.4,42.4z"/>
</mask>
<g class="st2">
	<g>
		<path class="st3" d="M92.8,74c5,0,9.8-1.6,13.8-4.6l9.9-7.4H229c6.6,0,12,5.4,12,12v34v52c0,6.6-5.4,12-12,12H29
			c-6.6,0-12-5.4-12-12v-52V86c0-6.6,5.4-12,12-12h58H92.8z"/>
	</g>
</g>
<g>
	
		<linearGradient id="SVGID_00000007429705377411561480000009938050884012013201_" gradientUnits="userSpaceOnUse" x1="10.5666" y1="191.5206" x2="249.0666" y2="51.5206" gradientTransform="matrix(1 0 0 -1 0 258)">
		<stop  offset="0" style="stop-color:#FDFFFD"/>
		<stop  offset="1" style="stop-color:#ECBFB9"/>
	</linearGradient>
	<path style="fill-rule:evenodd;clip-rule:evenodd;fill:url(#SVGID_00000007429705377411561480000009938050884012013201_);" d="
		M92.8,74c5,0,9.8-1.6,13.8-4.6l9.9-7.4H229c6.6,0,12,5.4,12,12v34v90c0,6.6-5.4,12-12,12H29c-6.6,0-12-5.4-12-12v-90V86
		c0-6.6,5.4-12,12-12h58H92.8z"/>
</g>
<g class="st5">
	<path class="st6" d="M167.8,181c24.9,0,45-20.1,45-45s-20.1-45-45-45s-45,20.1-45,45S142.9,181,167.8,181z"/>
</g>
<path class="st7" d="M167.8,181c24.9,0,45-20.1,45-45s-20.1-45-45-45s-45,20.1-45,45S142.9,181,167.8,181z"/>
<path class="st8" d="M177.8,143l-24.9,35.5c-16.9-5.9-29.2-21.7-30.1-40.4l2.6,5.6l4-9.1l4.1,9.1l6.2-13.4h-3.3l-2.8,6.6l-2.7-6.6
	h-2.7l-2.8,6.6l-2.4-5.9c1-8.8,4.6-16.8,9.9-23.3h69.7c0,0,0,0,0,0l-23.9,34.2l-4.8-5.4l5.6-6h-4.2l-4.6,5v-12.7h-3.2V143h3.2v-5.6
	l4.9,5.6H177.8z M147.4,129.9c-1,0-1.8,0.2-2.7,0.5s-1.6,0.8-2.2,1.4s-1.1,1.3-1.5,2.1s-0.5,1.7-0.5,2.6c0,0.9,0.2,1.8,0.5,2.6
	s0.8,1.5,1.5,2.1c0.6,0.6,1.3,1.1,2.2,1.4c0.8,0.4,1.7,0.5,2.7,0.5c1,0,1.8-0.2,2.7-0.5c0.8-0.4,1.6-0.8,2.2-1.4
	c0.6-0.6,1.1-1.3,1.5-2.1s0.5-1.7,0.5-2.6c0-0.9-0.2-1.8-0.5-2.6s-0.8-1.5-1.5-2.1s-1.3-1.1-2.2-1.4
	C149.3,130,148.4,129.9,147.4,129.9z M147.4,140.3c-0.5,0-1-0.1-1.5-0.3c-0.4-0.2-0.8-0.5-1.1-0.8c-0.3-0.3-0.5-0.7-0.7-1.2
	c-0.2-0.4-0.2-0.9-0.2-1.4c0-0.5,0.1-1,0.2-1.4c0.2-0.4,0.4-0.8,0.7-1.2s0.7-0.6,1.1-0.8c0.4-0.2,0.9-0.3,1.5-0.3
	c0.5,0,1,0.1,1.5,0.3c0.4,0.2,0.8,0.5,1.1,0.8s0.5,0.7,0.7,1.2c0.2,0.4,0.2,0.9,0.2,1.4c0,0.5-0.1,1-0.2,1.4
	c-0.2,0.5-0.4,0.8-0.7,1.2c-0.3,0.3-0.7,0.6-1.1,0.8C148.5,140.2,148,140.3,147.4,140.3z M163.3,129.9c-0.9,0-1.6,0.2-2.2,0.7
	c-0.6,0.4-1,1-1.3,1.5v-1.9h-3.1V143h3.2v-8.4c0.3-0.4,0.6-0.8,1.1-1.2s1.1-0.6,1.8-0.6c0.3,0,0.6,0,0.8,0.1s0.5,0.1,0.7,0.2
	l1.1-2.9c-0.4-0.1-0.8-0.2-1.1-0.3C163.9,129.9,163.6,129.9,163.3,129.9z"/>
<path class="st8" d="M159.1,180.2l47.2-67.4c4.1,6.8,6.5,14.8,6.5,23.3c0,24.9-20.1,45-45,45C164.8,181,161.9,180.7,159.1,180.2z
	 M138.9,101.5c7.8-6.6,17.9-10.5,28.9-10.5c11,0,21.1,3.9,28.9,10.5H138.9z"/>
<g>
	<path class="st9" d="M198,221.1l-30.5-47.9l-78.2,0.1l-30.7,47.8l70.1,0.1L198,221.1z"/>
	<path class="st10" d="M127.6,85.1c-23.3,0-42.2,17.9-42.2,39.9c0,0.9,0.8,12.8,3.9,18.1c10.4,22.7,38.3,47.6,38.3,47.5
		c0,0.1,28-25,38.4-47.7c3.6-7.3,3.8-17.6,3.8-18C169.8,103,150.9,85.1,127.6,85.1z M127.6,144.2c-9.3,0-16.9-7.6-16.9-16.9
		s7.6-16.9,16.9-16.9s16.9,7.6,16.9,16.9S136.9,144.2,127.6,144.2z"/>
	<path class="st10" d="M127.6,106.2c-11.7,0-21.1,9.5-21.1,21.1c0,11.7,9.5,21.1,21.1,21.1c11.7,0,21.1-9.5,21.1-21.1
		C148.7,115.7,139.3,106.2,127.6,106.2z M127.6,140c-7,0-12.7-5.7-12.7-12.7c0-7,5.7-12.7,12.7-12.7c7,0,12.7,5.7,12.7,12.7
		C140.3,134.3,134.6,140,127.6,140z"/>
	<path class="st11" d="M159,203.8c-5.5,2.4-17.3,4.4-21.9,4.4c-4,0-16.2-2.6-21.8-4.4c-0.5-0.2-15.6-7.6-26.2-8.7
		c-11-1.2-13.1,0-13.1,0l-3.8,4.7l-13.7,21.3l70.1,0.1l69.4-0.1l-18.7-29.4C174.4,194.6,160,203.3,159,203.8z"/>
</g>
</svg>
