<?xml version="1.0" encoding="UTF-8"?>
<svg xmlns="http://www.w3.org/2000/svg" width="256" height="256" version="1.1" xmlns:xlink="http://www.w3.org/1999/xlink" viewBox="0 0 256 256">
  <!-- Generator: Adobe Illustrator 29.2.1, SVG Export Plug-In . SVG Version: 2.1.0 Build 116)  -->
  <defs>
    <style>
      .st0 {
        fill-opacity: .3;
      }

      .st0, .st1, .st2, .st3 {
        fill-rule: evenodd;
      }

      .st4 {
        fill: #2e2d2d;
      }

      .st1 {
        fill: url(#_未命名的渐变_10);
      }

      .st5 {
        mask: url(#mask);
      }

      .st6 {
        fill: #439dd7;
      }

      .st2 {
        fill: url(#_未命名的渐变);
      }

      .st7 {
        fill: #dd4814;
      }

      .st7, .st8, .st9 {
        display: none;
      }

      .st10 {
        isolation: isolate;
      }

      .st11 {
        fill: #d23544;
      }

      .st8 {
        fill: #f3f6f8;
      }

      .st12 {
        mix-blend-mode: multiply;
      }

      .st9 {
        fill: #fcfbfb;
      }

      .st3 {
        fill: url(#_未命名的渐变_2);
      }
    </style>
    <linearGradient id="_未命名的渐变_10" data-name="未命名的渐变 10" x1="17" y1="103" x2="241" y2="103" gradientUnits="userSpaceOnUse">
      <stop offset="0" stop-color="#d23544"/>
      <stop offset=".2" stop-color="#ce3747"/>
      <stop offset=".3" stop-color="#c43e52"/>
      <stop offset=".4" stop-color="#b34b63"/>
      <stop offset=".6" stop-color="#9a5d7c"/>
      <stop offset=".7" stop-color="#7b749d"/>
      <stop offset=".8" stop-color="#558fc4"/>
      <stop offset=".9" stop-color="#439dd7"/>
      <stop offset=".9" stop-color="#357caa"/>
      <stop offset="1" stop-color="#122b3c"/>
      <stop offset="1" stop-color="#000"/>
    </linearGradient>
    <linearGradient id="_未命名的渐变" data-name="未命名的渐变" x1="32.6" y1="239.5" x2="213.3" y2="58.4" gradientTransform="translate(0 258) scale(1 -1)" gradientUnits="userSpaceOnUse">
      <stop offset="0" stop-color="#05815d"/>
      <stop offset="1" stop-color="#0c575f"/>
    </linearGradient>
    <mask id="mask" x="17" y="34" width="224" height="138" maskUnits="userSpaceOnUse">
      <g id="mask0_570_12565">
        <path class="st2" d="M104.4,42.4c-4.4-5.3-10.9-8.4-17.8-8.4H29c-6.6,0-12,5.4-12,12v114c0,6.6,5.4,12,12,12h200c6.6,0,12-5.4,12-12v-89.9c0-6.6-5.4-12-12-12h-111.6l-13-15.8Z"/>
      </g>
    </mask>
    <linearGradient id="_未命名的渐变_2" data-name="未命名的渐变 2" x1="17" y1="196" x2="241" y2="48" gradientTransform="translate(0 258) scale(1 -1)" gradientUnits="userSpaceOnUse">
      <stop offset="0" stop-color="#fffefd"/>
      <stop offset="1" stop-color="#e1c7bd"/>
    </linearGradient>
  </defs>
  <g class="st10">
    <g id="_图层_1" data-name="图层_1">
      <path class="st1" d="M104.4,42.4c-4.4-5.3-10.9-8.4-17.8-8.4H29c-6.6,0-12,5.4-12,12v114c0,6.6,5.4,12,12,12h200c6.6,0,12-5.4,12-12v-89.9c0-6.6-5.4-12-12-12h-111.6l-13-15.8Z"/>
      <g class="st5">
        <g class="st12">
          <path class="st0" d="M92.8,74c5,0,9.8-1.6,13.8-4.6l9.9-7.4h112.5c6.6,0,12,5.4,12,12v86c0,6.6-5.4,12-12,12H29c-6.6,0-12-5.4-12-12v-74c0-6.6,5.4-12,12-12h63.8Z"/>
        </g>
      </g>
      <path class="st3" d="M92.8,74c5,0,9.8-1.6,13.8-4.6l9.9-7.4h112.5c6.6,0,12,5.4,12,12v124c0,6.6-5.4,12-12,12H29c-6.6,0-12-5.4-12-12v-112c0-6.6,5.4-12,12-12h63.8Z"/>
      <path class="st7" d="M115.6,183c-6.1-2.7-10.2-8.4-10.8-15,.4-6.8,4-12.9,9.7-16.6-.9,2.3-.7,4.9.6,6.9,1.5,2.1,4,3,6.5,2.5,3.6-1,5.6-4.7,4.6-8.2-.4-1.2-1.1-2.4-2-3.2-4-3.2-6.1-8.4-5.3-13.5.7-2.7,2.2-5.1,4.3-7-1.6,4.2,2.9,8.4,5.9,10.5,5.4,3.2,10.5,6.7,15.5,10.5,5.4,4.2,8.4,10.9,7.9,17.6-1.2,7.2-6.4,13.2-13.4,15.4,14-3.1,28.5-14.1,28.8-29.8-.3-12.5-7.8-23.8-19.4-28.9h-.5c.3.6.4,1.3.4,1.9,0-.4,0-.9,0-1.3,0,.5,0,1,0,1.5-.9,3.6-4.5,5.8-8.1,4.9-1.4-.4-2.7-1.2-3.7-2.3-4.6-5.9,0-12.6.8-19,.5-8.3-3.3-16.2-10.1-21,3.4,5.6-1.1,12.9-4.4,17.1-3.3,4.2-8,7.3-11.9,10.9-4.2,3.8-8,8.1-11.4,12.6-7.4,9-10.3,20.8-7.9,32.1,3.3,10.9,12.5,19.1,23.8,21.3h0,0Z"/>
      <g id="map">
        <path class="st4" d="M121.3,110.6c-.2,1.6-.6,6.4-.6,7.5l-9.4-2.8-23.5,11.5c-1,1.6,2.8,24.3,2.8,28.5.1,8.2-2.6,16.9-2.3,25.2.8.1,1.5,0,2.3-.3,5.8-2,13.5-8.1,19.1-9.8s1.3-.4,2-.3l32.7,13.1,2.5.2,23.3-12c-.3-5.3-1.3-10.5-1.5-15.9s-.6-.8-.6-.9c0-2,4.1-6.5,5.5-8.1s1.3-.4,1.4-.6c-.5,10.1,3.4,20.2,1.8,30.3l-28.4,14.8h-4.6c-10.3-5.2-21.4-8.8-32.1-13.3l-26.3,13.3h-3.5c-2.3-2.1-1.9-4.9-1.8-7.8.4-11.2,3.4-20.2,2.4-31.9-.3-3.4-.3-7-.7-10.3-.4-4.1-3-14.2-1.4-17.6s24.9-12.4,29-15.5c4.4-1.1,7.5,2.5,11.7,2.8Z"/>
        <path class="st11" d="M175.1,145.9c-.1.1-1,.1-1.4.6-1.4,1.6-5.5,6.1-5.5,8.1-1.7,0-2.8,3.7-2.9,5.2-3.3,3.6-4.7,9.1-6.9,13.3s-1,1.2-1.4,1.8c-.7,1.1-.7,3.4-2.7.5s-4.6-8.7-6.4-12.1c-3.4-6.4-3.8-8.6-8.7-14.5-5.4-6.5-13-12.7-16.2-20.8s-2.3-7.9-2.3-9.8.4-5.9.6-7.5c4.1-36.6,58.4-40.2,67.8-5.1,4.8,18.1-2.8,28.3-14,40.4ZM135.2,116.9c.1,5.1.7,4.9,2.9,8.7s6.7,9.6,13.3,10.4,9.4,0,13.3-1.7,2.7-.9,3.5-2.9c2.3.2,4.3-3.1,5.3-4.8,3.2-5.5,4.3-11.9,2.1-17.9-.3-.7-1-.9-1-1-10-21.7-40-14.2-39.3,9.3Z"/>
        <path class="st8" d="M120.7,118.1c0,1.9,1.5,7.9,2.3,9.8-1.5,1.8-1.6,7.9-1,10s8.8,11.7,10.1,12.5c3.3,2,6,2.7,7.1-1.7,4.8,5.8,5.3,8,8.7,14.5l-5.2-.6v16.2c0,.2,3.5.6,4.2.5,1.7-.3,5.5-3.1,7.4-4,1.9,2.9,1.9.6,2.7-.5s1-1.1,1.4-1.8c1.4,0,7.3-2.7,7.8-3.5.8-1.3-1-7.6-.9-9.8s1.2-5.2,2.9-5.2c0,0,.5,0,.6.9.1,5.4,1.2,10.6,1.5,15.9l-23.3,12-2.5-.2-32.7-13.1c-.7,0-1.4.1-2,.3-5.6,1.7-13.3,7.8-19.1,9.8s-1.4.5-2.3.3c-.3-8.3,2.5-17,2.3-25.2s-3.8-26.9-2.8-28.5l23.5-11.5,9.4,2.8ZM114.9,136c-.3-5.8-.3-9.4,3.5-14.1-2.3-1.8-5.6-3.1-8.5-2.2s-16.1,7.6-17.7,8.9-.7,6,0,6.9,8,3.1,9,3.2,13.4-2.2,13.9-2.7ZM108.6,144.7c-6.1,1.5-9.8,1.1-15.6-1.2,0,5,1.4,9.7,1.2,14.8s-2.5,15.7-1.8,16.5c3.1-.2,5.6-2.7,8.6-3.6.8-1.2-.4-12.7.2-15.7s8.3-10,7.4-10.8ZM135.8,159.2c-2.5-1.2-6.9-1.9-9-3.5-1.9-1.4-7-10.2-8.1-10.4s-10.6,11.6-10.6,12.4v9.5l2.7-1.1,25,9.2v-16.2Z"/>
        <path class="st9" d="M174.5,107.7c-1.2-.2-2.1.2-3.1.6-8,3.2-15.9,8.7-23.9,12-4.2.9-8.2-2.7-12.3-3.3-.7-23.4,29.4-31,39.3-9.3Z"/>
        <path class="st4" d="M174.5,107.7c0,0,.7.3,1,1,2.3,6,1.2,12.4-2.1,17.9-1,1.7-3.1,5-5.3,4.8,1.3-3.6.5-9.9,1.7-13.9-.9-.9-20.2,9.9-23,10.9-2.2.4-6.4-2.4-8.8-2.8-2.2-3.8-2.7-3.6-2.9-8.7,4.1.7,8.1,4.2,12.3,3.3,8-3.3,16-8.8,23.9-12s1.9-.8,3.1-.6Z"/>
        <path class="st8" d="M138.1,125.6c2.5.4,6.6,3.2,8.8,2.8,2.8-.9,22.1-11.8,23-10.9-1.2,4-.4,10.2-1.7,13.9s-1.5,2-3.5,2.9c-.5-3.2,1-6.5.6-9.6-.1-.8.3-1-.9-.9s-11.1,5.2-11.6,5.8c-1.3,1.4-1.4,4.5-1.4,6.4-6.6-.8-10.4-5.2-13.3-10.4Z"/>
        <path class="st6" d="M139.3,148.7c-1.1,4.4-3.8,3.6-7.1,1.7s-9.7-11.3-10.1-12.5c-.6-2.1-.5-8.2,1-10,3.2,8.2,10.8,14.3,16.2,20.8Z"/>
        <path class="st6" d="M147.9,163.2c1.8,3.4,4.4,9.2,6.4,12.1-1.9.8-5.7,3.6-7.4,4s-4.2-.3-4.2-.5v-16.2l5.2.6Z"/>
        <path class="st6" d="M151.4,136c0-1.9,0-5,1.4-6.4s10.7-5.6,11.6-5.8.8.1.9.9c.5,3.1-1.1,6.4-.6,9.6-3.9,1.7-9.1,2.3-13.3,1.7Z"/>
        <path class="st6" d="M158.3,173c2.3-4.2,3.7-9.7,6.9-13.3,0,2.2,1.7,8.5.9,9.8s-6.4,3.5-7.8,3.5Z"/>
        <path class="st6" d="M135.8,159.2v16.2l-25-9.2-2.7,1.1v-9.5c0-.8,9.8-12.6,10.6-12.4s6.3,9,8.1,10.4c2.1,1.6,6.5,2.3,9,3.5Z"/>
        <path class="st6" d="M114.9,136c-.5.5-13,2.8-13.9,2.7s-8.7-2.8-9-3.2c-.6-.9-1.1-6,0-6.9s15.7-8.2,17.7-8.9c2.9-.9,6.2.4,8.5,2.2-3.8,4.6-3.8,8.2-3.5,14.1Z"/>
        <path class="st6" d="M108.6,144.7c.9.8-6.9,8.7-7.4,10.8s.5,14.5-.2,15.7c-3,.9-5.5,3.3-8.6,3.6-.8-.8,1.7-14.1,1.8-16.5.2-5.1-1.1-9.8-1.2-14.8,5.8,2.3,9.5,2.7,15.6,1.2Z"/>
      </g>
    </g>
  </g>
</svg>