<?xml version="1.0" encoding="UTF-8"?>
<svg id="_图层_1" xmlns="http://www.w3.org/2000/svg" width="256" height="256" version="1.1" xmlns:xlink="http://www.w3.org/1999/xlink" viewBox="0 0 256 256">
  <!-- Generator: Adobe Illustrator 29.3.1, SVG Export Plug-In . SVG Version: 2.1.0 Build 151)  -->
  <defs>
    <style>
      .st0 {
        fill: #4b5460;
      }

      .st1 {
        fill: #c6c4c4;
      }

      .st2 {
        fill-opacity: .3;
      }

      .st2, .st3, .st4 {
        fill-rule: evenodd;
      }

      .st5 {
        fill: #9d3f4a;
      }

      .st6 {
        fill: #f3b634;
      }

      .st7 {
        fill: #74c1e5;
      }

      .st8 {
        fill: none;
      }

      .st9 {
        fill: #7ac388;
      }

      .st10 {
        fill: #606872;
      }

      .st11 {
        fill: #1a283b;
      }

      .st3 {
        fill: url(#_未命名的渐变);
      }

      .st12 {
        fill: #ca4d47;
      }

      .st13 {
        fill: #656565;
      }

      .st14 {
        fill: #3f495a;
      }

      .st15 {
        fill: #328d7b;
      }

      .st16 {
        fill: #3ca994;
      }

      .st17 {
        fill: #393939;
      }

      .st4 {
        fill: url(#_未命名的渐变_7);
      }

      .st18 {
        clip-path: url(#clippath);
      }

      .st19 {
        fill: #2f2741;
      }

      .st20 {
        fill: #fdfdfd;
      }
    </style>
    <clipPath id="clippath">
      <rect class="st8" width="256" height="256"/>
    </clipPath>
    <linearGradient id="_未命名的渐变_7" data-name="未命名的渐变 7" x1="17" y1="103" x2="241" y2="103" gradientUnits="userSpaceOnUse">
      <stop offset="0" stop-color="#3ca994"/>
      <stop offset="1" stop-color="#7ac388"/>
    </linearGradient>
    <linearGradient id="_未命名的渐变" data-name="未命名的渐变" x1="17" y1="-314" x2="241" y2="-462" gradientTransform="translate(0 -252) scale(1 -1)" gradientUnits="userSpaceOnUse">
      <stop offset="0" stop-color="#fbfafa"/>
      <stop offset="1" stop-color="#e9e4e4"/>
    </linearGradient>
  </defs>
  <g class="st18">
    <g>
      <path class="st4" d="M104.4,42.4c-4.4-5.3-10.9-8.4-17.8-8.4H29c-6.6,0-12,5.4-12,12v114c0,6.6,5.4,12,12,12h200c6.6,0,12-5.4,12-12v-89.9c0-6.6-5.4-12-12-12h-111.6s-13-15.7-13-15.7Z"/>
      <path class="st2" d="M92.8,74c5,0,9.8-1.6,13.8-4.6l9.9-7.4h112.5c6.6,0,12,5.4,12,12v86c0,6.6-5.4,12-12,12H29c-6.6,0-12-5.4-12-12v-74c0-6.6,5.4-12,12-12h63.8Z"/>
      <path class="st3" d="M92.8,74c5,0,9.8-1.6,13.8-4.6l9.9-7.4h112.5c6.6,0,12,5.4,12,12v124c0,6.6-5.4,12-12,12H29c-6.6,0-12-5.4-12-12v-112c0-6.6,5.4-12,12-12h63.8Z"/>
    </g>
  </g>
  <g>
    <path class="st19" d="M112.5,94.7c0,0,.2,0,.3,0,0,0,0,.2,0,.3,0,.8,0,1.7,0,2.5s-.2.3-.2.4.1.2.2.3c0,.3,0,.5.2.8,0,.1,0,1.1,0,1.3s0,.6,0,.6c-.5.5-.3,1.4-.3,2,0,1.4,0,3-.3,4.3-.2-.2-.3.3-.3.4s0,.1,0,.1c-.1.7-.5,1.3-.7,1.9-.3,0-.4.7-.3.9-.3.9-.5,1.9-.6,2.9s0,.4.1.3c.4,0,.8-.5,1.2-.5-.2.1-.5.4-.7.6-2.5,2.5-2,6.9-1.4,10.1s3.7,6.6,6.1,9.5c0,0,.2.5,0,.4l-2.8-2.6h-.3c1.2,2.5,2.4,5.2,4.1,7.5s1.8,2.3,2.9,3.4,1,1.2,1.3,1.4c2.4,1.6,5.4,1.6,8.1,1s.8-.2,1.2-.3c.9-.3,1.6-.4,2.2-1.1s.3-.5.4-.7c.3-.4.7-.9,1-1.3s0-.2.2-.2c-.5.8-.8,1.5-1.5,2.3s-1.4,1.3-2.3,1.6c1.2.7,2.9,1.4,3.9,2.4s1.7,1.4,2.6,2.2,0,.4.4,0c0,0,.2.2.3.3.5.6,1.4.5,1.6.8s.2.4.1.4c-.2,0-.3,0-.5,0s-.6-.1-.8-.1h-1.8c-.2,0-.7.2-.9.3-1.4-2-5.3-.9-7.4-1.1-1.6.2-1.9,1.5-2.7,2.6s-2.4,2.4-4,3c0-.7-.2-1.4-.9-1.5-1.5-.2-3.5.2-5.1,0-1.1.2-1.1,1-1.1,2,0,0-.2,0-.3.1-.6,0-1.1,0-1.7,0s-.5,0-.7,0-.4,0-.6,0c0-.2-.1-.1-.2-.1-.5,0-.3.1-.5.3s-.5.1-.5.4c-.3.3-.6.6-.9.8-.4.4-.9.8-1.2,1.3,0,0,0,0,0,0-.1,0-.5.1-.7.2.3-.4.6-1.1,1-1.4s.8-.5,1.1-1c.8-1.5.5-3.1.8-4.6s1-1.4,1.4-1.7,1.4-.9,1.6-1.3.3-.9.3-1.2c0-.7-1.2-1.3-1.7-1.7s-.1,0-.1-.2c.9-.2,1.7,0,2.6,0s1.5.3,2.3.3.6,0,.6-.1-.5-.2-.7-.3c-.6-.2-1.1-.3-1.8-.5s-1.5-.5-1.3-.7c.1,0,.3,0,.3,0,.8,0,1.8.3,2.6.3.2,0,.2-.2.3-.3.3-.2,1.4,0,1.9,0,.8,0,.6-.1,1-.7s.2,0,.2-.2c.1-.3,0-1.3-.4-1.5s-.4.2-.4.2c-.1,0-.7-.4-.8-.5s0,0-.1-.1c-.2-.1-.5,0-.7,0s-.7.3-1.1.4c-1.8.5-3.6.7-5.2,1.8s-.5.6-.6.6-.4.1-.5.2c-2.6,1.9-1.9,3.5-1.8,6.4s0,.6-.1.9-.3.3-.4.5c-.2.5-.2,1.3-.4,1.8s-.2.1-.2.2c0,0,0,.3,0,.4,0,1.4,0,2.7,0,4.1,0,.1.6,0,.7,0-.1.8-.5,1.5-.6,2.3s0,.2,0,.3c-.2.8-.4,1.5-.5,2.3-.2,0-.2,0-.2.2,0,.4,0,.8,0,1.2s.1,0,.2,0c0,.3,0,.4,0,.7l-.2-.3c0,.2,0,.8.2,1s.1,0,.1,0c.2.3.3.3.5.6s0,.2.1.3c.2.4.9.6,1.4.5s.8-.4,1.2-.5v15.8c0,2.1,2.4,4.4,4.5,4.5h26.9c.8,0,1.5-.4,2.2-.7,0,.6.8.4,1,.6s-.6.5-.8.6c-1.6,1.1-2.3,1.5-4.2,2s-2.8.7-4.2.9-2,.2-2.3.4,0,.3-.4.3c-.6,0-.8-.2-1.3-.3s-.5,0-.7,0c-1.4-.1-2.7-.2-4.1-.2s-.2,0-.3,0-.5-.2-.4,0c0,0,0,0-.1,0s0,0-.2,0c-.6,0-.6.2-.5.7-.5.1-.9-.2-1.3-.3-.7-.1-2,.3-2.7.4s-.3,0-.2.1c0,0,0,0-.1,0s0,0-.1,0c-.2,0-.7,0-.6.1-.3,0-.6,0-.9,0,0-.2-.4-.1-.6-.1s0,0-.1,0c0,0,0,0-.1,0,0-.2-.1-.1-.2-.1-.9-.1-1.8-.3-2.7-.3s0,0-.1,0c0-.2-.2-.2-.4-.1s0,0-.1,0c0,0,0,0-.1,0,0-.2-.3-.2-.4-.1s0,0-.1,0c0,0-.2,0-.3,0,0-.2-.1-.1-.2-.1-.8,0-2.1-.2-2.4-1s.4-1.6,0-2.4-1.5,0-2-.5-.4-2.5-1.1-3.2-.3,0-.4-.4c-.3.5-.6-.5-.8-.7-.3-.3-.6,0-1,0,0-.3.3-.4.3-.8s-.6-.9-.8-1.2-.7-.9-1-1.3-2.3-2.3-2.4-2.3,0,0,0,0c0,0,0,0-.1,0,0-.2-.2,0-.2-.2,0-.2,0-.4-.2-.7-.3-.6-1.8-2-2.4-2.5s0,0-.1,0c-.4-.3-.4-.6-.7-.9s-.5-.5-.6-.8c-.7-1.2-.9-2.9-1.1-4.2s0-.3-.1-.2h0c0-.5,0-1,0-1.4s0-.1,0-.2c0-.2.2-.5.3-.7.2.5.2,1,.3,1.6.1,1.9.2,3.3,1.2,5.1s2.1,2.3,3.2,3.6.6.9.9,1.2.8.6,1.2,1,.3.5.5.6c.5.3,1.4.5,1.9.2s.3-.4.2-.7c0-.9-.3-2.2-.4-3.1-.5-2.4-2.2-3.8-2.7-6.2s.1-3.7-1.1-5.2c.6,0,1.2.3,1.7.6s.7.6.7.6c.3,0,.7-.4.4-.8s-1.1-.7-1.4-1.1c-1.4-1.3-.4-1.7-.9-3.1s-1-1-1-1.8c1.2.2,2.4.6,3.6.8s1.6.3,1.8,0c.2-.8-.6-.7-1.1-.7.1-.2,0-.1-.1-.1-.6,0-1.3,0-1.8-.1s-1-.3-1.5-.5c.2-.1.4,0,.6,0s.2-.1.4-.2c.5-.1,1,.1,1.4.2s1,0,1.5.1,0,.1,0,.1c.3,0,.7-.4.8-.6s0-.2,0-.3c.2,0,.1-.1.1-.2,0-.3.1-.6.1-.8,0-.3-.2-.5-.3-.8s0-.4,0-.6c0-.8-.1-1.4.2-2.2s.5-.5.5-1.4-.1-.9-.1-1.3.2-1,.3-1.4,0-.7,0-.9,0-.4,0-.5c0-.4.3-.7.2-1.2.2-.1.1-.4.2-.5.2-.5.8-.4,1-.6s0-.4.2-.6.8-.1.9-.3,0-.3,0-.5.2-.3.2-.3.2,0,.2,0,.2-.2.2-.2c.4-.2,1-.3,1.3-.5s.3-.4.5-.5c.7-.4,2.7-.4,3.6-.7s1.2-.7,1.8-.5c.1-.1-1-1.4-1.2-1.6-1.5-2.1-1.9-4-3.1-6.1s-.6-.9-.9-1.4-.6-1.4-.9-1.7-.3-.3-.5-.6c0-.3-.2-.6-.4-.8-.3-.8-1.5-2.4-1.7-3.1s.1-.4,0-.6-.2-.3-.3-.5-.3-1.2-.3-1.3c0-.3.2-.7.1-1.1s0-.6,0-1.1c0,0,.1-.2,0-.3,0,0,0-.1,0-.2,0-.2.2-.6,0-.8,0-.4.1-.8,0-1.2.1-.1,0-.2,0-.1-.2-1.5.4-2.7.7-4.2s.5-4,1-5.8.6-.2.6-.6,0-.7,0-1,.4-.7.4-1.1,0-1.1,0-1.6c.3,0,0-.2,0-.2,0-.7.5-1.6.3-2.3s-1.8-1.7,0-1.3v-5.1c0-.2.1-.4,0-.7.1,0,.2,0,.3,0Z"/>
    <path class="st0" d="M114.2,180.9s0,0,0,0c0,.6,0,1.2.3,1.7s1.4.4,1.8-.3.1-.9.1-1.4,0,0,0,0c1,0,2,0,3.1,0,0,.4.2.6.6.7,6.8,0,13.7,0,20.6,0,.4-.2.5-.3.5-.7,1.4,0,2.7,0,4.1,0v2.6c0,.2-.1.7-.2.9,0,.4-.3.7-.4,1.1.5,0,.6-.8.7-1.2s0-.3.1-.2c0,.2,0,.3,0,.5s0,.8,0,.9-.4.1-.5.2-.3.4-.4.5c-.2.2-1,.9-1,1.1-.1.6,1.3.3,1,.9s-.7.3-.8.4c-.5.3-1,.7-1.6,1s-.2.2-.4.3c-.3.1-.5,0-.8.1s-.3.4-.4.4c-.3.1-1,0-1.3.1s-.5.3-.7.3c-.9.1-1.8.3-2.7.5s-2.8.4-2.9.5-.1.3-.5.4c-.9.1-1.3-.3-2.1-.4s-.6,0-.8,0c-.9,0-1.4-.3-2.3-.1s-.7,0-1-.2c1.4,0,2.7,0,4.1.2s.5,0,.7,0c.5.1.6.4,1.3.3s.3-.2.4-.3c.3-.2,1.8-.3,2.3-.4,1.5-.2,2.8-.6,4.2-.9s2.6-.9,4.2-2,.9-.4.8-.6-.9,0-1-.6.1-.4.1-.5c-.7.5-1.5.8-2.3.9h-26.8c-1.9,0-4.3-2.2-4.3-4.2v-2.8h4.2Z"/>
    <path class="st19" d="M105.1,80.6l1.2-.8c3-2,6.7-3.4,10.3-2.3s1.8,1,2.8.5h2.6c1.1.9,2,1.7,2.3,3.2s0,.3.1.2c0,.1,0,.2,0,.3-.2.2-.1.5-.2.7s-.1.4-.2.6c0,.6,0,.8.2,1.3s0,.3.1.2c0,0,0,0,0,.1,0,.1,0,.3,0,.4v1.1l-.7,2c-.1.1-.4.2-.5.4h0c0-.2,0-.2-.1-.2,0-.1,0-.3,0-.4.3,0,.6-.7.6-1,0-.6,0-1.5,0-2.1s0-.4-.2-.6c0-.7,0-1.6,0-2.3s0-1-.2-1.6-.4-.8-1-1c-2.8-.7-5,1-7.5,1.1s-1,0-1.1-.2c-.2,0-.2-.3-.2-.5,1.3,0,3.3-.4,4.6-.8s.4,0,.2-.2-.4-.2-.5-.3-.2,0-.3,0c-1-.4-1.4-.5-2.5-.7s-.2,0-.3,0c-.2,0-.4-.1-.6-.1-2.1-.1-3.9.8-5.8,1.8s0,0,0,0,0,0,0,0c-.7.4-1.2.7-1.8,1.1s-.2,0,0,.2c-2,1.4-4.3,3.1-5.8,4.9s-.7,1-1,1.3-.4.2-.5.3c-.2.2-.5,1-.6,1.3-.5.3-.6.8,0,1,2,.8,6.1-.8,8.3-1.3s1.2-.2,2.1-.5,2-.2,3-.3c3.4-.3,6.5-1.5,9.5-3.1.4,0,.2.2,0,.4-.5.7-1.4,1-1.8,1.8,0,0-.5-.3-.5-.3-.3,0-.5,1-.5,1.3-.2.7-.4,2.8-.8,3.3s-.2.1-.3.2c-.6.6-.4,1-.5,1.7s-.4,1.1-.4,1.7c-.1,1.4.4,2.8.3,4.2s-.5,4.2-.9,5.3-.9.4-1,0,0-.8-.5-.8c0-.7,0-1.2,0-1.8s0-1.4,0-2.2,0-1.2-.5-1.2c.1-.9,0-1.2-.1-1.9s0-.7,0-.8c.4-.1.4-.8,0-1,0-1.5.2-3.2.2-4.7s0-.3,0-.5.3-1-.2-.6c-.8.7-.6,1.5-.6,2.4s-.1.6-.1.9c-.1.1,0,.3-.1.5h-.1c0-.8,0-1.6,0-2.5s.1-1.3,0-1.5-.7,0-.8,0c-1,0-2.1.2-3.1.4-.1,0-.5,0-.5.1,0,0,0,0-.1,0,0,0-.2-.2-.2,0,0,0,0,0-.1,0,0,0-.2-.2-.2,0,0,0,0,0-.1,0,0,0-.2-.2-.2,0,0,0,0,0-.1,0,0,0-.2-.2-.2,0,0,0,0,0-.1,0,0,0-.2-.2-.2,0,0,0,0,0-.1,0,0,0-.2-.2-.2,0,0,0,0,0-.1,0-.1-.1-.2,0-.1,0,0,0,0,0-.1,0-.4,0-.8,0-1.2.3l-1.5.7c-.1,0-.3,0-.4,0s0,0-.1,0c-.2,0-.4,0-.4.1,0,0-.2,0-.3,0s-.4-.2-.3,0c0,0-.2,0-.3,0s-.3-.2-.3,0c-.2,0-.3,0-.5,0-.4,0-.6,0-1,0s-.2,0-.3,0c0-.3-.2,0-.3,0s0,0-.1,0c0-.2-.1-.1-.2-.2-.4-.1-1.1-.3-1.1-.8s.7-1.3.9-1.6.3-.4.4-.6,0,0,0,0c.4,0,.4-.5.6-.7.9-1.1,1.8-2.2,2.8-3.2s0,0,0,0c.5,0,.7-.6,1.1-.8.4-.5,1.4-.9,1.8-1.3s0-.1,0-.2c0-.1,0-.2,0-.3ZM122.3,78.6c-.7-.3-1.2-.6-1.9-.5s-1,.3-.5.3c.7.1,1.5.1,2.3.2s.2,0,.2,0Z"/>
    <path class="st19" d="M135,140.1c.5,0,.9,1,1.2,1.1.5.1.8-.1,1.3-.1.7,0,1.8.2,2.5.3s1.8.5,2.7.7.8,0,1.1.1,1.5.7,1.7.7.4-.3.5-.4c.8-.9,1.6-2.1,2.4-3.1.6-.3,0,.3-.1.5-.7.9-1.6,1.9-2.3,2.8s0,.1,0,.3c0,.3.4.6.6.9s.3.6.4.7.3,0,.3,0,.3.5.3.6c0,.2,0,.4,0,.6,0,0,.2-.1.2-.1s.1,0,.2,0c.1,0,.5-.6.5-.3-.2.2-.9,1-.9,1.2s0,0,0,.1c0,0,0,0,0,.1,0,0-.2.3,0,.3,0,0,0,0,0,.1,0,.3,0,.3,0,.6s0,0,0,.1c-.2,0-.2.2,0,.3,0,0,0,.2,0,.3,0,.3.2.4.3.6s0,.5.3.5c0,.1,0,.3,0,.5s-.2.5,0,.5c0,0,0,0,0,.1s0,0,0,0c0,.4.3.4.4.5s.3.5.4.7,0,.2.2.2c0,0,0,.1,0,.2s0,0,0,0c0,.2,0,.5,0,.7s0,0,0,0c0,0,0,0,0,0,0,.4.3.6.5.7s.5.4.5.3,0-.1,0-.2c.2-.2.6,0,.9-.1s.6-.2.9-.3c.6-.1,2.3-.2,3,0s.6.3.9.3.7-.2,1.1-.3c1.2-.1,2.9.7,3.4,1.8s.4,1.3,0,1.9-.3.9-.5,1c0-.3.1-.7.1-1,.1-1.5-.5-2.7-2-2.8-.8-.6-1.6.2-2.5,0s-.3-.1-.5-.2c-1.5-.3-3,0-4.4.5.3.8,1.3.9,2,.9.3.1.7,0,1,.3s-.4.5-.5.6c-.3.2-.7.4-1,.6s-.2,0-.3.1c-.3.2-.5.3-.8.5-.3-.5-.7-1.1-1-1.7s0-.2-.2-.2c0,0,0,0,0,0-.3-.5-.7-1.5-1.2-1.7-.2-.3-.7-.4-1-.6s0,0,0,0c-.2-.3-.5-.3-.7-.4-.8-.5-1.8-1.3-2.4-2.1s-.5-.9-.8-1.3c0,0,0,0,0,0-.2-.7-.3-1.5-.7-2.1s-.5-.8-1.1-.5,0,.1,0,.1c0,0-.3.2-.4.4-.5.9-.4,2,0,2.9-.1-.1-.4-.2-.5-.3-.3-.2-.6-.4-.9-.5s-.2-.3-.3-.3c-.8-.7-1.5-1.8-1.8-2.8s-.3-1.7-.8-2.2-.4-.2-.7-.7-.2-.3-.2-.4c.2.1.5.1.7.2.9.2,3,.8,3.9.7,1.2.3,2.3.5,3.2,1.4.1.2.6.7.8,1,1.5,2.2,2,5.4,3.5,7.4s0,.3.2.1-.4-1.6-.5-1.9c-.3-.8-.8-1.6-1-2.4-.6-2.5.7-3.3-1.4-5.5s-.8-.9-1.4-1.2,0,0-.1,0,0,0,0,0c-.4-.4-.9-.3-1.4-.4s-.9-.2-1.4-.3c-.2-.2-.6-.2-.9-.3-.8-.1-1.6-.2-2.4-.3s-1.2-.2-1.7-.2-.6.2-.9.2c0-.3,0-.5-.1-.8s-.4-.2-.7-.2-.3,0-.4-.1c.2-.3.3-.4.5-.6Z"/>
    <path class="st11" d="M110.6,143.2s-.1.2-.2.2-.2,0-.2,0l-3.9-4.9-2.5,1.8,4,5.2c0,.1,0,.4-.2.5,0,0,0,0,0-.1s0,0,0-.1c0-.1,0-.2-.2-.2,0,0,0,0,0-.1,0-.1,0-.3-.3-.3,0,0,0,0,0,0,0-.1,0-.2-.2-.2,0,0,0,0,0,0,0-.1,0-.3-.3-.3,0,0,0,0,0,0,0-.1,0-.3-.3-.3,0,0,0,0,0,0,0-.2-.2-.5-.4-.5,0,0,0,0,0-.1,0-.1,0-.3-.3-.3,0,0,0,0,0,0,0-.1,0-.2-.1-.1,0,0,0-.1-.1-.2-.1-.2-.2-.5-.5-.5,0,0,0,0,0,0-.1-.2-.3-.6-.5-.6,0,0,0,0,0,0,0-.1,0-.2-.2-.2,0,0,0,0,0,0,0-.1,0-.3-.3-.3,0,0,0-.2-.2-.3,0,0-.1-.1-.2-.1,0,0-.2,0-.3,0-.1,0-.3,0-.4-.2-.3-.2-.8-1-1-1s-.9.4-.9.7c0,0,0,0,0,0-.1,0-.2,0-.1.1,0,0-.1,0-.1,0-.1,0-.2,0-.1.1-.5.3-.8.4-1.3,0,0-.1,0-.2-.2-.2,0,0,0-.1-.1-.2,0-.1,0-.2-.1-.1-.1-.1-.2-.3-.3-.4,0-.1,0-.2-.2-.2-.3-.6-.2-.9.3-1.4.1,0,.2,0,.1-.1,0,0,.2,0,.2-.1.1,0,.2,0,.1-.1,0,0,.2,0,.2-.1.1,0,.2,0,.1-.1,0,0,.2,0,.2-.1.1,0,.2,0,.1-.1.2-.2,0-.4-.1-.5-3-4.2-6.7-8.3-9.8-12.4s-1.3-1.4-.4-2.3,2-1.7,2.7-2.1,1.1-.3,1.5.2l10.5,13.4s0,0,.1,0c.4,0,1.3-1.2,2-1.2s1,.6,1.3,1,.6.8.3,1.4-1.5,1.1-1.5,1.5.6.8.7,1.2,0,.6,0,.9c1.3,1.7,2.6,3.4,3.9,5ZM91.2,123.9c0,0,0-.4-.1-.5,0-.8.7-1.3,1.5-1.2s.3.2.5.2.6-.5.8-.6c-.3-.3-1.1-1.5-1.4-1.6s-.4,0-.6.2c-.9.6-1.7,1.5-2.6,2.1-.2.2-.2.4-.1.6.2.4,1,1,1.1,1.5,0,0,.9-.6.9-.6ZM92.5,122.7c-.4-.2-.9.2-.9.7s.2.4.3.5c-.1.1-1.1.8-1,1,.5,0,1,0,1.4,0s.7-.1,1.1,0c0,0,.1-.6.1-.7.2-.7.4-1.3.5-2,0,0-1,.8-1.1.9s-.3-.2-.5-.3ZM96.2,124.8l-1.7-2.2-.5,2.2h2.2ZM94.7,125.3c-.3,0-.7,0-.9.1,0,0-.5,1.8-.5,1.9s.2.4.2.4c0,0,1.9,0,2.2,0,0,0,.2-.7.2-.9.2-.5.3-1.1.5-1.6-.6,0-1.1,0-1.7,0ZM93.3,125.4h-2.2l1.7,2.2.5-2.2ZM97,125.6h-.1s-.5,2.2-.5,2.2h2.2c0,0-1.6-2.2-1.6-2.2ZM95.6,128.3h-2.2c0,0,1.7,2.2,1.7,2.2l.6-2.2ZM96.8,128.3c-.2,0-.5,0-.7,0l-.6,2.1s.1.4.1.4c0,0,2,0,2.3,0,0,0,.2-.6.2-.7.2-.6.3-1.2.5-1.8-.6,0-1.3,0-1.9,0ZM100.8,130.7c0-.1-.1-.2-.2-.3-.3-.5-.9-1.2-1.3-1.6s-.1-.2-.2-.2l-.5,2.1h2.2ZM99.3,131.3c-.3,0-.6,0-.9,0,0,.4-.6,1.7-.4,2s.3.4.5.4c.6,0,1.3,0,1.9,0,0-.3.1-.5.2-.8.2-.6.3-1.1.4-1.7-.6,0-1.1,0-1.7,0ZM97.9,131.3h-1.8s-.4,0-.4.2l1.6,2,.5-2.2ZM101,133.7h1.9s.4,0,.3-.2l-1.6-2-.6,2.2ZM99,140.2c.3.2.6.2.8,0l7.1-5.6c.1-.2.1-.4,0-.6s-.8-1-.9-1.1c-.2-.1-.4,0-.6,0l-7.2,5.7c-.2.2-.1.4,0,.6s.7,1,.8,1ZM100.2,134.2h-2.2c0,0,1.7,2.2,1.7,2.2.2,0,0,0,.1-.2,0-.3.6-1.9.5-2ZM102.9,134.2h-2.1c-.1.3-.5,1.2-.3,1.5s.2.2.2.2l2.2-1.7ZM105.5,136.5c-.1,0-.3.1-.4.2-.9.6-1.9,1.5-2.8,2.2s-.2.2-.4.2c0,0,.9,1.6,1.3,1.1l2.9-2.3c.1-.2.1-.3,0-.5s-.6-.9-.7-1Z"/>
    <path class="st11" d="M158,138.4s0,0,0,.1c-.1,0-.1.3,0,.3,0,0,0,0,0,.1-.3,0-.3.3-.4.5s0,0,0,0c-.2,0-.2.3-.3.4s-.6.5-.7.6c-.3.1-.5,0-.7,0s0,0,0,0c0-.3-.4-.3-.5-.4s0-.2-.2-.2c-.2-.1-.4-.3-.6-.3s-.2,0-.3,0c-.3.1-.8.8-1.1,1s-.5,0-.7.2c-.4.2-.3.6-.9.7s-.1,0,0-.2c0-.2.6-.6.5-.7s-.5-.4-.6-.5-.2,0-.2,0,0-.1,0-.2c-.5-.4-1-.8-1.5-1.2-.1.2-.4.4-.5.5-.1-.4.2-.7.2-1s-.1-.4,0-.7c0-.4.7-.8.7-1.2,0-.7-1.9-1.2-1.5-2.4s1-1.4,1.3-1.4c.9-.2,1.7,1.6,2.5,1,2.2-2.8,4.4-5.5,6.6-8.3,1.2-1.5,2.4-3.3,3.7-4.8s.7-.9,1.4-.5c.8.8,1.9,1.4,2.7,2.1s.6.8.2,1.4c-2.9,3.3-5.4,7.3-8.4,10.6s-.5.7-.9,1.2-1.3,1.3-1.2,1.9,0,.1,0,.2l1.6,1.3ZM165,121.1s0-.1-.1-.2c-.3-.3-1.2-1-1.6-1s-1.2,1.4-1.4,1.7c0,0,.7.6.8.6.1,0,.5-.2.8-.2.7,0,1.1.5,1.1,1.2s-.1.4,0,.5.7.5.8.6c.3-.6,1.7-1.5,1.1-2.2s-1.1-.8-1.5-1.1ZM163.9,122.7c-.3-.2-.6-.2-.9,0s0,.2-.1.2c-.2.1-1-.8-1.3-.9l.6,2.7c0,0,.1,0,.2,0,.8,0,1.6,0,2.3,0,.2-.2-.8-.8-.9-.9s.6-.7,0-1.1ZM159.6,124.7c.5.1,1.6,0,2.1,0-.2-.6-.3-1.4-.5-2s0-.2-.1-.1c-.4.7-1.1,1.3-1.5,1.9s-.2.2,0,.3ZM159.8,127.1c0,.2,0,.4.2.6h2.5l-.6-2.5c0,0-.6,0-.7,0-.6,0-1.3,0-1.9,0,.1.7.3,1.3.5,2ZM164.7,125.3h-2.2c0,0,.5,2.2.5,2.2l1.7-2.2ZM157.1,127.7h2.2l-.5-2.1-1.7,2.1ZM159.7,128.7c0,0,0-.5-.1-.5h-2.5c0,0,.6,2.4.6,2.4.2,0,.3,0,.5,0,.7,0,1.4.1,2.1,0-.1-.7-.3-1.4-.5-2ZM162.1,128.2c-.6,0-1.3,0-1.9,0l.6,2.2,1.6-2c0-.1-.2-.2-.2-.2ZM157.1,130.7l-.6-2.2-1.5,1.9v.2c0,0,2.1,0,2.1,0ZM155.1,132.8c0,.3.1.6.2.9h2.6l-.6-2.4c-.2,0-.4,0-.6,0s-.3,0-.3,0c-.5,0-1.1-.1-1.6,0,0,0,.3,1.4.4,1.6ZM160,131.2h-2.2l.5,2.1c.1,0,.4-.4.5-.5.3-.4.7-.9,1-1.3s.2-.3.2-.3ZM154.8,133.7l-.6-2.2-1.7,2.1h2.2ZM149.8,132.7c-.1,0-.2,0-.3.2s-.8,1-.8,1.1c0,.2,0,.4,0,.6l7.1,5.6c.3.2.5.3.8,0s.8-1,.8-1.1c0-.2,0-.4,0-.5l-7.4-5.8c0,0-.2,0-.2,0ZM152.7,134.1l2.7,2.1-.5-2h-2.2ZM157.7,134.2h-2.2c0,0,.5,2.1.5,2.1l1.7-2.1ZM153.9,139l-3.5-2.6c0,0-.1,0-.2,0s-.7.9-.7,1c0,.3,0,.4.2.6l2.8,2.2c.4.1.7-.4,1-.7s.3-.4.3-.4Z"/>
    <path class="st19" d="M151.8,165.9c.3.2.2.7.3,1s0,.2.2.2c0,1.4,0,2.7-1,3.8s-1.1.7-1.7,1c-1.1.5-1.2,1.5-.9,2.6.9,0,1.5-.5,2.2-1-.3.4-.4.5-.8.8s-.5.9-.6,1.3c0,0-.2,0-.3,0s0-.1-.2,0c-.3.1-1.7,2.2-1.9,2.6-.8,1.2-1.1,2.2-1.5,3.5s0,.2-.2.2c0-4.7,0-9.3,0-14h1.5c0,0,.8,0,.8,0,0,0,0,0,.1,0,0,.4.5.8.9.8.7,0,1.2-.4,1.8-.6.2.6-.2,1.1-.6,1.5s-.9.8-1,.9c-.7.3-1.5-.6-2.1-.7-.1.1.5.6.5.7s.8.5.9.6c.5.1,1.3-.1,1.7-.4,1.5-.9,1.7-3.2,1.6-4.8Z"/>
    <path class="st16" d="M158.2,154.8c-.4,0-1.7,0-1.9.2s-.6,1.4-.7,1.6c-.5,1.5.1,4.4,2.2,4.1s1.1-.5,1.6-.7c0,.6,0,.9-.1,1.6s-.3.8-.4,1.6c-.4.4-.5,1.2-.7,1.7s-1.2,2.1-1.7,2.8-.4.4-.5.5c.5-1.6,1.9-3.6,1.9-5.3s-.8-1.3-1.6-1.1-1.6,1.2-2.1,1.9-1.1,1.7-1.9,2.4c0,0-.1-.4-.1-.4,0,0,0-.1,0-.2,0-.2-.1-.4-.1-.5.2,0,.3-.2.4-.3,1-1.1,1.5-2.2,1.3-3.7l-1-2.4c0,0,.3-.7.3-.7h-.4c0,0-.2-.4-.2-.4.3-.2.7-.4,1-.6s.7-.5.5-.6-.7-.1-1-.3c1.1,0,2.1-.5,2.9-1.2.8.2,1.6-.6,2.5,0Z"/>
    <path class="st9" d="M158.2,154.8c1.6.2,2.2,1.3,2,2.8s-.2.7-.1,1c-.2.2-.6.6-.7.9s0,.4,0,.6c-.6.2-1,.6-1.6.7-2.1.3-2.7-2.6-2.2-4.1s.6-1.5.7-1.6c.2-.3,1.5-.3,1.9-.2Z"/>
    <path class="st9" d="M98.5,159c-.2,0-.1,0,0,.1,1.1,1.2,1.5,2.5.6,4.1s-2.1,1.1-3.4.9c0-.1-.2-.5-.2-.6v-1.6s.2-.4,0,0c-.4.4,0,1.2-.2,1.7l-.2-.3v.3c-.1-.4,0-.5,0-.7s-.2-.5-.1-.8.4-1.3.5-1.5c.2-.3.5-.2.7-.4s-.1-1,.4-1.2c0,0,0,.2,0,.2.2,0,.4-.2.7-.2.5,0,.9,0,1.3,0Z"/>
    <path class="st19" d="M137.4,98.2c-.6,2-1.2,5.2-2.2,7s-.4.5-.8,0-.1-.2-.2-.3h.1c-.1-.2-.4-.3-.5-.5-.8-.9-1.2-1.1-2.4-1.5-2.4-1-5.1-1.6-7.7-1.4l-3,.3c.6-.6,1.6-.8,2.4-1s1.1-.1,1.6-.1c0,.1.3,0,.4,0,.7,0,1.4,0,2,0s0,0,.1,0c0,0,0,.1,0,.1,0,0,.6,0,.7,0s0,0,.1,0c0,0,0,0,.1,0l4.9,1.4c0,.3-.2.6,0,.9s.9.6,1.1.6,0,0,0,0c0,.1,0,.2.1.1,0,0,0,0,0,0,0,.1.2.2.3.3,0,0,0-.2,0-.3s0,0,0,0,0,0,.1,0c0,0,.2-.9,0-1,0,0,0,0,0-.1l.6-.8,1.2-3.5c0-.2.3-.2.5-.2Z"/>
    <path class="st0" d="M158,138.4l-1.6-1.3c0,0,0-.1,0-.2,0-.5.9-1.4,1.2-1.9s.4-.7.9-1.2c3-3.3,5.5-7.2,8.4-10.6.4-.6.3-.9-.2-1.4-.8-.7-1.9-1.3-2.7-2.1-.7-.4-1,0-1.4.5-1.3,1.4-2.5,3.2-3.7,4.8-2.2,2.8-4.4,5.5-6.6,8.3-.8.6-1.6-1.2-2.5-1s-1.2,1.1-1.3,1.4c-.3,1.1,1.5,1.6,1.5,2.4s-.7.8-.7,1.2,0,.4,0,.7-.3.6-.2,1c-.1.1-.2.4-.4.6-.9,1.1-1.8,2.3-2.8,3.4,0-.1,0,0,0-.3.6-1,1.6-1.9,2.3-2.8.1-.2.7-.9.1-.5-.8.9-1.5,2.2-2.4,3.1s-.4.4-.5.4c-.2,0-1.3-.6-1.7-.7s-.8,0-1.1-.1c-.9-.2-1.7-.5-2.7-.7s-1.8-.2-2.5-.3-.8.2-1.3.1-.7-1-1.2-1.1c.1-.2.2-.2.2-.2,0,.3.5.4.7.6s.2.5.4.6c.3,0,.8-.1,1.1-.1,1.8,0,3.5.5,5.2.9s1,.1,1.5.3,1.1.7,1.5.4c.8-1,1.5-2,2.3-3s1.1-1.1,1.1-1.6,0-.6,0-.9.8-.8.6-1.1c-.3-.5-1.3-1-1.5-1.6s.1-1,.5-1.5c.5-.6,1-1,1.8-.6s1.1,1.1,1.6.8c3.7-4.5,7.1-9.1,10.8-13.5.4-.2.9-.2,1.3,0,.9.6,1.8,1.5,2.7,2.1.7.9,0,1.6-.5,2.3-2.6,3.5-5.5,6.8-8.1,10.2s-1.2,1.5-1.7,2.2,0,.5.2.8,1,.6,1.2,1.1Z"/>
    <path class="st19" d="M143.8,82.7c1.3.2,1.8.7,2.8,1.4s2.2.5,2.9.8c1.2.4,2.5,1.5,3.1,2.6s.2.9.1,1.5,0,.2,0,.2c-.2,0-.2,0-.2-.1-.5-1-1-2.6-2.1-3.1-.3-.3-.8-.4-1.2-.6s-.7-.2-1.1-.2-.6,0-.7.5c-.5-.3-1-.8-1.4-1.2-2-1.5-4-1-5.1,1.2s-.8,1.8-1,2.3c-.2,0-.2-.3-.4-.4,0-.3.1-.7.2-1s0,0,0-.1c.2-.2.2-.6.3-.8s0,0,0,0c.2,0,.1,0,.2-.2.1-.2.3-.5.4-.7.2,0,.2-.2.2-.2.1-.1.3-.2.4-.3.1,0,.2,0,.1-.1,0,0,0-.2,0-.3h0c.2-.3.9-1.1,1.2-1.2h0c.1,0,.3-.1.4-.1.3,0,.6,0,.9,0Z"/>
    <path class="st19" d="M152.7,89.3c0,.1,0,.2.2.3.3.4,1.8,1.7,1.9,2s-.4.3-.5.4,0,.2,0,.3c0,.3,0,.6.1.9s0,0,0,.1c0,0-.2.4,0,.5-.1.1-.4.4-.4.4,0,.3.1,1.5.2,1.9s0,.3.1.3c0,0,0,0,0,.1,0,.7,0,1.3,0,2s0,.3.1.2c0,0,0,.2,0,.3,0,.8,0,1.7,0,2.5s0,.3,0,.4c0,0,0,.1,0,.2-.1.3-.2.8,0,1,0,0,0,0,0,.1-.2,0-.1.3-.1.5s0,.2,0,.3c-.2.3,0,.6-.1,1s-.1.4-.1.6,0,.7,0,.9c0,.2,0,.4,0,.6-.2.1-.3.4-.4.6-.2.5-.3,1-.4,1.6-.3,0-.2.4-.4.5s-.3.1-.4.1c0,0,0-.3,0-.3.4-.9.6-1.8.7-2.8.3-2.4.5-5.4.6-7.9s0-5.2-.7-7.5-.6-1.5-.6-2,0-.2,0-.2Z"/>
    <path class="st19" d="M140.3,105.9s0,0,0,0c0,.2,0,.6.1.5,0,0,0,.1,0,.2s0,.1,0,.2c0,.1.6.5.8.7.8,1,1.6,2.7,1.8,4s0,.3.1.2c0,.1,0,.3,0,.4s0,.1,0,.1c0,.2,0,.8,0,.8,0,.1.3.2.3.2,0,0,0,0,0,0,0,.2.5.6.7.9,1.8,2.9.5,10.1-.9,13.1s-1.7,3.4-2.9,4c3.2-3.8,4.5-9.1,4.2-14.1,0-1.1-.4-2.6-1.2-3.4s-1.2-.8-1.2-.9c-.2-.5.3-.3.5-.3.4-.1-.2-1.3-.4-1.4-.3-1.1-1.1-2.1-1.6-3.2-.3-.4-.5-.3-.9-.2v-1.1c0-.2.3-.9.3-1.1h.1Z"/>
    <path class="st9" d="M138,134.2s.4-.3.4-.3c0,0,.4-.2.5-.1-.3.5-.5,1.1-.7,1.6-.8,1.6-1.8,2.9-2.9,4.4s0,.2,0,.2c0,0,0,0-.2.2s-.3.3-.5.6,0,.1-.1.2c-.2,0-.2.1-.2.2-.4.4-.7.9-1,1.3-.3-.9-.2-1.8.2-2.7.8-2,2.6-2.7,3.9-4.2s.6-1.1.9-1.4Z"/>
    <path class="st1" d="M154.5,139.5c.4.3.9.8,1.3,1s0,0,0,0c0,.2.4.3.6.3.4,0,.5-.4.9-.5-.3.5-.6.7-1.2.6s-1.3-1.1-1.8-1-.6.6-.9.8-.5,0-.7.2-.5.5-.7.7c-.4.3-.6.1-1.2.8s-1.2,1.6-1.8,2.4c-.1.3.7-.1.6.2-.2.2-.4.3-.6.5s-.9,1.1-1,1.3,0,.5-.1.8c0,0,0-.1,0-.1,0,0,0,0,0-.1,0,0,0-.2,0-.3,0,0,0,0,0-.1.2-.4,1.2-1.4,1.3-1.7s-.2-.2-.2-.4c-.3.3-.6.7-.9,1.1,0,0-.2.2-.2.1,0-.2,0-.4,0-.6s-.3-.6-.3-.6l3.9-4.9s.1,0,.2,0,.6.4.6.5c0,.2-.5.6-.5.7s0,.2,0,.2c.6,0,.5-.5.9-.7s.5,0,.7-.2.7-.9,1.1-1,.2,0,.3,0Z"/>
    <path class="st0" d="M143.5,113.4c.4,0,.7.6.9.9.7,1.2.8,4,.7,5.5-.1,2.8-.9,6.4-2.3,8.9s-1.3,2.1-1.8,2.5-.7.4-.8.5c-.1.3,0,.5,0,.8,0,.3-.8.8-1,1.1s-.4.8-.7,1.1-.3.3-.4.5c.3-.5.5-1.1.7-1.6,0,0-.4,0-.5.1s-.4.3-.4.3v-.2c.5-.6,1.6-2.2,2.3-2.6,1.2-.7,2.4-2.7,2.9-4,1.3-3,2.6-10.2.9-13.1s-.7-.7-.7-.9Z"/>
    <path class="st0" d="M124.4,81.2c-.2,0-.1-.1-.1-.2-.3-1.4-1.2-2.3-2.3-3.2h-2.6c-1.1.6-1.8-.1-2.8-.4-3.6-1-7.3.4-10.3,2.3l-1.2.8s0,0,0-.2c0-.2,1.2-.9,1.5-1.1,3-1.9,6.6-3.1,10.1-2.1s1.1.5,1.6.6,1.1-.2,1.6-.2.5,0,.8,0c.5,0,1-.2,1.5,0s.3.3.4.5c1.1.9,1.6,1.6,1.8,3.1Z"/>
    <path class="st13" d="M122.4,92c-.2,1.3-.1,2.4-.8,3.7s-.5.6-.6.7c0,.5,1,0,.8.9s-.5.5-.9.7-1,.9-1,1c0,.3,0,.4.3.5.7.4,1.6-.2,2.4.1s.5.9.7,1h3.4c-.6,0-1.3,0-1.9,0s-1.1,0-1.6.1c0,0,0-.1,0-.1-.2-.2-.5-.9-.8-.9s-.8,0-1.1,0-.5.1-.7.1c-.3,0-.6-.4-1-.2.2-.4,0-.8.4-1.2s.5-.5.7-.6.9-.4.9-.6c.2-.6-.5-.4-.7-.6s0-.5,0-.6c.1,0,.3-.2.4-.4s0-.2,0-.2c.2-.3.7-1.1.7-1.4s0-.6,0-.9c0-.4.2-1.1.3-1.5v.2Z"/>
    <path class="st1" d="M147.8,147.8c0,.7.4,1.1.5,1.8s0,.7,0,1,.7.8.8,1.2c.3.5.2.8.2,1.3s.7,1.1,1.1,1.1c.8,0,1.5-.4,2.3-.5s2.1,0,2.8.1.3.2.4.2.3-.1.5-.2c1.9-.4,4.1.5,4.4,2.7s.1,1.1-.3,1.1c.3-.7.2-1.2,0-1.9-.5-1.2-2.2-1.9-3.4-1.8s-.8.3-1.1.3-.6-.2-.9-.3c-.7,0-2.3,0-3,0s-.6.3-.9.3-.7,0-.9.1,0,.2,0,.2c0,0-.4-.3-.5-.3l-.5-.7s0,0,0,0c0,0,0,0,0,0,0-.2,0-.5,0-.7h0c0-.1,0-.2,0-.3-.2-.6-.6-1-1-1.6,0,0,0,0,0-.1,0-.1,0-.4,0-.5,0-.1,0-.3,0-.5,0-.4-.2-.9-.5-1.1,0,0,0-.2,0-.3s0-.1,0-.3,0,0,0-.1h0Z"/>
    <path class="st10" d="M143.9,99.1c0-.4.5-.6.8-.4s1,1.5,1.3,1.8.6.6.8.9.7.8,1,1.2c.1.3,0,.6.2.9.2.4.9.9,1.2,1.4s.8,1.3.8,1.5,0,.6.2.9.3.5.5.7c.3.6.5,1.2,1,1.7s.4.5.9.4.3,0,.4-.1c.2-.2.2-.5.4-.5,0,.2-.2.7-.4.7s-.9,0-1,0-.2,0-.3-.2c-.6-1.2-1.5-2.3-1.7-3.6-.3-.5-.5-1-.8-1.5s-.9-.8-1.1-1.3-.1-.7-.2-.9-1.6-1.7-1.9-2.2-1.1-1.7-1.2-1.8c-.3-.2-.5,0-.7.3h0Z"/>
    <path class="st19" d="M100.4,157.9c-.3,0-1.4,0-1.4.2s.1.2.1.2c0,.2.1.4.2.6-.3,0-.5,0-.8,0-.4,0-.8-.1-1.3,0s-.4.1-.7.2c0,0,0-.1,0-.2s0,0,0,0c.1-.1.3-.3.3-.5.4-.1.7-.1,1-.2s.3-.2.5-.3c.7-.3,1.4-.3,2.1,0Z"/>
    <path class="st0" d="M94.9,163.6v-.3c.1,0,.3.3.3.3.2-.5-.2-1.3.2-1.7s0,0,0,0v1.6c0,0,.2.5.2.6.2.6.7,1.5.5,2.2s-.2.5-.3.7c0,0,0-.2-.2-.1,0,0,0,0,0,0,0-.7.3-1.2-.2-1.9s-.5-.5-.6-.7,0-.3,0-.5,0,0,0-.1Z"/>
    <path class="st13" d="M152.8,89h0c.1-.6.2-.9-.1-1.5-.7-1.1-1.9-2.2-3.1-2.6s-2.4-.4-2.9-.8c-1-.7-1.4-1.2-2.8-1.4.5-.2,1.3.2,1.8.4s1,.9,1.4,1c.7.3,1.9.4,2.7.7s1.7.8,2.3,1.6,1,1.2,1,2-.2.4-.2.5Z"/>
    <path class="st0" d="M101.6,178.2s0,0,0,0c.2,0,2.2,2,2.4,2.3s.7.9,1,1.3.8.8.8,1.2-.3.5-.3.8c.4,0,.7-.3,1,0s.5,1.1.8.7c0,.3.2.2.4.4.6.7.5,2.6,1.1,3.2s1.4-.2,2,.5-.2,1.6,0,2.4,1.6,1,2.4,1,.3,0,.2.1c-.7,0-2.1-.2-2.6-.8-.7-1,.4-1.9-.3-2.8s-1.5,0-1.9-.3-.4-.8-.4-.9c-.2-.8-.2-1.9-.8-2.5,0,0,0,.1,0,.1-.7,0-.7-.9-1.1-1s-.8.3-1,0,.3-.8.4-1c0-.3-.2-.4-.3-.6-.4-.6-.3-.5-.7-.9s-.5-.7-.7-1c-.7-.8-1.7-1.5-2.3-2.3Z"/>
    <path class="st13" d="M106.5,157.5c0,0,0,.2,0,.3,0,.2-.5.6-.8.6s0-.1,0-.1c-.5-.2-1,0-1.5-.1s-.9-.3-1.4-.2-.2.1-.4.2c-.2,0-.5,0-.6,0-.3,0-.9-.2-1.2-.3-.7-.3-1.4-.3-2.1,0s0,.2-.5.3c0-.1,0-.2,0-.3.3-.1.9-.3,1.2-.3.9,0,2.3.6,3.1.4s.3-.2.4-.2c.6,0,1.1.1,1.7.2s1.1,0,1.6,0c.2,0,.5-.4.6-.6,0,0,0,0,0,0Z"/>
    <path class="st0" d="M149.4,175.7c-.6.5-1,1.2-1.5,1.9s-.8,1.2-1.1,1.8c-.5,1.1-.8,2.3-1.2,3.5,0-.3,0-.6,0-.9.2,0,.1,0,.2-.2.4-1.3.7-2.3,1.5-3.5s1.7-2.4,1.9-2.6.2,0,.2,0Z"/>
    <path class="st10" d="M112.5,94.7c-.1,0-.2,0-.3,0,0-.2-.3-.3-.3-.5-.1-.4.3-1.4.4-1.8s0-.1.1-.3,0-.4.1-.5c0,1,0,2,0,3.1Z"/>
    <path class="st0" d="M143.5,100.4c0,.1-.2.4-.2.4,0,.1-.5.6-.5.6,0,.2.3.3,0,.9-.5,1-2.2,2.4-2.5,3.5h-.1c.2-.5.8-1.2.9-1.6h0c0,0,0-.1,0-.1,0,0,0,0,0,0,.2,0,.2,0,.3-.2.2-.3,1.2-1.5,1.2-1.7.1-.3,0-.8.1-1.1.3-.1.5-.5.8-.7Z"/>
    <path class="st0" d="M96,168.6c.2,0,.1.1.1.2.2,1.3.4,3,1.1,4.2s.5.5.6.8.2.7.7.9c-.5.4-.5-.3-.8-.7s-.3-.3-.4-.5c-.7-1-1.3-3.7-1.3-4.9s0,0,0-.1Z"/>
    <path class="st13" d="M123,88.8s0,0,0,.1c-.3.3.2.7.1.9s-.4.2-.5.7,0,.1,0,.2c0,.2-.2.5-.2.7,0,0-.1,0-.1,0,0-1,0-2,.8-2.7,0,0,0,.1,0,.2Z"/>
    <path class="st10" d="M156.7,167.8h0c.5-.7,1.4-2.1,1.7-2.8s.3-1.3.7-1.7c0,.2,0,.3,0,.6-.5,1.3-1.1,2.8-2,3.9s-.2.1-.2.1Z"/>
    <path class="st10" d="M139.6,86.8c0,.3-.1.7-.2,1-.2.9-.6,2.2-.5,3.1s.1.5.2.6c0,.3,0,.6,0,.9s0,0,0,.1h0c0,.2,0,.2,0,.2h0c0,.2,0,.2,0,.3h0c0,.1,0,.2,0,.2h0c0,.2,0,.2,0,.3h0c0,.1,0,.2,0,.2h0c0,.2,0,.2,0,.2v.2c0,0,0,0,0,.1-.2,0-.1.3-.1.4s0,0,0,0h0c0,.2,0,.2,0,.3h0c0,.2,0,.2,0,.3h0c0,.2,0,.2,0,.3h0c0,.2,0,.2,0,.3h0c0,.2,0,.2,0,.3h0c0,.2,0,.2,0,.3h0c0,.2,0,.2,0,.3h0c0,.2,0,.2,0,.3h0c0,.2,0,.2,0,.3h0c0,.2,0,.2,0,.3v.4c-.2.1-.2.2-.3.3-.2,0-.4,0-.5.2l-1.2,3.5-.6.8c0-.4.3-.6.5-1l1.2-3.6c.1-.1.4,0,.5-.3s.3-.9.3-1.2c.3-1.3,1-3.1,1.2-4.4s-.2-.8-.2-1.3c0-.8.5-3.2.8-4s0-.3.2-.2Z"/>
    <path class="st0" d="M140.5,106.6c.6.3.8.6,1.1,1.1.8,1.2,1.5,2.5,1.6,4-.2,0-.1-.1-.1-.2-.2-1.3-1.1-3-1.8-4s-.7-.6-.8-.7,0-.1,0-.2Z"/>
    <path class="st10" d="M128.3,100.8c.6,0,2.3.6,3,.8s.8.2,1.2.3.6.1.8.2,0,.7,0,.9.9.4.9.7c-.2,0-1-.5-1.1-.6-.2-.3,0-.5,0-.9l-4.9-1.4Z"/>
    <path class="st10" d="M107.2,151.5c0,.9-.2.8-.5,1.4s-.2,1.4-.2,2.2,0,.4,0,.6.3.5.3.8-.1.5-.1.8,0,.3-.1.2c0,0,0,0,0,0,0-.3,0-.8,0-1.1s-.2-.4-.2-.6,0-.4,0-.6c0-1.4-.2-1.5.5-2.8s.1-.6.3-.8Z"/>
    <path class="st0" d="M125.4,191.7h-.6c-.1.3.3.8,0,.9s-1.1-.3-1.5-.3c-.8-.1-2,.4-2.9.4,0-.2.1-.1.2-.1.7-.1,2.1-.5,2.7-.4s.8.4,1.3.3c-.2-.5-.2-.7.5-.7s.2,0,.2,0Z"/>
    <path class="st10" d="M152.8,89c-.1.5.3.6.6.9s1.4,1.3,1.5,1.5c.2.6-.3.6-.3.7,0,.3.2.7,0,1,0-.3,0-.6-.1-.9s-.1-.2,0-.3c0,0,.5-.1.5-.4s-1.6-1.6-1.9-2-.1-.2-.2-.3c0,0,0,0,0,0s0-.1,0-.2h0Z"/>
    <path class="st0" d="M98.7,174.9c.6.4,2.1,1.8,2.4,2.5s.1.5.2.7.3,0,.2.2c-.5,0-.3-.2-.5-.6-.3-.6-1-1.4-1.6-1.7l-.7-1Z"/>
    <path class="st10" d="M111.5,88.1c.1,0,.8,0,.8,0,.1.2,0,1.2,0,1.5-.2,0-.1,0-.2-.2-.2-.4-.5-.9-.6-1.3Z"/>
    <path class="st16" d="M143.8,99.2h0c0,.6-.1.8-.3,1.2-.3.2-.5.5-.8.7h0l1.1-2c0,0,0,0,0,0Z"/>
    <path class="st0" d="M123.7,88l.7-2v-1.1c0-.1,0-.3,0-.4,0,.2.2.5.2.6,0,.7-.4,2.4-.9,2.9Z"/>
    <path class="st14" d="M156.7,167.8s-.1.4-.1.5,0,.1,0,.2c0,0,0,0,0,0-.2,0-.2,0-.2.2,0,0,0,0,0,0-.2.1-.6.5-.7.7.2-.4.4-.8.7-1.2s.4-.3.5-.5h0Z"/>
    <path class="st0" d="M151.4,173.2s0,0,0,.1c-.2.2-.4.5-.6.7s-.3.2-.5.4c-.2.2-.5,1.1-.7,1.2.1-.5.3-1,.6-1.3s.4-.5.8-.8.2-.2.3-.3h.1Z"/>
    <path class="st9" d="M94.9,163.7c0,.2,0,.3,0,.5s.5.5.6.7c.5.6.1,1.2.2,1.9-.4,0,0-.7,0-.9,0-.9-.9-1.1-1-1.9s0-.3.1-.2Z"/>
    <path class="st10" d="M142.9,82.6c0,0-.3.1-.4,0,0,0,0,0,0,0-.2.1-1,.9-1.2,1.2s0,0,0,0c0,0,0,.3,0,.3s-.1.1-.1.1c-.1.1-.3.1-.4.3h-.2c0-.2.3-.2.5-.4s.2-.4.3-.5c.4-.4,1.1-1.3,1.7-1.1Z"/>
    <path class="st0" d="M124.4,84.4c-.2,0-.1-.1-.1-.2-.1-.5-.3-.7-.2-1.3s.1-.4.2-.6,0-.5.2-.7c0,.7-.2,1.2-.2,1.7s.2.6.2,1.1Z"/>
    <path class="st0" d="M98.6,87.2c-.1.2-.3.4-.4.6-.2.3-.9,1.3-.9,1.6,0,.5.7.7,1.1.8s.3,0,.2.2c-.5,0-1.4-.4-1.4-1s1-1.9,1.5-2.2Z"/>
    <path class="st10" d="M102.9,140.7s0,0-.1,0c-.6,0-1-1-1.3-1.1s-.7.3-.9.5c0-.2.7-.7.9-.7s.7.8,1,1,.3.1.4.2Z"/>
    <path class="st0" d="M115,192.2c.9,0,1.8.2,2.7.3s.3,0,.2.1c-.9,0-2-.3-2.9-.4Z"/>
    <path class="st0" d="M105.1,80.9c0,0,0,.1,0,.2-.4.4-1.4.8-1.8,1.3-.4.1-.6.7-1.1.8.8-.9,2-1.6,3-2.2Z"/>
    <path class="st0" d="M105.5,89.1c-.5.2-1,.3-1.5.5s-.8.5-1.2.5l1.5-.7c.4-.2.9-.2,1.2-.3Z"/>
    <path class="st15" d="M143.5,113.4c0,0-.3-.1-.3-.2s0-.7,0-.8h0c0,.5.4.3.5.5s-.2.4-.3.6Z"/>
    <path class="st10" d="M154.6,98.8c-.2,0-.1-.1-.1-.2,0-.7-.1-1.3,0-2,.1.7.2,1.5.2,2.2Z"/>
    <path class="st0" d="M153.1,172s0,0,0,.1,0,0,0,0h0c0,0,0,0,0,0-.1,0-.3,0-.3.3,0,0,0,0,0,0-.1,0-.2,0-.1.1,0,0,0,0,0,0-.1,0-.3,0-.5,0,.1-.2.4-.4.6-.5s.4-.1.5-.2Z"/>
    <path class="st10" d="M107.5,146.2c.1.5-.1.8-.2,1.2s0,.4,0,.5c-.1,0-.1-.2-.1-.3,0-.5.4-1,.3-1.5,0,0,0,0,0,.1Z"/>
    <path class="st0" d="M102,83.2c-1,1-1.9,2.1-2.8,3.2s-.2.6-.6.7c.9-1.3,1.9-2.7,3.1-3.7s.1-.2.3-.2Z"/>
    <path class="st0" d="M157.6,139.6c0,.2-.2.4-.3.5s0,0,0,0c-.3.1-.5.5-.9.5s-.6,0-.6-.3c.3,0,.4.2.7,0s.6-.5.7-.6c0,0,.1-.4.3-.4Z"/>
    <path class="st10" d="M154.6,101.9c-.1,0,0-.3,0-.4,0-.8,0-1.7,0-2.5.1.1,0,.2,0,.4,0,.8,0,1.7,0,2.5Z"/>
    <path class="st1" d="M154.4,105.1c0,.5,0,1-.1,1.4-.1-.2,0-.6,0-.9s.1-.4.1-.6h0Z"/>
    <path class="st10" d="M152.4,172.7l-.6.3c0,.2-.3.3-.4.4,0,0,0,0,0-.1s0,0,0,0c0,0,0,0,0,0,.2-.1.1-.2.4-.3s.3,0,.5,0Z"/>
    <path class="st10" d="M126.8,100.7c.2,0,.3,0,.5,0-.6,0-1.3,0-2,0s-.3,0-.4,0c.6,0,1.3,0,1.9,0Z"/>
    <path class="st0" d="M122.4,92v-.2c0-.1,0-.3,0-.4,0-.2.1-.5.2-.7h0c0,.5-.2.9-.3,1.3Z"/>
    <path class="st0" d="M123,88.9c0,.2,0,.3,0,.4s.3.1.3.5-.6.5-.7.7c.1-.4.5-.5.5-.7,0-.2-.4-.6-.1-.9Z"/>
    <path class="st10" d="M140.4,84.7s0,.1,0,.1c-.1.2-.2.5-.4.7s0,.2-.2.2c0-.3.2-.6.4-.8s0-.2.2-.2Z"/>
    <path class="st10" d="M156.2,168.8c-.1.2-.3.4-.4.6-.7.8-1.4,1.6-2.2,2.3s-.2.4-.5.4c0,0,0,0,0-.1,1.1-.7,1.6-1.7,2.4-2.5s.5-.6.7-.7Z"/>
    <path class="st0" d="M100.2,90.4c-.3.1-.8.1-1,0,.4,0,.6,0,1,0Z"/>
    <path class="st10" d="M135.2,102.8c.1.1,0,.9,0,1s-.1,0-.1,0c.1-.3,0-.6,0-.9s0-.1,0-.2Z"/>
    <path class="st0" d="M108.8,120.6c0-.5,0-.3,0-.8.1.2,0,.6,0,.8Z"/>
    <path class="st10" d="M153.7,107.8c0-.2.2-.5.4-.6,0,0,0,0,0,.1s-.3.5-.5.5Z"/>
    <path class="st10" d="M154.4,105.1h0c0-.3,0-.7.1-1,0,.3,0,.6,0,1Z"/>
    <path class="st10" d="M104.6,142.4c-.3,0-.4-.4-.5-.6.3,0,.4.4.5.6Z"/>
    <path class="st10" d="M128.2,100.8s0,0-.1,0-.7,0-.7,0,0,0,0-.1c.3,0,.6,0,.8,0Z"/>
    <path class="st10" d="M139.6,86.6s0,0,0-.1c0-.2.2-.5.3-.7,0,.2,0,.6-.3.8Z"/>
    <path class="st0" d="M110.9,128.8c.2.2.4.5.4.8-.2-.2-.4-.5-.4-.8Z"/>
    <path class="st10" d="M154.6,103.2c-.2-.3,0-.7,0-1,0,.4,0,.7,0,1Z"/>
    <path class="st0" d="M120.3,192.6c-.2.1-.5,0-.7,0,0-.2.4-.1.6-.1s0,0,.1,0Z"/>
    <path class="st10" d="M105.1,143c-.3,0-.4-.3-.5-.5.3,0,.4.4.5.5Z"/>
    <path class="st0" d="M118.1,192.6s0,0,.1,0c.2,0,.7,0,.6.1-.2,0-.5,0-.7,0Z"/>
    <path class="st9" d="M96.8,158.4c0,.2-.2.4-.3.5,0,0,0,0,0,0,0-.3.2-.3.4-.4Z"/>
    <path class="st0" d="M158,139c0,0,0,.1,0,.2-.1,0-.2,0-.2.2,0,0,0,0,0,0h-.2c0-.2.2-.5.4-.5Z"/>
    <path class="st14" d="M147.8,147.4c0,.2,0,.3,0,.5h0c0-.3,0-.3,0-.6,0,0,0,0,0,.1Z"/>
    <path class="st10" d="M106.1,144.3c-.3,0-.3-.3-.4-.5.2,0,.3.3.4.5Z"/>
    <path class="st0" d="M113.7,192.1s0,0,.1,0c.2,0,.5,0,.4.1-.2,0-.4,0-.5,0Z"/>
    <path class="st10" d="M134.9,103.9c0,0,0,.3,0,.3-.1,0-.3-.1-.3-.3.1,0,.2,0,.3,0Z"/>
    <path class="st0" d="M114.4,192.2s0,0,.1,0c.2,0,.4,0,.4.1-.2,0-.4,0-.5,0Z"/>
    <path class="st10" d="M154.6,103.3c0,.2,0,.4-.1.5,0-.2,0-.6.1-.5Z"/>
    <path class="st0" d="M145.5,183.8s0,0,0,0c0-.2,0-.4.1-.5,0,.2,0,.4,0,.5Z"/>
    <path class="st0" d="M102.3,90.2c-.1.1-.3,0-.5,0,0-.2.2-.2.4-.1s0,0,.1,0Z"/>
    <path class="st10" d="M154.4,93.8c0,0,0-.4,0-.5,0,0,0,.2,0,.3s-.1.1-.1.2Z"/>
    <path class="st0" d="M108.4,88.5c-.1,0-.3.1-.5.1,0-.2.4-.2.5-.1Z"/>
    <path class="st0" d="M140.5,106.4c-.2,0-.2-.3-.1-.5.2.1.1.3.1.5Z"/>
    <path class="st0" d="M126,191.6c-.1,0-.3,0-.4,0,0-.3.3,0,.4,0Z"/>
    <path class="st0" d="M158,138.9c-.1,0-.1-.3,0-.3,0,.2,0,.2,0,.3Z"/>
    <path class="st0" d="M101.6,90.2c0,0-.2,0-.3,0,0-.3.3,0,.3,0Z"/>
    <path class="st10" d="M152.9,172.3c0,.2-.1.2-.3.3,0-.2.2-.2.3-.3Z"/>
    <path class="st9" d="M95.8,166.8c.1,0,.2,0,.2.1,0,0,0,.1,0,.2-.2,0-.2-.2-.2-.3Z"/>
    <path class="st10" d="M105.6,143.7c-.2,0-.2-.2-.3-.3.2,0,.2.1.3.3Z"/>
    <path class="st0" d="M123.2,88.5c0,0,0,.3-.2.3,0,0,0-.1,0-.2s0,0,0,0h0c0,0,0,0,0,0h0Z"/>
    <path class="st10" d="M107.1,145.6c-.2,0-.2-.2-.3-.3.2,0,.2.1.3.3Z"/>
    <path class="st10" d="M106.6,145c-.2,0-.2-.1-.3-.3.2,0,.2.1.3.3Z"/>
    <path class="st10" d="M106.4,144.6c-.2,0-.2-.1-.3-.3.2,0,.2.1.3.3Z"/>
    <path class="st10" d="M103.8,141.4c-.2,0-.2-.2-.3-.3.2,0,.2.1.3.3Z"/>
    <path class="st10" d="M154.2,96.1c.2,0,.2.2.1.3-.2,0-.1-.2-.1-.3Z"/>
    <path class="st0" d="M108.8,121.1c0,0,0-.2,0-.3.1,0,0,.2,0,.3Z"/>
    <path class="st1" d="M157.8,139.5s0,.1,0,.1l-.4.5c0-.2.2-.4.3-.5s0,0,0,0h.2Z"/>
    <path class="st0" d="M98.7,90.3c0,0,.3-.2.3,0-.1,0-.2,0-.3,0Z"/>
    <path class="st0" d="M101,90.3c0,0-.2,0-.3,0,0-.3.2,0,.3,0Z"/>
    <path class="st13" d="M140.6,84.6s0,.2-.2.2c0,0,0-.1,0-.1s0,0,0,0h.2Z"/>
    <path class="st10" d="M107.4,145.9s0,0-.2-.2c.1,0,.2,0,.2.2Z"/>
    <path class="st10" d="M106.8,145.2c0,0-.1,0-.2-.2.1,0,.2,0,.2.2Z"/>
    <path class="st1" d="M158,139.3c0,.3-.2.2-.2.2,0-.1,0-.2.2-.2Z"/>
    <path class="st10" d="M98,139.7s0,0-.2-.2c.1,0,.2,0,.2.2Z"/>
    <path class="st10" d="M104,141.7c0,0-.1,0-.2-.2.1,0,.2,0,.2.2Z"/>
    <path class="st10" d="M98.8,140.6c-.2-.1-.1,0-.2-.2.1,0,.2,0,.2.2Z"/>
    <path class="st0" d="M106.4,88.9c0,0-.1,0-.2,0,0-.3.1,0,.2,0Z"/>
    <path class="st0" d="M106.1,89c0,0-.1,0-.2,0,0-.3.1,0,.2,0Z"/>
    <path class="st0" d="M112.3,92.1c0,.1-.1.2-.1.3v-.3h.1Z"/>
    <path class="st10" d="M111.7,104s.2.2,0,.2c0,0,0-.1,0-.2Z"/>
    <path class="st10" d="M156.6,168.3h0c0,.3,0,.2-.1.2,0,0,0-.2,0-.2Z"/>
    <path class="st0" d="M107.8,88.7c0,0-.1,0-.2,0,0-.3.1,0,.2,0Z"/>
    <path class="st0" d="M107.4,88.7c0,0-.1,0-.2,0,0-.3.1,0,.2,0Z"/>
    <path class="st0" d="M107.1,88.8c0,0-.1,0-.2,0,0-.3.1,0,.2,0Z"/>
    <path class="st0" d="M106.8,88.9c0,0-.1,0-.2,0,0-.3.1,0,.2,0Z"/>
    <path class="st10" d="M103.4,140.9s-.2,0-.2,0,0-.1,0-.1c.1,0,.2,0,.2.1Z"/>
    <path class="st0" d="M105.7,89.1s0,0-.1,0c0-.2,0-.2.1,0Z"/>
    <path class="st10" d="M105.2,143.2c.1,0,.2,0,.1.1,0,0,0,0-.1-.1Z"/>
    <path class="st10" d="M152.6,172.5c0,0,.1.1-.1.1,0-.1,0-.2.1-.1Z"/>
    <path class="st10" d="M98.3,140.1c.1,0,.2,0,.1.1,0,0,0,0-.1-.1Z"/>
    <path class="st10" d="M156.5,168.6s0,0-.2.2c0-.1,0-.2.2-.2Z"/>
    <path class="st10" d="M100.5,140.2c0,0,0,0-.1.1,0-.1,0-.2.1-.1Z"/>
    <path class="st10" d="M100.2,140.4c0,0,0,0-.1.1,0-.1,0-.2.1-.1Z"/>
    <path class="st10" d="M134.4,103.8c.2,0,0,0,.1.1-.1,0-.2,0-.1-.1Z"/>
    <path class="st0" d="M143.3,112.3h0s0-.1,0-.1c0,0,0,0,0,.1Z"/>
    <path class="st10" d="M98.9,137.4c0,.1,0,.2-.1.1,0,0,0,0,.1-.1Z"/>
    <path class="st14" d="M108.9,118.4c.2,0,.2,0,0,.1,0,0,0,0,0-.1Z"/>
    <path class="st10" d="M99.3,137.1c0,.1,0,.2-.1.1,0,0,0,0,.1-.1Z"/>
    <path class="st10" d="M98.6,137.7c0,.1,0,.2-.1.1,0,0,0,0,.1-.1Z"/>
    <path class="st10" d="M98.2,138c0,.1,0,.2-.1.1,0,0,0,0,.1-.1Z"/>
    <path class="st16" d="M122.6,90.7h0c0,0,0-.1,0-.2,0,0,0,.1,0,.2Z"/>
    <path class="st9" d="M96,168.6s0,0,0,.1c-.2,0,0-.2,0-.2h0Z"/>
    <path class="st16" d="M143.9,99.2s0,0,0-.1h0s0,.1,0,.1Z"/>
    <path class="st10" d="M143.9,99.3h0c0,0,0,0,0,0,0,0,0,0,0,0Z"/>
    <path class="st10" d="M153,172.3h0s0,0,0,0Z"/>
    <path class="st16" d="M123.3,81.9c0,.7,0,1.6,0,2.3,0,1.2-.3,2.5-.3,3.7s0,.3,0,.4,0,.1,0,.2,0,0,0,0,0,0,0,0c-.8.7-.9,1.7-.8,2.7-.5,0-.8,1.4-1,1.8s0,.2,0,.2c-.4.9-.5,1.5-.8,2.4-.7,2.3-1.7,4.6-2.2,7s-.1.7-.1,1l.8-1.4c.3-.7,1-.9,1.4-1.5.2,0,.1,0,.1.1.1,0,.6-.2.7-.3.4,0,.8-.1,1.2-.1s.6,0,.8,0c0,0,0,0,0,.1-.8.1-1.8.4-2.4,1l3-.3c2.6-.1,5.3.5,7.7,1.4s1.5.7,2.4,1.5c0,.2.2.3.3.5s0,.1.2.3c.4.4.5.4.8,0,1-1.7,1.7-5,2.2-7s.1-.2.1-.3,0-.2.1-.4,0,0,0-.1,0,0,0-.1,0,0,0-.1,0,0,0-.1,0,0,0-.1,0,0,0-.1,0,0,0-.1,0,0,0-.1,0,0,0-.1,0,0,0-.1,0,0,0-.1,0,0,0-.1,0,0,0-.1,0,0,0-.1,0,0,0-.1,0,0,0-.1,0,0,0-.1,0,0,0-.1,0,0,0-.1,0,0,0-.1,0,0,0,0c0-.1.1-.3.1-.4s0,0,0-.1,0-.1,0-.2,0,0,0,0,0,0,0-.1,0,0,0-.1,0,0,0,0,0,0,0-.1,0,0,0-.1,0,0,0-.1,0,0,0,0,0,0,0-.1,0,0,0-.1,0,0,0,0,0,0,0-.1,0,0,0-.1c.8-.6.7-1.7,1-2.5.5-1.6,2.1-5.2,4.3-4.4s1.4,2,1.9,3,1.5,2.3,2.1,3.7,1,3.4,1.5,5.1.8,2.3,1.1,3.5c.8,3,1.5,6,1.7,9.1,0,0,0,.3,0,.3-.5,0-.6,0-.9-.4-.5-.5-.7-1.1-1-1.7-.4-1.6-1.2-3.3-2.2-4.6s-.5-.5-.7-.8c-.4-.4-.7-.8-1-1.2-.2-.7-.7-1.2-1-1.7-.6-1-1-2.2-1.4-3.3-.9-2.4-1.5-4.9-2.2-7.4-.1,0-.1.2-.1.3,0,.5,0,1.3-.2,1.7s-.1.3-.2.9,0,.4,0,.5c0,.5-.1.3-.3.5s-.5.7-.6.8c0,.1,0,.3,0,.4s-.3.4-.4.7,0,.3,0,.5c0,.3-.2.5-.3.8-1,.4-1.3,1.3-1.2,2.3-.3.4-.7,1.7-.9,2.2s-.4,1.4-.3,1.7c-.2.2-.3.5-.4.7-.1.4-.4,1.3-.4,1.6v1.2c0,0,0,.4,0,.5,0,.4,0,1.6.3,1.9s.5,0,.7-.1c.7-.4,1-1.2,1.3-2s.2-1,.7-1.5.9-.5,1.2-1c0,0,0,.1,0,.2s0,0,0,0c0,0,0,0,0,.1,0,.4-.7,1.1-.9,1.6s-.3.9-.3,1.1v1.1c.4-.2.6-.2.9.2.4,1.1,1.3,2,1.6,3.2-.1,0-.4-.1-.6-.2-.9-.5-1.3-1-2.5-.8s-2.5,1.3-2.7,2.4,1.5,1.3,2.4,1.8.6,1.3.6,2.2c-.6,0-3.7,1.2-3.9,1v-.5c-.5,0-.9.3-1.4.3.2-1.5.3-3,0-4.5s-1.4-5.4-2.6-6.2-.5-.2-.5.1.3.5,0,.7c-1.4-2.3-3.4-4-6.2-4.2s-4.6,1.7-4.8,4.2,0,.7.3.5.6-1.2.9-1.5c.5-.5,1.5-.6,1.7.2s-.4,3-.9,4-.5.7-1.1.6-.4-1.2-.8-1.4c-.6,2.2-1.6,4.4-.8,6.7-1.7-.5.3.8,0,1.2-1.4-.5-2.7-2-4.2-2.2.6-1,1.9-1.5,1.3-2.9s-1.5-1.6-2.5-1.7c-1.7-.1-2.5,1.1-3.4,2.3.1-.9.3-2,.6-2.9s.2-.6.3-.9c.2-.6.6-1.3.7-1.9.2-.1.2-.4.3-.5.4-1.3.3-2.9.3-4.3s-.3-1.5.3-2c0,0,.1,0,.2,0,.2.2.3.5.6.4,0,.6,0,1.2,0,1.8s.5,3,.6,3.4.3.3.6.3.4.1.6,0c.5-.2.7-1.7.7-2.2s0-.2,0-.3c0-.7,0-.6.3-1.2.4-.9.3-1.9.3-2.9s0-1.1,0-1.6c.1-1.3.6-2.6.7-4s-.1-2,0-2.4.2,0,.2-.1c.4-.6.5-1.5.8-2.1s.8-2.1.7-2.9,0-.4-.1-.5c.4-.8,1.3-1.1,1.8-1.8s.4-.4,0-.4c-2.9,1.6-6.1,2.8-9.5,3.1s-2.1,0-3,.3-1.2.3-2.1.5c-2.2.4-6.3,2.1-8.3,1.3s-.5-.7,0-1c2.6-1.7,7.3-2.2,10.4-3.1s5.3-2.2,8.3-3.7,3.7-2.1,5.3-.8.6.9,1.2.9ZM118.6,84.5c-.9,0-1.8.3-2.6.7l-.8.4c.9,0,1.8-.2,2.6-.6l.7-.5Z"/>
    <path class="st16" d="M116.1,131.8l4.4,2.2c0,.4-.7.3-.5.6s1.1.6,1.5.8.5.8.7.9c.4.3,2.4.4,2.5.5s0,.4,0,.5c.1.7,1.2,1.1,1.4,1.7,0,.3-1.1-.3-1.4,0-.3.5,1.5,1.3,1.8,1.6s.9.8.3.9-1-.5-1.6-.5c0,.3.2.4.1.7s-.6.5,0,.7,1.5.2,2.3.4.2.2.4.1.2-.2.3-.3c.4-.4.8-.8,1.4-1.1,0,0,0,0,0-.1-.4-.2-1.2.3-1.5-.2.5-.2,1-.2,1.2-.8s0-.4-.3-.5c-.8,0-1.8.2-2.3-.5,1,0,2-.2,2.9-.7s1-.7,1-1.3h-.7c.1-1,1.2-1,2-1.3s.8-.4.7-.6-.6-.2-.5-.3c.8-.4,1.4-1,2.2-1.4s1.8-.5,2.7-.8c-.7,1-2.6,1-2.4,2.6,1.3.1,2.2-.7,3-1.5s.2,0,.2,0v.2c0,.2-.4,1-.7,1.4-1.3,1.5-3.1,2.2-3.9,4.2s-.4,1.8-.2,2.7c-.2.2-.3.5-.4.7-.7.7-1.3.8-2.2,1.1-.1-.2-.6-.9-.8-.9s-1.7,0-2,0c-.5,0-1.2.2-1.6.5,1.1.2,2.2.3,3.2.7-2.7.6-5.6.5-8.1-1s-1-1-1.3-1.4c.2-2.3-1-4.3-2.4-6s-.8-.6-.9-1.1.7,0,1,.1.5.3.6-.1-.5-1.3-.7-1.6c-.4-.5-1-1.1-1.4-1.6Z"/>
    <path class="st9" d="M115.1,115.6c-.3,0-.8,0-1.1,0s-.6.1-.9.2c-.5,0-1.4,0-1.8.4s-.3.3-.3.4.2.5.2.6c-.2,0-.2,0-.2.2-.1,1.3,0,2.7,0,4h.3c0,1,.3,1.9.5,2.8.6,3.2,1.5,4.1,3.5,6.6s.5.7.8,1.1c.4.5,1.1,1.1,1.4,1.6s.7,1.3.7,1.6-.3.3-.6.1-1.2-.9-1-.1.6.8.9,1.1c1.5,1.6,2.7,3.7,2.4,6-1-1.1-2-2.2-2.9-3.4-1.7-2.4-2.9-5-4.1-7.6h.3c0,0,2.8,2.7,2.8,2.7.2,0,0-.4,0-.4-2.5-2.9-5.4-5.6-6.1-9.5s-1.1-7.6,1.4-10.1c.3-.2.7-.4,1-.6s.2,0,.3,0c.3-.2-.5,0-.6,0-.4,0-.8.4-1.2.5s-.1-.2-.1-.3c.9-1.2,1.7-2.4,3.4-2.3s2,.8,2.5,1.7c.7,1.4-.7,1.8-1.3,2.9Z"/>
    <path class="st16" d="M100.8,158.7c0,.8.7,1,1,1.8.4,1.4-.6,1.8.9,3.1s1.2.8,1.4,1.1,0,.9-.4.8-.6-.5-.7-.6c-.5-.3-1.1-.6-1.7-.6,1.3,1.5.7,3.5,1.1,5.2s2.3,3.8,2.7,6.2.4,2.2.4,3.1,0,.5-.2.7c-.5.3-1.4.2-1.9-.2s-.4-.5-.5-.6c1.8,0,1-2.1.7-3.1-.6-2.3-1.6-4.6-3-6.5s-2.6-3-4.2-1.1c0-.5,0-1.1-.3-1.6.1-.7-.3-1.5-.5-2.2,1.3.3,2.7.4,3.4-.9s.5-2.9-.6-4.1-.2-.2,0-.1c.3,0,.5,0,.8,0,0-.2-.1-.4-.2-.6.3.1.6,0,1,0s.5.2.7.3Z"/>
    <path class="st9" d="M103,178.7c-.3-.3-.9-.6-1.2-1s-.6-.8-.9-1.2c-1.1-1.3-2.4-2.1-3.2-3.6s-1-3.1-1.2-5.1c1.7-1.9,3.1-.4,4.2,1.1s2.4,4.2,3,6.5,1.1,3.2-.7,3.1Z"/>
    <path class="st16" d="M117.9,142c.2.1.7.6.8.5s0-.5.4-.2.5,1.2.4,1.5-.2,0-.2.2c-.3.6-.2.6-1,.7,0-.2,0-.5-.1-.6s-1.1-.1-1.3-.1c-1.1,0-2.1,0-3.2,0-.3,0-.4.4-.3.7,0,0-.2.1-.3,0-.2.2,1.2.6,1.3.7.6.2,1.1.2,1.8.5s.7,0,.7.3-.5.1-.6.1c-.7,0-1.5-.3-2.3-.3s-1.7-.2-2.6,0c0,.1,0,.1.1.2.5.4,1.7,1,1.7,1.7s-.2,1-.3,1.2c-.2.4-1.2.9-1.6,1.3s-1.3,1.2-1.4,1.7c-.4,1.6,0,3.2-.8,4.6s-.7.6-1.1,1c-.2-1,0-2.1.3-3.1s.6-1.5.3-2-.6.6-1.2.2c0-.2.3-.3.4-.5s.1-.6.1-.9c1.2.5,2.2-.6,2.9-1.4,1.4-1.7.8-3.6-.5-5.2,0,0,.4-.5.6-.6,1.5-1.2,3.4-1.4,5.2-1.8s.8-.3,1.1-.4c.2.1.6,0,.8.1Z"/>
    <path class="st16" d="M134.9,140.9c.3,0,.5,0,.7.2s.1.5.1.8c.3,0,.6-.2.9-.2.5,0,1.2.2,1.7.2,0,.1.2.1.3.1.6,0,1.2.2,1.8.3s.3,0,.4,0c.3.2.5.1.8.2.5,0,.9.2,1.4.3.4.2.9.3,1.4.4s0,0,0,0h.1c.6.3,1,.7,1.4,1.2-.5,0-1.4-.1-1.6.5s-.1.6,0,.8c-.9-.8-2-1-3.2-1.4.4,0,.7-.3,1.1-.5,0,0-.1-.1-.2-.1-1.3-.3-2.8-.3-4.1-.6-.3,0-.5.2-.6.5-.2,0-.5,0-.7-.2,0,.1.1.3.2.4-.8-.1-.7.7-1.1,1.2s-.4.3-.7.4-.1,0,0,.1l1.3,1.6c.2.9.8,1.6,1.4,2.2-.3.5-.2.2-.4,0-.9-.8-1.7-1.3-2.6-2.2s-2.7-1.7-3.9-2.4c.9-.3,1.7-.9,2.3-1.6,0,.3,0,.2.1.2.4.2.7.3,1,.7s.3.6.6.9l.8-.8c-1.1-.6-1.6-1-1.1-2.2s.4-.7.5-1.1Z"/>
    <path class="st16" d="M109.9,156.6s.1,0,.2,0c0,0,.5-.6.6-.5,0,.5.2,1.2.8,1.3s.5,0,.7.1c-.3,0-2.1.2-2.2.5-.2.4.4.4.5.4s0,.2.2.3,0,0,.1.1c0,0,0,0,0,0,0,.3-.1.6-.2.9-.3,0-1.4.6-1.7.8-.5.3-.4.6,0,1s.6.5.9.5v.7c-.5,0-1.7.1-1.9.4s0,.5,0,.8-.4.8,0,1.2.2,0,.2,0,0,0,.1,0c.3.3.4.8.9.9,0,0,0,0,0,.1-.5.6-1.1,1.3-1.9,1.4-.2-.3-.3-.3-.5-.6,0-.3-.1-.5-.1-.8s0-.4,0-.7,0-.5,0-.7v-.3c0-.1,0-.2,0-.3.2-.8.3-1.6.5-2.3s.5-1.7.7-2.6.1-.3,0-.4c0,0,0,0,0,0,.2-.1.2-.3.3-.4.3-.3.6-.6.9-.9.3-.3.6-.6.9-.8Z"/>
    <path class="st20" d="M110.1,143.5s-.2.2-.2.3c0,.1,0,.3,0,.5-.2.2-.7.2-.9.3s-.1.4-.2.6-.7,0-1,.6l-4-5.2,2.5-1.8,3.9,4.9Z"/>
    <path class="st11" d="M121.3,160.6c-.1.1,0,.2-.3.3s-.6.1-.9.3c-1.5.6-2.5,1.4-4.2,1.8s-2.4.3-3.5.3l1.1.3c.2.2.5.4.4.7s-.2.2-.2.4c-1.1.7-2.5.4-3.7.6,0,0,0,1.3,0,1.5,0,.4,0,.8,0,1.2,0,4.2,0,8.5,0,12.7,1.4,0,2.8,0,4.2,0,0,0,0,.1,0,.2h-4.2v2.8c0,1.9,2.3,4.1,4.3,4.2h26.8c.8,0,1.6-.4,2.3-.9,0,.1-.1.4-.1.5-.7.3-1.4.6-2.2.7h-26.9c-2.1-.1-4.5-2.4-4.5-4.5v-15.8c-.4.2-.8.4-1.2.5s-1.2,0-1.4-.5,0,0-.1-.3c.8,0,1.4-.8,1.9-1.4s0-.1,0-.1c.2-.2.3-.3.4-.5.3-.4.7-.5,1.2-.5.8,0,1.5,0,2.3-.2s.8-.3.8-.6c-.2.1-.5.2-.8.2-1.6.2-3.3-.1-4.8.7,1.2-.9,2.8-.7,4.2-.7s1.1,0,1.3-.2,0-.4-.2-.4c-.5-.4-2.4-.5-3.1-.5s-2.3.4-2.5.7-.2.7-.2.8,0,.6.2.5c0,0,0,.1-.2,0-.3-.4,0-.8,0-1.2s-.2-.5,0-.8,1.4-.4,1.8-.4.6-.1.8-.2l-.5.2c0,.2.2.1.3.1,1.5.1,3.7,0,5.2-.3s1.6-.4,2.4-.7c1.2-.5,2.2-1.4,3.5-1.4Z"/>
    <path class="st9" d="M110.2,144.7c1.3,1.6,1.9,3.5.5,5.2s-1.7,1.9-2.9,1.4c0-2.8-.8-4.5,1.8-6.4s.5-.2.5-.2Z"/>
    <path class="st7" d="M136.8,143.9c.3.5.3.4.7.7.5.5.6,1.5.8,2.2.3,1,1.1,2.1,1.8,2.8l-.7.9c-.2-.3-1.1-.2-1.6-.8s-.2-.2-.3-.3c-.6-.6-1.2-1.3-1.4-2.2l-1.3-1.6c0-.1,0,0,0-.1.3,0,.5,0,.7-.4.4-.5.3-1.3,1.1-1.2Z"/>
    <path class="st11" d="M140.5,149.9l-2.6,3.3c0,.2.1.4-.3.4,0,.4.6.5.9.7s.1.4.8.6.2.3.4,0h0c0,.1-.5.9-.5,1,0,.3,0,.5,0,.7,0,.5-.1.5,0,1.1.2,0,.5.1.7,0s.6-.9.7-1,0-.2.2-.2l-.7,1.1c.2.1.9-.8,1.1-.9-.3.3-.7.8-1,1s-.9.2-1,0,0,0,0-.1c0,0,0,0-.1,0,0-.5,0-.9,0-1.4s0-.3,0-.5.3-.4.3-.6c-1.4-.6-2.4-1.7-3.2-2.9s-1-2.3-3.4-2.4-4-.1-5.1.2-1.3,1.4-1.9,2.3c-2.2,3.1-5.3,3.7-8.9,3.9s-.6,0-.9,0c-.1.2-.3.5-.4.7s0,0-.1.1c0,.1,0,.3-.2.3h-2.2s-.4.3-.4.4c.3,0,.7,0,1,0s1.2-.3,1.4.1c-.3-.3-.7,0-1.1,0-.9,0-1.7,0-2.6,0s-.6.1-.7.2,0,.3,0,.4c-.2-.1-.2-.3-.2-.3,0,0-.7,0-.5-.4s1.9-.4,2.2-.5c-.2-.2-.5,0-.7-.1-.5-.2-.8-.8-.8-1.3,0,0-.5.4-.6.5s-.2,0-.2,0c0-.3.3-.3.5-.4s0-.3.5-.3.3,0,.2.1c-.2,0-.4-.2-.4.1s.2.9.3,1c.2.2.8.2,1.1.2,0,0,0,.1,0,.1.7.1,1.4,0,2.1,0,0,0,0,0,0-.1.2,0,.8.3,1,.2s.6-.8.6-.9c0-.1,0-.3,0-.5,1.4,0,2.7,0,4-.3s1.2-.3,1.3-.4,0-.6,0-.7c0-.4-.5-.6-.8-.7-1.5-.2-3.3.1-4.8,0-.2,0-.9.4-.9.6v1c.2,0,.3-.1.5-.1.2,0,.6.3.7.5,0-.1-.5-.4-.7-.4s-.7.1-.8.1c0-.9,0-1.8,1.1-2,1.5.2,3.6-.2,5.1,0s1,.8.9,1.5c1.6-.6,3-1.6,4-3s1.1-2.4,2.7-2.6c2.1.3,6-.9,7.4,1.1s.6,1,.9,1.4.5,1,.8.8.2-.3.3-.4c.5-.6,1.1-1.3,1.5-2,.2,0,.3,0,.5,0,0,0-.1-.4-.1-.4l.7-.9c0,0,.3.3.3.3Z"/>
    <path class="st11" d="M114.2,157.4c-1.1-.3-1-.1-2,0,.3-.4,1.9-.4,2,0Z"/>
    <path class="st9" d="M108.1,157.6c-.4.3-.6,1-1,1.4,0,0-.2.1-.3.1,0-1.4,0-2.7,0-4.1s0-.3,0-.4.1,0,.2-.2c.2-.5.2-1.3.4-1.8.6.4.7-1,1.2-.2s-.1,1.5-.3,2c-.2,1-.5,2.1-.3,3.1Z"/>
    <path class="st9" d="M115.9,156.1s0,0,0,0c0,.2,0,.3,0,.5s-.6.9-.6.9c-.3.1-.8-.1-1-.2-.1-.5-1.7-.4-2,0-.3,0-.9,0-1.1-.2s-.3-.8-.3-1c0-.3.2-.1.4-.1s.4,0,.6,0c.2,0,.6.1.9.1.6,0,1,0,1.5-.1s.3-.1.3-.1c.1,0,.7-.1.8-.1.1,0,.6.3.7.4Z"/>
    <path class="st9" d="M114.2,157.4s0,.1,0,.1c-.7,0-1.4,0-2.1,0,0,0,0-.1,0-.1,1.1,0,.9-.3,2,0Z"/>
    <path class="st7" d="M139.1,150.8c-.4.7-1,1.3-1.5,2l-1.1-.4c-.3-.5-.6-1-.9-1.4.2,0,.7-.3.9-.3h1.8c.2,0,.6.1.8.1Z"/>
    <path class="st9" d="M100.4,157.9c.3,0,.9.2,1.2.3.5.1,1,.4,1.5.5.6.3,1.3.2,1.9.3s1.3,0,1.1.7c-.1.2-1.5,0-1.8,0-1.2-.2-2.4-.6-3.6-.8s-.5-.2-.7-.3-.7,0-1,0c0,0-.2,0-.1-.2,0-.3,1.2-.3,1.4-.2Z"/>
    <path class="st9" d="M118.4,144.6c-.5,0-1.6-.2-1.9,0s-.1.3-.3.3c-.8,0-1.9-.3-2.6-.3-.1-.3,0-.6.3-.7,1.1,0,2.1,0,3.2,0s1.2,0,1.3.1c.2.1,0,.4.1.6Z"/>
    <path class="st7" d="M134.9,140.9c-.1.4-.4.7-.5,1.1-.5,1.3,0,1.7,1.1,2.2l-.8.8c-.2-.3-.3-.6-.6-.9s-.6-.5-1-.7-.2,0-.1-.2c.7-.8,1-1.5,1.5-2.3s0-.1.1-.2c.1.1.2.1.4.1Z"/>
    <path class="st15" d="M130.5,144.2c-.4.1-.8.3-1.2.3-1-.5-2.1-.6-3.2-.7.4-.4,1.1-.5,1.6-.5s1.8,0,2,0,.7.7.8.9Z"/>
    <path class="st15" d="M113.2,95.1c0-.1-.3-.1-.4-.1,0-.1,0-.3,0-.3,0-1,.2-2.7,0-3.5.3,0,.2,0,.2-.2,0-.5,0-1.2.5-1.5,0,1.5-.3,3.2-.2,4.7.3.2.4.9,0,1Z"/>
    <path class="st1" d="M113.8,101.3c-.3,0-.4-.2-.6-.4s-.2,0-.2,0c0,0,0-.5,0-.6,0-.2,0-1.2,0-1.3.1-.3.3-.5.4-1,.5,0,.4.8.5,1.2,0,.7,0,1.4,0,2.2Z"/>
    <path class="st16" d="M113.2,95.1c0,.2,0,.6,0,.8.1.8.3,1.1.1,1.9s-.3.7-.4,1c-.3-.2-.2-.5-.2-.8s-.2-.2-.2-.3.1-.3.2-.4c.2-.8.1-1.7,0-2.5.1,0,.4,0,.4.1Z"/>
    <path class="st11" d="M112.8,91.1c.2.9,0,2.5,0,3.5,0,0-.2,0-.3,0,0-1,0-2,0-3.1s.1-.6.1-.9c0,.1.2.3.2.4Z"/>
    <path class="st17" d="M107.7,159.2c-.2.9-.5,1.7-.7,2.6,0-.1,0-.2,0-.3.1-.7.5-1.5.6-2.3,0,0,0,0,.1,0Z"/>
    <path class="st6" d="M103.2,158.7c.6,0,1.2.1,1.8.1s.2,0,.1.1c-.6,0-1.4,0-1.9-.3Z"/>
    <path class="st11" d="M114.1,156c-.6.1-.9.2-1.5.1s-.6,0-.9-.1c.2,0,.5,0,.7,0,.6,0,1.1,0,1.7,0Z"/>
    <path class="st10" d="M106.4,164.1c0,.1,0,.2,0,.3s-.2.2,0,.3c0,.2,0,.5,0,.7,0,0-.2.2-.2,0,0-.4,0-.8,0-1.2s0-.2.2-.2Z"/>
    <path class="st6" d="M107.8,158.8c0,.1,0,.3,0,.4,0,0,0,0-.1,0-.2,0-.7,0-.7,0,.1,0,.2-.1.3-.1.2,0,.5-.1.7-.2Z"/>
    <path class="st7" d="M111.9,113.2c0,0,.9-.2.6,0s-.2,0-.3,0c-.4.2-.7.3-1,.6.2-.2.5-.5.7-.6Z"/>
    <path class="st7" d="M111.5,109.6c0,.2-.2.6-.3.9-.1-.2,0-.9.3-.9Z"/>
    <path class="st9" d="M106.4,166.1c0,.3.1.5.1.8,0,0-.1,0-.1,0,0-.2-.2-.8-.2-1l.2.3Z"/>
    <path class="st1" d="M112.5,107.1c0,.2,0,.4-.3.5,0,0,0,0,0-.1,0-.2.2-.6.3-.4Z"/>
    <path class="st7" d="M117.9,142c-.3,0-.6,0-.8-.1.3,0,.5-.1.7,0s0,.1.1.1Z"/>
    <path class="st11" d="M107.8,158.7c.2-.5.7-.9,1.2-1.3-.3.3-.6.6-.9.9s0,.2-.3.4Z"/>
    <path class="st10" d="M141.2,180.9c0,.4-.2.6-.5.7-6.8,0-13.7,0-20.6,0-.4-.1-.5-.3-.6-.7,7.2.1,14.4,0,21.7,0Z"/>
    <path class="st10" d="M116.5,181c0,.4,0,1-.1,1.4-.4.6-1.3.8-1.8.3s-.3-1.1-.3-1.7h2.3Z"/>
    <path class="st14" d="M116.5,180.7c0,0,0,.1,0,.2s0,0,0,0h-2.3s0,0,0,0c0,0,0-.1,0-.2.8,0,1.5,0,2.3,0Z"/>
    <path class="st11" d="M119.6,180.7c0,0,0,.1,0,.2-1,0-2,0-3.1,0,0,0,0-.1,0-.2,1,0,2,0,3.1,0Z"/>
    <path class="st11" d="M147.7,159.1c-.9.8-4.4,2.2-5.6,2.3s-.8,0-1.2-.1c-.2,2.3,1.7.6,2.7.3s.8-.1,1.1-.2c.5-.2,1-.6,1.7-.8s.8,0,1.2-.1.5-.6.9-.3c-.5-.1-.9.4-1.2.6-.9.6-1.5.6-2.5.9s-.6.4-.4.9c.2.8.3,1,1.2.7s1.7-.8,2.5-1.3c-.2.2-.4.4-.7.5s-.2,0-.2,0c-.2.2.3.1.4.1.9-.3,1.6-.8,2.3-1.3s.2,0,.3,0c0,0,0,0,0,0,0,.4.2.3.4.4s.4.3.5.4.2.3.2.4c-.2-.3-.9-1-1.3-.7.1-.2.1-.5-.2-.5-.4.3-.9.6-1.3.9s-.7.2-1,.4c-.4.2-.8.5-.7,1h.3c-.5.3-.4.8-.5,1.4,0,.2.8.4,1,.5s0,.2.2.3c.2,0,.5,0,.7,0-.2.3-.9,0-1,.3s.4,1.4.5,1.5h-.8c0,0-1.5,0-1.5,0,0,4.7,0,9.3,0,14s0,.6,0,.9,0,.3,0,.4c-.2.1-.1.3-.1.5s0,0,0,0c0,0,0,.2,0,.3-.2,0-.1.1-.1.2,0,.4-.2,1.2-.7,1.2.2-.3.3-.7.4-1.1s.2-.7.2-.9v-2.6c-1.4,0-2.7,0-4.1,0,0,0,0-.1,0-.2,1.4,0,2.7,0,4.1,0,0-4.1,0-8.2,0-12.3s0-1.3,0-1.9c-.8,0-1.5,0-2.2-.3,1.5.3,2.9.2,4.4,0,0-.5-.8-.5-1.1-.8v-1c-.3,0-.5.3-.9.4s-1-.1-1.5,0-.6.2-.9.3c-.5.2-.9.2-.5,1-.7-.5,0-.9.6-1.2s1.2-.3,2-.2v-.5c-.7.2-1.4.2-2.1.3s0,0-.1,0c-.2,0-.6,0-.7,0s0-.1,0-.1c.3.2,2.4-.1,2.9-.2s1.4-.4,1.8-.8.2,0,.2-.2c-.8-.1-1.7.8-2.4.6s-.6-1.2-.7-1.6c-.9.2-2.2.7-1.9,1.8s.2.3.2.3c0,0-.2,0-.2-.1-.2-.3-.2-.9,0-1.2.5-.6,1.2-.8,1.9-1s.4-.3.7-.3c.4-.1.6.1.5-.5-.2,0-.6.4-.7.4-.3,0-.7,0-1.1.2-.6.2-1.2.7-1.6.8-1.3.4-1.3-.9-.9-1.8,0,0-1.1,0-1.4,0s-.2-.2-.3-.3c.5,0,1.3.1,1.7,0s.2-.4.2-.4c.1,0,.6-.2.7-.3-.2.3-.5.2-.7.4s-.4.9-.4,1c.7.3,1.4.1,2.1,0,1.6-.4,3-1.4,4.6-2Z"/>
    <path class="st9" d="M114.5,77.7c-.1.7-.6,1.1-1.1,1.4s-.6.2-.6.2c-.2.2.4.4.6.4,0,.2,0,.4.2.5s.9.2,1.1.2c2.6,0,4.7-1.7,7.5-1.1s.8.4,1,1,.2,1,.2,1.6c-.6,0-.8-.6-1.2-.9-1.6-1.3-3.8,0-5.3.8-2.9,1.6-5,2.7-8.3,3.7s-7.8,1.4-10.4,3.1c.1-.3.5-1.1.6-1.3s.3-.2.5-.3c.3-.3.7-1,1-1.3,1.5-1.8,3.9-3.5,5.8-4.9s.6-.4,1-.6.5-.5.9-.7c0,0,0,0,0,0h0c1.8-1,3.6-2,5.8-1.8s.5.1.6.1Z"/>
    <path class="st1" d="M119.2,86.7s.1.4.1.5c-.9.7-1.1,1.8-.7,2.9-.3.7-.4,1.6-.8,2.1s-.2,0-.2.1c-.1.5,0,1.8,0,2.4,0,1.4-.5,2.7-.7,4s0,1.1,0,1.6c-.6.8-.8,2-.3,2.9-.2.5-.3.5-.3,1.2-.7.4-.4,1-.6,1.7s-.4.6-.6.9c-.3,0-.4,0-.6-.3s-.6-3-.6-3.4c.6,0,.4.4.5.8s.8.5,1,0c.5-1,.8-4.1.9-5.3s-.4-2.8-.3-4.2.3-1.1.4-1.7-.1-1.1.5-1.7.3-.1.3-.2c.4-.5.7-2.6.8-3.3s.3-1.3.5-1.3.5.2.5.3Z"/>
    <path class="st16" d="M114.8,77.7c.8.3,1.7.5,2.5.8s.4.2.6.3c-1.2.4-3.3.8-4.6.8s-.8-.2-.6-.4.5-.1.6-.2c.6-.3,1-.7,1.1-1.4,0,0,.2,0,.3,0Z"/>
    <path class="st14" d="M112.6,90.7c0-.9-.1-1.7.6-2.4s.2.5.2.6,0,.3,0,.5c-.5.3-.4.9-.5,1.5s0,.2-.2.2c0-.1-.2-.3-.2-.4Z"/>
    <path class="st14" d="M123,87.8c0-1.2.3-2.5.3-3.7.1.1.2.4.2.6,0,.6.1,1.6,0,2.1s-.3.9-.6,1Z"/>
    <path class="st1" d="M122.3,78.6c0,.1-.1,0-.2,0-.7,0-1.5,0-2.3-.2s.4-.3.5-.3c.7-.1,1.3.2,1.9.5Z"/>
    <path class="st15" d="M117.3,78.4h0c-.8-.2-1.7-.4-2.5-.7,1.1.1,1.5.3,2.5.7Z"/>
    <path class="st1" d="M108,79.4c-.3.2-.5.6-.9.7-.4.2-.6.3-1,.6-.1-.1,0-.2,0-.2.7-.5,1.1-.7,1.8-1.1Z"/>
    <path class="st12" d="M117.9,78.9c-.2-.1-.4-.3-.6-.3h0c0-.1.2-.1.3-.1.1,0,.4.2.5.3.2.2-.1.1-.2.2Z"/>
    <path class="st14" d="M123,88.3c.2,0,.1,0,.1.2h-.1c0,0,0-.1,0-.2Z"/>
    <path class="st1" d="M108.1,79.4s0,0,0,0h0Z"/>
    <path class="st16" d="M144.5,151c.8,1.2,2.1,2.2,3.3,2.8s0,0,0,0c.3.1.5.4.8.5s.2,0,.2,0c.2.3.5.5.7.8s.3.7.5.9c0,0,0,0,0,0,.6,1.2,1.4,2.3,2,3.5s.8,2-.3,3.1c-.2,0-.3-.2-.6-.3s-.2-.1-.2,0c-.1-.2-.4-.3-.5-.4,0-.2-.2-.4-.4-.4,0,0,0,0,0,0-.2-.6-.6-.9-.8-1.4-.2-.7-.3-1.8-1-2.2s-.3,0-.3,0c-.2,0-.1-.2-.5-.3v-.2c.1,0,.3-.1.4-.3-.3,0-.5,0-.8,0,0-.4.6-.7.7-1,.3-1.1-.6-1.8-1.5-2.2s-.2,0-.2.1c-.2-.1-.7-.3-.8-.3s-.1-.4-.4-.6-.7-.2-1-.3,0,0,0,0c-.1-.1-.3-.3-.4-.4s0-.1,0-.1c.2-.2.5-.4.6-.5.2-.2.2-.7.4-.9Z"/>
    <path class="st20" d="M149,139c.1-.2.4-.3.5-.5.5.4,1,.8,1.5,1.2s0,.2,0,.2l-3.9,4.9s-.2,0-.3,0-.3-.5-.4-.7c-.2-.3-.6-.6-.6-.9,1-1.1,1.9-2.3,2.8-3.4s.3-.5.4-.6Z"/>
    <path class="st9" d="M146,144.4c2.1,2.3.8,3,1.4,5.5s.7,1.6,1,2.4.6,1.8.5,1.9-.2,0-.2-.1c-1.6-1.9-2.1-5.2-3.5-7.4s-.7-.7-.8-1,0-.6,0-.8c.2-.6,1.1-.5,1.6-.5Z"/>
    <path class="st20" d="M140.5,149.9c.3.2.6.3.9.5,0,.2,0,.4,0,.6,0,.6-.3,1.4-.7,1.9s-.4.4-.5.6c-.1,0-.7-.4-.8-.4-.2,0-.8.1-.5.3.4.2.6.2,1,.6l-.6,1c-.6-.3-.4-.4-.8-.6s-.9-.3-.9-.7c.4,0,.2-.2.3-.4l2.6-3.3Z"/>
    <path class="st9" d="M155.8,154.8c-.7.7-1.8,1.2-2.9,1.2s-1.7,0-2-.9c1.4-.5,2.9-.8,4.4-.5s.4.1.5.2Z"/>
    <path class="st1" d="M141.9,150.8s.1.2.2.3c.1.1.3.4.4.5s.4.3.3.5-1,1.3-1.1,1.5-.1.1-.2.2c0,0-.4.2-.5.2-.4.2-.6-.2-.9-.3.2-.2.4-.4.5-.6.4-.5.6-1.3.7-1.9s0-.4,0-.6c.2.1.4.2.5.3Z"/>
    <path class="st15" d="M144,149.9s0,0,0,0c.1.3.3.7.5,1-.2.2-.2.6-.4.9s-.5.4-.6.5c0,0,0,0,0,0,0-.1-.4-.6-.4-.7,0-.2.2-.6.3-.8.3-1.1-.3-2.3-.3-3.5.1-.2.5.7.5.7.2.6.2,1.2.6,1.7Z"/>
    <path class="st15" d="M143.3,152.5c.1.2.1.4.5.5s0,0,0,0c.1.2.4,0,.6.2s.2.4.2.5c-.7-.1-1.4-.3-2.2-.2l.6-.8c0,0,.1-.1.2-.1Z"/>
    <path class="st9" d="M137.3,143.7c.1-.3.3-.4.6-.5,1.3.3,2.8.3,4.1.6s.2,0,.2.1c-.4.2-.7.4-1.1.5-.9,0-3-.4-3.9-.7Z"/>
    <path class="st15" d="M152.4,157.5l.2.5-1.1.5c0-.1-.1-.3-.2-.4.3-.2.5-.4.8-.5s.3,0,.3-.1Z"/>
    <path class="st14" d="M147.7,146.7s0,0,0-.1c0-.2.8-1,.9-1.2,0-.3-.4.2-.5.3s-.1,0-.2,0c.2-.4.5-.8.9-1.1,0,.1.2.3.2.4,0,.3-1.1,1.3-1.3,1.7Z"/>
    <path class="st11" d="M144,149.9c-.4-.5-.4-1.2-.6-1.7s-.4-.9-.5-.7c0,1.2.6,2.3.3,3.5s-.3.7-.3.8.3.5.4.7c-.1,0-.2,0-.2.1l-.6.8c.7,0,1.5,0,2.2.2,0,0-.2-.4-.2-.5-.1-.1-.5,0-.6-.2.3,0,.7,0,1,.3s.2.4.4.6.6.2.8.3.4.2.5.4c-.7-.5-1.6-.8-2.5-.9s-1.9-.2-2.7,0c0,0,.2,0,.2-.2.1-.1,1.1-1.4,1.1-1.5,0-.2-.2-.4-.3-.5h.3c.2-.5.4-1,.3-1.7s-.2-.6-.2-.9-.1-1.6-.2-1.6c-.1,0-.4,0-.5.1s-.3.6-.4.6c-.4,1-.2,2,.2,2.9,0,0-.2-.2-.2-.3-.4-.9-.5-2,0-2.9s.3-.3.4-.4,0,0,0-.1c.5-.3.8,0,1.1.5s.4,1.4.7,2.1Z"/>
    <path class="st11" d="M143.4,152.5s0,0,0,.1c.1.1.3.2.4.4-.4-.1-.3-.2-.5-.5,0,0,0,0,0,0Z"/>
    <path class="st7" d="M140.8,142.2s0,0,0,0c0,.1-.2,0-.4,0-.6,0-1.2-.2-1.8-.3s-.2,0-.3-.1c.8,0,1.6.1,2.4.3Z"/>
    <path class="st11" d="M144.4,143.1c-.4-.2-.9-.2-1.4-.4.5,0,1,0,1.4.4Z"/>
    <path class="st14" d="M148.2,149.6c-.2,0-.2-.4-.3-.5s-.3-.3-.3-.6c.3.2.5.7.5,1.1Z"/>
    <path class="st11" d="M141.7,142.5c-.3,0-.5,0-.8-.2s0,0,0,0c.3,0,.7,0,.9.3Z"/>
    <path class="st14" d="M149.2,152.3c-.2,0-.1,0-.2-.2,0-.2-.3-.6-.4-.7s-.4-.2-.4-.5,0,0,0,0c.4.5.8.9,1,1.6Z"/>
    <path class="st11" d="M148.9,154.4c.5.2,1,1.2,1.2,1.7-.3-.2-.3-.6-.5-.9s-.5-.6-.7-.8c0,0-.1,0-.2,0-.3-.1-.5-.4-.8-.5.4.2.8.3,1,.6Z"/>
    <path class="st11" d="M150.1,156.2c.2,0,.1,0,.2.2.3.6.7,1.2,1,1.7s.1.3.2.4.2.3.2.5l.5.6c0,.3.3.8.4,1.1.1.5.1.9-.1,1.4s-.3.4-.4.6c0,.4,0,1.9,0,2.3s.1.4.1.5c-.1,0-.2,0-.1.2s.1,0,.1,0,.1.4.1.4c0,.3,0,.7,0,1-.2,0-.2,0-.2-.2,0-.3,0-.8-.3-1h0c0-.2,0-.7-.2-.9s-.2-.3-.2-.4c0-.3-.1-.6-.3-.9s0,0-.2,0c.2-.2.3-.4.3-.7.2.2.4-.1.5-.3,1-1.1.9-1.8.3-3.1s-1.4-2.3-2-3.5Z"/>
    <path class="st14" d="M149.9,154.2c-.3-.2-.5-.4-.5-.7l.5.7Z"/>
    <path class="st14" d="M148.2,150.6c-.3,0,0-.4,0-.5.1,0,0,.3,0,.5Z"/>
    <path class="st11" d="M144,150c.3.4.5.9.8,1.3.6.8,1.5,1.6,2.4,2.1s.5.1.7.4c-1.3-.6-2.6-1.6-3.3-2.8s-.4-.7-.5-1Z"/>
    <path class="st14" d="M147.7,148c0,.2,0,.2,0,.3-.1-.1-.1-.3,0-.3Z"/>
    <path class="st14" d="M147.7,147.1c-.3,0,0-.2,0-.3,0,0,0,.2,0,.3Z"/>
    <path class="st11" d="M144.6,143.2h-.1c0,0,0,0,.1,0Z"/>
    <path class="st14" d="M149.2,152.5s0,0,0,0h0Z"/>
    <path class="st14" d="M149.3,153.3s0,0,0,0c0,0,0,0,0,0Z"/>
    <path class="st6" d="M99,140.2c0,0-.8-1-.8-1,0-.2-.1-.4,0-.6l7.2-5.7c.2-.1.4-.1.6,0s.8,1,.9,1.1c0,.2,0,.4,0,.6l-7.1,5.6c-.3.2-.5.3-.8,0Z"/>
    <path class="st6" d="M91.2,123.9s-.9.7-.9.6c-.2-.5-1-1.1-1.1-1.5s0-.5.1-.6c.9-.6,1.7-1.5,2.6-2.1s.3-.3.6-.2,1.1,1.4,1.4,1.6c-.2,0-.7.6-.8.6-.2,0-.3-.1-.5-.2-.7-.2-1.5.4-1.5,1.2s.2.4.1.5Z"/>
    <path class="st6" d="M105.5,136.5c0,0,.7.9.7,1,0,.2,0,.3,0,.5l-2.9,2.3c-.4.5-1.4-1-1.3-1.1.2,0,.3-.2.4-.2.9-.7,1.9-1.6,2.8-2.2s.3-.2.4-.2Z"/>
    <path class="st14" d="M94.7,125.3c.2.6.8,1.2,1.2,1.6,0,.1-.1.8-.2.9-.3,0-2.1,0-2.2,0s-.2-.4-.2-.4c0-.1.4-1.9.5-1.9.3,0,.6-.1.9-.1Z"/>
    <path class="st14" d="M99.3,131.3c0,.3.3.6.5.8s.5.7.8.9c0,.3-.2.5-.2.8-.6,0-1.4,0-1.9,0s-.4-.3-.5-.4c-.1-.3.4-1.6.4-2,.3,0,.6,0,.9,0Z"/>
    <path class="st14" d="M96.8,128.3c.3.5.7,1.1,1.1,1.5s.2.2.3.2c0,.1-.1.7-.2.7-.3,0-2.2.1-2.3,0s-.1-.4-.1-.4l.6-2.1c.2,0,.5,0,.7,0Z"/>
    <path class="st6" d="M101,133.7l.6-2.2,1.6,2c0,.1-.3.2-.3.2h-1.9Z"/>
    <path class="st14" d="M92.5,122.7c0,.4.5,1,.8,1.3s0,.2.2.1c0,.1,0,.6-.1.7-.4,0-.7,0-1.1,0,0-.3-.3-.5-.4-.7s0-.2,0-.3c0-.2-.2-.4-.3-.5,0-.5.4-.9.9-.7Z"/>
    <polygon class="st6" points="95.6 128.3 95 130.5 93.3 128.4 95.6 128.3"/>
    <polygon class="st6" points="96.2 124.8 94 124.8 94.5 122.6 96.2 124.8"/>
    <path class="st6" d="M100.2,134.2c0,0-.4,1.7-.5,2s0,.2-.1.2l-1.7-2.1h2.2Z"/>
    <polygon class="st6" points="93.3 125.4 92.7 127.5 91 125.4 93.3 125.4"/>
    <path class="st6" d="M97.9,131.3l-.5,2.2-1.6-2c0-.1.4-.2.4-.2h1.8Z"/>
    <path class="st6" d="M100.8,130.7h-2.2l.5-2.1c.1,0,.2.1.2.2.4.4.9,1.2,1.3,1.6s.2.2.2.3Z"/>
    <polygon class="st6" points="97 125.6 98.5 127.7 96.3 127.8 96.8 125.7 97 125.6"/>
    <path class="st14" d="M102.9,134.2l-2.2,1.7s-.2-.2-.2-.2c-.1-.3.2-1.2.3-1.5h2.1Z"/>
    <path class="st0" d="M96.8,128.3c.6,0,1.3,0,1.9,0-.1.6-.3,1.2-.5,1.8-.2,0-.2-.1-.3-.2-.4-.4-.8-1-1.1-1.5Z"/>
    <path class="st0" d="M99.3,131.3c.6,0,1.1-.1,1.7,0-.1.6-.3,1.1-.4,1.7-.3-.1-.6-.6-.8-.9s-.4-.5-.5-.8Z"/>
    <path class="st0" d="M94.7,125.3c.6,0,1.1,0,1.7,0-.1.6-.3,1.1-.5,1.6-.4-.4-1-1-1.2-1.6Z"/>
    <path class="st0" d="M93.6,124.1c-.2,0-.2,0-.2-.1-.3-.3-.8-.9-.8-1.3.2,0,.3.4.5.3s1.1-.9,1.1-.9c-.1.7-.4,1.3-.5,2Z"/>
    <path class="st17" d="M92.3,124.9c-.5,0-1,0-1.4,0-.2-.2.8-.8,1-1,0,0,0,.2,0,.3.1.2.5.4.4.7Z"/>
    <path class="st6" d="M149.8,132.7c0,0,.2,0,.2,0l7.4,5.8c.1.1,0,.4,0,.5s-.8,1-.8,1.1c-.3.2-.5.1-.8,0l-7.1-5.6c-.2-.2-.2-.3,0-.6s.8-1,.8-1.1.2-.1.3-.2Z"/>
    <path class="st6" d="M165,121.1c.4.3,1.2.8,1.5,1.1.6.6-.8,1.6-1.1,2.2-.1-.2-.8-.5-.8-.6s0-.4,0-.5c0-.7-.4-1.2-1.1-1.2s-.7.2-.8.2-.8-.6-.8-.6c.2-.3,1.1-1.6,1.4-1.7s1.2.7,1.6,1,0,.1.1.2Z"/>
    <path class="st6" d="M153.9,139c0,0-.2.4-.3.4-.2.3-.6.8-1,.7l-2.8-2.2c-.2-.2-.3-.3-.2-.6s.6-.9.7-1,.1,0,.2,0l3.5,2.6Z"/>
    <path class="st14" d="M156.3,131.2s.2,0,.3,0c.2,0,.4,0,.6,0l.6,2.4h-2.6c0-.3-.1-.6-.2-.9.3-.1.6-.6.8-.9s.4-.4.4-.7Z"/>
    <path class="st14" d="M161.2,125.2c.1,0,.6,0,.7,0l.6,2.5h-2.5c-.1-.2-.2-.4-.2-.6.2,0,.2,0,.3-.2.3-.3.8-.9,1-1.3s.2-.3.2-.5Z"/>
    <path class="st0" d="M158.1,130.7c-.2,0-.3,0-.5,0l-.6-2.5h2.5c0,0,0,.5.1.5-.1,0-.2,0-.3.2-.4.4-.9,1.1-1.2,1.5s-.1.2-.1.3Z"/>
    <path class="st6" d="M159.6,124.7c-.2,0,0-.2,0-.3.4-.6,1.1-1.2,1.5-1.9.1,0,0,0,.1.1.2.6.3,1.4.5,2-.6,0-1.6.1-2.1,0Z"/>
    <path class="st6" d="M162.1,128.2s.3,0,.2.2l-1.6,2-.6-2.2c.6,0,1.4,0,1.9,0Z"/>
    <polygon class="st6" points="157.7 134.2 156 136.3 155.4 134.1 157.7 134.2"/>
    <polygon class="st6" points="157.1 130.7 154.9 130.7 155 130.4 156.5 128.5 157.1 130.7"/>
    <polygon class="st6" points="154.8 133.7 152.5 133.6 154.2 131.5 154.8 133.7"/>
    <polygon class="st6" points="164.7 125.3 163 127.5 162.5 125.2 164.7 125.3"/>
    <path class="st6" d="M160,131.2c0,0-.1.3-.2.3-.3.4-.7.9-1,1.3s-.4.5-.5.5l-.5-2.1h2.2Z"/>
    <path class="st0" d="M162.5,124.7c0,0-.1,0-.2,0l-.6-2.7c.2.1,1.1,1,1.3.9s0-.1.1-.2c.3-.2.6-.3.9,0l-1.4,2Z"/>
    <polygon class="st6" points="157.1 127.7 158.9 125.6 159.4 127.7 157.1 127.7"/>
    <path class="st14" d="M159.7,128.7c.2.7.4,1.3.5,2-.7,0-1.4,0-2.1,0,0-.1,0-.2.1-.3.3-.4.8-1.1,1.2-1.5s.1-.2.3-.2Z"/>
    <path class="st14" d="M163.9,122.7c.6.4,0,1,0,1.1s1.1.7.9.9c-.8,0-1.6,0-2.3,0l1.4-2Z"/>
    <path class="st0" d="M161.2,125.2c0,.2,0,.3-.2.5-.2.4-.7.9-1,1.3s-.1.2-.3.2c-.2-.6-.3-1.3-.5-2,.6.1,1.3,0,1.9,0Z"/>
    <path class="st0" d="M156.3,131.2c0,.3-.3.5-.4.7s-.5.7-.8.9c0-.2-.5-1.5-.4-1.6.5,0,1.1,0,1.6,0Z"/>
    <path class="st0" d="M154.5,139.5c.2,0,.4.2.6.3s.1.2.2.2c.2.1.5.1.5.4-.4-.2-.9-.7-1.3-1Z"/>
    <polygon class="st14" points="152.7 134.1 154.9 134.2 155.4 136.2 152.7 134.1"/>
    <path class="st9" d="M156.1,168.3c-.3.3-.5.8-.7,1.2-.8.8-1.3,1.8-2.4,2.5s-.4.1-.5.2c-.6-.2-1-.7-1.2-1.3.9-1.2.9-2.4,1-3.8s.1-.6,0-1c.8-.6,1.3-1.6,1.9-2.4s1.2-1.6,2.1-1.9,1.6.2,1.6,1.1c0,1.7-1.4,3.7-1.9,5.3Z"/>
    <path class="st16" d="M151.8,165.9c.2,1.6,0,3.9-1.6,4.8s-1.2.5-1.7.4-.7-.5-.9-.6-.6-.6-.5-.7c.6.1,1.5,1.1,2.1.7s.8-.7,1-.9c.4-.4.8-.9.6-1.5-.6.3-1.1.7-1.8.6s-.8-.4-.9-.8c.2-.1.5,0,.7,0s.7-.3.8-.4.2,0,.2-.2c0,0,.7.4.7.4,0,0,.1,0,.2,0-.2-.7.9-1.4,1-1.9h0Z"/>
    <path class="st16" d="M152.5,172.2c-.2.1-.5.4-.6.5-.3,0-.2.2-.4.3,0,0,0,0,0,0,0,0,0,0-.1,0-.1.1-.2.1-.3.3-.7.4-1.4.9-2.2,1-.3-1.1-.2-2.1.9-2.6s1.2-.4,1.7-1c.1.6.6,1.1,1.2,1.3Z"/>
    <path class="st15" d="M149.2,166.5c.2.3.4.7.7.9,0,.1-.2.1-.2.2-.1,0-.7.4-.8.4-.2,0-.5,0-.7,0,0,0-.1,0-.1,0-.1-.2-.6-1.3-.5-1.5s.8,0,1-.3c0,0,0,0,0,0,0,0,.3,0,.3-.1,0,.2.2.4.3.5Z"/>
    <path class="st15" d="M152.1,165c0-.5,0-2,0-2.3s.3-.4.4-.6c.2-.5.3-.8.1-1.4s-.4-.8-.4-1.1.1-.3.2-.5.3-.4.4-.5l1,2.4c.2,1.5-.3,2.6-1.3,3.7s-.2.3-.4.3Z"/>
    <path class="st19" d="M152.7,158h.4s-.2.6-.3.7-.3.3-.4.5-.2.3-.2.5l-.5-.6c0-.2-.1-.4-.2-.5l1.1-.5Z"/>
    <path class="st19" d="M152.2,165.5c0,0,0,.1,0,.2,0,0-.1,0-.1,0,0-.1,0-.2.1-.2Z"/>
    <path class="st7" d="M133.9,104.5c.1.1.3.3.5.4h-.1c-.1,0-.3-.2-.3-.4Z"/>
    <path class="st9" d="M147.3,85.8s0,0,0,0c.4,1.4,1.8,2.2,2.8,3.1.2,0,.2-.6.2-.6,0-.4-.2-.6-.3-.9s-.5-.8-.4-1.2.1-.2.1-.4c.2,0,.4,0,.6.1,1.1.4,1.6,2.1,2.1,3.1s0,.2.2.1c0,0,0,0,0,0,0,0,0,0,0,.2,0,.5.5,1.5.6,2,.7,2.3.8,5.1.7,7.5s-.3,5.5-.6,7.9-.3,1.9-.7,2.8c-.2-3.1-.9-6.1-1.7-9.1s-.8-2.3-1.1-3.5c-.5-1.7-.8-3.4-1.5-5.1s-1.6-2.4-2.1-3.7-.7-2.6-1.9-3c-2.2-.8-3.8,2.8-4.3,4.4s-.2,2-1,2.5c0-.3,0-.6,0-.9,0-.5.3-1,.4-1.5s.2-1.3.3-1.8.7-1.8,1-2.3c1.1-2.2,3-2.7,5.1-1.2s.9.9,1.4,1.2Z"/>
    <path class="st16" d="M148,85.3c.5.2,1.1.4,1.7.6,0,.1-.1.2-.1.4,0,.3.3.8.4,1.2-.2.5-.4.4-.8,0s-.7-1.1-1.3-1.4-.4-.1-.6-.2,0,0,0,0c.2-.6.2-.5.7-.5Z"/>
    <path class="st17" d="M139.4,87.8c.2,0,.2.4.4.4-.1.5-.2,1.3-.3,1.8s-.4,1-.4,1.5c0-.2-.2-.5-.2-.6,0-.9.4-2.2.5-3.1Z"/>
    <path class="st1" d="M150.3,86c-.2,0-.4,0-.6-.1-.6-.2-1.2-.4-1.7-.6.4,0,.7,0,1.1.2s.9.3,1.2.6Z"/>
    <path class="st13" d="M141.1,84.2c0,.1,0,.2-.1.1,0,0,.1-.1.1-.1Z"/>
    <path class="st13" d="M141.2,84s0,0,0,0h0Z"/>
    <path class="st13" d="M142.4,82.7s0,0,0,0h0Z"/>
    <path class="st9" d="M142.3,111.3c.2.2.8,1.3.4,1.4s-.7-.1-.5.3,1,.7,1.2.9c.8.8,1.1,2.3,1.2,3.4.3,5-1,10.2-4.2,14.1-.7.4-1.8,2-2.5,2.6s-.1,0-.2,0c-.8.8-1.8,1.6-3,1.5-.2-1.6,1.7-1.6,2.4-2.6,1.1-.3,1.1-.9,1.7-1.7.9-1.2,1.4-1.7,2.1-3.1s1.7-3,1.6-3.7c.2-.4.3-.9.4-1.3.4-2,.1-3,0-4.9s.4-1.3,0-1.5-.6,0-.8.1c-.5-.2-.9-.2-1.5-.2s-.8,0-1.2,0c0-.9.3-1.7-.6-2.2s-2.6-.4-2.4-1.8,1.6-2.2,2.7-2.4,1.6.3,2.5.8.5.1.6.2Z"/>
    <path class="st0" d="M121.1,160.8c0,.1,0,.2-.1.3-2.2,3.4-2.8,7-1.4,10.9s.7,1.4.7,1.5-.4.5-.4.6c-1,2,.9,4.1,3,3.3s.6-.4.7-.3,1,.6,1.2.8c6.6,3.6,14.8.3,16.8-7,.6-2.3.4-3.5.2-5.8.3,0,.2.4.3.6.3,1.1.7,2,1.9,2.4s1,.3,1.5.3c0,4.1,0,8.2,0,12.3-1.4,0-2.7,0-4.1,0,0-.4-.2-.5-.6-.6-6.8,0-13.7-.1-20.6,0-.3,0-.5.3-.5.6-1,0-2,0-3.1,0,0-5.2,0-10.3,0-15.5,0-.3-.3-.7-.6-.9s-.2,0-.3,0,0-.1-.2-.1c0-.5.5-.8.5-1.3,1.7-.4,2.7-1.2,4.2-1.8s.6-.2.9-.3Z"/>
    <path class="st14" d="M139.6,160.8c.2,0,1.3,0,1.4,0-.4.9-.4,2.1.9,1.8,0,.2.1.5.3.5-.2.3-.3.9,0,1.2s.2,0,.2.1,0,0,0,.1c.1,0,.5,0,.7,0l.2.4c-.5.2-1.3.6-.6,1.2s.2.1.4.2c.7.3,1.4.3,2.2.3,0,.6,0,1.3,0,1.9-.5,0-1-.1-1.5-.3-1.1-.4-1.5-1.4-1.9-2.4s0-.5-.3-.6c0,0,0,0,0-.2s.2-.2,0-.2c-.2-.7-.5-1.3-.8-2l-1.1-2Z"/>
    <path class="st9" d="M151.3,162.9s0,0,0,0c0,.3-.2.5-.3.7-.3.4-.7.8-1,1.2-.4.5-1,.7-1.4,1.2,0,0,0,0,0,0-.2,0-.5.1-.7,0s-.2-.3-.2-.3c0-.2,0-.4,0-.6.2-.9.6-1.3,1.2-2.1s.2,0,.1-.2c.4-.2.7-.5,1-.7s0,0,0,0c.4-.3,1.1.4,1.3.7Z"/>
    <path class="st19" d="M141.2,180.7c0,0,0,.1,0,.2-7.2,0-14.4.1-21.7,0,0,0,0-.1,0-.2,7.2,0,14.4,0,21.7,0Z"/>
    <path class="st16" d="M143.2,165.1c.9.9,2.2.4,3.3.3.3.3,1.1.3,1.1.8-1.5.2-2.9.3-4.4,0-.2,0-.2,0-.4-.2-.4-.7,0-.7.5-1Z"/>
    <path class="st19" d="M120.8,96.2c0,.1,0,.6,0,.6.2.2.9,0,.7.6s-.7.4-.9.6-.5.5-.7.6c-.3.4-.2.7-.4,1.2.4-.2.7.2,1,.2s.5-.1.7-.1.9,0,1.1,0,.6.7.8.9c-.3,0-.5,0-.8,0-.2-.6-.9-.3-1.4-.1v.3s-.5.3-.6.3,0-.2-.1-.1c-.4.6-1.1.8-1.4,1.5l-.8,1.4c0-.4,0-.7.1-1,.5-2.4,1.5-4.7,2.2-7,.1,0,.4.3.4.4Z"/>
    <path class="st19" d="M122.2,91.3s0,0,.1,0c0,.1,0,.3,0,.4-.1.4-.3,1.1-.3,1.5s0,.7,0,.9c0,.3-.5,1.1-.7,1.4-.6-.5,0-.6,0-.9s0-.2,0-.3c0-.3.5-.9,0-1,0,0,0-.1,0-.2.2-.5.5-1.8,1-1.8ZM121.9,93.6c0,0,0-1.1.1-1.3-.2.1-.3.6-.3.8s0,.7.2.5Z"/>
    <path class="st17" d="M121.3,95.5s0,.1,0,.2-.3.3-.4.4c0-.1-.3-.3-.4-.4.3-.9.5-1.5.8-2.4.5.1,0,.7,0,1s0,.2,0,.3c0,.2-.5.3,0,.9Z"/>
    <path class="st19" d="M146.8,101.4c-.3-.3-.6-.6-.8-.9s-1-1.7-1.3-1.8c-.4-.2-.8,0-.8.4s0,0,0,.1c0,0,0,0,0,0s0,0,0,0l-1.1,2s0,0,0,0c0,0,.1,0,0,0h0c-.1.3,0,.8-.1,1.1s-1,1.4-1.2,1.7-.1.2-.3.2c0,0,0-.2,0-.2-.3.5-.9.5-1.2,1s-.5.9-.7,1.5c-.8,0-1,.7-1.4-.4l-.2-.7c-.5.1-.1,1.1-.6,1.2,0-.2,0-.4,0-.5v-1.2c0-.4.3-1.3.4-1.6s.2-.6.4-.7c0,0,.2.2.3.2.3,0,.5-1.2.6-1.5.3-.8.6-1.6,1-2.4s.9-1.2.8-1.7-.2-.2-.2-.3c0-.1,0-.3,0-.5,0-.3.2-.5.3-.8.4,0,.5-.5,0-.5,0-.3.3-.6.4-.7s0-.3,0-.4.5-.7.6-.8c.2-.2.3,0,.3-.5.3,0,.4-.4,0-.5,0-.5,0-.4.2-.9s.1-1.2.2-1.7,0-.3.1-.3c.7,2.5,1.3,5,2.2,7.4s.8,2.3,1.4,3.3.8,1.1,1,1.7Z"/>
    <path class="st19" d="M150.7,107.9c-.1-.2-.3-.4-.5-.7s-.1-.6-.2-.9-.7-1.2-.8-1.5c-.3-.5-1-.9-1.2-1.4s0-.6-.2-.9c.2.2.5.5.7.8,1,1.3,1.8,3,2.2,4.6Z"/>
    <path class="st19" d="M141.1,104.3s0,0,0-.1h0s0,.1,0,.1Z"/>
    <path class="st9" d="M138.5,94.1v-.2c0,0,0,.2,0,.2Z"/>
    <path class="st9" d="M138.6,93.8h0s0,0,0,0Z"/>
    <path class="st9" d="M138.7,93.4h0s0,0,0,0Z"/>
    <path class="st9" d="M138.8,92.9h0s0,0,0,0Z"/>
    <path class="st9" d="M138.9,92.7h0s0,0,0,0Z"/>
    <path class="st9" d="M138.6,93.6h0s0,0,0,0Z"/>
    <path class="st9" d="M138.8,93.1h0s0,0,0,0Z"/>
    <path class="st9" d="M137.5,97.9v-.4c0,.2,0,.3,0,.4Z"/>
    <path class="st9" d="M137.7,97.3h0s0,0,0,0Z"/>
    <path class="st19" d="M151.4,173.2s0,0,0,0h-.1s.1,0,.1,0Z"/>
    <path class="st9" d="M138.4,94.7c0-.1,0-.3.1-.4,0,.1,0,.3-.1.4Z"/>
    <path class="st9" d="M137.7,97h0s0,0,0,0Z"/>
    <path class="st9" d="M137.8,96.8h0s0,0,0,0Z"/>
    <path class="st9" d="M137.9,96.5h0s0,0,0,0Z"/>
    <path class="st9" d="M137.9,96.2h0s0,0,0,0Z"/>
    <path class="st9" d="M138,95.9h0s0,0,0,0Z"/>
    <path class="st9" d="M138.1,95.7h0s0,0,0,0Z"/>
    <path class="st9" d="M138.1,95.4h0s0,0,0,0Z"/>
    <path class="st9" d="M138.2,95.1h0s0,0,0,0Z"/>
    <path class="st9" d="M138.3,94.9h0s0,0,0,0Z"/>
    <path class="st0" d="M151.4,173.2s0,0,0,0c0,0,0,0,0,0Z"/>
    <path class="st13" d="M123,88.5s0,0,0,0h0,0Z"/>
    <path class="st19" d="M115.1,115.6c1.5.3,2.8,1.8,4.2,2.2.3-.4-1.6-1.7,0-1.2-.8-2.3.2-4.5.8-6.7.4.3.3,1.3.8,1.4s.8-.1,1.1-.6c.5-.9,1.1-2.9.9-4s-1.2-.8-1.7-.2-.8,1.4-.9,1.5c-.4.2-.3-.3-.3-.5.2-2.5,2.3-4.3,4.8-4.2s4.8,1.9,6.2,4.2c.3-.2,0-.4,0-.7s.3-.3.5-.1c1.1.7,2.3,4.8,2.6,6.2s.2,3,0,4.5c.5,0,1-.3,1.5-.3v.5c.2.2,3.3-.9,3.9-1s.8,0,1.2,0c-.5.3-1.1.6-1.6.8-2.1,1.1-4.1,2.6-5.6,4.6.8,0,1.2-1,2-1.1-1.8,1.9-3.1,5.2-3.4,7.8s0,1.1-.1,1.7-.1.2-.1.3c-.1.8,0,1.6,0,2.5,1.5-.7,3.1-.5,4.7-1.2s2.8-2.3,3.6-3.7.3-.3.3-.5l.4.2c-.8,1.4-1.2,1.9-2.1,3.1s-.6,1.4-1.7,1.7-1.8.3-2.7.8-1.4,1-2.2,1.4c-.1.2.5.3.5.3.1.2-.5.5-.7.6-.7.3-1.8.3-2,1.3h.7c0,.6-.5,1-1,1.3-.8.5-1.9.7-2.9.7.6.7,1.6.5,2.3.5s.4.1.3.5c-.2.6-.7.6-1.2.8.4.5,1.1,0,1.5.2s0,0,0,.1c-.6.2-.9.7-1.4,1.1h-.7c-.8-.1-1.6-.1-2.3-.3s-.1-.4,0-.7-.1-.4-.1-.7c.6,0,.9.7,1.6.5s0-.7-.3-.9-2.1-1.1-1.8-1.6,1.3.4,1.4,0c-.2-.7-1.3-1-1.4-1.7s0-.5,0-.5c0,0-2.1-.2-2.5-.5s-.3-.6-.7-.9-1.3-.5-1.5-.8.5-.2.5-.6l-4.4-2.2c-.3-.4-.5-.7-.8-1.1.2-.7-.6-1.2-.9-1.8s0-.3,0-.5c.6.3.9.9,1.4,1.4s.5.6.9,1c1.7,1.6,4.4,2.1,6.6,2.9,0,0,0,0,.1-.2.4-1.9.5-4-.2-5.9s-.2-.3-.2-.4c-.5-1.3-1-2.6-1.8-3.8-2.2-3.5-6-5.8-10-6.9,0,0,.2-.3.3-.4,3.5,1,6.6,3,9.4,5.3-.4-.8-1.1-1.4-1.7-2s-1-.9-1.5-1.3c-1.1-.9-2.4-1.6-3.4-2.6.3,0,.8,0,1.1,0ZM120.8,121.5h0s0,0,0,0Z"/>
    <path class="st1" d="M140.1,96.7c0,0,.2.2.2.3,0,.4-.6,1.2-.8,1.7-.4.8-.7,1.6-1,2.4s-.3,1.5-.6,1.5-.3-.2-.3-.2c0-.3.2-1.4.3-1.7.2-.5.6-1.8.9-2.2s.3-.2.4-.4c.3-.5.2-1.3.9-1.5Z"/>
    <path class="st1" d="M136.8,106.4c.5-.1.1-1.1.6-1.2l.2.7c.4,1.1.6.5,1.4.4-.3.7-.6,1.5-1.3,2s-.5.3-.7.1-.2-1.5-.3-1.9Z"/>
    <path class="st19" d="M115.1,106.9c.2-.3.5-.5.6-.9.2-.6,0-1.3.6-1.7,0,0,0,.2,0,.3,0,.5-.1,2-.7,2.2s-.4,0-.6,0Z"/>
    <path class="st19" d="M118.6,84.5l-.7.5c-.8.4-1.7.6-2.6.6l.8-.4c.8-.3,1.7-.7,2.6-.7Z"/>
    <path class="st17" d="M118.5,90c-.3-1-.1-2.1.7-2.9,0,.8-.4,2.1-.7,2.9Z"/>
    <path class="st17" d="M116.6,103.2c-.5-.9-.3-2.1.3-2.9,0,1,.1,1.9-.3,2.9Z"/>
    <path class="st14" d="M140.1,96.7c-.7.1-.7,1-.9,1.5s-.3.3-.4.4c0-1,.2-1.9,1.2-2.3,0,.2,0,.3,0,.5Z"/>
    <path class="st5" d="M122.4,100.6c-.4,0-.8,0-1.2.1v-.3c.3-.1,1-.5,1.2.1Z"/>
    <path class="st1" d="M140.3,95.4c0-.2,0-.3,0-.5.4,0,.3.6,0,.5Z"/>
    <path class="st1" d="M141.6,92.4c0-.2,0-.4,0-.5.3.1.3.5,0,.5Z"/>
    <path class="st7" d="M128.5,142.6c0,0-.1.2-.3.3-.2,0-.3,0-.4-.1h.7Z"/>
    <path class="st12" d="M122.8,127.2c-.3.4-.2,0-.5,0,0,.6-.4,1.1-.5,1.6,0,0-.8-.8-1.1,0s0,.5-.3.3-.3-.8-.6-.9c-.6-.1-1,.6-1.4.4s-.3-.7-.4-1-.3-.4-.4-.4-.4.3-.6.4c-.8.4-1.9.2-2.7.5,0-.1-.5-.5-.6-.7-.3-.4-.6-.9-.8-1.4-.3-.7-.4-1.5-1-2-.2-.8-.4-1.8-.5-2.7s0-1.1,0-1.5v-2c0-.1-.1-.5-.1-.7s-.2-.5-.2-.6c3.9,1.1,7.7,3.4,10,6.9s1.3,2.5,1.8,3.8ZM119,123.5c-.1,0-.9.6-1.1.7.7.4.4,1.2.9,1.7,0-.7.2-.9.8-1.2-.2-.4-.5-.8-.5-1.3Z"/>
    <path class="st16" d="M114.3,128.2c0,0,0,.2,0,.3,0,.2,0,.3,0,.5.3.6,1.1,1,.9,1.8-2-2.5-2.8-3.4-3.5-6.6.7.5.7,1.3,1,2s.5,1,.8,1.4.6.5.6.7Z"/>
    <path class="st0" d="M111.3,117.1c0,.2.1.6.1.7v2c0,.5-.1,1,0,1.5h-.3c0-1.4,0-2.8,0-4.1s0-.2.2-.2Z"/>
    <path class="st9" d="M108.2,165.1s0,0,0,0c0,0,0,0-.1,0-.2,0-.2-.4-.2-.5s.2-.7.2-.8c.2-.3,2.1-.7,2.5-.7.6,0,2.6,0,3.1.5s.3.3.2.4c-.2.2-1,.2-1.3.2-1.4,0-3-.2-4.2.7Z"/>
    <path class="st15" d="M108.2,165.1c1.5-.8,3.1-.5,4.8-.7s.5,0,.8-.2c0,.4-.5.6-.8.6-.8.2-1.5.1-2.3.2s-.9.2-1.2.5-.3.3-.4.5c-.5-.1-.6-.6-.9-.9,0,0,0,0,0,0Z"/>
    <path class="st15" d="M113.4,161.5c.1,0,.3.2.4.2l.5.3c-.9.4-1.6-.3-2.5-.2l-1.3.8s0,0,0,0c-.3,0-.6.1-.8.2v-.7c.3,0,.7-.1,1-.2s0-.1,0-.1c0,0,0,0,0,0,1.2-.5,1.4-.7,2.7-.2Z"/>
    <path class="st11" d="M111,159.7l-.2.5c.3,0,.9-.3,1.2-.3h1.3c.1,0,.4.2.6.2h0c-1.2-.4-3.3,0-4.4.7s-.6.6-.3.8c.4.4,1.2.2,1.6,0,0,0,0,0,0,.1-.2.1-.6.2-.9.2s-.7-.2-.9-.5c-.4-.4-.5-.6,0-1s1.3-.7,1.7-.8.3,0,.5,0Z"/>
    <path class="st15" d="M110.7,158.9l.6.2h3.2c0,.2-.3.4-.3.4s0,0,0,0c-.4.1-.8,0-1.2,0h-1.4c0,0-.5.1-.6.2,0,0,0,0,0,0-.2,0-.3,0-.5,0,0-.3.2-.6.2-.9Z"/>
    <path class="st11" d="M112.9,159.1c.4.1.9,0,1.4,0h.5s0,.1,0,.2-.3.2-.4.2c0,0,.4-.2.3-.3h-3.2c0,0-.6-.3-.6-.3,0,0,0,0,0,0,.6.3,1.5.2,2.2.2Z"/>
    <path class="st19" d="M106.4,164.7c-.2,0,0-.2,0-.3v.3Z"/>
    <path class="st15" d="M110.7,158.9c0,0,0,0-.1-.1,0,0,.1,0,.1.1Z"/>
    <path class="st0" d="M114.2,166.5c0,0,0,.1,0,.2,0,4.6,0,9.4,0,14-1.4,0-2.8,0-4.2,0,0-4.2,0-8.5,0-12.7.4-.1.7-.5,1-.6.9-.5,2.2-.5,3.2-.9Z"/>
    <path class="st14" d="M116,162.9c0,.5-.5.8-.5,1.3-.4,0-.8.2-1,.6-.3.5-.2,1.2-.2,1.8-1,.4-2.3.3-3.2.9s-.7.5-1,.6c0-.4,0-.8,0-1.2.5-.2,1.1-.6,1.6-.8s1.8,0,2.1-1,0-.2,0-.3c0-.1.2-.3.2-.4,0-.3-.2-.6-.4-.7l-1.1-.3c1.2,0,2.4,0,3.5-.3Z"/>
    <path class="st17" d="M110,166.8c0-.2,0-1.5,0-1.5,1.2-.2,2.6,0,3.7-.6,0,0,0,.2,0,.3-.3,1-1.3.8-2.1,1s-1.1.6-1.6.8Z"/>
    <path class="st0" d="M116.9,156.4c3.6-.2,6.7-.8,8.9-3.9s.8-1.9,1.9-2.3,3.9-.3,5.1-.2c2.3.1,2.2.8,3.4,2.4s1.9,2.3,3.2,2.9c0,.2-.3.4-.3.6s0,.3,0,.5c0,.5,0,.9,0,1.4s0,0,0,.3c.2,1.1,1,1.1,1.8,1.6s.2.4.4.4c0,0-.2.4-.2.4-.4.1-1.3,0-1.7,0-1.7-1.7-3.1-3-5.5-3.7-4.8-1.5-9.3,0-12.5,3.8-1.3,0-2.3.9-3.5,1.4s-1.6.6-2.4.7l.2-1.1s0,0,0,0c1.6,0,2.3-2.1,1.1-3.1.4-.7.2-1.3,0-2.1ZM127.3,151.8c-.4.5-.5.8-.5,1.5s0,1.4.5,1.6h7c.3,0,.6-.2.7-.5s0-1.2,0-1.5c0-.8-.8-1.6-1.6-1.7s-4.2-.1-4.9,0-.8.3-1.2.7Z"/>
    <path class="st9" d="M146.7,154.5c0,0,.1.1.1.2.2.3.4.8-.1,1s-1.6-.5-2.2-.6c-1.5-.3-2.4.2-3.3,1.4s0,.1-.1.2c-.2,0-.1,0-.2.2-.1.2-.6,1-.7,1-.2.1-.5,0-.7,0-.2-.6,0-.6,0-1.1s-.1-.5,0-.7.4-.9.5-1c.3-.4.9-.9,1.3-1.2s.4-.2.5-.2c.8-.2,1.9-.2,2.7,0s1.8.4,2.5.9Z"/>
    <path class="st0" d="M115.9,156.1c-.1-.2-.5-.5-.7-.5s-.3.2-.5.1v-1c0-.2.6-.6.9-.6,1.5.1,3.3-.2,4.8,0s.8.3.8.7,0,.7,0,.7c-.1.1-1.1.3-1.3.4-1.4.3-2.7.2-4,.3,0,0,0,0,0,0Z"/>
    <path class="st14" d="M143.6,157.2c.4.4.9.7,1.1,1.3-.1,0-.6-.2-.6-.2s0,.1,0,.2c-.3.2-.7.6-.9.8s-.6.3-.9.5c0,0,0,0,0,0-.2,0-.6.2-.7.3-.2,0-.2-.3-.4-.4-.8-.5-1.6-.5-1.8-1.6s0-.3,0-.3c0,0,0,0,.1,0,0,0,0,.1,0,.1.2.1.8,0,1,0,1,1,2.3-.5,3.3-.7Z"/>
    <path class="st14" d="M116.9,156.4c.2.8.3,1.4,0,2.1-.2-.2-.2-.1-.4-.2-.3-.1-.3-.2-.7-.2,0-.3,0-.6-.2-.9.1-.2.3-.5.4-.7.3,0,.6,0,.9,0Z"/>
    <path class="st1" d="M139.6,155c-.2.2-.3,0-.4,0l.6-1c.1,0,.3.1.4.3l-.6.7Z"/>
    <path class="st16" d="M137.6,152.8c0,0-.2.3-.3.4-.3.2-.7-.6-.8-.8l1.1.4Z"/>
    <path class="st10" d="M116.5,180.7c-.8,0-1.5,0-2.3,0,0-4.6,0-9.4,0-14,.6-.1,1.1-.8,1.2-1.3s0-.7.2-1c0,0,.2,0,.3,0,.3.1.5.6.6.9,0,5.2,0,10.3,0,15.5Z"/>
    <path class="st15" d="M148,158s.2,0,.3,0c.8.4.8,1.6,1,2.2s.6.7.8,1.4c-.1,0-.2,0-.3,0-.8.5-1.4,1-2.3,1.3s-.5,0-.4-.1.2,0,.2,0c.2-.2.4-.4.7-.5.2-.1.4-.3.6-.4.5-.3.6-.8.3-1.2s-.1,0-.1,0c0,0-.2-.3-.3-.3-.4-.3-.7.2-.9.3s-.7,0-1.2.1c-.7.2-1.2.6-1.7.8s-.7,0-1.1.2c-1,.3-3,2-2.7-.3.4.2.8.2,1.2.1,1.2,0,4.7-1.6,5.6-2.3s0,0,0,0c.4-.4.6-.5.3-1.1Z"/>
    <path class="st15" d="M146.1,154.1c0-.2,0-.2.2-.1.9.3,1.7,1.1,1.5,2.2s-.6.6-.7,1c-.1,0-.3,0-.4-.1l.2.7c-.2,0-.3,0-.5.1,0-.2-.2-.5-.4-.5s-.3,0-.4-.1-.2-.2-.3-.2c-.4,0-1,0-1.4,0l-1.4-.9c.4,0,.7.1,1,.3h.8c-.9,0-1.9-.8-2.5,0-.2.1-.3.3-.5.5-.2,0-.9,1-1.1.9l.7-1.1c0,0,0-.1.1-.2,1-1.2,2.1-1.7,3.7-1.2s1.1.6,1.6.6.7-.2.8-.5-.1-.7-.3-.7c0,0,0-.1-.1-.2-.1-.2-.3-.3-.5-.4ZM145.6,156.3c-.4,0-.8-.7-1.2-.2.5-.1.7,0,1,.3s.2.1.2,0ZM146.4,157h.2c0,0-.2-.1-.2,0Z"/>
    <path class="st11" d="M147.1,157.2c.3,0,.5.1.8,0,0,.1-.3.2-.4.3s-.2,0-.3.2c0,0,.3,0,.3,0,.3,0,.3.2.5.3.3.6,0,.7-.3,1.1.9-1.3-.3-1.5-1.4-1.2h0c0,0,0,0,0,0,.2,0,.3-.1.5-.1l-.2-.7c.1,0,.3.1.4.1Z"/>
    <path class="st15" d="M151.8,162.7c-.1.1-.3.4-.5.3,0,0,0,0,0,0,0-.2,0-.3-.2-.4,0-.2,0-.1.2,0,.2,0,.3.3.6.3Z"/>
    <path class="st15" d="M150.5,162.1c-.2-.1-.3,0-.4-.4.2,0,.4.2.4.4Z"/>
    <path class="st15" d="M147.5,157.7c0,0-.3,0-.3,0,.1,0,.2-.1.3-.2v.2Z"/>
    <path class="st17" d="M140.1,153.5c.3.2.5.5.9.3-.4.2-1,.8-1.3,1.2h0l.6-.7c0-.2-.3-.2-.4-.3-.4-.4-.6-.4-1-.6s.3-.3.5-.3.6.3.8.4Z"/>
    <path class="st9" d="M142.2,147.5c.1,0,.4-.2.5-.1s.2,1.4.2,1.6.2.6.2.9c0,.7-.1,1.2-.3,1.8h-.3c-.1-.3-.3-.5-.4-.7-.4-.9-.6-2-.2-2.9s.3-.6.4-.6Z"/>
    <path class="st9" d="M151.4,164.6c0,0,.1.2.2.4s.2.7.2.9c0,.5-1.2,1.2-1,1.9,0,0-.1,0-.2,0s-.7-.4-.7-.4c-.2-.2-.5-.6-.7-.9.9-.4,1.4-1.3,2.2-1.8Z"/>
    <path class="st10" d="M150.9,163.8c.1,0,.1-.1.2,0,.2.3.2.6.3.9-.8.5-1.3,1.5-2.2,1.8,0-.1-.3-.2-.3-.5.1,0,.8-.6.9-.6s.1-.3.2-.4c.3-.5.7-.9,1-1.2Z"/>
    <path class="st11" d="M149.9,165c0,.1-.2.3-.2.4,0,0-.8.6-.9.6s-.3.1-.3.1c.4-.5,1-.7,1.4-1.2Z"/>
    <path class="st19" d="M150,87.4c.1.3.3.5.3.9s0,.7-.2.6c-1-.9-2.4-1.7-2.8-3.1.2,0,.4,0,.6.2.6.3.9,1,1.3,1.4s.5.5.8,0Z"/>
    <path class="st19" d="M142.5,124.4c0-.1-.2-.3-.2-.5.2-.7.6-3.7.5-4.4s-.2-.6-.3-.9c0-.5,0-1,.1-1.5-.3.2-.6.5-.9.6s-.6.1-.9.2c.1-.5.7-.5,1-.8s.2-.3.3-.4c.1-.1.6-.2.8-.1.4.1,0,1.1,0,1.5,0,1.9.3,2.9,0,4.9s-.2.9-.4,1.3Z"/>
    <path class="st17" d="M142.5,124.4c0,.8-1.2,3-1.6,3.7l-.4-.2c0,0,0-.3.1-.5.1-.3.5-.7.6-1,.3-.6.9-2,1.1-2.5,0,.1.2.4.2.5Z"/>
    <path class="st13" d="M139.4,160.5c0,0,0,.2.3.3l1.1,2c.3.7.6,1.3.8,2s0,.1,0,.2c0,.1,0,.2,0,.2.2,2.2.5,3.5-.2,5.8-2,7.2-10.3,10.6-16.8,7-.2-.1-1.1-.7-1.2-.8s-.5.3-.7.3c-2.1.7-4-1.3-3-3.3s.4-.6.4-.6c0-.1-.6-1.2-.7-1.5-1.5-3.8-.8-7.5,1.4-10.9s.2-.2.1-.3c.3,0,.2-.1.3-.3,3.2-3.7,7.7-5.2,12.5-3.8,2.4.7,3.8,2,5.5,3.7ZM130.3,156.9c-8.4,0-13.6,9.3-9.3,16.5,4.2,7,14.4,7.1,18.7.1,4.5-7.3-.9-16.7-9.4-16.7ZM121.1,174.8s-.1-.4-.2-.4c-1,1.4.4,2.9,1.9,2.2,0-.1-.3-.3-.3-.3-.4-.4-1-1-1.4-1.5Z"/>
    <path class="st10" d="M141.2,180.7c-7.2,0-14.4,0-21.7,0,0-.3.2-.5.5-.6,6.8-.1,13.7,0,20.6,0,.3.1.5.3.6.6Z"/>
    <path class="st13" d="M115.4,164.2c.2,0,.2.1.2.1-.2.3-.1.7-.2,1-.1.6-.6,1.2-1.2,1.3,0,0,0-.1,0-.2,0-.6-.1-1.2.2-1.8s.6-.6,1-.6Z"/>
    <path class="st17" d="M141.9,162.5c.5-.1,1.1-.6,1.6-.8s.7,0,1.1-.2.6-.3.7-.4c0,.6,0,.3-.5.5s-.5.3-.7.3c-.7.3-1.4.4-1.9,1-.2,0-.3-.3-.3-.5Z"/>
    <path class="st17" d="M143.1,164.5s0,0,.1,0c.7,0,1.4-.1,2.1-.3v.5c-.7-.1-1.3,0-2,.2l-.2-.4Z"/>
    <path class="st0" d="M141.6,164.8c.3,0,0,.2,0,.2,0,0,0-.1,0-.2Z"/>
    <path class="st10" d="M148.9,163c0,.2,0,.2-.1.2-.6.7-.9,1.2-1.2,2.1s0,.4,0,.6c-.2-.1-1-.4-1-.5,0-.6,0-1.1.5-1.5s.5-.3.7-.4c.4-.2.8-.3,1.2-.5Z"/>
    <path class="st13" d="M150,162.2s0,0,0,0c-.2.1-.4.3-.6.4s-.6.2-.9.4v-.5c.5-.2,1-.6,1.4-.9.3,0,.3.3.2.5Z"/>
    <path class="st11" d="M149.9,162.3c-.3.3-.6.5-1,.7s-.8.3-1.2.5c.1-.2.4-.2.6-.3s0-.1.1-.1c.3-.1.6-.2.9-.4s.4-.3.6-.4Z"/>
    <path class="st15" d="M143.2,165.1c.3-.1.5-.3.9-.3s1.1.1,1.5,0,.6-.3.9-.4v1c-1.2,0-2.4.5-3.3-.3Z"/>
    <path class="st16" d="M121.9,93.6c-.1.2-.2-.4-.2-.5,0-.2.1-.6.3-.8,0,.2,0,1.2-.1,1.3Z"/>
    <path class="st0" d="M142.6,101.1s0,.1,0,0,0,0,0,0Z"/>
    <path class="st12" d="M142.3,123.9c-.2.5-.8,2-1.1,2.5s-.5.7-.6,1,0,.4-.1.5c0,.1-.2.3-.3.5-.5,0-.9-.7-1.4-.3l-.3.4c-.3-.2-.5-.9-.8-1s-.6,0-.8,0-.2-.3-.2-.4c-.4-.4-1.2.6-1.6.7s-.9-.1-1.4,0v1c0,.5-.8.6-.9.7-.2.2-.2,1.1-.7.9,0-.6,0-1.1.1-1.7.3-2.6,1.6-5.9,3.4-7.8s3.8-2.6,5.4-3,.5,0,.9-.2.6-.4.9-.6c0,.5-.2,1-.1,1.5s.2.6.3.9c.1.7-.3,3.7-.5,4.4Z"/>
    <path class="st5" d="M114.3,128.2c.8-.4,1.9-.1,2.7-.5s.5-.4.6-.4.3.3.4.4c.1.3,0,.9.4,1s.8-.6,1.4-.4.5.6.6.9.2,0,.3-.3c.4-.7,1.1.1,1.1,0,.1-.6.6-1,.5-1.6.3,0,.3.4.5,0,0,.1.2.3.2.4.7,1.9.6,4,.2,5.9s0,.1-.1.2c-2.2-.8-4.8-1.3-6.6-2.9s-.5-.6-.9-1c-.5-.5-.8-1.1-1.4-1.4,0,0,0-.2,0-.3Z"/>
    <path class="st5" d="M132,130.5c.5.2.6-.6.7-.9s.9-.2.9-.7v-1c.4,0,1,.2,1.4,0s1.2-1.1,1.6-.7.1.3.2.4.5-.2.8,0,.5.8.8,1l.3-.4c.5-.4.9.3,1.4.3-.8,1.4-2.1,3-3.6,3.7s-3.2.5-4.7,1.2c-.1-.8-.2-1.6,0-2.5s.1-.3.1-.3Z"/>
    <path class="st16" d="M142.2,116.9c0,0-.2.3-.3.4-.3.3-.9.3-1,.8-1.6.4-4.3,1.8-5.4,3-.8,0-1.2,1-2,1.1,1.4-2,3.5-3.4,5.6-4.6s1.2-.5,1.6-.8c.6,0,1,0,1.5.2Z"/>
    <path class="st16" d="M120.8,121.5s0,0,0,0h0Z"/>
    <path class="st16" d="M114,115.5c1,1.1,2.3,1.7,3.4,2.6s1.1.9,1.5,1.3,1.3,1.2,1.7,2c-2.8-2.3-5.8-4.3-9.4-5.3.4-.4,1.3-.3,1.8-.4s.6-.2.9-.2Z"/>
    <path class="st6" d="M119,123.5c0,.5.3.8.5,1.3-.6.3-.8.5-.8,1.2-.4-.5-.2-1.4-.9-1.7.2-.1,1-.8,1.1-.7Z"/>
    <path class="st17" d="M115.7,161.6l-.2,1.1c-1.5.3-3.7.4-5.2.3s-.3,0-.3-.1l.5-.2s0,0,0,0c0,0,.1,0,.2,0,.7-.3.8-.7,1.7-.6s.9.5,2.1,0,.4,0,.4-.5c.2,0,.5.1.7.1Z"/>
    <path class="st9" d="M113.8,160.2c.3.1.6.3.8.5l.3.5s0,0,0,0c0,0,0,.4,0,.4-.1.1-.9,0-1.1,0s-.3-.2-.4-.2c0-.2-.5-.4-.7-.4-.6-.1-1.5.1-2,.6,0,0,0,0,0,0-.4.2-1.2.4-1.6,0s0-.7.3-.8c1.1-.6,3.2-1.1,4.4-.7Z"/>
    <path class="st11" d="M110.7,161.7c.4-.5,1.3-.7,2-.6s.7.2.7.4c-1.3-.5-1.5-.3-2.7.2Z"/>
    <path class="st11" d="M114.9,161.4c0,.6,0,.3-.4.5-1.2.5-1,.2-2.1,0s-1,.4-1.7.6-.1,0-.2,0l1.3-.8c.9,0,1.6.6,2.5.2l-.5-.3c.2,0,1,.2,1.1,0s0-.3,0-.4c0,0,0,0,0,0Z"/>
    <path class="st9" d="M114.9,158.2s0,0,0,0c.1.3,0,.4,0,.7s0,0-.1.2h-.5c-.4-.1-.9,0-1.4,0-.7,0-1.6,0-2.2-.2,0,0-.1-.1-.1-.1,0,0-.2-.3,0-.4s.6-.1.7-.2c.9-.1,1.7,0,2.6,0s.8-.2,1.1,0Z"/>
    <path class="st17" d="M115.7,158.1c-.4,0-.4,0-.7.1s0,0-.1,0c0,0,0,0,0,0-.2-.5-1-.2-1.4-.1s-.7,0-1,0c0,0,.4-.4.4-.4h2.2c.2,0,.2-.2.2-.3s.1,0,.1-.1c.2.3.2.5.2.9Z"/>
    <path class="st17" d="M114,159.7c0,.3.1.6-.2.5-.2,0-.4-.2-.6-.2h-1.3c-.2,0-.9.3-1.2.3l.2-.5s0,0,0,0c.3,0,.6-.1.9-.1.7,0,1.3.2,2,0Z"/>
    <path class="st19" d="M115.7,158.1c.4,0,.4,0,.7.2,0,.3-.1.6-.3.9-.1,0-.6,0-.8,0-.6.2-.6,1.5.4,1.4,0,.4.2.7,0,1,0,0,0,0,0,0-.2,0-.5,0-.7-.1s0,0,0,0c0,0,0,0,0,0,0-.3,0-.3-.3-.5s-.5-.4-.8-.5h0c.3,0,.2-.3.2-.5,0,0,.2,0,.2-.1,0,0,0,0,0,0,.1,0,.3,0,.4-.2s0-.2,0-.2c0-.1.1-.2.1-.2h0c.1-.2.2-.4.1-.7.3,0,.3-.1.7-.1Z"/>
    <path class="st11" d="M114.2,159.5c0,0-.1.1-.2.1-.7,0-1.4-.1-2,0s-.6,0-.9.1c0,0,.5-.2.6-.2h1.4c.4,0,.7.1,1.2,0Z"/>
    <path class="st0" d="M114.2,159.1c-.4,0-1,0-1.4,0,.4,0,1,0,1.4,0Z"/>
    <path class="st1" d="M127.3,151.8c.3-.4.6-.6,1.2-.7.8-.1,4.2-.1,4.9,0s1.5.9,1.6,1.7,0,1.3,0,1.5-.4.5-.7.5h-7c-.6-.2-.5-1.1-.5-1.6,0-.7.1-1,.5-1.5Z"/>
    <path class="st17" d="M116.8,158.5c1.2,1,.5,3.1-1.1,3.1.2-.3,0-.6,0-1,.8,0,.8-1.1.3-1.4.2-.3.2-.6.3-.9.2,0,.2,0,.4.2Z"/>
    <path class="st11" d="M146.8,154.7c.2,0,.3.6.3.7,0,.2-.5.5-.8.5-.5,0-1.1-.4-1.6-.6-1.5-.5-2.7,0-3.7,1.2.9-1.2,1.8-1.7,3.3-1.4s1.6.8,2.2.6.3-.6.1-1Z"/>
    <path class="st9" d="M146.4,157.9c1.1-.4,2.2-.1,1.4,1.2,0,0,0,0,0,0-1.6.6-3,1.6-4.6,2s-1.5.4-2.1,0c0,0,.4-.9.4-1,.2-.2.6-.2.7-.4,0,0,0,0,0,0,.4-.1.7-.3,1-.5s.7-.8.9-.9.3.1.4.1c.8,0,.9-.1,1.5-.4s.2,0,.3-.1.1,0,.1,0Z"/>
    <path class="st17" d="M141.8,156.4c0,0,.1-.1.2-.1.4,0,1.2.5,1.5.7s0,.1,0,.1c-1,.3-2.3,1.8-3.3.7.3-.2.8-.7,1-1s.2-.3.5-.5Z"/>
    <path class="st11" d="M141.8,156.4c.7-.9,1.7,0,2.5-.2h-.8c-.3,0-.6-.2-1-.1l1.4.9c.3.5.8.9,1.1,1.5.1,0,.8-.3,1-.3-.6.3-.6.5-1.5.4s-.3-.2-.4-.1c-.2,0-.7.7-.9.9-.3.3-.7.4-1,.5.2-.3.6-.3.9-.5s.7-.6.9-.8,0-.2,0-.2c0,0,.5.2.6.2-.2-.6-.7-.9-1.1-1.3s0,0,0-.1c-.3-.2-1.1-.8-1.5-.7s-.2,0-.2.1Z"/>
    <path class="st9" d="M148.5,160.2c0,0,.2.2.3.3.3.5.3.9-.1,1.3-.2.1-.4.3-.6.4-.7.5-1.6,1-2.5,1.3s-1,0-1.2-.7-.2-.8.4-.9c1-.3,1.6-.3,2.5-.9s.7-.8,1.2-.6Z"/>
    <path class="st11" d="M148.8,160.5s0,0,.1,0c.3.5.2,1-.3,1.2.4-.4.4-.8.1-1.3Z"/>
    <path class="st16" d="M146.5,157.8s0,0,0,0c-.1,0-.2,0-.1.1,0,0-.2,0-.3.1-.2,0-.8.4-1,.3-.3-.6-.8-1-1.1-1.5.4,0,1,0,1.4,0s.2.2.3.2.3,0,.4.1.3.4.4.5Z"/>
    <path class="st11" d="M145.6,156.3c0,.1-.1,0-.2,0-.4-.2-.6-.4-1-.3.4-.5.8.1,1.2.2Z"/>
    <path class="st11" d="M146.4,157c0-.1.1,0,.2,0h-.2Z"/>
    <path class="st17" d="M130.3,156.9c8.5,0,13.9,9.4,9.4,16.7-4.3,6.9-14.5,6.9-18.7-.1-4.3-7.2.9-16.5,9.3-16.5ZM130.2,158.2c-7.3,0-11.8,8-8.3,14.3,3.6,6.6,13.2,6.6,16.8,0,3.7-6.5-1.1-14.4-8.5-14.4Z"/>
    <path class="st17" d="M121.1,174.8c-.5.9.4,1.9,1.4,1.5,0,0,.4.2.3.3-1.5.7-2.9-.9-1.9-2.2,0,0,.2.4.2.4Z"/>
    <path class="st1" d="M122.4,176.3c-1,.4-1.9-.6-1.4-1.5.4.4.9,1.1,1.4,1.5Z"/>
    <path class="st16" d="M142.4,164.3s-.2-.3-.2-.3c-.3-1.2,1-1.6,1.9-1.8,0,.4.3,1.4.7,1.6.7.2,1.6-.7,2.4-.6,0,.1,0,.2-.2.2-.4.3-1.3.6-1.8.8s-2.6.5-2.9.2Z"/>
    <path class="st14" d="M148.5,162.6v.5c0,0-.1,0-.2.1-.2,0-.4.1-.6.3-.1,0-.6.3-.7.4h-.3c-.1-.4.3-.7.7-.9s.7-.3,1-.4Z"/>
    <path class="st11" d="M114.9,161.3l-.3-.5c.2.2.2.2.3.5Z"/>
    <path class="st11" d="M115.1,158.2c0,.3,0,.5-.1.7h0c0-.3.2-.5,0-.7,0,0,.1,0,.1,0Z"/>
    <path class="st12" d="M116.2,159.2c.4.3.4,1.3-.3,1.4s-1-1.2-.4-1.4.6,0,.8,0Z"/>
    <path class="st15" d="M146.4,157.8h0c0,0,0,.1-.1.1,0-.2,0-.1.1-.1Z"/>
    <path class="st1" d="M130.2,158.2c7.5,0,12.2,7.9,8.5,14.4-3.7,6.5-13.2,6.5-16.8,0-3.5-6.4,1.1-14.3,8.3-14.3ZM129.4,158.5c-6.7.6-10.4,8.2-7.1,14s14.7,5.8,17.1-2c2-6.5-3.3-12.6-10-12Z"/>
    <path class="st13" d="M129.4,158.5c6.7-.6,11.9,5.5,10,12-2.3,7.8-13,9-17.1,2s.4-13.4,7.1-14ZM129.6,159c-6.8.5-10.4,8.4-6.4,14s11.4,4.9,14.7-.5c3.8-6.2-1.1-14-8.3-13.5Z"/>
    <path class="st1" d="M129.6,159c7.2-.6,12.1,7.3,8.3,13.5-3.3,5.4-11.1,5.6-14.7.5s-.3-13.4,6.4-14ZM129.6,159.6c-6.1.5-9.5,7.7-6,12.8,3.4,5,11,4.8,14-.5s-1.3-12.8-8-12.3Z"/>
    <path class="st13" d="M129.6,159.6c6.7-.6,11.3,6.4,8,12.3s-10.6,5.6-14,.5c-3.5-5.1,0-12.3,6-12.8ZM129.6,160.8c-5,.4-7.8,6.2-5.3,10.6,2.7,4.6,9.4,4.7,12.2.2s-1-11.3-6.9-10.8Z"/>
    <path class="st17" d="M129.6,160.8c5.9-.5,10,5.6,6.9,10.8s-9.5,4.5-12.2-.2c-2.5-4.4.3-10.2,5.3-10.6ZM129.7,162c-4.6.4-6.8,6.1-3.8,9.6s7.2,2.7,9.4-.6-.6-9.5-5.6-9.1Z"/>
    <path class="st13" d="M129.7,162c5-.5,8.3,4.8,5.6,9.1s-6.9,3.5-9.4.6-.8-9.2,3.8-9.6ZM129.9,163.4c-3.9.4-5.4,5.4-2.4,7.9s5.6,1.1,6.8-1.4-.9-6.9-4.5-6.5Z"/>
    <path class="st17" d="M129.9,163.4c3.5-.4,6.1,3.3,4.5,6.5s-4.7,3.2-6.8,1.4-1.5-7.5,2.4-7.9ZM128.7,164.6c-1.7.3-1.4,3.3.6,3,1.9-.3,1.6-3.4-.6-3ZM131.3,167.6c-.8.2-.6,1.5.4,1.3s.7-1.6-.4-1.3Z"/>
    <path class="st20" d="M128.7,164.6c2.3-.4,2.6,2.7.6,3-2.1.3-2.4-2.7-.6-3Z"/>
    <path class="st20" d="M131.3,167.6c1.1-.2,1.2,1.2.4,1.3s-1.1-1.2-.4-1.3Z"/>
  </g>
</svg>