<?xml version="1.0" encoding="utf-8"?>
<!-- Generator: Adobe Illustrator 28.1.0, SVG Export Plug-In . SVG Version: 6.00 Build 0)  -->
<svg version="1.1" id="图层_1" xmlns="http://www.w3.org/2000/svg" xmlns:xlink="http://www.w3.org/1999/xlink" x="0px" y="0px"
	 width="256px" height="256px" viewBox="0 0 256 256" style="enable-background:new 0 0 256 256;" xml:space="preserve">
<style type="text/css">
	.st0{fill-rule:evenodd;clip-rule:evenodd;fill:url(#SVGID_1_);}
	
		.st1{fill-rule:evenodd;clip-rule:evenodd;fill:url(#SVGID_00000116237459908647806970000012194436792262602653_);filter:url(#Adobe_OpacityMaskFilter);}
	.st2{mask:url(#mask0_1708_28875_00000003795035233242536010000003598301504337323407_);}
	.st3{fill-rule:evenodd;clip-rule:evenodd;fill-opacity:0.3;}
	.st4{fill:url(#SVGID_00000168088573560393826360000009286468268880351417_);}
	.st5{fill:url(#SVGID_00000008841610485579828870000011856813134303825052_);}
	.st6{display:none;fill-rule:evenodd;clip-rule:evenodd;fill:url(#SVGID_00000050649798952883509260000011438146937359986575_);}
	.st7{display:none;fill:none;stroke:#000000;stroke-width:2;stroke-linecap:round;stroke-linejoin:round;stroke-miterlimit:10;}
	.st8{fill:url(#SVGID_00000023278005031436090150000001168789132404075435_);}
</style>
<linearGradient id="SVGID_1_" gradientUnits="userSpaceOnUse" x1="129" y1="60.7304" x2="129" y2="273.387" gradientTransform="matrix(1 0 0 -1 0 258)">
	<stop  offset="0" style="stop-color:#FBF729"/>
	<stop  offset="1" style="stop-color:#EDAC06"/>
</linearGradient>
<path class="st0" d="M104.4,42.4c-4.4-5.3-10.9-8.4-17.8-8.4H29c-6.6,0-12,5.4-12,12v12.1v10.1V160c0,6.6,5.4,12,12,12h200
	c6.6,0,12-5.4,12-12V70.1c0-6.6-5.4-12-12-12H117.4L104.4,42.4z"/>
<defs>
	<filter id="Adobe_OpacityMaskFilter" filterUnits="userSpaceOnUse" x="17" y="62" width="224" height="110">
		<feColorMatrix  type="matrix" values="1 0 0 0 0  0 1 0 0 0  0 0 1 0 0  0 0 0 1 0"/>
	</filter>
</defs>
<mask maskUnits="userSpaceOnUse" x="17" y="62" width="224" height="110" id="mask0_1708_28875_00000003795035233242536010000003598301504337323407_">
	
		<linearGradient id="SVGID_00000081610834458907975760000003355244916744705463_" gradientUnits="userSpaceOnUse" x1="32.5816" y1="239.5494" x2="213.3495" y2="58.4074" gradientTransform="matrix(1 0 0 -1 0 258)">
		<stop  offset="0" style="stop-color:#05815D"/>
		<stop  offset="1" style="stop-color:#0C575F"/>
	</linearGradient>
	
		<path style="fill-rule:evenodd;clip-rule:evenodd;fill:url(#SVGID_00000081610834458907975760000003355244916744705463_);filter:url(#Adobe_OpacityMaskFilter);" d="
		M104.4,42.4c-4.4-5.3-10.9-8.4-17.8-8.4H29c-6.6,0-12,5.4-12,12v12.1v10.1V160c0,6.6,5.4,12,12,12h200c6.6,0,12-5.4,12-12V70.1
		c0-6.6-5.4-12-12-12H117.4L104.4,42.4z"/>
</mask>
<g class="st2">
	<g>
		<path class="st3" d="M92.8,74c5,0,9.8-1.6,13.8-4.6l9.9-7.4H229c6.6,0,12,5.4,12,12v34v52c0,6.6-5.4,12-12,12H29
			c-6.6,0-12-5.4-12-12v-52V86c0-6.6,5.4-12,12-12h58H92.8z"/>
	</g>
</g>
<g>
	
		<linearGradient id="SVGID_00000142164857033981380270000006568536965206237828_" gradientUnits="userSpaceOnUse" x1="17" y1="122" x2="241" y2="122" gradientTransform="matrix(1 0 0 -1 0 258)">
		<stop  offset="0" style="stop-color:#ECA503"/>
		<stop  offset="0.5168" style="stop-color:#006A15"/>
		<stop  offset="1" style="stop-color:#B93407"/>
	</linearGradient>
	<path style="fill:url(#SVGID_00000142164857033981380270000006568536965206237828_);" d="M92.8,74c5,0,9.8-1.6,13.8-4.6l9.9-7.4
		H229c6.6,0,12,5.4,12,12v34v90c0,6.6-5.4,12-12,12H29c-6.6,0-12-5.4-12-12v-90V86c0-6.6,5.4-12,12-12H92.8z"/>
</g>
<linearGradient id="SVGID_00000119796962827396269950000001426075052350918562_" gradientUnits="userSpaceOnUse" x1="23.4918" y1="200.6918" x2="244.8288" y2="35.3768" gradientTransform="matrix(1 0 0 -1 0 258)">
	<stop  offset="0" style="stop-color:#023C5F"/>
	<stop  offset="1" style="stop-color:#080D27"/>
</linearGradient>
<path style="fill:url(#SVGID_00000119796962827396269950000001426075052350918562_);" d="M92.8,78c5,0,9.8-1.6,13.8-4.6l9.9-7.4H229
	c6.6,0,10,5.4,10,12v34v82c0,6.6-3.4,12-10,12H29c-6.6,0-11-5.4-11-12v-82V90c0-6.6,4.4-12,11-12H92.8z"/>
<linearGradient id="SVGID_00000175293582981392446380000005576720880748739978_" gradientUnits="userSpaceOnUse" x1="129.1746" y1="157" x2="129.1746" y2="86.9999" gradientTransform="matrix(1 0 0 -1 0 258)">
	<stop  offset="0" style="stop-color:#FBF82A"/>
	<stop  offset="1" style="stop-color:#ECA302"/>
</linearGradient>
<path style="display:none;fill-rule:evenodd;clip-rule:evenodd;fill:url(#SVGID_00000175293582981392446380000005576720880748739978_);" d="
	M150.4,101.2c1.3,0.2,2.3,0.6,3.7,1.3c4.6,2.3,7.5,7,7.2,11.8c-0.4,6.9-6,12.3-12.9,12.3c-2.4,0-4.8-0.6-6.9-1.8
	c-1.4-0.8-3.3-1.7-4.2-1.9c-1.5-0.5-2-0.5-3.8-0.5c-1.9,0-2.6,0.1-4.2,0.6c-3.2,1-5.3,2.8-7.3,6.1c-1.7,2.8-2.7,4.1-4.3,5.2
	c-4.5,3.4-11.2,3.3-15.8-0.1c-2.4-1.8-4.1-4.4-4.8-7.5c-0.3-1.1-0.3-4.3,0-5.3c1.1-4.3,4.2-7.9,8.4-9.4c1.5-0.5,2.7-0.7,4.5-0.7
	c2.4,0,3.8,0.3,6.2,1.6c3.7,1.9,4.3,2.1,5.9,2.5c1,0.2,3.9,0.3,4.8,0.1c4.3-0.9,6.9-2.8,9.4-7c0.9-1.5,1.7-2.5,2.6-3.4
	c1.9-1.9,4.4-3.2,6.9-3.7C147,100.9,149.3,101,150.4,101.2z M152.1,130c3.5,1,6.2,3.7,7.1,7c0.3,1.1,0.3,3.5,0,4.7
	c-1.3,4.9-6.1,8.1-11,7.2c-1.3-0.2-2.4-0.6-3.8-1.4c-1.8-1-2.4-1.2-3.5-1.5c-1.9-0.4-3.7-0.4-5.5,0.3c-2.2,0.8-3.6,1.9-4.9,4
	c-0.3,0.5-0.9,1.4-1.2,1.9c-1.5,2.3-3.6,3.7-6.5,4.2c-1,0.2-3.3,0.1-4.1-0.1c-3-0.8-5.4-2.8-6.5-5.3c-1.5-3.3-1.1-7,1-9.8
	c0.5-0.7,1.7-1.8,2.4-2.3c2.4-1.6,5.7-2.1,8.2-1.3c0.3,0.1,1.5,0.6,2.6,1.2c3,1.5,3.7,1.7,6,1.7c1.3,0,1.6,0,2.5-0.3
	c1.7-0.5,2.9-1.2,4.1-2.4c0.6-0.6,1-1.1,2.6-3.6c1-1.6,2.6-2.9,4.3-3.7c1.3-0.6,2.1-0.7,3.8-0.7C150.9,129.7,151.3,129.8,152.1,130z
	 M132.9,158.1c0.9,0.3,1.4,0.5,2.2,1.1c1,0.8,1.7,1.7,2.2,3c0.4,1,0.5,2.7,0.2,3.8c-1,4.2-5.7,6.3-9.5,4.3c-1-0.5-2.3-1.8-2.8-2.8
	c-0.6-1.2-0.7-2-0.7-3.3c0-0.7,0.1-1.3,0.3-1.8C125.9,159,129.5,157.1,132.9,158.1z"/>
<path class="st7" d="M282.3,185.4c-6.6-0.2-13.3-0.3-19.9-0.5"/>
<path class="st7" d="M282.3,215.3c-6.6,0.2-13.3,0.3-19.9,0.5"/>
<linearGradient id="SVGID_00000011734520070090134510000010829658964616446646_" gradientUnits="userSpaceOnUse" x1="70.8886" y1="137.9226" x2="200.8887" y2="137.9226">
	<stop  offset="0" style="stop-color:#FBF729"/>
	<stop  offset="1" style="stop-color:#EDAC06"/>
</linearGradient>
<path style="fill:url(#SVGID_00000011734520070090134510000010829658964616446646_);" d="M183.2,111.3c-6.9,6.8-13.8,13.7-20.7,20.5
	c-4.8,4.8-9.6,9.6-14.3,14.3c-8.4-8.4-16.7-16.7-25.1-25.1c-7.2,7.2-14.3,14.3-21.8,21.8c-4.1-4.1-8.3-8.3-12.4-12.4
	c-5.9,0-12,0-17.9,0c10.3,10.3,20.6,20.6,31.1,31.1c7-7,14.2-14.2,21.3-21.3c8.1,8.1,16.4,16.4,24.3,24.3
	c17.9-17.9,35.5-35.5,53.3-53.3c-5.8,0-11.6,0-17.4,0"/>
<g>
</g>
</svg>
