<?xml version="1.0" encoding="utf-8"?>
<!-- Generator: Adobe Illustrator 28.1.0, SVG Export Plug-In . SVG Version: 6.00 Build 0)  -->
<svg version="1.1" id="图层_1" xmlns="http://www.w3.org/2000/svg" xmlns:xlink="http://www.w3.org/1999/xlink" x="0px" y="0px"
	 width="256px" height="256px" viewBox="0 0 256 256" style="enable-background:new 0 0 256 256;" xml:space="preserve">
<style type="text/css">
	.st0{fill-rule:evenodd;clip-rule:evenodd;fill:#489952;}
	.st1{fill-rule:evenodd;clip-rule:evenodd;fill:url(#SVGID_1_);filter:url(#Adobe_OpacityMaskFilter);}
	.st2{mask:url(#mask0_1156_28154_00000142140854959721362270000002362821364848426906_);}
	.st3{fill-rule:evenodd;clip-rule:evenodd;fill-opacity:0.3;}
	.st4{fill-rule:evenodd;clip-rule:evenodd;fill:url(#SVGID_00000138550076853508987610000015589939386840429702_);}
	.st5{display:none;fill:#188038;}
	.st6{display:none;fill-rule:evenodd;clip-rule:evenodd;fill:#92FFD7;}
	.st7{fill:#E1E4E6;}
	.st8{fill:#489952;}
	.st9{fill:#EA8923;}
	.st10{fill:#9F7E21;}
	.st11{fill:#E4B631;}
</style>
<path class="st0" d="M104.4,42.4c-4.4-5.3-10.9-8.4-17.8-8.4H29c-6.6,0-12,5.4-12,12v12.1v10.1V160c0,6.6,5.4,12,12,12h200
	c6.6,0,12-5.4,12-12V70.1c0-6.6-5.4-12-12-12H117.4L104.4,42.4z"/>
<defs>
	<filter id="Adobe_OpacityMaskFilter" filterUnits="userSpaceOnUse" x="17" y="62" width="224" height="110">
		<feColorMatrix  type="matrix" values="1 0 0 0 0  0 1 0 0 0  0 0 1 0 0  0 0 0 1 0"/>
	</filter>
</defs>
<mask maskUnits="userSpaceOnUse" x="17" y="62" width="224" height="110" id="mask0_1156_28154_00000142140854959721362270000002362821364848426906_">
	
		<linearGradient id="SVGID_1_" gradientUnits="userSpaceOnUse" x1="32.5816" y1="239.5494" x2="213.3495" y2="58.4074" gradientTransform="matrix(1 0 0 -1 0 258)">
		<stop  offset="0" style="stop-color:#05815D"/>
		<stop  offset="1" style="stop-color:#0C575F"/>
	</linearGradient>
	<path class="st1" d="M104.4,42.4c-4.4-5.3-10.9-8.4-17.8-8.4H29c-6.6,0-12,5.4-12,12v12.1v10.1V160c0,6.6,5.4,12,12,12h200
		c6.6,0,12-5.4,12-12V70.1c0-6.6-5.4-12-12-12H117.4L104.4,42.4z"/>
</mask>
<g class="st2">
	<g>
		<path class="st3" d="M92.8,74c5,0,9.8-1.6,13.8-4.6l9.9-7.4H229c6.6,0,12,5.4,12,12v34v52c0,6.6-5.4,12-12,12H29
			c-6.6,0-12-5.4-12-12v-52V86c0-6.6,5.4-12,12-12h58H92.8z"/>
	</g>
</g>
<g>
	
		<linearGradient id="SVGID_00000055702593155073765680000013980583197315268499_" gradientUnits="userSpaceOnUse" x1="19.4178" y1="199.4222" x2="249.4178" y2="36.9222" gradientTransform="matrix(1 0 0 -1 0 258)">
		<stop  offset="0" style="stop-color:#18546E"/>
		<stop  offset="1" style="stop-color:#072B3B"/>
	</linearGradient>
	<path style="fill-rule:evenodd;clip-rule:evenodd;fill:url(#SVGID_00000055702593155073765680000013980583197315268499_);" d="
		M92.8,74c5,0,9.8-1.6,13.8-4.6l9.9-7.4H229c6.6,0,12,5.4,12,12v34v90c0,6.6-5.4,12-12,12H29c-6.6,0-12-5.4-12-12v-90V86
		c0-6.6,5.4-12,12-12h58H92.8z"/>
</g>
<path class="st5" d="M84,174.9v-18.1l2.1-2.1v-37.4l-2.1-2.1V97.1c0-8.5,9.2-13.8,16.6-9.6l67.4,38.9c7.4,4.3,7.4,14.9,0,19.2
	l-30,17.3l-2.4-1.1l-14.2,8.2v2.5l-20.7,12C93.2,188.8,84,183.4,84,174.9z"/>
<path class="st6" d="M132.3,130.2c-1.5-8.7-9-15-17.9-15H84v41.6h21.6l15.7,15.7l16.7-9.6L132.3,130.2z M105.6,120.8
	c2.9,0,5.2,2.3,5.2,5.2c0,2.9-2.3,5.2-5.2,5.2c-2.9,0-5.2-2.3-5.2-5.2C100.4,123.2,102.7,120.8,105.6,120.8z M95.6,141.2
	c-2.9,0-5.2-2.3-5.2-5.2c0-2.9,2.3-5.2,5.2-5.2c2.9,0,5.2,2.3,5.2,5.2C100.8,138.9,98.5,141.2,95.6,141.2z M105.6,151.2
	c-2.9,0-5.2-2.3-5.2-5.2c0-2.9,2.3-5.2,5.2-5.2c2.9,0,5.2,2.3,5.2,5.2C110.8,148.9,108.5,151.2,105.6,151.2z M115.7,141.2
	c-2.9,0-5.2-2.3-5.2-5.2c0-2.9,2.3-5.2,5.2-5.2c2.9,0,5.2,2.3,5.2,5.2C120.9,138.9,118.5,141.2,115.7,141.2z"/>
<path class="st7" d="M114.2,165.6c-0.2,0.1-0.1,0.3-0.1,0.4c0,3,0,6,0,9c0,0.3,0.1,0.5,0.4,0.5c2.4,0,4.9,0,7.3,0
	c0.4,0,0.5,0.1,0.5,0.5c0,0.4,0,0.8,0,1.2c-7,0-13.9,0-20.9,0c0-0.4,0-0.9,0-1.3c0-0.3,0.1-0.4,0.4-0.4c2.3,0,4.7,0,7,0
	c0.9,0,0.9,0,0.9-0.9c0-7.7,0-15.3,0-23c0-0.4-0.1-0.8-0.3-1.2c-1.2-2.1-2.4-4.2-3.6-6.2c-1.1-1.9-2.2-3.8-3.3-5.7
	c-1.1-1.9-2.2-3.8-3.3-5.7c-1-1.7-2-3.5-3-5.2c-1.1-1.9-2.2-3.9-3.3-5.8c-0.4-0.6-0.7-1.2-1.1-1.8c-0.1-0.2-0.1-0.3,0.1-0.3
	c0.6,0,1.3,0,1.9,0c3,0,6.1,0,9.1,0c0.3,0.9,0.7,1.8,1,2.8c-2,0-3.9,0-5.9,0c-1.1,0-1.1,0-0.6,0.9c2.4,4.3,4.8,8.6,7.3,12.9
	c1.3,2.2,2.5,4.5,3.9,6.6c0.6,0.9,1.3,1.8,2.2,2.4c0.9,0.6,1.8,0.5,2.6-0.1c1.3-1.1,2.3-2.5,3.1-3.9c3-5,5.8-10,8.6-15
	c0.6-1.1,1.2-2.2,1.8-3.3c0.2-0.3,0.1-0.4-0.2-0.4c-0.6,0-1.2,0-1.9,0c-1.3,0-2.7,0-4,0c-0.2,0-0.3,0-0.5,0c-4.4,0-8.8,0-13.2,0
	c-0.7,0-1.5,0-2.2,0c0,0-0.1,0-0.1,0c-0.3-0.9-0.6-1.8-0.9-2.8c0.9,0,1.8,0,2.6,0c5.1-0.1,10.2-0.1,15.4-0.1c0.1,0,0.1,0,0.2,0
	c0.9,0,0.9,0,1-0.9c0.7-5.3,6.1-9,11.3-7.8c5,1.2,8.1,5.8,7.1,10.9c-1.1,6.1-7.8,9.4-13.4,6.6c-0.3-0.1-0.6-0.5-0.9-0.4
	c-0.3,0.1-0.4,0.6-0.6,0.9c0,0,0,0.1,0,0.1c-0.2,0.1-0.2,0.3-0.3,0.5c-0.5,0.9-1.1,1.7-1.5,2.7l0,0c0,0-0.1,0.1-0.1,0.1
	c-0.5,0.9-1,1.7-1.5,2.6c-0.1,0.2-0.2,0.4-0.3,0.6c-0.3,0.6-0.6,1.1-1,1.7c-0.3,0.6-0.7,1.2-1,1.8c-1,1.7-1.9,3.4-2.9,5.1
	c-0.9,1.5-1.7,3-2.6,4.5c-0.5,0.8-0.9,1.6-1.4,2.4c-0.1,0.1-0.1,0.2-0.1,0.4c0,0.8,0,1.7,0,2.5c0,0.9,0,1.9,0,2.8c0,0.1,0,0.2,0,0.3
	c0,0.7,0,1.4,0,2.1c0,0.1,0,0.1,0,0.2c0,2,0,3.9,0,5.9C114.1,165.3,114.1,165.4,114.2,165.6z M133,121.9c0,1.1,0.2,2.1,0.4,3.2
	c0.1,0.9,0.3,1.8,0.5,2.7c0.1,0.5,0.2,0.6,0.7,0.4c1.2-0.4,2.2-0.9,3.2-1.7c0.4-0.3,0.4-0.4,0.1-0.8c-1.3-1.5-2.7-2.8-4.1-4.1
	c-0.2-0.2-0.4-0.5-0.6-0.4C132.9,121.3,133,121.6,133,121.9z M133.9,119.7c1-0.1,1.9-0.2,2.9-0.3c1.1-0.2,2.2-0.3,3.3-0.6
	c0.4-0.1,0.5-0.3,0.4-0.6c-0.3-1.1-0.9-2.2-1.6-3.1c-0.1-0.1-0.2-0.2-0.2-0.2c-0.2-0.2-0.3-0.2-0.5,0c-0.3,0.3-0.6,0.5-0.9,0.8
	c-1.2,1.1-2.5,2.3-3.5,3.6c-0.1,0.1-0.3,0.3-0.2,0.4C133.5,119.8,133.8,119.7,133.9,119.7z M132,118.6c-0.1-0.7-0.2-1.5-0.3-2.2
	c-0.2-1.3-0.4-2.5-0.7-3.8c-0.1-0.2-0.1-0.4-0.5-0.3c-1.3,0.4-2.4,0.9-3.5,1.8c-0.2,0.2-0.3,0.3-0.1,0.6c1.3,1.6,2.7,3.1,4.3,4.4
	c0.2,0.1,0.3,0.4,0.5,0.3C132.1,119.1,131.9,118.8,132,118.6z M136.6,120.2c-1.1,0-1.9,0-2.6,0.1c-0.1,0-0.3,0-0.4,0.2
	c-0.1,0.2,0.1,0.3,0.2,0.4c0.3,0.3,0.7,0.6,1.1,0.9c1.2,1,2.5,1.9,3.8,2.7c0.5,0.3,0.7,0.3,0.9-0.2c0.5-1,0.9-2.1,1-3.2
	c0.1-0.6,0-0.7-0.6-0.7C138.8,120.3,137.6,120.2,136.6,120.2z M133.1,112c-0.3-0.1-0.5,0.1-0.5,0.4c0,0.5-0.1,1-0.1,1.5
	c0,1.6-0.1,3.2,0,4.8c0,0.1,0,0.3,0.1,0.4c0.2,0.1,0.3-0.1,0.4-0.2c1.4-1.6,2.6-3.3,3.7-5c0.2-0.3,0.1-0.5-0.2-0.6
	C135.6,112.5,134.4,112.2,133.1,112z M132.4,125.4c0.1-1.1,0.1-2.1,0-3.2c0-0.3,0.1-0.8-0.2-0.9c-0.3-0.1-0.5,0.4-0.7,0.6
	c-1,1.6-2,3.2-2.9,4.8c-0.2,0.3-0.1,0.5,0.2,0.7c1,0.5,2,0.8,3.1,0.9c0.5,0.1,0.6,0,0.6-0.5C132.4,127,132.4,126.2,132.4,125.4z
	 M131,119.6c0,0,0-0.1,0-0.1c-1.6-1.4-3.3-2.6-5.1-3.7c-0.3-0.2-0.4,0-0.6,0.2c-0.6,1-1,2.1-1.2,3.3c0,0.2,0,0.3,0.2,0.3
	C126.7,119.6,128.9,119.6,131,119.6z"/>
<path class="st8" d="M126.8,129.1C126.8,129,126.8,129,126.8,129.1c0.2-0.4,0.3-0.8,0.6-1c0.2-0.1,0.6,0.3,0.9,0.4
	c5.6,2.8,12.3-0.5,13.4-6.6c0.9-5.1-2.1-9.7-7.1-10.9c-5.2-1.2-10.6,2.4-11.3,7.8c-0.1,0.9-0.1,0.9-1,0.9c-0.1,0-0.1,0-0.2,0
	c0.3-4.2,2.3-7.1,6-9c1.2-0.6,2.5-0.9,3.9-1c-1-1.1-2.1-2-2.9-3.1c0.3,0.1,0.7,0.2,1,0.4c2.4,0.9,4.8,2,7.3,2.9
	c0.2,0.1,0.5,0.3,0.6,0.1c0.2-0.2,0.1-0.5,0-0.7c-0.5-2.5-1.2-5-1.8-7.5c-0.1-0.6-0.3-1.2-0.3-1.8c0.3,0.1,0.4,0.3,0.5,0.4
	c1.1,1.7,2.3,3.2,3.4,4.8c0.2,0.2,0.3,0.6,0.6,0.6c0.3-0.1,0.2-0.5,0.3-0.7c0.3-1.9,0.5-3.7,0.7-5.6c0.1-1.2,0.3-2.5,0.4-3.8
	c0.2,0.2,0.3,0.4,0.3,0.6c0.9,3,1.7,5.9,2.6,8.9c0.1,0.3,0.2,0.6,0.3,0.9c0,0.1,0.1,0.3,0.2,0.3c0.1,0,0.2-0.1,0.2-0.2
	c0.5-0.9,0.7-1.8,1.1-2.7c1.4-3.5,2.6-7.2,3.9-10.8c0.1-0.3,0.2-0.7,0.5-0.9c-0.1,0.7-0.1,1.3-0.2,2c-0.4,3.2-0.8,6.4-1.2,9.7
	c-0.1,1.1-0.3,2.2-0.4,3.3c0,0.2-0.1,0.6,0.1,0.7c0.3,0.1,0.4-0.2,0.6-0.3c2-2.2,4-4.3,6-6.5c0.4-0.4,0.7-0.9,1.2-1.3
	c0.1,0.4-0.1,0.6-0.2,0.9c-0.9,2.5-1.8,5-2.7,7.4c-0.1,0.3-0.2,0.7-0.4,1c0,0.1-0.1,0.2,0,0.3c0.1,0.1,0.2,0,0.3,0
	c1.1-0.5,2.3-1,3.3-1.6c0.8-0.4,1.5-0.8,2.3-1.2c0.2-0.1,0.4-0.2,0.7-0.2c0,0.2-0.2,0.4-0.3,0.5c-1.8,2.3-3.7,4.4-5.5,6.7
	c-0.2,0.3-0.6,0.5-0.5,0.8c0.1,0.3,0.6,0.2,0.9,0.2c2.1,0.2,4.3,0.4,6.4,0.6c0.7,0.1,1.4,0.1,2.1,0.3c0,0,0,0.1,0,0.1
	c-2.3,0.7-4.6,1.5-6.9,2.3c-0.8,0.3-1.7,0.5-2.5,0.8c-0.4,0.1-0.7-0.1-1.1-0.1c-1.6-1.7-3.7-2.3-5.8-3c-1.1-0.4-2.2-0.7-3.3-1
	c-0.7-0.4-1.5-0.5-2.2-0.6c-0.5-0.1-0.9-0.2-1.5-0.3c0.3,0.3,0.5,0.6,0.7,0.9c0.3,0.4,0.5,0.9,0.8,1.3c0.3,0.7,0.6,1.3,0.8,2
	c0.4,1.3,0.5,2.7,0.4,4.1c-0.2,1.1-0.5,2.2-0.9,3.2l0,0c0,0,0,0-0.1,0.1c-0.7,1.4-1.6,2.7-2.8,3.7c-0.4,0.3-0.9,0.7-1.3,1
	c-0.5,0.2-1,0.5-1.4,0.7c-0.1,0-0.2,0-0.3,0.1c-1.7,0.7-3.4,0.8-5.2,0.6c-0.9-0.2-1.7-0.3-2.5-0.7
	C127.8,129.7,127.3,129.4,126.8,129.1z"/>
<path class="st9" d="M100.5,108.9c2.3-0.4,4.2,1.1,4.6,3c0.4,1.7-0.4,3.5-1.9,4.3c-0.1,0.1-0.2,0.1-0.3,0.2
	c-0.4,0.1-0.7,0.2-1.1,0.3c-1.7,0.1-3.1-0.5-3.9-2.1c-0.9-1.7-0.5-3.9,1.4-5.2C99.7,109.2,100.1,109,100.5,108.9z"/>
<path class="st8" d="M100.5,108.9c-0.5,0.1-0.9,0.3-1.3,0.5c0,0,0-0.1-0.1-0.1c-0.1-0.6-0.4-0.9-1-1.2c-1.1-0.4-1.6-1.9-1-2.9
	c0.6-1.1,2-1.5,3-0.8c1.1,0.7,1.4,2.1,0.6,3.1C100.3,108,100.3,108.4,100.5,108.9z"/>
<path class="st8" d="M101.8,116.7c0.4-0.1,0.7-0.2,1.1-0.3c0.3,1.1,0.7,2.2,1.1,3.4c0.2,0.9,0.5,1.9,0.9,2.8c0,0,0,0,0,0.1
	c1.7,5.6,3.5,11.2,5.2,16.9c0.1,0.4,0.2,0.7,0.3,1.1c-0.1-0.1-0.2-0.2-0.2-0.2c-0.9-2.7-1.9-5.3-2.8-8c-1.2-3.3-2.3-6.5-3.5-9.8
	c-0.3-0.9-0.6-1.8-1-2.8C102.5,118.7,102.2,117.7,101.8,116.7z"/>
<path class="st10" d="M142.1,124.4c0.4-1.1,0.7-2.1,0.9-3.2c0.5,0.5,0.5,0.5,1.1,0.2c0.7-0.4,1.4-0.8,2.2-1.2
	c0.6-0.4,1.3-0.8,1.9-1.2c0.6-0.4,0.7-0.7,0.4-1.2c-0.5-1-0.9-2-1.4-3c2.1,0.6,4.2,1.3,5.8,3c0,0.1,0.1,0.1,0.1,0.2
	c0,0.2-0.2,0.3-0.4,0.4c-0.4,0.2-0.7,0.4-1.1,0.6c-0.4,0.2-0.4,0.4-0.2,0.8c0.8,1.6,1.7,3.2,2.6,4.8c0.1,0.2,0.3,0.3,0.5,0.2
	c0.9-0.4,1.6-0.9,2.4-1.3c0.2-0.1,0.4-0.2,0.6-0.1c0.2,0.3,0.5,0.7,0.6,1.1c0,0.1-0.2,0.2-0.3,0.3c-0.8,0.5-1.7,0.9-2.5,1.4
	c-0.4,0.3-0.4,0.6-0.2,0.9c0.7,1.5,1.4,3,2.3,4.4c0.4,0.7,0.5,0.7,1.3,0.3c0.5-0.3,0.9-0.6,1.4-0.7c0.2,0.5,0.2,1.1,0.1,1.7
	c-0.3,0.2-0.7,0.4-1,0.6c-0.6,0.4-0.6,0.4-0.3,1.1c0.1,0.2,0.2,0.5,0.4,0.7c0.6,0.8,0.7,1.7,0.3,2.7c-0.1,0.2,0,0.4-0.2,0.4
	c-0.2,0-0.2-0.2-0.3-0.3c0-0.1-0.1-0.1-0.1-0.2c-0.5-0.9-1-1.8-1.5-2.6c-0.2-0.3-0.3-0.3-0.6-0.2c-1.6,0.8-3.2,1.7-4.8,2.6
	c-0.3,0.2-0.3,0.4-0.2,0.7c0.8,1.7,1.6,3.3,2.6,4.9c0.1,0.2,0.2,0.3,0.4,0.2c0.4-0.2,0.7-0.3,1.1-0.5c0.7-0.4,1.5-0.8,2.2-1.2
	c0.2-0.1,0.3-0.1,0.3,0.2c-0.1,0.5-0.3,1.1-0.4,1.6c0,0.2-0.2,0.3-0.3,0.4c-0.5,0.3-1.1,0.6-1.6,0.9c-0.5,0.3-0.6,0.6-0.4,1.2
	c0.3,0.5,0.6,1.1,0.9,1.6c0.1,0.2,0.2,0.4,0.1,0.7c-0.1,0.3-0.2,0.6-0.3,0.9c-0.1,0.2-0.1,0.6-0.3,0.6c-0.2,0-0.3-0.4-0.4-0.6
	c-0.5-0.9-0.9-1.8-1.4-2.6c-0.3-0.5-0.4-0.5-0.9-0.2c-1.6,0.8-3.1,1.7-4.5,2.6c-0.3,0.2-0.4,0.4-0.2,0.8c0.5,1.1,1.1,2.2,1.6,3.2
	c0.3,0.5,0.6,1,0.9,1.5c0.1,0.2,0.3,0.3,0.5,0.2c0.4-0.2,0.8-0.3,1.1-0.6c0.8-0.5,1.6-0.9,2.5-1.4c-0.1,0.7-0.3,1.3-0.5,1.8
	c-0.1,0.3-0.2,0.4-0.4,0.5c-0.6,0.3-1.2,0.6-1.8,1c-0.4,0.2-0.4,0.5-0.3,0.9c0.2,0.6,0.5,1.1,0.8,1.7c0.2,0.3,0.3,0.5,0.2,0.8
	c-0.1,0.4-0.3,0.8-0.4,1.3c0,0.1,0,0.3-0.2,0.3c-0.1,0-0.2-0.1-0.2-0.2c-0.6-1-1.1-2-1.6-3c-0.2-0.3-0.3-0.4-0.7-0.2
	c-0.7,0.4-1.5,0.8-2.2,1.2c-0.9,0.5-1.8,1-2.7,1.6c-0.2,0.1-0.3,0.3-0.2,0.5c0.8,1.7,1.7,3.4,2.6,5c0.2,0.3,0.3,0.2,0.6,0.2
	c0.6-0.2,1-0.5,1.5-0.8c0.6-0.3,1.2-0.7,1.9-1c0.1,0.1,0,0.2,0,0.4c-0.3,1-0.7,2-1.8,2.4c-0.1,0-0.2,0.1-0.3,0.2
	c-0.9,0.6-0.9,0.6-0.4,1.5c0,0.1,0.1,0.2,0.1,0.3c-0.2,0.4-0.4,0.8-0.7,1.2c-0.1,0.1-0.2,0.2-0.4,0.1c-0.2-0.4-0.4-0.8-0.7-1.2
	c-0.2-0.3-0.4-0.3-0.7-0.2c-1.7,0.8-3.3,1.7-4.8,2.8c-0.3,0.2-0.3,0.4-0.2,0.7c0.3,0.6,0.7,1.3,1,1.9c-0.2,0.4-1,0.7-1.4,0.6
	c-0.3-0.6-0.7-1.3-1-1.8c-0.2-0.2-0.4-0.3-0.6-0.1c-0.6,0.3-1.2,0.7-1.9,1c-1,0.5-1.9,1.1-2.8,1.7c-0.4,0.3-0.7,0.6-1.2,0.7
	c-0.9,0.1-1.7-0.1-2.6-0.2c0.6-0.4,0.5-1,0.4-1.5c-0.4-1.7-1.4-3.2-2.3-4.8c-0.1-0.2-0.3-0.2-0.5-0.1c-0.9,0.5-1.8,1-2.7,1.5
	c-0.7,0.4-1.3,0.8-2,1.2c-0.2,0.1-0.4,0.4-0.3,0.6c0.2,0.3,0.1,0.7,0,1c-1-0.3-1.9-0.7-2.8-1.3c0-0.1,0-0.1-0.1-0.1c0,0,0,0,0,0
	c0.1-0.1-0.1-0.3,0-0.4c0.4-0.2,0.2-0.5,0.1-0.8c-0.3-0.7-0.7-1.4-1-2.1c-0.4-0.8-0.9-1.7-1.3-2.5c-0.3-0.5-0.3-0.5-0.8-0.3
	c-0.4,0.2-0.7,0.4-1.1,0.5c-0.5,0.2-0.9,0.7-1.6,0.6c0,0,0,0,0,0c0,0,0-0.1-0.1-0.1c-0.2-0.2-0.4-0.5-0.5-0.7
	c-0.1-0.3,0.1-0.4,0.3-0.6c0.7-0.4,1.4-0.9,2.2-1.2c0.4-0.2,0.4-0.4,0.2-0.8c-0.6-1.5-1.4-2.9-2.2-4.3c-0.4-0.8-0.4-0.8-1.3-0.5
	c0-0.7,0-1.4,0-2.1c0.1-0.1,0.1-0.2,0-0.3c0-0.9,0-1.9,0-2.8c0.2,0.1,0.2,0.2,0.2,0.3c0.3,0.5,0.5,1,0.8,1.5
	c0.3,0.5,0.4,0.5,0.9,0.3c0.5-0.2,1-0.5,1.5-0.8c1.1-0.6,2.1-1.2,3.2-1.9c0.2-0.1,0.4-0.3,0.2-0.6c-0.7-1.5-1.4-3-2.3-4.5
	c-0.5-0.9-0.3-0.9-1.4-0.4c-0.6,0.2-1.1,0.6-1.7,0.7c0.9-1.5,1.7-3,2.6-4.5c0.1,0.1,0.2,0.1,0.2,0.2c0.5,0.8,0.5,0.7,1.3,0.3
	c1.5-0.7,2.8-1.7,4.3-2.4c0.4-0.2,0.4-0.5,0.2-0.9c-0.7-1.4-1.4-2.8-2.1-4.2c0.3-0.6,0.6-1.1,1-1.7c0,0.1,0.1,0.1,0.1,0.2
	c0.6,1.8,1.6,3.4,2.6,5c0.1,0.2,0.3,0.3,0.5,0.1c1.6-0.9,3.3-1.8,4.8-2.8c0.3-0.2,0.3-0.4,0.2-0.6c-0.8-1.9-1.8-3.8-2.8-5.7
	c-0.2-0.3-0.3-0.4-0.6-0.1c-1.1,0.8-2.2,1.6-3.3,2.4c-0.4,0.3-0.7,0.7-1.2,0.8c0.5-0.9,1-1.7,1.5-2.6c0,0,0.1-0.1,0.1-0.1
	c0,0,0,0,0,0c1.3-0.6,2.5-1.3,3.4-2.4c0.8,0.4,1.7,0.5,2.5,0.7c-0.2,0.2-0.4,0.5-0.6,0.7c-0.2,0.2-0.2,0.4-0.1,0.6
	c0.7,1.5,1.4,2.9,2.3,4.3c0.4,0.6,0.5,0.7,1.2,0.3c1-0.4,1.9-1,2.9-1.5c0.5-0.3,1.1-0.6,1.5-1c0.3-0.2,0.3-0.4,0.2-0.8
	c-0.3-0.6-0.6-1.2-0.9-1.8c-0.3-0.5-0.6-1-0.9-1.5c0.5-0.2,1-0.5,1.4-0.7c0.2,0.3,0.4,0.6,0.6,0.9c0.4,0.8,0.8,1.6,1.3,2.3
	c0.2,0.3,0.5,0.4,0.8,0.2c1.5-0.7,2.9-1.5,4.3-2.4c0.6-0.4,0.7-0.6,0.4-1.2c-0.6-1.5-1.4-2.9-2.2-4.2
	C142.9,124.4,142.6,124.2,142.1,124.4z M135.6,163.3c0-0.2-0.1-0.5-0.2-0.7c-0.7-1.4-1.5-2.8-2.3-4.2c-0.3-0.5-0.3-0.5-0.9-0.3
	c-1.6,0.8-3.1,1.7-4.5,2.6c-0.3,0.2-0.4,0.5-0.2,0.8c0.5,0.9,0.9,1.8,1.4,2.7c0.4,0.7,0.7,1.3,1.1,2c0.2,0.3,0.4,0.4,0.8,0.2
	c0.6-0.3,1.2-0.6,1.7-0.9c1-0.6,2-1,2.9-1.7C135.5,163.6,135.6,163.5,135.6,163.3z M125,143.5c-0.1,0-0.2,0.1-0.3,0.2
	c-1.6,0.8-3,1.7-4.5,2.6c-0.3,0.2-0.4,0.5-0.3,0.9c0.8,1.5,1.5,3.1,2.4,4.5c0.3,0.5,0.4,0.5,0.9,0.3c1.1-0.6,2.2-1.2,3.3-1.8
	c0.4-0.2,0.8-0.5,1.2-0.7c0.3-0.2,0.5-0.4,0.3-0.8c-0.8-1.6-1.6-3.2-2.5-4.8C125.4,143.7,125.3,143.5,125,143.5z M152.6,125.7
	c0-0.1-0.1-0.3-0.1-0.4c-0.5-1.1-1.1-2.2-1.7-3.3c-0.3-0.5-0.5-1-0.8-1.4c-0.1-0.2-0.3-0.4-0.6-0.2c-1.7,0.8-3.3,1.7-4.8,2.7
	c-0.2,0.1-0.3,0.3-0.2,0.5c0.8,1.7,1.6,3.3,2.5,4.9c0.2,0.4,0.5,0.4,0.8,0.2c1.6-0.7,2.9-1.8,4.5-2.5
	C152.4,126.2,152.6,126,152.6,125.7z M147.8,147.3c0.2,0,0.3-0.1,0.5-0.2c0.6-0.3,1.1-0.6,1.7-0.9c1-0.6,2-1.1,3-1.8
	c0.2-0.1,0.3-0.2,0.2-0.5c-0.8-1.6-1.6-3.3-2.5-4.8c-0.3-0.5-0.3-0.5-0.9-0.2c-0.9,0.5-1.8,1-2.7,1.5c-0.6,0.3-1.2,0.7-1.7,1.1
	c-0.3,0.2-0.5,0.4-0.3,0.7c0.8,1.6,1.6,3.2,2.5,4.8C147.4,147.1,147.6,147.3,147.8,147.3z M143.5,161.2c-0.1,0-0.2,0.1-0.3,0.1
	c-1.7,0.8-3.3,1.7-4.8,2.7c-0.2,0.1-0.2,0.3-0.1,0.5c0.7,1.7,1.6,3.3,2.5,4.8c0.2,0.3,0.5,0.4,0.8,0.2c0.8-0.4,1.6-0.8,2.4-1.2
	c0.7-0.4,1.4-0.8,2.1-1.3c0.2-0.2,0.5-0.4,0.4-0.7c-0.7-1.7-1.6-3.3-2.5-4.8C143.9,161.3,143.7,161.2,143.5,161.2z M144.1,140
	c0.1,0,0.2,0,0.3-0.1c1.6-0.8,3.2-1.7,4.7-2.7c0.3-0.2,0.3-0.3,0.2-0.6c-0.7-1.7-1.6-3.3-2.6-4.9c-0.2-0.3-0.4-0.3-0.6-0.2
	c-1.6,0.8-3.2,1.7-4.7,2.7c-0.3,0.2-0.4,0.4-0.2,0.7c0.7,1.6,1.6,3.2,2.4,4.7C143.6,139.8,143.8,140,144.1,140z M136.4,165.2
	c-0.1,0-0.3,0.1-0.4,0.1c-1,0.5-1.9,1-2.8,1.6c-0.6,0.3-1.2,0.7-1.7,1.1c-0.2,0.1-0.4,0.3-0.3,0.6c0.8,1.7,1.6,3.3,2.5,4.9
	c0.2,0.3,0.4,0.4,0.7,0.2c0.7-0.4,1.3-0.7,2-1.1c0.9-0.5,1.9-1,2.7-1.6c0.2-0.1,0.4-0.2,0.2-0.5c-0.8-1.7-1.6-3.4-2.5-5
	C136.8,165.3,136.7,165.2,136.4,165.2z M151.2,136c0.1,0,0.2-0.1,0.3-0.1c0.6-0.3,1.3-0.6,1.9-1c0.9-0.5,1.9-1,2.7-1.6
	c0.2-0.1,0.4-0.2,0.2-0.5c-0.8-1.7-1.6-3.5-2.6-5.1c-0.1-0.2-0.2-0.2-0.5-0.1c-0.7,0.3-1.3,0.6-1.9,1c-1,0.5-2,1.1-2.9,1.7
	c-0.3,0.2-0.4,0.4-0.2,0.7c0.7,1.6,1.6,3.2,2.4,4.8C150.8,135.9,150.9,136,151.2,136z M121.7,154.8c-0.1,0-0.2,0.1-0.3,0.1
	c-0.8,0.4-1.7,0.9-2.5,1.4c-0.6,0.3-1.2,0.7-1.8,1.1c-0.7,0.5-0.7,0.5-0.4,1.3c0.2,0.5,0.5,0.9,0.8,1.4c0.1,0.1,0.2,0.3,0.2,0.4
	c0.3,1,0.9,1.8,1.5,2.7c0.2,0.3,0.3,0.3,0.6,0.1c0.6-0.3,1.1-0.6,1.7-0.9c1.1-0.6,2.2-1.2,3.2-1.9c0.2-0.1,0.3-0.2,0.2-0.4
	c-0.8-1.7-1.6-3.3-2.6-4.9C122.1,154.9,122,154.8,121.7,154.8z M142.8,159.4c0-0.1,0-0.2-0.1-0.3c-0.8-1.7-1.6-3.3-2.6-4.9
	c-0.2-0.3-0.4-0.3-0.6-0.2c-1.7,0.8-3.3,1.7-4.9,2.7c-0.2,0.1-0.2,0.3-0.1,0.5c0.4,1,0.9,1.9,1.4,2.9c0.3,0.7,0.7,1.4,1.1,2
	c0.2,0.3,0.4,0.4,0.8,0.2c0.6-0.3,1.2-0.6,1.7-0.9c1-0.5,2-1.1,3-1.7C142.6,159.6,142.8,159.6,142.8,159.4z M146.7,150
	c0,0-0.1,0-0.2,0.1c-1.7,0.8-3.2,1.7-4.8,2.7c-0.3,0.2-0.3,0.4-0.2,0.7c0.8,1.6,1.7,3.2,2.6,4.8c0.2,0.3,0.4,0.3,0.7,0.2
	c0.9-0.5,1.9-1,2.8-1.6c0.6-0.3,1.2-0.7,1.7-1.1c0.3-0.2,0.5-0.5,0.3-0.9c-0.5-1-1.1-2.1-1.6-3.1c-0.3-0.5-0.5-0.9-0.8-1.4
	C147.2,150.2,147,150,146.7,150z M138.9,152c0-0.1-0.1-0.3-0.1-0.4c-0.7-1.5-1.5-3-2.3-4.4c-0.3-0.6-0.4-0.6-1-0.3
	c-1.5,0.7-3,1.6-4.4,2.5c-0.4,0.3-0.5,0.4-0.3,0.9c0.4,1,1,2,1.5,3c0.3,0.6,0.6,1.1,0.9,1.6c0.3,0.4,0.4,0.5,0.9,0.2
	c0.2-0.1,0.4-0.2,0.7-0.4c1.2-0.7,2.5-1.4,3.7-2.2C138.7,152.4,138.9,152.3,138.9,152z M139.1,135.6c0,0-0.1,0.1-0.2,0.1
	c-1.6,0.8-3.2,1.7-4.7,2.7c-0.2,0.1-0.3,0.3-0.2,0.5c0.7,1.7,1.6,3.3,2.5,4.8c0.2,0.4,0.5,0.4,0.8,0.2c0.7-0.4,1.3-0.7,2-1.1
	c0.9-0.5,1.7-1,2.6-1.5c0.3-0.2,0.4-0.4,0.3-0.7c-0.7-1.6-1.5-3.2-2.4-4.7C139.6,135.7,139.4,135.6,139.1,135.6z M143,142.7
	c-0.1,0-0.2,0.1-0.2,0.1c-1.6,0.8-3.2,1.7-4.7,2.7c-0.3,0.2-0.4,0.4-0.2,0.7c0.8,1.6,1.6,3.2,2.6,4.7c0.2,0.3,0.4,0.3,0.7,0.2
	c0.9-0.5,1.9-1,2.8-1.5c0.6-0.4,1.2-0.7,1.8-1.1c0.3-0.2,0.4-0.5,0.2-0.9c-0.4-0.8-0.8-1.6-1.2-2.4c-0.4-0.8-0.8-1.5-1.3-2.2
	C143.3,142.9,143.2,142.7,143,142.7z M131.7,156c0,0,0-0.1,0-0.2c-0.7-1.7-1.5-3.3-2.5-4.8c-0.2-0.3-0.4-0.3-0.6-0.2
	c-1.7,0.8-3.2,1.6-4.7,2.7c-0.2,0.2-0.3,0.4-0.2,0.7c0.2,0.3,0.3,0.7,0.5,1c0.6,1.3,1.3,2.6,2.1,3.8c0.2,0.3,0.4,0.3,0.7,0.2
	c0.5-0.3,1-0.6,1.5-0.9c1-0.6,2-1.1,3-1.8C131.6,156.4,131.7,156.3,131.7,156z M130,148c0.1,0,0.2-0.1,0.3-0.1
	c0.8-0.4,1.6-0.8,2.4-1.3c0.8-0.4,1.5-0.8,2.2-1.4c0.2-0.2,0.3-0.4,0.2-0.7c-0.7-1.6-1.5-3.2-2.4-4.7c-0.2-0.3-0.3-0.3-0.7-0.2
	c-1,0.5-2,1-3,1.6c-0.6,0.3-1.2,0.7-1.8,1.1c-0.2,0.2-0.3,0.3-0.2,0.6c0.7,1.6,1.5,3.2,2.4,4.7C129.5,147.8,129.6,148,130,148z
	 M120.3,165.4c0.1,0.2,0.1,0.3,0.2,0.5c0.5,0.9,0.9,1.8,1.4,2.7c0.3,0.6,0.6,1.2,1,1.7c0.2,0.2,0.4,0.3,0.7,0.2
	c1.6-0.8,3.2-1.7,4.7-2.7c0.3-0.2,0.3-0.4,0.2-0.6c-0.5-1.2-1.1-2.2-1.7-3.3c-0.3-0.5-0.5-0.9-0.8-1.4c-0.2-0.2-0.3-0.4-0.7-0.3
	c-1.6,0.8-3.2,1.6-4.6,2.7C120.4,164.9,120.4,165.1,120.3,165.4z M149.3,115.7c0,0.1,0,0.2,0,0.2c0.2,0.4,0.5,0.9,0.7,1.3
	c0.3,0.5,0.7,0.6,1.1,0.2c0.2-0.2,0.2-0.4,0-0.5C150.6,116.4,150,116.1,149.3,115.7z"/>
<path class="st11" d="M149.5,168.6c0-0.1-0.1-0.2-0.1-0.3c-0.4-0.9-0.4-0.9,0.4-1.5c0.1-0.1,0.2-0.1,0.3-0.2
	c1.1-0.4,1.5-1.4,1.8-2.4c0-0.1,0.1-0.2,0-0.4c-0.7,0.3-1.2,0.7-1.9,1c-0.5,0.3-1,0.6-1.5,0.8c-0.2,0.1-0.4,0.1-0.6-0.2
	c-1-1.6-1.8-3.3-2.6-5c-0.1-0.2,0-0.4,0.2-0.5c0.9-0.6,1.8-1.1,2.7-1.6c0.7-0.4,1.5-0.8,2.2-1.2c0.3-0.2,0.5-0.1,0.7,0.2
	c0.5,1,1.1,2,1.6,3c0.1,0.1,0.1,0.3,0.2,0.2c0.2,0,0.2-0.2,0.2-0.3c0.1-0.4,0.3-0.8,0.4-1.3c0.1-0.3,0-0.6-0.2-0.8
	c-0.3-0.5-0.6-1.1-0.8-1.7c-0.1-0.4-0.1-0.7,0.3-0.9c0.6-0.3,1.2-0.7,1.8-1c0.2-0.1,0.4-0.3,0.4-0.5c0.1-0.6,0.4-1.1,0.5-1.8
	c-0.9,0.5-1.7,0.9-2.5,1.4c-0.4,0.2-0.8,0.4-1.1,0.6c-0.2,0.1-0.4,0.1-0.5-0.2c-0.3-0.5-0.6-1-0.9-1.5c-0.6-1.1-1.1-2.1-1.6-3.2
	c-0.2-0.3-0.1-0.5,0.2-0.8c1.5-1,2.9-1.9,4.5-2.6c0.5-0.2,0.6-0.2,0.9,0.2c0.5,0.9,1,1.7,1.4,2.6c0.1,0.2,0.2,0.6,0.4,0.6
	c0.2,0,0.2-0.4,0.3-0.6c0.1-0.3,0.2-0.6,0.3-0.9c0.1-0.2,0.1-0.5-0.1-0.7c-0.3-0.5-0.6-1.1-0.9-1.6c-0.3-0.6-0.2-0.9,0.4-1.2
	c0.5-0.3,1.1-0.6,1.6-0.9c0.2-0.1,0.3-0.2,0.3-0.4c0.1-0.5,0.3-1.1,0.4-1.6c0.1-0.3-0.1-0.3-0.3-0.2c-0.7,0.4-1.5,0.8-2.2,1.2
	c-0.4,0.2-0.7,0.3-1.1,0.5c-0.2,0.1-0.3,0-0.4-0.2c-1-1.6-1.9-3.2-2.6-4.9c-0.1-0.3-0.1-0.5,0.2-0.7c1.5-1,3.1-1.8,4.8-2.6
	c0.3-0.1,0.4-0.1,0.6,0.2c0.5,0.9,1,1.8,1.5,2.6c0,0.1,0.1,0.1,0.1,0.2c0.1,0.1,0.1,0.4,0.3,0.3c0.2,0,0.2-0.3,0.2-0.4
	c0.4-1,0.2-1.9-0.3-2.7c-0.1-0.2-0.3-0.4-0.4-0.7c-0.3-0.7-0.3-0.7,0.3-1.1c0.3-0.2,0.7-0.4,1-0.6c0.1,2.6-0.5,5-1.2,7.4
	c-2,7.1-4.1,14.3-6.1,21.4c-0.7,2.5-1.8,4.8-3.4,6.8C149.7,168.4,149.6,168.5,149.5,168.6z"/>
<path class="st11" d="M124.1,173.5c0.1-0.3,0.1-0.6,0-1c-0.1-0.3,0.1-0.5,0.3-0.6c0.7-0.4,1.3-0.8,2-1.2c0.9-0.5,1.8-1,2.7-1.5
	c0.2-0.1,0.4-0.1,0.5,0.1c0.9,1.5,1.9,3,2.3,4.8c0.1,0.5,0.2,1.1-0.4,1.5c-2.4-0.4-4.7-1.2-7-1.9
	C124.4,173.7,124.3,173.6,124.1,173.5z"/>
<path class="st11" d="M160.4,131c-0.5,0.1-1,0.4-1.4,0.7c-0.8,0.5-0.8,0.5-1.3-0.3c-0.8-1.4-1.6-2.9-2.3-4.4
	c-0.2-0.4-0.2-0.7,0.2-0.9c0.8-0.5,1.6-0.9,2.5-1.4c0.1-0.1,0.2-0.1,0.3-0.3c1,2,1.7,4.1,2,6.3C160.3,130.8,160.3,130.9,160.4,131z"
	/>
<path class="st11" d="M157.7,123.3c-0.2-0.1-0.4,0-0.6,0.1c-0.8,0.4-1.6,0.9-2.4,1.3c-0.3,0.1-0.4,0.1-0.5-0.2
	c-0.9-1.6-1.8-3.2-2.6-4.8c-0.2-0.4-0.1-0.6,0.2-0.8c0.4-0.2,0.7-0.4,1.1-0.6c0.2-0.1,0.3-0.2,0.4-0.4c1.7,1.4,3.1,2.9,4.3,4.8
	C157.5,123,157.6,123.1,157.7,123.3z"/>
<path class="st11" d="M114.1,159c0.9-0.3,0.9-0.3,1.3,0.5c0.7,1.4,1.5,2.8,2.2,4.3c0.2,0.4,0.2,0.6-0.2,0.8
	c-0.7,0.4-1.4,0.8-2.2,1.2c-0.2,0.1-0.4,0.3-0.3,0.6c-0.3-0.2-0.4-0.6-0.7-0.9c0-0.1-0.1-0.3-0.1-0.5c0-2,0-3.9,0-5.9
	C114.1,159.2,114.1,159.1,114.1,159z"/>
<path class="st11" d="M143.1,173.8c-0.3-0.6-0.7-1.3-1-1.9c-0.1-0.3-0.1-0.5,0.2-0.7c1.5-1,3.2-1.9,4.8-2.8c0.3-0.1,0.5-0.1,0.7,0.2
	c0.3,0.4,0.5,0.8,0.7,1.2c-1.3,1.5-2.9,2.6-4.6,3.6C143.6,173.5,143.3,173.7,143.1,173.8z"/>
<path class="st11" d="M115.4,167.3c0.6,0.1,1.1-0.4,1.6-0.6c0.4-0.2,0.7-0.4,1.1-0.5c0.5-0.3,0.6-0.2,0.8,0.3
	c0.5,0.8,0.9,1.7,1.3,2.5c0.4,0.7,0.7,1.4,1,2.1c0.1,0.3,0.3,0.6-0.1,0.8c-0.2,0.1,0,0.3,0,0.4c-0.9-0.4-1.7-1-2.4-1.6
	C117.5,169.6,116.4,168.6,115.4,167.3z"/>
<path class="st11" d="M134.1,175.8c0.5,0,0.8-0.4,1.2-0.7c0.9-0.6,1.8-1.2,2.8-1.7c0.6-0.3,1.2-0.7,1.9-1c0.3-0.1,0.5-0.1,0.6,0.1
	c0.4,0.6,0.7,1.2,1,1.8c-1.3,0.6-2.7,0.9-4.2,1.2C136.4,175.7,135.2,175.8,134.1,175.8z"/>
<path class="st11" d="M115.4,167.2C115.4,167.2,115.4,167.3,115.4,167.2C115.4,167.3,115.4,167.2,115.4,167.2z"/>
<path class="st11" d="M121.2,172.2c0.1,0,0.1,0,0.1,0.1C121.3,172.2,121.2,172.2,121.2,172.2z"/>
<path class="st9" d="M103.8,122.5c1.2,3.3,2.3,6.5,3.5,9.8c0.9,2.7,1.9,5.3,2.8,8c0,0.1,0.1,0.2,0.2,0.2c-0.1-0.4-0.2-0.7-0.3-1.1
	c-1.7-5.6-3.5-11.2-5.2-16.9c0,0,0,0,0.1-0.1c0.7,0,1.5,0,2.2,0c4.4,0,8.8,0,13.2,0c0.2,0,0.3,0,0.5,0c0,0.2,0,0.4-0.1,0.5
	c-1.1,2.8-2.1,5.7-3.2,8.5c-0.9,2.4-1.8,4.8-2.7,7.2c-0.2,0.6-0.4,1.2-0.7,1.8c0.2-0.1,0.3-0.3,0.4-0.5c1.6-2.6,3.1-5.3,4.7-7.9
	c1.3-2.2,2.6-4.5,3.9-6.7c0.6-1,1.2-1.9,1.7-2.9c0.6,0,1.2,0,1.9,0c0.3,0,0.4,0.1,0.2,0.4c-0.6,1.1-1.2,2.2-1.8,3.3
	c-2.8,5-5.7,10.1-8.6,15c-0.9,1.4-1.8,2.8-3.1,3.9c-0.8,0.7-1.7,0.7-2.6,0.1c-0.9-0.6-1.6-1.5-2.2-2.4c-1.5-2.1-2.7-4.4-3.9-6.6
	c-2.5-4.3-4.9-8.5-7.3-12.9c-0.5-0.9-0.5-0.9,0.6-0.9C99.9,122.5,101.9,122.5,103.8,122.5z"/>
<path class="st11" d="M123.4,134.9c0.5-0.1,0.8-0.5,1.2-0.8c1.1-0.8,2.2-1.6,3.3-2.4c0.3-0.2,0.5-0.2,0.6,0.1c1,1.8,2,3.7,2.8,5.7
	c0.1,0.3,0.1,0.5-0.2,0.6c-1.6,1-3.2,1.9-4.8,2.8c-0.3,0.1-0.4,0.1-0.5-0.1c-0.9-1.6-1.9-3.2-2.6-5c0-0.1-0.1-0.1-0.1-0.2
	C123.2,135.3,123.3,135.1,123.4,134.9z"/>
<path class="st11" d="M115.6,148.5c0.6-0.1,1.1-0.5,1.7-0.7c1.1-0.4,0.8-0.5,1.4,0.4c0.8,1.4,1.6,2.9,2.3,4.5c0.1,0.3,0,0.4-0.2,0.6
	c-1,0.7-2.1,1.3-3.2,1.9c-0.5,0.3-1,0.5-1.5,0.8c-0.5,0.2-0.6,0.2-0.9-0.3c-0.3-0.5-0.5-1-0.8-1.5c-0.1-0.1-0.1-0.3-0.2-0.3
	c0-0.8,0-1.7,0-2.5c0-0.1,0-0.3,0.1-0.4C114.7,150.1,115.1,149.3,115.6,148.5z"/>
<path class="st11" d="M124.8,122.5c-0.5,1-1.1,1.9-1.7,2.9c-1.3,2.2-2.6,4.5-3.9,6.7c-1.6,2.6-3.1,5.3-4.7,7.9
	c-0.1,0.2-0.2,0.4-0.4,0.5c0.2-0.6,0.4-1.2,0.7-1.8c0.9-2.4,1.8-4.8,2.7-7.2c1.1-2.8,2.1-5.7,3.2-8.5c0.1-0.2,0.1-0.3,0.1-0.5
	C122.1,122.5,123.5,122.5,124.8,122.5z"/>
<path class="st11" d="M122.1,137.2c0.7,1.4,1.4,2.8,2.1,4.2c0.2,0.3,0.2,0.7-0.2,0.9c-1.5,0.7-2.8,1.7-4.3,2.4
	c-0.7,0.4-0.8,0.5-1.3-0.3c-0.1-0.1-0.2-0.2-0.2-0.2c1-1.7,1.9-3.4,2.9-5.1C121.4,138.4,121.7,137.8,122.1,137.2z"/>
<path class="st8" d="M133,121.9c0-0.2-0.1-0.6,0.1-0.7c0.2-0.1,0.4,0.2,0.6,0.4c1.5,1.3,2.9,2.6,4.1,4.1c0.3,0.4,0.3,0.5-0.1,0.8
	c-1,0.7-2,1.3-3.2,1.7c-0.5,0.1-0.6,0.1-0.7-0.4c-0.2-0.9-0.3-1.8-0.5-2.7C133.2,124,133,122.9,133,121.9z"/>
<path class="st8" d="M133.9,119.7c-0.1,0-0.4,0.1-0.4-0.1c-0.1-0.2,0.1-0.3,0.2-0.4c1-1.3,2.3-2.4,3.5-3.6c0.3-0.3,0.6-0.5,0.9-0.8
	c0.2-0.2,0.3-0.2,0.5,0c0.1,0.1,0.2,0.2,0.2,0.2c0.7,0.9,1.3,2,1.6,3.1c0.1,0.4,0,0.6-0.4,0.6c-1.1,0.3-2.2,0.4-3.3,0.6
	C135.8,119.5,134.9,119.6,133.9,119.7z"/>
<path class="st8" d="M132,118.6c-0.1,0.3,0.1,0.6-0.1,0.7c-0.2,0.1-0.4-0.2-0.5-0.3c-1.6-1.3-3-2.8-4.3-4.4
	c-0.2-0.2-0.1-0.4,0.1-0.6c1-0.8,2.2-1.4,3.5-1.8c0.3-0.1,0.4,0.1,0.5,0.3c0.3,1.3,0.5,2.5,0.7,3.8
	C131.8,117.1,131.9,117.9,132,118.6z"/>
<path class="st8" d="M136.6,120.2c0.9,0,2.2,0.1,3.5,0.2c0.6,0,0.7,0.1,0.6,0.7c-0.2,1.1-0.5,2.2-1,3.2c-0.3,0.5-0.4,0.6-0.9,0.2
	c-1.3-0.8-2.5-1.8-3.8-2.7c-0.4-0.3-0.7-0.6-1.1-0.9c-0.1-0.1-0.3-0.2-0.2-0.4c0.1-0.1,0.2-0.1,0.4-0.2
	C134.8,120.2,135.5,120.2,136.6,120.2z"/>
<path class="st8" d="M133.1,112c1.2,0.2,2.5,0.5,3.6,1.2c0.3,0.2,0.3,0.3,0.2,0.6c-1.1,1.8-2.3,3.5-3.7,5c-0.1,0.1-0.2,0.3-0.4,0.2
	c-0.2-0.1-0.1-0.2-0.1-0.4c-0.1-1.6-0.1-3.2,0-4.8c0-0.5,0-1,0.1-1.5C132.6,112.1,132.8,111.9,133.1,112z"/>
<path class="st8" d="M132.4,125.4c0,0.8,0,1.6,0,2.5c0,0.5-0.1,0.6-0.6,0.5c-1.1-0.1-2.1-0.4-3.1-0.9c-0.3-0.2-0.4-0.4-0.2-0.7
	c0.9-1.6,1.9-3.3,2.9-4.8c0.2-0.3,0.4-0.7,0.7-0.6c0.3,0.1,0.2,0.6,0.2,0.9C132.5,123.3,132.4,124.3,132.4,125.4z"/>
<path class="st8" d="M131,119.6c-2.2,0-4.3,0-6.5,0c-0.2,0-0.3-0.1-0.2-0.3c0.2-1.2,0.6-2.2,1.2-3.3c0.1-0.2,0.3-0.4,0.6-0.2
	c1.8,1.1,3.5,2.3,5.1,3.7C131.1,119.6,131,119.6,131,119.6z"/>
<path class="st11" d="M128.4,129.9c-0.9,1.1-2.2,1.7-3.4,2.4c0.4-0.9,1-1.8,1.5-2.7c0.1-0.2,0.2-0.4,0.3-0.5
	C127.3,129.4,127.8,129.7,128.4,129.9z"/>
<path class="st11" d="M114.1,156.7c0.1,0.1,0.1,0.2,0,0.3C114.1,156.9,114.1,156.8,114.1,156.7z"/>
<path class="st11" d="M125,132.2C124.9,132.3,124.9,132.3,125,132.2C124.9,132.3,124.9,132.3,125,132.2z"/>
<path class="st11" d="M104.9,122.5C104.8,122.5,104.8,122.5,104.9,122.5C104.8,122.5,104.8,122.5,104.9,122.5
	C104.8,122.5,104.8,122.5,104.9,122.5z"/>
<path class="st11" d="M136.5,129.9c0.3,0.5,0.6,1,0.9,1.5c0.3,0.6,0.6,1.2,0.9,1.8c0.2,0.3,0.1,0.5-0.2,0.8c-0.5,0.4-1,0.7-1.5,1
	c-0.9,0.5-1.9,1.1-2.9,1.5c-0.7,0.3-0.8,0.3-1.2-0.3c-0.8-1.4-1.6-2.8-2.3-4.3c-0.1-0.2-0.1-0.4,0.1-0.6c0.2-0.2,0.4-0.5,0.6-0.7
	c1.8,0.2,3.5,0.1,5.2-0.6C136.3,130,136.4,130,136.5,129.9z"/>
<path class="st11" d="M142.1,124.4c0.5-0.2,0.7,0,1,0.4c0.8,1.4,1.6,2.8,2.2,4.2c0.3,0.7,0.2,0.9-0.4,1.2c-1.4,0.9-2.8,1.7-4.3,2.4
	c-0.3,0.2-0.6,0.1-0.8-0.2c-0.5-0.7-0.8-1.6-1.3-2.3c-0.2-0.3-0.3-0.7-0.6-0.9c0.4-0.3,0.9-0.6,1.3-1
	C140.5,127.2,141.4,125.9,142.1,124.4C142.1,124.5,142.1,124.4,142.1,124.4L142.1,124.4z"/>
<path class="st11" d="M147.2,114.9c0.5,1,0.9,2,1.4,3c0.2,0.5,0.1,0.8-0.4,1.2c-0.6,0.4-1.3,0.8-1.9,1.2c-0.7,0.4-1.4,0.8-2.2,1.2
	c-0.7,0.3-0.7,0.3-1.1-0.2c0-1.4,0-2.7-0.4-4.1c-0.2-0.7-0.5-1.3-0.8-2c0.1-0.1,0.3-0.2,0.4-0.2c0.6-0.3,1.1-0.8,1.8-1
	C145,114.2,146.1,114.5,147.2,114.9z"/>
<path class="st10" d="M143.9,113.9c-0.7,0.2-1.2,0.6-1.8,1c-0.1,0.1-0.3,0.2-0.4,0.2c-0.3-0.4-0.6-0.9-0.8-1.3
	c0.2-0.2,0.6-0.3,0.7-0.6C142.4,113.4,143.2,113.5,143.9,113.9z"/>
<path class="st11" d="M141.7,113.3c-0.2,0.3-0.5,0.4-0.7,0.6c-0.2-0.3-0.4-0.5-0.7-0.9C140.8,113.1,141.2,113.2,141.7,113.3z"/>
<path class="st10" d="M142.1,124.4C142.1,124.4,142.1,124.5,142.1,124.4C142.1,124.5,142.1,124.4,142.1,124.4z"/>
<path class="st11" d="M135.6,163.3c0,0.2-0.1,0.4-0.3,0.5c-0.9,0.7-1.9,1.2-2.9,1.7c-0.6,0.3-1.2,0.6-1.7,0.9
	c-0.4,0.2-0.6,0.1-0.8-0.2c-0.4-0.7-0.8-1.3-1.1-2c-0.5-0.9-0.9-1.8-1.4-2.7c-0.2-0.4-0.1-0.6,0.2-0.8c1.5-0.9,3-1.8,4.5-2.6
	c0.5-0.3,0.5-0.2,0.9,0.3c0.8,1.4,1.6,2.8,2.3,4.2C135.5,162.8,135.6,163,135.6,163.3z"/>
<path class="st11" d="M125,143.5c0.3,0,0.4,0.1,0.4,0.3c0.9,1.6,1.8,3.1,2.5,4.8c0.2,0.4,0,0.6-0.3,0.8c-0.4,0.2-0.8,0.5-1.2,0.7
	c-1.1,0.6-2.2,1.3-3.3,1.8c-0.5,0.3-0.6,0.2-0.9-0.3c-0.9-1.4-1.7-3-2.4-4.5c-0.2-0.4-0.1-0.6,0.3-0.9c1.5-0.9,3-1.8,4.5-2.6
	C124.8,143.6,124.9,143.6,125,143.5z"/>
<path class="st11" d="M152.6,125.7c0,0.3-0.2,0.5-0.4,0.6c-1.6,0.7-3,1.7-4.5,2.5c-0.4,0.2-0.6,0.1-0.8-0.2
	c-0.9-1.6-1.7-3.2-2.5-4.9c-0.1-0.2,0-0.4,0.2-0.5c1.6-1,3.2-1.9,4.8-2.7c0.3-0.2,0.5,0,0.6,0.2c0.3,0.5,0.6,0.9,0.8,1.4
	c0.6,1.1,1.2,2.1,1.7,3.3C152.5,125.4,152.6,125.5,152.6,125.7z"/>
<path class="st11" d="M147.8,147.3c-0.2,0-0.3-0.1-0.4-0.3c-0.9-1.6-1.7-3.2-2.5-4.8c-0.2-0.4,0.1-0.6,0.3-0.7
	c0.6-0.4,1.1-0.7,1.7-1.1c0.9-0.5,1.8-1,2.7-1.5c0.6-0.3,0.6-0.3,0.9,0.2c1,1.5,1.8,3.2,2.5,4.8c0.1,0.2,0,0.3-0.2,0.5
	c-0.9,0.7-2,1.2-3,1.8c-0.6,0.3-1.1,0.6-1.7,0.9C148.1,147.2,148,147.3,147.8,147.3z"/>
<path class="st11" d="M143.5,161.2c0.2,0,0.3,0.1,0.4,0.3c0.9,1.6,1.8,3.2,2.5,4.8c0.2,0.4-0.1,0.5-0.4,0.7
	c-0.7,0.5-1.4,0.9-2.1,1.3c-0.8,0.4-1.6,0.8-2.4,1.2c-0.4,0.2-0.6,0.1-0.8-0.2c-0.9-1.6-1.8-3.2-2.5-4.8c-0.1-0.2-0.1-0.3,0.1-0.5
	c1.5-1,3.1-1.9,4.8-2.7C143.3,161.2,143.4,161.2,143.5,161.2z"/>
<path class="st11" d="M144.1,140c-0.3,0-0.4-0.2-0.5-0.3c-0.9-1.5-1.7-3.1-2.4-4.7c-0.2-0.4,0-0.6,0.2-0.7c1.5-1,3.1-1.9,4.7-2.7
	c0.3-0.1,0.5-0.1,0.6,0.2c1,1.6,1.8,3.2,2.6,4.9c0.1,0.3,0.1,0.4-0.2,0.6c-1.5,1-3.1,1.8-4.7,2.7C144.2,140,144.1,140,144.1,140z"/>
<path class="st11" d="M136.4,165.2c0.2,0,0.4,0.1,0.4,0.3c0.9,1.6,1.8,3.3,2.5,5c0.1,0.3-0.1,0.4-0.2,0.5c-0.9,0.6-1.8,1.1-2.7,1.6
	c-0.7,0.4-1.3,0.7-2,1.1c-0.3,0.2-0.5,0.1-0.7-0.2c-0.9-1.6-1.8-3.2-2.5-4.9c-0.2-0.4,0-0.5,0.3-0.6c0.6-0.4,1.1-0.7,1.7-1.1
	c0.9-0.5,1.9-1.1,2.8-1.6C136.2,165.2,136.3,165.2,136.4,165.2z"/>
<path class="st11" d="M151.2,136c-0.3,0-0.4-0.1-0.5-0.3c-0.9-1.6-1.7-3.1-2.4-4.8c-0.2-0.4-0.1-0.5,0.2-0.7
	c0.9-0.6,1.9-1.2,2.9-1.7c0.6-0.3,1.3-0.7,1.9-1c0.2-0.1,0.4-0.1,0.5,0.1c1,1.7,1.8,3.4,2.6,5.1c0.1,0.3-0.1,0.4-0.2,0.5
	c-0.9,0.6-1.8,1.1-2.7,1.6c-0.6,0.3-1.3,0.7-1.9,1C151.4,135.9,151.3,136,151.2,136z"/>
<path class="st11" d="M121.7,154.8c0.2,0,0.3,0.2,0.4,0.3c1,1.6,1.8,3.3,2.6,4.9c0.1,0.2,0,0.3-0.2,0.4c-1,0.7-2.1,1.3-3.2,1.9
	c-0.6,0.3-1.1,0.6-1.7,0.9c-0.2,0.1-0.4,0.1-0.6-0.1c-0.6-0.9-1.2-1.7-1.5-2.7c0-0.1-0.1-0.3-0.2-0.4c-0.3-0.4-0.6-0.9-0.8-1.4
	c-0.3-0.8-0.3-0.8,0.4-1.3c0.6-0.4,1.2-0.8,1.8-1.1c0.8-0.5,1.7-0.9,2.5-1.4C121.5,154.8,121.6,154.8,121.7,154.8z"/>
<path class="st11" d="M142.8,159.4c0,0.2-0.2,0.2-0.3,0.3c-1,0.6-2,1.2-3,1.7c-0.6,0.3-1.2,0.6-1.7,0.9c-0.4,0.2-0.6,0.1-0.8-0.2
	c-0.4-0.6-0.8-1.3-1.1-2c-0.5-0.9-1-1.9-1.4-2.9c-0.1-0.2-0.1-0.3,0.1-0.5c1.6-1,3.2-1.9,4.9-2.7c0.3-0.1,0.4-0.1,0.6,0.2
	c1,1.6,1.8,3.2,2.6,4.9C142.7,159.2,142.8,159.3,142.8,159.4z"/>
<path class="st11" d="M146.7,150c0.3,0,0.4,0.2,0.5,0.4c0.3,0.5,0.6,0.9,0.8,1.4c0.6,1,1.1,2.1,1.6,3.1c0.2,0.5,0,0.7-0.3,0.9
	c-0.6,0.4-1.1,0.7-1.7,1.1c-0.9,0.5-1.9,1-2.8,1.6c-0.3,0.2-0.5,0.1-0.7-0.2c-0.9-1.6-1.8-3.2-2.6-4.8c-0.1-0.3-0.1-0.5,0.2-0.7
	c1.5-1,3.1-1.9,4.8-2.7C146.6,150,146.7,150,146.7,150z"/>
<path class="st11" d="M138.9,152c0,0.3-0.2,0.4-0.4,0.5c-1.2,0.8-2.5,1.5-3.7,2.2c-0.2,0.1-0.4,0.3-0.7,0.4
	c-0.5,0.2-0.6,0.2-0.9-0.2c-0.3-0.5-0.6-1.1-0.9-1.6c-0.5-1-1.1-2-1.5-3c-0.2-0.5-0.2-0.6,0.3-0.9c1.4-0.9,2.9-1.7,4.4-2.5
	c0.6-0.3,0.6-0.3,1,0.3c0.9,1.4,1.7,2.9,2.3,4.4C138.8,151.8,138.9,151.9,138.9,152z"/>
<path class="st11" d="M139.1,135.6c0.3,0,0.5,0.1,0.6,0.3c0.9,1.5,1.7,3.1,2.4,4.7c0.2,0.3,0,0.5-0.3,0.7c-0.8,0.6-1.7,1-2.6,1.5
	c-0.7,0.4-1.3,0.7-2,1.1c-0.4,0.2-0.6,0.1-0.8-0.2c-0.9-1.6-1.8-3.2-2.5-4.8c-0.1-0.2,0-0.4,0.2-0.5c1.5-1,3.1-1.9,4.7-2.7
	C138.9,135.6,139,135.6,139.1,135.6z"/>
<path class="st11" d="M143,142.7c0.2,0,0.3,0.1,0.4,0.3c0.4,0.7,0.9,1.5,1.3,2.2c0.4,0.8,0.9,1.6,1.2,2.4c0.2,0.4,0.1,0.7-0.2,0.9
	c-0.6,0.4-1.2,0.8-1.8,1.1c-0.9,0.5-1.9,1-2.8,1.5c-0.3,0.2-0.5,0.1-0.7-0.2c-0.9-1.5-1.8-3.1-2.6-4.7c-0.2-0.3-0.1-0.5,0.2-0.7
	c1.5-1,3.1-1.9,4.7-2.7C142.8,142.8,142.9,142.8,143,142.7z"/>
<path class="st11" d="M131.7,156c0,0.3-0.1,0.4-0.2,0.5c-0.9,0.7-2,1.2-3,1.8c-0.5,0.3-1,0.6-1.5,0.9c-0.3,0.2-0.5,0.2-0.7-0.2
	c-0.8-1.2-1.4-2.5-2.1-3.8c-0.2-0.3-0.3-0.7-0.5-1c-0.1-0.3-0.1-0.5,0.2-0.7c1.5-1.1,3.1-1.9,4.7-2.7c0.3-0.1,0.5-0.1,0.6,0.2
	c0.9,1.6,1.8,3.2,2.5,4.8C131.7,155.9,131.7,156,131.7,156z"/>
<path class="st11" d="M130,148c-0.3,0-0.5-0.2-0.6-0.4c-0.9-1.5-1.7-3.1-2.4-4.7c-0.1-0.2,0-0.4,0.2-0.6c0.5-0.5,1.2-0.8,1.8-1.1
	c1-0.6,2-1.1,3-1.6c0.3-0.2,0.5-0.1,0.7,0.2c0.9,1.5,1.7,3.1,2.4,4.7c0.1,0.3,0.1,0.5-0.2,0.7c-0.7,0.6-1.5,1-2.2,1.4
	c-0.8,0.5-1.6,0.9-2.4,1.3C130.2,148,130,148,130,148z"/>
<path class="st11" d="M120.3,165.4c0.1-0.3,0.1-0.5,0.3-0.6c1.5-1,3-1.9,4.6-2.7c0.4-0.2,0.5,0,0.7,0.3c0.3,0.5,0.6,0.9,0.8,1.4
	c0.6,1.1,1.2,2.2,1.7,3.3c0.1,0.3,0.1,0.5-0.2,0.6c-1.5,1-3.1,1.9-4.7,2.7c-0.3,0.1-0.5,0-0.7-0.2c-0.4-0.5-0.7-1.1-1-1.7
	c-0.5-0.9-1-1.8-1.4-2.7C120.4,165.7,120.3,165.5,120.3,165.4z"/>
<path class="st11" d="M149.3,115.7c0.7,0.4,1.3,0.8,1.9,1.1c0.2,0.2,0.3,0.3,0,0.5c-0.4,0.4-0.8,0.3-1.1-0.2
	c-0.3-0.4-0.5-0.9-0.7-1.3C149.3,115.9,149.3,115.8,149.3,115.7z"/>
</svg>
