<?xml version="1.0" encoding="UTF-8"?>
<svg xmlns="http://www.w3.org/2000/svg" width="256" height="256" version="1.1" xmlns:xlink="http://www.w3.org/1999/xlink" viewBox="0 0 256 256">
  <defs>
    <style>
      .cls-1 {
        fill: url(#_未命名的渐变_7);
      }

      .cls-1, .cls-2, .cls-3, .cls-4, .cls-5, .cls-6, .cls-7 {
        stroke-width: 0px;
      }

      .cls-1, .cls-2, .cls-3, .cls-6 {
        fill-rule: evenodd;
      }

      .cls-8 {
        isolation: isolate;
      }

      .cls-2 {
        fill: #000;
        fill-opacity: .3;
      }

      .cls-3 {
        fill: url(#_未命名的渐变);
      }

      .cls-4 {
        fill: #050505;
      }

      .cls-5 {
        fill: #eca243;
      }

      .cls-9 {
        mask: url(#mask);
      }

      .cls-6 {
        fill: url(#_未命名的渐变_2);
      }

      .cls-7 {
        fill: #65b170;
      }

      .cls-10 {
        mix-blend-mode: multiply;
      }
    </style>
    <linearGradient id="_未命名的渐变_7" data-name="未命名的渐变 7" x1="17" y1="103" x2="241" y2="103" gradientUnits="userSpaceOnUse">
      <stop offset="0" stop-color="#eca243"/>
      <stop offset="1" stop-color="#65b170"/>
    </linearGradient>
    <linearGradient id="_未命名的渐变" data-name="未命名的渐变" x1="32.6" y1="239.5" x2="213.3" y2="58.4" gradientTransform="translate(0 258) scale(1 -1)" gradientUnits="userSpaceOnUse">
      <stop offset="0" stop-color="#05815d"/>
      <stop offset="1" stop-color="#0c575f"/>
    </linearGradient>
    <mask id="mask" x="17" y="34" width="224" height="138" maskUnits="userSpaceOnUse">
      <g id="mask0_2002_34005" data-name="mask0 2002 34005">
        <path class="cls-3" d="M104.4,42.4c-4.4-5.3-10.9-8.4-17.8-8.4H29c-6.6,0-12,5.4-12,12v114c0,6.6,5.4,12,12,12h200c6.6,0,12-5.4,12-12v-89.9c0-6.6-5.4-12-12-12h-111.6l-13-15.8Z"/>
      </g>
    </mask>
    <linearGradient id="_未命名的渐变_2" data-name="未命名的渐变 2" x1="32.6" y1="212.6" x2="319.1" y2="-56.9" gradientTransform="translate(0 258) scale(1 -1)" gradientUnits="userSpaceOnUse">
      <stop offset="0" stop-color="#fafafa"/>
      <stop offset="1" stop-color="#dfd8d8"/>
    </linearGradient>
  </defs>
  <g class="cls-8">
    <g id="_图层_1" data-name="图层 1">
      <path class="cls-1" d="M104.4,42.4c-4.4-5.3-10.9-8.4-17.8-8.4H29c-6.6,0-12,5.4-12,12v114c0,6.6,5.4,12,12,12h200c6.6,0,12-5.4,12-12v-89.9c0-6.6-5.4-12-12-12h-111.6l-13-15.8Z"/>
      <g class="cls-9">
        <g class="cls-10">
          <path class="cls-2" d="M92.8,74c5,0,9.8-1.6,13.8-4.6l9.9-7.4h112.5c6.6,0,12,5.4,12,12v86c0,6.6-5.4,12-12,12H29c-6.6,0-12-5.4-12-12v-74c0-6.6,5.4-12,12-12h63.8Z"/>
        </g>
      </g>
      <path class="cls-6" d="M92.8,74c5,0,9.8-1.6,13.8-4.6l9.9-7.4h112.5c6.6,0,12,5.4,12,12v124c0,6.6-5.4,12-12,12H29c-6.6,0-12-5.4-12-12v-112c0-6.6,5.4-12,12-12h63.8Z"/>
      <g>
        <path class="cls-5" d="M138.5,112.9c0-3.3,0-6.5,0-9.8,0-1.1.3-1.4,1.4-1.4,9.9,0,19.7-.3,29.6.1,9.5.4,17.9,3.9,24.3,11.3,3.9,4.6,6.2,10,7.4,15.9.7,3.7.9,7.4.7,11.1-.4,9-3.1,17.2-9.5,23.8-4.6,4.7-10.3,7.8-16.8,9.2-3.8.8-7.7,1.1-11.6,1.1-7.9,0-15.8,0-23.7,0-1.3,0-1.7-.3-1.7-1.7,0-3,0-6,0-9,.4-.3.9-.2,1.3-.2,2.6,0,5.2,0,7.8,0,.3,0,.8.2,1-.2.3-.5-.2-.7-.4-1.1-1-1.5-2-3.1-3-4.6-2.2-3.4-4.6-6.7-6.7-10.3,0-1.2,0-2.4,0-3.7,0-5.5,0-11,0-16.5,0-.4.2-.8.7-1h0c0-.4.1-.7.6-.8h0c0-.4.2-.8.5-1.2,2-3.1,4.1-6.2,6.1-9.4.3-.4.9-.8.6-1.4-.3-.5-.9-.2-1.4-.2-2.3-.1-4.7.2-7-.2ZM152.7,137.9c0,7.5,0,15.1,0,22.6,0,1.1.3,1.6,1.4,1.5,1.4,0,2.8,0,4.2,0,4.4-.1,8.7.4,13-.6,4-.9,7.4-2.8,10-5.9,4.1-4.7,5.2-10.4,5.5-16.4.1-3.2-.2-6.4-.9-9.4-1.1-5-3.6-9.3-7.8-12.3-3.6-2.6-7.7-3.4-12-3.5-3.9-.1-7.8,0-11.7,0-1.4,0-1.7.4-1.7,1.7,0,7.5,0,15,0,22.5Z"/>
        <path class="cls-7" d="M104.7,163.6q.1,2.8-2.6,2.9c-1.9,0-3.9,0-5.8,0-1.2,0-1.6-.3-1.6-1.5,0-7.3,0-14.6,0-22q0-1.8-1.8-1.8c-6,0-12.1,0-18.1,0q-1.8,0-1.8,1.8c0,7.3,0,14.6,0,22,0,1.2-.4,1.6-1.5,1.5-2.4,0-4.7-.1-7.1,0-1.3,0-1.5-.4-1.5-1.5,0-12.5,0-24.9,0-37.4,0-6.5,0-13,0-19.5,0-1.1.3-1.4,1.4-1.4,2.5,0,4.9,0,7.4,0,1.1,0,1.4.3,1.4,1.4,0,7,0,14,0,21,0,1.3.3,1.7,1.7,1.7,6.2,0,12.4,0,18.5,0,1.2,0,1.6-.3,1.5-1.5,0-7,0-14.1,0-21.1,0-1.1.3-1.5,1.5-1.4,2.5,0,4.9,0,7.4,0,1.1,0,1.3.3,1.3,1.3,0,1.6,0,3.2-.1,4.8-.5.1-1.1.2-.6.9.4.5.7,1,1.1,1.5-.7.3-.5.9-.5,1.4,0,13.5,0,27.1,0,40.6,0,.6,0,1.2.3,1.7-.5.6-1,1.3-1.4,1.9-1.4,2.2-1.4,2.3,1.1,2.6Z"/>
        <path class="cls-4" d="M105.2,115.3c-.4-.5-.8-1-1.1-1.5-.6-.8,0-.8.6-.9,2.3.4,4.7.3,7,.1,2.7-.2,4.3.5,5.7,3.1,2.2,4.2,4.9,8.2,7.4,12.3.8,1.3,1,1.3,1.8,0,2.7-4.5,5.5-9,8.2-13.5.7-1.2,1.5-2,3-1.7.2,0,.4,0,.7-.1,2.3.4,4.7,0,7,.2.5,0,1.1-.2,1.4.2.4.6-.3,1-.6,1.4-2,3.1-4,6.3-6.1,9.4-.2.4-.5.7-.5,1.2,0,0,0,0,0,0-.4.1-.6.4-.6.9,0,0,0,0,0,0-.5.2-.6.5-.7,1,0,0-.2,0-.2,0-2.1,3.1-4.1,6.2-6.2,9.4-.4.6-.2,1.1.2,1.6,2.1,3,4,6.2,6.2,9.1,2,3.6,4.4,6.9,6.7,10.3,1,1.5,2,3.1,3,4.6.2.3.6.6.4,1.1-.2.4-.7.2-1,.2-2.6,0-5.2,0-7.8,0-.4,0-.9-.1-1.3.2-.9,0-1.5-.5-2-1.3-3.4-5.4-6.8-10.8-10.2-16.2-.7-1.1-1-1.1-1.8.3-3.3,5.3-6.7,10.6-10,16-.5.9-1.1,1.2-2.1,1.1-2.1,0-4.2,0-6.3,0-.5,0-1-.1-1.4.2-2.5-.4-2.6-.4-1.1-2.6.4-.7.9-1.3,1.4-1.9,4.6-6.9,9.2-13.9,13.8-20.8.6-.9.5-1.5,0-2.3-4.5-6.9-9-13.8-13.6-20.7Z"/>
        <path class="cls-5" d="M159.3,138.7c0-4.9,0-9.7,0-14.6,0-1.2.4-1.9,1.5-2.2,6-1.8,15.2.4,18.9,6.6,2,3.4,2.3,7.1,1.7,10.9-.6,4.1-1.9,7.8-5.1,10.7-2.6,2.3-5.7,3.6-9.1,4.3-2.2.4-4.3.3-6.5.4-1.1,0-1.4-.4-1.4-1.4,0-4.9,0-9.7,0-14.6Z"/>
      </g>
    </g>
  </g>
</svg>