<?xml version="1.0" encoding="utf-8"?>
<!-- Generator: Adobe Illustrator 28.1.0, SVG Export Plug-In . SVG Version: 6.00 Build 0)  -->
<svg version="1.1" id="图层_1" xmlns="http://www.w3.org/2000/svg" xmlns:xlink="http://www.w3.org/1999/xlink" x="0px" y="0px"
	 width="256px" height="256px" viewBox="0 0 256 256" style="enable-background:new 0 0 256 256;" xml:space="preserve">
<style type="text/css">
	.st0{fill-rule:evenodd;clip-rule:evenodd;fill:#FFFFFF;filter:url(#Adobe_OpacityMaskFilter);}
	.st1{mask:url(#path-1-inside-1_756_18396_00000086649341508401521100000000899845518313269178_);fill:url(#SVGID_1_);}
	
		.st2{fill-rule:evenodd;clip-rule:evenodd;fill:url(#SVGID_00000024703270055489671900000004244005182061142939_);filter:url(#Adobe_OpacityMaskFilter_00000123419944670006646560000000921301593065641621_);}
	.st3{mask:url(#mask0_756_18396_00000054232414866938098170000010778778277895721120_);}
	.st4{fill-rule:evenodd;clip-rule:evenodd;fill-opacity:0.3;}
	.st5{fill-rule:evenodd;clip-rule:evenodd;fill:url(#SVGID_00000096748243584508164950000003586618222958623415_);}
	.st6{fill:#FFFFFF;filter:url(#Adobe_OpacityMaskFilter_00000101794401447375423000000007203524339258508187_);}
	
		.st7{display:none;mask:url(#path-6-inside-2_756_18396_00000139277670256879698310000017653003867169930166_);fill:url(#SVGID_00000062905144476475060610000001889924564283043476_);}
	.st8{fill:none;stroke:url(#SVGID_00000145752846278213258010000010361691019073398409_);stroke-width:5;stroke-miterlimit:10;}
	.st9{fill:#037BFE;}
	.st10{fill:#F2F3F5;}
</style>
<defs>
	<filter id="Adobe_OpacityMaskFilter" filterUnits="userSpaceOnUse" x="-33" y="-16" width="324" height="238">
		<feColorMatrix  type="matrix" values="1 0 0 0 0  0 1 0 0 0  0 0 1 0 0  0 0 0 1 0"/>
	</filter>
</defs>
<mask maskUnits="userSpaceOnUse" x="-33" y="-16" width="324" height="238" id="path-1-inside-1_756_18396_00000086649341508401521100000000899845518313269178_">
	<path class="st0" d="M104.4,42.4c-4.4-5.3-10.9-8.4-17.8-8.4H29c-6.6,0-12,5.4-12,12v12.1v10.1V160c0,6.6,5.4,12,12,12h200
		c6.6,0,12-5.4,12-12V70.1c0-6.6-5.4-12-12-12H117.4L104.4,42.4z"/>
</mask>
<linearGradient id="SVGID_1_" gradientUnits="userSpaceOnUse" x1="246.2586" y1="222.6992" x2="16.0672" y2="89.7981" gradientTransform="matrix(1 0 0 -1 0 258)">
	<stop  offset="0" style="stop-color:#FF5E4E"/>
	<stop  offset="0.1505" style="stop-color:#FF5C6D"/>
	<stop  offset="0.1694" style="stop-color:#FF5E73"/>
	<stop  offset="0.2476" style="stop-color:#FF6385"/>
	<stop  offset="0.3026" style="stop-color:#FF658C"/>
	<stop  offset="0.3685" style="stop-color:#E4729F"/>
	<stop  offset="0.4329" style="stop-color:#D17CAD"/>
	<stop  offset="0.4772" style="stop-color:#CA7FB2"/>
	<stop  offset="0.5528" style="stop-color:#9D6CFF"/>
	<stop  offset="0.5934" style="stop-color:#9870FF;stop-opacity:0.9882"/>
	<stop  offset="0.6432" style="stop-color:#897AFE;stop-opacity:0.9725"/>
	<stop  offset="0.6979" style="stop-color:#708CFE;stop-opacity:0.9529"/>
	<stop  offset="0.7556" style="stop-color:#4DA4FD;stop-opacity:0.9333"/>
	<stop  offset="0.8022" style="stop-color:#2CBCFC;stop-opacity:0.9176"/>
	<stop  offset="1" style="stop-color:#00C7FF"/>
</linearGradient>
<path class="st1" d="M104.4,42.4L65.8,74.2h0L104.4,42.4z M117.4,58.1L78.8,89.9l15,18.2h23.6V58.1z M86.7,84
	c-8.1,0-15.7-3.6-20.8-9.8L143,10.6C129.2-6.2,108.5-16,86.7-16V84z M29,84h57.7V-16H29V84z M67,46c0,21-17,38-38,38V-16
	c-34.2,0-62,27.8-62,62H67z M67,58.1V46H-33v12.1H67z M67,68.2V58.1H-33v10.1H67z M67,160V68.2H-33V160H67z M29,122
	c21,0,38,17,38,38H-33c0,34.2,27.8,62,62,62V122z M229,122H29v100h200V122z M191,160c0-21,17-38,38-38v100c34.2,0,62-27.8,62-62H191
	z M191,70.1V160h100V70.1H191z M229,108.1c-21,0-38-17-38-38h100c0-34.2-27.8-62-62-62V108.1z M117.4,108.1H229V8.1H117.4V108.1z
	 M65.8,74.2l13,15.8L156,26.4l-13-15.8L65.8,74.2z"/>
<defs>
	
		<filter id="Adobe_OpacityMaskFilter_00000028296136505139375240000014368860193313180063_" filterUnits="userSpaceOnUse" x="17" y="62" width="224" height="110">
		<feColorMatrix  type="matrix" values="1 0 0 0 0  0 1 0 0 0  0 0 1 0 0  0 0 0 1 0"/>
	</filter>
</defs>
<mask maskUnits="userSpaceOnUse" x="17" y="62" width="224" height="110" id="mask0_756_18396_00000054232414866938098170000010778778277895721120_">
	
		<linearGradient id="SVGID_00000047040014899115575950000017523902586834891401_" gradientUnits="userSpaceOnUse" x1="32.5816" y1="239.5494" x2="213.3495" y2="58.4074" gradientTransform="matrix(1 0 0 -1 0 258)">
		<stop  offset="0" style="stop-color:#05815D"/>
		<stop  offset="1" style="stop-color:#0C575F"/>
	</linearGradient>
	
		<path style="fill-rule:evenodd;clip-rule:evenodd;fill:url(#SVGID_00000047040014899115575950000017523902586834891401_);filter:url(#Adobe_OpacityMaskFilter_00000028296136505139375240000014368860193313180063_);" d="
		M104.4,42.4c-4.4-5.3-10.9-8.4-17.8-8.4H29c-6.6,0-12,5.4-12,12v12.1v10.1V160c0,6.6,5.4,12,12,12h200c6.6,0,12-5.4,12-12V70.1
		c0-6.6-5.4-12-12-12H117.4L104.4,42.4z"/>
</mask>
<g class="st3">
	<g>
		<path class="st4" d="M92.8,74c5,0,9.8-1.6,13.8-4.6l9.9-7.4H229c6.6,0,12,5.4,12,12v34v52c0,6.6-5.4,12-12,12H29
			c-6.6,0-12-5.4-12-12v-52V86c0-6.6,5.4-12,12-12h58H92.8z"/>
	</g>
</g>
<g>
	
		<linearGradient id="SVGID_00000142178141105431208440000004438439490734169767_" gradientUnits="userSpaceOnUse" x1="17" y1="196" x2="241" y2="48" gradientTransform="matrix(1 0 0 -1 0 258)">
		<stop  offset="0" style="stop-color:#F5F6F8"/>
		<stop  offset="1" style="stop-color:#EEEEF0"/>
	</linearGradient>
	<path style="fill-rule:evenodd;clip-rule:evenodd;fill:url(#SVGID_00000142178141105431208440000004438439490734169767_);" d="
		M92.8,74c5,0,9.8-1.6,13.8-4.6l9.9-7.4H229c6.6,0,12,5.4,12,12v34v90c0,6.6-5.4,12-12,12H29c-6.6,0-12-5.4-12-12v-90V86
		c0-6.6,5.4-12,12-12h58H92.8z"/>
</g>
<defs>
	
		<filter id="Adobe_OpacityMaskFilter_00000163777422708507146730000017413932329398598016_" filterUnits="userSpaceOnUse" x="64.3" y="71.3" width="129.4" height="129.4">
		<feColorMatrix  type="matrix" values="1 0 0 0 0  0 1 0 0 0  0 0 1 0 0  0 0 0 1 0"/>
	</filter>
</defs>
<mask maskUnits="userSpaceOnUse" x="64.3" y="71.3" width="129.4" height="129.4" id="path-6-inside-2_756_18396_00000139277670256879698310000017653003867169930166_">
	<path style="fill:#FFFFFF;filter:url(#Adobe_OpacityMaskFilter_00000163777422708507146730000017413932329398598016_);" d="M129,85
		c28.2,0,51,22.8,51,51s-22.8,51-51,51s-51-22.8-51-51S100.8,85,129,85z M129,89.2c-25.8,0-46.8,20.9-46.8,46.8s20.9,46.8,46.8,46.8
		s46.8-20.9,46.8-46.8S154.8,89.2,129,89.2z M150.2,110.1v41.2c0,7.7-6.2,9.4-10,9.4c-3.8,0-7-3-7-6.7c0-4.5,3.4-6.4,7.7-7.3
		l3.9-0.9c1.6-0.3,2.1-1.5,2.1-2.7l0-19.7c0-1.4-0.6-1.9-2.2-1.5l-22.6,4.6c-1.3,0.2-1.7,0.6-1.7,2.1v28.7c0,7.8-6.3,9.6-10.1,9.6
		c-3.9,0-6.9-3-6.9-6.7c0-4.6,3.5-6.5,7.6-7.5l4.2-0.8c1.3-0.3,1.8-1.3,1.8-2.5v-33.6c0-1.7,1.2-2.5,2.6-2.7l26.6-5.4
		C148.8,107,150.2,107.3,150.2,110.1z"/>
</mask>
<linearGradient id="SVGID_00000139972304980571175870000004182997337298778262_" gradientUnits="userSpaceOnUse" x1="92.6168" y1="54.4475" x2="156.7231" y2="173.4739" gradientTransform="matrix(1 0 0 -1 0 258)">
	<stop  offset="0" style="stop-color:#FF5E4E"/>
	<stop  offset="0.1505" style="stop-color:#FF5C6D"/>
	<stop  offset="0.1694" style="stop-color:#FF5E73"/>
	<stop  offset="0.2476" style="stop-color:#FF6385"/>
	<stop  offset="0.3026" style="stop-color:#FF658C"/>
	<stop  offset="0.3685" style="stop-color:#E4729F"/>
	<stop  offset="0.4329" style="stop-color:#D17CAD"/>
	<stop  offset="0.4772" style="stop-color:#CA7FB2"/>
	<stop  offset="0.5528" style="stop-color:#9D6CFF"/>
	<stop  offset="0.5934" style="stop-color:#9870FF;stop-opacity:0.9882"/>
	<stop  offset="0.6432" style="stop-color:#897AFE;stop-opacity:0.9725"/>
	<stop  offset="0.6979" style="stop-color:#708CFE;stop-opacity:0.9529"/>
	<stop  offset="0.7556" style="stop-color:#4DA4FD;stop-opacity:0.9333"/>
	<stop  offset="0.8022" style="stop-color:#2CBCFC;stop-opacity:0.9176"/>
	<stop  offset="1" style="stop-color:#00C7FF"/>
</linearGradient>
<path style="display:none;mask:url(#path-6-inside-2_756_18396_00000139277670256879698310000017653003867169930166_);fill:url(#SVGID_00000139972304980571175870000004182997337298778262_);" d="
	M141,146.7l2.7,13.4l0.1,0l0.1,0L141,146.7z M144.9,145.8l-2.7-13.4l-0.1,0l-0.1,0L144.9,145.8z M146.9,143.1l-13.7,0v0v0H146.9z
	 M147,123.3l13.7,0v0v0H147z M144.8,121.8l2.7,13.4l0.2,0l0.2,0L144.8,121.8z M122.2,126.4l2.2,13.5l0.3,0l0.3-0.1L122.2,126.4z
	 M111.1,152.6l-2.7-13.4l-0.2,0l-0.2,0.1L111.1,152.6z M115.3,151.7l2.7,13.4l0.3-0.1l0.3-0.1L115.3,151.7z M119.7,112.9l2.7,13.4
	l0,0l0,0L119.7,112.9z M146.3,107.5l2.7,13.4l0,0L146.3,107.5z M129,98.7c20.6,0,37.3,16.7,37.3,37.3h27.4c0-35.7-29-64.7-64.7-64.7
	V98.7z M166.3,136c0,20.6-16.7,37.3-37.3,37.3v27.4c35.7,0,64.7-29,64.7-64.7H166.3z M129,173.3c-20.6,0-37.3-16.7-37.3-37.3H64.3
	c0,35.7,29,64.7,64.7,64.7V173.3z M91.7,136c0-20.6,16.7-37.3,37.3-37.3V71.3c-35.7,0-64.7,29-64.7,64.7H91.7z M129,75.6
	c-33.4,0-60.4,27.1-60.4,60.4h27.4c0-18.3,14.8-33.1,33.1-33.1V75.6z M68.6,136c0,33.4,27.1,60.4,60.4,60.4v-27.4
	c-18.3,0-33.1-14.8-33.1-33.1H68.6z M129,196.4c33.4,0,60.4-27.1,60.4-60.4h-27.4c0,18.3-14.8,33.1-33.1,33.1V196.4z M189.4,136
	c0-33.4-27.1-60.4-60.4-60.4v27.4c18.3,0,33.1,14.8,33.1,33.1H189.4z M136.6,110.1v41.2h27.4v-41.2H136.6z M136.6,151.3
	c0,0.1,0-0.6,0.5-1.5c0.5-1,1.2-1.7,1.9-2.2c0.6-0.4,1.1-0.5,1.2-0.6c0.1,0,0.1,0,0.1,0c0,0,0,0,0,0c0,0,0,0,0,0v27.4
	c3.5,0,9.1-0.7,14.2-4.2c6-4.1,9.5-10.8,9.5-18.9H136.6z M140.2,147c3.1,0,6.7,2.5,6.7,7h-27.4c0,12,9.9,20.4,20.7,20.4V147z
	 M146.9,154c0,0.6-0.1,1.7-0.7,2.9c-0.6,1.2-1.3,2.1-2,2.7c-0.6,0.5-1.1,0.7-1.2,0.7c0,0,0.1-0.1,0.7-0.2l-5.5-26.8
	c-3,0.6-7.6,1.9-11.5,5.1c-4.6,3.8-7.2,9.3-7.2,15.6H146.9z M144,160l3.9-0.9l-6-26.7l-3.9,0.9L144,160z M147.6,159.2
	c4-0.8,7.8-3,10.3-6.9c2.3-3.5,2.7-7,2.7-9.3h-27.4c0-1,0.2-3.4,1.8-5.9c1.9-2.9,4.7-4.4,7.1-4.8L147.6,159.2z M160.6,143.1l0-19.7
	l-27.4-0.1l0,19.7L160.6,143.1z M160.7,123.3c0-2.1-0.4-8.4-6.3-12.6c-5.4-3.8-11-2.7-12.6-2.3l6.1,26.7c-0.1,0-4.7,1.2-9.3-2.1
	c-5.2-3.7-5.2-9-5.2-9.8H160.7z M142.1,108.4l-22.6,4.6l5.4,26.8l22.6-4.6L142.1,108.4z M120,112.9c-0.9,0.2-6,0.9-9.7,5.4
	c-3.5,4.3-3.5,9.2-3.5,10.3h27.4c0,0.1,0,0.9-0.2,2c-0.3,1.2-0.9,3.2-2.5,5.1c-1.6,2-3.5,3.1-4.9,3.6c-1.2,0.5-2.1,0.6-2.2,0.6
	L120,112.9z M106.8,128.6v28.7h27.4v-28.7H106.8z M106.8,157.2c0,0.1,0-0.6,0.5-1.5c0.5-0.9,1.2-1.6,1.8-2.1c0.6-0.4,1-0.5,1.1-0.5
	c0.1,0,0.1,0,0.2,0v27.4c3.6,0,9.2-0.8,14.3-4.3c5.9-4.1,9.5-10.7,9.5-19H106.8z M110.4,153.1c3.4,0,6.8,2.9,6.8,7H89.8
	c0,11.5,9.3,20.4,20.6,20.4V153.1z M117.2,160.1c0,0.6-0.1,1.6-0.7,2.7c-0.5,1.2-1.3,2-1.9,2.6c-0.6,0.5-1,0.7-1.1,0.7
	c0,0,0.2-0.1,0.7-0.2l-6.4-26.6c-2.8,0.7-7.2,2-11,5.3c-4.4,3.8-7,9.2-7,15.5H117.2z M113.8,166l4.2-0.8l-5.4-26.8l-4.2,0.8
	L113.8,166z M118.5,165c3.8-0.9,7.2-3.1,9.6-6.6c2.2-3.2,2.7-6.6,2.7-9.2h-27.4c0-1.4,0.3-3.7,1.9-6c1.7-2.6,4.3-4.2,6.8-4.8
	L118.5,165z M130.8,149.2v-33.6h-27.4v33.6H130.8z M130.8,115.6c0,2.8-1.2,6-3.7,8.3c-2.1,1.8-4.1,2.3-4.6,2.4l-5.3-26.9
	c-2,0.4-5.3,1.4-8.3,4.1c-3.5,3.2-5.3,7.5-5.3,12.1H130.8z M122.4,126.3l26.6-5.4l-5.4-26.8L117,99.5L122.4,126.3z M149.1,120.9
	c0.2,0-0.3,0.1-1.1,0.1c-0.8,0-2.9-0.1-5.2-1.4c-2.6-1.4-4.4-3.6-5.4-5.8c-0.8-1.9-0.8-3.4-0.8-3.7h27.4c0-3.2-0.9-10.7-8.3-14.6
	c-5.4-2.9-11-1.6-12.1-1.4L149.1,120.9z"/>
<linearGradient id="SVGID_00000100353840577368463580000002824289541227561375_" gradientUnits="userSpaceOnUse" x1="76.4632" y1="135.589" x2="181.4632" y2="135.589">
	<stop  offset="0" style="stop-color:#FF5E4E"/>
	<stop  offset="0.1505" style="stop-color:#FF5C6D"/>
	<stop  offset="0.1694" style="stop-color:#FF5E73"/>
	<stop  offset="0.2476" style="stop-color:#FF6385"/>
	<stop  offset="0.3026" style="stop-color:#FF658C"/>
	<stop  offset="0.3685" style="stop-color:#E4729F"/>
	<stop  offset="0.4329" style="stop-color:#D17CAD"/>
	<stop  offset="0.4772" style="stop-color:#CA7FB2"/>
	<stop  offset="0.5528" style="stop-color:#9D6CFF"/>
	<stop  offset="0.5934" style="stop-color:#9870FF;stop-opacity:0.9882"/>
	<stop  offset="0.6432" style="stop-color:#897AFE;stop-opacity:0.9725"/>
	<stop  offset="0.6979" style="stop-color:#708CFE;stop-opacity:0.9529"/>
	<stop  offset="0.7556" style="stop-color:#4DA4FD;stop-opacity:0.9333"/>
	<stop  offset="0.8022" style="stop-color:#2CBCFC;stop-opacity:0.9176"/>
	<stop  offset="1" style="stop-color:#00C7FF"/>
</linearGradient>
<circle style="fill:none;stroke:url(#SVGID_00000100353840577368463580000002824289541227561375_);stroke-width:5;stroke-miterlimit:10;" cx="129" cy="135.6" r="50"/>
<path class="st9" d="M132,108.6c2.2,1.7,3.1,4.1,3.1,6.8c0,10,0,20,0,30c0,0.6,0.1,1.3,0.3,1.9c0.4,1,1.2,1.6,2.3,1.7
	c1.4,0.1,2.7,0,4.3,0c0-0.6,0-1.1,0-1.6c0-10.3,0-20.6,0-30.9c0-2.7-0.5-5.2-2.4-7.3c-0.1-0.1-0.1-0.2-0.1-0.5
	c0.4,0,0.8-0.1,1.2-0.1c3.2,0,6.5,0.2,9.7-0.1c3.3-0.2,4.1,1.5,4.9,4c0.4,1,0.4,2.2,0.4,3.3c0,10.5,0,20.9,0,31.4c0,0.5,0,0.9,0,1.6
	c0.8,0.1,1.6,0.1,2.5,0.2c-0.6,2.4-1,4.8-1.7,7c-0.7,2.2-0.9,4.4-0.8,6.6c0.1,0.9-0.3,1.3-1.1,1.5c-3.1,0.7-6.1,1.5-9.2,2.3
	c-1.1,0.3-2.2,0.5-3.4,0.8c0-1.6,0-3.1,0-4.7c-0.6,0-1.1,0-1.6,0c-2.4,0-4.8-0.1-7.1,0c-2.6,0.1-4.9-0.5-7.2-1.7c0,0,0,0,0,0
	c-0.3-0.2-0.5-0.4-0.8-0.6c-0.1-0.1-0.2-0.1-0.2-0.2c-0.7-0.8-1.4-1.6-2.1-2.4c-0.1-0.2-0.2-0.5-0.4-0.7c-1-2.3-1.2-4.6-1.2-7.1
	c0-11.3,0-22.6,0-34c0-0.5-0.1-1-0.1-1.5c0-0.3,0-0.5-0.1-0.8c-0.3-0.8-0.6-1.7-0.8-2.5c-0.1-0.1-0.1-0.2-0.2-0.3
	c-0.2-0.3-0.4-0.6-0.6-0.9c-0.1-0.1-0.2-0.3-0.3-0.4c-0.1-0.4-0.2-0.7-0.3-1.1C123.4,108.6,127.7,108.6,132,108.6z"/>
<path class="st9" d="M122.9,165.5c-4.7-0.2-9.5,0-14.2-0.7c-4.4-0.7-7.7-5.1-7.8-9.5c-0.1-8.5,0-17,0-25.5c0-0.1,0.1-0.2,0.1-0.4
	c4.5,0,8.9,0,13.6,0c0,0.5,0.1,0.9,0.1,1.4c0,7.4,0.1,14.9,0,22.3c-0.1,4.9,2.2,10.3,8.3,12.1C122.9,165.2,122.9,165.3,122.9,165.5z
	"/>
<path class="st9" d="M114.6,122.3c-4.6,0-9.1,0-13.6,0c-0.6-4.5,1.3-9.6-3-13.6c0.7-0.1,1-0.1,1.4-0.1c3.8,0,7.5,0,11.3,0
	c0.6,0,1.4,0.4,1.9,0.8c1.4,1.4,2.1,3.2,2.1,5.1C114.6,117.2,114.6,119.7,114.6,122.3z"/>
<path class="st10" d="M121.3,114.6c0,0.5,0.1,1,0.1,1.5c0,11.3,0,22.6,0,34c0,2.4,0.2,4.8,1.2,7.1c-1.3-1.2-1.5-2.8-1.5-4.3
	c-0.1-12.5,0-24.9,0-37.4C121.1,115.2,121.2,114.9,121.3,114.6z"/>
<path class="st10" d="M123,157.9c0.7,0.8,1.4,1.6,2.1,2.4C123.7,160.1,123.1,159.3,123,157.9z"/>
<path class="st10" d="M120.4,111.3c0.3,0.8,0.6,1.7,0.8,2.5C121,113,120.7,112.1,120.4,111.3z"/>
<path class="st10" d="M119,108.6c0.1,0.4,0.2,0.7,0.3,1.1c-0.3-0.3-0.6-0.7-0.9-1C118.6,108.6,118.8,108.6,119,108.6z"/>
<path class="st10" d="M119.6,110c0.2,0.3,0.4,0.6,0.6,0.9C120,110.7,119.8,110.4,119.6,110z"/>
<path class="st10" d="M125.3,160.5c0.3,0.2,0.5,0.4,0.8,0.6C125.8,160.9,125.6,160.7,125.3,160.5z"/>
</svg>
