<?xml version="1.0" encoding="utf-8"?>
<!-- Generator: Adobe Illustrator 28.1.0, SVG Export Plug-In . SVG Version: 6.00 Build 0)  -->
<svg version="1.1" id="图层_1" xmlns="http://www.w3.org/2000/svg" xmlns:xlink="http://www.w3.org/1999/xlink" x="0px" y="0px"
	 width="256px" height="256px" viewBox="0 0 256 256" style="enable-background:new 0 0 256 256;" xml:space="preserve">
<style type="text/css">
	.st0{fill-rule:evenodd;clip-rule:evenodd;fill:#B03C3E;}
	.st1{fill-rule:evenodd;clip-rule:evenodd;fill:url(#SVGID_1_);filter:url(#Adobe_OpacityMaskFilter);}
	.st2{mask:url(#mask0_759_23081_00000165206830577958449080000003081306455581716919_);}
	.st3{fill-rule:evenodd;clip-rule:evenodd;fill-opacity:0.3;}
	.st4{fill-rule:evenodd;clip-rule:evenodd;fill:url(#SVGID_00000132783124267420414030000012346212465164983704_);}
	.st5{display:none;fill:#FFFFFF;}
	.st6{fill:#FFFFFF;}
</style>
<path class="st0" d="M104.4,42.4c-4.4-5.3-10.9-8.4-17.8-8.4H29c-6.6,0-12,5.4-12,12v12.1v10.1V160c0,6.6,5.4,12,12,12h200
	c6.6,0,12-5.4,12-12V70.1c0-6.6-5.4-12-12-12H117.4L104.4,42.4z"/>
<defs>
	<filter id="Adobe_OpacityMaskFilter" filterUnits="userSpaceOnUse" x="17" y="62" width="224" height="110">
		<feColorMatrix  type="matrix" values="1 0 0 0 0  0 1 0 0 0  0 0 1 0 0  0 0 0 1 0"/>
	</filter>
</defs>
<mask maskUnits="userSpaceOnUse" x="17" y="62" width="224" height="110" id="mask0_759_23081_00000165206830577958449080000003081306455581716919_">
	
		<linearGradient id="SVGID_1_" gradientUnits="userSpaceOnUse" x1="32.5816" y1="239.5494" x2="213.3495" y2="58.4074" gradientTransform="matrix(1 0 0 -1 0 258)">
		<stop  offset="0" style="stop-color:#05815D"/>
		<stop  offset="1" style="stop-color:#0C575F"/>
	</linearGradient>
	<path class="st1" d="M104.4,42.4c-4.4-5.3-10.9-8.4-17.8-8.4H29c-6.6,0-12,5.4-12,12v12.1v10.1V160c0,6.6,5.4,12,12,12h200
		c6.6,0,12-5.4,12-12V70.1c0-6.6-5.4-12-12-12H117.4L104.4,42.4z"/>
</mask>
<g class="st2">
	<g>
		<path class="st3" d="M92.8,74c5,0,9.8-1.6,13.8-4.6l9.9-7.4H229c6.6,0,12,5.4,12,12v34v52c0,6.6-5.4,12-12,12H29
			c-6.6,0-12-5.4-12-12v-52V86c0-6.6,5.4-12,12-12h58H92.8z"/>
	</g>
</g>
<g>
	
		<linearGradient id="SVGID_00000042696919780334733800000013019704348126600341_" gradientUnits="userSpaceOnUse" x1="86.9697" y1="224.815" x2="171.2739" y2="18.589" gradientTransform="matrix(1 0 0 -1 0 258)">
		<stop  offset="0" style="stop-color:#FF5D4D"/>
		<stop  offset="0.1984" style="stop-color:#FF5B6D"/>
		<stop  offset="0.3443" style="stop-color:#FF648C"/>
		<stop  offset="0.4902" style="stop-color:#CA7EB1"/>
		<stop  offset="0.6464" style="stop-color:#9C6BFF"/>
		<stop  offset="0.8078" style="stop-color:#2BBCFB"/>
		<stop  offset="1" style="stop-color:#00C6FF"/>
	</linearGradient>
	<path style="fill-rule:evenodd;clip-rule:evenodd;fill:url(#SVGID_00000042696919780334733800000013019704348126600341_);" d="
		M92.8,74c5,0,9.8-1.6,13.8-4.6l9.9-7.4H229c6.6,0,12,5.4,12,12v34v90c0,6.6-5.4,12-12,12H29c-6.6,0-12-5.4-12-12v-90V86
		c0-6.6,5.4-12,12-12h58H92.8z"/>
</g>
<path class="st5" d="M156.1,171c4.3-1.2,7.3-4.2,8.5-8.5l0.4-1.3l0-33.5c0-25.1,0-33.6-0.1-34.1c-0.1-0.5-0.4-0.9-0.7-1.2
	c-0.4-0.3-1-0.4-1.6-0.4c-0.4,0-1.9,0.2-3.3,0.5c-6.1,1.1-41.8,8.2-42.4,8.4c-1,0.4-1.9,1.2-2.3,2.1l-0.4,0.7c0,0-0.2,52.5-0.4,53.1
	c-0.4,0.9-1.3,1.8-2.2,2c-0.4,0.1-2,0.5-3.6,0.8c-7.2,1.4-9.8,2.4-12.1,4.6c-1.3,1.3-2.2,2.9-2.6,4.7c-0.4,1.7-0.3,4.3,0.3,5.8
	c0.6,1.6,1.5,3,2.8,4.1c1.1,0.9,2.4,1.5,3.9,1.9c3.3,0.8,9.4-0.1,12.6-1.9c1.3-0.8,3-2.3,3.9-3.6c0.3-0.5,0.9-1.5,1.2-2.3
	c1-2.6,1.1-49.7,1.2-50.2c0.2-1,0.9-1.7,1.9-2c0.9-0.2,35.3-7,36.3-7.1c0.8-0.1,1.7,0.2,2.1,0.7c0.3,0.1,0.5,0.3,0.6,0.6
	c0.3,0.4,0.3,1.2,0.3,16.1c0,17.1,0.1,16.7-0.9,17.8c-0.7,0.8-1.5,1.1-5,1.8c-5.3,1.1-7.1,1.6-9.2,2.6c-2.5,1.2-4,2.6-5.1,4.8
	c-0.8,1.6-1.1,2.8-1.1,4.4c0,2.8,1,5,3.2,7.2c0.2,0.2,0.4,0.4,0.6,0.6c1.1,0.9,2.3,1.4,3.7,1.7C148.7,172.2,153.1,171.9,156.1,171
	L156.1,171z"/>
<path class="st6" d="M135.5,101c2.7,2.1,3.8,5,3.8,8.4c0,12.3,0,24.6,0,36.9c0,0.7,0.1,1.6,0.4,2.3c0.5,1.2,1.5,2,2.8,2.1
	c1.7,0.1,3.3,0,5.3,0c0-0.7,0-1.4,0-2c0-12.7,0-25.3,0-38c0-3.3-0.6-6.4-3-9c-0.1-0.1-0.1-0.2-0.1-0.6c0.5,0,1-0.1,1.5-0.1
	c3.9,0,8,0.2,11.9-0.1c4.1-0.2,5,1.8,6,4.9c0.5,1.2,0.5,2.7,0.5,4.1c0,12.9,0,25.7,0,38.6c0,0.6,0,1.1,0,2c1,0.1,2,0.1,3.1,0.2
	c-0.7,3-1.2,5.9-2.1,8.6c-0.9,2.7-1.1,5.4-1,8.1c0.1,1.1-0.4,1.6-1.4,1.8c-3.8,0.9-7.5,1.8-11.3,2.8c-1.4,0.4-2.7,0.6-4.2,1
	c0-2,0-3.8,0-5.8c-0.7,0-1.4,0-2,0c-3,0-5.9-0.1-8.7,0c-3.2,0.1-6-0.6-8.9-2.1l0,0c-0.4-0.2-0.6-0.5-1-0.7c-0.1-0.1-0.2-0.1-0.2-0.2
	c-0.9-1-1.7-2-2.6-3c-0.1-0.2-0.2-0.6-0.5-0.9c-1.2-2.8-1.5-5.7-1.5-8.7c0-13.9,0-27.8,0-41.8c0-0.6-0.1-1.2-0.1-1.8
	c0-0.4,0-0.6-0.1-1c-0.4-1-0.7-2.1-1-3.1c-0.1-0.1-0.1-0.2-0.2-0.4c-0.2-0.4-0.5-0.7-0.7-1.1c-0.1-0.1-0.2-0.4-0.4-0.5
	c-0.1-0.5-0.2-0.9-0.4-1.4C124.9,101,130.2,101,135.5,101z"/>
<path class="st6" d="M124.3,171c-5.8-0.2-11.7,0-17.5-0.9c-5.4-0.9-9.5-6.3-9.6-11.7c-0.1-10.5,0-20.9,0-31.4c0-0.1,0.1-0.2,0.1-0.5
	c5.5,0,10.9,0,16.7,0c0,0.6,0.1,1.1,0.1,1.7c0,9.1,0.1,18.3,0,27.4c-0.1,6,2.7,12.7,10.2,14.9C124.3,170.6,124.3,170.7,124.3,171z"
	/>
<path class="st6" d="M114.1,117.8c-5.7,0-11.2,0-16.7,0c-0.7-5.5,1.6-11.8-3.7-16.7c0.9-0.1,1.2-0.1,1.7-0.1c4.7,0,9.2,0,13.9,0
	c0.7,0,1.7,0.5,2.3,1c1.7,1.7,2.6,3.9,2.6,6.3C114.1,111.5,114.1,114.6,114.1,117.8z"/>
</svg>
