<?xml version="1.0" encoding="utf-8"?>
<!-- Generator: Adobe Illustrator 28.1.0, SVG Export Plug-In . SVG Version: 6.00 Build 0)  -->
<svg version="1.1" id="图层_1" xmlns="http://www.w3.org/2000/svg" xmlns:xlink="http://www.w3.org/1999/xlink" x="0px" y="0px"
	 width="256px" height="256px" viewBox="0 0 256 256" style="enable-background:new 0 0 256 256;" xml:space="preserve">
<style type="text/css">
	.st0{fill-rule:evenodd;clip-rule:evenodd;fill:#10455B;}
	.st1{fill-rule:evenodd;clip-rule:evenodd;fill:url(#SVGID_1_);filter:url(#Adobe_OpacityMaskFilter);}
	.st2{mask:url(#mask0_725_16523_00000057854319091514796970000001208235347498256295_);}
	.st3{fill-rule:evenodd;clip-rule:evenodd;fill-opacity:0.3;}
	.st4{fill-rule:evenodd;clip-rule:evenodd;fill:url(#SVGID_00000050624887931966559500000006362723739409917324_);}
	.st5{display:none;fill:#FFFFFF;}
	.st6{fill:#FFFFFF;}
</style>
<path class="st0" d="M104.4,42.4c-4.4-5.3-10.9-8.4-17.8-8.4H29c-6.6,0-12,5.4-12,12v12.1v10.1V160c0,6.6,5.4,12,12,12h200
	c6.6,0,12-5.4,12-12V70.1c0-6.6-5.4-12-12-12H117.4L104.4,42.4z"/>
<defs>
	<filter id="Adobe_OpacityMaskFilter" filterUnits="userSpaceOnUse" x="17" y="62" width="224" height="110">
		<feColorMatrix  type="matrix" values="1 0 0 0 0  0 1 0 0 0  0 0 1 0 0  0 0 0 1 0"/>
	</filter>
</defs>
<mask maskUnits="userSpaceOnUse" x="17" y="62" width="224" height="110" id="mask0_725_16523_00000057854319091514796970000001208235347498256295_">
	
		<linearGradient id="SVGID_1_" gradientUnits="userSpaceOnUse" x1="32.5816" y1="239.5494" x2="213.3495" y2="58.4074" gradientTransform="matrix(1 0 0 -1 0 258)">
		<stop  offset="0" style="stop-color:#05815D"/>
		<stop  offset="1" style="stop-color:#0C575F"/>
	</linearGradient>
	<path class="st1" d="M104.4,42.4c-4.4-5.3-10.9-8.4-17.8-8.4H29c-6.6,0-12,5.4-12,12v12.1v10.1V160c0,6.6,5.4,12,12,12h200
		c6.6,0,12-5.4,12-12V70.1c0-6.6-5.4-12-12-12H117.4L104.4,42.4z"/>
</mask>
<g class="st2">
	<g>
		<path class="st3" d="M92.8,74c5,0,9.8-1.6,13.8-4.6l9.9-7.4H229c6.6,0,12,5.4,12,12v34v52c0,6.6-5.4,12-12,12H29
			c-6.6,0-12-5.4-12-12v-52V86c0-6.6,5.4-12,12-12h58H92.8z"/>
	</g>
</g>
<g>
	
		<linearGradient id="SVGID_00000165913904854212911160000001637508602318201229_" gradientUnits="userSpaceOnUse" x1="17" y1="196" x2="241" y2="48" gradientTransform="matrix(1 0 0 -1 0 258)">
		<stop  offset="0" style="stop-color:#00AFFF"/>
		<stop  offset="1" style="stop-color:#123846"/>
	</linearGradient>
	<path style="fill-rule:evenodd;clip-rule:evenodd;fill:url(#SVGID_00000165913904854212911160000001637508602318201229_);" d="
		M92.8,74c5,0,9.8-1.6,13.8-4.6l9.9-7.4H229c6.6,0,12,5.4,12,12v34v90c0,6.6-5.4,12-12,12H29c-6.6,0-12-5.4-12-12v-90V86
		c0-6.6,5.4-12,12-12h58H92.8z"/>
</g>
<path class="st5" d="M76,160.8l8.9,15.4c1.8,3.5,5.4,5.9,9.5,5.9h59.3l-12.2-21.3H76z M181.8,160.9c0-2.1-0.6-4.1-1.7-5.8
	l-34.8-60.4c-1.8-3.4-5.3-5.7-9.4-5.7h-18.4l53.7,93l8.5-14.7C181.3,164.5,181.8,163.3,181.8,160.9L181.8,160.9z M132.7,145.6
	l-24-41.5l-24,41.5H132.7z"/>
<path class="st6" d="M81.7,138.5c0-1.8,0-3.7,0-5.5c0.3-0.1,0.4-0.4,0.4-0.7c1.4-12.2,7.1-22,16.8-29.5c4.6-3.6,10-5.8,15.1-8.5
	c10.4-5.5,21-6.1,31.9-1.5c1.4,0.6,2.7,0.8,4.2,0.9c4.1,0.2,8,1.2,11.3,3.8c3.7,2.9,5.6,8,4.3,12c-0.5,1.6-0.4,2.9,0.2,4.4
	c2.8,7,3.2,14.2,1.5,21.5c-1.5,6.3-4.4,11.8-8.8,16.6c-1.2,1.3-1.3,2.1,0.3,3.2c4.1,2.9,8.2,5.8,12.8,7.9c3.6,1.7,7.5,2.8,11.6,3.2
	c-0.5,1.1-1.3,1.3-2,1.8c-4.8,2.9-9.8,5.5-14.9,8c-8.2,4-16.7,7.2-25.8,8.1c-8.2,0.8-15.3-1.3-20.1-8.6c-0.7-1-1.5-1.5-2.8-1.8
	c-6.2-1.3-12-3.5-17.4-6.7c-8.8-5-15.1-12-17.4-22.1C82.3,142.8,82.5,140.6,81.7,138.5z M118,119.4c0.9-0.1,1.2-0.2,1.5-0.2
	c8.8-0.5,17.1-2.8,24.8-7.2c3.3-1.9,6.3-4.3,8.2-7.8c1.1-2,0.9-3.4-1.1-4.8c-8.4-5.9-17.6-7.8-27.6-5.4
	c-15.1,3.6-25.4,16.9-25.5,32.5c0,4.5,0.6,8.8,2.9,12.8c3.2,5.6,8.4,8.1,14.5,9.4c2.9,0.6,4.8,0,6.9-2.3c5.7-6.2,12.2-6.9,19.7-2.9
	c3.7,2,7.1,4.4,10.5,7c0.9,0.7,1.5,0.9,2.5,0c8.6-7.9,12.3-23.8,8-34.7c-0.6-1.5-1.2-1.5-2.3-0.6c-1.7,1.3-3.5,2.4-5.5,3.3
	c-10.1,4.5-20.7,4.7-31.4,3C122.2,121,120.2,120.8,118,119.4z"/>
</svg>
