<?xml version="1.0" encoding="utf-8"?>
<!-- Generator: Adobe Illustrator 28.1.0, SVG Export Plug-In . SVG Version: 6.00 Build 0)  -->
<svg version="1.1" id="图层_1" xmlns="http://www.w3.org/2000/svg" xmlns:xlink="http://www.w3.org/1999/xlink" x="0px" y="0px"
	 width="256px" height="256px" viewBox="0 0 256 256" style="enable-background:new 0 0 256 256;" xml:space="preserve">
<style type="text/css">
	.st0{fill-rule:evenodd;clip-rule:evenodd;fill:#032439;}
	.st1{fill-rule:evenodd;clip-rule:evenodd;fill:url(#SVGID_1_);}
	.st2{fill:#1A37B0;}
	.st3{fill:#1BD113;}
	.st4{fill:#EEF030;}
	.st5{fill:#E94031;}
	.st6{fill:#29B6F6;}
	.st7{fill:#2EC592;}
	.st8{fill:url(#SVGID_00000089550997863777963930000004128461676444222602_);}
	.st9{fill:url(#SVGID_00000169533537341669869820000000535045830292974782_);}
	.st10{fill:url(#SVGID_00000104671325163388034090000007302054422880678065_);}
</style>
<path class="st0" d="M104.4,42.4c-4.4-5.3-10.9-8.4-17.8-8.4H29c-6.6,0-12,5.4-12,12v12.1v10.1V160c0,6.6,5.4,12,12,12h200
	c6.6,0,12-5.4,12-12V70.1c0-6.6-5.4-12-12-12H117.4L104.4,42.4z"/>
<g>
	
		<linearGradient id="SVGID_1_" gradientUnits="userSpaceOnUse" x1="17" y1="196" x2="241" y2="48" gradientTransform="matrix(1 0 0 -1 0 258)">
		<stop  offset="0" style="stop-color:#043E64"/>
		<stop  offset="1" style="stop-color:#032237"/>
	</linearGradient>
	<path class="st1" d="M92.8,74c5,0,9.8-1.6,13.8-4.6l9.9-7.4H229c6.6,0,12,5.4,12,12v34v90c0,6.6-5.4,12-12,12H29
		c-6.6,0-12-5.4-12-12v-90V86c0-6.6,5.4-12,12-12h58H92.8z"/>
</g>
<g>
	<path class="st2" d="M117.4,108.2c-22.4,0-40.6,15.4-40.6,34.3c0,18.9,18.2,34.3,40.6,34.3s40.6-15.4,40.6-34.3
		S139.8,108.2,117.4,108.2z M117.4,151.4c-11.2,0-20.3-7.4-20.3-16.5c0-9.1,9.1-16.5,20.3-16.5s20.3,7.4,20.3,16.5
		C137.7,144,128.6,151.4,117.4,151.4z"/>
	<path class="st3" d="M117.4,108.2c-17.5,0-32.3,9.3-38.1,22.4c0,0.2,0,0.3,0,0.5c0,18.2,10.2,35.6,43.2,38.1
		c13.9,1.1,26.3-10.2,34.2-18c0.9-2.8,1.4-5.7,1.4-8.7C158,123.6,139.8,108.2,117.4,108.2z M117.4,151.4c-11.2,0-20.3-7.4-20.3-16.5
		c0-9.1,9.1-16.5,20.3-16.5s20.3,7.4,20.3,16.5C137.7,144,128.6,151.4,117.4,151.4z"/>
	<path class="st4" d="M145.3,159l-3.5-43.9c-6.8-4.3-15.2-6.9-24.4-6.9c-13.5,0-25.4,5.6-32.8,14.2c-1.6,7.7-0.7,18.4,10,29
		C114.9,171.7,145.3,159,145.3,159z M117.4,118.4c11.2,0,20.3,7.4,20.3,16.5c0,9.1-9.1,16.5-20.3,16.5s-20.3-7.4-20.3-16.5
		C97.1,125.8,106.2,118.4,117.4,118.4z"/>
	<path class="st5" d="M129,148.4c-3.3,1.9-7.3,3-11.6,3c-11.2,0-20.3-7.4-20.3-16.5c0-9.1,9.1-16.5,20.3-16.5c0.1,0,0.2,0,0.3,0
		l-2.9-7.6c0,0-30.5,5.1-22.9,25.4c7.6,20.3,38.1,15.2,38.1,15.2L129,148.4z"/>
	<circle class="st6" cx="142.8" cy="126" r="35.6"/>
	<path class="st7" d="M173.3,136.2c0,0,0,5.1-12.7,2.5c-12.7-2.5-15.2,5.1-15.2,5.1l-5,17.7c0.8,0.1,1.7,0.1,2.5,0.1
		c18.9,0,34.4-14.8,35.5-33.5C175.4,129.8,173.3,136.2,173.3,136.2z"/>
	<g>
		<path class="st7" d="M148.4,101.5c-1.2,0.4-2.3,0.9-3.1,1.7c-5.1,5.1-10.2,0-10.2,0s3.5-4.2,8.3-7.8c2.4-1.8,0.1-5.7-2.6-4.3
			c-1,0.5-2.1,1.2-3.1,2c-4.3,3.2-5.8,1.9-6.2-0.7c-14.1,4.7-24.2,18-24.2,33.7c0,1.1,0.1,2.1,0.2,3.2c2.5,1.7,6.9,3.2,15,1.9
			c15.2-2.5,10.2,17.8,10.2,17.8s-0.5,1.2-1.3,2.9c1.6-1,3.1-2.1,4.8-3.6c2.4-0.6,4.1-3.2,4.1-9.5c0-4.4-1.3-7.7-2.9-10.2
			c-2.1-3.4,1.8-7.4,5.2-5.2c0.1,0,0.2,0.1,0.2,0.1c7.6,5.1,2.5-5.1,2.5-5.1s-3.9-7.8,5-12.2C153.1,104.8,151.3,100.6,148.4,101.5z"
			/>
	</g>
	
		<linearGradient id="SVGID_00000083784033620391276550000006524248530538471053_" gradientUnits="userSpaceOnUse" x1="117.394" y1="160.2929" x2="178.3497" y2="160.2929">
		<stop  offset="0" style="stop-color:#61E05B"/>
		<stop  offset="1" style="stop-color:#11C703"/>
	</linearGradient>
	<polygon style="fill:url(#SVGID_00000083784033620391276550000006524248530538471053_);" points="117.4,133.6 127.6,187 
		178.3,148.9 	"/>
	
		<linearGradient id="SVGID_00000079443536776685912850000012189950991574653346_" gradientUnits="userSpaceOnUse" x1="117.394" y1="160.2929" x2="140.2524" y2="160.2929">
		<stop  offset="0" style="stop-color:#549B47"/>
		<stop  offset="1" style="stop-color:#065F00"/>
	</linearGradient>
	<polygon style="fill:url(#SVGID_00000079443536776685912850000012189950991574653346_);" points="127.6,187 140.3,161.6 
		117.4,133.6 	"/>
	
		<linearGradient id="SVGID_00000130609453719160101810000015936201956209959603_" gradientUnits="userSpaceOnUse" x1="127.5533" y1="167.9124" x2="178.3497" y2="167.9124">
		<stop  offset="0" style="stop-color:#022801"/>
		<stop  offset="1" style="stop-color:#032903"/>
	</linearGradient>
	<polygon style="fill:url(#SVGID_00000130609453719160101810000015936201956209959603_);" points="127.6,187 140.3,161.6 
		178.3,148.9 	"/>
</g>
</svg>
