<?xml version="1.0" encoding="utf-8"?>
<!-- Generator: Adobe Illustrator 28.1.0, SVG Export Plug-In . SVG Version: 6.00 Build 0)  -->
<svg version="1.1" id="图层_1" xmlns="http://www.w3.org/2000/svg" xmlns:xlink="http://www.w3.org/1999/xlink" x="0px" y="0px"
	 width="256px" height="256px" viewBox="0 0 256 256" style="enable-background:new 0 0 256 256;" xml:space="preserve">
<style type="text/css">
	.st0{fill-rule:evenodd;clip-rule:evenodd;fill:#032439;}
	.st1{fill-rule:evenodd;clip-rule:evenodd;fill:url(#SVGID_1_);}
	.st2{fill:url(#SVGID_00000072246309424746330580000016591673430869638847_);}
	.st3{fill:#FF3D00;}
	.st4{fill:url(#SVGID_00000129904725565203619320000003281219782394784128_);}
	.st5{fill:url(#SVGID_00000122683015482008341530000017054212515180904847_);}
	.st6{fill:url(#SVGID_00000168816683105347134910000015650635676457950630_);}
	.st7{fill:url(#SVGID_00000074401831419026848730000015884858500422362303_);}
	.st8{fill:url(#SVGID_00000147924500826828135650000013346555514341934470_);}
	.st9{fill:url(#SVGID_00000010286806643948005010000000151649979671958430_);}
	.st10{fill:#166A0D;}
	.st11{fill:url(#SVGID_00000066485362229043237150000012861132680754627712_);}
	.st12{fill:#2E7D32;}
</style>
<path class="st0" d="M104.4,42.4c-4.4-5.3-10.9-8.4-17.8-8.4H29c-6.6,0-12,5.4-12,12v12.1v10.1V160c0,6.6,5.4,12,12,12h200
	c6.6,0,12-5.4,12-12V70.1c0-6.6-5.4-12-12-12H117.4L104.4,42.4z"/>
<g>
	
		<linearGradient id="SVGID_1_" gradientUnits="userSpaceOnUse" x1="17" y1="196" x2="241" y2="48" gradientTransform="matrix(1 0 0 -1 0 258)">
		<stop  offset="0" style="stop-color:#043E64"/>
		<stop  offset="1" style="stop-color:#032237"/>
	</linearGradient>
	<path class="st1" d="M92.8,74c5,0,9.8-1.6,13.8-4.6l9.9-7.4H229c6.6,0,12,5.4,12,12v34v90c0,6.6-5.4,12-12,12H29
		c-6.6,0-12-5.4-12-12v-90V86c0-6.6,5.4-12,12-12h58H92.8z"/>
</g>
<g>
	
		<linearGradient id="SVGID_00000088115341562939985650000015617946242133515422_" gradientUnits="userSpaceOnUse" x1="135.7259" y1="537.7888" x2="147.643" y2="607.0098" gradientTransform="matrix(1 0 0 1 0 -450.7244)">
		<stop  offset="0" style="stop-color:#00BFFE"/>
		<stop  offset="1" style="stop-color:#1D55C4"/>
	</linearGradient>
	<circle style="fill:url(#SVGID_00000088115341562939985650000015617946242133515422_);" cx="142.6" cy="127" r="35.8"/>
	<g>
		<path class="st3" d="M120.1,152.1c-31.8-7.9-26.5-26.5-12.7-30.8c0.6-3.9,1.8-7.5,3.6-10.9c-6.3,0.1-32.6,2.1-32.9,31.8
			c-0.3,33.8,38.7,36.4,48.3,31.1L120.1,152.1z"/>
	</g>
	
		<linearGradient id="SVGID_00000152262420904994140410000017440138709608420276_" gradientUnits="userSpaceOnUse" x1="77.6746" y1="607.7603" x2="128.0328" y2="607.7603" gradientTransform="matrix(1 0 0 1 0 -450.7244)">
		<stop  offset="0" style="stop-color:#0D61A6"/>
		<stop  offset="1" style="stop-color:#165289"/>
	</linearGradient>
	<path style="fill:url(#SVGID_00000152262420904994140410000017440138709608420276_);" d="M77.7,141.5c0,0-2.6,31.1,34.4,34.1
		c0,0,9.3,0,15.9-2.3l-5.6-12.2l-40.1-22.3C80.3,137.7,77.7,139.2,77.7,141.5L77.7,141.5z"/>
	
		<linearGradient id="SVGID_00000069366844621776213120000000297079788253212825_" gradientUnits="userSpaceOnUse" x1="77.7149" y1="589.9001" x2="130.6811" y2="589.9001" gradientTransform="matrix(1 0 0 1 0 -450.7244)">
		<stop  offset="0" style="stop-color:#48E24F"/>
		<stop  offset="1" style="stop-color:#088042"/>
	</linearGradient>
	<path style="fill:url(#SVGID_00000069366844621776213120000000297079788253212825_);" d="M130.7,165.4c0,0-47.7,7.9-53-23.8
		c0-0.1,0.1-26.5,21.2-29.5L87,126l1.3,18.2c0,0,20.5,11.9,34.1,12.6L130.7,165.4z"/>
	
		<linearGradient id="SVGID_00000085240860674558597580000013206032591026542753_" gradientUnits="userSpaceOnUse" x1="85.2561" y1="543.7411" x2="114.7637" y2="620.6091" gradientTransform="matrix(1 0 0 1 0 -450.7244)">
		<stop  offset="0" style="stop-color:#FFD447"/>
		<stop  offset="0.482" style="stop-color:#FFD345"/>
		<stop  offset="1" style="stop-color:#F2B900"/>
	</linearGradient>
	<path style="fill:url(#SVGID_00000085240860674558597580000013206032591026542753_);" d="M110.9,110.4c0,0-20.6,3.3-21.6,21.2
		s34.4,20.9,34.4,20.9l-1.7,6c0,0-41,2.3-38.7-28.5C83.3,130,85.8,108.7,110.9,110.4z"/>
	
		<linearGradient id="SVGID_00000024715748247107125370000006879669009631009981_" gradientUnits="userSpaceOnUse" x1="90.5614" y1="565.006" x2="123.229" y2="606.9634" gradientTransform="matrix(1 0 0 1 0 -450.7244)">
		<stop  offset="0" style="stop-color:#F22537"/>
		<stop  offset="0.293" style="stop-color:#F02536"/>
		<stop  offset="0.465" style="stop-color:#E72434"/>
		<stop  offset="0.605" style="stop-color:#D92231"/>
		<stop  offset="0.729" style="stop-color:#C5202C"/>
		<stop  offset="0.841" style="stop-color:#AB1E25"/>
		<stop  offset="0.944" style="stop-color:#8C1A1D"/>
		<stop  offset="1" style="stop-color:#7A1818"/>
	</linearGradient>
	<path style="fill:url(#SVGID_00000024715748247107125370000006879669009631009981_);" d="M107.3,121.3c0.3-1.8,0.7-3.5,1.2-5.2
		c-5.1,1.3-12.3,4.2-15,12.2c-3.4,10.1,0,18.5,26.5,23.8C88.3,144.2,93.6,125.7,107.3,121.3z"/>
	
		<linearGradient id="SVGID_00000092425601126461754240000000857537713420661140_" gradientUnits="userSpaceOnUse" x1="135.8647" y1="556.0486" x2="105.7411" y2="586.5107" gradientTransform="matrix(1 0 0 1 0 -450.7244)">
		<stop  offset="0" style="stop-color:#84E1FE"/>
		<stop  offset="1" style="stop-color:#167CF7"/>
	</linearGradient>
	<path style="fill:url(#SVGID_00000092425601126461754240000000857537713420661140_);" d="M147.7,91.6c-1.7-0.2-3.3-0.4-5.1-0.4
		c-19.7,0-35.8,16-35.8,35.8c0,4.3,0.8,8.4,2.2,12.2c0.3-0.2,6.5-14.5,16.9-7.4c2.6,1.7,6,0.7,7.6-2c1.9-3.3,4.8-7.4,9.1-10.5
		c2.9-2.1,2.9-6.3,0.1-8.6c-1.3-1-2.2-2.2-2.4-3.8c-0.5-2.8,1.5-3,3.7-2.5c2.4,0.6,4.3-2,2.9-4c-1.7-2.4-4.4-4.5-8.2-3.9
		C138.6,96.5,138.5,95.3,147.7,91.6z"/>
	
		<linearGradient id="SVGID_00000113347639262674068840000009732762111129830305_" gradientUnits="userSpaceOnUse" x1="184.7761" y1="573.9986" x2="148.2641" y2="606.623" gradientTransform="matrix(1 0 0 1 0 -450.7244)">
		<stop  offset="0" style="stop-color:#84E1FE"/>
		<stop  offset="1" style="stop-color:#167CF7"/>
	</linearGradient>
	<path style="fill:url(#SVGID_00000113347639262674068840000009732762111129830305_);" d="M169.7,142.3c-15.4-2.9-28.9,6.3-28.9,6.3
		l16.4,11.1c7.9-3.5,14.3-9.9,17.9-17.8C172.3,142.8,169.7,142.3,169.7,142.3z"/>
	<polygon class="st10" points="126.4,183.6 117.8,139.2 167.8,152.8 	"/>
	
		<linearGradient id="SVGID_00000070831177531407308560000006758934056292113554_" gradientUnits="userSpaceOnUse" x1="155.5664" y1="585.4634" x2="120.9137" y2="622.8208" gradientTransform="matrix(1 0 0 1 0 -450.7244)">
		<stop  offset="0" style="stop-color:#61E25D"/>
		<stop  offset="0.1281" style="stop-color:#5DE25B"/>
		<stop  offset="0.244" style="stop-color:#52E255"/>
		<stop  offset="0.3128" style="stop-color:#48E24F"/>
		<stop  offset="0.6226" style="stop-color:#2DB849"/>
		<stop  offset="1" style="stop-color:#088042"/>
	</linearGradient>
	<polygon style="fill:url(#SVGID_00000070831177531407308560000006758934056292113554_);" points="117.8,139.2 138.6,160.1 
		173.1,152.1 	"/>
	<polygon class="st12" points="126.4,183.6 138.6,160.1 173.1,152.1 	"/>
</g>
</svg>
