<?xml version="1.0" encoding="utf-8"?>
<!-- Generator: Adobe Illustrator 28.1.0, SVG Export Plug-In . SVG Version: 6.00 Build 0)  -->
<svg version="1.1" id="图层_1" xmlns="http://www.w3.org/2000/svg" xmlns:xlink="http://www.w3.org/1999/xlink" x="0px" y="0px"
	 width="256px" height="256px" viewBox="0 0 256 256" style="enable-background:new 0 0 256 256;" xml:space="preserve">
<style type="text/css">
	.st0{fill-rule:evenodd;clip-rule:evenodd;fill:#004482;}
	.st1{fill-rule:evenodd;clip-rule:evenodd;fill:url(#SVGID_1_);filter:url(#Adobe_OpacityMaskFilter);}
	.st2{mask:url(#mask0_570_12731_00000013909938284143694120000003813060696427031171_);}
	.st3{fill-rule:evenodd;clip-rule:evenodd;fill-opacity:0.3;}
	.st4{fill-rule:evenodd;clip-rule:evenodd;fill:url(#SVGID_00000013908625905285304460000005489617488348160402_);}
	.st5{fill:#004482;stroke:#004482;stroke-miterlimit:133.3333;}
	.st6{fill-rule:evenodd;clip-rule:evenodd;fill:#659AD2;}
</style>
<path class="st0" d="M104.4,42.4c-4.4-5.3-10.9-8.4-17.8-8.4H29c-6.6,0-12,5.4-12,12v12.1v10.1V160c0,6.6,5.4,12,12,12h200
	c6.6,0,12-5.4,12-12V70.1c0-6.6-5.4-12-12-12H117.4L104.4,42.4z"/>
<defs>
	<filter id="Adobe_OpacityMaskFilter" filterUnits="userSpaceOnUse" x="17" y="62" width="224" height="110">
		<feColorMatrix  type="matrix" values="1 0 0 0 0  0 1 0 0 0  0 0 1 0 0  0 0 0 1 0"/>
	</filter>
</defs>
<mask maskUnits="userSpaceOnUse" x="17" y="62" width="224" height="110" id="mask0_570_12731_00000013909938284143694120000003813060696427031171_">
	
		<linearGradient id="SVGID_1_" gradientUnits="userSpaceOnUse" x1="32.5816" y1="239.5494" x2="213.3495" y2="58.4074" gradientTransform="matrix(1 0 0 -1 0 258)">
		<stop  offset="0" style="stop-color:#05815D"/>
		<stop  offset="1" style="stop-color:#0C575F"/>
	</linearGradient>
	<path class="st1" d="M104.4,42.4c-4.4-5.3-10.9-8.4-17.8-8.4H29c-6.6,0-12,5.4-12,12v12.1v10.1V160c0,6.6,5.4,12,12,12h200
		c6.6,0,12-5.4,12-12V70.1c0-6.6-5.4-12-12-12H117.4L104.4,42.4z"/>
</mask>
<g class="st2">
	<g>
		<path class="st3" d="M92.8,74c5,0,9.8-1.6,13.8-4.6l9.9-7.4H229c6.6,0,12,5.4,12,12v34v52c0,6.6-5.4,12-12,12H29
			c-6.6,0-12-5.4-12-12v-52V86c0-6.6,5.4-12,12-12h58H92.8z"/>
	</g>
</g>
<g>
	
		<linearGradient id="SVGID_00000170259666525735750780000017121997647262006176_" gradientUnits="userSpaceOnUse" x1="17" y1="196" x2="241" y2="48" gradientTransform="matrix(1 0 0 -1 0 258)">
		<stop  offset="0" style="stop-color:#FFFEFD"/>
		<stop  offset="1" style="stop-color:#77818B"/>
	</linearGradient>
	<path style="fill-rule:evenodd;clip-rule:evenodd;fill:url(#SVGID_00000170259666525735750780000017121997647262006176_);" d="
		M92.8,74c5,0,9.8-1.6,13.8-4.6l9.9-7.4H229c6.6,0,12,5.4,12,12v34v90c0,6.6-5.4,12-12,12H29c-6.6,0-12-5.4-12-12v-90V86
		c0-6.6,5.4-12,12-12h58H92.8z"/>
</g>
<g>
	<path class="st5" d="M138.8,164.7c0-6.8,0-10.2,1.6-12.7c0.7-1.1,1.6-2,2.6-2.7c2.4-1.6,5.7-1.6,12.3-1.6l0,0l0,0
		c6.6,0,9.9,0,12.3,1.6c1,0.7,1.9,1.6,2.6,2.7c1.6,2.5,1.6,5.9,1.6,12.7l0,0l0,0c0,6.8,0,10.2-1.6,12.7c-0.7,1.1-1.6,2-2.6,2.7
		c-2.4,1.6-5.7,1.6-12.3,1.6l0,0l0,0c-6.6,0-9.9,0-12.3-1.6c-1-0.7-1.9-1.6-2.6-2.7C138.8,174.9,138.8,171.5,138.8,164.7
		L138.8,164.7L138.8,164.7z"/>
	<path class="st5" d="M87,164.7c0-6.8,0-10.2,1.6-12.7c0.7-1.1,1.6-2,2.6-2.7c2.4-1.6,5.7-1.6,12.3-1.6l0,0l0,0
		c6.6,0,9.9,0,12.3,1.6c1,0.7,1.9,1.6,2.6,2.7c1.6,2.5,1.6,5.9,1.6,12.7l0,0l0,0c0,6.8,0,10.2-1.6,12.7c-0.7,1.1-1.6,2-2.6,2.7
		c-2.4,1.6-5.7,1.6-12.3,1.6l0,0l0,0c-6.6,0-9.9,0-12.3-1.6c-1-0.7-1.9-1.6-2.6-2.7C87,174.9,87,171.5,87,164.7L87,164.7L87,164.7z"
		/>
	<path class="st5" d="M87,111.2c0-6.8,0-10.2,1.6-12.7c0.7-1.1,1.6-2,2.6-2.7c2.4-1.6,5.7-1.6,12.3-1.6l0,0l0,0
		c6.6,0,9.9,0,12.3,1.6c1,0.7,1.9,1.6,2.6,2.7c1.6,2.5,1.6,5.9,1.6,12.7l0,0l0,0c0,6.8,0,10.2-1.6,12.7c-0.7,1.1-1.6,2-2.6,2.7
		c-2.4,1.6-5.7,1.6-12.3,1.6l0,0l0,0c-6.6,0-9.9,0-12.3-1.6c-1-0.7-1.9-1.6-2.6-2.7C87,121.4,87,118,87,111.2L87,111.2L87,111.2z"/>
	<path class="st6" d="M149.8,126.3c0.4,0.8,0.8,1.4,1.2,2c-4-0.9-7.4-3.3-9.8-6.5c1.6-0.9,3.6-1.9,6-2.6
		C147.8,122.1,148.8,124.5,149.8,126.3z M152.8,124.7c-0.8-1.6-1.7-3.7-2.3-6.1c1.3-0.2,2.7-0.3,4.2-0.3c1.5,0,2.9,0.1,4.2,0.3
		c-0.6,2.4-1.5,4.5-2.3,6.1c-0.7,1.3-1.4,2.4-1.9,3.1C154.1,127,153.4,126,152.8,124.7z M149.6,111.2c0,1.4,0.1,2.7,0.2,3.9
		c1.5-0.2,3.1-0.4,4.9-0.4c1.7,0,3.4,0.1,4.9,0.4c0.2-1.2,0.2-2.5,0.2-3.9c0-1.4-0.1-2.7-0.2-3.9c-1.5,0.2-3.1,0.4-4.9,0.4
		c-1.7,0-3.4-0.1-4.9-0.4C149.6,108.6,149.6,109.9,149.6,111.2z M146.5,106.6c-0.2,1.5-0.3,3-0.3,4.6c0,1.6,0.1,3.2,0.3,4.6
		c-2.9,0.8-5.3,1.9-7.1,3c-1.1-2.3-1.7-4.9-1.7-7.6s0.6-5.3,1.7-7.6C141.2,104.7,143.6,105.8,146.5,106.6z M150.5,103.9
		c1.3,0.2,2.7,0.3,4.2,0.3c1.5,0,2.9-0.1,4.2-0.3c-0.6-2.4-1.5-4.5-2.3-6.1c-0.7-1.3-1.4-2.4-1.9-3.1c-0.5,0.8-1.2,1.8-1.9,3.1
		C151.9,99.4,151.1,101.5,150.5,103.9z M162.9,106.6c0.2,1.5,0.3,3,0.3,4.6c0,1.6-0.1,3.2-0.3,4.6c2.9,0.8,5.3,1.9,7.1,3
		c1.1-2.3,1.7-4.9,1.7-7.6c0-2.7-0.6-5.3-1.7-7.6C168.2,104.7,165.8,105.8,162.9,106.6z M168.3,100.6c-1.6,0.9-3.6,1.9-6,2.6
		c-0.7-2.8-1.7-5.1-2.6-7c-0.4-0.8-0.8-1.4-1.2-2C162.4,95,165.9,97.4,168.3,100.6z M147.1,103.1c-2.4-0.7-4.4-1.6-6-2.6
		c2.4-3.2,5.8-5.6,9.8-6.5c-0.4,0.6-0.8,1.3-1.2,2C148.8,98,147.8,100.4,147.1,103.1z M162.2,119.3c-0.7,2.8-1.7,5.1-2.6,7
		c-0.4,0.8-0.8,1.4-1.2,2c4-0.9,7.4-3.3,9.8-6.5C166.7,120.9,164.7,120,162.2,119.3z M154.7,132.3c11.3,0,20.5-9.4,20.5-21.1
		c0-11.7-9.2-21.1-20.5-21.1c-11.3,0-20.5,9.4-20.5,21.1C134.2,122.9,143.4,132.3,154.7,132.3z"/>
</g>
</svg>
