<?xml version="1.0" encoding="utf-8"?>
<!-- Generator: Adobe Illustrator 28.3.0, SVG Export Plug-In . SVG Version: 6.00 Build 0)  -->
<svg version="1.1" id="图层_1" xmlns="http://www.w3.org/2000/svg" xmlns:xlink="http://www.w3.org/1999/xlink" x="0px" y="0px"
	 width="256px" height="256px" viewBox="0 0 256 256" style="enable-background:new 0 0 256 256;" xml:space="preserve">
<style type="text/css">
	.st0{fill-rule:evenodd;clip-rule:evenodd;fill:#DAD5D5;}
	.st1{fill-rule:evenodd;clip-rule:evenodd;fill-opacity:0.3;}
	.st2{fill-rule:evenodd;clip-rule:evenodd;fill:url(#SVGID_1_);}
	.st3{fill:#FFFFFF;}
</style>
<path class="st0" d="M104.4,42.4C100,37.1,93.5,34,86.6,34H29c-6.6,0-12,5.4-12,12v12.1v10.1V160c0,6.6,5.4,12,12,12h200
	c6.6,0,12-5.4,12-12V70.1c0-6.6-5.4-12-12-12H117.4L104.4,42.4z"/>
<g>
	<g>
		<path class="st1" d="M92.8,74c5,0,9.8-1.6,13.8-4.6l9.9-7.4H229c6.6,0,12,5.4,12,12v34v52c0,6.6-5.4,12-12,12H29
			c-6.6,0-12-5.4-12-12v-52V86c0-6.6,5.4-12,12-12h58H92.8z"/>
	</g>
</g>
<g>
	<g>
		
			<linearGradient id="SVGID_1_" gradientUnits="userSpaceOnUse" x1="17" y1="-626" x2="241" y2="-774" gradientTransform="matrix(1 0 0 -1 0 -564)">
			<stop  offset="0" style="stop-color:#383636"/>
			<stop  offset="1" style="stop-color:#1D1B1B"/>
		</linearGradient>
		<path class="st2" d="M92.8,74c5,0,9.8-1.6,13.8-4.6l9.9-7.4H229c6.6,0,12,5.4,12,12v34v90c0,6.6-5.4,12-12,12H29
			c-6.6,0-12-5.4-12-12v-90V86c0-6.6,5.4-12,12-12h58H92.8z"/>
	</g>
</g>
<path class="st3" d="M79.7,108.7c0.8-7.3,6.8-12.9,14.2-13.2h62.4c4.5,0.4,8.6,2.8,11.2,6.5c1.1,1.7,2,3.6,2.4,5.6l18.3-9.1
	c0.4-0.2,0.9,0,1.1,0.4c0,0.1,0.1,0.2,0.1,0.3c0,3.4,0,6.8,0,10.3c0,0.7-0.4,1.3-1.1,1.6c-16.9,8.4-33.7,16.7-50.6,25.1l50.5,25
	c0.7,0.2,1.1,0.8,1.2,1.5c0,3.4,0,6.8,0,10.3c0,0.5-0.4,0.8-0.8,0.9c-0.2,0-0.4-0.1-0.5-0.2c-6-3-12.1-5.9-18.1-9
	c-0.4,1.4-0.9,2.8-1.6,4.2c-2,3.8-5.6,6.5-9.7,7.5c-1.4,0.3-2.8,0.4-4.2,0.3H96.3c-1.3,0-2.6,0-3.9-0.1c-6.7-1-12-6.5-12.6-13.3
	c0-3.3,0-6.7,0-10c0.1-0.8,0.7-1.6,1.5-1.8c10.4-5.1,20.7-10.3,31.1-15.4c-10.5-5.2-20.9-10.4-31.4-15.6c-0.7-0.3-1.2-1-1.2-1.8
	C79.7,115.3,79.6,112,79.7,108.7z M91.2,108.7c-0.6,1.3-0.3,2.7-0.4,4.1c11.4,5.6,22.7,11.3,34.1,16.9c11.3-5.6,22.5-11.2,33.8-16.7
	c0-1,0-2,0-3c-0.3-1.9-1.9-3.3-3.8-3.3H94.7C93.3,106.6,91.9,107.4,91.2,108.7L91.2,108.7z M90.9,159.2c0.1,1.4-0.2,2.8,0.4,4.1
	c0.7,1.3,2,2.1,3.5,2H155c1.4,0,2.6-0.7,3.3-1.9c0.8-1.3,0.4-2.9,0.5-4.4c-11.3-5.6-22.6-11.2-33.9-16.7
	C113.6,148,102.2,153.6,90.9,159.2L90.9,159.2z"/>
</svg>
