<?xml version="1.0" encoding="utf-8"?>
<!-- Generator: Adobe Illustrator 28.1.0, SVG Export Plug-In . SVG Version: 6.00 Build 0)  -->
<svg version="1.1" id="图层_1" xmlns="http://www.w3.org/2000/svg" xmlns:xlink="http://www.w3.org/1999/xlink" x="0px" y="0px"
	 width="256px" height="256px" viewBox="0 0 256 256" style="enable-background:new 0 0 256 256;" xml:space="preserve">
<style type="text/css">
	.st0{fill-rule:evenodd;clip-rule:evenodd;fill:#818F95;}
	.st1{fill-rule:evenodd;clip-rule:evenodd;fill:url(#SVGID_1_);filter:url(#Adobe_OpacityMaskFilter);}
	.st2{mask:url(#mask0_758_21459_00000040542590684792551360000008946765270639196815_);}
	.st3{fill-rule:evenodd;clip-rule:evenodd;fill-opacity:0.3;}
	.st4{fill-rule:evenodd;clip-rule:evenodd;fill:url(#SVGID_00000090281280111073270400000008863460974872721843_);}
	.st5{fill:#818F95;}
</style>
<path class="st0" d="M104.4,42.4c-4.4-5.3-10.9-8.4-17.8-8.4H29c-6.6,0-12,5.4-12,12v12.1v10.1V160c0,6.6,5.4,12,12,12h200
	c6.6,0,12-5.4,12-12V70.1c0-6.6-5.4-12-12-12H117.4L104.4,42.4z"/>
<defs>
	<filter id="Adobe_OpacityMaskFilter" filterUnits="userSpaceOnUse" x="17" y="62" width="224" height="110">
		<feColorMatrix  type="matrix" values="1 0 0 0 0  0 1 0 0 0  0 0 1 0 0  0 0 0 1 0"/>
	</filter>
</defs>
<mask maskUnits="userSpaceOnUse" x="17" y="62" width="224" height="110" id="mask0_758_21459_00000040542590684792551360000008946765270639196815_">
	
		<linearGradient id="SVGID_1_" gradientUnits="userSpaceOnUse" x1="32.5816" y1="239.5494" x2="213.3495" y2="58.4074" gradientTransform="matrix(1 0 0 -1 0 258)">
		<stop  offset="0" style="stop-color:#05815D"/>
		<stop  offset="1" style="stop-color:#0C575F"/>
	</linearGradient>
	<path class="st1" d="M104.4,42.4c-4.4-5.3-10.9-8.4-17.8-8.4H29c-6.6,0-12,5.4-12,12v12.1v10.1V160c0,6.6,5.4,12,12,12h200
		c6.6,0,12-5.4,12-12V70.1c0-6.6-5.4-12-12-12H117.4L104.4,42.4z"/>
</mask>
<g class="st2">
	<g>
		<path class="st3" d="M92.8,74c5,0,9.8-1.6,13.8-4.6l9.9-7.4H229c6.6,0,12,5.4,12,12v34v52c0,6.6-5.4,12-12,12H29
			c-6.6,0-12-5.4-12-12v-52V86c0-6.6,5.4-12,12-12h58H92.8z"/>
	</g>
</g>
<g>
	
		<linearGradient id="SVGID_00000011001278427259723640000003605729571077364613_" gradientUnits="userSpaceOnUse" x1="17" y1="196" x2="241" y2="48" gradientTransform="matrix(1 0 0 -1 0 258)">
		<stop  offset="0" style="stop-color:#FFFFFF"/>
		<stop  offset="1" style="stop-color:#CFCFCF"/>
	</linearGradient>
	<path style="fill-rule:evenodd;clip-rule:evenodd;fill:url(#SVGID_00000011001278427259723640000003605729571077364613_);" d="
		M92.8,74c5,0,9.8-1.6,13.8-4.6l9.9-7.4H229c6.6,0,12,5.4,12,12v34v90c0,6.6-5.4,12-12,12H29c-6.6,0-12-5.4-12-12v-90V86
		c0-6.6,5.4-12,12-12h58H92.8z"/>
</g>
<g>
	<path class="st5" d="M92.3,145.7c0-6.1,0-12.2,0-18.3c0-1.8,0.6-3,2.2-3.9c10.8-6.1,21.5-12.4,32.2-18.6c1.3-0.7,2.4-0.7,3.7,0
		c10.8,6.3,21.7,12.5,32.5,18.8c1.3,0.8,1.9,1.8,1.9,3.4c0,12.4,0,24.9,0,37.3c0,1.5-0.5,2.6-1.9,3.4c-10.9,6.2-21.7,12.5-32.5,18.8
		c-1.3,0.7-2.4,0.8-3.7,0c-10.9-6.3-21.8-12.6-32.8-18.9c-1.2-0.7-1.6-1.7-1.6-3.1C92.3,158.2,92.3,151.9,92.3,145.7z M159.1,131.4
		c-0.3,0.1-0.5,0.2-0.7,0.3c-8.8,5.1-17.5,10.1-26.3,15.2c-0.8,0.5-0.8,1-0.8,1.8c0,9.7,0,19.5,0,29.2c0,0.5,0,1,0.1,1.6
		c0.3-0.1,0.5-0.2,0.6-0.3c8.8-5.1,17.5-10.1,26.3-15.2c0.8-0.4,0.9-1,0.9-1.7c0-9.9,0-19.8,0-29.7
		C159.2,132.2,159.2,131.9,159.1,131.4z M125.6,179.4c0.1-0.3,0.2-0.5,0.2-0.6c0-10.2,0-20.4,0-30.7c0-0.5-0.5-1.1-0.9-1.4
		c-3.3-2-6.6-3.9-9.9-5.8c-0.3-0.2-0.6-0.3-1.1-0.5c0,3.2,0,6.3,0,9.4c0,2.1-1.1,3.4-2.8,3.4c-1.7,0-2.8-1.3-2.8-3.4
		c0-3.8-0.1-7.6,0-11.4c0-1.1-0.4-1.7-1.3-2.2c-2.7-1.5-5.3-3-7.9-4.5c-0.3-0.2-0.7-0.3-1-0.4c0,0.2-0.1,0.3-0.1,0.4
		c0,10.3,0,20.5,0,30.8c0,0.5,0.5,1.1,0.9,1.3c4.5,2.6,9,5.2,13.5,7.8C116.7,174.3,121,176.8,125.6,179.4z M156.5,126.4
		c-4.1-2.3-7.9-4.5-11.7-6.8c-0.7-0.4-1.2-0.4-1.9,0c-5.9,3.4-11.8,6.8-17.7,10.2c-3,1.7-6,3.5-9,5.2c0.1,0.2,0.2,0.3,0.2,0.4
		c3.8,2.2,7.7,4.5,11.5,6.6c0.4,0.2,1.1,0.1,1.5-0.1c2.2-1.2,4.3-2.4,6.4-3.7C142.6,134.4,149.4,130.5,156.5,126.4z M138.2,115.9
		c-3.2-1.8-6.1-3.5-9-5.1c-0.4-0.2-1.2-0.1-1.6,0.1c-8.6,4.9-17.2,9.9-25.8,14.9c-0.3,0.2-0.6,0.4-1.1,0.7c3,1.7,5.7,3.3,8.5,5
		c0.8,0.5,1.4,0.5,2.2,0c5.3-3.1,10.5-6.1,15.8-9.2C130.8,120.1,134.4,118.1,138.2,115.9z"/>
	<path class="st5" d="M97.7,89.9c1.5,0,2.8,0,4.3,0c0,0.2,0.1,0.5,0.1,0.7c0,7,0,14,0,21c0,0.9-0.8,1.5-2.2,1.5
		c-1.4,0-2.3-0.5-2.3-1.5c0-7.1,0-14.2,0-21.3C97.6,90.2,97.6,90.1,97.7,89.9z"/>
	<path class="st5" d="M153,89c1.5,0,2.8,0,4.4,0c0,0.3,0.1,0.5,0.1,0.8c0,6.9,0,13.7,0,20.6c0,0.2,0,0.3,0,0.5
		c-0.2,0.6-0.9,1.1-2.1,1.1c-1.2,0-2-0.3-2.3-1c-0.1-0.2-0.1-0.4-0.1-0.6c0-6.9,0-13.8,0-20.6C153,89.5,153,89.3,153,89z"/>
	<path class="st5" d="M107.5,89.7c1.4,0,2.8,0,4.2,0c0,0.2,0.1,0.4,0.1,0.6c0,4.9,0,9.8,0,14.7c0,0.2,0,0.4,0,0.7
		c-0.1,0.6-1,1-2.2,1s-2.1-0.4-2.2-1c0-0.1,0-0.2,0-0.3c0-5,0-10.1,0-15.1C107.4,90.1,107.5,89.9,107.5,89.7z"/>
	<path class="st5" d="M143.5,89.7c1.5,0,2.8,0,4.3,0c0,0.2,0.1,0.5,0.1,0.7c0,5,0,9.9,0,14.9c0,0.3,0,0.7-0.3,0.8
		c-0.6,0.3-1.5,0.5-2.2,0.5c-0.6,0-1.2-0.4-1.8-0.7c-0.2-0.1-0.1-0.3-0.1-0.5c0-5.1,0-10.1,0-15.2C143.5,90,143.5,89.9,143.5,89.7z"
		/>
</g>
</svg>
