<?xml version="1.0" encoding="utf-8"?>
<!-- Generator: Adobe Illustrator 28.1.0, SVG Export Plug-In . SVG Version: 6.00 Build 0)  -->
<svg version="1.1" id="图层_1" xmlns="http://www.w3.org/2000/svg" xmlns:xlink="http://www.w3.org/1999/xlink" x="0px" y="0px"
	 width="256px" height="256px" viewBox="0 0 256 256" style="enable-background:new 0 0 256 256;" xml:space="preserve">
<style type="text/css">
	.st0{fill-rule:evenodd;clip-rule:evenodd;fill:url(#SVGID_1_);}
	
		.st1{fill-rule:evenodd;clip-rule:evenodd;fill:url(#SVGID_00000015338366892886992600000014575144086862389689_);filter:url(#Adobe_OpacityMaskFilter);}
	.st2{mask:url(#mask0_973_23002_00000128444857701936276090000000153066985407902140_);}
	.st3{fill-rule:evenodd;clip-rule:evenodd;fill-opacity:0.3;}
	.st4{fill-rule:evenodd;clip-rule:evenodd;fill:url(#SVGID_00000129914153855740302450000004770906829176455832_);}
	.st5{display:none;fill:#FFFFFF;}
	.st6{fill:#FFFFFF;}
</style>
<linearGradient id="SVGID_1_" gradientUnits="userSpaceOnUse" x1="129" y1="224" x2="129" y2="86" gradientTransform="matrix(1 0 0 -1 0 258)">
	<stop  offset="0" style="stop-color:#647177"/>
	<stop  offset="1" style="stop-color:#000000"/>
</linearGradient>
<path class="st0" d="M104.4,42.4c-4.4-5.3-10.9-8.4-17.8-8.4H29c-6.6,0-12,5.4-12,12v12.1v10.1V160c0,6.6,5.4,12,12,12h200
	c6.6,0,12-5.4,12-12V70.1c0-6.6-5.4-12-12-12H117.4L104.4,42.4z"/>
<defs>
	<filter id="Adobe_OpacityMaskFilter" filterUnits="userSpaceOnUse" x="17" y="62" width="224" height="110">
		<feColorMatrix  type="matrix" values="1 0 0 0 0  0 1 0 0 0  0 0 1 0 0  0 0 0 1 0"/>
	</filter>
</defs>
<mask maskUnits="userSpaceOnUse" x="17" y="62" width="224" height="110" id="mask0_973_23002_00000128444857701936276090000000153066985407902140_">
	
		<linearGradient id="SVGID_00000091716717880537289930000004655670226584380324_" gradientUnits="userSpaceOnUse" x1="32.5816" y1="239.5494" x2="213.3495" y2="58.4074" gradientTransform="matrix(1 0 0 -1 0 258)">
		<stop  offset="0" style="stop-color:#05815D"/>
		<stop  offset="1" style="stop-color:#0C575F"/>
	</linearGradient>
	
		<path style="fill-rule:evenodd;clip-rule:evenodd;fill:url(#SVGID_00000091716717880537289930000004655670226584380324_);filter:url(#Adobe_OpacityMaskFilter);" d="
		M104.4,42.4c-4.4-5.3-10.9-8.4-17.8-8.4H29c-6.6,0-12,5.4-12,12v12.1v10.1V160c0,6.6,5.4,12,12,12h200c6.6,0,12-5.4,12-12V70.1
		c0-6.6-5.4-12-12-12H117.4L104.4,42.4z"/>
</mask>
<g class="st2">
	<g>
		<path class="st3" d="M92.8,74c5,0,9.8-1.6,13.8-4.6l9.9-7.4H229c6.6,0,12,5.4,12,12v34v52c0,6.6-5.4,12-12,12H29
			c-6.6,0-12-5.4-12-12v-52V86c0-6.6,5.4-12,12-12h58H92.8z"/>
	</g>
</g>
<g>
	
		<linearGradient id="SVGID_00000162339806170433818590000004984614744768610202_" gradientUnits="userSpaceOnUse" x1="17" y1="196" x2="241" y2="48" gradientTransform="matrix(1 0 0 -1 0 258)">
		<stop  offset="0" style="stop-color:#818F95"/>
		<stop  offset="0.9999" style="stop-color:#626F75"/>
		<stop  offset="1" style="stop-color:#E3E3E3"/>
	</linearGradient>
	<path style="fill-rule:evenodd;clip-rule:evenodd;fill:url(#SVGID_00000162339806170433818590000004984614744768610202_);" d="
		M92.8,74c5,0,9.8-1.6,13.8-4.6l9.9-7.4H229c6.6,0,12,5.4,12,12v34v90c0,6.6-5.4,12-12,12H29c-6.6,0-12-5.4-12-12v-90V86
		c0-6.6,5.4-12,12-12h58H92.8z"/>
</g>
<path class="st5" d="M114.9,184.3c-20-6.7-33.4-23.2-35.8-44.2l-1-9l4.3,10.2c5.3,12.6,13.7,20.3,25.1,23c14.2,3.4,24.7,0,40.1-13
	l8.7-7.3l5.3,5.5l5.5,5.5v-22.7v-22.5h-21.3c-11.8,0-21.3,0.5-21.3,1.2c0,0.7,2.4,3.8,5.5,6.8c5.3,5.5,5.3,5.6,2.2,9
	c-5.1,5.6-16.6,10.2-25.9,10.2c-7.5,0-9.6-0.9-13.8-4.9c-9.4-9.6-8.7-22.5,1.9-33.1c9.9-9.9,20-14,35.3-14c10.6,0,14.5,0.9,22.5,4.8
	c37.5,18.4,37.9,72.5,0.5,90.9C141.3,186,125.1,187.6,114.9,184.3z"/>
<g>
	<path class="st6" d="M93.8,146.7c0-6.1,0-12.2,0-18.3c0-1.8,0.6-3,2.2-3.9c10.8-6.1,21.5-12.4,32.2-18.6c1.3-0.7,2.4-0.7,3.7,0
		c10.8,6.3,21.7,12.5,32.5,18.8c1.3,0.8,1.9,1.8,1.9,3.4c0,12.4,0,24.9,0,37.3c0,1.5-0.5,2.6-1.9,3.4c-10.9,6.2-21.7,12.5-32.5,18.8
		c-1.3,0.7-2.4,0.8-3.7,0c-10.9-6.3-21.8-12.6-32.8-18.9c-1.2-0.7-1.6-1.7-1.6-3.1C93.8,159.2,93.8,152.9,93.8,146.7z M160.6,132.4
		c-0.3,0.1-0.5,0.2-0.7,0.3c-8.8,5.1-17.5,10.1-26.3,15.2c-0.8,0.5-0.8,1-0.8,1.8c0,9.7,0,19.5,0,29.2c0,0.5,0,1,0.1,1.6
		c0.3-0.1,0.5-0.2,0.6-0.3c8.8-5.1,17.5-10.1,26.3-15.2c0.8-0.4,0.9-1,0.9-1.7c0-9.9,0-19.8,0-29.7
		C160.7,133.2,160.7,132.9,160.6,132.4z M127.1,180.4c0.1-0.3,0.2-0.5,0.2-0.6c0-10.2,0-20.4,0-30.7c0-0.5-0.5-1.1-0.9-1.4
		c-3.3-2-6.6-3.9-9.9-5.8c-0.3-0.2-0.6-0.3-1.1-0.5c0,3.2,0,6.3,0,9.4c0,2.1-1.1,3.4-2.8,3.4c-1.7,0-2.8-1.3-2.8-3.4
		c0-3.8-0.1-7.6,0-11.4c0-1.1-0.4-1.7-1.3-2.2c-2.7-1.5-5.3-3-7.9-4.5c-0.3-0.2-0.7-0.3-1-0.4c0,0.2-0.1,0.3-0.1,0.4
		c0,10.3,0,20.5,0,30.8c0,0.5,0.5,1.1,0.9,1.3c4.5,2.6,9,5.2,13.5,7.8C118.2,175.3,122.5,177.8,127.1,180.4z M158,127.4
		c-4.1-2.3-7.9-4.5-11.7-6.8c-0.7-0.4-1.2-0.4-1.9,0c-5.9,3.4-11.8,6.8-17.7,10.2c-3,1.7-6,3.5-9,5.2c0.1,0.2,0.2,0.3,0.2,0.4
		c3.8,2.2,7.7,4.5,11.5,6.6c0.4,0.2,1.1,0.1,1.5-0.1c2.2-1.2,4.3-2.4,6.4-3.7C144.1,135.4,150.9,131.5,158,127.4z M139.7,116.9
		c-3.2-1.8-6.1-3.5-9-5.1c-0.4-0.2-1.2-0.1-1.6,0.1c-8.6,4.9-17.2,9.9-25.8,14.9c-0.3,0.2-0.6,0.4-1.1,0.7c3,1.7,5.7,3.3,8.5,5
		c0.8,0.5,1.4,0.5,2.2,0c5.3-3.1,10.5-6.1,15.8-9.2C132.3,121.1,135.9,119.1,139.7,116.9z"/>
	<path class="st6" d="M99.2,90.9c1.5,0,2.8,0,4.3,0c0,0.2,0.1,0.5,0.1,0.7c0,7,0,14,0,21c0,0.9-0.8,1.5-2.2,1.5
		c-1.4,0-2.3-0.5-2.3-1.5c0-7.1,0-14.2,0-21.3C99.1,91.2,99.1,91.1,99.2,90.9z"/>
	<path class="st6" d="M154.5,90c1.5,0,2.8,0,4.4,0c0,0.3,0.1,0.5,0.1,0.8c0,6.9,0,13.7,0,20.6c0,0.2,0,0.3,0,0.5
		c-0.2,0.6-0.9,1.1-2.1,1.1c-1.2,0-2-0.3-2.3-1c-0.1-0.2-0.1-0.4-0.1-0.6c0-6.9,0-13.8,0-20.6C154.5,90.5,154.5,90.3,154.5,90z"/>
	<path class="st6" d="M109,90.7c1.4,0,2.8,0,4.2,0c0,0.2,0.1,0.4,0.1,0.6c0,4.9,0,9.8,0,14.7c0,0.2,0,0.4,0,0.7c-0.1,0.6-1,1-2.2,1
		c-1.2,0-2.1-0.4-2.2-1c0-0.1,0-0.2,0-0.3c0-5,0-10.1,0-15.1C108.9,91.1,109,90.9,109,90.7z"/>
	<path class="st6" d="M145,90.7c1.5,0,2.8,0,4.3,0c0,0.2,0.1,0.5,0.1,0.7c0,5,0,9.9,0,14.9c0,0.3,0,0.7-0.3,0.8
		c-0.6,0.3-1.5,0.5-2.2,0.5c-0.6,0-1.2-0.4-1.8-0.7c-0.2-0.1-0.1-0.3-0.1-0.5c0-5.1,0-10.1,0-15.2C145,91,145,90.9,145,90.7z"/>
</g>
</svg>
