<?xml version="1.0" encoding="UTF-8"?>
<svg id="_图层_1" data-name="图层_1" xmlns="http://www.w3.org/2000/svg" width="256" height="256" version="1.1" xmlns:xlink="http://www.w3.org/1999/xlink" viewBox="0 0 256 256">
  <!-- Generator: Adobe Illustrator 29.2.1, SVG Export Plug-In . SVG Version: 2.1.0 Build 116)  -->
  <defs>
    <style>
      .st0 {
        fill-opacity: .3;
      }

      .st0, .st1 {
        fill-rule: evenodd;
      }

      .st2 {
        fill: url(#_未命名的渐变_35);
      }

      .st1 {
        fill: url(#_未命名的渐变_2);
      }
    </style>
    <linearGradient id="_未命名的渐变_35" data-name="未命名的渐变 35" x1="17" y1="103" x2="241" y2="103" gradientUnits="userSpaceOnUse">
      <stop offset="0" stop-color="#161512"/>
      <stop offset=".4" stop-color="#171613"/>
      <stop offset=".5" stop-color="#1e1d1a"/>
      <stop offset=".6" stop-color="#2a2926"/>
      <stop offset=".7" stop-color="#3b3a37"/>
      <stop offset=".8" stop-color="#51504d"/>
      <stop offset=".8" stop-color="#6c6b68"/>
      <stop offset=".9" stop-color="#8d8c89"/>
      <stop offset=".9" stop-color="#b2b1ae"/>
      <stop offset="1" stop-color="#dbdad7"/>
      <stop offset="1" stop-color="#e2e1de"/>
    </linearGradient>
    <linearGradient id="_未命名的渐变_2" data-name="未命名的渐变 2" x1="17" y1="572" x2="241" y2="720" gradientTransform="translate(0 -510)" gradientUnits="userSpaceOnUse">
      <stop offset="0" stop-color="#fff"/>
      <stop offset="1" stop-color="#cfcfcf"/>
    </linearGradient>
  </defs>
  <path class="st2" d="M104.4,42.4c-4.4-5.3-10.9-8.4-17.8-8.4H29c-6.6,0-12,5.4-12,12v114c0,6.6,5.4,12,12,12h200c6.6,0,12-5.4,12-12v-89.9c0-6.6-5.4-12-12-12h-111.6l-13-15.7Z"/>
  <path class="st0" d="M92.8,74c5,0,9.8-1.6,13.8-4.6l9.9-7.4h112.5c6.6,0,12,5.4,12,12v86c0,6.6-5.4,12-12,12H29c-6.6,0-12-5.4-12-12v-74c0-6.6,5.4-12,12-12h63.8Z"/>
  <path class="st1" d="M92.8,74c5,0,9.8-1.6,13.8-4.6l9.9-7.4h112.5c6.6,0,12,5.4,12,12v124c0,6.6-5.4,12-12,12H29c-6.6,0-12-5.4-12-12v-112c0-6.6,5.4-12,12-12h63.8Z"/>
  <path d="M167.8,168.8v-40.3c0-.1,0-.2,0-.3,0,0,0,0,0,0,0-.2,0-.3-.1-.5,0,0,0,0,0-.1,0-.2-.1-.3-.2-.5,0,0,0,0,0,0,0,0,0,0,0,0,0-.1-.2-.3-.3-.4,0,0,0,0,0-.1-.1-.1-.2-.2-.4-.3,0,0,0,0,0,0,0,0-.2-.1-.2-.2l-34.9-20.2c-.9-.5-2-.5-2.9,0l-34.9,20.2c0,0-.2.1-.2.2,0,0,0,0,0,0-.1,0-.2.2-.4.3,0,0,0,0,0,.1-.1.1-.2.3-.3.4,0,0,0,0,0,0,0,0,0,0,0,0,0,.1-.2.3-.2.5,0,0,0,0,0,.1,0,.2,0,.3-.1.5,0,0,0,0,0,0,0,0,0,.2,0,.3v40.3c0,1,.5,2,1.4,2.5l34.9,20.2c0,0,.2,0,.3.1,0,0,0,0,0,0,.2,0,.3.1.5.1,0,0,0,0,.1,0,.2,0,.3,0,.5,0s.3,0,.5,0c0,0,0,0,.1,0,.2,0,.3,0,.5-.1,0,0,0,0,0,0,0,0,.2,0,.3-.1l34.9-20.2c.9-.5,1.4-1.5,1.4-2.5ZM130.1,111.7l10.2,5.9-29.2,16.8-10.2-5.9,29.2-16.8ZM127.2,184l-29.2-16.8v-33.7l10.8,6.2v14c0,1.6,1.3,2.9,2.9,2.9s2.9-1.3,2.9-2.9v-10.6l12.6,7.3v33.7h0ZM130.1,145.4l-13.2-7.6,29.2-16.8,13.2,7.6-29.2,16.8ZM162.1,167.2l-29.2,16.8v-33.7l29.2-16.8v33.7Z"/>
  <path d="M100.2,114.7c-1.3,0-2.3-.3-2.3-.6v-24.6c0-.3,1-.6,2.3-.6s2.3.3,2.3.6v24.6c0,.3-1,.6-2.3.6Z"/>
  <path d="M157.9,113.4c-1.3,0-2.3-.2-2.3-.5v-23.3c0-.3,1-.5,2.3-.5s2.3.2,2.3.5v23.3c0,.3-1,.5-2.3.5Z"/>
  <path d="M147.9,108c-1.3,0-2.3-.3-2.3-.6v-17.1c0-.3,1-.6,2.3-.6s2.3.3,2.3.6v17.1c0,.3-1,.6-2.3.6Z"/>
  <path d="M110.4,108c-1.3,0-2.3-.3-2.3-.6v-17.1c0-.3,1-.6,2.3-.6s2.3.3,2.3.6v17.1c0,.3-1,.6-2.3.6Z"/>
</svg>