<?xml version="1.0" encoding="utf-8"?>
<!-- Generator: Adobe Illustrator 28.1.0, SVG Export Plug-In . SVG Version: 6.00 Build 0)  -->
<svg version="1.1" id="图层_1" xmlns="http://www.w3.org/2000/svg" xmlns:xlink="http://www.w3.org/1999/xlink" x="0px" y="0px"
	 width="256px" height="256px" viewBox="0 0 256 256" style="enable-background:new 0 0 256 256;" xml:space="preserve">
<style type="text/css">
	.st0{fill-rule:evenodd;clip-rule:evenodd;fill:url(#SVGID_1_);}
	.st1{fill-rule:evenodd;clip-rule:evenodd;fill-opacity:0.3;}
	.st2{fill-rule:evenodd;clip-rule:evenodd;fill:url(#SVGID_00000132788416922871172110000015687159557272424095_);}
	.st3{display:none;fill:#860B1F;}
	.st4{display:none;fill:#FEFEFE;}
	.st5{fill:#FFB136;}
	.st6{display:none;fill:#C0613E;}
	.st7{display:none;fill:#CB6C35;}
	.st8{display:none;fill:#EC9833;}
</style>
<linearGradient id="SVGID_1_" gradientUnits="userSpaceOnUse" x1="129" y1="172" x2="129" y2="34">
	<stop  offset="0" style="stop-color:#FFFFFF"/>
	<stop  offset="1" style="stop-color:#FFB136"/>
</linearGradient>
<path class="st0" d="M104.4,42.4C100,37.1,93.5,34,86.6,34H29c-6.6,0-12,5.4-12,12v12.1v10.1V160c0,6.6,5.4,12,12,12h200
	c6.6,0,12-5.4,12-12V70.1c0-6.6-5.4-12-12-12H117.4L104.4,42.4z"/>
<g>
	<g>
		<path class="st1" d="M92.8,74c5,0,9.8-1.6,13.8-4.6l9.9-7.4H229c6.6,0,12,5.4,12,12v34v52c0,6.6-5.4,12-12,12H29
			c-6.6,0-12-5.4-12-12v-52V86c0-6.6,5.4-12,12-12h58H92.8z"/>
	</g>
</g>
<g>
	
		<linearGradient id="SVGID_00000082342728661944880970000014973711773057211062_" gradientUnits="userSpaceOnUse" x1="129" y1="210" x2="129" y2="62">
		<stop  offset="0" style="stop-color:#B90000"/>
		<stop  offset="1" style="stop-color:#860B1F"/>
	</linearGradient>
	<path style="fill-rule:evenodd;clip-rule:evenodd;fill:url(#SVGID_00000082342728661944880970000014973711773057211062_);" d="
		M92.8,74c5,0,9.8-1.6,13.8-4.6l9.9-7.4H229c6.6,0,12,5.4,12,12v34v90c0,6.6-5.4,12-12,12H29c-6.6,0-12-5.4-12-12v-90V86
		c0-6.6,5.4-12,12-12h58H92.8z"/>
</g>
<g>
	<g>
		<path class="st3" d="M191.6,191.9c-37.5,0-75,0-112.5,0c0-37.5,0-75,0-112.5c37.5,0,75,0,112.5,0
			C191.6,117,191.6,154.4,191.6,191.9z M101.2,136.7c0,0.1,0,0.2,0,0.4c0,0.7,0,1.3,0,2c0,0.1,0,0.2,0,0.4c0,0.6,0.1,1.2,0.2,1.7
			c0.3,2.1,0.8,4.1,1.7,6c1.2,2.6,2.7,5,4.8,7c3.9,3.9,7.7,7.7,11.6,11.6c0.1,0.1,0.2,0.4,0.3,0.6c1.5-1.5,2.9-2.9,4.2-4.2
			c0.4-0.3,0.4-0.5,0-0.9c-3-3-5.9-5.9-8.9-8.9c-1.2-1.2-2.4-2.4-3.6-3.6c-2.4-2.7-3.6-6-3.9-9.6c-0.2-2.3,0.2-4.6,1-6.8
			c0.8-2.1,1.9-3.9,3.4-5.5c3.5-3.5,7-7,10.5-10.5c2.4-2.4,4.3-5.3,5.4-8.5c0.8-2.2,1.1-4.4,1.3-6.7l0,0v-0.1c0-0.1,0-0.2,0-0.3
			c0-1.2,0-2.4,0-3.6l-0.1-0.1c-6.9,0-13.7,0-20.6,0c-0.1,0-0.2,0-0.3,0c0,2.1,0,4.2,0,6.3l0.1,0.1c0.2,0,0.5,0,0.7,0
			c4.4,0,8.9,0,13.3,0c0,0,0,0.1,0.1,0.1c-0.3,1-0.6,2-0.9,3c-0.8,2.1-2.1,3.9-3.7,5.5c-3.4,3.4-6.8,6.8-10.2,10.2
			C103.8,126.1,101.5,130.9,101.2,136.7z M167.4,98.4c-0.2,0.3-0.3,0.5-0.5,0.6c-11.4,11.4-22.7,22.7-34.1,34.1c-3,3-6,6-9,9
			c-0.3,0.3-0.5,0.4-0.9,0c-0.5-0.6-1.1-1.1-1.6-1.6c-1.1-1.2-1.4-2.9-0.6-4.3c0.2-0.4,0.6-0.8,0.9-1.1
			c11.2-11.2,22.4-22.5,33.7-33.7c5.4-5.4,10.7-10.7,16.1-16.1c0.4-0.4,0.4-0.6,0-1c-1.3-1.2-2.5-2.5-3.7-3.7
			c-0.1-0.1-0.2-0.2-0.4-0.4c-0.2,0.2-0.3,0.4-0.4,0.5c-12.7,12.7-25.4,25.4-38.1,38.1c-4.1,4.1-8.1,8.1-12.1,12.2
			c-2.5,2.6-3.3,5.8-2.5,9.3c0.4,1.9,1.5,3.5,2.9,4.9c8.7,8.7,17.4,17.4,26.1,26.1c0.1,0.1,0.3,0.3,0.4,0.3c1.5-1.5,3-3,4.6-4.6
			c-6.7-6.7-13.4-13.4-20.2-20.2c0.1-0.1,0.2-0.2,0.3-0.3c4.7-4.7,9.4-9.4,14.1-14.1c4.2-4.2,8.4-8.3,12.5-12.5
			c1.8-1.8,3.6-3.7,5.5-5.5c3.7-3.7,7.5-7.5,11.2-11.2c0.3-0.3,0.4-0.5,0-0.9c-0.6-0.5-1.1-1.1-1.7-1.7
			C169.1,100.2,168.3,99.3,167.4,98.4z M129,175.2c4.9,4.9,9.8,9.8,14.7,14.7c1.5-1.5,3-3,4.5-4.5c-0.1-0.1-0.2-0.2-0.3-0.3
			c-6.2-6.2-12.3-12.3-18.5-18.5c-0.4-0.4-0.6-0.3-0.9,0c-6.1,6.2-12.3,12.3-18.4,18.4c-0.1,0.1-0.2,0.3-0.3,0.4
			c1.5,1.5,3,3,4.5,4.5C119.1,185.1,124,180.2,129,175.2z"/>
		<path class="st4" d="M191.6,191.9c0-37.5,0-74.9,0-112.5c-37.5,0-75,0-112.5,0c0,0,0-0.1,0.1-0.1s0.3,0,0.4,0
			c37.4,0,74.7,0,112.1,0c0,37.4,0,74.7,0,112.1C191.7,191.6,191.6,191.7,191.6,191.9z"/>
		<path class="st5" d="M167.4,98.4c0.9,0.9,1.7,1.7,2.5,2.6c0.6,0.6,1.1,1.1,1.7,1.7c0.4,0.3,0.3,0.5,0,0.9
			c-3.8,3.7-7.5,7.5-11.2,11.2c-1.8,1.8-3.6,3.7-5.5,5.5c-4.2,4.2-8.3,8.4-12.5,12.5c-4.7,4.7-9.4,9.4-14.1,14.1
			c-0.1,0.1-0.2,0.2-0.3,0.3c6.8,6.7,13.5,13.5,20.2,20.2c-1.6,1.6-3.1,3.1-4.6,4.6c-0.1-0.1-0.2-0.2-0.4-0.3
			c-8.7-8.7-17.4-17.4-26.1-26.1c-1.4-1.4-2.5-3-2.9-4.9c-0.8-3.5,0-6.7,2.5-9.3c4-4.1,8.1-8.1,12.1-12.2
			c12.7-12.7,25.4-25.4,38.1-38.1c0.1-0.1,0.3-0.3,0.4-0.5c0.2,0.2,0.3,0.2,0.4,0.4c1.2,1.2,2.5,2.5,3.7,3.7c0.4,0.4,0.4,0.6,0,1
			c-5.4,5.4-10.7,10.7-16.1,16.1c-11.2,11.2-22.5,22.5-33.7,33.7c-0.3,0.3-0.6,0.7-0.9,1.1c-0.9,1.4-0.6,3.1,0.6,4.3
			c0.5,0.5,1.1,1,1.6,1.6c0.3,0.4,0.5,0.3,0.9,0c3-3,6-6,9-9c11.4-11.4,22.7-22.7,34.1-34.1C167.1,98.9,167.2,98.7,167.4,98.4z"/>
		<path class="st5" d="M122.5,103.3c-4.4,0-8.9,0-13.3,0c-0.2,0-0.5,0-0.7,0l-0.1-0.1c0-2.1,0-4.1,0-6.3c0.1,0,0.2,0,0.3,0
			c6.9,0,13.7,0,20.6,0c0,1.2,0,2.5,0,3.7c0,0.1,0,0.2,0,0.3v0.1c-0.2,2.3-0.6,4.5-1.3,6.7c-1.1,3.3-3,6.1-5.4,8.5
			c-3.5,3.5-7,7-10.5,10.5c-1.5,1.6-2.6,3.4-3.4,5.5c-0.8,2.2-1.2,4.5-1,6.8c0.3,3.6,1.5,6.8,3.9,9.6c1.1,1.3,2.4,2.4,3.6,3.6
			c3,3,5.9,5.9,8.9,8.9c0.4,0.4,0.4,0.5,0,0.9c-1.4,1.3-2.7,2.7-4.2,4.2c-0.1-0.2-0.2-0.4-0.3-0.6c-3.9-3.9-7.7-7.7-11.6-11.6
			c-2-2-3.6-4.4-4.8-7c-0.8-1.9-1.4-3.9-1.7-6c-0.1-0.6-0.1-1.1-0.2-1.7c0-0.1,0-0.2,0-0.4c0-0.7,0-1.3,0-2c0-0.1,0-0.2,0-0.4
			c0.3-5.7,2.6-10.6,6.5-14.7c3.4-3.4,6.8-6.8,10.2-10.2c1.6-1.6,2.9-3.4,3.7-5.5C122,105.4,122.3,104.4,122.5,103.3
			C122.6,103.3,122.5,103.3,122.5,103.3z"/>
		<path class="st5" d="M129,175.2c-5,5-9.9,9.9-14.7,14.7c-1.5-1.5-3-3-4.5-4.5c0.1-0.1,0.2-0.2,0.3-0.4
			c6.1-6.1,12.3-12.3,18.4-18.4c0.3-0.3,0.5-0.4,0.9,0c6.2,6.2,12.3,12.4,18.5,18.5c0.1,0.1,0.2,0.2,0.3,0.3c-1.5,1.5-3,3-4.5,4.5
			C138.8,185.1,133.9,180.2,129,175.2z"/>
		<path class="st6" d="M129.3,100.6c0-1.2,0-2.5,0-3.7l0.1,0.1C129.3,98.2,129.3,99.4,129.3,100.6z"/>
		<path class="st7" d="M101.2,136.7c0,0.1,0,0.2,0,0.4C101.2,136.9,101.2,136.8,101.2,136.7z"/>
		<path class="st7" d="M101.2,139c0,0.1,0,0.2,0,0.4C101.2,139.3,101.2,139.2,101.2,139z"/>
		<path class="st6" d="M129.3,101L129.3,101L129.3,101L129.3,101z"/>
		<path class="st8" d="M108.4,103.2L108.4,103.2L108.4,103.2z"/>
		<path class="st8" d="M122.5,103.3C122.5,103.3,122.6,103.3,122.5,103.3C122.6,103.4,122.5,103.3,122.5,103.3z"/>
	</g>
</g>
</svg>
