<?xml version="1.0" encoding="utf-8"?>
<!-- Generator: Adobe Illustrator 28.1.0, SVG Export Plug-In . SVG Version: 6.00 Build 0)  -->
<svg version="1.1" id="图层_1" xmlns="http://www.w3.org/2000/svg" xmlns:xlink="http://www.w3.org/1999/xlink" x="0px" y="0px"
	 width="256px" height="256px" viewBox="0 0 256 256" style="enable-background:new 0 0 256 256;" xml:space="preserve">
<style type="text/css">
	.st0{clip-path:url(#SVGID_00000008123297509002202580000015991993285200217760_);}
	.st1{fill-rule:evenodd;clip-rule:evenodd;fill:url(#SVGID_00000036233670174737556870000011634497588671613580_);}
	
		.st2{fill-rule:evenodd;clip-rule:evenodd;fill:url(#SVGID_00000088842068996659255530000017996940134868490112_);filter:url(#Adobe_OpacityMaskFilter);}
	.st3{mask:url(#mask0_2043_38877_00000014623248061784608380000013689395980352334774_);}
	.st4{fill-rule:evenodd;clip-rule:evenodd;fill-opacity:0.3;}
	.st5{fill-rule:evenodd;clip-rule:evenodd;fill:url(#SVGID_00000000934525188304813430000004523999447086136754_);}
	.st6{display:none;fill:url(#SVGID_00000018203535343479006360000002804026728022754701_);}
	.st7{display:none;fill:url(#SVGID_00000073688184955926254000000012227118889484661648_);}
	.st8{display:none;fill:url(#SVGID_00000127031965265394719840000017662682237724753282_);}
	.st9{display:none;fill:url(#SVGID_00000147918468600883265040000007343148621459174055_);}
	.st10{display:none;fill:url(#SVGID_00000092416885998602738710000000032108251700347056_);}
	.st11{display:none;fill:url(#SVGID_00000121267150556324568170000008784075366224746920_);}
	.st12{display:none;fill:url(#SVGID_00000098181076179891516160000000166396599752027047_);}
	.st13{display:none;fill:url(#SVGID_00000071558167710233502990000010536794336074440890_);}
	.st14{display:none;fill:url(#SVGID_00000120525729373464149090000006921167342698775700_);}
	.st15{display:none;fill:url(#SVGID_00000095330473319070046180000017910653064478394257_);}
	.st16{display:none;fill:url(#SVGID_00000116941524106871832560000007426752293488570251_);}
	.st17{display:none;fill:url(#SVGID_00000089538208247027938220000009553696681894683018_);}
	.st18{display:none;fill:url(#SVGID_00000129167414729516602460000013335368440984041124_);}
	.st19{display:none;fill:url(#SVGID_00000000941101321276806750000003168870993200158636_);}
	
		.st20{fill-rule:evenodd;clip-rule:evenodd;fill:none;stroke:url(#SVGID_00000048495655716147676260000001925111755987592097_);stroke-width:14;stroke-miterlimit:10;}
</style>
<g>
	<defs>
		<rect id="SVGID_1_" width="256" height="256"/>
	</defs>
	<clipPath id="SVGID_00000023280943905972092790000014084304830341749432_">
		<use xlink:href="#SVGID_1_"  style="overflow:visible;"/>
	</clipPath>
	<g style="clip-path:url(#SVGID_00000023280943905972092790000014084304830341749432_);">
		
			<linearGradient id="SVGID_00000116913672119992672490000006742705317256481423_" gradientUnits="userSpaceOnUse" x1="129" y1="172" x2="129" y2="34">
			<stop  offset="0" style="stop-color:#0D3A59"/>
			<stop  offset="1" style="stop-color:#EF2CB6"/>
		</linearGradient>
		<path style="fill-rule:evenodd;clip-rule:evenodd;fill:url(#SVGID_00000116913672119992672490000006742705317256481423_);" d="
			M104.4,42.4c-4.4-5.3-10.9-8.4-17.8-8.4H29c-6.6,0-12,5.4-12,12v12.1v10.1V160c0,6.6,5.4,12,12,12h200c6.6,0,12-5.4,12-12V70.1
			c0-6.6-5.4-12-12-12H117.4L104.4,42.4z"/>
		<defs>
			<filter id="Adobe_OpacityMaskFilter" filterUnits="userSpaceOnUse" x="17" y="62" width="224" height="110">
				<feColorMatrix  type="matrix" values="1 0 0 0 0  0 1 0 0 0  0 0 1 0 0  0 0 0 1 0"/>
			</filter>
		</defs>
		
			<mask maskUnits="userSpaceOnUse" x="17" y="62" width="224" height="110" id="mask0_2043_38877_00000014623248061784608380000013689395980352334774_">
			
				<linearGradient id="SVGID_00000088827259722134196830000006521728108796698040_" gradientUnits="userSpaceOnUse" x1="32.5816" y1="239.5494" x2="213.3495" y2="58.4074" gradientTransform="matrix(1 0 0 -1 0 258)">
				<stop  offset="0" style="stop-color:#05815D"/>
				<stop  offset="1" style="stop-color:#0C575F"/>
			</linearGradient>
			
				<path style="fill-rule:evenodd;clip-rule:evenodd;fill:url(#SVGID_00000088827259722134196830000006521728108796698040_);filter:url(#Adobe_OpacityMaskFilter);" d="
				M104.4,42.4c-4.4-5.3-10.9-8.4-17.8-8.4H29c-6.6,0-12,5.4-12,12v12.1v10.1V160c0,6.6,5.4,12,12,12h200c6.6,0,12-5.4,12-12V70.1
				c0-6.6-5.4-12-12-12H117.4L104.4,42.4z"/>
		</mask>
		<g class="st3">
			<g>
				<path class="st4" d="M92.8,74c5,0,9.8-1.6,13.8-4.6l9.9-7.4H229c6.6,0,12,5.4,12,12v34v52c0,6.6-5.4,12-12,12H29
					c-6.6,0-12-5.4-12-12v-52V86c0-6.6,5.4-12,12-12h58H92.8z"/>
			</g>
		</g>
		<g>
			
				<linearGradient id="SVGID_00000104702050319697933840000006847635768765615768_" gradientUnits="userSpaceOnUse" x1="104.5761" y1="213.1514" x2="155.1772" y2="24.3054" gradientTransform="matrix(1 0 0 -1 0 258)">
				<stop  offset="0" style="stop-color:#0D3A59"/>
				<stop  offset="1" style="stop-color:#5F07B6"/>
			</linearGradient>
			<path style="fill-rule:evenodd;clip-rule:evenodd;fill:url(#SVGID_00000104702050319697933840000006847635768765615768_);" d="
				M92.8,74c5,0,9.8-1.6,13.8-4.6l9.9-7.4H229c6.6,0,12,5.4,12,12v34v90c0,6.6-5.4,12-12,12H29c-6.6,0-12-5.4-12-12v-90V86
				c0-6.6,5.4-12,12-12h58H92.8z"/>
		</g>
		
			<linearGradient id="SVGID_00000098203717906492004250000003024586194953112741_" gradientUnits="userSpaceOnUse" x1="90.6195" y1="157.9094" x2="108.1231" y2="163.6174" gradientTransform="matrix(1 0 0 -1 0 258)">
			<stop  offset="0" style="stop-color:#F69923"/>
			<stop  offset="0.3123" style="stop-color:#F79A23"/>
			<stop  offset="0.8383" style="stop-color:#E97826"/>
		</linearGradient>
		<path style="display:none;fill:url(#SVGID_00000098203717906492004250000003024586194953112741_);" d="M89.7,94
			c-0.2,0.4-0.3,0.9-0.5,1.6l-0.1,0.5c0,0.2-0.1,0.4-0.1,0.5l-0.1,0.6l-0.1,0.6l-0.1,0.7l-0.1,0.7l-0.1,0.7l-0.1,0.8
			c0,0.1,0,0.3,0,0.4l-0.1,0.8l-0.1,0.8l-0.1,0.9c0,0.1,0,0.3,0,0.4l5.4,2.6c-0.1-3.2,0-6.1,0.3-8.9l0.1-0.5l0,0.4l0,0.7l0,0.4
			l0,0.8l0,0.5l0,1l0,0.8l0,0.9l0,0.7l0,1.1l0,0.7l0,0.8c0,0.1,0,0.3,0,0.4c1-0.8,2.2-1.9,3.5-3.1l0.8-0.8c0.1-0.1,0.3-0.3,0.4-0.4
			l0.8-0.8l0.8-0.8l0.8-0.8l0.8-0.8c-0.9-1.8-1.8-3.1-2.7-4L99,94.7c-0.2-0.2-0.4-0.4-0.6-0.5l-0.3-0.2l-0.3-0.2
			c-0.1-0.1-0.2-0.1-0.2-0.2l-0.2-0.2l-0.2-0.1L96.9,93l-0.3-0.2l-0.3-0.2l-0.2-0.1l-0.4-0.2l-0.3-0.1l-0.3-0.1l-0.2-0.1l-0.2-0.1
			c0,0-0.1,0-0.1,0l-0.3,0l-0.3,0C92.4,91.9,90.5,92.1,89.7,94z"/>
		
			<linearGradient id="SVGID_00000076569103404419051480000006920473889371616434_" gradientUnits="userSpaceOnUse" x1="72.5188" y1="64.937" x2="93.9953" y2="150.2" gradientTransform="matrix(1 0 0 -1 0 258)">
			<stop  offset="0.3233" style="stop-color:#9E2064"/>
			<stop  offset="0.6302" style="stop-color:#C92037"/>
			<stop  offset="0.7514" style="stop-color:#CD2335"/>
			<stop  offset="1" style="stop-color:#E97826"/>
		</linearGradient>
		<path style="display:none;fill:url(#SVGID_00000076569103404419051480000006920473889371616434_);" d="M95,122.6
			c-0.2-1.8-0.5-3.6-0.7-5.3c-0.2-1.4-0.3-2.9-0.4-4.3l-0.1-1.3c0,0,0-0.1,0-0.1c-0.1-1.7-0.2-3.4-0.2-5l-5.4-2.6l0,0.3l0,0.7
			c-0.1,1.3-0.1,2.7-0.1,4.1c0,1.6,0,3.3,0,5.1c0,1.6,0.1,3.3,0.2,5.1c0.1,1.1,0.1,2.2,0.2,3.4l0.1,1.3l7.2,3.7l-0.3-1.7L95,122.6z"
			/>
		
			<linearGradient id="SVGID_00000089551117583335277260000013270379794416861059_" gradientUnits="userSpaceOnUse" x1="104.2622" y1="64.2599" x2="118.3702" y2="132.9709" gradientTransform="matrix(1 0 0 -1 0 258)">
			<stop  offset="0" style="stop-color:#282662"/>
			<stop  offset="9.548389e-02" style="stop-color:#662E8D"/>
			<stop  offset="0.7882" style="stop-color:#9F2064"/>
			<stop  offset="0.9487" style="stop-color:#CD2032"/>
		</linearGradient>
		<path style="display:none;fill:url(#SVGID_00000089551117583335277260000013270379794416861059_);" d="M105.4,164.5l0.1,0.4
			l0.7,2.4c0.1,0.3,0.2,0.7,0.3,1l0.3,1.1l0.1,0.4c0,0.1,0,0.1,0.1,0.2l1.2,3.7c1-0.2,2.3,0.2,3.6,0.7l0.5,0.2c-1-1.2-2.3-2-3.9-2.1
			c4.4-2.9,7.3-6.7,6.9-11.3c0-0.4-0.1-0.8-0.2-1.2c-0.1,1.7-0.7,2.9-2.7,4.2l-0.2,0.2c2-3.5,2.5-5.9,2.3-9
			c-0.1-0.7-0.1-1.5-0.3-2.3c-0.6,4.6-3.1,7.6-6.7,9.3L105.4,164.5z"/>
		
			<linearGradient id="SVGID_00000099641466702305149990000016285196285927069605_" gradientUnits="userSpaceOnUse" x1="78.9087" y1="71.2136" x2="110.1353" y2="147.1476" gradientTransform="matrix(1 0 0 -1 0 258)">
			<stop  offset="0.3233" style="stop-color:#9E2064"/>
			<stop  offset="0.6302" style="stop-color:#C92037"/>
			<stop  offset="0.7514" style="stop-color:#CD2335"/>
			<stop  offset="1" style="stop-color:#E97826"/>
		</linearGradient>
		<path style="display:none;fill:url(#SVGID_00000099641466702305149990000016285196285927069605_);" d="M102.8,159.1l-0.5-1.7
			l-0.9-3.5c-0.4-1.7-0.9-3.4-1.3-5.1c-0.4-1.7-0.8-3.4-1.2-5.2c-0.4-1.8-0.8-3.5-1.2-5.3l-0.4-1.8l-0.7-3.5
			c-0.1-0.6-0.2-1.3-0.4-1.9c-0.2-1.1-0.4-2.2-0.6-3.3l0-0.2l-7.2-3.7l0,0.2c0,0,0,0.1,0,0.1c0.1,1.6,0.3,3.3,0.5,4.9
			c0.2,1.7,0.4,3.4,0.7,5.1c0.2,1.4,0.4,2.9,0.7,4.3l0.2,0.9c0.3,1.8,0.7,3.5,1.1,5.1c0.4,1.8,0.9,3.5,1.4,5.1c0.3,1,0.6,2.1,0.9,3
			l0.3,0.8l0.6,1.6c0.7,1.9,1.4,3.7,2.3,5.4l7.2,3.7c-0.4-1.3-0.7-2.7-1.1-4.1l-0.2-0.8L102.8,159.1z"/>
		
			<linearGradient id="SVGID_00000003070718257112613010000000166276828939803810_" gradientUnits="userSpaceOnUse" x1="98.8254" y1="70.6447" x2="123.9704" y2="101.9737" gradientTransform="matrix(1 0 0 -1 0 258)">
			<stop  offset="0" style="stop-color:#282662"/>
			<stop  offset="9.548389e-02" style="stop-color:#662E8D"/>
			<stop  offset="0.7882" style="stop-color:#9F2064"/>
			<stop  offset="0.9487" style="stop-color:#CD2032"/>
		</linearGradient>
		<path style="display:none;fill:url(#SVGID_00000003070718257112613010000000166276828939803810_);" d="M97.1,160.9
			c0.9,1.9,1.8,3.7,2.9,5.4l0.6,0.9c-0.7-0.3-1.6-0.4-2.4-0.5l-0.4,0c-0.1,0-0.1,0-0.2,0l-0.4,0l-0.6,0l-0.5,0l-0.4,0l-0.6,0
			c0,0,0,0,0,0c3.7,1.3,6.9,2.8,8.9,5.2c-0.8,0.9-2.3,1.6-4.2,2.1c1.4,0.2,2.5,0.1,3.3,0l0.3-0.1c0,0,0.1,0,0.1,0l0.3-0.1l0.2-0.1
			l0.3-0.1l0.1-0.1c-1.2,1-1.9,2.6-2.5,4.5l-0.2,0.7c0,0.1-0.1,0.2-0.1,0.3c1.5-2.5,3.1-4.2,4.6-4.8c1.7,5.5,3.6,11.4,5.7,17.5
			l1,2.8c0.3,1,0.7,1.9,1,2.9c0.5-0.6,0.5-1.3,0.3-2l-0.7-1.9l-0.8-2.2l-1.2-3.5l-1-3l-1.1-3.3l-1-3.3l-0.9-3.1l-0.7-2.3l-0.6-1.9
			c-0.1-0.2-0.1-0.5-0.2-0.8l-0.2-0.7l-0.6-2.1l-0.6-2.2l-0.3-1l0,0l-7.2-3.7C97.1,160.7,97.1,160.8,97.1,160.9L97.1,160.9z"/>
		
			<linearGradient id="SVGID_00000118378934369132226730000018154204378557062016_" gradientUnits="userSpaceOnUse" x1="91.1316" y1="54.557" x2="114.0906" y2="163.235" gradientTransform="matrix(1 0 0 -1 0 258)">
			<stop  offset="0.3233" style="stop-color:#9E2064"/>
			<stop  offset="0.6302" style="stop-color:#C92037"/>
			<stop  offset="0.7514" style="stop-color:#CD2335"/>
			<stop  offset="1" style="stop-color:#E97826"/>
		</linearGradient>
		<path style="display:none;fill:url(#SVGID_00000118378934369132226730000018154204378557062016_);" d="M96.6,127.9l0.1,0.7
			c0.1,0.5,0.2,1,0.3,1.4l0.8,4l0.3,1.4l0.4,2c0.1,0.3,0.1,0.7,0.2,1c0.2,1,0.4,2,0.7,3.1l0.5,2.1l0.5,2.1c0.1,0.3,0.2,0.7,0.3,1
			l0.5,2.1l0.5,2.1c0.3,1,0.5,2.1,0.8,3.2c0.2,0.8,0.4,1.6,0.7,2.4l0.8,2.7l0.6,2l0.6,2.1c0.1,0.3,0.2,0.7,0.3,1c0,0,0,0.1,0,0.1
			l2.2-2l-0.1,0l-0.1,0.1c2.6-2.4,4.8-7.4,5.3-11.8c0.2-2,0.2-4.2-0.1-6.6c-0.2-1.8-0.6-3.6-1.1-5.6c-0.4-1.7-1-3.6-1.6-5.5
			c-0.4,0.8-1,1.6-1.7,2.4l-0.4,0.4l-0.1,0.1l-0.3,0.3c1.9-3,2.1-6.2,1.6-9.5c-0.3,1-1,2.4-2.2,3.8c-0.1,0.2-0.3,0.3-0.5,0.5
			c0,0-0.1,0.1-0.1,0.1l-0.1,0c0.6-1.1,1.1-2.1,1.4-3.1c0-0.1,0.1-0.3,0.1-0.4l0-0.2c0.1-0.3,0.1-0.7,0.2-1l0.1-0.6
			c0-0.4,0-0.8,0-1.2l-0.1-0.7c0-0.1,0-0.1,0-0.2l-0.1-0.5c0-0.1,0-0.1,0-0.2c-0.1-0.9-0.3-1.6-0.5-2.3l-0.2-0.6l-0.1-0.5l-0.2-0.6
			l-0.2-0.7c0-0.1-0.1-0.1-0.1-0.2l-0.1-0.4c0-0.1-0.1-0.2-0.1-0.3l-0.1-0.2c0,0.1-0.1,0.2-0.1,0.3l-0.1,0.1
			c-0.5,1.1-1.5,2.5-2.5,3.5c0,0,0,0,0,0l-0.2,0.2c0,0-0.1,0.1-0.1,0.1l0-0.1l-6.9,6.3C96.6,127.8,96.6,127.8,96.6,127.9z"/>
		
			<linearGradient id="SVGID_00000173155915019768107780000006924690816376251267_" gradientUnits="userSpaceOnUse" x1="79.2441" y1="28.1301" x2="100.8507" y2="153.9031" gradientTransform="matrix(1 0 0 -1 0 258)">
			<stop  offset="0.3233" style="stop-color:#9E2064"/>
			<stop  offset="0.6302" style="stop-color:#C92037"/>
			<stop  offset="0.7514" style="stop-color:#CD2335"/>
			<stop  offset="1" style="stop-color:#E97826"/>
		</linearGradient>
		<path style="display:none;fill:url(#SVGID_00000173155915019768107780000006924690816376251267_);" d="M93.9,106.6
			c0,0.5,0.1,1,0.1,1.6l0.1,1.1c0,0.2,0,0.4,0,0.6l0.1,1.2c0,0.2,0,0.4,0.1,0.6l0,0.2c0,0,0,0.1,0,0.1c0.1,0.6,0.1,1.2,0.2,1.9
			l0.2,1.3c0.1,0.5,0.1,0.9,0.2,1.4l0.3,2.2c0.1,1,0.3,2,0.4,3.1l0.1,0.8c0.1,0.8,0.3,1.7,0.4,2.5l0.5,2.7l6.9-6.3
			c1.4-2.6,1.8-4.2,1.7-6.2c0-0.4,0-0.8-0.1-1.3l0-0.4c-0.1-1.8-0.3-3.6-0.6-5.4c-0.3-1.8-0.6-3.4-1-4.9c-0.3-0.9-0.5-1.8-0.8-2.5
			c-0.2-0.6-0.5-1.2-0.8-1.7l-0.8,0.8c-0.1,0.1-0.3,0.3-0.4,0.4l-0.8,0.8l-0.8,0.8l-0.8,0.8c-0.1,0.1-0.3,0.3-0.4,0.4l-0.8,0.8
			C95.9,104.9,94.8,105.8,93.9,106.6z"/>
		
			<linearGradient id="SVGID_00000059292624498586890510000006150712213880229799_" gradientUnits="userSpaceOnUse" x1="154.0306" y1="153.3342" x2="176.7486" y2="159.3894" gradientTransform="matrix(1 0 0 -1 0 258)">
			<stop  offset="0" style="stop-color:#F69923"/>
			<stop  offset="0.3123" style="stop-color:#F79A23"/>
			<stop  offset="0.8383" style="stop-color:#E97826"/>
		</linearGradient>
		<path style="display:none;fill:url(#SVGID_00000059292624498586890510000006150712213880229799_);" d="M160.2,95.4
			c-0.2,0.1-0.5,0.2-0.7,0.3l-0.4,0.2c-0.3,0.2-0.6,0.3-0.9,0.5l-0.5,0.3l-0.5,0.4l-0.5,0.4l-0.6,0.4c-0.1,0.1-0.2,0.1-0.3,0.2
			l-0.6,0.5l-0.6,0.5l-0.6,0.5l-0.6,0.5l-0.7,0.6l-0.7,0.6l-0.7,0.6c-0.1,0.1-0.2,0.2-0.4,0.3l2.3,6.4c2.5-2.6,4.9-5,7.3-6.9
			l0.9-0.7l0.1,0l-0.6,0.5l-0.6,0.5l-0.6,0.6l-0.6,0.6l-0.5,0.5l-0.4,0.3l-0.8,0.8l-0.6,0.6l-0.9,1l-0.5,0.5l-0.5,0.5l-0.8,0.9
			l-0.6,0.6c0.6,0.1,1.2,0.1,1.8,0.1l1,0.1l1.1,0l1.1,0l1.1,0l1.2,0c0.2,0,0.4,0,0.6,0l1.2,0c0.2,0,0.4,0,0.6,0l1.1,0
			c0.2,0,0.4,0,0.6,0l1.1,0c0.9-2.7,1.1-4.9,1-6.5l0-0.4l0-0.4c0-0.1,0-0.1,0-0.2l0-0.3L167,101c0-0.1,0-0.1,0-0.2l-0.1-0.3
			l-0.1-0.3l-0.1-0.2l-0.1-0.2l-0.1-0.3l-0.1-0.2l-0.2-0.5l-0.1-0.3l-0.1-0.2l-0.1-0.2l-0.2-0.2l-0.2-0.3l-0.2-0.3
			C164.3,96,162.6,94.4,160.2,95.4z"/>
		
			<linearGradient id="SVGID_00000008867720560165280670000003364355957384799666_" gradientUnits="userSpaceOnUse" x1="102.0219" y1="66.7336" x2="148.2458" y2="151.4216" gradientTransform="matrix(1 0 0 -1 0 258)">
			<stop  offset="0.3233" style="stop-color:#9E2064"/>
			<stop  offset="0.6302" style="stop-color:#C92037"/>
			<stop  offset="0.7514" style="stop-color:#CD2335"/>
			<stop  offset="1" style="stop-color:#E97826"/>
		</linearGradient>
		<path style="display:none;fill:url(#SVGID_00000008867720560165280670000003364355957384799666_);" d="M141.8,122.6
			c1.2-1.6,2.4-3.2,3.7-4.8c1.3-1.6,2.5-3.2,3.8-4.7c0.1-0.1,0.2-0.2,0.2-0.3c1.3-1.5,2.5-2.9,3.8-4.2l-2.3-6.4l-0.3,0.3l-0.6,0.5
			c-1.1,1-2.2,2.1-3.3,3.2c-0.7,0.6-1.3,1.3-2,2l-1.4,1.4c-0.2,0.2-0.5,0.5-0.7,0.7c-1.3,1.3-2.6,2.8-3.9,4.2
			c-0.8,0.9-1.7,1.9-2.5,2.9l-1,1.1l2.9,8.7l1.1-1.6L141.8,122.6z"/>
		
			<linearGradient id="SVGID_00000008828206004863375980000013024402738955980954_" gradientUnits="userSpaceOnUse" x1="111.8492" y1="72.3333" x2="132.7222" y2="107.3923" gradientTransform="matrix(1 0 0 -1 0 258)">
			<stop  offset="0" style="stop-color:#282662"/>
			<stop  offset="9.548389e-02" style="stop-color:#662E8D"/>
			<stop  offset="0.7882" style="stop-color:#9F2064"/>
			<stop  offset="0.9487" style="stop-color:#CD2032"/>
		</linearGradient>
		<path style="display:none;fill:url(#SVGID_00000008828206004863375980000013024402738955980954_);" d="M116.9,164.6l-0.4,0.8
			l-1.1,2.1c-0.2,0.4-0.4,0.7-0.6,1.1l-0.6,1.2c-0.1,0.2-0.2,0.4-0.3,0.6l-0.6,1.2l-1.4,2.7c1.1,0.7,1.9,2.3,2.5,4.1
			c0.1-1.7-0.3-3.4-1.5-4.9c5.9,1.1,11.2,0.4,14.5-3.6c0.3-0.4,0.6-0.7,0.8-1.1c-1.4,1.3-2.9,1.8-5.5,1.3l-0.3-0.1
			c4.4-1.2,6.7-2.7,9-5.4c0.5-0.6,1.1-1.3,1.6-2.1c-4.2,3.2-8.5,3.6-12.8,2.2L116.9,164.6z"/>
		
			<linearGradient id="SVGID_00000160893291188891744630000004082363763687636385_" gradientUnits="userSpaceOnUse" x1="98.7643" y1="72.6919" x2="145.6393" y2="152.0399" gradientTransform="matrix(1 0 0 -1 0 258)">
			<stop  offset="0.3233" style="stop-color:#9E2064"/>
			<stop  offset="0.6302" style="stop-color:#C92037"/>
			<stop  offset="0.7514" style="stop-color:#CD2335"/>
			<stop  offset="1" style="stop-color:#E97826"/>
		</linearGradient>
		<path style="display:none;fill:url(#SVGID_00000160893291188891744630000004082363763687636385_);" d="M118.9,158.6l1.2-2.1l2-3.5
			c1-1.7,2-3.4,3-5.1c1-1.7,2.1-3.4,3.1-5.1c1.1-1.8,2.2-3.5,3.3-5.2c1.1-1.7,2.2-3.4,3.3-5.1c0.4-0.6,0.8-1.2,1.2-1.8
			c0.7-1,1.4-2.1,2.1-3.1l0.1-0.2l-2.9-8.6l-0.2,0.2c0,0-0.1,0.1-0.1,0.1c-1.2,1.4-2.4,2.9-3.5,4.3c-1.2,1.5-2.4,3-3.5,4.6
			c-1,1.3-1.9,2.7-2.9,4l-0.6,0.8c-1.2,1.7-2.2,3.4-3.2,5c-1.1,1.8-2.1,3.6-3,5.2c-0.6,1.1-1.1,2.1-1.6,3.2
			c-0.4,0.9-0.8,1.7-1.2,2.6c-0.9,2-1.8,4.1-2.5,6.2l2.9,8.7l0.6-1l1.2-2.1c0.2-0.3,0.4-0.7,0.6-1.1L118.9,158.6z"/>
		
			<linearGradient id="SVGID_00000085966470582957909270000008696609538547055494_" gradientUnits="userSpaceOnUse" x1="98.4645" y1="73.7936" x2="124.1755" y2="112.0456" gradientTransform="matrix(1 0 0 -1 0 258)">
			<stop  offset="0" style="stop-color:#282662"/>
			<stop  offset="9.548389e-02" style="stop-color:#662E8D"/>
			<stop  offset="0.7882" style="stop-color:#9F2064"/>
			<stop  offset="0.9487" style="stop-color:#CD2032"/>
		</linearGradient>
		<path style="display:none;fill:url(#SVGID_00000085966470582957909270000008696609538547055494_);" d="M113.1,155.1
			c-0.8,2.2-1.5,4.4-2,6.6l-0.3,1.2c-0.3-0.6-0.7-1.2-1.2-1.8l-0.3-0.3c0-0.1-0.1-0.1-0.1-0.2l-0.3-0.3l-0.3-0.3l-0.3-0.3l-0.4-0.4
			l-0.4-0.4l-0.4-0.4l-0.4-0.3c1.9,3.9,3.3,7.7,3,11.2c-1.4,0.1-3.1-0.6-5.1-1.6c0.8,1,1.6,1.8,2.3,2.3l0.3,0.2c0,0,0.1,0.1,0.1,0.1
			l0.3,0.2l0.2,0.2l0.2,0.1l0.2,0.1l0.2,0.1l0.2,0.1c0,0,0,0,0.1,0c-1.6-0.1-3.5,0.6-5.3,1.5l-0.6,0.3l-0.6,0.3
			c3.2-0.8,5.8-0.9,7.5-0.3c-0.8,1.6-1.7,3.2-2.5,4.9l-1.3,2.5c-1.9,3.8-3.9,7.8-5.8,11.9l-1.3,2.8c-0.4,0.9-0.9,1.9-1.3,2.8
			c0.9-0.1,1.5-0.6,1.9-1.4l1.5-3.2l1.4-2.8l1.7-3.6l1.5-3.1l1.5-3l1.5-2.8l2-3.9l1.4-2.7l0.5-0.9l0.4-0.8l0.4-0.7l0.6-1.1l1.2-2.2
			c0.2-0.4,0.4-0.8,0.6-1.1l0.6-1l0,0l-2.9-8.7C113.2,154.9,113.2,155,113.1,155.1L113.1,155.1z"/>
		
			<linearGradient id="SVGID_00000137119661525747363120000007376631892385733288_" gradientUnits="userSpaceOnUse" x1="104.719" y1="62.0201" x2="158.756" y2="148.6081" gradientTransform="matrix(1 0 0 -1 0 258)">
			<stop  offset="0.3233" style="stop-color:#9E2064"/>
			<stop  offset="0.6302" style="stop-color:#C92037"/>
			<stop  offset="0.7514" style="stop-color:#CD2335"/>
			<stop  offset="1" style="stop-color:#E97826"/>
		</linearGradient>
		<path style="display:none;fill:url(#SVGID_00000137119661525747363120000007376631892385733288_);" d="M138.9,128.1l-0.5,0.7
			c-0.3,0.5-0.6,0.9-0.9,1.4l-1.5,2.3L135,134l-0.3,0.4c-0.4,0.6-0.8,1.3-1.2,1.9l-1.2,2c-0.8,1.3-1.7,2.6-2.5,4l-0.6,1.1
			c-1,1.7-2.1,3.4-3.1,5.2l-1.2,2.1c-0.6,1.1-1.2,2.1-1.9,3.2c-0.4,0.7-0.7,1.3-1.1,2l-1.9,3.3l-0.6,1l-1.2,2.1
			c-0.4,0.7-0.8,1.4-1.2,2.1c0,0-0.1,0.1-0.1,0.1l3.4,0.1c-0.1,0-0.1,0-0.2-0.1c4,0.1,9.7-2.1,13.7-5.3c1.8-1.5,3.5-3.2,5.2-5.3
			c1.2-1.6,2.4-3.4,3.6-5.4c1-1.7,2.1-3.6,3.1-5.7c-1,0.3-2.1,0.5-3.3,0.6l-0.6,0c-0.1,0-0.3,0-0.4,0l-0.2,0
			c3.9-0.9,6.6-3.3,8.8-6.4c-1.1,0.5-2.8,1.1-4.7,1.3c-0.3,0-0.5,0-0.8,0c0,0-0.1,0-0.1,0l-0.1,0c1.4-0.3,2.5-0.8,3.6-1.4
			c0.2-0.1,0.3-0.2,0.4-0.3l0.2-0.1c0.3-0.2,0.6-0.4,0.9-0.7l0.6-0.5c0.4-0.4,0.9-0.8,1.2-1.3l0.2-0.3c0,0,0.1-0.1,0.1-0.1l0.3-0.4
			c0.1-0.1,0.1-0.1,0.1-0.2c0.6-0.8,1.1-1.6,1.5-2.3l0.2-0.3c0.2-0.4,0.4-0.7,0.6-1.1l0.2-0.4l0.3-0.6c0.1-0.1,0.1-0.3,0.2-0.4
			l0.1-0.2l0.2-0.4c0-0.1,0.1-0.2,0.1-0.3l0-0.1c-0.1,0.1-0.2,0.1-0.3,0.2l-0.2,0.1c-1.2,0.5-3.2,0.8-4.8,0.9c0,0,0,0-0.1,0l-0.3,0
			c-0.1,0-0.1,0-0.2,0l0.1,0L139,128C139,128.1,139,128.1,138.9,128.1z"/>
		
			<linearGradient id="SVGID_00000098189787422902588960000003492227743927768230_" gradientUnits="userSpaceOnUse" x1="120.9074" y1="86.6353" x2="155.5144" y2="143.6713" gradientTransform="matrix(1 0 0 -1 0 258)">
			<stop  offset="0.3233" style="stop-color:#9E2064"/>
			<stop  offset="0.6302" style="stop-color:#C92037"/>
			<stop  offset="0.7514" style="stop-color:#CD2335"/>
			<stop  offset="1" style="stop-color:#E97826"/>
		</linearGradient>
		<path style="display:none;fill:url(#SVGID_00000098189787422902588960000003492227743927768230_);" d="M153.7,108.8
			c-0.4,0.4-0.8,0.9-1.2,1.3l-0.8,1l-0.9,1l-1,1.2c0,0,0,0.1-0.1,0.1c-0.6,0.7-1.2,1.5-1.8,2.3L147,117c-0.2,0.2-0.3,0.4-0.5,0.6
			l-1.4,1.8l-0.9,1.2c-0.5,0.6-0.9,1.2-1.4,1.9l-0.5,0.7c-0.5,0.6-0.9,1.3-1.4,2l-1,1.4l-1,1.4l10.6,0.4c3.2-1,4.8-2,6.3-3.6
			c0.3-0.3,0.6-0.7,1-1.1l0.3-0.4c1.3-1.5,2.6-3.2,3.8-4.9c1.2-1.6,2.2-3.3,3-4.7c0.5-0.9,1-1.8,1.3-2.6c0.3-0.7,0.5-1.3,0.8-2
			l-1.1,0l-1.1,0l-1.1,0l-1.2,0c-0.2,0-0.4,0-0.6,0l-1.1,0l-1.1,0c-0.2,0-0.4,0-0.6,0l-1.1,0c-0.2,0-0.4,0-0.5,0l-1-0.1
			C154.9,108.9,154.3,108.9,153.7,108.8z"/>
	</g>
</g>
<linearGradient id="SVGID_00000039129365307356483710000016788759852920060305_" gradientUnits="userSpaceOnUse" x1="79.5483" y1="132.4175" x2="181.0039" y2="132.4175">
	<stop  offset="0" style="stop-color:#6BA0F6"/>
	<stop  offset="0.1303" style="stop-color:#67A0F5"/>
	<stop  offset="0.2519" style="stop-color:#5C9FF0"/>
	<stop  offset="0.37" style="stop-color:#499EE8"/>
	<stop  offset="0.4853" style="stop-color:#2F9DDE"/>
	<stop  offset="0.5451" style="stop-color:#1E9CD7"/>
	<stop  offset="0.5654" style="stop-color:#3193D6"/>
	<stop  offset="0.6265" style="stop-color:#6579D3"/>
	<stop  offset="0.6886" style="stop-color:#9263D0"/>
	<stop  offset="0.7504" style="stop-color:#B751CE"/>
	<stop  offset="0.812" style="stop-color:#D343CC"/>
	<stop  offset="0.8733" style="stop-color:#E839CB"/>
	<stop  offset="0.9343" style="stop-color:#F433CA"/>
	<stop  offset="0.9944" style="stop-color:#F831CA"/>
</linearGradient>
<polygon style="fill-rule:evenodd;clip-rule:evenodd;fill:none;stroke:url(#SVGID_00000039129365307356483710000016788759852920060305_);stroke-width:14;stroke-miterlimit:10;" points="
	130.3,102.5 91.7,169.3 168.9,169.3 "/>
</svg>
