<?xml version="1.0" encoding="UTF-8"?>
<svg id="_图层_1" data-name=" 图层 1" xmlns="http://www.w3.org/2000/svg" width="256" height="256" version="1.1" xmlns:xlink="http://www.w3.org/1999/xlink" viewBox="0 0 256 256">
  <defs>
    <style>
      .cls-1 {
        isolation: isolate;
      }

      .cls-2 {
        fill: #000;
        fill-opacity: .3;
      }

      .cls-2, .cls-3, .cls-4, .cls-5, .cls-6 {
        stroke-width: 0px;
      }

      .cls-2, .cls-4, .cls-6 {
        fill-rule: evenodd;
      }

      .cls-3 {
        fill: none;
      }

      .cls-4 {
        fill: url(#_未命名的渐变);
      }

      .cls-7 {
        clip-path: url(#clippath);
      }

      .cls-5 {
        fill: #fca600;
      }

      .cls-6 {
        fill: url(#_未命名的渐变_2);
      }

      .cls-8 {
        mix-blend-mode: multiply;
      }
    </style>
    <clipPath id="clippath">
      <rect class="cls-3" width="256" height="256"/>
    </clipPath>
    <linearGradient id="_未命名的渐变" data-name="未命名的渐变" x1="17.2" y1="613.1" x2="241.2" y2="613.1" gradientTransform="translate(-.2 -510.1)" gradientUnits="userSpaceOnUse">
      <stop offset="0" stop-color="#f9af0d"/>
      <stop offset="1" stop-color="#c18b1f"/>
    </linearGradient>
    <linearGradient id="_未命名的渐变_2" data-name="未命名的渐变 2" x1="17.3" y1="-626" x2="241.3" y2="-774" gradientTransform="translate(-.2 -563.9) scale(1 -1)" gradientUnits="userSpaceOnUse">
      <stop offset="0" stop-color="#5f585e"/>
      <stop offset="1" stop-color="#010101"/>
    </linearGradient>
  </defs>
  <g class="cls-1">
    <g id="_图层_1-2" data-name=" 图层 1-2">
      <g class="cls-7">
        <g>
          <path class="cls-4" d="M104.4,42.4c-4.4-5.3-10.9-8.4-17.8-8.4H29c-6.6,0-12,5.4-12,12v114c0,6.6,5.4,12,12,12h200c6.6,0,12-5.4,12-12v-89.9c0-6.6-5.4-12-12-12h-111.6l-13-15.8h0Z"/>
          <g class="cls-8">
            <path class="cls-2" d="M92.8,74c5,0,9.8-1.6,13.8-4.6l9.9-7.4h112.5c6.6,0,12,5.4,12,12v86c0,6.6-5.4,12-12,12H29c-6.6,0-12-5.4-12-12v-74c0-6.6,5.4-12,12-12h63.8Z"/>
          </g>
          <path class="cls-6" d="M92.8,74c5,0,9.8-1.6,13.8-4.6l9.9-7.4h112.5c6.6,0,12,5.4,12,12v124c0,6.6-5.4,12-12,12H29c-6.6,0-12-5.4-12-12v-112c0-6.6,5.4-12,12-12h63.8Z"/>
        </g>
      </g>
    </g>
  </g>
  <path class="cls-5" d="M138.8,128.8c.9-1,1.7-2.1,2.6-3.1,8.6-8.6,17.3-17.2,25.6-26.1,1-1.1,1.6-1.1,2.7,0,3.6,3.6,3.6,3.5,0,7.2-8.3,8.2-16.6,16.4-24.9,24.7-.5.5-1.5.9-1.2,1.7.3.8,1.3.4,2,.4,13.2,0,26.4,0,39.6,0,1.8,0,2.3.5,2.2,2.3-.1,4.4,0,4.4-4.3,4.4-12.5,0-25,0-37.5,0h-2.2c-.2.2-.3.4-.5.7.6.4,1.3.7,1.8,1.2,9,9,18,18,27,27,1.3,1.3,1.3,2,0,3.2-3.1,3-3,3-6.1,0-8.4-8.4-16.8-16.8-25.3-25.3-.6-.6-1-1.3-1.9-1.6-.5.7-.2,1.5-.2,2.2,0,13.2,0,26.4,0,39.6,0,1.9-.5,2.4-2.4,2.4-4.1-.1-4.2,0-4.2-4.1,0-13.3,0-26.5,0-39.9-1,0-1.4.9-2,1.4-9,8.9-18,17.9-26.8,26.9-1.3,1.3-2,1.4-3.3,0-3.1-3.3-3.3-3.4.1-6.5,8.7-8.1,16.9-16.7,25.4-25,.5-.5,1-1.1,1.9-1.9-1.1,0-1.8,0-2.5,0-13.2,0-26.4,0-39.6,0-1.8,0-2.5-.2-2.4-2.3.2-4.4,0-4.4,4.4-4.4,12.4,0,24.7,0,37.1,0,.8,0,1.6.2,2.6-.3-.6-.6-1.1-1.2-1.6-1.8-8.8-8.9-17.7-17.7-26.6-26.5-1.3-1.3-1.7-2.1,0-3.5,3.1-2.9,3-3,5.9,0,8.5,8.5,17.1,17.1,25.6,25.6.5.5.9,1.2,1.4,1.9.9-1,.6-1.8.6-2.5,0-13.3,0-26.5,0-39.8,0-1.8.5-2.3,2.3-2.2,4.3.1,4.3,0,4.3,4.2,0,13.3,0,26.5,0,39.8.2.1.4.3.6.4Z"/>
</svg>