<?xml version="1.0" encoding="utf-8"?>
<!-- Generator: Adobe Illustrator 28.2.0, SVG Export Plug-In . SVG Version: 6.00 Build 0)  -->
<svg version="1.1" id="图层_1" xmlns="http://www.w3.org/2000/svg" xmlns:xlink="http://www.w3.org/1999/xlink" x="0px" y="0px"
	 width="256px" height="256px" viewBox="0 0 256 256" style="enable-background:new 0 0 256 256;" xml:space="preserve">
<style type="text/css">
	.st0{clip-path:url(#SVGID_00000096741287065300196520000001370332905105938562_);}
	.st1{fill-rule:evenodd;clip-rule:evenodd;fill:#9E232F;}
	.st2{fill-rule:evenodd;clip-rule:evenodd;fill-opacity:0.3;}
	.st3{fill-rule:evenodd;clip-rule:evenodd;fill:url(#SVGID_00000134246840216111553570000007027238888712419972_);}
	.st4{fill:#9E232F;}
	.st5{fill:#A1262C;}
	.st6{fill:#A02A2E;}
	.st7{fill:#9E252C;}
	.st8{fill:#A21F2C;}
	.st9{fill:#A0242F;}
	.st10{fill:#9D292B;}
	.st11{fill:#A23031;}
	.st12{fill:#A5212A;}
	.st13{fill:#A12227;}
	.st14{fill:#A14537;}
	.st15{fill:#A05548;}
	.st16{fill:#A05843;}
	.st17{fill:#955947;}
	.st18{fill:#935948;}
	.st19{fill:#BDB8B4;}
	.st20{fill:#9E212C;}
</style>
<g>
	<g>
		<defs>
			<rect id="SVGID_1_" width="256" height="256"/>
		</defs>
		<clipPath id="SVGID_00000070822758326830398410000009839322388822591908_">
			<use xlink:href="#SVGID_1_"  style="overflow:visible;"/>
		</clipPath>
		<g style="clip-path:url(#SVGID_00000070822758326830398410000009839322388822591908_);">
			<path class="st1" d="M104.4,42.4C100,37.1,93.5,34,86.6,34H29c-6.6,0-12,5.4-12,12v12.1v10.1V160c0,6.6,5.4,12,12,12h200
				c6.6,0,12-5.4,12-12V70.1c0-6.6-5.4-12-12-12H117.4L104.4,42.4z"/>
			<g>
				<g>
					<path class="st2" d="M92.8,74c5,0,9.8-1.6,13.8-4.6l9.9-7.4H229c6.6,0,12,5.4,12,12v34v52c0,6.6-5.4,12-12,12H29
						c-6.6,0-12-5.4-12-12v-52V86c0-6.6,5.4-12,12-12h58H92.8z"/>
				</g>
			</g>
			<g>
				
					<linearGradient id="SVGID_00000080184233745119437080000016954261837810557063_" gradientUnits="userSpaceOnUse" x1="17" y1="304" x2="241" y2="452" gradientTransform="matrix(1 0 0 1 0 -242)">
					<stop  offset="0" style="stop-color:#FBFAFA"/>
					<stop  offset="1" style="stop-color:#E9E4E4"/>
				</linearGradient>
				<path style="fill-rule:evenodd;clip-rule:evenodd;fill:url(#SVGID_00000080184233745119437080000016954261837810557063_);" d="
					M92.8,74c5,0,9.8-1.6,13.8-4.6l9.9-7.4H229c6.6,0,12,5.4,12,12v34v90c0,6.6-5.4,12-12,12H29c-6.6,0-12-5.4-12-12v-90V86
					c0-6.6,5.4-12,12-12h58H92.8z"/>
			</g>
		</g>
	</g>
</g>
<g>
	<g>
		<path class="st4" d="M166.4,146.2c0,0.3,0,0.7-0.1,1c-0.2,0.3-0.4,0.7-0.5,1c-2.5,0.6-3.4,2.7-2.5,5.9c0.5,1.8,0.7,3.7,1,5.5
			c0.5,3.5,0.8,7,1.4,10.5c0.5,2.9-0.8,7.2-3.2,8.8c-0.7,0.5-2.1,0.6-2.9,0.2c-1.7-0.7-3.4-1.7-4.9-2.8c-0.7-0.5-1.2-1.7-1.3-2.6
			c-0.2-1.4,0.3-2.9,0-4.3c-1-6.2-1.3-12.3-1.2-18.6c0.1-3.8-0.5-7.7-0.4-11.5c0-1.7,0.7-3.5,1.6-5c1.2-2,0.4-3.7-0.2-5.5
			c-0.6-1.8-1.8-3.2-4-2.9c0-0.8-0.2-1.6-0.1-2.4c0.3-2.4-1.3-4-3.6-3.1c-1.5,0.6-3.2,1.7-4,3c-1.7,2.7-3.4,5.7-4.3,8.7
			c-0.7,2.5-1.2,4.8-4.1,5.4c-0.3,0.1-0.6,0.6-0.8,1c-1.2,2.7-2.2,5.6-3.5,8.3c-1.5,3.1-1.3,7.7-6.5,7.6c-0.2,0-0.4,0.5-0.7,0.7
			c-0.4-0.2-0.8-0.3-1-0.6c-3.4-4.8-5-10.3-6.7-15.8c-0.4-1.2-1.2-2.5-1-3.6c0.8-6-4.8-9.1-6.1-14c0,0-0.3,0-0.7,0.1
			c-0.5,2.6,0.7,5.7-1.7,8c-0.2-1.4-0.5-2.8-0.5-4.2c0-2-0.7-2.6-2.5-1.4c-0.6,0.4-1.3,0.9-1.9,1.4c-1.2,0.9-2.3,1-3-0.5
			c-0.5-1-0.7-2-1-3.1c0.3-0.3,0.9-0.6,1-1c0.5-2,1-4,1.2-6c0.3-2.3,0.2-4.5,0.5-6.8c0.2-1.8,0.4-3.6,1-5.3c0.7-1.9,2-2,3.6-0.6
			c0.8,0.7,1.5,1.5,2.4,1.9c2.9,1.2,4.5,3.3,5.5,6.1c1.7,4.5,3.5,9,5.1,13.5c0.7,2,1.3,4,1.5,6.1c0.5,3.9,1.6,5,5.7,5
			c0,0.5,0,1,0.1,1.6c0.2,0.3,0.3,0.7,0.5,1c2,1.6,4.7,1.3,6.5-1.1c1.2-1.6,2.1-3.5,3-5.3c2.8-5.6,5.5-11.3,8.2-16.9
			c1.4-2.9,2.5-5.9,3.9-8.7c1.4-2.7,3.1-5.1,6.5-5.5c-0.4-1.1-0.7-1.9-0.9-2.6c2.9,0.9,5.6,1.8,8.3,2.7c0.3,0.1,0.6,0.4,0.8,0.7
			c1.6,2.3,2.9,4.7,2.3,7.7c-0.9,3.9-0.3,7.7,1.2,11.3c0.3,0.6,0.1,1.5,0,2.2c-0.6,3.8-1.1,7.6-1.8,11.4c-0.4,2.1,0.9,4.1,0.8,5.8
			C162,142.3,162.5,145,166.4,146.2z"/>
		<path class="st5" d="M149.2,125.9c2.3-0.3,3.4,1.2,4,2.9c0.6,1.7,1.4,3.5,0.2,5.5c-0.9,1.4-1.5,3.3-1.6,5
			c-0.1,3.8,0.5,7.7,0.4,11.5c-0.1,6.2,0.2,12.4,1.2,18.6c0.2,1.4-0.2,2.9,0,4.3c0.1,0.9,0.6,2.1,1.3,2.6c1.5,1.1,3.2,2.1,4.9,2.8
			c0.8,0.3,2.1,0.2,2.9-0.2c2.4-1.5,3.7-5.9,3.2-8.8c-0.6-3.5-0.9-7-1.4-10.5c-0.3-1.9-0.5-3.7-1-5.5c-0.8-3.1,0-5.3,2.5-5.9
			c1.9,1.7,2.8,4.5,1.7,6.9c-1.3,2.8-0.2,4.5,1.9,6.1c0.2,0.4,0.7,1,0.6,1.3c-1,1.9,0.8,3.8,0.3,5.4c-1.1,4.3,0.6,8.4,0.3,12.6
			c-0.1,0.9-0.6,2.2-1.3,2.6c-3.4,1.8-6.6,4.1-10.8,3c-1.7-0.4-3.8,0-5-0.9c-1.7-1.2-2.9-3.2-3.9-5.1c-0.7-1.4-0.9-3.1-1.2-4.8
			c-0.2-0.9-0.5-2.1,0-2.8c1.6-2.3,1.1-4.7,1-7.2c-0.1-7.1-0.1-14.2-0.2-21.3c0-0.4-0.2-0.8-0.4-1.2c0.1-0.5,0.3-1,0.3-1.4
			c0-4.3,0-8.7,0.1-13c0.3-0.1,0.5-0.3,0.8-0.4c-0.3-0.2-0.5-0.4-0.8-0.6C149.2,126.9,149.2,126.4,149.2,125.9z"/>
		<path class="st6" d="M166.4,146.2c-4-1.2-4.4-4-4-7.8c0.2-1.7-1.1-3.7-0.8-5.8c0.7-3.8,1.2-7.6,1.8-11.4c0.1-0.7,0.2-1.6,0-2.2
			c-1.6-3.7-2.1-7.4-1.2-11.3c0.6-3-0.7-5.4-2.3-7.7c-0.2-0.3-0.5-0.6-0.8-0.7c-2.7-0.9-5.4-1.7-8.3-2.7c0.2,0.7,0.5,1.5,0.9,2.6
			c-3.3,0.4-5.1,2.9-6.5,5.5c-1.5,2.8-2.6,5.8-3.9,8.7c-2.7,5.7-5.4,11.3-8.2,16.9c-0.9,1.8-1.8,3.7-3,5.3c-1.8,2.4-4.4,2.8-6.5,1.1
			c-0.2-0.3-0.3-0.7-0.5-1c0-0.5,0-1-0.1-1.6c-0.5-1.9-1-3.8-1.5-5.7c0.8,2.1,1.7,4.2,2.5,6.3c0.3,0.9,0.6,1.8,1.1,3.1
			c1.8-2.2,4.3-3.3,4.8-6.4c0.3-1.8,1.8-3.5,2.7-5.2c0.1-0.2,0.3-0.4,0.4-0.5c0,0,0,0,0,0c0.1-0.4,0.3-0.7,0.4-1.1c0,0,0,0,0,0
			c0.2-0.3,0.3-0.5,0.5-0.8c0,0,0-0.1,0-0.1c0.2-0.4,0.4-0.8,0.6-1.2c0,0,0,0,0,0c0.5-0.9,1-1.8,1.5-2.7c0,0,0,0,0,0
			c0.2-0.5,0.4-1,0.7-1.5c0,0,0,0,0,0c0.2-0.2,0.3-0.5,0.5-0.7c0-0.1,0-0.2,0.1-0.2c0.5-1.1,1-2.2,1.5-3.3c1-2.1,2.1-4.1,3.1-6.2
			c0.5-0.9,1-1.8,1.5-2.7l0.1,0.1c0,0-0.1,0-0.1,0c0.7-2.1,1.4-4.3,2.1-6.4c1-2.6,3.2-3.4,5.7-3.9c0.7-0.1,1.5-0.3,2.1-0.7
			c3.7-2.8,9.1-2.4,12.2,1.3c0.6,0.7,0.8,2.3,0.6,3.3c-1,3.8,0.9,7.1,1.3,10.6c0.2,1.7,0.3,3.4,0.3,5.1c0,3.9-0.1,7.8-0.2,11.7
			c0,2.6,0,5.2,0.1,7.8c0,0.4,0,0.7,0,1.1C167.5,139,169.2,142.8,166.4,146.2z"/>
		<path class="st7" d="M149.2,128.5c0,4.3,0,8.7-0.1,13c0,0.5-0.2,1-0.3,1.4c0-4.3,0-8.6-0.1-12.9c0-1.1-0.2-2.3-0.9-3.5
			c-1.3,2.4-2.7,4.7-4,7.1c-2.8,5-5.3,10.2-8.3,15c-1.8,2.9-4.4,5.4-6.6,8c-1,0.6-2.1,1.2-3.1,1.8l-0.1,0.2c0,0-0.2,0-0.2,0
			c-0.3,0.2-0.5,0.3-0.8,0.5c0,0,0,0,0,0c-0.8-0.3-1.6-0.5-2-0.7c-0.5-1.4-0.8-2.5-1.2-3.5c0.2-0.3,0.4-0.8,0.7-0.7
			c5.2,0.1,5.1-4.5,6.5-7.6c1.3-2.7,2.3-5.5,3.5-8.3c0.2-0.4,0.4-0.9,0.8-1c3-0.6,3.4-2.9,4.1-5.4c0.9-3.1,2.6-6,4.3-8.7
			c0.9-1.3,2.5-2.4,4-3c2.3-0.9,3.9,0.7,3.6,3.1c-0.1,0.8,0.1,1.6,0.1,2.4c0,0.5,0,1,0,1.6C149.2,127.8,149.2,128.2,149.2,128.5z"/>
		<path class="st8" d="M121.5,128.5c0.5,1.9,1,3.8,1.5,5.7c-4.1,0-5.3-1.1-5.7-5c-0.2-2.1-0.8-4.1-1.5-6.1c-1.6-4.5-3.5-9-5.1-13.5
			c-1-2.8-2.6-5-5.5-6.1c-0.9-0.4-1.7-1.2-2.4-1.9c-1.6-1.4-2.9-1.4-3.6,0.6c-0.6,1.7-0.8,3.5-1,5.3c-0.2,2.3-0.2,4.5-0.5,6.8
			c-0.3,2-0.7,4-1.2,6c-0.1,0.4-0.6,0.7-1,1c-0.5,0-1.1,0-1.6,0c-0.1-2.3-0.3-4.6-0.4-6.8c0-0.3,0-0.7,0-1c0.4-0.1,1.1-0.1,1.2-0.3
			c0.7-2.9,1.3-5.8,1.9-8.6c0.9-2.6,1.8-5.1,2.7-7.7c1.4-0.5,2.8-1.2,4.2-1.5c1.1-0.2,2.3,0,3.5,0c0,0,0,0,0,0
			c0.2,0.2,0.3,0.3,0.5,0.5c0,0,0,0,0,0c0.1,0.2,0.3,0.4,0.4,0.5l0,0.1c0.3,0.7,0.5,1.4,0.9,2.1c2.3,4.5,4.7,9,6.8,13.6
			c1.6,3.5,3,7.2,4.4,10.8c0.3,1.2,0.6,2.3,0.9,3.5C121.2,127,121.3,127.8,121.5,128.5z"/>
		<path class="st9" d="M83.9,159.1c1-4.7,2-9.3,3-14c0.2-1,0.2-2.1,0.2-3.1c0.7-1,1.4-2.1,2.1-3.1c0.5-0.4,1.1-0.8,1.6-1.2
			c1.6-1.4,2.2-4.5,6.1-2.9c-0.7,3-1.4,6.1-2.1,9.1c-0.9,4.3-3.6,8.4-1.6,13.2c0.8,1.9-0.8,3.4-2.6,4.2c-0.9,0.4-1.9,0.7-2.9,1.1
			c-0.3-1-1.1-2-0.9-2.9c0.6-4.3,1.6-8.6,2.3-12.9c0.1-0.7-0.3-1.5-0.4-2.2c-0.2,0-0.5,0.1-0.7,0.1c-0.8,4-1.5,8-2.4,12
			C85.3,157.4,84.5,158.2,83.9,159.1z"/>
		<path class="st10" d="M104.9,133.3c-1.4,7.4-2.8,14.7-4.3,22.1c-0.2,1.1-1.2,2.1-2,3.4c0.1,0.1,0.6,0.4,1,0.6c0,0.7,0,1.3,0,2
			c-1.2,0.5-2.4,1-3.5,1.7c-1.5,0.9-2.9,2-4.3,3c1.6-2.1,3.3-4.2,4.7-6.4c0.5-0.7,0.7-2.1,0.3-2.8c-1.1-2-1.1-3.9-0.1-5.9
			c0.5-1,0.5-2.3,0.6-3.4c0.2-1.6,0.1-3.2,0.5-4.8c0.6-2.3,1.6-4.6,2.2-6.9c1.1-3.9,1-3.9,4.8-3.6
			C104.9,132.5,104.9,132.9,104.9,133.3z"/>
		<path class="st11" d="M104.9,133.3c0-0.4,0-0.8-0.1-1.2c-0.2-1-0.3-2.1-0.5-3.1c2.4-2.3,1.2-5.3,1.7-8c0.4,0,0.7-0.1,0.7-0.1
			c1.3,5,6.9,8.1,6.1,14c-0.2,1.1,0.6,2.4,1,3.6c1.7,5.5,3.3,11,6.7,15.8c0.2,0.3,0.7,0.4,1,0.6c0.3,1.1,0.7,2.1,1.2,3.5
			c0.4,0.1,1.2,0.4,2,0.7c-2.5,0.7-7.5-1.8-8.4-4.4c-2.7-8.3-5.2-16.6-7.8-24.9c-0.1-0.2-0.1-0.5-0.2-0.7c-0.4-1-0.9-2-1.3-2.9
			c-0.5,1.2-1.2,2.3-1.6,3.6C105.1,131,105.1,132.2,104.9,133.3z"/>
		<path class="st12" d="M83.9,159.1c0.5-0.9,1.3-1.8,1.6-2.8c0.9-4,1.6-8,2.4-12c0.2,0,0.5-0.1,0.7-0.1c0.2,0.7,0.6,1.5,0.4,2.2
			c-0.7,4.3-1.6,8.6-2.3,12.9c-0.1,0.9,0.6,2,0.9,2.9c0.8,1.6,0.3,4.1,3.1,4.2c0.2,1.1,0.4,2.1,0.5,3.2c0,0.3,0,0.7,0,1
			c0,0.5-0.1,1-0.1,1.5c-2.1-0.6-4.3-1.1-6.4-1.9c-0.6-0.2-1.1-1.1-1.2-1.7c-0.3-2.1-0.3-4.1-0.5-6.2c0-0.5,0-1,0-1.5
			C83.3,160.3,83.6,159.7,83.9,159.1L83.9,159.1z"/>
		<path class="st13" d="M91.3,169.7c-0.2-1.1-0.4-2.1-0.5-3.2c0.3-0.2,0.7-0.4,1-0.5c1.4-1,2.8-2.1,4.3-3c1.1-0.7,2.3-1.1,3.5-1.7
			c0.9,2.6,0.1,4.8-1.5,6.9c0,0,0,0,0,0c-1,1.3-2.1,2.7-3.1,4.1c-0.6-0.6-1.1-1.1-1.7-1.6c-0.1-0.1-0.1-0.2-0.1-0.3
			C93.2,168.5,92.2,169.3,91.3,169.7z"/>
		<path class="st14" d="M93.4,114.4c0.1,2.3,0.3,4.6,0.4,6.8c0.2,1,0.5,2,0.5,3c0,1.8,0.4,4.4-0.5,5.1c-1.6,1.1-2,2.3-2.2,3.9
			c-0.1,0.6-0.8,1-1.2,1.5c-0.1-0.1-0.2-0.2-0.2-0.2c0.1-1.5,0.1-3,0.4-4.5C91.4,124.9,92.4,119.7,93.4,114.4z"/>
		<path class="st15" d="M120.1,122.8c-1.5-3.6-2.8-7.3-4.4-10.8c-2.1-4.6-4.5-9-6.8-13.6c-0.3-0.7-0.6-1.4-0.9-2.1
			c2.1,3.3,4.5,6.5,6.2,10c2.3,4.8,4,9.8,5.9,14.7C120.3,121.5,120.1,122.2,120.1,122.8z"/>
		<path class="st6" d="M169.4,161.3c-2.1-1.6-3.2-3.4-1.9-6.1c1.1-2.4,0.3-5.2-1.7-6.9c0.2-0.3,0.4-0.7,0.5-1c3.1,2.9,3.6,4.3,2,7.8
			C167,157.6,168.9,159.3,169.4,161.3z"/>
		<path class="st16" d="M83.1,162.3c0.1,2.1,0.2,4.2,0.5,6.2c0.1,0.6,0.7,1.5,1.2,1.7c2.1,0.8,4.3,1.3,6.4,1.9
			c-0.2,0.2-0.5,0.7-0.7,0.7c-0.7-0.1-1.5-0.4-2.2-0.6C82.2,170.5,81.2,168.6,83.1,162.3z"/>
		<path class="st14" d="M96.5,104.4c-0.6,2.9-1.2,5.8-1.9,8.6c0,0.2-0.8,0.2-1.2,0.3C94.4,110.4,95.5,107.4,96.5,104.4z"/>
		<path class="st14" d="M89.2,138.9c-0.7,1-1.4,2.1-2.1,3.1c0.7-2.6,0.5-5.5,3-7.4c0.1,0.1,0.2,0.2,0.2,0.2
			C90,136.2,89.6,137.6,89.2,138.9z"/>
		<path class="st16" d="M98.2,168.2c1.6-2.1,2.4-4.3,1.5-6.9c0-0.7,0-1.3,0-2c0.4,0.9,1,1.8,1.2,2.8
			C101.4,164.3,99.8,167.7,98.2,168.2z"/>
		<path class="st16" d="M93.4,170.6c0.5,0.5,1,1,1.7,1.6c1-1.4,2.1-2.7,3.1-4.1c-0.6,1.5-1.1,3-1.8,4.4c-0.2,0.4-1.5,0.6-1.8,0.3
			C94,172.3,93.8,171.4,93.4,170.6z"/>
		<path class="st15" d="M106.9,95.2c-1.2,0-2.4-0.2-3.5,0c-1.5,0.3-2.8,1-4.2,1.5C100.4,94.1,104.5,93.2,106.9,95.2z"/>
		<path class="st17" d="M145.4,99.1c-0.7,2.1-1.4,4.3-2.1,6.4C144,103.3,144.7,101.2,145.4,99.1z"/>
		<path class="st11" d="M125.8,158.6c1-0.6,2.1-1.2,3.1-1.8C127.8,157.3,126.8,157.9,125.8,158.6z"/>
		<path class="st18" d="M138.7,114.3c-0.5,1.1-1,2.2-1.5,3.3C137.7,116.5,138.2,115.4,138.7,114.3z"/>
		<path class="st17" d="M143.3,105.5c-0.5,0.9-1,1.8-1.5,2.7C142.3,107.3,142.8,106.4,143.3,105.5z"/>
		<path class="st18" d="M136,120.1c-0.5,0.9-1,1.8-1.5,2.7C135,121.9,135.5,121,136,120.1z"/>
		<path class="st16" d="M91.3,169.7c0.9-0.4,1.9-1.2,2,0.6c-0.7,0.1-1.4,0.3-2,0.4C91.3,170.4,91.3,170.1,91.3,169.7z"/>
		<path class="st19" d="M167.4,135.3c0-0.4,0-0.7,0-1.1c0.5,0.1,0.9,0.2,1.4,0.2c0,0.1,0,0.3,0.1,0.4
			C168.4,135,167.9,135.2,167.4,135.3z"/>
		<path class="st9" d="M83.9,159.2c-0.3,0.5-0.6,1.1-0.9,1.6C83.3,160.3,83.6,159.7,83.9,159.2z"/>
		<path class="st18" d="M136.7,118.6c-0.2,0.5-0.4,1-0.7,1.5C136.2,119.6,136.4,119.1,136.7,118.6z"/>
		<path class="st18" d="M133.5,124.8c-0.1,0.4-0.3,0.7-0.4,1.1C133.2,125.5,133.3,125.2,133.5,124.8z"/>
		<path class="st18" d="M134.5,122.7c-0.2,0.4-0.4,0.8-0.6,1.2C134.2,123.5,134.4,123.1,134.5,122.7z"/>
		<path class="st11" d="M124.7,159.3c0.3-0.2,0.5-0.3,0.8-0.5C125.2,158.9,125,159.1,124.7,159.3z"/>
		<path class="st15" d="M107.9,96.2c-0.1-0.2-0.3-0.4-0.4-0.5C107.6,95.9,107.8,96,107.9,96.2z"/>
		<path class="st15" d="M107.5,95.7c-0.2-0.2-0.3-0.3-0.5-0.5C107.1,95.3,107.3,95.5,107.5,95.7z"/>
		<path class="st18" d="M133,125.9c-0.1,0.2-0.3,0.4-0.4,0.5C132.7,126.3,132.9,126.1,133,125.9z"/>
		<path class="st18" d="M137.1,117.9c-0.2,0.2-0.3,0.5-0.5,0.7C136.8,118.4,137,118.1,137.1,117.9z"/>
		<path class="st18" d="M133.9,124c-0.2,0.3-0.3,0.5-0.5,0.8C133.6,124.6,133.8,124.3,133.9,124z"/>
		<path class="st20" d="M89.2,138.9c0.4-1.4,0.8-2.7,1.2-4.1c0.4-0.5,1.2-1,1.2-1.5c0.2-1.6,0.6-2.8,2.2-3.9
			c0.9-0.7,0.5-3.3,0.5-5.1c0-1-0.3-2-0.5-3c0.5,0,1.1,0,1.6,0c0.3,1,0.6,2.1,1,3.1c0.7,1.4,1.8,1.4,3,0.5c0.6-0.5,1.2-0.9,1.9-1.4
			c1.8-1.2,2.4-0.6,2.5,1.4c0,1.4,0.3,2.8,0.5,4.2c0.2,1,0.3,2.1,0.5,3.1c-3.8-0.3-3.7-0.2-4.8,3.6c-0.6,2.3-1.6,4.6-2.2,6.9
			c-0.4,1.5-0.3,3.2-0.5,4.8c-0.1,1.2-0.2,2.4-0.6,3.4c-0.9,2.1-1,3.9,0.1,5.9c0.4,0.7,0.2,2.1-0.3,2.8c-1.4,2.2-3.1,4.3-4.7,6.4
			c-0.3,0.2-0.7,0.3-1,0.5c-2.9,0-2.4-2.6-3.1-4.2c1-0.4,2-0.6,2.9-1.1c1.8-0.8,3.4-2.3,2.6-4.2c-1.9-4.8,0.7-8.9,1.6-13.2
			c0.6-3.1,1.4-6.1,2.1-9.1c-3.9-1.6-4.5,1.5-6.1,2.9C90.3,138.1,89.8,138.5,89.2,138.9z"/>
		<path class="st8" d="M123.1,135.8c0.2,0.3,0.3,0.7,0.5,1C123.4,136.5,123.3,136.1,123.1,135.8z"/>
		<path class="st4" d="M149.2,128.5c0-0.4,0-0.7,0-1.1c0.3,0.2,0.5,0.4,0.8,0.6C149.7,128.2,149.5,128.4,149.2,128.5z"/>
	</g>
</g>
</svg>
