<?xml version="1.0" encoding="utf-8"?>
<!-- Generator: Adobe Illustrator 28.1.0, SVG Export Plug-In . SVG Version: 6.00 Build 0)  -->
<svg version="1.1" id="图层_1" xmlns="http://www.w3.org/2000/svg" xmlns:xlink="http://www.w3.org/1999/xlink" x="0px" y="0px"
	 width="256px" height="256px" viewBox="0 0 256 256" style="enable-background:new 0 0 256 256;" xml:space="preserve">
<style type="text/css">
	.st0{fill-rule:evenodd;clip-rule:evenodd;fill:#002D59;}
	.st1{fill-rule:evenodd;clip-rule:evenodd;fill:url(#SVGID_1_);filter:url(#Adobe_OpacityMaskFilter);}
	.st2{mask:url(#mask0_741_16697_00000121272192554413584610000009308662100036441496_);}
	.st3{fill-rule:evenodd;clip-rule:evenodd;fill-opacity:0.3;}
	.st4{fill-rule:evenodd;clip-rule:evenodd;fill:#455E9C;stroke:#002D59;stroke-miterlimit:10;}
	.st5{display:none;fill:#FFFFFF;}
	.st6{fill-rule:evenodd;clip-rule:evenodd;fill:#FFFFFF;}
	.st7{fill-rule:evenodd;clip-rule:evenodd;fill:#C2CADE;}
</style>
<path class="st0" d="M104.4,42.4c-4.4-5.3-10.9-8.4-17.8-8.4H29c-6.6,0-12,5.4-12,12v12.1v10.1V160c0,6.6,5.4,12,12,12h200
	c6.6,0,12-5.4,12-12V70.1c0-6.6-5.4-12-12-12H117.4L104.4,42.4z"/>
<defs>
	<filter id="Adobe_OpacityMaskFilter" filterUnits="userSpaceOnUse" x="17" y="62" width="224" height="110">
		<feColorMatrix  type="matrix" values="1 0 0 0 0  0 1 0 0 0  0 0 1 0 0  0 0 0 1 0"/>
	</filter>
</defs>
<mask maskUnits="userSpaceOnUse" x="17" y="62" width="224" height="110" id="mask0_741_16697_00000121272192554413584610000009308662100036441496_">
	
		<linearGradient id="SVGID_1_" gradientUnits="userSpaceOnUse" x1="32.5816" y1="239.5494" x2="213.3495" y2="58.4074" gradientTransform="matrix(1 0 0 -1 0 258)">
		<stop  offset="0" style="stop-color:#05815D"/>
		<stop  offset="1" style="stop-color:#0C575F"/>
	</linearGradient>
	<path class="st1" d="M104.4,42.4c-4.4-5.3-10.9-8.4-17.8-8.4H29c-6.6,0-12,5.4-12,12v12.1v10.1V160c0,6.6,5.4,12,12,12h200
		c6.6,0,12-5.4,12-12V70.1c0-6.6-5.4-12-12-12H117.4L104.4,42.4z"/>
</mask>
<g class="st2">
	<g>
		<path class="st3" d="M92.8,74c5,0,9.8-1.6,13.8-4.6l9.9-7.4H229c6.6,0,12,5.4,12,12v34v52c0,6.6-5.4,12-12,12H29
			c-6.6,0-12-5.4-12-12v-52V86c0-6.6,5.4-12,12-12h58H92.8z"/>
	</g>
</g>
<g>
	<path class="st4" d="M92.8,74c5,0,9.8-1.6,13.8-4.6l9.9-7.4H229c6.6,0,12,5.4,12,12v34v90c0,6.6-5.4,12-12,12H29
		c-6.6,0-12-5.4-12-12v-90V86c0-6.6,5.4-12,12-12h58H92.8z"/>
</g>
<path class="st5" d="M144,120.2l-15.2,15.3l-15.3-15.3l15.3-15.2L144,120.2z"/>
<path class="st5" d="M144,150.7L128.8,166l-15.3-15.3l15.3-15.3L144,150.7z"/>
<path class="st5" d="M113.5,120.2l-15.3,15.3L83,120.2L98.3,105L113.5,120.2z"/>
<path class="st5" d="M174.5,120.2l-15.2,15.3L144,120.2l15.3-15.2L174.5,120.2z"/>
<g>
	<path class="st6" d="M147.3,167.2c-3.5,0-6.7,0-10.4,0c3.7-6.4,7.2-12.5,10.9-18.8c-3.5-6-6.9-12.1-10.5-18.4c3.6,0,6.8,0,10.3,0
		c1.8,3.7,3.7,7.5,5.8,11.7c2-4,3.9-7.9,5.9-11.8c3.4,0,6.7,0,10.5,0c-3.6,6.3-7.1,12.2-10.6,18.4c3.7,6.1,7.5,12.3,11.5,18.9
		c-4,0-7.4,0-11,0c-2-3.9-4-7.9-6.1-12.2C151.3,159.4,149.3,163.3,147.3,167.2z"/>
	<path class="st6" d="M122.5,150.7c0,2.7,0,4.9,0,7.5c4.2,0,8.3,0,12.7,0c0,2.5,0,4.7,0,7.2c-4.2,0-8.4,0-12.6,0c0,2.9,0,5.6,0,8.7
		c5.1,0,10,0,15.2,0c0,2.6,0,4.7,0,7.1c-8.2,0-16.3,0-24.6,0c0-12.4,0-24.8,0-37.3c8.2,0,16.3,0,24.6,0c0,2.3,0,4.4,0,6.8
		C132.7,150.7,127.8,150.7,122.5,150.7z"/>
	<path class="st7" d="M97.6,95.7c2.8,0,5.4,0,8.2,0c1.9,5.8,3.7,11.5,5.8,17.8c2.1-6.2,3.9-12,5.9-17.8c2.8,0,5.4,0,8.2,0
		c0,8.8,0,17.5,0,26.3c-2.1,0-4,0-6.2,0c0-4.9,0-9.8,0-14.6c-0.2,0-0.3,0-0.5-0.1c-1.7,4.9-3.4,9.7-5.2,14.7c-1.5,0-2.8,0-4.4,0
		c-1.7-5-3.4-10.1-5.1-15.1c-0.1,0-0.3,0-0.4,0.1c0,4.9,0,9.8,0,15c-2.1,0-4,0-6.2,0C97.6,113.3,97.6,104.6,97.6,95.7z"/>
	<path class="st6" d="M107.6,136.9c0,10.4,0,20.2,0,30.3c-3,0-5.8,0-9,0c0-9.9,0-19.9,0-30.1c-3.3,0-6.3,0-9.5,0c0-2.5,0-4.7,0-7
		c9.4,0,18.7,0,28.2,0c0,2.3,0,4.4,0,6.9C114.2,136.9,111.1,136.9,107.6,136.9z"/>
	<path class="st7" d="M146.5,111.9c0,3.3,0,6.6,0,10.1c-2.2,0-4.2,0-6.4,0c0-8.7,0-17.3,0-26.2c2,0,4,0,6.4,0c0,3.3,0,6.5,0,9.8
		c0.3,0.1,0.5,0.1,0.8,0.2c2-3.4,4-6.7,6.1-10.1c2.5,0,4.9,0,8,0c-2.9,4.2-5.5,8.1-8.2,12c2.9,4.7,5.8,9.3,8.9,14.3
		c-2.9,0-5.3,0-8.2,0c-2-3.3-4.1-6.9-6.3-10.6C147.1,111.6,146.8,111.7,146.5,111.9z"/>
	<path class="st7" d="M129.7,122c0-6.5,0-12.8,0-19.4c2.1,0,4,0,6.2,0c0,6.4,0,12.8,0,19.4C133.9,122,132,122,129.7,122z"/>
	<path class="st7" d="M129.6,98c0-1.6,0-2.7,0-4.1c2.1,0,4,0,6.3,0c0,1.3,0,2.6,0,4.1C133.8,98,131.8,98,129.6,98z"/>
</g>
</svg>
