<?xml version="1.0" encoding="UTF-8"?>
<svg xmlns="http://www.w3.org/2000/svg" width="256" height="256" version="1.1" xmlns:xlink="http://www.w3.org/1999/xlink" viewBox="0 0 256 256">
  <defs>
    <style>
      .cls-1 {
        fill-opacity: .3;
      }

      .cls-1, .cls-2, .cls-3 {
        fill-rule: evenodd;
      }

      .cls-2 {
        fill: url(#_未命名的渐变_24);
      }

      .cls-4, .cls-5 {
        fill: none;
      }

      .cls-6 {
        fill: #f9f9f9;
      }

      .cls-5 {
        stroke: #fff;
        stroke-width: 1.4px;
      }

      .cls-7 {
        isolation: isolate;
      }

      .cls-3 {
        fill: url(#_未命名的渐变_3);
      }

      .cls-8 {
        fill: #d3d3d3;
      }

      .cls-9 {
        mix-blend-mode: multiply;
      }

      .cls-10 {
        fill: #d24646;
      }

      .cls-11 {
        clip-path: url(#clippath);
      }

      .cls-12 {
        fill: #2a58ae;
      }
    </style>
    <clipPath id="clippath">
      <rect class="cls-4" width="256" height="256"/>
    </clipPath>
    <linearGradient id="_未命名的渐变_24" data-name="未命名的渐变 24" x1="17.1" y1="154.9" x2="241.1" y2="154.9" gradientTransform="translate(-.1 257.9) scale(1 -1)" gradientUnits="userSpaceOnUse">
      <stop offset="0" stop-color="#2a58ae"/>
      <stop offset=".3" stop-color="#2b59ae"/>
      <stop offset=".4" stop-color="#325eaf"/>
      <stop offset=".4" stop-color="#3f67b2"/>
      <stop offset=".5" stop-color="#5073b6"/>
      <stop offset=".6" stop-color="#6684bb"/>
      <stop offset=".6" stop-color="#8298c1"/>
      <stop offset=".6" stop-color="#a3b0c8"/>
      <stop offset=".7" stop-color="#c9cbd0"/>
      <stop offset=".7" stop-color="#d3d3d3"/>
      <stop offset=".7" stop-color="#d2c0c0"/>
      <stop offset=".7" stop-color="#d29f9f"/>
      <stop offset=".7" stop-color="#d28383"/>
      <stop offset=".8" stop-color="#d26c6c"/>
      <stop offset=".8" stop-color="#d25b5b"/>
      <stop offset=".8" stop-color="#d24f4f"/>
      <stop offset=".9" stop-color="#d24747"/>
      <stop offset="1" stop-color="#d24646"/>
    </linearGradient>
    <linearGradient id="_未命名的渐变_3" data-name="未命名的渐变 3" x1="17.1" y1="884.1" x2="241.1" y2="1032.1" gradientTransform="translate(-.1 -821.9)" gradientUnits="userSpaceOnUse">
      <stop offset="0" stop-color="#5f585e"/>
      <stop offset="1" stop-color="#010101"/>
    </linearGradient>
  </defs>
  <!-- Generator: Adobe Illustrator 28.6.0, SVG Export Plug-In . SVG Version: 1.2.0 Build 709)  -->
  <g>
    <g id="_图层_1" data-name="图层_1">
      <g class="cls-7">
        <g id="_图层_1-2" data-name="_图层_1">
          <g class="cls-11">
            <g>
              <path class="cls-2" d="M104.4,42.4c-4.4-5.3-10.9-8.4-17.8-8.4H29c-6.6,0-12,5.4-12,12v114c0,6.6,5.4,12,12,12h200c6.6,0,12-5.4,12-12v-89.9c0-6.6-5.4-12-12-12h-111.6l-13-15.8h0Z"/>
              <g class="cls-9">
                <path class="cls-1" d="M92.8,74c5,0,9.8-1.6,13.8-4.6l9.9-7.4h112.5c6.6,0,12,5.4,12,12v86c0,6.6-5.4,12-12,12H29c-6.6,0-12-5.4-12-12v-74c0-6.6,5.4-12,12-12h63.8Z"/>
              </g>
              <path class="cls-3" d="M92.8,74c5,0,9.8-1.6,13.8-4.6l9.9-7.4h112.5c6.6,0,12,5.4,12,12v124c0,6.6-5.4,12-12,12H29c-6.6,0-12-5.4-12-12v-112c0-6.6,5.4-12,12-12h63.8Z"/>
            </g>
          </g>
          <g>
            <path class="cls-5" d="M171.5,118.8c13.2,22.1,10.6,48-5.8,57.8-16.4,9.8-40.3-.1-53.6-22.1-13.2-22.1-10.6-48,5.8-57.8,16.4-9.8,40.3.1,53.6,22.1Z"/>
            <path class="cls-12" d="M139.9,114.9c-15,0-27.2,12.2-27.2,27.2s12.2,27.2,27.2,27.2,27.2-12.2,27.2-27.2-12.2-27.2-27.2-27.2ZM135.1,129.3c10.2,0,18.6,8.2,18.6,18.4s-8.3,18.6-18.6,18.6-18.4-8.3-18.4-18.6,8.2-18.4,18.4-18.4Z"/>
            <path class="cls-6" d="M84.8,139.4s-10.9,10.4-10.1,16.9c1.2,9,12.4,10.4,21.3,10.3,21.6-.2,98.4-25.4,98.1-55.7,0-9.8-17.7-10.6-17.7-10.1,0,0,13,3.3,12.8,9.6-1.1,23.5-65.2,49.8-93.7,50.5-6,.2-14.3-1.1-16.7-6.6-2.1-4.9,5.9-15,5.9-15h0Z"/>
            <path class="cls-10" d="M172.5,112.2c0,7.5-6.1,13.6-13.6,13.6s-13.6-6.1-13.6-13.6,6.1-13.6,13.6-13.6,13.6,6.1,13.6,13.6Z"/>
            <path class="cls-8" d="M134.5,155.7c0,4.5-3.6,8.1-8.1,8.1s-8.1-3.6-8.1-8.1,3.6-8.1,8.1-8.1,8.1,3.6,8.1,8.1Z"/>
          </g>
        </g>
      </g>
    </g>
  </g>
</svg>