<?xml version="1.0" encoding="utf-8"?>
<!-- Generator: Adobe Illustrator 28.1.0, SVG Export Plug-In . SVG Version: 6.00 Build 0)  -->
<svg version="1.1" id="图层_1" xmlns="http://www.w3.org/2000/svg" xmlns:xlink="http://www.w3.org/1999/xlink" x="0px" y="0px"
	 width="256px" height="256px" viewBox="0 0 256 256" style="enable-background:new 0 0 256 256;" xml:space="preserve">
<style type="text/css">
	.st0{fill-rule:evenodd;clip-rule:evenodd;fill:#6D2020;}
	.st1{fill-rule:evenodd;clip-rule:evenodd;fill:url(#SVGID_1_);filter:url(#Adobe_OpacityMaskFilter);}
	.st2{mask:url(#mask0_852_21633_00000059286345047553165710000004655885578001804959_);}
	.st3{fill-rule:evenodd;clip-rule:evenodd;fill-opacity:0.3;}
	.st4{fill-rule:evenodd;clip-rule:evenodd;fill:url(#SVGID_00000161596402983713832360000004538506972236031927_);}
	.st5{display:none;opacity:0.15;}
	.st6{display:inline;opacity:0.15;enable-background:new    ;}
	.st7{display:none;fill:url(#SVGID_00000079447088536872071850000012561822880377455288_);}
	.st8{display:none;fill:url(#SVGID_00000136390725023103107670000003705771694716888241_);}
	.st9{display:none;fill:url(#SVGID_00000173846861770815851740000013405583514359497865_);}
	.st10{display:none;fill:url(#SVGID_00000045582431244230223840000002833833822792448174_);}
	.st11{display:none;fill:url(#SVGID_00000179634134164178028410000007680371283588870307_);}
	.st12{display:none;fill:url(#SVGID_00000015340635948091954250000004549726744706714780_);}
	.st13{display:none;fill:url(#SVGID_00000003066920008046522230000008710780940437118123_);}
	.st14{display:none;fill:url(#SVGID_00000098183888113919509850000013911151616671447169_);}
	.st15{display:none;fill:url(#SVGID_00000168101919118923392900000007513756353855085989_);}
	.st16{display:none;fill:url(#SVGID_00000139255618213756274720000005826914437046968988_);}
	.st17{display:none;fill:url(#SVGID_00000076589882627583047000000006147127459167539593_);}
	.st18{display:none;fill:url(#SVGID_00000023973473495200917220000010131387632379699843_);}
	.st19{fill:#FFFFFF;}
</style>
<path class="st0" d="M104.4,42.4c-4.4-5.3-10.9-8.4-17.8-8.4H29c-6.6,0-12,5.4-12,12v12.1v10.1V160c0,6.6,5.4,12,12,12h200
	c6.6,0,12-5.4,12-12V70.1c0-6.6-5.4-12-12-12H117.4L104.4,42.4z"/>
<defs>
	<filter id="Adobe_OpacityMaskFilter" filterUnits="userSpaceOnUse" x="17" y="62" width="224" height="110">
		<feColorMatrix  type="matrix" values="1 0 0 0 0  0 1 0 0 0  0 0 1 0 0  0 0 0 1 0"/>
	</filter>
</defs>
<mask maskUnits="userSpaceOnUse" x="17" y="62" width="224" height="110" id="mask0_852_21633_00000059286345047553165710000004655885578001804959_">
	
		<linearGradient id="SVGID_1_" gradientUnits="userSpaceOnUse" x1="32.5816" y1="239.5494" x2="213.3495" y2="58.4074" gradientTransform="matrix(1 0 0 -1 0 258)">
		<stop  offset="0" style="stop-color:#05815D"/>
		<stop  offset="1" style="stop-color:#0C575F"/>
	</linearGradient>
	<path class="st1" d="M104.4,42.4c-4.4-5.3-10.9-8.4-17.8-8.4H29c-6.6,0-12,5.4-12,12v12.1v10.1V160c0,6.6,5.4,12,12,12h200
		c6.6,0,12-5.4,12-12V70.1c0-6.6-5.4-12-12-12H117.4L104.4,42.4z"/>
</mask>
<g class="st2">
	<g>
		<path class="st3" d="M92.8,74c5,0,9.8-1.6,13.8-4.6l9.9-7.4H229c6.6,0,12,5.4,12,12v34v52c0,6.6-5.4,12-12,12H29
			c-6.6,0-12-5.4-12-12v-52V86c0-6.6,5.4-12,12-12h58H92.8z"/>
	</g>
</g>
<g>
	
		<linearGradient id="SVGID_00000148642523830673526050000017207142829200314261_" gradientUnits="userSpaceOnUse" x1="7.0322" y1="122" x2="245.102" y2="122" gradientTransform="matrix(1 0 0 -1 0 258)">
		<stop  offset="0" style="stop-color:#7895CB"/>
		<stop  offset="1" style="stop-color:#505990"/>
	</linearGradient>
	<path style="fill-rule:evenodd;clip-rule:evenodd;fill:url(#SVGID_00000148642523830673526050000017207142829200314261_);" d="
		M92.8,74c5,0,9.8-1.6,13.8-4.6l9.9-7.4H229c6.6,0,12,5.4,12,12v34v90c0,6.6-5.4,12-12,12H29c-6.6,0-12-5.4-12-12v-90V86
		c0-6.6,5.4-12,12-12h58H92.8z"/>
</g>
<g class="st5">
	<path class="st6" d="M85.8,115.9c5-2.1,12.2,0.2,14.3,5.2l19.3,44.7c2.2,5-1.4,10-6.4,12.1c-5,2.1-11.7,0-13.9-5l-18.8-42.9
		C78.1,124.9,80.8,118,85.8,115.9z"/>
	<path class="st6" d="M176.4,115.9c-5-2.1-12.2,0.2-14.3,5.2l-19.3,44.7c-2.2,5,1.3,10.7,6.3,12.8c5,2.1,11.8-0.7,14-5.7l18.8-42.9
		C184,124.9,181.4,118,176.4,115.9L176.4,115.9z"/>
	<path class="st6" d="M138.5,122.8c5.5,7.2,9.6,15.5,12.7,20.8c3.1,5.3,3.6,6.4,5.9,10.7c2.3,4.3,7.6,7.8,12.9,2.5
		c-0.5,1.2-4.7,11.6-6.8,15.9c-1.4,2.9-2.3,3.9-4.8,5.3c-4.7,2.7-11.9,1-14.7-3.6L119.9,134C128.4,128.9,129.7,127.8,138.5,122.8
		L138.5,122.8z"/>
	<path class="st6" d="M124,126.8c6.1,7.2,20.8,33.5,23.4,36.9c2.5,3.4,7.2,7.1,11.9,4.4c2.5-1.4,3.7-2.8,5.8-5.2
		c1.7-1.9,3.5-4.2,5-6.1c0,0,0,0,0,0c-0.5,1.2-4.8,11.6-7,15.9c-1.4,2.9-2.3,3.9-4.8,5.3c-4.7,2.7-11.9,1-14.7-3.6L119.9,134
		C121.6,131.2,122.2,130.2,124,126.8L124,126.8z"/>
	<path class="st6" d="M138.5,122.8c5.5,7.2,9.6,15.5,12.7,20.8c3.1,5.3,3.6,6.4,5.9,10.7c2.3,4.3,7.6,7.8,12.9,2.5
		c-0.5,1.2-4.7,11.6-6.8,15.9c-1.4,2.9-2.3,3.9-4.8,5.3c-4.7,2.7-11.9,1-14.7-3.6L119.9,134C128.4,128.9,129.7,127.8,138.5,122.8
		L138.5,122.8z"/>
	<path class="st6" d="M140.2,111.4c-5.9,1.2-13.2,6.8-16.5,11.1c-5.5,7.2-9.6,15.5-12.7,20.8c-3.1,5.3-3.6,6.4-5.9,10.7
		c-2.3,4.3-7.7,7.9-13.1,2.5c0.5,1.2,4.8,11.6,7,15.9c1.4,2.9,2.3,3.9,4.8,5.3c4.7,2.7,11.9,1,14.7-3.7l23.8-40.3
		c1.4-2.3,4-6.1,7.7-9.9c4-4,8.8-6.3,7.2-8.9c-3.5-5.6-10.9-4.8-16.8-3.6L140.2,111.4z"/>
	<path class="st6" d="M155.6,115.1c-0.4,0-0.7,0-1.1,0c-5.3,0.4-12.1,5.9-14.7,9c-6.1,7.2-22.6,36-25.1,39.4
		c-2.5,3.4-7.2,7.1-11.9,4.4c-2.5-1.4-3.7-2.8-5.8-5.2c-1.7-1.9-3.5-4.2-5-6.1c0,0,0,0,0,0c0.5,1.2,4.8,11.6,7,15.9
		c1.4,2.9,2.3,3.9,4.8,5.3c4.7,2.7,11.9,1,14.7-3.6l23.8-40.3c1.4-2.3,3.9-6.2,7.6-10c3.6-3.7,8-5.8,7.6-8.1
		C156.8,115.4,156.4,115.2,155.6,115.1L155.6,115.1z"/>
	<path class="st6" d="M111.4,126.6c-3.4-1.2-6.1-3.6-6.5-8.2c-0.4-4.6,2.3-7.8,5.5-7.7c3.1,0.2,4.2,2.8,3.5,5.2
		c-0.7,2.4-1.5,3.4-1.9,5.1C111.5,122.7,111.4,124.5,111.4,126.6L111.4,126.6z"/>
	<path class="st6" d="M120.2,117.4c-2.8-4.8-2.1-10.3-0.4-14.4c1.6-4.1,5.6-8.5,10-9.7c4.4-1.2,8.4-0.5,10.2,3.9
		c1.8,4.5-2.1,10-6.8,11.3C128.6,109.9,124.3,112.4,120.2,117.4L120.2,117.4z"/>
	<path class="st6" d="M152.2,100c2.8,0,5-2.2,5-5c0-2.8-2.2-5-5-5c-2.8,0-5,2.2-5,5C147.2,97.7,149.4,100,152.2,100z"/>
	<path class="st6" d="M147.3,110.3c-2.4,0-4.9,0.4-7.1,0.8c-2.8,0.6-5.9,2.2-8.7,4.2c-2,2.4-3.4,5.3-3.6,8.7
		c-0.6,6.7,4.1,8.2,8.2,4.7c0.6-0.5,1-1,1.3-1.4c1.7-1.6,12.3-5.7,19-9.2c1.1-1.2,1.7-2.2,1-3.3
		C155.2,111.4,151.4,110.3,147.3,110.3L147.3,110.3z"/>
	<path class="st6" d="M155.6,115.1c-0.4,0-0.7,0-1.1,0c-5.3,0.4-12.1,5.9-14.7,9c-0.7,0.8-1.5,1.9-2.4,3.2c1.9,2.8,5.2,3.3,8.6,1.1
		c1.2-1.5,2.5-3,4-4.6c3.6-3.7,8.1-5.9,7.7-8.3C157.1,115.3,156.4,115.2,155.6,115.1L155.6,115.1z"/>
</g>
<linearGradient id="SVGID_00000102516554288384821910000004767175611080276618_" gradientUnits="userSpaceOnUse" x1="104.8736" y1="98.1436" x2="88.2357" y2="138.2656" gradientTransform="matrix(1 0 0 -1 0 258)">
	<stop  offset="0" style="stop-color:#0094EB"/>
	<stop  offset="1" style="stop-color:#06CFEB"/>
</linearGradient>
<path style="display:none;fill:url(#SVGID_00000102516554288384821910000004767175611080276618_);" d="M85.8,115.9
	c5-2.1,12.2,0.2,14.3,5.2l19.3,44.7c2.2,5-1.4,10-6.4,12.1c-5,2.1-11.7,0-13.9-5l-18.8-42.9C78.1,124.9,80.8,118,85.8,115.9z"/>
<linearGradient id="SVGID_00000004527166930989803460000010626580448459338927_" gradientUnits="userSpaceOnUse" x1="156.8588" y1="99.7522" x2="174.7948" y2="135.6102" gradientTransform="matrix(1 0 0 -1 0 258)">
	<stop  offset="0" style="stop-color:#3A7AEC"/>
	<stop  offset="1" style="stop-color:#7892F2"/>
</linearGradient>
<path style="display:none;fill:url(#SVGID_00000004527166930989803460000010626580448459338927_);" d="M176.4,115.9
	c-5-2.1-12.2,0.2-14.3,5.2l-19.3,44.7c-2.2,5,1.3,10.7,6.3,12.8c5,2.1,11.8-0.7,14-5.7l18.8-42.9C184,124.9,181.4,118,176.4,115.9
	L176.4,115.9z"/>
<linearGradient id="SVGID_00000002365163624416521280000003592851832265698703_" gradientUnits="userSpaceOnUse" x1="148.1704" y1="86.5558" x2="144.6724" y2="115.1248" gradientTransform="matrix(1 0 0 -1 0 258)">
	<stop  offset="0" style="stop-color:#0BC3FC"/>
	<stop  offset="1" style="stop-color:#0DD4FE"/>
</linearGradient>
<path style="display:none;fill:url(#SVGID_00000002365163624416521280000003592851832265698703_);" d="M138.5,122.8
	c5.5,7.2,9.6,15.5,12.7,20.8c3.1,5.3,3.6,6.4,5.9,10.7c2.3,4.3,7.6,7.8,12.9,2.5c-0.5,1.2-4.7,11.6-6.8,15.9
	c-1.4,2.9-2.3,3.9-4.8,5.3c-4.7,2.7-11.9,1-14.7-3.6L119.9,134C128.4,128.9,129.7,127.8,138.5,122.8L138.5,122.8z"/>
<linearGradient id="SVGID_00000039818971242376025380000008629704945205839768_" gradientUnits="userSpaceOnUse" x1="149.2426" y1="76.8904" x2="146.3716" y2="101.4834" gradientTransform="matrix(1 0 0 -1 0 258)">
	<stop  offset="0" style="stop-color:#09A7F8"/>
	<stop  offset="1" style="stop-color:#0FBFFB"/>
</linearGradient>
<path style="display:none;fill:url(#SVGID_00000039818971242376025380000008629704945205839768_);" d="M124,126.8
	c6.1,7.2,20.8,33.5,23.4,36.9c2.5,3.4,7.2,7.1,11.9,4.4c2.5-1.4,3.7-2.8,5.8-5.2c1.7-1.9,3.5-4.2,5-6.1c0,0,0,0,0,0
	c-0.5,1.2-4.8,11.6-7,15.9c-1.4,2.9-2.3,3.9-4.8,5.3c-4.7,2.7-11.9,1-14.7-3.6L119.9,134C121.6,131.2,122.2,130.2,124,126.8
	L124,126.8z"/>
<linearGradient id="SVGID_00000093855580943003923430000007877203630940308871_" gradientUnits="userSpaceOnUse" x1="140.1155" y1="119.7481" x2="149.6565" y2="104.2121" gradientTransform="matrix(1 0 0 -1 0 258)">
	<stop  offset="0" style="stop-color:#059AF2"/>
	<stop  offset="1" style="stop-color:#0598F3;stop-opacity:0"/>
</linearGradient>
<path style="display:none;fill:url(#SVGID_00000093855580943003923430000007877203630940308871_);" d="M138.5,122.8
	c5.5,7.2,9.6,15.5,12.7,20.8c3.1,5.3,3.6,6.4,5.9,10.7c2.3,4.3,7.6,7.8,12.9,2.5c-0.5,1.2-4.7,11.6-6.8,15.9
	c-1.4,2.9-2.3,3.9-4.8,5.3c-4.7,2.7-11.9,1-14.7-3.6L119.9,134C128.4,128.9,129.7,127.8,138.5,122.8L138.5,122.8z"/>
<linearGradient id="SVGID_00000166659992544938908440000015336231155933829054_" gradientUnits="userSpaceOnUse" x1="127.6821" y1="138.9694" x2="118.3061" y2="83.9684" gradientTransform="matrix(1 0 0 -1 0 258)">
	<stop  offset="0" style="stop-color:#29F2FF"/>
	<stop  offset="1" style="stop-color:#16D5FB"/>
</linearGradient>
<path style="display:none;fill:url(#SVGID_00000166659992544938908440000015336231155933829054_);" d="M140.2,111.4
	c-5.9,1.2-13.2,6.8-16.5,11.1c-5.5,7.2-9.6,15.5-12.7,20.8c-3.1,5.3-3.6,6.4-5.9,10.7c-2.3,4.3-7.7,7.9-13.1,2.5
	c0.5,1.2,4.8,11.6,7,15.9c1.4,2.9,2.3,3.9,4.8,5.3c4.7,2.7,11.9,1,14.7-3.7l23.8-40.3c1.4-2.3,4-6.1,7.7-9.9c4-4,8.8-6.3,7.2-8.9
	c-3.5-5.6-10.9-4.8-16.8-3.6L140.2,111.4z"/>
<linearGradient id="SVGID_00000129922653026469572010000002368078451956854684_" gradientUnits="userSpaceOnUse" x1="135.0971" y1="109.3" x2="123.9401" y2="114.246" gradientTransform="matrix(1 0 0 -1 0 258)">
	<stop  offset="0" style="stop-color:#19DAFC"/>
	<stop  offset="1" style="stop-color:#17C2F9"/>
</linearGradient>
<path style="display:none;fill:url(#SVGID_00000129922653026469572010000002368078451956854684_);" d="M155.6,115.1
	c-0.4,0-0.7,0-1.1,0c-5.3,0.4-12.1,5.9-14.7,9c-6.1,7.2-22.6,36-25.1,39.4c-2.5,3.4-7.2,7.1-11.9,4.4c-2.5-1.4-3.7-2.8-5.8-5.2
	c-1.7-1.9-3.5-4.2-5-6.1c0,0,0,0,0,0c0.5,1.2,4.8,11.6,7,15.9c1.4,2.9,2.3,3.9,4.8,5.3c4.7,2.7,11.9,1,14.7-3.6l23.8-40.3
	c1.4-2.3,3.9-6.2,7.6-10c3.6-3.7,8-5.8,7.6-8.1C156.8,115.4,156.4,115.2,155.6,115.1L155.6,115.1z"/>
<linearGradient id="SVGID_00000095302748463670416400000002175314020536582824_" gradientUnits="userSpaceOnUse" x1="107.6636" y1="132.3251" x2="109.9736" y2="144.9161" gradientTransform="matrix(1 0 0 -1 0 258)">
	<stop  offset="0" style="stop-color:#08E3FF"/>
	<stop  offset="1" style="stop-color:#5CFBFC"/>
</linearGradient>
<path style="display:none;fill:url(#SVGID_00000095302748463670416400000002175314020536582824_);" d="M111.4,126.6
	c-3.4-1.2-6.1-3.6-6.5-8.2c-0.4-4.6,2.3-7.8,5.5-7.7c3.1,0.2,4.2,2.8,3.5,5.2c-0.7,2.4-1.5,3.4-1.9,5.1
	C111.5,122.7,111.4,124.5,111.4,126.6L111.4,126.6z"/>
<radialGradient id="SVGID_00000096751221752425566410000009625685453127632263_" cx="-115.0577" cy="369.9342" r="1" gradientTransform="matrix(21.1591 0.8645 0.5222 -12.7801 2373.4668 4926.4648)" gradientUnits="userSpaceOnUse">
	<stop  offset="0" style="stop-color:#8DF5FE"/>
	<stop  offset="1" style="stop-color:#46EAFF"/>
</radialGradient>
<path style="display:none;fill:url(#SVGID_00000096751221752425566410000009625685453127632263_);" d="M120.2,117.4
	c-2.8-4.8-2.1-10.3-0.4-14.4c1.6-4.1,5.6-8.5,10-9.7c4.4-1.2,8.4-0.5,10.2,3.9c1.8,4.5-2.1,10-6.8,11.3
	C128.6,109.9,124.3,112.4,120.2,117.4L120.2,117.4z"/>
<linearGradient id="SVGID_00000160177630027812865830000012887529148146731425_" gradientUnits="userSpaceOnUse" x1="148.8023" y1="158.8724" x2="155.4583" y2="167.0453" gradientTransform="matrix(1 0 0 -1 0 258)">
	<stop  offset="0" style="stop-color:#6EE8FE"/>
	<stop  offset="1" style="stop-color:#A3F0FE"/>
</linearGradient>
<path style="display:none;fill:url(#SVGID_00000160177630027812865830000012887529148146731425_);" d="M152.2,100c2.8,0,5-2.2,5-5
	c0-2.8-2.2-5-5-5c-2.8,0-5,2.2-5,5C147.2,97.7,149.4,100,152.2,100z"/>
<linearGradient id="SVGID_00000163758539044600553810000004910448321910026665_" gradientUnits="userSpaceOnUse" x1="127.8494" y1="137.5754" x2="157.7329" y2="137.5754" gradientTransform="matrix(1 0 0 -1 0 258)">
	<stop  offset="0" style="stop-color:#B6FDFE"/>
	<stop  offset="1" style="stop-color:#CAFEFE"/>
</linearGradient>
<path style="display:none;fill:url(#SVGID_00000163758539044600553810000004910448321910026665_);" d="M147.3,110.3
	c-2.4,0-4.9,0.4-7.1,0.8c-2.8,0.6-5.9,2.2-8.7,4.2c-2,2.4-3.4,5.3-3.6,8.7c-0.6,6.7,4.1,8.2,8.2,4.7c0.6-0.5,1-1,1.3-1.4
	c1.7-1.6,12.3-5.7,19-9.2c1.1-1.2,1.7-2.2,1-3.3C155.2,111.4,151.4,110.3,147.3,110.3L147.3,110.3z"/>
<linearGradient id="SVGID_00000148625829718023531140000006778835848383099565_" gradientUnits="userSpaceOnUse" x1="144.9424" y1="139.0725" x2="150.6384" y2="133.4095" gradientTransform="matrix(1 0 0 -1 0 258)">
	<stop  offset="0" style="stop-color:#ABE7F8"/>
	<stop  offset="1" style="stop-color:#BEF6FD"/>
</linearGradient>
<path style="display:none;fill:url(#SVGID_00000148625829718023531140000006778835848383099565_);" d="M155.6,115.1
	c-0.4,0-0.7,0-1.1,0c-5.3,0.4-12.1,5.9-14.7,9c-0.7,0.8-1.5,1.9-2.4,3.2c1.9,2.8,5.2,3.3,8.6,1.1c1.2-1.5,2.5-3,4-4.6
	c3.6-3.7,8.1-5.9,7.7-8.3C157.1,115.3,156.4,115.2,155.6,115.1L155.6,115.1z"/>
<path class="st19" d="M84,134.6c-1.4,1.3-2.7,2.6-4.1,3.9c-2.2,2.2-4,4.7-5.2,7.6c-2,4.8-0.1,8.8,4.9,10.3c4.5,1.3,9.1,1.4,13.7,0.9
	c4.8-0.5,9.5-1.5,14.2-2.3c0.2,0,0.5-0.2,0.7-0.3c-0.2-0.9-0.4-1.7-0.5-2.5c-0.2-1.8,0.4-3.4,1.3-4.9c0.4-0.7,0.4-1.2,0.1-1.9
	c-3.1-7.5-2.6-14.9,1.7-21.8c4.1-6.6,10.2-10.1,17.9-11.2c0.9-0.1,1.9-0.1,2.6-0.1c0.7,2,1.1,4,2,5.7c2.5,5.2,8.9,8.4,14.5,7.5
	c1.3-0.2,2.7-0.6,4-1c0.6-0.2,0.9,0,1.1,0.5c0.8,2.2,1.5,4.4,2.3,6.6c0.2,0.6,0,0.9-0.5,1.2c-3.4,2-6.8,4.1-10.2,6.1
	c-0.6,0.3-1.1,0.6-1.6,0.9c-0.6-2-1-4-1.9-5.8c-3.3-6.9-11.1-10.8-18.7-8.9c-6.9,1.8-11.2,6.3-12.4,13.4c-0.3,1.9,0,3.9,0.1,5.9
	c0,0.8,0.5,1.1,1.3,0.6c3-2.1,7.5-1.9,10.2,0.8c1.1,1.1,1.9,2.6,2.9,4.2c0.7-0.2,1.7-0.5,2.7-0.9c8.2-3.2,16-7.1,23.5-11.6
	c6.4-3.9,12.6-8.2,17.9-13.5c2.8-2.8,5.3-5.7,6.6-9.5c0.9-2.6,0.2-5.4-2-7.2c-1.9-1.5-4.1-2.3-6.5-2.7c-3.4-0.6-6.9-0.6-10.5-0.2
	c0.1,0.3,0.2,0.6,0.4,0.8c2.9,4.3,2.6,9.9-0.6,13.8c-4.4,5.3-11.7,6.2-17.3,2.2c-5.9-4.2-6.6-12.9-1.3-17.8c5.1-4.9,12.9-4.8,18,0.2
	c0.3,0.3,1,0.5,1.4,0.5c4.6-0.4,9.1-0.6,13.6,0.2c2.7,0.5,5.4,1.2,7.4,3.2c2.4,2.3,2.5,5.1,1.4,8.1c-1.1,3.2-3.1,5.8-5.4,8.3
	c-4.5,5-9.7,9.1-15.4,12.6c-4.1,2.6-8.1,5.2-12.4,7.4c-6,3-12.3,5.6-18.4,8.4c-0.3,0.2-0.7,0.4-1,0.4c-2.3,0.2-3.2,2-4,3.8
	c-0.4,0.8,0.3,0.9,0.8,1c2.6,0.3,5.2,0.3,7.8-0.6c4.2-1.4,7.3-4.1,9.6-7.9c0.5-0.8,1.6-1.4,2.5-1.9c3.6-2,7.3-4,10.9-5.9
	c0.2-0.1,0.5-0.2,0.9-0.4c-0.5,2.4-1.2,4.6-2.4,6.6c-3.2,5.8-8,9.7-14.3,11.6c-5.2,1.6-10.5,1.5-15.6-0.5c-1-0.4-1.7-0.4-2.6,0.2
	c-3.1,1.9-6.1,1.7-9.2-0.2c-0.4-0.3-1.1-0.4-1.6-0.3c-8.3,2-16.6,3.5-25.2,3.1c-3-0.1-6-0.5-8.7-1.8c-4.8-2.1-5.8-5.9-4.1-10.4
	c1.4-3.7,4-6.6,6.7-9.4c1.8-1.8,3.7-3.4,5.5-5.2C83.9,134.5,83.9,134.6,84,134.6z"/>
<path class="st19" d="M105.5,153.7c-1.2,0.6-1.8,0.3-2.5-0.7c-3.1-5-5.6-10.3-7-16.1c-1.3-5.2-1.8-10.4-1.3-15.8
	c0.5-5.3,2-10.3,4.9-14.8c4.4-6.9,10.8-10.7,18.9-11.5c7-0.7,13.7,0.9,19.9,4.2c0.1,0.1,0.2,0.2,0.4,0.3c-0.7,0.8-1.3,1.2-2.4,0.6
	c-3.5-1.7-7.1-2.9-10.9-3.4c-6.9-0.9-13.2,0.3-18.8,4.6c-5,3.8-8,8.8-9.4,14.9c-0.7,3.2-1.2,6.6-1.2,9.9c0.1,8.2,2.5,15.8,6.5,22.9
	C103.5,150.5,104.5,152.1,105.5,153.7z"/>
<path class="st19" d="M165.3,133.7c0.3,1.8,0.7,3.5,1,5.3c0.8,6,0.6,11.9-1.3,17.7c-1.4,4.4-3.6,8.4-6.9,11.6
	c-4.7,4.7-10.5,7.1-17.2,7.3c-8,0.3-15.2-2.3-21.9-6.5c-3.7-2.4-7-5.3-10-8.4c-0.2-0.2-0.4-0.5-0.6-0.7c1.1-0.6,1.8-0.4,2.7,0.5
	c5,5,10.6,9,17.3,11.4c6.8,2.5,13.7,3.1,20.5,0.4c5.7-2.2,9.9-6.2,12.6-11.7c4-7.8,4.2-16.1,2.6-24.5
	C163.9,134.6,163.8,134.7,165.3,133.7z"/>
<path class="st19" d="M163.1,126.6c-0.5,0.4-0.9,0.7-1.4,1.1c-0.9-1.9-1.8-3.8-2.7-5.6c-0.1-0.3-0.3-0.6-0.5-0.9
	c-0.9-1-0.4-1.7,0.5-2.7C160.4,121.3,161.7,123.9,163.1,126.6z"/>
</svg>
