<?xml version="1.0" encoding="utf-8"?>
<!-- Generator: Adobe Illustrator 28.2.0, SVG Export Plug-In . SVG Version: 6.00 Build 0)  -->
<svg version="1.1" id="图层_1" xmlns="http://www.w3.org/2000/svg" xmlns:xlink="http://www.w3.org/1999/xlink" x="0px" y="0px"
	 width="256px" height="256px" viewBox="0 0 256 256" style="enable-background:new 0 0 256 256;" xml:space="preserve">
<style type="text/css">
	.st0{fill-rule:evenodd;clip-rule:evenodd;fill:#EF6735;}
	.st1{fill-rule:evenodd;clip-rule:evenodd;fill-opacity:0.3;}
	.st2{fill-rule:evenodd;clip-rule:evenodd;fill:url(#SVGID_1_);}
	.st3{fill:#FDFDFD;}
	.st4{fill:#3B2B22;}
</style>
<path class="st0" d="M104.4,42.4C100,37.1,93.5,34,86.6,34H29c-6.6,0-12,5.4-12,12v12.1v10.1V160c0,6.6,5.4,12,12,12h200
	c6.6,0,12-5.4,12-12V70.1c0-6.6-5.4-12-12-12H117.4L104.4,42.4z"/>
<g>
	<g>
		<path class="st1" d="M92.8,74c5,0,9.8-1.6,13.8-4.6l9.9-7.4H229c6.6,0,12,5.4,12,12v34v52c0,6.6-5.4,12-12,12H29
			c-6.6,0-12-5.4-12-12v-52V86c0-6.6,5.4-12,12-12h58H92.8z"/>
	</g>
</g>
<g>
	
		<linearGradient id="SVGID_1_" gradientUnits="userSpaceOnUse" x1="129" y1="-39.4062" x2="129" y2="-196.7178" gradientTransform="matrix(1 0 0 -1 0 16)">
		<stop  offset="0" style="stop-color:#2F727A"/>
		<stop  offset="1" style="stop-color:#3C566D"/>
	</linearGradient>
	<path class="st2" d="M92.8,74c5,0,9.8-1.6,13.8-4.6l9.9-7.4H229c6.6,0,12,5.4,12,12v34v90c0,6.6-5.4,12-12,12H29
		c-6.6,0-12-5.4-12-12v-90V86c0-6.6,5.4-12,12-12h58H92.8z"/>
</g>
<g>
	<path class="st3" d="M138,125.8c0.7,1.6,1,3.3,1.5,4.9c1.6,5.7,3.2,11.4,5.6,16.8c1.4,3.1,1.7,6.1-0.6,9c-1.1,1.4-2.3,2.5-3.8,3.4
		c-0.4,0.2-0.7,0.4-1.1,0.7c-0.7,0.1-0.7,0.5-0.6,1c0,4,0.1,8.1,0,12.1c0,0.9,0.3,1.7,0.8,2.4c0.6,0.9,1.2,1.7,1.8,2.6
		c0.6,0.9,0.2,1.5-0.8,1.4c-1.7-0.1-3.2-0.7-4.6-1.7c-0.6-0.4-0.8-1-0.8-1.7c0-0.8-0.1-1.6-0.1-2.3c0-3.9,0.1-7.7,0.1-11.6
		c0-0.3,0.2-1-0.4-0.8c-0.9,0.3-2-0.4-2.6,0.7c0,0,0,0.1,0,0.1c0,2.8,0,5.6,0.1,8.3c0,2.4,0,4.9-0.1,7.3c0,1.1,0.3,1.9,0.9,2.8
		c0.6,0.9,1.2,1.7,1.8,2.6c0.5,0.9,0.2,1.4-0.9,1.3c-1.1-0.1-2.1-0.5-3.1-0.9c-1.7-0.6-2.4-1.8-2.4-3.6c0.1-5.9,0-11.7,0-17.6
		c0-0.3,0.2-0.7-0.2-0.9c-3.6-0.4-7-1.3-10.2-3c-3.3-1.8-6-4.2-7.7-7.6c-1.5-2.9-1.2-5.5,0.7-8.1c1.7-2.3,4-3.9,6.3-5.5
		c3.9-2.8,7.9-5.5,11.4-8.8c1.1-1,2.2-2.1,2.9-3.4c0.4,0.6,1,0.9,1.7,1.2C135.2,127.4,137.1,127,138,125.8z"/>
	<path class="st3" d="M126.1,117.8c-2.2-2.3-4.4-4.5-6.6-6.8c-7.9-7.9-15.7-15.8-23.6-23.7c-0.1-0.1-0.1-0.1-0.3-0.4
		c1.3,0.3,2.4,0.6,3.5,0.9c12.8,3.3,25.6,6.5,38.4,9.8c0.3,0.1,0.6,0.2,1,0.3c-0.9,0.6-1.8,1.2-2.6,1.8c-5.2,4.2-8,9.9-9.3,16.3
		C126.4,116.7,126.5,117.3,126.1,117.8z"/>
	<path class="st3" d="M142.5,99.4c4.1,2.4,6.2,6,6.3,10.6c0.1,4.8-2.1,8.5-6.3,11.1c-0.4,0.2-0.8,0.3-1.2,0.5
		c-1.6,0.2-3-0.2-4.1-1.6c-4.3-5.5-4-13.6,0.5-19C139.1,99.6,140.5,98.9,142.5,99.4z"/>
	<path class="st4" d="M142.5,99.4c-1.9-0.5-3.4,0.2-4.7,1.7c-4.5,5.3-4.8,13.4-0.5,19c1,1.3,2.4,1.8,4.1,1.6c-0.8,0.5-1.7,1-2.7,1
		c-0.7,0.1-0.9,0.4-0.8,0.9c0.1,0.7,0.1,1.5,0.1,2.2c-0.8,1.1-2.8,1.6-4.6,1c-0.7-0.2-1.3-0.5-1.7-1.2c0.4-1.1,0.1-2.3,0.2-3.4
		c0-0.2-0.1-0.3-0.3-0.4c-2.2-0.8-3.8-2.5-5.4-4.1c0.4-0.5,0.3-1.1,0.4-1.7c1.3-6.5,4.1-12.1,9.3-16.3c0.8-0.7,1.7-1.2,2.6-1.8
		C139.9,98,141.3,98.5,142.5,99.4z"/>
</g>
</svg>
