<?xml version="1.0" encoding="UTF-8"?>
<svg xmlns="http://www.w3.org/2000/svg" width="256" height="256" version="1.1" xmlns:xlink="http://www.w3.org/1999/xlink" viewBox="0 0 256 256">
  <!-- Generator: Adobe Illustrator 29.3.1, SVG Export Plug-In . SVG Version: 2.1.0 Build 151)  -->
  <defs>
    <style>
      .st0 {
        fill-opacity: .3;
      }

      .st0, .st1, .st2, .st3 {
        fill-rule: evenodd;
      }

      .st4 {
        mask: url(#mask);
      }

      .st1 {
        fill: url(#_未命名的渐变);
      }

      .st5 {
        isolation: isolate;
      }

      .st2 {
        fill: url(#_未命名的渐变_3);
      }

      .st6 {
        mix-blend-mode: multiply;
      }

      .st7 {
        fill: #fcbb2f;
      }

      .st3 {
        fill: url(#_未命名的渐变_2);
      }
    </style>
    <linearGradient id="_未命名的渐变" data-name="未命名的渐变" x1="129" y1="224" x2="129" y2="86" gradientTransform="translate(0 258) scale(1 -1)" gradientUnits="userSpaceOnUse">
      <stop offset="0" stop-color="#fcbb2f"/>
      <stop offset="1" stop-color="#000"/>
    </linearGradient>
    <linearGradient id="_未命名的渐变_2" data-name="未命名的渐变 2" x1="32.6" y1="239.5" x2="213.3" y2="58.4" gradientTransform="translate(0 258) scale(1 -1)" gradientUnits="userSpaceOnUse">
      <stop offset="0" stop-color="#05815d"/>
      <stop offset="1" stop-color="#0c575f"/>
    </linearGradient>
    <mask id="mask" x="17" y="34" width="224" height="138" maskUnits="userSpaceOnUse">
      <g id="mask0_955_21245">
        <path class="st3" d="M104.4,42.4c-4.4-5.3-10.9-8.4-17.8-8.4H29c-6.6,0-12,5.4-12,12v114c0,6.6,5.4,12,12,12h200c6.6,0,12-5.4,12-12v-89.9c0-6.6-5.4-12-12-12h-111.6l-13-15.8Z"/>
      </g>
    </mask>
    <linearGradient id="_未命名的渐变_3" data-name="未命名的渐变 3" x1="17" y1="196" x2="241" y2="48" gradientTransform="translate(0 258) scale(1 -1)" gradientUnits="userSpaceOnUse">
      <stop offset="0" stop-color="#373736"/>
      <stop offset="1" stop-color="#121212"/>
    </linearGradient>
  </defs>
  <g class="st5">
    <g id="_图层_1" data-name="图层_1">
      <path class="st1" d="M104.4,42.4c-4.4-5.3-10.9-8.4-17.8-8.4H29c-6.6,0-12,5.4-12,12v114c0,6.6,5.4,12,12,12h200c6.6,0,12-5.4,12-12v-89.9c0-6.6-5.4-12-12-12h-111.6l-13-15.8Z"/>
      <g class="st4">
        <g class="st6">
          <path class="st0" d="M92.8,74c5,0,9.8-1.6,13.8-4.6l9.9-7.4h112.5c6.6,0,12,5.4,12,12v86c0,6.6-5.4,12-12,12H29c-6.6,0-12-5.4-12-12v-74c0-6.6,5.4-12,12-12h63.8Z"/>
        </g>
      </g>
      <path class="st2" d="M92.8,74c5,0,9.8-1.6,13.8-4.6l9.9-7.4h112.5c6.6,0,12,5.4,12,12v124c0,6.6-5.4,12-12,12H29c-6.6,0-12-5.4-12-12v-112c0-6.6,5.4-12,12-12h63.8Z"/>
      <path class="st7" d="M91,125v11.8c0,.3-.2.5-.5.5h-1.6c-.3,0-.5-.2-.5-.5v-7.4c0-.1,0-.2-.1-.3l-.4-.4-.2-.2c-.2-.2-.2-.5,0-.6l.2-.2.4-.4c0,0,.1-.2.1-.3v-7.6c0-.3.2-.5.5-.5h1c.2,0,.3,0,.4.2l10.1,12.4c.3.3.8.1.8-.3v-11.8c0-.3.2-.5.5-.5h1.6c.3,0,.5.2.5.5v7.6c0,.1,0,.2.1.3l.4.4.2.2c.2.2.2.5,0,.6l-.2.2-.4.4c0,0-.1.2-.1.3v7.4c0,.3-.2.5-.5.5h-1c-.2,0-.3,0-.4-.2l-10.1-12.4c-.3-.3-.8-.1-.8.3M119.1,137.6c2.3,0,4.3-.9,5.7-2.4,1.2-1.3,1.9-3,1.9-5.5v-10.3c0-.3-.2-.5-.5-.5h-1.5c-.3,0-.5.2-.5.5v10.4c0,1.7-.4,2.8-1.2,3.6-.9,1-2.3,1.6-3.9,1.6h-.4c-1.6,0-2.9-.6-3.9-1.6-.7-.8-1.2-1.9-1.2-3.6v-10.4c0-.3-.2-.5-.5-.5h-1.6c-.3,0-.5.2-.5.5v10.3c0,2.5.7,4.2,1.9,5.5,1.4,1.5,3.5,2.4,5.7,2.4h.4ZM216.5,118.8h-14.8c-.3,0-.6.2-.6.6v1.4c0,.3.2.6.6.6h5.5c.3,0,.6.2.6.6v14.9c0,.3.2.6.6.6h1.5c.3,0,.6-.2.6-.6v-14.9c0-.3.2-.6.6-.6h5.5c.3,0,.6-.2.6-.6v-1.4c0-.3-.3-.6-.6-.6M161,137.3h12.6c.3,0,.5-.2.5-.5v-1.4c0-.3-.2-.5-.5-.5h-9.9c-.3,0-.5-.2-.5-.5v-4.2c0-.3.2-.5.5-.5h4.8c.3,0,.5-.2.5-.5v-1.4c0-.3-.2-.5-.5-.5h-4.8c-.3,0-.5-.2-.5-.5v-4.5c0-.3.3-.5.6-.5h9.7c.3,0,.5-.2.5-.5v-1.4c0-.3-.2-.5-.5-.5h-12.3c-.3,0-.5.2-.5.5v17.4c0,.3.2.5.5.5M196.7,127.7l-.4-.4c0,0-.1-.2-.1-.3v-7.7c0-.3-.2-.5-.5-.5h-1.7c-.3,0-.5.2-.5.5v11.9c0,.4-.5.6-.8.3l-10.2-12.4c0-.1-.2-.2-.4-.2h-1.2c-.3,0-.5.2-.5.5v7.7c0,.1,0,.2-.1.3l-.4.4-.2.2c-.2.2-.2.5,0,.6l.2.2.4.4c0,0,.1.2.1.3v7.4c0,.3.2.5.5.5h1.7c.3,0,.5-.2.5-.5v-11.8c0-.4.5-.6.8-.3l10.2,12.4c0,.1.2.2.4.2h1.2c.3,0,.5-.2.5-.5v-7.4c0-.1,0-.2.1-.3l.4-.4.2-.2c.2-.2.2-.5,0-.6l-.2-.2ZM73.8,137.6c-5.2,0-9.5-4.3-9.5-9.5s4.2-9.5,9.5-9.5,9.5,4.3,9.5,9.5-4.2,9.5-9.5,9.5M73.8,135.1c3.9,0,7-3.1,7-7s-3.1-7-7-7-7,3.1-7,7,3.1,7,7,7M59.9,127.7l-.4-.4c0,0-.1-.2-.1-.3v-7.6c0-.3-.2-.5-.5-.5h-.9c-.3,0-.5.2-.5.4-.5,2.8-3,5-3.5,5.4-1.2.9-2.7,1.5-4.3,1.5s-3.1-.6-4.3-1.5c-.5-.4-3.1-2.6-3.5-5.4,0-.2-.3-.4-.5-.4h-.9c-.3,0-.5.2-.5.5v7.6c0,.1,0,.2-.1.3l-.4.4-.2.2c-.2.2-.2.5,0,.6l.2.2.4.4c0,0,.1.2.1.3v7.3c0,.3.2.5.5.5h1.6c.3,0,.5-.2.5-.5v-10.1c0-.4.5-.7.9-.4,1.2,1.1,2.8,1.9,4.5,2.2.3,0,.5.3.5.5v2.9c0,.3.2.5.5.5h1.6c.3,0,.5-.2.5-.5v-2.9c0-.3.2-.5.5-.5,1.7-.3,3.2-1.1,4.5-2.2.4-.3.9,0,.9.4v10.1c0,.3.2.5.5.5h1.6c.3,0,.5-.2.5-.5v-7.3c0-.1,0-.2.1-.3l.4-.4.2-.2c.2-.2.2-.5,0-.6l-.2-.2ZM153.3,136.8v-7.3c0-.1,0-.2.1-.3l.4-.4.2-.2c.2-.2.2-.5,0-.6l-.2-.2-.4-.4c0,0-.1-.2-.1-.3v-7.6c0-.3-.2-.5-.5-.5h-.9c-.3,0-.5.2-.5.4-.5,2.8-3,5-3.5,5.4-1.2.9-2.7,1.5-4.3,1.5s-3.1-.6-4.3-1.5c-.5-.4-3.1-2.6-3.5-5.4,0-.2-.3-.4-.5-.4h-.9c-.3,0-.5.2-.5.5v7.6c0,.1,0,.2-.1.3l-.4.4-.2.2c-.2.2-.2.5,0,.6l.2.2.4.4c0,0,.1.2.1.3v7.3c0,.3.2.5.5.5h1.6c.3,0,.5-.2.5-.5v-10.1c0-.4.5-.7.9-.4,1.2,1.1,2.8,1.9,4.5,2.2.3,0,.5.3.5.5v2.9c0,.3.2.5.5.5h1.6c.3,0,.5-.2.5-.5v-2.9c0-.3.2-.5.5-.5,1.7-.3,3.2-1.1,4.5-2.2.4-.3.9,0,.9.4v10.1c0,.3.2.5.5.5h1.6c.3,0,.6-.2.6-.5M90.6,145.9h-1.5c-.2,0-.4.1-.5.3l-6.4,13.5c-.2.4-.8.4-1,0l-6.4-13.5c0-.2-.3-.3-.5-.3h-1.5c-.4,0-.7.4-.5.8l8.3,17.4c0,.2.3.3.5.3h1.2c.2,0,.4-.1.5-.3l8.4-17.4c.2-.4,0-.8-.5-.8M128.1,163.9v-1.4c0-.3-.2-.5-.5-.5h-8.9c-.3,0-.5-.2-.5-.5v-14.9c0-.3-.2-.5-.5-.5h-1.6c-.3,0-.5.2-.5.5v7.6c0,.1,0,.2-.1.3l-.4.4-.2.2c-.2.2-.2.5,0,.6l.2.2.4.4c0,0,.1.2.1.3v7.4c0,.3.2.5.5.5h11.6c.3,0,.5-.2.5-.5M145.8,161.9h-8.9c-.3,0-.5-.2-.5-.5v-14.9c0-.3-.2-.5-.5-.5h-1.6c-.3,0-.5.2-.5.5v7.6c0,.1,0,.2-.1.3l-.4.4-.2.2c-.2.2-.2.5,0,.6l.2.2.4.4c0,0,.1.2.1.3v7.4c0,.3.2.5.5.5h11.5c.3,0,.5-.2.5-.5v-1.4c0-.3-.2-.5-.5-.5M164.9,161.9h-9.9c-.3,0-.5-.2-.5-.5v-4.3c0-.3.2-.5.5-.5h4.8c.3,0,.5-.2.5-.5v-1.4c0-.3-.2-.5-.5-.5h-4.8c-.3,0-.5-.2-.5-.5v-4.5c0-.3.3-.5.6-.5h9.7c.3,0,.5-.2.5-.5v-1.4c0-.3-.2-.5-.5-.5h-12.3c-.3,0-.5.2-.5.5v17.4c0,.3.2.5.5.5h12.6c.3,0,.5-.2.5-.5v-1.4c0-.3-.2-.5-.5-.5M110.9,163.6c.2.4,0,.8-.5.8h-1.5c-.2,0-.4-.1-.5-.3l-2.1-4.4c-.1-.3-.5-.4-.8-.2-1.3.8-2.8,1.3-4.4,1.3s-3.2-.5-4.4-1.3c-.3-.2-.6,0-.8.2l-2.1,4.4c0,.2-.3.3-.5.3h-1.5c-.4,0-.7-.4-.5-.8l8.7-17.4c0-.2.3-.3.5-.3h1.2c.2,0,.4.1.5.3l8.7,17.4ZM104.7,156.5l-3.1-6.1c-.2-.4-.8-.4-1,0l-3.1,6.1c-.1.2,0,.5.1.7.9.8,2.1,1.2,3.4,1.2s2.5-.4,3.4-1.2c.2-.2.2-.4.1-.7M187.3,145.9h-2.1c-.1,0-.3,0-.4.2l-5.9,7.3c-.3.3-.7.3-1,0l-5.9-7.3c-.1-.1-.2-.2-.4-.2h-2.1c-.3,0-.4.3-.2.5l7.6,9.5c.1.1.1.2.1.4v7.8c0,.2.1.3.3.3h2c.2,0,.3-.1.3-.3v-7.8c0-.1,0-.3.1-.4l7.6-9.5c.2-.2,0-.5-.2-.5"/>
    </g>
  </g>
</svg>