<?xml version="1.0" encoding="UTF-8"?>
<svg id="_图层_1" data-name="图层_1" xmlns="http://www.w3.org/2000/svg" width="256" height="256" version="1.1" xmlns:xlink="http://www.w3.org/1999/xlink" viewBox="0 0 256 256">
  <!-- Generator: Adobe Illustrator 29.3.1, SVG Export Plug-In . SVG Version: 2.1.0 Build 151)  -->
  <defs>
    <style>
      .st0 {
        fill-opacity: .3;
      }

      .st0, .st1, .st2 {
        fill-rule: evenodd;
      }

      .st3 {
        fill: #fcfcfc;
      }

      .st1 {
        fill: url(#_未命名的渐变_8);
      }

      .st2 {
        fill: #ef6735;
      }

      .st4 {
        fill: #a182be;
      }

      .st5 {
        fill: #6803c3;
      }

      .st6 {
        fill: #a152fb;
      }

      .st7 {
        fill: #420183;
      }
    </style>
    <linearGradient id="_未命名的渐变_8" data-name="未命名的渐变 8" x1="124.1" y1="632" x2="-33.2" y2="631.3" gradientTransform="translate(0 -496)" gradientUnits="userSpaceOnUse">
      <stop offset="0" stop-color="#f8cd78"/>
      <stop offset="1" stop-color="#f5dc53"/>
    </linearGradient>
  </defs>
  <path class="st2" d="M104.4,42.4c-4.4-5.3-10.9-8.4-17.8-8.4H29c-6.6,0-12,5.4-12,12v114c0,6.6,5.4,12,12,12h200c6.6,0,12-5.4,12-12v-89.9c0-6.6-5.4-12-12-12h-111.6l-13-15.7Z"/>
  <path class="st0" d="M92.8,74c5,0,9.8-1.6,13.8-4.6l9.9-7.4h112.5c6.6,0,12,5.4,12,12v86c0,6.6-5.4,12-12,12H29c-6.6,0-12-5.4-12-12v-74c0-6.6,5.4-12,12-12h63.8Z"/>
  <path class="st1" d="M92.8,74c5,0,9.8-1.6,13.8-4.6l9.9-7.4h112.5c6.6,0,12,5.4,12,12v124c0,6.6-5.4,12-12,12H29c-6.6,0-12-5.4-12-12v-112c0-6.6,5.4-12,12-12h63.8Z"/>
  <g>
    <path class="st3" d="M130.1,103c2.5.8,4,1,6.1,2.7,4.9,4,5.7,11.5,1.7,16.6s-1,1.2-1.1,1.3-1.2.8-1.3.8c-3.1.4-7-2.4-8.5-5.1-2.8-5.1-2.9-11.4,1.6-15.4s1.2-.4,1.5-1Z"/>
    <path class="st3" d="M163.3,98.4c2.5,2.1,4.1,4.9,6.4,7.1s.6.1.6.2c.1.1,0,.6,0,.8s.7.2.8.6l-5.6,10.1c-.2.2-.6.4-.8.4-1.1,0-6.7-7.2-8.2-8.2l-.2-.5,5.9-11.1c.7-.3.7.3.9.6Z"/>
    <path class="st3" d="M150.3,140.6c.8,0,.3.2.2.6-.2,1.6-.4,2.1-.5,3.8,0,.8-.6,1.5-.4,2.4s3.6.2,2.6,2.9-.5.5-.6.8c-.2.7.2,1.5-.8,2.1s-.9,0-1.6,0-.6.2-.9.2,0-.4-.1-.5c-.2-.2-.4-.2-.4-.2-.2-.3-.6-1.1-.6-1.4s.8-2.6.9-2.7c.3-.5.9-.6,1.1-1,.3-.9.3-3.3.5-4.4s.5-1.8.7-2.6Z"/>
    <g>
      <path class="st7" d="M138.6,165.6c.5,0,4.1,3.4,4.2,4v18.4c0,1.5,3.7,4,2.4,5.3s-.6.1-.8.2h-.2c0-.1,0-.2-.1-.2-.2,0-.4,0-.6,0-.5-.1-1-.3-1.6-.5-.9-.3-2.1-.3-2.5-1.5v-20.2c-.2-.8-2.9-2.9-3.6-3.6s-.6-.2-.4-.8c0,0,.2-.3.4-.3.6-.2,2.2-.8,2.7-.8Z"/>
      <path class="st7" d="M145.8,161.4c.5,0,4.8,3.3,5.4,4l7.7,12.5c.9.3,1.8-.3,2.7-.2s1.7,1,1.2,1.8-3.2,2.4-3.4,2.5c-.8.4-1.5.3-2.1-.3l-8.8-14.1c-1.5-1.7-3.7-2.7-5.2-4.3.7-.4,1.6-1.9,2.7-1.8Z"/>
      <g>
        <path class="st7" d="M145.6,101c-.3-1-1.1-2.3-1.4-3.2-.9-2.6-1.2-3.8-.8-6.6.7-4.4,2.8-7.1,7.5-7.1s9.4,4.4,11.5,7.6c.2.4,1.1,2,1.1,2.4s-.3,2.3-.5,2.5-1.1.5-1.1.5c-.5,0-2.2-1.4-2.6-1.9-1.1-1.2-2.2-3-3.2-4.2s-1.4-1.6-2.1-2c-2-1.1-5-1.5-6.2.9s.3,7.3,1.2,10.2c-1.3-.3-1.2,1.3-2.5,1.4,0,.7.4.1.4,1.1-.3,0-.6,0-.9-.2-.1-.4-.1-.9-.2-1.1l-.2-.2Z"/>
        <path class="st7" d="M150.1,121.2c-.2.2-.5.1-.7.2,0,1,.3,1.8,0,2.8.8.3,2.9,2.5,2.7.8-1.1,0-2.6-1-2.2-2.5.5-.5,2.2.9,2,1.6.7.1.3-.5.7-1.1-.1,4.8-1.3,9.5-1.8,14.2-.1,0-.2.1-.2.2,0,.1,0,.3,0,.5,0,.7-.1,1.4-.2,2s0,.5,0,.7c-.1.8-.5,1.9-.7,2.6-.2,1.2-.2,3.5-.5,4.4s-.8.5-1.1,1-.9,2.6-.9,2.7c0,.3.4,1.2.6,1.4.1.6-.3.6-.7.3s-1.7-1.8-1.8-2.1c-.1-.6.3-1.4.4-2s0-1.1,0-1.7c.6-4.9,1.4-9.9,2-14.8.5-3.7.8-7.4,1.1-11.1.1,0,.3,0,.4,0,0-.2,0-.5,0-.7.4,0,.5.3.7.5Z"/>
        <path class="st4" d="M149.2,100.7c.5,1.4,1,2.6,1.6,3.8s3.3,9,3.3,9.7-.4,4.5-.6,5.3-.6,1.3-.7,2.4c-.9,1-1.3-.2-1.4-.2-.4-.1-.4.2-1.3-.5s-.2-.5-.7-.5c-.1-1.9,1-5,.7-6.9s-1.2-2.7-1.5-3.7-.3-1.9-.5-2.6c-.6-1.6-.9-1.4-1.1-3.6,0-.5,0-1.1,0-1.6,1,0,1.1-1.9,2.2-1.8Z"/>
        <path class="st5" d="M150.1,121.2c.9.7.9.4,1.3.5s.4,1.2,1.4.2c0,.6.4,0-.2,1.1s0,1.3-.7,1.1c.2-.7-1.5-2.1-2-1.6-.4,1.4,1.1,2.4,2.2,2.5.2,1.7-1.9-.5-2.7-.8.3-1,0-1.8,0-2.8.2,0,.5,0,.7-.2Z"/>
        <path class="st5" d="M148.9,100.1c0,.2.1.5.2.7-1.2-.1-1.2,1.8-2.2,1.8,0,.5,0,1.1,0,1.6-.8.1-.7-1.3-.9-1.8.3.2.6.2.9.2,0-1-.4-.4-.4-1.1,1.2,0,1.1-1.6,2.5-1.4Z"/>
        <path class="st3" d="M150.3,139.9c0-.7.2-1.4.2-2,.4.5.3,1.6-.2,2Z"/>
        <path class="st3" d="M150.5,137.5c0-.1.1-.2.2-.2,0,.1-.1.2-.2.2Z"/>
        <path class="st5" d="M145.8,101.2c0,0-.2-.1-.2-.2l.2.2Z"/>
      </g>
      <g>
        <path class="st6" d="M118.5,146c3,2.1,8.5,2.3,12.1,1.7l.9-13,.7.2,6.5,8.6c.9.3.6-.3.9-.7s.6-.3.7-.6c1.7,1.8,3.2,4.2,5.6,5.2,0,.5,0,1.1,0,1.7s-.5,1.4-.4,2,1.5,1.9,1.8,2.1.8.3.7-.3c0,0,.3,0,.4.2-1,.8,0,1.5.2,2.4.3,2.1-1.1,3.5-2.2,4.9s-.5.5-.4,1c-1-.1-2,1.4-2.7,1.8s-2.8,1.2-3.9,1.8-.7,0-.6.6c-.5,0-2,.6-2.7.8s-.4.3-.4.3c-7,1.7-15.9,1-21.7-3.7s-4.1-4.2-3.8-6.9c2.5-2.9,5-5.9,7.1-9.1s.4-.8.5-1.2c.3.2.6.2.9.2Z"/>
        <path class="st7" d="M130.1,103c-.3.5-1.1.6-1.5,1-4.5,4-4.5,10.3-1.6,15.4s5.4,5.5,8.5,5.1c-.2,1.5-3.8,1.8-4,2.8s0,.7,0,1c0,.9.3,1.9-.6,2.4s-3.4.8-4.4,0-.1-.4-.1-.5v-1.4c0-.2,0-.5,0-.7s0-.5,0-.7l-.4-.5c-.6-.3-2-.4-2.6-.6-2.3-.9-5-3.5-6.2-5.5s-.6-1.7-.8-1.8l-24.6,7.4-11.1-16,34.9,3.6c.3-6.9,6.9-12.6,13.8-11.7s.7.4.8.5Z"/>
        <path class="st5" d="M131.5,128.2c.5,0,.8,0,1.2.2.9.4,8,6.3,8.6,7.1,1.3,1.9.3,3.6-.6,5.4s-.3.6-.5,1.2-.5.4-.7.6c-.3.4,0,1-.9.7l-6.5-8.6-.7-.2-.9,13c-3.5.6-9,.4-12.1-1.7-1.8-1.2-4.9-4.8-4.9-7.1s1-1.5,1.4-2.8c0,0,.2,0,.2,0,1-.4,3.2-1.9,4.2-2.6s.9-.9.9-1.2c0,0,.2,0,.2,0,.5-.2,1-.2,1.4-.7s.1-.6.2-.7.7-.4.9-.5.5,0,.7-.3c.9-.5,1.5-1.3,2.6-1.3v.9h-.2c0,.3.2.4.2.5s-.1.3.1.5c1,.7,3.4.5,4.4,0s.6-1.5.6-2.4Z"/>
        <path class="st4" d="M114.9,136.1c-.3,1.4-1.4,1.2-1.4,2.8s3.1,5.9,4.9,7.1c-.3,0-.6,0-.9-.2-1.1-.6-3.1-3.1-3.7-4.3-.9-1.8-1.3-4.7,1-5.4Z"/>
        <path class="st4" d="M120.3,132.3c0,.3-.7,1-.9,1.2-1,.7-3.3,2.3-4.2,2.6,0-.5.8-1,1.1-1.2,1.1-.8,2.8-2.2,4-2.6Z"/>
        <path class="st4" d="M126.3,128.2c0,.2,0,.5,0,.7-1.2,0-1.7.8-2.6,1.3s-.6.2-.7.3-.8.4-.9.5c0,0,0,.4-.2.7-.4.5-.9.5-1.4.7,0-.6.9-1.1,1.4-1.4s1-.4,1.1-.4,0-.5.5-.8c.9-.6,1.9-1.3,2.9-1.5Z"/>
        <path class="st4" d="M126.3,127.6s-.4-.4-.4-.5l.4.5Z"/>
        <path class="st4" d="M126.3,130.3c0,0-.2-.1-.2-.3h.2c0-.1,0,.3,0,.3Z"/>
      </g>
    </g>
  </g>
</svg>