<?xml version="1.0" encoding="utf-8"?>
<!-- Generator: Adobe Illustrator 28.2.0, SVG Export Plug-In . SVG Version: 6.00 Build 0)  -->
<svg version="1.1" id="图层_1" xmlns="http://www.w3.org/2000/svg" xmlns:xlink="http://www.w3.org/1999/xlink" x="0px" y="0px"
	 width="256px" height="256px" viewBox="0 0 256 256" style="enable-background:new 0 0 256 256;" xml:space="preserve">
<style type="text/css">
	.st0{fill-rule:evenodd;clip-rule:evenodd;fill:#EF6735;}
	.st1{fill-rule:evenodd;clip-rule:evenodd;fill-opacity:0.3;}
	.st2{fill-rule:evenodd;clip-rule:evenodd;fill:url(#SVGID_1_);}
	.st3{fill:#E26D34;}
	.st4{fill:#0D1532;}
	.st5{fill:#FCFDFC;}
	.st6{fill:#B8D0EC;}
</style>
<path class="st0" d="M104.4,42.4C100,37.1,93.5,34,86.6,34H29c-6.6,0-12,5.4-12,12v12.1v10.1V160c0,6.6,5.4,12,12,12h200
	c6.6,0,12-5.4,12-12V70.1c0-6.6-5.4-12-12-12H117.4L104.4,42.4z"/>
<g>
	<g>
		<path class="st1" d="M92.8,74c5,0,9.8-1.6,13.8-4.6l9.9-7.4H229c6.6,0,12,5.4,12,12v34v52c0,6.6-5.4,12-12,12H29
			c-6.6,0-12-5.4-12-12v-52V86c0-6.6,5.4-12,12-12h58H92.8z"/>
	</g>
</g>
<g>
	
		<linearGradient id="SVGID_1_" gradientUnits="userSpaceOnUse" x1="129" y1="-39.4062" x2="129" y2="-196.7178" gradientTransform="matrix(1 0 0 -1 0 16)">
		<stop  offset="0" style="stop-color:#4A8DCB"/>
		<stop  offset="1" style="stop-color:#2D64B0"/>
	</linearGradient>
	<path class="st2" d="M92.8,74c5,0,9.8-1.6,13.8-4.6l9.9-7.4H229c6.6,0,12,5.4,12,12v34v90c0,6.6-5.4,12-12,12H29
		c-6.6,0-12-5.4-12-12v-90V86c0-6.6,5.4-12,12-12h58H92.8z"/>
</g>
<g>
	<path class="st3" d="M167.2,162.5L167.2,162.5C167.1,162.6,167.1,162.6,167.2,162.5c-0.2,0.4-0.3,0.6-0.4,0.9
		c-4,0-6.9-0.5-10.5-2.3c-1.6-3.4-3.8-6.2-4.9-9.9c-1.2-3.9-1.9-8.1-2.7-12.1c-0.5,7.3-1,14.4-2.6,21.6c-1.1,0.1-1.9,0.7-3,0.7
		c-1.4,0.1-2.8-0.4-4.1-0.7c0.7-7.2,3.6-13.7,4.9-20.8c-0.1,0-0.2-0.1-0.3-0.1c-2.1,1.8-3.7,4.2-5.8,6c-2.1,1.8-4.5,3.1-6.9,4.4
		c0.4-1.8-0.3-3.2-1.8-4.1c0.4-0.2,0.8-0.5,1.2-0.7c1.9-1,3.6-2.1,5.1-3.7c2.2-2.2,4.4-4.3,6.2-7c1.4-2.2,3.2-4.2,3.9-6.7
		c0.8-1,1.4-2.2,1.5-3.5c1.5,2.1,3.9,2.1,5.3,0c3.3,4.3,7.5,7.1,11.9,10.1c1.7,1.2,3.5,2.4,5.3,3.4c2.2,1.2,5.2,2.4,7.1,4.1
		c-1.7,0.9-4-0.2-5.6-0.6c-0.1-0.1-0.1-0.2-0.2-0.3c-0.1,0.1-0.1,0.1-0.2,0.2c0.1,0.1,0.2,0.1,0.3,0.2c2.3,3,4.7,5.7,6.2,9.2
		c-1.9,0.8-3.7,1.3-5.8,0.8c-1.6-0.7-3.2-1.3-4.9-1.9c0.4,1.9,1.3,3.6,1.5,5.5c0.3,2.5,0,4.5-0.7,6.9
		C167.2,162.3,167.2,162.4,167.2,162.5z"/>
	<path class="st4" d="M152.3,124.5c-1.4,2.1-3.8,2.1-5.3,0c0-1.7,0-3.4-0.1-5.1c4.8-0.8,3.6-8.8,2.5-11.9c-1.4-3.7-4.7-8.7-9.3-8.2
		c4.4-3.9,10.9-4.1,15.5-0.3c0-2.1-0.2-3.5,0.6-5.4c0.7-1.6,1.3-2.8,2.8-3.7c3.3-2,7.7-1.5,10.3,1.4c2.6,2.8,2.7,7.2,0.4,10.3
		c-2.8,3.7-6.8,3.2-10.7,1.9c-0.1,0-0.1-0.1-0.2-0.1c0,0.1,0,0.1,0,0.2c0.8,3.9,1,7.7-1.5,11c-1.2,1.7-2.9,2.3-4.3,3.6
		C151.7,119.5,152.6,122.7,152.3,124.5z"/>
	<path class="st5" d="M140.1,99.3c4.5-0.5,7.9,4.5,9.3,8.2c1.2,3.2,2.4,11.1-2.5,11.9c-4.7-0.1-8.8-3.7-10.2-8.1
		c-0.9-2.6-0.6-5,0.3-7.6c0.4-1.3,1.4-4,3-4.3C140,99.4,140.1,99.4,140.1,99.3C140.1,99.3,140.1,99.3,140.1,99.3z"/>
	<path class="st3" d="M95.1,161.4c-0.7-0.9-1.1-1.9-1.1-3.1c-0.4-3.1,3.3-6.6,4.7-9.2c1.6-2.9,3.9-6.8,3.9-10.2
		c-1.5-0.1-2.9-0.6-4.2-1.4c-1.3-0.8-2-1.6-3.3-0.4c-2.2,2-2.5,5.4-4.3,7.7c-1.5-1.4-1.8-4.1-2.2-6.1c-0.5-2.6-0.8-5.3-0.5-7.9
		c0.5-4.5,3.3-6.5,6.4-9.3c1.8-1,3.6-2.2,5.6-2.8c1.4-0.4,4.4-1.2,5.7-0.3c-3.7,1.6-3.1,6.1-2.1,9.4c0.8,3,3.3,8.1,6.9,8.1
		c-0.4,1-1.9,1.1-2.3,2c-0.3,0.7,0.5,2.1,0.8,2.8c0.8,2.2,1.3,4.3,3.1,5.7c3.8,2.9,8.8,3.3,13.3,1.7c0,1.3,0.8,2,1.8,2.7
		c-0.6,0.3-1.2,0.7-1.8,1c-2.3,0.1-4.5,0.3-6.8,0.4c-2.2,0.1-4.1-0.5-6.1-1.4c-1.1-2.3-2-4.8-4.3-6.2
		C105,151.2,100.9,157,95.1,161.4z"/>
	<path class="st5" d="M113.6,125.4c1,3.6,0.4,8.3-2.9,10.6c-3.6,0-6.1-5.1-6.9-8.1c-0.9-3.3-1.5-7.8,2.1-9.4
		C109.9,119.2,111.8,122,113.6,125.4z"/>
	<path class="st4" d="M156.3,161.1c0.1,4.2,0.2,8.4,0.3,12.6c0,0.5,0,1,0,1.5c0,2.1,0,4.3,0,6.4c-1.5,0.9-3.6,2.8-5.5,2.6
		c-2.6-0.2-0.8-2.3,0.1-3.5c0.7-0.6,1.4-1.3,2.1-1.9c0,0,0.1-0.1,0.1-0.1c0-2-0.1-3.9-0.1-5.9c-0.1-3.6-0.2-7.1-0.2-10.7
		c0-1.1,0-2.2-0.2-3.3c0-0.4-0.3-1-0.6-1c-0.9-0.1-1.9-0.1-2.8-0.1c-0.2,0-0.6,0.5-0.6,0.8c0.1,5.1,0.2,10.2,0.3,15.4
		c0,0.7,0,1.4,0,2.1c0,0.1,0,0.2,0,0.3c0,0.5,0,0.9,0,1.4c-0.3,0.3-0.7,0.6-1,0.9c-1.1,0.5-4.8,3.1-5.5,1.1c-0.7-1.9,2.3-3.2,3-4.5
		c1-1.9,0.4-5,0.4-7c0-2.5,0-5-0.1-7.5c1.6-7.2,2.1-14.2,2.6-21.6c0.8,4,1.4,8.2,2.7,12.1C152.5,154.9,154.6,157.7,156.3,161.1z"/>
	<path class="st5" d="M131,150.2c-1.1,0.5-2.2,1.3-3.5,0.7c-1-0.6-1.9-1.4-1.8-2.7c0.7-1.5,2.1-1.9,3.5-2.1
		C130.6,147.1,131.3,148.4,131,150.2z"/>
	<path class="st5" d="M95.1,161.4c5.8-4.4,9.9-10.2,13.3-16.6c2.3,1.4,3.2,3.9,4.3,6.2c1,2.8,3,6.3,1.7,9.2
		c-0.5,1.2-1.3,2.2-2.3,3.1c-0.9,0.9-2.5,1.1-3.2,1.9c-2.8,0.2-5.5,0.4-8.4,0.2c-1.6-0.6-3.3-1.3-4.5-2.6
		C95.7,162.4,95.4,161.8,95.1,161.4z"/>
	<path class="st5" d="M100.3,175.5c0.1-1.7,0.1-3.4,0.2-5.1c0.1-1.2,0.1-2.3,0.2-3.5c0.9,0.1,1.9,0.1,2.8,0.2c0,1.5,0,2.9,0,4.4
		c0,0.1,0,0.2,0,0.3c0,0.2-0.1,0.4-0.1,0.6c0,0.5,0,1,0,1.6c0,0.2,0,0.5,0,0.7c-0.4,2.6,0.3,3.4,1.8,5.4c0,0.2,0,0.3,0,0.5
		c0,0.1-0.1,0.1-0.1,0.2c-1.3,0.9-3.1,0.5-4.1-0.7C99.8,178.8,100.3,177,100.3,175.5z"/>
	<path class="st5" d="M108.9,173.2c-0.8,1.6,3.1,2.7,1.5,4.3c-0.5,0-1,0.1-1.5,0.1c-1.7-0.6-3.1-1-2.9-3.3c0-0.3,0-0.7,0-1
		c0-0.6,0-1.2,0-1.7c0.1-1.3,0.1-2.6,0.2-3.9c0.9-0.2,1.7-0.4,2.6-0.7C109,169,109,171.1,108.9,173.2z"/>
	<path class="st6" d="M109,167c-0.9,0.2-1.7,0.4-2.6,0.7c0-2.2-0.7-1.8-2.7-1.7c-0.1,0.4-0.1,0.8-0.2,1.1c-0.9-0.1-1.9-0.1-2.8-0.2
		c0-0.5,0-1,0-1.6c2.8,0.2,5.5,0,8.4-0.2C109,165.8,109,166.4,109,167z"/>
</g>
</svg>
