<?xml version="1.0" encoding="utf-8"?>
<!-- Generator: Adobe Illustrator 28.1.0, SVG Export Plug-In . SVG Version: 6.00 Build 0)  -->
<svg version="1.1" id="图层_1" xmlns="http://www.w3.org/2000/svg" xmlns:xlink="http://www.w3.org/1999/xlink" x="0px" y="0px"
	 width="256px" height="256px" viewBox="0 0 256 256" style="enable-background:new 0 0 256 256;" xml:space="preserve">
<style type="text/css">
	.st0{fill-rule:evenodd;clip-rule:evenodd;fill:url(#SVGID_1_);}
	
		.st1{fill-rule:evenodd;clip-rule:evenodd;fill:url(#SVGID_00000053518530821876086250000007021042279308634812_);filter:url(#Adobe_OpacityMaskFilter);}
	.st2{mask:url(#mask0_1709_29872_00000038410826747549506030000005023154206113025447_);}
	.st3{fill-rule:evenodd;clip-rule:evenodd;fill-opacity:0.3;}
	.st4{fill-rule:evenodd;clip-rule:evenodd;fill:url(#SVGID_00000129918620581236158270000009842569477901989004_);}
	.st5{fill:url(#SVGID_00000150821222819484490370000017228758226833718663_);}
</style>
<linearGradient id="SVGID_1_" gradientUnits="userSpaceOnUse" x1="23.1646" y1="178.9939" x2="225.6646" y2="109.9939" gradientTransform="matrix(1 0 0 -1 0 258)">
	<stop  offset="0" style="stop-color:#FD6453"/>
	<stop  offset="1" style="stop-color:#F3DC0D"/>
</linearGradient>
<path class="st0" d="M104.4,42.4c-4.4-5.3-10.9-8.4-17.8-8.4H29c-6.6,0-12,5.4-12,12v12.1v10.1V160c0,6.6,5.4,12,12,12h200
	c6.6,0,12-5.4,12-12V70.1c0-6.6-5.4-12-12-12H117.4L104.4,42.4z"/>
<defs>
	<filter id="Adobe_OpacityMaskFilter" filterUnits="userSpaceOnUse" x="17" y="62" width="224" height="110">
		<feColorMatrix  type="matrix" values="1 0 0 0 0  0 1 0 0 0  0 0 1 0 0  0 0 0 1 0"/>
	</filter>
</defs>
<mask maskUnits="userSpaceOnUse" x="17" y="62" width="224" height="110" id="mask0_1709_29872_00000038410826747549506030000005023154206113025447_">
	
		<linearGradient id="SVGID_00000098931859753286830820000002003720272691192219_" gradientUnits="userSpaceOnUse" x1="32.5816" y1="239.5494" x2="213.3495" y2="58.4074" gradientTransform="matrix(1 0 0 -1 0 258)">
		<stop  offset="0" style="stop-color:#05815D"/>
		<stop  offset="1" style="stop-color:#0C575F"/>
	</linearGradient>
	
		<path style="fill-rule:evenodd;clip-rule:evenodd;fill:url(#SVGID_00000098931859753286830820000002003720272691192219_);filter:url(#Adobe_OpacityMaskFilter);" d="
		M104.4,42.4c-4.4-5.3-10.9-8.4-17.8-8.4H29c-6.6,0-12,5.4-12,12v12.1v10.1V160c0,6.6,5.4,12,12,12h200c6.6,0,12-5.4,12-12V70.1
		c0-6.6-5.4-12-12-12H117.4L104.4,42.4z"/>
</mask>
<g class="st2">
	<g>
		<path class="st3" d="M92.8,74c5,0,9.8-1.6,13.8-4.6l9.9-7.4H229c6.6,0,12,5.4,12,12v34v52c0,6.6-5.4,12-12,12H29
			c-6.6,0-12-5.4-12-12v-52V86c0-6.6,5.4-12,12-12h58H92.8z"/>
	</g>
</g>
<g>
	
		<linearGradient id="SVGID_00000148636864098621238960000000103387730395733916_" gradientUnits="userSpaceOnUse" x1="17" y1="196" x2="241" y2="48" gradientTransform="matrix(1 0 0 -1 0 258)">
		<stop  offset="0" style="stop-color:#FFF9FB"/>
		<stop  offset="1" style="stop-color:#FBFFD4"/>
	</linearGradient>
	<path style="fill-rule:evenodd;clip-rule:evenodd;fill:url(#SVGID_00000148636864098621238960000000103387730395733916_);" d="
		M92.8,74c5,0,9.8-1.6,13.8-4.6l9.9-7.4H229c6.6,0,12,5.4,12,12v34v90c0,6.6-5.4,12-12,12H29c-6.6,0-12-5.4-12-12v-90V86
		c0-6.6,5.4-12,12-12h58H92.8z"/>
</g>
<linearGradient id="SVGID_00000061468099743656804750000013923323167633616047_" gradientUnits="userSpaceOnUse" x1="83.9289" y1="137.8393" x2="176.4372" y2="137.8393">
	<stop  offset="0.3575" style="stop-color:#FD6453"/>
	<stop  offset="0.3804" style="stop-color:#FD6A50"/>
	<stop  offset="0.6396" style="stop-color:#F7A72C"/>
	<stop  offset="0.8297" style="stop-color:#F4CD15"/>
	<stop  offset="0.9292" style="stop-color:#F3DC0D"/>
</linearGradient>
<path style="fill:url(#SVGID_00000061468099743656804750000013923323167633616047_);" d="M84,139.9c-0.3-3.8,2.5-7.1,6.1-7.2
	c4.6-0.3,9.7,2.5,14,4.3c7.5,3.7,13.1,5.6,20.1,0.1c11.2-8.3,22.3-16.8,33.5-25.1c4-2.7,7.8-7,12.8-7.4c5-0.2,7.2,5.4,5.3,9.7
	c-1.4,3.6-4.5,6.4-7.2,9.2c-14.9,14.9-29.4,30.3-44.4,45c-4.1,3.7-9.1,3.4-13.2,0c-7-5.7-13.5-12.1-20.2-18.1c-3-2.8-6.4-6-6.8-10.3
	L84,139.9z"/>
</svg>
