<?xml version="1.0" encoding="UTF-8"?>
<svg xmlns="http://www.w3.org/2000/svg" width="256" height="256" version="1.1" xmlns:xlink="http://www.w3.org/1999/xlink" viewBox="0 0 256 256">
  <!-- Generator: Adobe Illustrator 29.2.1, SVG Export Plug-In . SVG Version: 2.1.0 Build 116)  -->
  <defs>
    <style>
      .st0 {
        fill-opacity: .3;
      }

      .st0, .st1, .st2, .st3 {
        fill-rule: evenodd;
      }

      .st4 {
        mask: url(#mask);
      }

      .st5 {
        fill: #e43322;
      }

      .st6 {
        isolation: isolate;
      }

      .st1 {
        fill: url(#_未命名的渐变_3);
      }

      .st7 {
        fill: #150d0d;
      }

      .st8 {
        fill: #fefdfd;
      }

      .st9 {
        mix-blend-mode: multiply;
      }

      .st10 {
        display: none;
        fill: #e92328;
      }

      .st2 {
        fill: url(#_未命名的渐变_2);
      }

      .st3 {
        fill: url(#_未命名的渐变_9);
      }
    </style>
    <linearGradient id="_未命名的渐变_9" data-name="未命名的渐变 9" x1="17" y1="155" x2="241" y2="155" gradientTransform="translate(0 258) scale(1 -1)" gradientUnits="userSpaceOnUse">
      <stop offset="0" stop-color="#e43322"/>
      <stop offset=".3" stop-color="#e13221"/>
      <stop offset=".4" stop-color="#d93120"/>
      <stop offset=".5" stop-color="#cb2e1f"/>
      <stop offset=".6" stop-color="#b72a1d"/>
      <stop offset=".7" stop-color="#9e261a"/>
      <stop offset=".8" stop-color="#7e2017"/>
      <stop offset=".9" stop-color="#591913"/>
      <stop offset="1" stop-color="#2f110f"/>
      <stop offset="1" stop-color="#150d0d"/>
    </linearGradient>
    <linearGradient id="_未命名的渐变_2" data-name="未命名的渐变 2" x1="32.6" y1="239.5" x2="213.3" y2="58.4" gradientTransform="translate(0 258) scale(1 -1)" gradientUnits="userSpaceOnUse">
      <stop offset="0" stop-color="#05815d"/>
      <stop offset="1" stop-color="#0c575f"/>
    </linearGradient>
    <mask id="mask" x="17" y="34" width="224" height="138" maskUnits="userSpaceOnUse">
      <g id="mask0_955_21200">
        <path class="st2" d="M104.4,42.4c-4.4-5.3-10.9-8.4-17.8-8.4H29c-6.6,0-12,5.4-12,12v114c0,6.6,5.4,12,12,12h200c6.6,0,12-5.4,12-12v-89.9c0-6.6-5.4-12-12-12h-111.6l-13-15.8Z"/>
      </g>
    </mask>
    <linearGradient id="_未命名的渐变_3" data-name="未命名的渐变 3" x1="17" y1="196" x2="241" y2="48" gradientTransform="translate(0 258) scale(1 -1)" gradientUnits="userSpaceOnUse">
      <stop offset="0" stop-color="#fff"/>
      <stop offset="1" stop-color="#e3e3e3"/>
    </linearGradient>
  </defs>
  <g class="st6">
    <g id="_图层_1" data-name="图层_1">
      <path class="st3" d="M104.4,42.4c-4.4-5.3-10.9-8.4-17.8-8.4H29c-6.6,0-12,5.4-12,12v114c0,6.6,5.4,12,12,12h200c6.6,0,12-5.4,12-12v-89.9c0-6.6-5.4-12-12-12h-111.6l-13-15.8Z"/>
      <g class="st4">
        <g class="st9">
          <path class="st0" d="M92.8,74c5,0,9.8-1.6,13.8-4.6l9.9-7.4h112.5c6.6,0,12,5.4,12,12v86c0,6.6-5.4,12-12,12H29c-6.6,0-12-5.4-12-12v-74c0-6.6,5.4-12,12-12h63.8Z"/>
        </g>
      </g>
      <path class="st1" d="M92.8,74c5,0,9.8-1.6,13.8-4.6l9.9-7.4h112.5c6.6,0,12,5.4,12,12v124c0,6.6-5.4,12-12,12H29c-6.6,0-12-5.4-12-12v-112c0-6.6,5.4-12,12-12h63.8Z"/>
      <path class="st10" d="M204.2,108l-3.2,3.3c4.8-.3,12.3.1,17.1,1,0,0-4.6,1.7-8.9,4.7,2.7,0,5-.2,5.6-.7.6-.4,3.8-4.2,5.4-6.3-4.7-1.2-11-1.9-16.1-2ZM199.2,100.7c-1.9,1.8-4.6,4.8-7.4,8-12,1.3-22,4.5-38.4,11l11.5,2c10.4-5,22.6-9.4,33.7-10.2,1.6-4.1,3.9-9.4,7.3-14.5,0,0-4.3,2.3-6.6,3.7h0ZM23,157.6l11.8,1.1c39.7-.6,66.4-5.7,112.6-27.3,6.3-3,12-5.4,13.9-6.1,4.4,0,11.4,1.5,17.1,2.3-3-1.5-8.8-3.8-11.9-5.2-3.9.2-11.9.6-15,.7-2.4,1-4.5,2-7.3,3.3-55.7,25.3-86.1,31.3-121.2,31.1ZM224.4,111.2c3.6.6,7.6,2,10.9,3.9-4.5-1-11-1.9-15.8-2.1,0,0,3.1-1.4,5-1.8Z"/>
      <g>
        <path class="st5" d="M73.8,109.7c1.4,5.2,1,11.5-1.4,16.4s-4,4.6-4,6.8,3.4,4,4.7,6.2c3.5,5.9-.7,15.9,0,22.7l-3.3,2.5c-.4-.2-1.3,0-2-.4-1.8-1.2-5-7.4-5.3-9.6-.5-3.5,2.2-6.8,2.6-10.3s0-2,0-3c-3.3-1.3-4,4-6.8,5-1.4-.5-2.6,0-4.1-1.7s-1.1-3.8-2.7-5.1v-4.7c7.1-4.2,10.7-24.8,18.7-26.1s2.4.7,3.6,1.2Z"/>
        <path class="st5" d="M133.6,140c-2.6-1.1-3.7-1.3-4.5-4.7-1.2-5.5,3.9-7.9,6.8-11.5,4-4.7,11.9-16.5,16.2-19.5s3-1.3,5.1.7,2.1,3.5,3.7,6,7.3,5,5,8.1c-2.1-.7-4.6-1.3-6.8-2s-1.5-1.4-2.9-1.2-8,6.5-8.4,7.7c-1.1,3.2,1.3,2.4,3.2.9,4-.4,6-1.9,10.2-1s1,1,1.3,1c-.5,6.5-11.6,2.9-11.5,10.1,1.4.5,2.5-.4,3.4-.7,2.8-.7,5.5-2.5,7.8-2.7,3.4-.3,4.6,1.8,7.7,1.3.3-.2,1.4-5.5,1.4-6.4.1-3.5-3-7.6,3-7s3.3.8,3.6.8.2,1.1.6,1.2c1.5.2,2.7-2.7,2.3,2-3.1,3.5-2.7,14.3-4.7,18.8-3.5-1.7-3-1.6-5.4-4.7-.2-.2,0-1.3-.6-1.7-3.3-2.2-3.6,5.1-4.5,6.4-1.6,2.4-9.3,1.8-3.7,7.8,1.7,1.8,2.5,1.5,4.1,2.3s1.3,1,2,1.3c.9,2,2.3,3.7,2,6.1-1.2-.4-7.1-1.8-7.4-2s.3-1.2-.4-1.4c-2.5-.6-4.8,2.7-5.7,4.7-.7-.2-2,2-3.4-2,0-1.9-.6-3-.7-4-.3-3.7.8-2.2,2.4-4s1.9-3.2,1.7-5.4-1.2-4.6-1.4-4.7-1.5,0-2,0c1.2,6.4-6.5,4.5-8.8,8.8-.7-.3-1.7.2-2.7-1s-3.5-6.7-3.3-8.5c.9-1.1,0-2.8,3.4-4,.9-.3,2,0,3.6-.8s3.2-2.8,3.5-3.3c1.1-2.3-.2-2.1-1.7-2.7s-2.9-1.3-4.4,0l-9.1,10.8ZM162,134.6c-1.8-1.9-5.5,3-4.1,5.4,2.3,1.1,4.9-4.5,4.1-5.4ZM149.2,136.6c-3.9.5-6.2,2.6-5.4,6.7,2.6,1.9,6-6.1,5.4-6.7Z"/>
        <path class="st5" d="M105.6,113.8c5.4,5.9.3,14.6,2.1,20.4s2.5.5,3.3-.2c3.2-2.6,2.2-3.5,7.6-2.5,1.2.2,1.7.9,2.5,1.2,3.8,6.9,1.6,14.8-2.7,20.9-.8-.3-1.5.2-2.7-1s-1.4-3.7-2.7-5.1c.1-.1,1.2-2.9,1.4-3.4.8-2.5,1.2-4.2,0-6.7s-8.4-.9-6.4,3.4,2,1.5,3,2,.5.6.7.7c0,1.6-.9,1.8-2,2.4-7.6,4-17.4,6-25.7,8.4-.5-.2-1.9.3-2.6-.1s-2.2-5.3-2.2-6.3c0-1.6,4.2-14.6,4.8-15,1.4-1,4.1.7,5.3,1.3,2.5,2.4,1.4,10.8,2.3,12.1s2.6,0,3.1,0c13.3-1.8,1.1-4.6.6-9.8s1.3-.9,1.9-2.1,1.4-8,1.5-9.9c.4-6.9-3.5-13.3,6.7-10.5Z"/>
        <path class="st5" d="M193.8,103.7c1.5,5.3-1,10.5-1.3,15.8-1.1,15.3,2.6,32.5,4.1,47.8l-2.1,2.3c-4.8-1.4-8.7-3.2-13.3-5.9s-5.9-3-6.3-5.2c-.4-2.3,2.6.1,3.8.3,3.1.5,8.4-.7,9.5-4l-1-52.5c2.6-.4,4.5.5,6.8,1.3Z"/>
        <path class="st7" d="M193.8,103.7c2.6,1,3,.1,3.4,3.7.5,4.5-1.1,7.1-1.3,10.8-.9,14,1.2,28.5,2.7,42.4.4,4,4,12.1-2.9,10.3-.8-.2-1-1.2-1.1-1.2l2.1-2.3c-1.5-15.3-5.2-32.4-4.1-47.8s2.8-10.6,1.3-15.8Z"/>
        <path class="st7" d="M69.7,164.2l3.3-2.5c-.6-6.7,3.5-16.7,0-22.7-1.3-2.1-4.7-3.6-4.7-6.2s3-4.6,4-6.8c2.4-4.9,2.8-11.2,1.4-16.4,1.3.5,2.1-.4,3.2,1.8,2.6,4.9-.3,13.3-2.7,17.9s-3,2.6-2.6,5.5,3.6,3.7,4.7,5.5c2.7,4.8.6,8.6.1,13.4s1.1,10.5-3.2,11.7c-2.2.6-2.5-.8-3.6-1.2Z"/>
        <path class="st5" d="M139,166.3c-1.6-.6-3.2.8-3.9-2.5s-.1-4,.8-6.3,4.1-6.5,4.4-6.7c1.3-1,1.3,1,1.8,1.4,3.4,2.1,5.7,2.4,9,0,0,.9.1,1.8,0,2.7-.3,2.1-1.2,4.3-.7,6.7-.4-.2-1.2,0-2-.4-1.2-.7-1.7-2.4-3.4-2.3,0-1.7-1.1-3.7-2.7-2.7s-2,8.7-3.4,10.1Z"/>
        <path class="st7" d="M114.4,144c-.1.4-1.2,3.2-1.4,3.4s-2.2.2-3.1.6c-4.2,1.8-21.4,8.4-24.9,7.3-.8-.2-1.1-1.2-1.1-1.2,8.3-2.4,18.1-4.4,25.7-8.4s2.1-.7,2-2.4c.8.3,1.8.4,2.7.7Z"/>
        <path class="st7" d="M180.9,123.2c.3-.4,2.3-1.8,2.7-1.3l-4.1,21.5c-1.7.6-2.5-.9-3.4-1.3,2-4.5,1.6-15.4,4.7-18.8Z"/>
        <path class="st7" d="M118.4,153.5c4.3-6.1,6.5-14,2.7-20.9.6.2,1.4-.1,2.4.6,2.8,2.1,2.7,9.2,2.3,12.4s-3.1,8.3-4,8.8c-1.7,1.1-2.5-.7-3.4-1Z"/>
        <path class="st7" d="M111,133.9c-.8.7-2.4,2.9-3.3.2-1.8-5.8,3.3-14.5-2.1-20.4,3.4.9,4,1.8,5.3,5.2l.2,15Z"/>
        <path class="st7" d="M170.8,137.3c-1.4,1.6-1,4.3-2,5.8-1.9,2.7-9.8,1.9-2.8,9-1.6-.8-2.4-.5-4.1-2.3-5.6-5.9,2.1-5.4,3.7-7.8s1.2-8.6,4.5-6.4.4,1.5.6,1.7Z"/>
        <path class="st7" d="M147.1,129.2c-2.3,1.8-4.1,4.1-5.4,6.7-3.4,1.3-2.5,3-3.4,4s-2.8,1.3-2.9,1.2c-.6,0-1.2-1-1.8-1.2l9.1-10.8c1.5-1.2,2.9-.6,4.4,0Z"/>
        <path class="st7" d="M154.6,133.9c-.9.2-1.9,1.2-3.4.7-.1-7.2,11-3.6,11.5-10.1,1.2.5,5.1-.4,2.7,3.1s-6.6,2.9-9.3,4.2-3,1.6-1.6,2.2Z"/>
        <path class="st7" d="M144.4,149.4c2.3-4.3,10-2.4,8.8-8.8.6,0,1.8-.1,2,0s1.3,4.4,1.4,4.7c-2.6.7-9.6,5.9-11.5,5.1s-.6-1-.7-1Z"/>
        <path class="st7" d="M157.3,105c5.5-.6,5.5,5.6,7.4,8.3s7.5,5.2,5.4,7.2-3.8-1.3-4.1-1.3c2.2-3.1-3.5-5.8-5-8.1s-1-3.4-3.7-6Z"/>
        <path class="st7" d="M159.3,117.1c-3.5,1.1-5.6,5.4-8.1,7.4s-4.3,2.3-3.2-.9,7.2-7.5,8.4-7.7,2.1.9,2.9,1.2Z"/>
        <path class="st7" d="M145.1,158.8c0,2-2.4,8.3-4.5,8.7s-1.5-1.3-1.6-1.3c1.4-1.4,2.9-9.8,3.4-10.1,1.6-1.1,2.8.9,2.7,2.7Z"/>
        <path class="st7" d="M89.3,133.9c.8.3,2,.5,2.5.9,2.4,1.9,3.2,8.3,2.9,11.2-.5,0-1.9,1.7-3.1,0s.2-9.7-2.3-12.1Z"/>
        <path class="st7" d="M58.2,146.1c2.7-1.1,3.5-6.4,6.8-5,0,1,.1,2,0,3-2.4,1.3-2.1,4.3-5.6,3.2s-1-1.2-1.1-1.2Z"/>
        <path class="st7" d="M156.6,160.9c.8-2.1,3.2-5.3,5.7-4.7s.4,1.3.4,1.4c-1.1,1.5-2.8,5.2-5,4.6s-1-1.2-1.1-1.3Z"/>
        <path class="st7" d="M152.5,154.8c0,1,.6,2.2.7,4s0,2.7,0,4c-1.3.4-1.9-1-2.7-1.3-.5-2.4.4-4.7.7-6.7h1.4Z"/>
        <path class="st7" d="M170.1,159.5c.3-2.3-1.1-4.1-2-6.1.6.3,1.4-.1,2.7,1s3.8,6,1.6,6.5-1.9-1.2-2.4-1.3Z"/>
        <path class="st8" d="M141.7,136c1.3-2.6,3.1-5,5.4-6.7,1.5.6,2.8.4,1.7,2.7s-2.9,3-3.5,3.3c-1.6.8-2.8.4-3.6.8Z"/>
        <path class="st7" d="M149.2,136.6c.6.6-2.8,8.6-5.4,6.7-.8-4.1,1.5-6.3,5.4-6.7Z"/>
        <path class="st7" d="M162,134.6c.9.9-1.7,6.5-4.1,5.4-1.5-2.4,2.2-7.2,4.1-5.4Z"/>
        <path class="st8" d="M114.4,137.3c1.2,2.6.8,4.2,0,6.7-.9-.3-1.9-.3-2.7-.7s-.4-.5-.7-.7c-1.6-4.1-.4-4.4,3.4-5.4Z"/>
        <path class="st7" d="M114.4,137.3c-3.8,1-5,1.3-3.4,5.4-1-.6-2.4-.5-3-2-2-4.3,4.9-6.7,6.4-3.4Z"/>
      </g>
    </g>
  </g>
</svg>