<?xml version="1.0" encoding="utf-8"?>
<!-- Generator: Adobe Illustrator 28.1.0, SVG Export Plug-In . SVG Version: 6.00 Build 0)  -->
<svg version="1.1" id="图层_1" xmlns="http://www.w3.org/2000/svg" xmlns:xlink="http://www.w3.org/1999/xlink" x="0px" y="0px"
	 width="256px" height="256px" viewBox="0 0 256 256" style="enable-background:new 0 0 256 256;" xml:space="preserve">
<style type="text/css">
	.st0{fill-rule:evenodd;clip-rule:evenodd;fill:#404040;}
	.st1{fill-rule:evenodd;clip-rule:evenodd;fill-opacity:0.3;}
	.st2{fill-rule:evenodd;clip-rule:evenodd;fill:url(#SVGID_1_);}
</style>
<path class="st0" d="M104.4,42.4C100,37.1,93.5,34,86.6,34H29c-6.6,0-12,5.4-12,12v12.1v10.1V160c0,6.6,5.4,12,12,12h200
	c6.6,0,12-5.4,12-12V70.1c0-6.6-5.4-12-12-12H117.4L104.4,42.4z"/>
<g>
	<g>
		<path class="st1" d="M92.8,74c5,0,9.8-1.6,13.8-4.6l9.9-7.4H229c6.6,0,12,5.4,12,12v34v52c0,6.6-5.4,12-12,12H29
			c-6.6,0-12-5.4-12-12v-52V86c0-6.6,5.4-12,12-12h58H92.8z"/>
	</g>
</g>
<g>
	
		<linearGradient id="SVGID_1_" gradientUnits="userSpaceOnUse" x1="32.6479" y1="287.3651" x2="319.1479" y2="556.8651" gradientTransform="matrix(1 0 0 1 0 -242)">
		<stop  offset="0" style="stop-color:#FAFAFA"/>
		<stop  offset="1" style="stop-color:#DFD8D8"/>
	</linearGradient>
	<path class="st2" d="M92.8,74c5,0,9.8-1.6,13.8-4.6l9.9-7.4H229c6.6,0,12,5.4,12,12v34v90c0,6.6-5.4,12-12,12H29
		c-6.6,0-12-5.4-12-12v-90V86c0-6.6,5.4-12,12-12h58H92.8z"/>
</g>
<g>
	<path d="M122,144.3c3-9-0.3-14.2-5.1-15.1c-5.8-1.1-10,0.9-16.3,9.1c-6.4,8.2-4.2,20.6,6.7,20.9C116.3,159.4,119.9,150.7,122,144.3
		z"/>
	<path d="M146.5,128.8c-5.8,2.4-6.9,6.4-3.9,15.4c2.1,6.4,5.7,15.1,14.8,14.8c10.9-0.3,13-12.7,6.7-20.9
		C157.7,130,152.2,126.4,146.5,128.8z"/>
	<path d="M107.3,108.7c0.1-0.7,0.1-1.3,0.1-2c0-9.1-7.4-16.5-16.5-16.5c-9.1,0-16.5,7.4-16.5,16.5c0,9.1,7.4,16.5,16.5,16.5
		c0.6,0,1.1,0,1.6-0.1C95.4,119.6,100.5,114,107.3,108.7z"/>
	<path d="M173.7,90.9c-9.1,0-16.5,7.4-16.5,16.5c0,0.7,0,1.3,0.1,2c6.8,5.3,11.9,10.9,14.7,14.4c0.5,0.1,1.1,0.1,1.6,0.1
		c9.1,0,16.5-7.4,16.5-16.5C190.2,98.2,182.8,90.9,173.7,90.9z"/>
	<path d="M147.4,172c-0.9-0.3-1.8,0.1-2.2,0.9c-0.2,0.6-0.5,1-0.9,1.4c-0.5,0.6-1.2,1-2,1.3c-0.8,0.3-1.7,0.4-2.7,0.4
		c-0.8,0-1.6-0.1-2.3-0.3c-1.1-0.3-2-0.7-2.6-1.2c-0.3-0.2-0.5-0.5-0.6-0.7c-0.1-0.2-0.2-0.4-0.2-0.6v-6.6c1.5-0.3,3.9-1.1,6.2-3.6
		c1.2-1.3,2-5-1-6.4c-1.6-0.8-4-0.9-6.8-0.9c-2.9,0-5.2,0.2-6.8,0.9c-3.1,1.4-2.2,5.1-1,6.4c2.3,2.5,4.7,3.3,6.2,3.6v6.6
		c0,0.1,0,0.3-0.1,0.4c-0.1,0.2-0.3,0.5-0.6,0.8c-0.4,0.4-1.2,0.9-2.1,1.2c-0.9,0.3-1.9,0.5-3,0.5c-1.2,0-2.5-0.3-3.4-0.8
		c-0.5-0.3-0.9-0.6-1.3-1c-0.4-0.4-0.6-0.8-0.9-1.4c-0.3-0.9-1.3-1.3-2.2-0.9c-0.9,0.3-1.3,1.3-0.9,2.2c0.4,0.9,0.9,1.7,1.5,2.4
		c0.9,1,2.1,1.7,3.3,2.2c1.2,0.4,2.5,0.6,3.8,0.6c1.1,0,2.1-0.1,3.1-0.4c1.5-0.4,2.9-1,4-1.9c0.1-0.1,0.2-0.2,0.2-0.2c0,0,0,0,0,0
		c0.9,0.9,2.1,1.5,3.3,1.9c1.3,0.4,2.6,0.7,4,0.7c1.7,0,3.4-0.3,5-1.2c0.8-0.4,1.5-1,2.1-1.6c0.6-0.7,1.2-1.5,1.5-2.4
		C148.6,173.3,148.2,172.3,147.4,172z"/>
</g>
</svg>
