<?xml version="1.0" encoding="UTF-8"?>
<svg id="_图层_1" data-name="图层_1" xmlns="http://www.w3.org/2000/svg" width="256" height="256" version="1.1" xmlns:xlink="http://www.w3.org/1999/xlink" viewBox="0 0 256 256">
  <!-- Generator: Adobe Illustrator 29.2.1, SVG Export Plug-In . SVG Version: 2.1.0 Build 116)  -->
  <defs>
    <style>
      .st0 {
        fill-opacity: .3;
      }

      .st0, .st1, .st2 {
        fill-rule: evenodd;
      }

      .st3 {
        display: none;
        fill: #1b1817;
      }

      .st4 {
        fill: #090909;
      }

      .st1 {
        fill: #dad5d5;
      }

      .st2 {
        fill: #242339;
      }

      .st5 {
        fill: #0c695c;
      }

      .st6 {
        fill: #070707;
      }
    </style>
  </defs>
  <path class="st2" d="M104.4,42.4c-4.4-5.3-10.9-8.4-17.8-8.4H29c-6.6,0-12,5.4-12,12v114c0,6.6,5.4,12,12,12h200c6.6,0,12-5.4,12-12v-89.9c0-6.6-5.4-12-12-12h-111.6l-13-15.7Z"/>
  <path class="st0" d="M92.8,74c5,0,9.8-1.6,13.8-4.6l9.9-7.4h112.5c6.6,0,12,5.4,12,12v86c0,6.6-5.4,12-12,12H29c-6.6,0-12-5.4-12-12v-74c0-6.6,5.4-12,12-12h63.8Z"/>
  <path class="st1" d="M92.8,74c5,0,9.8-1.6,13.8-4.6l9.9-7.4h112.5c6.6,0,12,5.4,12,12v124c0,6.6-5.4,12-12,12H29c-6.6,0-12-5.4-12-12v-112c0-6.6,5.4-12,12-12h63.8Z"/>
  <path class="st3" d="M98.9,81.7h106.1c12.6,0,22.7,10.2,22.7,22.7v106.1c0,12.6-10.2,22.7-22.7,22.7h-106.1c-12.6,0-22.7-10.2-22.7-22.7v-106c0-12.6,10.2-22.8,22.7-22.8Z"/>
  <g>
    <path class="st4" d="M163.2,169.4c-1.7-.7-4.6-2.4-5.2-2.6,16.4-14.2,13.8-39.5,1.2-55.3-18.1-22.8-52.2-17.2-63.4,9.1-17.5,41,22.4,68.1,57.9,48.8,2,.4,4.1.9,6.1,1.7-34.5,23.9-84.3,0-70.3-45.7.8-2.6,4.5-9.8,4.5-11,0-2.1-2.7-4.9-3.2-7.1-2-10,5.9-17.3,15.8-15.8s7.3,4.2,8.5,4.1,4.3-1.8,6.5-2.2c9.1-1.5,12.9-1.2,21.8,1s4,1.9,4.9,2,4.4-3.5,7-4c12.5-2.5,20.9,6,16.2,18s-2.9,4.4-3,5.6,3.9,9.3,4.5,11.9c3.8,15.3,1.4,29.9-9.8,41.4Z"/>
    <path class="st5" d="M158,166.8c.6.2,3.5,1.9,5.2,2.6s1.3,1.8,3,1.7,3.1-2.9,6.1-3.4,7.5,0,10.8.8c-3.4,4.4-9.8,3.4-14.7,3.5.6,1.5,3,1.3,4.5,2.6,1,.8,1.7,2.4,2.8,3.5,2.4,2.5,4.6,3.5,5.7,7.7-11.1.6-13.5-11.4-21.6-14.7s-4-1.4-6.1-1.7c-2.8-.5-10.7-1.7-13-.9-2.4.4-2.1-.8-.9-2.6,5.4-.9,12.9-.7,18.2.9Z"/>
    <path class="st5" d="M163.2,174.6l.9,11.6c-7.6,3.9-4.2-14.6-.9-11.6Z"/>
    <path class="st4" d="M140.7,168.6c-.2,0-1.2,2-2.8,2.8-6.1,2.9-11.1.5-16.2-3.2l6.9-.9c-2.2-3.4-8-4.5-7.8-9.1,5.4-.4,10.2-2.3,15.8-1.5,7.8,1.2,5.7,3.9.2,6.7l-3.9,4.3c2.4-.6,4.5-1.3,6.9-1.7-1.3,1.8-1.5,3,.9,2.6Z"/>
    <path class="st6" d="M119.6,127.2c11.8-.3,1,27.8-6.2,29.2-10.1,2-9.8-9.1-7.2-15.8,1.7-4.3,8.4-13.2,13.4-13.4ZM117.9,132.3c-2.9,1-.9,6.3,1.5,5.9s3.5-7.6-1.5-5.9Z"/>
    <path class="st6" d="M140.5,127.2c6.7-1.2,15.2,12.5,15.8,18.5,1.1,11.5-7.6,14.7-14.2,5.6s-10.4-22.5-1.6-24ZM144,132.3c-6.2-3.8-6.2,8.8,0,5s.8-4.4,0-5Z"/>
  </g>
</svg>