<?xml version="1.0" encoding="UTF-8"?>
<svg xmlns="http://www.w3.org/2000/svg" width="256" height="256" version="1.1" xmlns:xlink="http://www.w3.org/1999/xlink" viewBox="0 0 256 256">
  <defs>
    <style>
      .cls-1 {
        fill-opacity: .3;
      }

      .cls-1, .cls-2, .cls-3 {
        fill-rule: evenodd;
      }

      .cls-4 {
        fill: #fff;
      }

      .cls-5 {
        display: none;
        fill: #fcfdfe;
      }

      .cls-2 {
        fill: url(#_未命名的渐变_2);
      }

      .cls-3 {
        fill: #0c6bbd;
      }
    </style>
    <linearGradient id="_未命名的渐变_2" data-name="未命名的渐变 2" x1="17" y1="60" x2="241" y2="208" gradientTransform="translate(0 2)" gradientUnits="userSpaceOnUse">
      <stop offset="0" stop-color="#44a8ff"/>
      <stop offset="1" stop-color="#0175da"/>
    </linearGradient>
  </defs>
  <!-- Generator: Adobe Illustrator 28.6.0, SVG Export Plug-In . SVG Version: 1.2.0 Build 709)  -->
  <g>
    <g id="_图层_1" data-name="图层_1">
      <path class="cls-3" d="M104.4,42.4c-4.4-5.3-10.9-8.4-17.8-8.4H29c-6.6,0-12,5.4-12,12v114c0,6.6,5.4,12,12,12h200c6.6,0,12-5.4,12-12v-89.9c0-6.6-5.4-12-12-12h-111.6l-13-15.7Z"/>
      <path class="cls-1" d="M92.8,74c5,0,9.8-1.6,13.8-4.6l9.9-7.4h112.5c6.6,0,12,5.4,12,12v86c0,6.6-5.4,12-12,12H29c-6.6,0-12-5.4-12-12v-74c0-6.6,5.4-12,12-12h63.8Z"/>
      <path class="cls-2" d="M92.8,74c5,0,9.8-1.6,13.8-4.6l9.9-7.4h112.5c6.6,0,12,5.4,12,12v124c0,6.6-5.4,12-12,12H29c-6.6,0-12-5.4-12-12v-112c0-6.6,5.4-12,12-12h63.8Z"/>
      <path class="cls-5" d="M114.9,95.8c6.3,6.8,12.6,13.5,18.8,20.3,9.2,10,18.4,20.1,27.9,30.5h-25.1c4,12,7.8,23.6,11.7,35.3-.1.1-.2.2-.4.3-6.2-6.7-12.4-13.4-18.6-20.1-9.3-10.1-18.6-20.2-28.1-30.7h25.1c-4-12-7.8-23.6-11.7-35.2.2-.1.3-.3.4-.4Z"/>
      <path class="cls-4" d="M175.2,126.9c-.9-2.3-3.7-3.1-5.9-1.8-1.4.8-2.7,1.6-4.2,2.3-7,3.3-14.4,4.9-21.9,6.2-.8.1-1.2,0-1.6-.8-.3-.8-.3-1.4.6-1.9,1.2-.8,2.4-1.6,3.7-2.4,4.6-3.2,9-6.6,12.8-10.6,2.4-2.5,4.6-5.2,5.8-8.5.8-2,.6-3.8-.8-5.6-5.1-6.6-12.2-9.6-20.1-11-2.6-.5-4.5,1.4-4.7,4.1,0,.8,0,1.5,0,2.3-.3,8.7-3.1,16.7-6.3,24.7-.1.4-.3.6-.8.7-1.8.2-2.7-.5-3-2.3,0-.2,0-.5-.1-.8-1.1-6.4-2.5-12.7-5-18.8-1.4-3.3-3.1-6.4-5.7-8.9-1.6-1.5-3.4-2.2-5.6-1.7-1.5.4-2.9.7-4.3,1.3-5.9,2.6-10.3,7-14,12.2-1.6,2.2-.6,5.1,1.9,6.2,1.8.8,3.5,1.6,5.1,2.6,6.1,3.8,11.3,8.6,16.3,13.7.5.5,1.1,1,.4,1.9-.6.9-1.2.9-2.1.5-4.4-1.9-9-3.5-13.6-4.7-4.8-1.2-9.7-2.3-14.8-1.7-3.9.5-5.3,1.5-6.4,5.3-.2.7-.4,1.5-.5,2.2-1.2,6.9.4,13.3,3.1,19.5,1,2.2,3.8,2.9,5.9,1.6.9-.5,1.8-1.2,2.7-1.8,7.1-4.3,15-6.5,23-8.3.8-.2,1.2,0,1.6.8.3.7.2,1.3-.4,1.8-.4.3-.8.6-1.2.9-5.9,4.5-11.6,9.3-16.2,15.3-1.7,2.3-3.2,4.7-3.9,7.5-.4,1.7-.1,3.1,1,4.4,5.5,6.7,13,9.2,21.3,10.2,2.3.3,4.1-1.7,4.1-4.1,0-1.4-.2-2.8-.2-4.1.1-4.5.9-9,2-13.4.8-3.3,1.8-6.5,2.8-9.8.3-.9,1-1,1.8-1,.8,0,1,.6,1,1.3.2,2.2.5,4.3.8,6.5.8,5.9,2,11.7,4.3,17.1,1.1,2.5,2.3,4.9,4.3,6.9,1,1,2.2,1.5,3.7,1.4,2-.2,4-.6,5.8-1.4,5.8-2.3,10.2-6.3,14.1-11,1.9-2.3,1-5.2-1.7-6.6-8.3-4.3-14.5-11-20.6-17.9-.6-.7-.1-1.1.2-1.6.4-.5.8-.9,1.5-.5.5.3,1,.5,1.6.8,6.4,2.9,12.8,5.6,19.7,7,3.3.6,6.5,1,9.8.2,1.6-.4,2.8-1.2,3.4-2.8.5-1.3,1-2.6,1.4-3.9,1.6-6.8.3-13.2-2-19.5ZM129,145c-3.9,0-7.3-3.4-7.2-7.3,0-4,3.3-7.3,7.3-7.3,3.9,0,7.2,3.3,7.2,7.3,0,4.1-3.2,7.4-7.3,7.3Z"/>
    </g>
  </g>
</svg>