<?xml version="1.0" encoding="utf-8"?>
<!-- Generator: Adobe Illustrator 28.1.0, SVG Export Plug-In . SVG Version: 6.00 Build 0)  -->
<svg version="1.1" id="图层_1" xmlns="http://www.w3.org/2000/svg" xmlns:xlink="http://www.w3.org/1999/xlink" x="0px" y="0px"
	 width="256px" height="256px" viewBox="0 0 256 256" style="enable-background:new 0 0 256 256;" xml:space="preserve">
<style type="text/css">
	.st0{fill-rule:evenodd;clip-rule:evenodd;fill:#104BC8;}
	.st1{fill-rule:evenodd;clip-rule:evenodd;fill:url(#SVGID_1_);filter:url(#Adobe_OpacityMaskFilter);}
	.st2{mask:url(#mask0_812_20038_00000094601149180331981810000006424233095975351196_);}
	.st3{fill-rule:evenodd;clip-rule:evenodd;fill-opacity:0.3;}
	.st4{fill-rule:evenodd;clip-rule:evenodd;fill:url(#SVGID_00000128451257245728845000000007997362818313009573_);}
	.st5{display:none;fill:#6CB9FC;}
	.st6{display:none;fill:#3283F1;}
	.st7{display:none;fill:#104BC8;}
	.st8{fill:#3283F1;}
</style>
<path class="st0" d="M104.4,42.4c-4.4-5.3-10.9-8.4-17.8-8.4H29c-6.6,0-12,5.4-12,12v12.1v10.1V160c0,6.6,5.4,12,12,12h200
	c6.6,0,12-5.4,12-12V70.1c0-6.6-5.4-12-12-12H117.4L104.4,42.4z"/>
<defs>
	<filter id="Adobe_OpacityMaskFilter" filterUnits="userSpaceOnUse" x="17" y="62" width="224" height="110">
		<feColorMatrix  type="matrix" values="1 0 0 0 0  0 1 0 0 0  0 0 1 0 0  0 0 0 1 0"/>
	</filter>
</defs>
<mask maskUnits="userSpaceOnUse" x="17" y="62" width="224" height="110" id="mask0_812_20038_00000094601149180331981810000006424233095975351196_">
	
		<linearGradient id="SVGID_1_" gradientUnits="userSpaceOnUse" x1="32.5816" y1="239.5494" x2="213.3495" y2="58.4074" gradientTransform="matrix(1 0 0 -1 0 258)">
		<stop  offset="0" style="stop-color:#05815D"/>
		<stop  offset="1" style="stop-color:#0C575F"/>
	</linearGradient>
	<path class="st1" d="M104.4,42.4c-4.4-5.3-10.9-8.4-17.8-8.4H29c-6.6,0-12,5.4-12,12v12.1v10.1V160c0,6.6,5.4,12,12,12h200
		c6.6,0,12-5.4,12-12V70.1c0-6.6-5.4-12-12-12H117.4L104.4,42.4z"/>
</mask>
<g class="st2">
	<g>
		<path class="st3" d="M92.8,74c5,0,9.8-1.6,13.8-4.6l9.9-7.4H229c6.6,0,12,5.4,12,12v34v52c0,6.6-5.4,12-12,12H29
			c-6.6,0-12-5.4-12-12v-52V86c0-6.6,5.4-12,12-12h58H92.8z"/>
	</g>
</g>
<g>
	
		<linearGradient id="SVGID_00000162321145217176856700000010111224011565046180_" gradientUnits="userSpaceOnUse" x1="17" y1="196" x2="241" y2="48" gradientTransform="matrix(1 0 0 -1 0 258)">
		<stop  offset="0" style="stop-color:#F7FDFF"/>
		<stop  offset="1" style="stop-color:#84B5E3"/>
	</linearGradient>
	<path style="fill-rule:evenodd;clip-rule:evenodd;fill:url(#SVGID_00000162321145217176856700000010111224011565046180_);" d="
		M92.8,74c5,0,9.8-1.6,13.8-4.6l9.9-7.4H229c6.6,0,12,5.4,12,12v34v90c0,6.6-5.4,12-12,12H29c-6.6,0-12-5.4-12-12v-90V86
		c0-6.6,5.4-12,12-12h58H92.8z"/>
</g>
<path class="st5" d="M148.9,186l35.8-40.7l5.4-5.4c2-2,2-5.2,0-7.2l-8.7-8.7l-10.2-11.7L105.8,186H148.9z"/>
<path class="st6" d="M105.4,136.5l-37.3,42.4c-2.4,2.8-0.5,7.1,3.2,7.1h34.5l65.3-73.7L148.9,87L105.4,136.5z"/>
<path class="st7" d="M71.3,87c-3.7,0-5.6,4.3-3.2,7.1l37.3,42.4L148.9,87H71.3z"/>
<path class="st8" d="M110.3,100.1c0.5,0,1.1,0.2,1.6,0.5l54.3,36.5c1.7,1.2,1.7,3.7,0,4.8l-54.3,36.5c-0.5,0.3-1.1,0.5-1.6,0.5
	c-1.5,0-2.9-1.2-2.9-2.9v-73C107.4,101.3,108.8,100.1,110.3,100.1 M110.3,93.2c-5.4,0-9.8,4.4-9.8,9.8v73c0,5.4,4.4,9.8,9.8,9.8
	c2,0,3.8-0.6,5.5-1.7l54.3-36.5c2.7-1.8,4.3-4.9,4.3-8.2c0-3.3-1.6-6.3-4.3-8.2l-54.3-36.5C114.1,93.7,112.3,93.2,110.3,93.2
	L110.3,93.2L110.3,93.2z"/>
</svg>
