<?xml version="1.0" encoding="UTF-8"?>
<svg id="_图层_1" data-name="图层_1" xmlns="http://www.w3.org/2000/svg" width="256" height="256" version="1.1" xmlns:xlink="http://www.w3.org/1999/xlink" viewBox="0 0 256 256">
  <!-- Generator: Adobe Illustrator 29.2.1, SVG Export Plug-In . SVG Version: 2.1.0 Build 116)  -->
  <defs>
    <style>
      .st0 {
        fill: #0d53ff;
      }

      .st1 {
        fill-opacity: .3;
      }

      .st1, .st2, .st3 {
        fill-rule: evenodd;
      }

      .st4 {
        fill: none;
      }

      .st5 {
        fill: url(#_未命名的渐变_4);
      }

      .st2 {
        fill: url(#_未命名的渐变_2);
      }

      .st6 {
        clip-path: url(#clippath);
      }

      .st3 {
        fill: url(#_未命名的渐变_9);
      }
    </style>
    <clipPath id="clippath">
      <rect class="st4" width="256" height="256"/>
    </clipPath>
    <linearGradient id="_未命名的渐变_9" data-name="未命名的渐变 9" x1="17" y1="103" x2="241" y2="103" gradientUnits="userSpaceOnUse">
      <stop offset="0" stop-color="#0d53ff"/>
      <stop offset=".3" stop-color="#0d55fd"/>
      <stop offset=".4" stop-color="#0f5df7"/>
      <stop offset=".6" stop-color="#116bec"/>
      <stop offset=".7" stop-color="#157fdd"/>
      <stop offset=".8" stop-color="#1b99ca"/>
      <stop offset=".9" stop-color="#21b9b2"/>
      <stop offset="1" stop-color="#28de97"/>
      <stop offset="1" stop-color="#29df97"/>
    </linearGradient>
    <linearGradient id="_未命名的渐变_2" data-name="未命名的渐变 2" x1="17" y1="884" x2="241" y2="1032" gradientTransform="translate(0 -822)" gradientUnits="userSpaceOnUse">
      <stop offset="0" stop-color="#fbfafa"/>
      <stop offset="1" stop-color="#e9e4e4"/>
    </linearGradient>
    <linearGradient id="_未命名的渐变_4" data-name="未命名的渐变 4" x1="-767.6" y1="628.2" x2="-770.6" y2="630.8" gradientTransform="translate(11802.3 9042.7) scale(15.2 -14.1)" gradientUnits="userSpaceOnUse">
      <stop offset="0" stop-color="#00ff2e"/>
      <stop offset="1" stop-color="#00bdff"/>
    </linearGradient>
  </defs>
  <g class="st6">
    <g>
      <path class="st3" d="M104.4,42.4c-4.4-5.3-10.9-8.4-17.8-8.4H29c-6.6,0-12,5.4-12,12v114c0,6.6,5.4,12,12,12h200c6.6,0,12-5.4,12-12v-89.9c0-6.6-5.4-12-12-12h-111.6l-13-15.7Z"/>
      <path class="st1" d="M92.8,74c5,0,9.8-1.6,13.8-4.6l9.9-7.4h112.5c6.6,0,12,5.4,12,12v86c0,6.6-5.4,12-12,12H29c-6.6,0-12-5.4-12-12v-74c0-6.6,5.4-12,12-12h63.8Z"/>
      <path class="st2" d="M92.8,74c5,0,9.8-1.6,13.8-4.6l9.9-7.4h112.5c6.6,0,12,5.4,12,12v124c0,6.6-5.4,12-12,12H29c-6.6,0-12-5.4-12-12v-112c0-6.6,5.4-12,12-12h63.8Z"/>
    </g>
  </g>
  <g>
    <path class="st0" d="M133.3,89.3c20,0,36.7,15.1,38.9,34.9v-.2s.2,0,.2,0c11.6,4.5,19.4,15.5,19.7,27.9v.4s0,.5,0,.5c0,17.1-13.7,30.9-30.7,30.9h-8.7c-3.7,0-6.6-3-6.6-6.6h0c0-3.7,3-6.6,6.6-6.6h8.7c9.7,0,17.5-7.9,17.5-17.6s-7.8-17.6-17.5-17.6-2,0-2.6.2c.3-1.4.4-3.7.4-6.8,0-14.4-11.6-26.1-26-26.1s-25.4,11-26,25v1.2c0,0-1.2-.3-1.2-.3l-11-2.8-.8-.2v-1.2h0c2.2-19.7,18.6-34.7,38.3-35h.6Z"/>
    <path class="st5" d="M104.3,122.3c16.9,0,30.6,13.8,30.6,30.8,0,2.6-.3,5.1-1,7.6-.9,3.5-4.5,5.7-8,4.8,0,0,0,0,0,0-3.5-.9-5.7-4.5-4.8-8.1.4-1.4.5-2.9.5-4.4,0-9.7-7.8-17.5-17.4-17.5s-17.4,7.8-17.4,17.5,7.8,17.5,17.4,17.5h29.1c3.6,0,6.6,3,6.6,6.6s-3,6.6-6.6,6.6h-29.1c-16.9,0-30.6-13.8-30.6-30.8s13.7-30.8,30.6-30.8h0Z"/>
  </g>
</svg>