<?xml version="1.0" encoding="UTF-8"?>
<svg xmlns="http://www.w3.org/2000/svg" width="256" height="256" version="1.1" xmlns:xlink="http://www.w3.org/1999/xlink" viewBox="0 0 256 256">
  <defs>
    <style>
      .cls-1 {
        fill-opacity: .3;
      }

      .cls-1, .cls-2, .cls-3 {
        fill-rule: evenodd;
      }

      .cls-4 {
        fill: url(#_未命名的渐变_4-2);
      }

      .cls-5 {
        fill: #1088ff;
      }

      .cls-6 {
        fill: url(#_未命名的渐变_4);
      }

      .cls-2 {
        fill: url(#_未命名的渐变_2);
      }

      .cls-3 {
        fill: url(#_未命名的渐变_17);
      }
    </style>
    <linearGradient id="_未命名的渐变_17" data-name="未命名的渐变 17" x1="17" y1="103" x2="241" y2="103" gradientUnits="userSpaceOnUse">
      <stop offset="0" stop-color="#1088ff"/>
      <stop offset="1" stop-color="#0c3f9b"/>
    </linearGradient>
    <linearGradient id="_未命名的渐变_2" data-name="未命名的渐变 2" x1="17" y1="884" x2="241" y2="1032" gradientTransform="translate(0 -822)" gradientUnits="userSpaceOnUse">
      <stop offset="0" stop-color="#fff"/>
      <stop offset="1" stop-color="#cfcfcf"/>
    </linearGradient>
    <linearGradient id="_未命名的渐变_4" data-name="未命名的渐变 4" x1="89.1" y1="993.2" x2="89.1" y2="944.3" gradientTransform="translate(0 -816)" gradientUnits="userSpaceOnUse">
      <stop offset="0" stop-color="#00004c"/>
      <stop offset=".3" stop-color="#00004c" stop-opacity=".6"/>
      <stop offset=".6" stop-color="#00004c" stop-opacity=".2"/>
      <stop offset=".8" stop-color="#00004c" stop-opacity="0"/>
    </linearGradient>
    <linearGradient id="_未命名的渐变_4-2" data-name="未命名的渐变 4" x1="141" y1="935.8" x2="190" y2="935.8" xlink:href="#_未命名的渐变_4"/>
  </defs>
  <!-- Generator: Adobe Illustrator 28.6.0, SVG Export Plug-In . SVG Version: 1.2.0 Build 709)  -->
  <g>
    <g id="_图层_1" data-name="图层_1">
      <path class="cls-3" d="M104.4,42.4c-4.4-5.3-10.9-8.4-17.8-8.4H29c-6.6,0-12,5.4-12,12v114c0,6.6,5.4,12,12,12h200c6.6,0,12-5.4,12-12v-89.9c0-6.6-5.4-12-12-12h-111.6l-13-15.7Z"/>
      <path class="cls-1" d="M92.8,74c5,0,9.8-1.6,13.8-4.6l9.9-7.4h112.5c6.6,0,12,5.4,12,12v86c0,6.6-5.4,12-12,12H29c-6.6,0-12-5.4-12-12v-74c0-6.6,5.4-12,12-12h63.8Z"/>
      <path class="cls-2" d="M92.8,74c5,0,9.8-1.6,13.8-4.6l9.9-7.4h112.5c6.6,0,12,5.4,12,12v124c0,6.6-5.4,12-12,12H29c-6.6,0-12-5.4-12-12v-112c0-6.6,5.4-12,12-12h63.8Z"/>
      <g id="Layer_1-2">
        <path class="cls-5" d="M97.9,171.9l12.2-20.9c-2.9-4.6-6.6-8.7-10.9-12.1-8.4,6.7-19.6,10.6-31.1,10.6h0c15.3,0,28.3,12.4,28.3,27.7h0c0-1.8.4-3.7,1.4-5.4h0Z"/>
        <path class="cls-6" d="M97.9,171.9l12.2-20.9c-2.9-4.6-6.6-8.7-10.9-12.1-8.4,6.7-19.6,10.6-31.1,10.6h0c15.3,0,28.3,12.4,28.3,27.7h0c0-1.8.4-3.7,1.4-5.4h0Z"/>
        <path class="cls-5" d="M189.8,128.3c-15.2,0-27.5-12.5-27.5-27.7h0c0,1.8-.4,3.7-1.4,5.4l-12.2,20.9c2.9,4.6,6.6,8.7,10.9,12.1,8.3-6.6,18.8-10.6,30.3-10.6h0Z"/>
        <path class="cls-4" d="M189.8,128.3c-15.2,0-27.5-12.5-27.5-27.7h0c0,1.8-.4,3.7-1.4,5.4l-12.2,20.9c2.9,4.6,6.6,8.7,10.9,12.1,8.3-6.6,18.8-10.6,30.3-10.6h0Z"/>
        <path class="cls-5" d="M117.7,100.7c0-5.9-4.8-10.6-10.6-10.6s-10.6,4.8-10.6,10.6c0,15.2-12.3,27.6-27.5,27.6h-.7v21.2h0c11.5,0,22.7-4,31-10.6,11.3-9,18.5-22.8,18.5-38.3h0Z"/>
        <path class="cls-5" d="M159.6,138.9c-11.3,9-18.5,22.8-18.5,38.3s4.8,10.6,10.6,10.6h0c5.8,0,10.6-4.8,10.6-10.6,0-15.2,12.3-27.5,27.5-27.6v-21.2c-11.4,0-21.9,4-30.2,10.6h0Z"/>
        <path class="cls-5" d="M162.3,100.7c0-3.7-1.9-7.2-5.3-9.2-5.1-3-11.6-1.2-14.5,3.8l-32.5,55.7-12.2,20.9c-1,1.7-1.4,3.5-1.4,5.4,0,3.7,1.9,7.2,5.3,9.2,1.6,1,3.5,1.4,5.3,1.5h.1c3.6,0,7.2-1.9,9.1-5.3l32.5-55.7,12.2-20.9c1-1.7,1.4-3.5,1.4-5.4h0Z"/>
      </g>
    </g>
  </g>
</svg>