<?xml version="1.0" encoding="UTF-8"?>
<svg xmlns="http://www.w3.org/2000/svg" width="256" height="256" version="1.1" xmlns:xlink="http://www.w3.org/1999/xlink" viewBox="0 0 256 256">
  <defs>
    <style>
      .cls-1 {
        fill-opacity: .3;
      }

      .cls-1, .cls-2, .cls-3 {
        fill-rule: evenodd;
      }

      .cls-4 {
        fill: url(#_未命名的渐变_5);
      }

      .cls-5 {
        fill: #fff;
      }

      .cls-6 {
        fill: url(#_未命名的渐变_5-2);
      }

      .cls-2 {
        fill: #0c6bbd;
      }

      .cls-3 {
        fill: url(#_未命名的渐变_9);
      }
    </style>
    <linearGradient id="_未命名的渐变_9" data-name="未命名的渐变 9" x1="17" y1="884" x2="241" y2="1032" gradientTransform="translate(0 -822)" gradientUnits="userSpaceOnUse">
      <stop offset="0" stop-color="#44a8ff"/>
      <stop offset="1" stop-color="#1088ff"/>
    </linearGradient>
    <linearGradient id="_未命名的渐变_5" data-name="未命名的渐变 5" x1="91.5" y1="80.7" x2="91.5" y2="129.6" gradientTransform="translate(0 258) scale(1 -1)" gradientUnits="userSpaceOnUse">
      <stop offset="0" stop-color="#00004c" stop-opacity=".8"/>
      <stop offset=".2" stop-color="#000" stop-opacity=".6"/>
      <stop offset=".6" stop-color="#000" stop-opacity=".2"/>
      <stop offset=".8" stop-color="#00004c" stop-opacity="0"/>
    </linearGradient>
    <linearGradient id="_未命名的渐变_5-2" data-name="未命名的渐变 5" x1="143.4" y1="138.1" x2="192.3" y2="138.1" xlink:href="#_未命名的渐变_5"/>
  </defs>
  <!-- Generator: Adobe Illustrator 28.6.0, SVG Export Plug-In . SVG Version: 1.2.0 Build 709)  -->
  <g>
    <g id="_图层_1" data-name="图层_1">
      <path class="cls-2" d="M104.4,42.4c-4.4-5.3-10.9-8.4-17.8-8.4H29c-6.6,0-12,5.4-12,12v114c0,6.6,5.4,12,12,12h200c6.6,0,12-5.4,12-12v-89.9c0-6.6-5.4-12-12-12h-111.6l-13-15.7Z"/>
      <path class="cls-1" d="M92.8,74c5,0,9.8-1.6,13.8-4.6l9.9-7.4h112.5c6.6,0,12,5.4,12,12v86c0,6.6-5.4,12-12,12H29c-6.6,0-12-5.4-12-12v-74c0-6.6,5.4-12,12-12h63.8Z"/>
      <path class="cls-3" d="M92.8,74c5,0,9.8-1.6,13.8-4.6l9.9-7.4h112.5c6.6,0,12,5.4,12,12v124c0,6.6-5.4,12-12,12H29c-6.6,0-12-5.4-12-12v-112c0-6.6,5.4-12,12-12h63.8Z"/>
      <g id="resiliologo">
        <path class="cls-5" d="M100.3,171.9l12.2-20.9c-2.9-4.6-6.6-8.7-10.9-12-8.3,6.6-19.5,10.6-31,10.6h0c15.3,0,28.2,12.4,28.2,27.7h0c0-1.8.5-3.7,1.4-5.3Z"/>
        <path class="cls-4" d="M100.3,171.9l12.2-20.9c-2.9-4.6-6.6-8.7-10.9-12-8.3,6.6-19.5,10.6-31,10.6h0c15.3,0,28.2,12.4,28.2,27.7h0c0-1.8.5-3.7,1.4-5.3Z"/>
        <path class="cls-5" d="M192.1,128.4c-15.2,0-27.5-12.5-27.5-27.7h0c0,1.8-.5,3.7-1.4,5.3l-12.2,20.9c2.9,4.6,6.6,8.7,10.9,12,8.3-6.6,18.8-10.6,30.2-10.6h0Z"/>
        <path class="cls-6" d="M192.1,128.4c-15.2,0-27.5-12.5-27.5-27.7h0c0,1.8-.5,3.7-1.4,5.3l-12.2,20.9c2.9,4.6,6.6,8.7,10.9,12,8.3-6.6,18.8-10.6,30.2-10.6h0Z"/>
        <path class="cls-5" d="M120.1,100.8c0-5.9-4.8-10.6-10.6-10.6s-10.6,4.8-10.6,10.6c0,15.2-12.3,27.5-27.5,27.6,0,0,0,0-.1,0-.2,0-.4,0-.5,0v21.2h0c11.5,0,22.7-4,31-10.6,11.3-9,18.5-22.8,18.5-38.2h0Z"/>
        <path class="cls-5" d="M161.9,139c-11.3,9-18.5,22.8-18.5,38.2s4.7,10.6,10.6,10.6h0c5.8,0,10.6-4.8,10.6-10.6,0-15.2,12.3-27.5,27.4-27.6v-21.2c-11.4,0-21.9,4-30.2,10.6h0Z"/>
        <path class="cls-5" d="M164.6,100.8c0-3.7-1.9-7.2-5.3-9.2-5.1-3-11.6-1.2-14.5,3.8l-32.4,55.6-12.2,20.9c-1,1.7-1.4,3.5-1.4,5.3,0,3.7,1.9,7.2,5.3,9.2,1.7,1,3.5,1.4,5.3,1.4h.1c3.6,0,7.2-1.9,9.1-5.3l32.4-55.6,12.2-20.9c1-1.7,1.4-3.5,1.4-5.3h0Z"/>
      </g>
    </g>
  </g>
</svg>