<?xml version="1.0" encoding="utf-8"?>
<!-- Generator: Adobe Illustrator 28.2.0, SVG Export Plug-In . SVG Version: 6.00 Build 0)  -->
<svg version="1.1" id="图层_1" xmlns="http://www.w3.org/2000/svg" xmlns:xlink="http://www.w3.org/1999/xlink" x="0px" y="0px"
	 width="256px" height="256px" viewBox="0 0 256 256" style="enable-background:new 0 0 256 256;" xml:space="preserve">
<style type="text/css">
	.st0{clip-path:url(#SVGID_00000153682460853779519230000017862064018950310278_);}
	.st1{fill-rule:evenodd;clip-rule:evenodd;fill:#E6E6E6;}
	
		.st2{fill-rule:evenodd;clip-rule:evenodd;fill:url(#SVGID_00000069399664109392515730000011392118819011809710_);filter:url(#Adobe_OpacityMaskFilter);}
	.st3{mask:url(#mask0_2031_34639_00000113311079594637098670000012685187127324145309_);}
	.st4{fill-rule:evenodd;clip-rule:evenodd;fill-opacity:0.3;}
	.st5{fill-rule:evenodd;clip-rule:evenodd;fill:url(#SVGID_00000059302367638127832650000003204691922365434040_);}
	.st6{fill:#FFFFFF;}
</style>
<g>
	<defs>
		<rect id="SVGID_1_" width="256" height="256"/>
	</defs>
	<clipPath id="SVGID_00000142159752297752123150000003051778437942686868_">
		<use xlink:href="#SVGID_1_"  style="overflow:visible;"/>
	</clipPath>
	<g style="clip-path:url(#SVGID_00000142159752297752123150000003051778437942686868_);">
		<path class="st1" d="M104.4,42.4c-4.4-5.3-10.9-8.4-17.8-8.4H29c-6.6,0-12,5.4-12,12v12.1v10.1V160c0,6.6,5.4,12,12,12h200
			c6.6,0,12-5.4,12-12V70.1c0-6.6-5.4-12-12-12H117.4L104.4,42.4z"/>
		<defs>
			<filter id="Adobe_OpacityMaskFilter" filterUnits="userSpaceOnUse" x="17" y="62" width="224" height="110">
				<feColorMatrix  type="matrix" values="1 0 0 0 0  0 1 0 0 0  0 0 1 0 0  0 0 0 1 0"/>
			</filter>
		</defs>
		
			<mask maskUnits="userSpaceOnUse" x="17" y="62" width="224" height="110" id="mask0_2031_34639_00000113311079594637098670000012685187127324145309_">
			
				<linearGradient id="SVGID_00000120554377654442718960000013194685831390296748_" gradientUnits="userSpaceOnUse" x1="32.5816" y1="239.5494" x2="213.3495" y2="58.4074" gradientTransform="matrix(1 0 0 -1 0 258)">
				<stop  offset="0" style="stop-color:#05815D"/>
				<stop  offset="1" style="stop-color:#0C575F"/>
			</linearGradient>
			
				<path style="fill-rule:evenodd;clip-rule:evenodd;fill:url(#SVGID_00000120554377654442718960000013194685831390296748_);filter:url(#Adobe_OpacityMaskFilter);" d="
				M104.4,42.4c-4.4-5.3-10.9-8.4-17.8-8.4H29c-6.6,0-12,5.4-12,12v12.1v10.1V160c0,6.6,5.4,12,12,12h200c6.6,0,12-5.4,12-12V70.1
				c0-6.6-5.4-12-12-12H117.4L104.4,42.4z"/>
		</mask>
		<g class="st3">
			<g>
				<path class="st4" d="M92.8,74c5,0,9.8-1.6,13.8-4.6l9.9-7.4H229c6.6,0,12,5.4,12,12v34v52c0,6.6-5.4,12-12,12H29
					c-6.6,0-12-5.4-12-12v-52V86c0-6.6,5.4-12,12-12h58H92.8z"/>
			</g>
		</g>
		<g>
			
				<linearGradient id="SVGID_00000121266396400818178350000002676786785152280713_" gradientUnits="userSpaceOnUse" x1="17" y1="196" x2="241" y2="48" gradientTransform="matrix(1 0 0 -1 0 258)">
				<stop  offset="0" style="stop-color:#5F585E"/>
				<stop  offset="1" style="stop-color:#333333"/>
			</linearGradient>
			<path style="fill-rule:evenodd;clip-rule:evenodd;fill:url(#SVGID_00000121266396400818178350000002676786785152280713_);" d="
				M92.8,74c5,0,9.8-1.6,13.8-4.6l9.9-7.4H229c6.6,0,12,5.4,12,12v34v90c0,6.6-5.4,12-12,12H29c-6.6,0-12-5.4-12-12v-90V86
				c0-6.6,5.4-12,12-12h58H92.8z"/>
		</g>
	</g>
</g>
<g>
	<path class="st6" d="M169.9,125.9c-0.9-2.5-1.6-5.2-2.7-7.6c-6-12.6-16-20.2-29.9-22c-18.6-2.5-36,9.1-41.3,27.3
		c-0.4,1.2-0.9,2.2-2.2,2.5c-2.1,0.4-3.8-1.4-3.2-3.6c3.2-11.4,9.9-20.2,20.1-26.2c26-15.1,59,0.1,64.6,29.7
		c0.5,2.5,0.5,5.1,0.7,7.7c0.1,1.3-0.5,2.2-1.7,2.7c-1.2,0.5-2.2,0.2-3.1-0.7c-3.2-3.2-6.4-6.4-9.6-9.6c-1.2-1.2-1.2-2.9-0.1-4
		c1.1-1.1,2.7-1.2,4,0.1c1.3,1.3,2.6,2.6,3.9,4C169.5,126.1,169.7,126,169.9,125.9z"/>
	<path class="st6" d="M95.1,141.7c0.9,2.7,1.6,5.2,2.7,7.6c6,12.8,15.9,20.4,29.9,22.3c18.8,2.5,36-9,41.4-27.3
		c0.5-1.7,1.4-2.5,2.9-2.5c1.3,0,2.4,0.9,2.6,2.2c0.1,0.6,0,1.3-0.2,1.9c-5.4,16.7-16.5,27.4-33.9,30.8c-22.2,4.4-43.6-9-49.8-30.6
		c-1.1-3.8-1.7-7.7-1.7-11.6c0-1.3,0.4-2.3,1.6-2.9c1.3-0.6,2.4-0.2,3.3,0.8c3.1,3.1,6.2,6.2,9.2,9.3c1.3,1.4,1.4,3,0.3,4.2
		c-1.2,1.2-2.8,1.1-4.2-0.3c-1.2-1.2-2.4-2.4-3.6-3.6C95.7,141.9,95.6,141.9,95.1,141.7z"/>
</g>
</svg>
