<?xml version="1.0" encoding="utf-8"?>
<!-- Generator: Adobe Illustrator 28.1.0, SVG Export Plug-In . SVG Version: 6.00 Build 0)  -->
<svg version="1.1" id="图层_1" xmlns="http://www.w3.org/2000/svg" xmlns:xlink="http://www.w3.org/1999/xlink" x="0px" y="0px"
	 width="256px" height="256px" viewBox="0 0 256 256" style="enable-background:new 0 0 256 256;" xml:space="preserve">
<style type="text/css">
	.st0{fill-rule:evenodd;clip-rule:evenodd;fill:#75AADB;}
	.st1{fill-rule:evenodd;clip-rule:evenodd;fill-opacity:0.3;}
	.st2{fill-rule:evenodd;clip-rule:evenodd;fill:url(#SVGID_1_);}
	.st3{display:none;}
	.st4{display:inline;fill:#75AADB;}
	.st5{display:inline;fill:#4D4D4D;}
	.st6{display:inline;}
	.st7{fill:#FFFFFF;}
	.st8{fill:#75AADB;}
</style>
<path class="st0" d="M104.4,42.4C100,37.1,93.5,34,86.6,34H29c-6.6,0-12,5.4-12,12v12.1v10.1V160c0,6.6,5.4,12,12,12h200
	c6.6,0,12-5.4,12-12V70.1c0-6.6-5.4-12-12-12H117.4L104.4,42.4z"/>
<g>
	<g>
		<path class="st1" d="M92.8,74c5,0,9.8-1.6,13.8-4.6l9.9-7.4H229c6.6,0,12,5.4,12,12v34v52c0,6.6-5.4,12-12,12H29
			c-6.6,0-12-5.4-12-12v-52V86c0-6.6,5.4-12,12-12h58H92.8z"/>
	</g>
</g>
<g>
	
		<linearGradient id="SVGID_1_" gradientUnits="userSpaceOnUse" x1="17" y1="304" x2="241" y2="452" gradientTransform="matrix(1 0 0 1 0 -242)">
		<stop  offset="0" style="stop-color:#EBE7E7"/>
		<stop  offset="1" style="stop-color:#BFDAE8"/>
	</linearGradient>
	<path class="st2" d="M92.8,74c5,0,9.8-1.6,13.8-4.6l9.9-7.4H229c6.6,0,12,5.4,12,12v34v90c0,6.6-5.4,12-12,12H29
		c-6.6,0-12-5.4-12-12v-90V86c0-6.6,5.4-12,12-12h58H92.8z"/>
</g>
<g class="st3">
	<ellipse class="st4" cx="131.3" cy="136" rx="56.3" ry="56.3"/>
	<g>
		<path class="st5" d="M199.6,152.7c2.9,1.9,7.1,3.3,11.6,3.3c6.7,0,10.6-3.5,10.6-8.6c0-4.6-2.7-7.4-9.5-10
			c-8.2-3-13.3-7.3-13.3-14.4c0-7.9,6.5-13.7,16.3-13.7c5.1,0,8.9,1.2,11.1,2.5l-1.8,5.3c-1.6-1-4.9-2.4-9.5-2.4
			c-6.9,0-9.5,4.1-9.5,7.6c0,4.7,3.1,7,10,9.7c8.5,3.3,12.8,7.4,12.8,14.8c0,7.8-5.7,14.6-17.6,14.6c-4.9,0-10.2-1.5-12.9-3.3
			L199.6,152.7z"/>
		<path class="st5" d="M244.9,115.7v8.7h9.4v5h-9.4V149c0,4.5,1.3,7,4.9,7c1.8,0,2.9-0.1,3.8-0.5l0.3,5c-1.3,0.5-3.3,0.9-5.8,0.9
			c-3.1,0-5.5-1.1-7.1-2.8c-1.8-2-2.5-5.2-2.5-9.5v-19.8h-5.6v-5h5.6v-6.7L244.9,115.7z"/>
		<path class="st5" d="M292.1,150.7c0,3.8,0.1,7.1,0.3,10h-5.8l-0.4-5.9H286c-1.7,2.9-5.5,6.7-12,6.7c-5.7,0-12.5-3.2-12.5-15.9
			v-21.2h6.6v20c0,6.9,2.2,11.6,8.1,11.6c4.4,0,7.5-3.1,8.7-6.1c0.4-0.9,0.6-2.1,0.6-3.4v-22.2h6.6L292.1,150.7L292.1,150.7z"/>
		<path class="st5" d="M334.2,107.5v43.8c0,3.2,0.1,6.9,0.3,9.4h-5.8l-0.3-6.3h-0.2c-1.9,4-6.3,7.1-12.2,7.1
			c-8.8,0-15.6-7.4-15.6-18.4c-0.1-12.1,7.5-19.4,16.3-19.4c5.6,0,9.3,2.6,10.9,5.5h0.1v-21.6h6.5V107.5z M327.7,139.1
			c0-0.8-0.1-1.9-0.3-2.8c-1-4.1-4.6-7.6-9.5-7.6c-6.8,0-10.9,6-10.9,13.9c0,7.3,3.7,13.4,10.7,13.4c4.4,0,8.5-3,9.7-7.9
			c0.2-0.9,0.3-1.8,0.3-2.9L327.7,139.1L327.7,139.1z"/>
		<path class="st5" d="M352.6,114.2c0,2.3-1.6,4-4.2,4c-2.4,0-4-1.8-4-4c0-2.3,1.7-4.1,4.1-4.1S352.6,111.9,352.6,114.2z
			 M345.2,160.6v-36.3h6.6v36.3H345.2z"/>
		<path class="st5" d="M395.6,142.2c0,13.4-9.4,19.3-18.1,19.3c-9.7,0-17.4-7.2-17.4-18.7c0-12.1,8-19.2,18-19.2
			C388.6,123.6,395.6,131.2,395.6,142.2z M366.9,142.6c0,7.9,4.5,13.9,10.9,13.9c6.3,0,11-5.9,11-14.1c0-6.1-3.1-13.9-10.9-13.9
			C370.3,128.6,366.9,135.8,366.9,142.6z"/>
	</g>
	<g class="st6">
		<path class="st7" d="M150.6,154h6.1v4.7h-9.3l-15.5-23.2h-8.2V154h8.1v4.7h-20.3V154h7v-40.8l-7-0.9v-4.5c2.6,0.6,4.9,1,7.8,1
			c4.3,0,8.7-1,13.1-1c8.4,0,16.2,3.8,16.2,13.1c0,7.2-4.3,11.8-11,13.7L150.6,154z M123.7,131l4.4,0.1c10.8,0.2,14.9-4,14.9-9.5
			c0-6.5-4.7-9-10.6-9c-2.8,0-5.7,0.3-8.7,0.6L123.7,131L123.7,131z"/>
	</g>
	<g>
		<path class="st5" d="M391.9,110.1c-2.3,0-4.3,1.9-4.3,4.3s1.9,4.3,4.3,4.3c2.3,0,4.3-1.9,4.3-4.3
			C396.1,112,394.2,110.1,391.9,110.1z M395.4,114.3c0,2-1.6,3.5-3.5,3.5c-2,0-3.5-1.6-3.5-3.5c0-2,1.6-3.5,3.5-3.5
			S395.4,112.4,395.4,114.3z"/>
		<path class="st5" d="M393.4,116.1l-1.1-1.5c0.6-0.2,0.9-0.7,0.9-1.3c0-0.9-0.8-1.3-1.5-1.3c-0.2,0-0.4,0-0.6,0.1
			c-0.2,0-0.4,0-0.6,0c-0.3,0-0.5,0-0.7-0.1h-0.1v0.6l0.6,0.1v3.4h-0.6v0.6h2v-0.6H391v-1.4h0.6l1.3,2l0,0h1V116L393.4,116.1
			L393.4,116.1z M392.6,113.3c0,0.2-0.1,0.4-0.3,0.5c-0.2,0.1-0.5,0.2-0.9,0.2h-0.3v-1.4c0.3,0,0.5,0,0.7,0
			C392.1,112.6,392.6,112.7,392.6,113.3z"/>
	</g>
</g>
<g id="R_Ball">
</g>
<path class="st8" d="M132,190c-30.1,0-54.5-24.4-54.5-54.5S101.9,81,132,81s54.5,24.4,54.5,54.5S162.1,190,132,190z M113.3,164.9
	l11.8-6.2v-41.2l16.9,9.5l-12.7,6.6v13.6l28.3,18.9v-12.8l-17.3-11.9l14.3-7.4v-13.2l-29.5-16l-11.8,6.2V164.9z"/>
</svg>
