<?xml version="1.0" encoding="UTF-8"?>
<svg id="_图层_1" data-name="图层_1" xmlns="http://www.w3.org/2000/svg" width="256" height="256" version="1.1" xmlns:xlink="http://www.w3.org/1999/xlink" viewBox="0 0 256 256">
  <!-- Generator: Adobe Illustrator 29.2.1, SVG Export Plug-In . SVG Version: 2.1.0 Build 116)  -->
  <defs>
    <style>
      .st0 {
        fill-opacity: .3;
      }

      .st0, .st1, .st2 {
        fill-rule: evenodd;
      }

      .st1 {
        fill: #75aadb;
      }

      .st3 {
        fill: #fff;
      }

      .st2 {
        fill: url(#_未命名的渐变);
      }

      .st4 {
        fill: #72a2cf;
      }
    </style>
    <linearGradient id="_未命名的渐变" data-name="未命名的渐变" x1="17" y1="-46" x2="241" y2="-194" gradientTransform="translate(0 16) scale(1 -1)" gradientUnits="userSpaceOnUse">
      <stop offset="0" stop-color="#ebe7e7"/>
      <stop offset="1" stop-color="#bfdae8"/>
    </linearGradient>
  </defs>
  <path class="st1" d="M104.4,42.4c-4.4-5.3-10.9-8.4-17.8-8.4H29c-6.6,0-12,5.4-12,12v114c0,6.6,5.4,12,12,12h200c6.6,0,12-5.4,12-12v-89.9c0-6.6-5.4-12-12-12h-111.6l-13-15.7Z"/>
  <path class="st0" d="M92.8,74c5,0,9.8-1.6,13.8-4.6l9.9-7.4h112.5c6.6,0,12,5.4,12,12v86c0,6.6-5.4,12-12,12H29c-6.6,0-12-5.4-12-12v-74c0-6.6,5.4-12,12-12h63.8Z"/>
  <path class="st2" d="M92.8,74c5,0,9.8-1.6,13.8-4.6l9.9-7.4h112.5c6.6,0,12,5.4,12,12v124c0,6.6-5.4,12-12,12H29c-6.6,0-12-5.4-12-12v-112c0-6.6,5.4-12,12-12h63.8Z"/>
  <g>
    <path class="st4" d="M132,81c30.1,0,54.5,24.4,54.5,54.5s-24.4,54.5-54.5,54.5-54.5-24.4-54.5-54.5,24.4-54.5,54.5-54.5ZM157.6,166.1v-12.8l-17.3-11.9,14.3-7.4v-13.2l-29.5-16-11.8,6.2v53.9l11.8-6.2v-41.2l16.9,9.5-12.7,6.6v13.6l28.3,18.9Z"/>
    <polygon class="st3" points="157.6 153.3 157.6 166.1 129.3 147.2 129.3 133.6 142 127 125.1 117.5 125.1 158.7 113.3 164.9 113.3 111 125.1 104.8 154.6 120.8 154.6 134 140.3 141.4 157.6 153.3"/>
  </g>
</svg>