<?xml version="1.0" encoding="utf-8"?>
<!-- Generator: Adobe Illustrator 28.1.0, SVG Export Plug-In . SVG Version: 6.00 Build 0)  -->
<svg version="1.1" id="图层_1" xmlns="http://www.w3.org/2000/svg" xmlns:xlink="http://www.w3.org/1999/xlink" x="0px" y="0px"
	 width="256px" height="256px" viewBox="0 0 256 256" style="enable-background:new 0 0 256 256;" xml:space="preserve">
<style type="text/css">
	.st0{fill-rule:evenodd;clip-rule:evenodd;fill:#75AADB;}
	.st1{fill-rule:evenodd;clip-rule:evenodd;fill:url(#SVGID_1_);filter:url(#Adobe_OpacityMaskFilter);}
	.st2{mask:url(#mask0_636_15253_00000003802260967373962200000017392884004249652903_);}
	.st3{fill-rule:evenodd;clip-rule:evenodd;fill-opacity:0.3;}
	.st4{fill-rule:evenodd;clip-rule:evenodd;fill:url(#SVGID_00000051357137420860580590000010187526578920808119_);}
	.st5{fill:#75AADB;}
	.st6{display:none;}
	.st7{display:inline;fill:#4D4D4D;}
	.st8{fill:#FFFFFF;}
</style>
<path class="st0" d="M104.4,42.4c-4.4-5.3-10.9-8.4-17.8-8.4H29c-6.6,0-12,5.4-12,12v12.1v10.1V160c0,6.6,5.4,12,12,12h200
	c6.6,0,12-5.4,12-12V70.1c0-6.6-5.4-12-12-12H117.4L104.4,42.4z"/>
<defs>
	<filter id="Adobe_OpacityMaskFilter" filterUnits="userSpaceOnUse" x="17" y="62" width="224" height="110">
		<feColorMatrix  type="matrix" values="1 0 0 0 0  0 1 0 0 0  0 0 1 0 0  0 0 0 1 0"/>
	</filter>
</defs>
<mask maskUnits="userSpaceOnUse" x="17" y="62" width="224" height="110" id="mask0_636_15253_00000003802260967373962200000017392884004249652903_">
	
		<linearGradient id="SVGID_1_" gradientUnits="userSpaceOnUse" x1="32.5816" y1="239.5494" x2="213.3495" y2="58.4074" gradientTransform="matrix(1 0 0 -1 0 258)">
		<stop  offset="0" style="stop-color:#05815D"/>
		<stop  offset="1" style="stop-color:#0C575F"/>
	</linearGradient>
	<path class="st1" d="M104.4,42.4c-4.4-5.3-10.9-8.4-17.8-8.4H29c-6.6,0-12,5.4-12,12v12.1v10.1V160c0,6.6,5.4,12,12,12h200
		c6.6,0,12-5.4,12-12V70.1c0-6.6-5.4-12-12-12H117.4L104.4,42.4z"/>
</mask>
<g class="st2">
	<g>
		<path class="st3" d="M92.8,74c5,0,9.8-1.6,13.8-4.6l9.9-7.4H229c6.6,0,12,5.4,12,12v34v52c0,6.6-5.4,12-12,12H29
			c-6.6,0-12-5.4-12-12v-52V86c0-6.6,5.4-12,12-12h58H92.8z"/>
	</g>
</g>
<g>
	
		<linearGradient id="SVGID_00000055685554044138339490000000387480828837380022_" gradientUnits="userSpaceOnUse" x1="17" y1="196" x2="241" y2="48" gradientTransform="matrix(1 0 0 -1 0 258)">
		<stop  offset="0" style="stop-color:#EBE7E7"/>
		<stop  offset="1" style="stop-color:#BFDAE8"/>
	</linearGradient>
	<path style="fill-rule:evenodd;clip-rule:evenodd;fill:url(#SVGID_00000055685554044138339490000000387480828837380022_);" d="
		M92.8,74c5,0,9.8-1.6,13.8-4.6l9.9-7.4H229c6.6,0,12,5.4,12,12v34v90c0,6.6-5.4,12-12,12H29c-6.6,0-12-5.4-12-12v-90V86
		c0-6.6,5.4-12,12-12h58H92.8z"/>
</g>
<g>
	<ellipse class="st5" cx="131.3" cy="136" rx="56.3" ry="56.3"/>
	<g class="st6">
		<path class="st7" d="M199.6,152.7c2.9,1.9,7.1,3.3,11.6,3.3c6.7,0,10.6-3.5,10.6-8.6c0-4.6-2.7-7.4-9.5-10
			c-8.2-3-13.3-7.3-13.3-14.4c0-7.9,6.5-13.7,16.3-13.7c5.1,0,8.9,1.2,11.1,2.5l-1.8,5.3c-1.6-1-4.9-2.4-9.5-2.4
			c-6.9,0-9.5,4.1-9.5,7.6c0,4.7,3.1,7,10,9.7c8.5,3.3,12.8,7.4,12.8,14.8c0,7.8-5.7,14.6-17.6,14.6c-4.9,0-10.2-1.5-12.9-3.3
			L199.6,152.7z"/>
		<path class="st7" d="M244.9,115.7v8.7h9.4v5h-9.4V149c0,4.5,1.3,7,4.9,7c1.8,0,2.9-0.1,3.8-0.5l0.3,5c-1.3,0.5-3.3,0.9-5.8,0.9
			c-3.1,0-5.5-1.1-7.1-2.8c-1.8-2-2.5-5.2-2.5-9.5v-19.8h-5.6v-5h5.6v-6.7L244.9,115.7z"/>
		<path class="st7" d="M292.1,150.7c0,3.8,0.1,7.1,0.3,10h-5.8l-0.4-5.9H286c-1.7,2.9-5.5,6.7-12,6.7c-5.7,0-12.5-3.2-12.5-15.9
			v-21.2h6.6v20c0,6.9,2.2,11.6,8.1,11.6c4.4,0,7.5-3.1,8.7-6.1c0.4-0.9,0.6-2.1,0.6-3.4v-22.2h6.6L292.1,150.7L292.1,150.7z"/>
		<path class="st7" d="M334.2,107.5v43.8c0,3.2,0.1,6.9,0.3,9.4h-5.8l-0.3-6.3h-0.2c-1.9,4-6.3,7.1-12.2,7.1
			c-8.8,0-15.6-7.4-15.6-18.4c-0.1-12.1,7.5-19.4,16.3-19.4c5.6,0,9.3,2.6,10.9,5.5h0.1v-21.6H334.2z M327.7,139.1
			c0-0.8-0.1-1.9-0.3-2.8c-1-4.1-4.6-7.6-9.5-7.6c-6.8,0-10.9,6-10.9,13.9c0,7.3,3.7,13.4,10.7,13.4c4.4,0,8.5-3,9.7-7.9
			c0.2-0.9,0.3-1.8,0.3-2.9V139.1z"/>
		<path class="st7" d="M352.6,114.2c0,2.3-1.6,4-4.2,4c-2.4,0-4-1.8-4-4c0-2.3,1.7-4.1,4.1-4.1C350.9,110.1,352.6,111.9,352.6,114.2
			z M345.2,160.6v-36.3h6.6v36.3H345.2z"/>
		<path class="st7" d="M395.6,142.2c0,13.4-9.4,19.3-18.1,19.3c-9.7,0-17.4-7.2-17.4-18.7c0-12.1,8-19.2,18-19.2
			C388.6,123.6,395.6,131.2,395.6,142.2z M366.9,142.6c0,7.9,4.5,13.9,10.9,13.9c6.3,0,11-5.9,11-14.1c0-6.1-3.1-13.9-10.9-13.9
			C370.3,128.6,366.9,135.8,366.9,142.6z"/>
	</g>
	<g>
		<path class="st8" d="M150.6,154h6.1v4.7h-9.3l-15.5-23.2h-8.2V154h8.1v4.7h-20.3V154h7v-40.8l-7-0.9v-4.5c2.6,0.6,4.9,1,7.8,1
			c4.3,0,8.7-1,13.1-1c8.4,0,16.2,3.8,16.2,13.1c0,7.2-4.3,11.8-11,13.7L150.6,154z M123.7,131l4.4,0.1c10.8,0.2,14.9-4,14.9-9.5
			c0-6.5-4.7-9-10.6-9c-2.8,0-5.7,0.3-8.7,0.6V131z"/>
	</g>
	<g class="st6">
		<path class="st7" d="M391.9,110.1c-2.3,0-4.3,1.9-4.3,4.3s1.9,4.3,4.3,4.3c2.3,0,4.3-1.9,4.3-4.3
			C396.1,112,394.2,110.1,391.9,110.1z M395.4,114.3c0,2-1.6,3.5-3.5,3.5c-2,0-3.5-1.6-3.5-3.5c0-2,1.6-3.5,3.5-3.5
			C393.8,110.8,395.4,112.4,395.4,114.3z"/>
		<path class="st7" d="M393.4,116.1l-1.1-1.5c0.6-0.2,0.9-0.7,0.9-1.3c0-0.9-0.8-1.3-1.5-1.3c-0.2,0-0.4,0-0.6,0.1
			c-0.2,0-0.4,0-0.6,0c-0.3,0-0.5,0-0.7-0.1l-0.1,0v0.6l0.6,0.1v3.4h-0.6v0.6h2v-0.6h-0.7v-1.4h0.6l1.3,2l0,0h1V116L393.4,116.1
			L393.4,116.1z M392.6,113.3c0,0.2-0.1,0.4-0.3,0.5c-0.2,0.1-0.5,0.2-0.9,0.2h-0.3v-1.4c0.3,0,0.5,0,0.7,0
			C392.1,112.6,392.6,112.7,392.6,113.3z"/>
	</g>
</g>
<g id="R_Ball">
</g>
</svg>
