<?xml version="1.0" encoding="utf-8"?>
<!-- Generator: Adobe Illustrator 28.1.0, SVG Export Plug-In . SVG Version: 6.00 Build 0)  -->
<svg version="1.1" id="图层_1" xmlns="http://www.w3.org/2000/svg" xmlns:xlink="http://www.w3.org/1999/xlink" x="0px" y="0px"
	 width="256px" height="256px" viewBox="0 0 256 256" style="enable-background:new 0 0 256 256;" xml:space="preserve">
<style type="text/css">
	.st0{fill-rule:evenodd;clip-rule:evenodd;}
	.st1{fill-rule:evenodd;clip-rule:evenodd;fill:url(#SVGID_1_);filter:url(#Adobe_OpacityMaskFilter);}
	.st2{mask:url(#mask0_2043_38609_00000021808927349656764990000015098187722654391215_);}
	.st3{fill-rule:evenodd;clip-rule:evenodd;fill-opacity:0.3;}
	.st4{fill-rule:evenodd;clip-rule:evenodd;fill:url(#SVGID_00000154397391762316020650000016703795073001736324_);}
	.st5{fill:#FFFFFF;filter:url(#Adobe_OpacityMaskFilter_00000124138230317846653010000006415570106459863989_);}
	.st6{mask:url(#mask1_2043_38609_00000121281502435570219310000001007002410934972338_);}
	.st7{fill-rule:evenodd;clip-rule:evenodd;fill:url(#SVGID_00000088853195962634884020000016380720245897186204_);}
	.st8{fill-rule:evenodd;clip-rule:evenodd;fill:url(#SVGID_00000173121386770596282730000016084887487022491520_);}
</style>
<path class="st0" d="M104.4,42.4c-4.4-5.3-10.9-8.4-17.8-8.4H29c-6.6,0-12,5.4-12,12v12.1v10.1V160c0,6.6,5.4,12,12,12h200
	c6.6,0,12-5.4,12-12V70.1c0-6.6-5.4-12-12-12H117.4L104.4,42.4z"/>
<defs>
	<filter id="Adobe_OpacityMaskFilter" filterUnits="userSpaceOnUse" x="17" y="62" width="224" height="110">
		<feColorMatrix  type="matrix" values="1 0 0 0 0  0 1 0 0 0  0 0 1 0 0  0 0 0 1 0"/>
	</filter>
</defs>
<mask maskUnits="userSpaceOnUse" x="17" y="62" width="224" height="110" id="mask0_2043_38609_00000021808927349656764990000015098187722654391215_">
	
		<linearGradient id="SVGID_1_" gradientUnits="userSpaceOnUse" x1="32.5816" y1="239.5494" x2="213.3495" y2="58.4074" gradientTransform="matrix(1 0 0 -1 0 258)">
		<stop  offset="0" style="stop-color:#05815D"/>
		<stop  offset="1" style="stop-color:#0C575F"/>
	</linearGradient>
	<path class="st1" d="M104.4,42.4c-4.4-5.3-10.9-8.4-17.8-8.4H29c-6.6,0-12,5.4-12,12v12.1v10.1V160c0,6.6,5.4,12,12,12h200
		c6.6,0,12-5.4,12-12V70.1c0-6.6-5.4-12-12-12H117.4L104.4,42.4z"/>
</mask>
<g class="st2">
	<g>
		<path class="st3" d="M92.8,74c5,0,9.8-1.6,13.8-4.6l9.9-7.4H229c6.6,0,12,5.4,12,12v34v52c0,6.6-5.4,12-12,12H29
			c-6.6,0-12-5.4-12-12v-52V86c0-6.6,5.4-12,12-12h58H92.8z"/>
	</g>
</g>
<g>
	
		<linearGradient id="SVGID_00000058572938826081203130000013343652756303926163_" gradientUnits="userSpaceOnUse" x1="32.6479" y1="212.6349" x2="319.1479" y2="-56.8651" gradientTransform="matrix(1 0 0 -1 0 258)">
		<stop  offset="0" style="stop-color:#FAFAFA"/>
		<stop  offset="1" style="stop-color:#DFD8D8"/>
	</linearGradient>
	<path style="fill-rule:evenodd;clip-rule:evenodd;fill:url(#SVGID_00000058572938826081203130000013343652756303926163_);" d="
		M92.8,74c5,0,9.8-1.6,13.8-4.6l9.9-7.4H229c6.6,0,12,5.4,12,12v34v90c0,6.6-5.4,12-12,12H29c-6.6,0-12-5.4-12-12v-90V86
		c0-6.6,5.4-12,12-12h58H92.8z"/>
</g>
<defs>
	
		<filter id="Adobe_OpacityMaskFilter_00000099662529097734418430000012537632874591922057_" filterUnits="userSpaceOnUse" x="65.2" y="88.5" width="124.5" height="96">
		<feColorMatrix  type="matrix" values="1 0 0 0 0  0 1 0 0 0  0 0 1 0 0  0 0 0 1 0"/>
	</filter>
</defs>
<mask maskUnits="userSpaceOnUse" x="65.2" y="88.5" width="124.5" height="96" id="mask1_2043_38609_00000121281502435570219310000001007002410934972338_">
	<path style="fill:#FFFFFF;filter:url(#Adobe_OpacityMaskFilter_00000099662529097734418430000012537632874591922057_);" d="M190,88
		H65v96.9h125V88z"/>
</mask>
<g class="st6">
	
		<linearGradient id="SVGID_00000052801519179882843400000017222259747847876749_" gradientUnits="userSpaceOnUse" x1="88.8548" y1="185.3519" x2="165.9557" y2="70.2286" gradientTransform="matrix(1 0 0 -1 0 258)">
		<stop  offset="0" style="stop-color:#CBCED0"/>
		<stop  offset="1" style="stop-color:#84838B"/>
	</linearGradient>
	<path style="fill-rule:evenodd;clip-rule:evenodd;fill:url(#SVGID_00000052801519179882843400000017222259747847876749_);" d="
		M127.4,171.9c-34.4,0-62.2-18.7-62.2-41.7c0-23,27.9-41.7,62.2-41.7c34.4,0,62.2,18.7,62.2,41.7
		C189.7,153.2,161.8,171.9,127.4,171.9z M136.9,104.8c-26.1,0-47.3,12.8-47.3,28.5c0,15.7,21.2,28.5,47.3,28.5
		c26.1,0,45.4-8.7,45.4-28.5C182.3,113.5,163.1,104.8,136.9,104.8z"/>
	
		<linearGradient id="SVGID_00000114056744016360565970000007608422748113285516_" gradientUnits="userSpaceOnUse" x1="111.461" y1="138.5062" x2="181.5599" y2="69.8103" gradientTransform="matrix(1 0 0 -1 0 258)">
		<stop  offset="0" style="stop-color:#276DC3"/>
		<stop  offset="1" style="stop-color:#165CAA"/>
	</linearGradient>
	<path style="fill-rule:evenodd;clip-rule:evenodd;fill:url(#SVGID_00000114056744016360565970000007608422748113285516_);" d="
		M160,153.1c0,0,3.8,1.1,6,2.2c0.8,0.4,2.1,1.2,3,2.2c0.9,1,1.4,2,1.4,2l14.8,25l-24,0l-11.2-21.1c0,0-2.3-3.9-3.7-5.1
		c-1.2-1-1.7-1.3-2.8-1.3c-0.8,0-5.7,0-5.7,0l0,27.4l-21.2,0v-70.1h42.6c0,0,19.4,0.4,19.4,18.8C178.5,151.7,160,153.1,160,153.1z
		 M150.7,129.6l-12.9,0l0,11.9l12.9,0c0,0,6,0,6-6.1C156.7,129.3,150.7,129.6,150.7,129.6z"/>
</g>
<path class="st0" d="M86,129.9c2.5,0,4.6,1.7,5.1,4.1l0.2,1.1c0.8,4.2,5.3,6.6,9.4,5.2l1-0.4c2.4-0.8,5,0.1,6.2,2.2l1.9,3.2
	c1.2,2.1,0.8,4.8-1.1,6.3l-0.8,0.7c-3.3,2.8-3.3,7.7,0,10.5l0.8,0.7c1.9,1.6,2.4,4.2,1.1,6.3l-1.9,3.2c-1.2,2.1-3.9,3-6.2,2.2
	l-1-0.4c-4.1-1.4-8.6,1.1-9.4,5.2l-0.2,1.1c-0.5,2.4-2.6,4.1-5.1,4.1h-3.8c-2.5,0-4.6-1.7-5.1-4.1l-0.2-1.1
	c-0.8-4.2-5.3-6.6-9.4-5.2l-1,0.4c-2.4,0.8-5-0.1-6.2-2.2l-1.9-3.2c-1.2-2.1-0.8-4.8,1.1-6.3l0.8-0.7c3.3-2.8,3.3-7.7,0-10.5
	l-0.8-0.7c-1.9-1.6-2.4-4.2-1.1-6.3l1.9-3.2c1.2-2.1,3.9-3,6.2-2.2l1,0.4c4.1,1.4,8.6-1.1,9.4-5.2l0.2-1.1c0.5-2.4,2.6-4.1,5.1-4.1
	H86z M84.1,165.5c4.4,0,7.9-3.5,7.9-7.9c0-4.4-3.5-7.9-7.9-7.9c-4.4,0-7.9,3.5-7.9,7.9C76.2,162,79.8,165.5,84.1,165.5z"/>
</svg>
