<?xml version="1.0" encoding="UTF-8"?>
<svg id="_图层_1" xmlns="http://www.w3.org/2000/svg" width="256" height="256" version="1.1" xmlns:xlink="http://www.w3.org/1999/xlink" viewBox="0 0 256 256">
  <!-- Generator: Adobe Illustrator 29.2.1, SVG Export Plug-In . SVG Version: 2.1.0 Build 116)  -->
  <defs>
    <style>
      .st0 {
        fill-opacity: .3;
      }

      .st0, .st1, .st2 {
        fill-rule: evenodd;
      }

      .st3 {
        fill: none;
      }

      .st1 {
        fill: url(#_未命名的渐变);
      }

      .st2 {
        fill: url(#_未命名的渐变_3);
      }

      .st4 {
        fill: url(#_未命名的渐变_31);
      }

      .st5 {
        clip-path: url(#clippath);
      }
    </style>
    <clipPath id="clippath">
      <rect class="st3" width="256" height="256"/>
    </clipPath>
    <linearGradient id="_未命名的渐变_3" data-name="未命名的渐变 3" x1="42" y1="190" x2="203.9" y2="28.1" gradientUnits="userSpaceOnUse">
      <stop offset="0" stop-color="#0071ff"/>
      <stop offset="1" stop-color="#00bfe1"/>
    </linearGradient>
    <linearGradient id="_未命名的渐变" data-name="未命名的渐变" x1="17" y1="-314" x2="241" y2="-462" gradientTransform="translate(0 -252) scale(1 -1)" gradientUnits="userSpaceOnUse">
      <stop offset="0" stop-color="#fbfafa"/>
      <stop offset="1" stop-color="#e9e4e4"/>
    </linearGradient>
    <linearGradient id="_未命名的渐变_31" data-name="未命名的渐变 3" x1="-798.1" y1="681.1" x2="-795.2" y2="683.9" gradientTransform="translate(20842.4 17880) scale(26 -26)" xlink:href="#_未命名的渐变_3"/>
  </defs>
  <g class="st5">
    <g>
      <path class="st2" d="M104.4,42.4c-4.4-5.3-10.9-8.4-17.8-8.4H29c-6.6,0-12,5.4-12,12v114c0,6.6,5.4,12,12,12h200c6.6,0,12-5.4,12-12v-89.9c0-6.6-5.4-12-12-12h-111.6s-13-15.7-13-15.7Z"/>
      <path class="st0" d="M92.8,74c5,0,9.8-1.6,13.8-4.6l9.9-7.4h112.5c6.6,0,12,5.4,12,12v86c0,6.6-5.4,12-12,12H29c-6.6,0-12-5.4-12-12v-74c0-6.6,5.4-12,12-12h63.8Z"/>
      <path class="st1" d="M92.8,74c5,0,9.8-1.6,13.8-4.6l9.9-7.4h112.5c6.6,0,12,5.4,12,12v124c0,6.6-5.4,12-12,12H29c-6.6,0-12-5.4-12-12v-112c0-6.6,5.4-12,12-12h63.8Z"/>
    </g>
  </g>
  <path class="st4" d="M167.1,107.9l-8.7,8.5c-1.5,1.4-2.3,3.5-1.4,5.4,5.8,11.9,3.6,26.1-5.9,35.5-9.5,9.3-23.9,11.5-36,5.8-1.8-.8-3.9-.1-5.2,1.3l-8.8,8.7c-1.8,1.8-1.9,4.7,0,6.5.3.3.6.5.9.7,20.8,12.4,47.4,9.2,64.6-7.7,17.2-16.9,20.5-43.2,7.9-63.7-1.3-2.2-4.1-3-6.4-1.7-.4.2-.7.4-1,.7h0ZM92.2,98.7c-17.3,16.8-20.6,43.1-8.2,63.6,1.3,2.2,4.1,3,6.4,1.7.4-.2.7-.4,1-.7l8.6-8.5c1.6-1.3,2.3-3.5,1.5-5.4-5.8-11.9-3.6-26.1,5.9-35.5,9.5-9.3,23.9-11.5,36-5.8,1.8.8,3.8.1,5.2-1.2l8.9-8.7c1.8-1.8,1.9-4.7,0-6.5-.3-.3-.6-.5-.9-.7-20.8-12.3-47.4-9-64.5,7.9l.2-.2Z"/>
</svg>