<?xml version="1.0" encoding="UTF-8"?>
<svg id="_图层_1" data-name="图层_1" xmlns="http://www.w3.org/2000/svg" width="256" height="256" version="1.1" xmlns:xlink="http://www.w3.org/1999/xlink" viewBox="0 0 256 256">
  <!-- Generator: Adobe Illustrator 29.2.1, SVG Export Plug-In . SVG Version: 2.1.0 Build 116)  -->
  <defs>
    <style>
      .st0 {
        fill-opacity: .3;
      }

      .st0, .st1, .st2, .st3 {
        fill-rule: evenodd;
      }

      .st4, .st5, .st2 {
        fill: #fff;
      }

      .st5, .st2 {
        display: none;
      }

      .st1 {
        fill: url(#_未命名的渐变_33);
      }

      .st3 {
        fill: url(#_未命名的渐变_30);
      }
    </style>
    <linearGradient id="_未命名的渐变_33" data-name="未命名的渐变 33" x1="17" y1="103" x2="241" y2="103" gradientUnits="userSpaceOnUse">
      <stop offset="0" stop-color="#0071ff"/>
      <stop offset="1" stop-color="#00bfe1"/>
    </linearGradient>
    <linearGradient id="_未命名的渐变_30" data-name="未命名的渐变 30" x1="17" y1="136" x2="241" y2="136" gradientUnits="userSpaceOnUse">
      <stop offset="0" stop-color="#00bfe1"/>
      <stop offset="0" stop-color="#00b4e5"/>
      <stop offset=".2" stop-color="#009bee"/>
      <stop offset=".3" stop-color="#0088f5"/>
      <stop offset=".4" stop-color="#007bfb"/>
      <stop offset=".6" stop-color="#0073fe"/>
      <stop offset="1" stop-color="#0071ff"/>
    </linearGradient>
  </defs>
  <path class="st1" d="M104.4,42.4c-4.4-5.3-10.9-8.4-17.8-8.4H29c-6.6,0-12,5.4-12,12v114c0,6.6,5.4,12,12,12h200c6.6,0,12-5.4,12-12v-89.9c0-6.6-5.4-12-12-12h-111.6l-13-15.7Z"/>
  <path class="st0" d="M92.8,74c5,0,9.8-1.6,13.8-4.6l9.9-7.4h112.5c6.6,0,12,5.4,12,12v86c0,6.6-5.4,12-12,12H29c-6.6,0-12-5.4-12-12v-74c0-6.6,5.4-12,12-12h63.8Z"/>
  <path class="st3" d="M92.8,74c5,0,9.8-1.6,13.8-4.6l9.9-7.4h112.5c6.6,0,12,5.4,12,12v124c0,6.6-5.4,12-12,12H29c-6.6,0-12-5.4-12-12v-112c0-6.6,5.4-12,12-12h63.8Z"/>
  <path class="st2" d="M60.7,163h-12.7v12.7h12.7v-12.7ZM58.2,165.5h-7.6v7.6h7.6v-7.6Z"/>
  <rect class="st5" x="53.1" y="168.1" width="2.5" height="2.5"/>
  <path class="st2" d="M60.7,178.3h-12.7v12.7h12.7v-12.7ZM58.2,180.8h-7.6v7.6h7.6v-7.6Z"/>
  <rect class="st5" x="53.1" y="183.4" width="2.5" height="2.5"/>
  <path class="st2" d="M76,163h-12.7v12.7h12.7v-12.7ZM73.5,165.5h-7.6v7.6h7.6v-7.6Z"/>
  <rect class="st5" x="68.4" y="168.1" width="2.5" height="2.5"/>
  <rect class="st5" x="73.5" y="178.3" width="2.5" height="12.7"/>
  <rect class="st5" x="68.4" y="183.4" width="5.1" height="2.5"/>
  <rect class="st5" x="63.3" y="183.4" width="2.5" height="7.6"/>
  <rect class="st5" x="63.3" y="178.3" width="5.1" height="2.5"/>
  <rect class="st5" x="70.9" y="178.3" width="2.5" height="2.5"/>
  <rect class="st5" x="68.4" y="188.5" width="2.5" height="2.5"/>
  <path class="st2" d="M74.3,92c-6.6,8.4-10.6,19.1-10.6,30.6s3.6,21.2,9.7,29.4h4.6c-3.3-3.6-9.8-14.4-9.8-29.4s6.9-26.6,10.4-30.6h-4.3ZM54.5,108.9c0,1.8-1.5,3.3-3.3,3.3s-3.3-1.5-3.3-3.3,1.5-3.3,3.3-3.3,3.3,1.5,3.3,3.3ZM51.3,141.9c1.8,0,3.3-1.5,3.3-3.3s-1.5-3.3-3.3-3.3-3.3,1.5-3.3,3.3,1.5,3.3,3.3,3.3Z"/>
  <path class="st4" d="M172.6,110.7c6.1,9.4,8.4,20.4,6.7,32.2-1.7,12.1-7.3,22.2-17.5,31.2-18.3,14.8-41.2,15.8-58.7,5.5-1.5-.9-3.2-1.3-3.7-3-.4-1.3-.4-2.8,0-3.9.5-1.1,5.2-6.2,7.6-8.1,2.8-2.2,4.3-2.3,8-.2,10.6,5.2,21.9,3.7,30.6-2,9.2-6.6,15.1-16.7,15.3-26.7,0-4.8-1-8.6-3.4-13.1-1.6-3-2-5.1-1.3-6.7.5-1.1,5.7-6.6,7.5-7.9,2.8-2.1,3.1-2.2,4.7-1.6,2,.7,2.6,1.3,4.4,4ZM159.2,97.1c.5,1.2.2,2.8-.6,4.2-2.5,2.5-6.2,7.5-9.2,8.6-1.6.6-2.8.4-5.6-1.1-7.4-3.9-15.3-4.7-22.7-2.3-8.9,2.9-17.9,11.5-21.3,20.3-3.1,8-2.5,16.2,1.6,24.3,1.6,3.1,1.9,4.6,1,5.9-.9,1.4-4.9,5.7-7.3,7.7-2.5,2.2-3,2.3-5.2,1.9-1.7-.3-2.1-.8-4.4-4.7-7.1-12.5-8.6-26.5-4.4-39.9,4.9-14.8,17.8-28.1,32.2-33.2,14.2-5,30.2-3.2,42.3,4.9,2.6,1.7,2.9,2,3.4,3.3Z"/>
</svg>