<?xml version="1.0" encoding="utf-8"?>
<!-- Generator: Adobe Illustrator 28.1.0, SVG Export Plug-In . SVG Version: 6.00 Build 0)  -->
<svg version="1.1" id="图层_1" xmlns="http://www.w3.org/2000/svg" xmlns:xlink="http://www.w3.org/1999/xlink" x="0px" y="0px"
	 width="256px" height="256px" viewBox="0 0 256 256" style="enable-background:new 0 0 256 256;" xml:space="preserve">
<style type="text/css">
	.st0{fill-rule:evenodd;clip-rule:evenodd;}
	.st1{fill-rule:evenodd;clip-rule:evenodd;fill-opacity:0.3;}
	.st2{fill-rule:evenodd;clip-rule:evenodd;fill:url(#SVGID_1_);}
	.st3{fill:#09161D;}
</style>
<path class="st0" d="M104.4,42.4C100,37.1,93.5,34,86.6,34H29c-6.6,0-12,5.4-12,12v12.1v10.1V160c0,6.6,5.4,12,12,12h200
	c6.6,0,12-5.4,12-12V70.1c0-6.6-5.4-12-12-12H117.4L104.4,42.4z"/>
<g>
	<g>
		<path class="st1" d="M92.8,74c5,0,9.8-1.6,13.8-4.6l9.9-7.4H229c6.6,0,12,5.4,12,12v34v52c0,6.6-5.4,12-12,12H29
			c-6.6,0-12-5.4-12-12v-52V86c0-6.6,5.4-12,12-12h58H92.8z"/>
	</g>
</g>
<g>
	
		<linearGradient id="SVGID_1_" gradientUnits="userSpaceOnUse" x1="17" y1="-46" x2="241" y2="-194" gradientTransform="matrix(1 0 0 -1 0 16)">
		<stop  offset="0" style="stop-color:#B1FFD0"/>
		<stop  offset="0.4745" style="stop-color:#80F5D2"/>
		<stop  offset="1" style="stop-color:#49D6BC"/>
	</linearGradient>
	<path class="st2" d="M92.8,74c5,0,9.8-1.6,13.8-4.6l9.9-7.4H229c6.6,0,12,5.4,12,12v34v90c0,6.6-5.4,12-12,12H29
		c-6.6,0-12-5.4-12-12v-90V86c0-6.6,5.4-12,12-12h58H92.8z"/>
</g>
<path id="形状" class="st3" d="M156.2,104.6c4.8,0,8.8,3.7,9.1,8.4l0,0.7v45.6h9.1c2.5,0,4.6,2,4.6,4.6c0,2.3-1.8,4.3-4,4.5
	l-0.5,0h-9.1v9.1c0,2.5-2,4.6-4.6,4.6c-2.3,0-4.3-1.8-4.5-4l0-0.5v-63.9h-36.5v-9.1H156.2z M106,90.9c2.3,0,4.3,1.8,4.5,4l0,0.5
	v63.9h36.5v9.1h-36.5c-4.8,0-8.8-3.7-9.1-8.4l0-0.7v-45.6h-9.1c-2.5,0-4.6-2-4.6-4.6c0-2.3,1.8-4.3,4-4.5l0.5,0h9.1v-9.1
	C101.4,92.9,103.5,90.9,106,90.9z"/>
</svg>
