<?xml version="1.0" encoding="UTF-8"?>
<svg id="_图层_1" data-name="图层_1" xmlns="http://www.w3.org/2000/svg" width="256" height="256" version="1.1" xmlns:xlink="http://www.w3.org/1999/xlink" viewBox="0 0 256 256">
  <!-- Generator: Adobe Illustrator 29.2.1, SVG Export Plug-In . SVG Version: 2.1.0 Build 116)  -->
  <defs>
    <style>
      .st0 {
        fill-opacity: .3;
      }

      .st0, .st1, .st2, .st3, .st4, .st5, .st6 {
        fill-rule: evenodd;
      }

      .st1 {
        fill: url(#_未命名的渐变_24);
      }

      .st2 {
        fill: #1466ab;
      }

      .st3 {
        fill: #303445;
      }

      .st4 {
        fill: #fff;
      }

      .st5 {
        fill: #ccc;
      }

      .st6 {
        fill: url(#_未命名的渐变);
      }
    </style>
    <linearGradient id="_未命名的渐变" data-name="未命名的渐变" x1="129" y1="544" x2="129" y2="682" gradientTransform="translate(0 -510)" gradientUnits="userSpaceOnUse">
      <stop offset="0" stop-color="#023d7b"/>
      <stop offset="1" stop-color="#000"/>
    </linearGradient>
    <linearGradient id="_未命名的渐变_24" data-name="未命名的渐变 24" x1="272.3" y1="503.1" x2="86.1" y2="696.6" gradientTransform="translate(0 -510)" gradientUnits="userSpaceOnUse">
      <stop offset=".4" stop-color="#0259a5"/>
      <stop offset="1" stop-color="#023c79"/>
    </linearGradient>
  </defs>
  <path class="st6" d="M104.4,42.4c-4.4-5.3-10.9-8.4-17.8-8.4H29c-6.6,0-12,5.4-12,12v114c0,6.6,5.4,12,12,12h200c6.6,0,12-5.4,12-12v-89.9c0-6.6-5.4-12-12-12h-111.6l-13-15.7Z"/>
  <path class="st0" d="M92.8,74c5,0,9.8-1.6,13.8-4.6l9.9-7.4h112.5c6.6,0,12,5.4,12,12v86c0,6.6-5.4,12-12,12H29c-6.6,0-12-5.4-12-12v-74c0-6.6,5.4-12,12-12h63.8Z"/>
  <path class="st1" d="M92.8,74c5,0,9.8-1.6,13.8-4.6l9.9-7.4h112.5c6.6,0,12,5.4,12,12v124c0,6.6-5.4,12-12,12H29c-6.6,0-12-5.4-12-12v-112c0-6.6,5.4-12,12-12h63.8Z"/>
  <g id="g3">
    <path id="path5" class="st5" d="M165.3,105.1c0-.1,0-.2,0-.3,0-.3.1-.5.2-.8.2-.5.5-1,1-1.4.2-.8.7-1.5,1.4-2.1.7-.6,1.7-1,2.9-1.2.3,0,.6,0,.9,0,.6,0,1.2,0,1.8.2.6-.4,1.3-.6,2.2-.6h0c.2,0,.5,0,.8,0,.2,0,.5.2.8.2h0c1.4.6,2.4,1.9,2.4,3.4v.2c0,1-.5,2-1.2,2.7-.5.5-1.2.8-1.9,1-.8.9-2,1.6-3.4,1.7v1.8h-.6v1.3c0,0-.1,1.2-.1,1.2v.7l-.2,5.6v.3l3.4,2.7,1,.8-.3,1.3-.9,3.8-.7,3.5c.6-.9,1.4-1.6,2.3-2.4,4.1-3.6,10.5-5.9,16.1-6.6l1.5-.2.6,1.3,3.1,6.4,1.3,2.6-2.9.5c-.2,0-.5,0-.8.1-.2,0-.5,0-.8.2-1.3.2-2.5.6-3.6,1-.5.2-.9.3-1.3.5-.4.2-.8.4-1.1.6-1.5.8-2.5,1.6-2.6,2.5-.1.4,0,1,.3,1.6.5.9,1.3,1.9,2.3,3h0c.6.8,1.5,1.5,2.3,2.3,3.6,3.3,7.5,6.8,7.5,12.9s-.3,2.4-.8,3.6c-.5,1.1-1.1,2.1-1.9,3-3.8,4.3-11.2,6.8-17.1,7.7l-1.3.2-.8-1.1-1.3-1.9,1.8,9.3.5,2.5h-17l-.3-1.7-2.2-11.7-4.5,11-.5,1.3h-5.9l-.5-1.3-4.4-10.7-2,11.4-.3,1.7h-16.7l.5-2.4,1.1-6.5h-12.9v-49.1h2.2c-.3-.2-.5-.5-.8-.7-1.6-1.6-2.5-3.7-2.5-6.1s.9-4.5,2.5-6.1c1.6-1.6,3.7-2.5,6.1-2.5s4.5.9,6.1,2.5c1.5,1.6,2.5,3.7,2.5,6.1s-.1,1.3-.2,2l3.7-2.2v-.4l1-.6,4.5-2.8v-.4l1-.6,5.1-3.2v-.3l1-.6,6.5-4,1.2-.8,1.2.9,6,4.8.9.6v.5c0,0,2.3,1.9,2.3,1.9v-1c0,0-.5,0-.5,0v-1.9c0,0,.1-.8.1-.8v-1.9c0,0,2,0,2,0h.4ZM174.9,131.2l-2.7-2.3-4.5-3.9,7,36.4h.3c.6,0,2-.2,3.6-.7.3,0,.5-.1.8-.2,1.3-.4,2.7-.9,3.7-1.5.7-.4,1.2-.8,1.4-1.2.2-.3.2-.7.2-1h0c-.1-1.9-3-4.5-5.4-6.6-1-.9-2-1.8-2.8-2.7-2.4-2.8-3.7-5.5-4-8-.3-2.1.1-4.1.9-5.9.4-.8.9-1.6,1.5-2.3h0ZM165.5,123.1l-6.3-5.4v1.2c0,0,0,.7,0,.7v1c0,0-.2,3.6-.2,3.6v1.7c0,0-1.7,0-1.7,0l-5.7-.2h-.7c0,0-1,0-1,0l-4.3-.2h-1.7c0-.1,0-1.8,0-1.8v-3.6c.1,0,.2-1,.2-1v-1.5c0,0-5.1,3.3-5.1,3.3h2.4l.5,1.3,9.4,22.1,9.4-19.7.6-1.2h4.3ZM134.2,123.8l-2.8,1.8-2.8,1.8-.5-3.3-.5-3.4c-.3.5-.7,1-1.1,1.5-.2.2-.5.5-.8.7h2.2v36.6l6.2-35.6h0ZM106.5,108.3l-.7-1.3-1.5.2c-8.2,1.1-17.4,4.5-23.4,9.6-2.3,1.9-4.1,4.2-5.3,6.6-1.2,2.6-1.7,5.4-1.3,8.4.5,3.6,2.3,7.3,5.7,11.4,1,1.2,2.5,2.5,4.1,3.9,3.7,3.3,8.2,7.4,8.3,10.6h0c0,.8-.2,1.5-.5,2.2-.5.7-1.2,1.4-2.4,2.2-1.6.9-3.7,1.7-5.8,2.4-.5.1-.9.2-1.2.3-2.4.6-4.6,1-5.6,1h-4l2.3,3.3,6.4,9.4.8,1.1,1.3-.2c8.4-1.3,19.3-5,24.8-11.2,1.2-1.3,2-2.7,2.7-4.2.6-1.6,1-3.3,1-5,0-8.6-5.5-13.7-10.8-18.6-1.2-1.2-2.4-2.3-3.6-3.3h0c-1.7-1.7-2.9-3.4-3.6-4.8-.6-1.2-.9-2.3-.7-3.2.3-1.6,1.9-3.1,4.4-4.5.5-.3,1.1-.6,1.7-.9.6-.3,1.3-.6,2-.8,1.7-.6,3.6-1.2,5.5-1.6.5-.1.8-.2,1.2-.2.5-.1.9-.2,1.2-.2l2.8-.5-1.2-2.6-4.6-9.6h0ZM58.6,147h8.1v-.7h6.9v3.4c.5-.1,1-.1,1.6,0,.3,0,.6.1.9.2.3.1.6.2.9.4.6.3,1,.7,1.5,1.2q0,0,.1,0c1.1-1.1,2.7-1.7,4.3-1.7s.4,0,.5,0c1.7.1,3.1.9,4.1,2.2.9,1.2,1.3,2.7,1.3,4.5s0,1.3-.1,2.2h-.5l.2.6.2.8-.5.6c-.6.8-1.5,1.3-2.3,1.5-.8.3-1.6.4-2.4.4h-.2c-1.4,0-2.6-.5-3.7-1.2v.8h-19.5v-8.9h-2.8v-6.3h1.5ZM153.1,112.4l-.6-.5-.8.5h1.3Z"/>
    <path id="path7" class="st3" d="M54.8,142.9h9v-.2c0-.3.2-.5.5-.5h6.9c.3,0,.5.2.5.5v2.7h.3c.3,0,.5,0,.8,0h0c.2,0,.5,0,.7.1q0,0,.2,0h.1c.2.1.5.2.7.3,0,0,.1,0,.1,0,0,0,.1,0,.2,0,.3.2.6.4.9.6.1,0,.3.2.4.3.4-.4.9-.7,1.4-.9.2,0,.3-.1.4-.2.8-.3,1.7-.5,2.6-.5h.5c1.4.1,2.6.6,3.5,1.3.2.2.3.3.5.5.2.2.3.3.5.5h0c.4.6.8,1.2,1,1.9,0,.1.1.2.2.4.2.8.4,1.7.4,2.7v1.1c0,.3,0,.7-.2,1.2,0,.2-.2.3-.3.4l.2.8c0,.1,0,.4-.1.5l-.5.6c-.5.6-1.2,1-1.8,1.3-.2.1-.3.2-.4.2-.1,0-.2.1-.3.2h0,0,0c-.4.1-.9.2-1.3.3-.4,0-.9.1-1.3.1h-.2c-1,0-2-.3-2.9-.7,0,0-.1,0-.2-.1,0,.2-.3.5-.5.5h-19.6c-.2,0-.5-.3-.5-.5v-8.4h-2.2c-.3,0-.6-.2-.6-.5v-6.2c0-.3.3-.5.6-.5h0ZM170.6,129.7c.3-.7.7-1.3,1.2-1.9l-2.3-2-3.4-2.9,6.7,34.4c.5,0,1.2-.1,2-.3.1,0,.3-.1.6-.2.2,0,.4-.1.6-.2h0c.1,0,.2,0,.4-.1.1,0,.2,0,.3,0,1-.3,2-.6,2.8-1,.1,0,.3-.1.5-.2.1,0,.2-.1.4-.2.3-.2.6-.3.8-.5.2-.2.3-.3.4-.5,0,0,.1-.2.1-.3,0-.1,0-.3,0-.5h0c0-1.6-2.7-4-4.9-6-.1,0-.2-.1-.3-.2-.5-.5-1-.9-1.5-1.4s-.9-.9-1.3-1.3c-1.7-2.1-3-4.1-3.6-6.1-.1-.3-.2-.7-.3-1-.1-.3-.2-.8-.2-1.1-.1-1.2-.1-2.2,0-3.3.2-1,.5-2,.9-3h0ZM126.2,124.3v25.5l5-28.4-1.8,1.1-2.7,1.8c-.2.1-.3.1-.5,0h0ZM157.1,122.2l.8-1.6.6-1.2c0-.2.3-.3.5-.3h2.8l-4.3-3.7h0c0,0,0,.7,0,.7v1c0,0-.2,3.6-.2,3.6v1.5h0ZM141.7,122.2l7.3,17,7.9-16.4c-.1,0-.2,0-.3,0h-1.7c0,0-5.7-.3-5.7-.3h-1.7c0,0-4.3-.2-4.3-.2h-1.5ZM138.4,116.7h.6c.1,0,.4.2.5.3l.5,1.3,1,2.3v-.5c0,0,.2-3.7.2-3.7v-1c0,0,0-.5,0-.5l-2.8,1.9h0ZM110.4,117.3c.3.5.7,1,1.1,1.4h-.9c-.2,0-.5.3-.5.5v33.4c-.5-3.1-1.7-5.8-3.3-8.2-2-3-4.8-5.5-7.4-7.9-.6-.6-1.3-1.1-1.9-1.7-.6-.5-1.1-1-1.6-1.6h0c-1.2-1.3-2.2-2.4-2.9-3.5-.3-.6-.6-1-.9-1.6-.3-.6-.5-1.2-.5-1.8v-.3c0-.1,0-.2,0-.3.2-.7.6-1.4,1.3-2.1.7-.7,1.7-1.4,2.9-2,0,0,.2,0,.3-.2.4-.2.9-.5,1.4-.7.7-.2,1.3-.5,2-.8,1.2-.4,2.4-.8,3.8-1.2.3,0,.6-.1.8-.2.2,0,.5-.1.8-.2h.3c.3-.1.6-.2.9-.2h0c.3,0,.7-.1,1-.2.1,0-.1,0,.2,0l2.8-.5c.1,0,.2,0,.3-.1h0ZM104.6,104.6l-.6-1.4c0-.2-.3-.3-.6-.3l-1.5.2c-5.9.8-12.4,2.7-17.8,5.7-1.1.6-2.1,1.2-3.1,1.9-.9.6-1.9,1.3-2.7,2.1-1.7,1.5-3.1,3-4.3,4.8-.2.3-.4.6-.6,1-.2.3-.4.7-.6,1-.9,1.9-1.5,4-1.5,6.1v1.3c0,.4,0,.8.1,1.3h0c0,.1,0,0,0,0h0c.3,1.9.9,3.8,1.8,5.8,1,1.9,2.3,3.8,4.1,5.9h0c1,1.2,2.4,2.4,3.9,3.8,0,0,.1.2.2.2,1.8,1.6,3.8,3.4,5.4,5.2,1.6,1.7,2.7,3.4,2.7,4.9h0c0,.5,0,.8,0,1.1-.1.3-.2.6-.3.9-.2.3-.5.6-.8.9-.4.3-.9.7-1.4,1-1.2.6-2.5,1.2-4,1.7-.3.1-.6.2-.9.3-.3.1-.6.2-.9.3-.2,0-.3.1-.6.1-.2.1-.4.2-.6.2-1,.3-2,.5-2.8.7-.2,0-.4,0-.5.1-.9.1-1.7.2-2.2.2h-4c-.4,0-.6.5-.4.8l2.2,3.3h0l6.4,9.4h0c0,0,.8,1.1.8,1.1.1.1.3.3.5.2l1.3-.2c6.2-.9,13.5-3.1,19.3-6.6,1.1-.6,2.2-1.4,3.1-2.2.9-.8,1.9-1.6,2.6-2.6h0c.8-.9,1.5-1.9,2.2-3,.1-.2.2-.4.3-.6.1-.2.2-.5.3-.6.3-.9.6-1.9.8-2.9v10.4c0,.3.3.5.5.5h12.3l-1,5.8-.4,2.4c0,.3.2.6.5.6h16.7c.2,0,.5-.2.5-.4l.3-1.8,1.7-9.5,3.6,9,.6,1.3c0,.2.3.3.5.3h5.9c.2,0,.4-.2.5-.3l.6-1.3,3.8-9.3,1.8,9.9.3,1.7c0,.2.3.4.5.4h17c.3,0,.6-.3.5-.6l-.5-2.5-1.3-6.8.6.9c.1.1.3.2.5.2l1.3-.2h0c.8-.2,1.7-.3,2.6-.5.9-.2,1.7-.4,2.6-.7,4.7-1.3,9.3-3.6,12.2-6.7.4-.5.8-1,1.1-1.5.3-.5.6-1,.9-1.6h0c0-.2.1-.3.2-.5,0-.2.1-.3.2-.5.2-.9.4-1.9.4-2.8,0-6.3-3.9-9.9-7.6-13.3h-.1c-.8-.8-1.6-1.5-2.2-2.2,0,0-.1-.1-.2-.1-.5-.5-.9-1-1.2-1.5-.4-.5-.7-.9-.9-1.3-.3-.5-.5-1-.3-1.3.1-.8.9-1.4,1.7-1.9,1-.6,2.2-1,3-1.3,2.4-.9,4.7-1.2,7.2-1.6.3,0,.6-.1.7-.1.3,0,.5-.5.3-.8l-1.2-2.6h0l-3.1-6.4-.6-1.4c-.1-.2-.4-.3-.6-.3l-1.5.2h0c-.8.1-1.6.3-2.4.4-.8.2-1.6.4-2.4.6-4.3,1.2-8.4,3.1-11.5,5.7-.2.2-.5.4-.7.6,0,0-.2.2-.3.3l.3-1.5.8-3.8.2-1.3c0-.1,0-.4-.2-.5l-1-.8-3.1-2.5.2-5.6v-1.9c0,0,.1-.7.1-.7.3,0,.5-.3.5-.5v-1.4c.1,0,.2,0,.3,0,.2,0,.4-.1.6-.2,1-.3,1.8-.9,2.4-1.5,0,0,.1,0,.2,0,.1,0,.2,0,.3-.1.5-.2,1-.5,1.5-.9.1-.1.2-.2.3-.3.1-.1.2-.2.3-.3.5-.7.8-1.5.8-2.4h0v-.2c0-.2,0-.5-.1-.7,0-.2-.1-.5-.2-.6-.5-1.1-1.3-2-2.4-2.5h0c-.2-.1-.5-.2-.8-.2-.3-.1-.6-.1-.9-.1h0c-.5,0-.9,0-1.3.2,0,0-.1,0-.2,0-.2,0-.5.2-.8.4h0c-.1,0-.2,0-.3-.1-.5,0-.9-.1-1.4-.1s-.6,0-.9.1c-.2,0-.4,0-.5,0-.2,0-.3,0-.5.1-.8.2-1.6.6-2.2,1.1-.1,0-.2.2-.3.2-.1.1-.2.2-.3.3-.4.5-.8,1-.9,1.6h0c-.1.2-.2.2-.2.3-.3.4-.5.8-.8,1.2,0,.2-.1.4-.2.6h-1.9c-.2,0-.5.2-.5.5v1.9c0,0-.1.8-.1.8v1.5c0,0-.9-.6-.9-.6v-.2c0-.1-.1-.3-.2-.4l-.8-.7-6-4.8-1.2-.9c-.1-.1-.4-.2-.6,0l-1.3.8-6.5,4-1,.6c-.1,0-.3.3-.3.5h0c0,.1-4.8,3.1-4.8,3.1l-1,.6c0,0-.2.4-.2.5h0c0,.1-4.3,2.8-4.3,2.8l-1,.6c-.1,0-.3.3-.3.5h0c0,0-2.4,1.5-2.4,1.5,0-.3,0-.6,0-.9h0c0-1.3-.2-2.5-.6-3.6-.1-.2-.2-.3-.2-.5-.5-.9-1-1.7-1.7-2.4-.2-.2-.5-.5-.8-.6-.2-.2-.5-.4-.8-.6-1.5-.9-3.1-1.5-5-1.5s-2.5.2-3.6.7c-.2.1-.3.2-.5.2-.9.5-1.7,1-2.4,1.7-.2.2-.4.5-.6.8-.2.2-.4.5-.6.8-.9,1.5-1.5,3.1-1.5,5s0,.9.1,1.5l-4.5-9.3h0Z"/>
    <path id="path9" class="st2" d="M193.1,119.9l3.1,6.4,1.3,2.6-2.9.5c-.2,0-.5,0-.8.1-.2,0-.5.1-.8.2-1.3.3-2.5.6-3.6,1-.5.2-.9.3-1.3.6-.4.2-.8.3-1.1.5-1.5.8-2.4,1.7-2.6,2.5-.1.5,0,1,.4,1.7.5.9,1.2,1.9,2.3,2.9h0c.7.8,1.5,1.5,2.3,2.3,3.6,3.3,7.5,6.9,7.5,12.9s-.2,2.5-.8,3.6c-.5,1.1-1.1,2.1-1.9,3-3.8,4.3-11.2,6.8-17.1,7.7l-1.3.2-.8-1.1-1.3-2,1.8,9.3.5,2.6h-16.9l-.3-1.7-2.2-11.7-4.5,11-.5,1.3h-5.9l-.5-1.3-4.4-10.7-2,11.3-.3,1.8h-16.7l.5-2.5,1.1-6.4h-12.9v-49.1h2.2c-.3-.2-.5-.5-.8-.7-1.5-1.6-2.5-3.7-2.5-6.1s1-4.5,2.6-6.1c1.5-1.5,3.7-2.5,6.1-2.5s4.5,1,6.1,2.5c1.6,1.6,2.6,3.7,2.6,6.1s-1,4.5-2.6,6.1c-.2.2-.5.5-.8.7h2.2v36.6l6.4-36.9.3-1.7h6.6l.5,1.3,9.4,22,9.4-19.8.6-1.2h6.1l.3,1.7,7.1,36.5h.2c.6,0,2-.2,3.6-.6.3-.1.6-.2.8-.2,1.4-.4,2.7-.9,3.7-1.5.7-.5,1.2-.8,1.4-1.2.2-.3.2-.6.2-1h0c0-1.9-3-4.5-5.4-6.6-1-.9-2-1.8-2.7-2.7-2.4-2.8-3.7-5.5-4-8-.3-2.2,0-4.1.9-5.9.8-1.7,2.1-3.3,3.7-4.7,4.1-3.6,10.5-5.8,16.1-6.6l1.5-.2.6,1.4h0ZM104.1,104.9l-.7-1.4-1.5.2c-8.2,1.1-17.4,4.4-23.4,9.6-2.3,2-4.1,4.2-5.3,6.6-1.2,2.6-1.7,5.4-1.3,8.4.5,3.6,2.3,7.5,5.8,11.4,1,1.2,2.4,2.5,4,4,3.7,3.3,8.2,7.3,8.3,10.5h0c0,.9-.1,1.6-.5,2.2-.4.7-1.2,1.5-2.4,2.2-1.6.9-3.7,1.7-5.8,2.4-.5.1-.9.2-1.2.3-2.4.6-4.6,1-5.6,1h-4l2.3,3.3,6.4,9.4.8,1.1,1.3-.2c8.5-1.3,19.3-5,24.8-11.2,1.2-1.3,2.1-2.7,2.7-4.2.6-1.6,1-3.3,1-5,0-8.6-5.5-13.7-10.8-18.5-1.2-1.1-2.4-2.3-3.6-3.4h0c-1.7-1.7-2.9-3.4-3.6-4.8-.6-1.3-.9-2.3-.7-3.3.3-1.6,1.9-3.1,4.4-4.5.5-.3,1.1-.6,1.7-.9.6-.3,1.3-.6,2-.8,1.7-.6,3.6-1.2,5.5-1.6.5-.1.9-.2,1.2-.2.4,0,.8-.2,1.2-.2l2.8-.4-1.2-2.6-4.6-9.6h0Z"/>
    <path id="path11" class="st2" d="M56.2,143.5h8.1v-.7h6.9v3.4c.5,0,1-.1,1.6,0,.3,0,.6,0,.9.2.3,0,.6.2.9.3.6.3,1.1.7,1.5,1.2,0,0,0,0,0,0,1.2-1.1,2.7-1.7,4.3-1.7h.5c1.7.1,3.1.9,4.1,2.2.9,1.2,1.4,2.7,1.4,4.5s0,1.3-.2,2.3h-.5l.2.6.2.8-.5.6c-.7.8-1.5,1.3-2.4,1.6-.8.2-1.6.3-2.4.3h-.2c-1.3,0-2.6-.5-3.6-1.2v.8h-19.6v-8.9h-2.8v-6.3h1.5Z"/>
    <path id="path13" class="st2" d="M163,101.6v-.3c0-.2.1-.5.2-.8.2-.5.6-1,1-1.4.2-.8.7-1.5,1.4-2,.8-.6,1.7-1,2.9-1.2.3,0,.6-.1.9-.1.6,0,1.2.1,1.8.2.6-.3,1.3-.6,2.2-.6h0c.2,0,.5,0,.8.1.3,0,.5.1.8.2,1.4.6,2.4,1.9,2.4,3.4h0c0,1.2-.5,2.2-1.2,2.8-.5.5-1.2.8-1.9,1-.8.9-2,1.6-3.4,1.7v1.9c0,0-.6,0-.6,0v1.3c0,0-.1,1.2-.1,1.2v.8l-.2,5.5v.3l3.4,2.6,1,.8-.3,1.3-.8,3.8-.8,3.5-2.7-2.3-12.9-11.1v1.1c0,0,0,.7,0,.7v1c0,0-.2,3.6-.2,3.6v1.7c0,0-1.7-.1-1.7-.1l-5.7-.2h-1.7c0,0-4.3-.2-4.3-.2h-1.7c0,0,0-1.7,0-1.7v-3.6c.1,0,.2-1,.2-1v-1.5c0,0-12.6,8.2-12.6,8.2l-2.7,1.8-.5-3.3-.5-4-.2-1.3,1.2-.8,3.8-2.3v-.3l1-.6,4.5-2.9v-.4l1-.6,5.1-3.1v-.4c0,0,1-.6,1-.6l6.5-4,1.3-.8,1.2.9,6,4.8.8.7v.5l2.3,1.9v-1.1c0,0-.5,0-.5,0v-1.9c0,0,.1-.9.1-.9v-1.9c0,0,2,.1,2,.1h.5ZM150.8,108.9l-.6-.5-.7.5h1.3Z"/>
    <path id="path15" class="st5" d="M191.6,121.3c1,2.1,2,4.3,3.1,6.4-2,.3-3.9.8-5.5,1.5-3.6,1.3-6,3-6.5,5.2-.3,1.9.9,4,3.3,6.5,3.7,3.8,9.2,7.2,9.2,13.7s-10.4,11-17.9,12.2c-1.5-2.1-2.9-4.2-4.3-6.3,1.6,0,6.4-1,9.2-2.7,2.1-1.2,2.7-2.6,2.7-4.1,0-3.8-6.5-8.1-8.7-10.7-10.4-12,4-20.2,15.4-21.7h0ZM102.6,106.4c1.5,3.2,3,6.4,4.6,9.6-3,.5-5.8,1.2-8.3,2.1-5.4,2-9,4.6-9.6,7.7-.6,2.9,1.2,6.2,4.9,10,5.5,5.7,13.7,10.7,13.7,20.4s-15.4,16.5-26.7,18.4c-2.1-3.1-4.3-6.3-6.4-9.4,2.3,0,9.6-1.6,13.7-4.1,3.1-1.8,4-3.9,4-6.1,0-5.8-9.7-12.2-12.9-16-15.5-18.1,5.9-30.2,23-32.6h0ZM113.1,122h10.8v44.9h-10.8v-44.9h0ZM118.5,106.5c3.6,0,6.5,2.9,6.5,6.5s-3,6.5-6.5,6.5-6.5-3-6.5-6.5,2.9-6.5,6.5-6.5h0ZM134.5,119.9l-9.7,55.9h12.4l3.3-18.6,7.1,17.5h3l7.2-17.7,3.4,18.8h12.6l-10.3-53.5h-3l-11.4,24-11.2-26.4h-3.4Z"/>
    <path id="path17" class="st5" d="M169,102.7c-.1.7-.7,1.2-1.6,1.2s-1.7-.8-1.7-1.5c0-.8.5-1.3,1.2-1.5,0,0,0,.4,0-.2,0-.6,1.6-2.2,3-2.2s1.7.2,2.3.6c.2-.6.8-1,1.6-1s1.7.6,1.7,1.5c0,.8-1,1.5-1.6,1.5s-.3,0-.5,0c-.1,1-1.9,1.8-3,1.8-1,0-.9,0-1.3-.2h0ZM143.9,110.9l5.4.2-.2,4.4-5.3-.2v-4.4h.1ZM149.7,116.3l5.7.2-.2,4.7-5.7-.2.2-4.7h0ZM143.7,116l5.4.2-.2,4.6-5.4-.2.2-4.6h0ZM150,111.1l5.7.2v4.5c-.1,0-5.8-.2-5.8-.2l.2-4.5h0ZM150.8,101.6l-6.4,4v.4l-6.2,3.8v.5c0,0-5.6,3.4-5.6,3.4v.4c0,0-5,2.9-5,2.9l.6,3.9,22.4-14.5,20.9,17.9.9-3.8-4.7-3.6v-.5l-5.3-4.5v-.5l-5.6-4.5v-.5l-6-4.8h0ZM162.8,104l6.6.3v.8h-.6l-.2,4.4-5.5-.2.2-4.4h-.5v-.8h0ZM168.7,110.2l-.2,5.6-5.4-4.6v-1.2c0,0,5.6.2,5.6.2h0Z"/>
    <path id="path19" class="st5" d="M56.5,145.6h9.3v3.3h-2.6v8.9h-3.9v-8.9h-2.8v-3.3h0ZM80.9,150.9c1.1,0,1.3,1.1,1.3,1.3h-2.6c0-.2,0-1.3,1.3-1.3h0ZM85.3,154.1c.2-3.5-1.4-5.9-4.5-5.9s-4.8,1.7-4.8,4.9,2.3,5,5.1,5,3.3-.3,3.7-1.4c-.5-1.5-.6-2.1-.6-2.1-.2,0-1,.6-2.4.6s-1.8-.4-2.2-.9h5.7q0,0,0-.1h0ZM66.1,144.9h4v4c.9-.6,1.9-.8,2.9-.7,1.6.2,2.9,1.3,2.9,3.4v6.2h-3.8v-5.2c0-.5-.5-1-1-1h0c-.6,0-1,.5-1,1v5.2h-4v-12.9h0Z"/>
    <path id="path21" class="st2" d="M193.1,111.8v-1.9h-.7v-.4h1.8v.4h-.6v1.9h-.5ZM194.5,111.8v-2.3h.7l.5,1.7.5-1.7h.7v2.3h-.5v-1.9l-.5,1.9h-.5l-.5-1.9v1.9h-.5Z"/>
    <path id="path23" class="st4" d="M191.1,120.8c1,2.2,2.1,4.3,3.1,6.4-2,.3-3.9.8-5.5,1.4-3.7,1.3-6.1,3.1-6.5,5.2-.3,1.9.9,4.1,3.3,6.6,3.7,3.8,9.2,7.2,9.2,13.7s-10.4,11-17.9,12.2c-1.5-2.1-2.9-4.2-4.3-6.3,1.6,0,6.4-1,9.2-2.7,2-1.2,2.6-2.6,2.7-4.1,0-3.8-6.5-8.2-8.7-10.7-10.4-12.1,4-20.2,15.4-21.8h0ZM102.2,105.8c1.6,3.1,3.1,6.4,4.7,9.6-3,.5-5.8,1.2-8.3,2.1-5.4,2-9,4.5-9.6,7.7-.5,2.8,1.3,6.1,4.9,9.9,5.5,5.7,13.7,10.7,13.7,20.4s-15.4,16.5-26.7,18.3c-2.2-3.1-4.3-6.2-6.4-9.4,2.3,0,9.5-1.6,13.7-4.1,3.1-1.8,4-3.9,4-6.1,0-5.8-9.6-12.2-12.9-16-15.5-18.1,5.9-30.3,23-32.6h0ZM112.7,121.4h10.8v44.9h-10.8v-44.9h0ZM118.1,106c3.6,0,6.5,3,6.5,6.5s-2.9,6.5-6.5,6.5-6.5-2.9-6.5-6.5,3-6.5,6.5-6.5h0ZM134.2,119.4l-9.8,55.8h12.4l3.3-18.6,7.1,17.5h3l7.2-17.7,3.5,18.8h12.6l-10.3-53.4h-3l-11.4,24-11.2-26.4h-3.4Z"/>
    <path id="path25" class="st4" d="M168.7,102.2c-.1.6-.7,1.1-1.6,1.1s-1.7-.7-1.8-1.5c0-.8.5-1.3,1.2-1.4,0-.1,0,.4,0-.2,0-.6,1.6-2.2,2.9-2.2s1.7.2,2.4.6c.2-.6.8-1,1.6-1s1.7.7,1.7,1.5c0,.8-1,1.5-1.6,1.5s-.4,0-.5,0c-.1,1-1.9,1.8-3,1.8-1,0-.9,0-1.3-.2h0ZM143.6,110.3l5.4.2-.2,4.5-5.4-.2.2-4.5h0ZM149.4,115.7l5.7.2-.2,4.6-5.7-.2.2-4.6h0ZM143.4,115.5l5.4.2-.2,4.7-5.4-.2.2-4.7h0ZM149.6,110.6l5.7.2-.2,4.4-5.7-.2v-4.4h.1ZM150.5,101.1l-6.5,4v.4l-6.1,3.8v.4l-5.6,3.4v.4l-5,2.9.5,4,22.4-14.6,20.9,18,.8-3.8-4.6-3.7v-.5l-5.4-4.5v-.5c0,0-5.5-4.4-5.5-4.4v-.5l-6-4.8h0ZM162.5,103.5l6.5.3v.9h-.6c0,0-.1,4.3-.1,4.3l-5.5-.2.2-4.4h-.5v-.9h0ZM168.3,109.6l-.2,5.6-5.4-4.5v-1.3c0,0,5.5.2,5.5.2h0Z"/>
    <path id="path27" class="st4" d="M56.2,145h9.3v3.3h-2.6v8.9h-3.9v-8.9h-2.8v-3.3h0ZM80.5,150.3c1.1,0,1.2,1.2,1.2,1.3h-2.5c0-.2,0-1.3,1.3-1.3h0ZM84.9,153.6c.2-3.5-1.5-5.9-4.5-5.9s-4.8,1.8-4.8,5,2.3,5,5.2,4.9c1.3,0,3.2-.3,3.7-1.3-.4-1.5-.6-2.1-.6-2.1-.3-.1-1,.5-2.4.5s-1.9-.3-2.2-.9h5.7c0,0,0,0,0,0ZM65.7,144.3h3.9v4c.9-.6,2-.8,2.9-.7,1.6.2,3,1.3,3,3.4v6.2h-3.8v-5.2c0-.6-.5-1-1-1h0c-.6,0-1,.4-1,1v5.2h-3.9v-12.9h0Z"/>
  </g>
</svg>