<?xml version="1.0" encoding="UTF-8"?>
<svg xmlns="http://www.w3.org/2000/svg" width="256" height="256" version="1.1" xmlns:xlink="http://www.w3.org/1999/xlink" viewBox="0 0 256 256">
  <!-- Generator: Adobe Illustrator 29.2.1, SVG Export Plug-In . SVG Version: 2.1.0 Build 116)  -->
  <defs>
    <style>
      .st0 {
        fill: #07508e;
      }

      .st1 {
        fill-opacity: .3;
      }

      .st1, .st2, .st3, .st4 {
        fill-rule: evenodd;
      }

      .st5 {
        fill: #26df55;
      }

      .st6 {
        mask: url(#mask);
      }

      .st7 {
        fill: #a1a2a4;
      }

      .st7, .st8, .st9, .st10, .st11, .st12 {
        display: none;
      }

      .st2 {
        fill: url(#_未命名的渐变_32);
      }

      .st3 {
        fill: url(#_未命名的渐变);
      }

      .st13 {
        isolation: isolate;
      }

      .st4 {
        fill: #08589c;
      }

      .st8 {
        fill: #d2d2d2;
      }

      .st9, .st14 {
        fill: #fefefe;
      }

      .st10 {
        fill: #82c569;
      }

      .st11 {
        fill: #fdfefe;
      }

      .st15 {
        mix-blend-mode: multiply;
      }

      .st12 {
        fill: #63ce12;
      }
    </style>
    <linearGradient id="_未命名的渐变" data-name="未命名的渐变" x1="32.6" y1="239.5" x2="213.3" y2="58.4" gradientTransform="translate(0 258) scale(1 -1)" gradientUnits="userSpaceOnUse">
      <stop offset="0" stop-color="#05815d"/>
      <stop offset="1" stop-color="#0c575f"/>
    </linearGradient>
    <mask id="mask" x="17" y="34" width="224" height="138" maskUnits="userSpaceOnUse">
      <g id="mask0_571_13879">
        <path class="st3" d="M104.4,42.4c-4.4-5.3-10.9-8.4-17.8-8.4H29c-6.6,0-12,5.4-12,12v114c0,6.6,5.4,12,12,12h200c6.6,0,12-5.4,12-12v-89.9c0-6.6-5.4-12-12-12h-111.6l-13-15.8Z"/>
      </g>
    </mask>
    <linearGradient id="_未命名的渐变_32" data-name="未命名的渐变 32" x1="17" y1="196" x2="241" y2="48" gradientTransform="translate(0 258) scale(1 -1)" gradientUnits="userSpaceOnUse">
      <stop offset="0" stop-color="#35a4d3"/>
      <stop offset="0" stop-color="#3da8d4"/>
      <stop offset=".2" stop-color="#56b3d9"/>
      <stop offset=".4" stop-color="#7dc6e1"/>
      <stop offset=".5" stop-color="#92d0e6"/>
      <stop offset=".6" stop-color="#75b7d2"/>
      <stop offset=".7" stop-color="#458fb2"/>
      <stop offset=".8" stop-color="#22719b"/>
      <stop offset=".9" stop-color="#0d5f8d"/>
      <stop offset="1" stop-color="#065988"/>
    </linearGradient>
  </defs>
  <g class="st13">
    <g id="_图层_1" data-name="图层_1">
      <path class="st4" d="M104.4,42.4c-4.4-5.3-10.9-8.4-17.8-8.4H29c-6.6,0-12,5.4-12,12v114c0,6.6,5.4,12,12,12h200c6.6,0,12-5.4,12-12v-89.9c0-6.6-5.4-12-12-12h-111.6l-13-15.8Z"/>
      <g class="st6">
        <g class="st15">
          <path class="st1" d="M92.8,74c5,0,9.8-1.6,13.8-4.6l9.9-7.4h112.5c6.6,0,12,5.4,12,12v86c0,6.6-5.4,12-12,12H29c-6.6,0-12-5.4-12-12v-74c0-6.6,5.4-12,12-12h63.8Z"/>
        </g>
      </g>
      <path class="st2" d="M92.8,74c5,0,9.8-1.6,13.8-4.6l9.9-7.4h112.5c6.6,0,12,5.4,12,12v124c0,6.6-5.4,12-12,12H29c-6.6,0-12-5.4-12-12v-112c0-6.6,5.4-12,12-12h63.8Z"/>
      <rect class="st9" x="43.8" y="84.8" width="112.1" height="68.1"/>
      <g>
        <path class="st11" d="M209.5,91.6v94.6H54v-94.6h155.5ZM85.4,108.9c-.9-1.1-3.1-.1-4.3.2-7.1,1.9-17.4,6.9-20.5,13.9s-.4,1.4-.3,2.3c-1,.6-.7,2.8-.5,3.8,1.2,8.9,11.5,13.3,17.2,18.8s2,1.9,2,3.4c-.8,1.7-1.1,1.8-2.8,2.6-4.7,2.2-10.2,2.7-15.2,3.9-.1.2,0,.4,0,.6,0,.7,0,1.5.2,2.2l6,9.5c1.2,1.1,6.1-.2,7.8-.6,6.3-1.4,12.5-3.7,17.8-7.3l.7,2.5,14.3-.5c1-.4.6-2.3.7-3.2,1.7.4,3.5.4,5.2.3l2.8-8.6c.4,0,.3.3.5.6.6,1.5,1.9,7.6,3.2,8s4.3.6,4.9,0l4.8-7.8c.3,2.1.1,4.3.3,6.4s.3,3.1.9,3.4c7.6,1.3,14.1,2,21.7.3,4.9-1.1,10.3-3,13-7.6,9.8,1,19.6,2.3,29.4,3.1s4.5.5,5.2.3.7-.9.8-1.4c.4-2.5,1-7.5,1-9.9s-.2-.7-.3-1.1,0-.7-.5-.9c-1.5-.5-5.3-.5-7.1-.7s-.4-.3-.5-.3c4.7-1.1,8.9-3.7,10.1-8.7s.4-3.2-.2-5.6c-1.5-6.6-7.3-9-13.5-10.6-9.8-2.4-22.6-3.3-28.9,5.9s-.8,2.2-1.7,2.2c-.3-.7-1.9-4.2-2.4-4.3-4.9.9-9.8,2.3-14.1,4.9l-1-12.7c-.9-.2-4.6-1.4-5.2-.9s0,.5,0,.5-.4,0-.5.1l-10.2,15.1c-.4-.2-.4-.6-.6-1-2.2-5.3-3.3-12-5.5-17.3.9.2.7-.5.6-1.1-.2-3.4-3-2.4-3.8-4.3s.5-1.5.4-2.5-2.4-4.1-3.7-4.5-1.7.6-3,0-.8-1.6-1.3-2.4c-.7-1.4-3.5-1.8-4.9-1.6s-1.1.6-1.9.6c-2.5,0-5.6-2.1-8.5-.4s-1.3,1.7-2.9,2.1-2.4-.7-4.4.6c-4.7,2.9.8,5.9-1.4,9.6ZM57.4,145.5c-.2.6-.2.6-.3,1.2s-.3.3-.3.8c0,2.2,1.6,1.2,1.9,1.4s0,3.4.3,4.7-.2.8.2.9c.9,0,1.6-.3,2.5-.3,2.4,0,4.3.4,6.7,0s.6-.5,1-.5.7.5,1.2.7c1.6.4,5.2-.4,4.6-2.3s-1-1.5-.9-1.5.8,0,1.1-.6c.9-1.8-1.7-3.7-3.4-3.8s-2.7,1.2-3.1,1.2-.5-.5-.8-.5c-.3-.8-2.1-.5-2.2-.6s.1-1.7,0-1.9c-.3-.3-6.8.2-7.9,0-.4,0-.4.9-.5,1.3Z"/>
        <path class="st7" d="M91.3,158.8c-4.7,4-14.4,6.9-20.5,7.8-.3-1,.7-.3,1.2-.9.2,0,.4,0,.6,0,4.2-.4,11.2-3,15-5s1-.1.8-.9c0,0,.2,0,.3,0,.9-.3,1.7-.7,2.5-.9Z"/>
        <path class="st8" d="M68,164.1c.9-.2.9,1,1.2,1.6.7,0,2.3,0,2.8,0-.5.6-1.5-.1-1.2.9-.2,0-.4,0-.6,0-.8-.3-.7-.5-.9-.9-1.4,0-.9-.3-1.2-1.6Z"/>
        <path class="st8" d="M81.6,147.4s.5-.2.8.6c1.3,3.3,0,5.7-2.6,7.5.1-2,2.2-1.7,2.4-3.9s-.2-.4-.2-.4c0-.4,0-.8,0-1.2s.3-.2.3-.7-.5-1.7-.6-1.8-.4,0-.6,0c0,0-.2-.2-.3-.3v-.9c1.3.1.7.9.9,1.2Z"/>
        <path class="st8" d="M65.8,133.1c1.5.3,3,2.9,4.1,3.9s1.4,1.3,1.5,1.3c.4.3,1.5,1.2,1.6,1.2.7.4.9.7,1.2.9.6.4.8.6,1.2.9s1.2,1,1.6,1.2c.5.4.8-.5,1.6,1.2h-.9c-.3-.2-.5-.5-.6-.6,0-.2,0-.6,0-.6,0,0-.7,0-.9,0-.3-.2-.5-.5-.6-.6,0-.2,0-.6,0-.6,0,0-.7,0-.9,0-.1,0-.2-.2-.3-.3,0-.2,0-.6,0-.6,0,0-.7,0-.9,0-.1,0-.2-.2-.3-.3,0-.2,0-.6,0-.6,0,0-.7,0-.9,0-.3-.2-.4-.4-.6-.6,0-.2,0-.6,0-.6,0,0-.7,0-.9,0-.1-.1-.2-.2-.3-.3-.2-.3,0-1.2-1.2-.9-1.2-1.1-2.1-1.9-3.1-3.1v-.9Z"/>
        <path class="st7" d="M81.6,147.4c0,0,.6,1.6.6,1.8,0,.5-.3.6-.3.7-.5-.7-.6-1.8-.9-2.5.2,0,.6,0,.6,0Z"/>
        <path class="st7" d="M70.2,138.1c-.8,0-.9-.6-1.2-.9,1.2-.3,1,.6,1.2.9Z"/>
        <path class="st7" d="M78.5,144c.1.3.3.6.3.9-.2-.2-.8-.5-1.2-.9h.9Z"/>
        <path class="st7" d="M77,142.7s0,.4,0,.6c-.1-.1-.5-.3-.9-.6.2,0,.8,0,.9,0Z"/>
        <path class="st8" d="M141.5,142.1c0,.1,0,.2,0,.3s0,.2,0,.3c-.5.8-.7,2.7.3,3.1,0,.3,0,.6,0,.9-.6.7-.5,2.5.3,3.1,0,.3,0,.6,0,.9-.5.7-.6,2.4.3,2.8,0,.4,0,.8,0,1.2-.6.8-.5,2.4.3,3.1,0,.3,0,.6,0,.9l-.6,2.2c-.2,0-.4,0-.6,0,.2-1.3-1.3-.4-1.9-.3s-.4,0-.6,0c.2-1-.5-.5-1.1-.6-1-.2-2.4-.7-3.3,0-.2,0-.4,0-.6,0,0-.4-.3-.9-.3-1.2,1.1.2,7.7,1.3,8.1.9,0-5.7-1.2-11.5-1.2-17.2,0-.2.3-.4.3-.5h.6Z"/>
        <path class="st8" d="M66.4,161.6c.9,0,1.3,1.4,1.6,2.2h-.4c-.8-.7-.9-1.2-1.2-2.2Z"/>
        <path class="st8" d="M69.2,159.2c.3.7-1.1.9-1.7.9s-.4-.3-.5-.3c.5-.4,1.5-.6,2.2-.6Z"/>
        <path class="st8" d="M66.1,159.8c0,.5.2,1,.3,1.6-.9.2-.9-.9-.9-1.5.2,0,.4,0,.6,0Z"/>
        <path class="st8" d="M72,158.5c.1,1.2-.6.4-.9.3.1-.4.6-.3.9-.3Z"/>
        <path class="st8" d="M70.5,158.8c0,0,0,.6,0,.6-.2.2-.6-.3-.6-.3l.6-.3Z"/>
        <path class="st7" d="M120.8,154.8c1-.3.6,1,.9,1.6s.6.2.6.2-.3.9,1.1.6,0-.7.2-.9.5,0,.6,0l-1.2,1.9c-1.5-1-1.9-1.6-2.2-3.4Z"/>
        <path class="st7" d="M125.1,154.8c-.2.3,0,.8-.6.9.2-.5-.4-1.1.6-.9Z"/>
        <path class="st7" d="M141.9,145.8c-1-.4-.8-2.3-.3-3.1.1,1,.2,2.1.3,3.1Z"/>
        <path class="st7" d="M142.8,157.9c-.8-.7-.9-2.3-.3-3.1,0,1,.2,2.1.3,3.1Z"/>
        <path class="st7" d="M142.5,153.6c-.9-.4-.8-2.1-.3-2.8,0,.9.2,1.8.3,2.8Z"/>
        <path class="st7" d="M142.8,161c-.3.5-.5,0-.6,0l.6-2.2c0,.8.4,1.5,0,2.2Z"/>
        <path class="st7" d="M142.2,149.9c-.8-.6-.9-2.4-.3-3.1,0,1,.2,2.1.3,3.1Z"/>
        <path class="st7" d="M83.8,119.8l-.6.3c0,0,0-.5,0-.6.2-.2.6.3.6.3Z"/>
        <path class="st7" d="M134.7,160.1c.9-.7,2.2-.2,3.3,0s1.3-.4,1.1.6c-1.5,0-3-.4-4.3-.6Z"/>
        <path class="st7" d="M139.7,160.7c.6,0,2.1-1,1.9.3-.6,0-1.5.2-1.9-.3Z"/>
        <path class="st7" d="M107.4,157c.5-.5,1.9-.6,1.6.3-.5,0-1.3-.3-1.6-.3Z"/>
        <path class="st8" d="M132.9,144.9c.9-.2.6.5.6,1.1,0,2.7.1,5,0,7.6h-.6c0-.3,0-.6,0-.9s.3-.3.3-.7c0-.9.3-3.3-.6-3,0-.3,0-.6,0-.9.6-.7.3-2.1.3-3.1Z"/>
        <path class="st8" d="M133.5,154.2c.2,0,.6,0,.6,0,0,.1,0,2.8,0,3.3s-.3.7-.3.7h-.6c0-.4,0-.8,0-1.2,0-.8.2-1.8.3-2.8Z"/>
        <path class="st7" d="M132.5,148.9c1-.4.7,2.1.6,3s-.3.7-.3.7c-.6-.9-.2-2.5-.3-3.7Z"/>
        <path class="st7" d="M133.5,153.6c0,.2,0,.4,0,.6,0,1-.3,2-.3,2.8-.5-.8-.4-2.4-.3-3.4h.6Z"/>
        <path class="st7" d="M62.7,128.2c.9-.3.6.9.9,1.7l-.2.2c-.3-.8-.4-1-.6-1.9Z"/>
        <path class="st8" d="M88.5,159.8c.2.8-.4.6-.8.9-3.8,2-10.8,4.6-15,5-.2-.9.4-.6,1-.7,5.6-1.3,9.6-3.1,14.9-5.2Z"/>
        <path class="st10" d="M172.3,145.5c0-.1-.3-.2-.3-.3v-.6c0-.1.2-.2.3-.3,0,.4,0,.8,0,1.2Z"/>
        <path class="st12" d="M172,145.2c0,0-.4,0-.3-.5s.3-.1.3-.2v.6Z"/>
        <path class="st12" d="M172.3,144c0-.2.2-.2.3-.3l-.3.3Z"/>
        <path class="st10" d="M192.8,154.2l-.3-.3c.2,0,.3.3.3.3Z"/>
      </g>
      <g>
        <path class="st9" d="M182.6,121.2l-1.7.2v.8h1.7v-1ZM71.8,132.7c.3.5,1.7-.2,2,.5.3,1-.3,5.3.3,5.9,0,0,1.8.4,2,.4.6,0,1.4-.3,2-.4,1.2,0,2.7,0,4,0,1.1,0,3,.2,4,0,.3,0,0-.6.2-.6,1.2.8,2.5,1,3.9.8.3,0,2.6-.9,2.7-1,.1-.2-.2-1-.2-1.3,0-.5.4-.8.4-1.2,0-.4-.4-1-.1-1.4.9-1.2,3.2,1.6,3.3,2.6,0,1.5-3.5,3.2-4.7,3.6-4.7,1.8-10.4,2.4-15.4,3.4l.2.6,8.2,12.9c.1.3.5,0,.6.1,0,0,.1.3.3.4.4.1.8,0,1.2,0,4.9-.4,13.1-2.9,17.7-4.9,1.4-.6,3.7-2.2,4.8-2.5.6-.2,1,0,1.5.1,0,1.1-1.4,1.9-1.9,2.7-1.9,2.8-1.9,6.2-2.5,9.4,0,.2.6,0,.8.1,0,.5.3.6.7.7,1.5.5,3.5.3,5,.6.4,0,.7,0,.6.6-5.8,3.5-9,9.7-10,16.2,0,.5-.5,3.8-.4,3.9,0,.2.5,0,.6.1,0,0,0,.4.2.5.6.6,2,.6,2.9.7,15.3,2,30.8,2.7,46.2,4.6,1.5-.1,1.6-1.4,1.8-2.6.5-3,1-7.9,1.1-10.9,0-.9-.2-.9-.4-1.4,0-.3.2-.9-.3-1l-6.6-.7c0-.4.2-.5.4-.7.8-.6,2.2-1.1,3.1-1.7,6.8-4.4,7.1-14.4,1.4-19.9l11.9,1.1-.2-3.8c8.1-.7,22.8-4,21.7-14.8-.6-5.7-7.6-8.7-11.3-12,0-1.2,1.8-1.6,2.8-1.9,1.4-.5,4.5-.6,5-2,.3-.8,0-.8-.3-1.5-1.6-3.3-3.9-6.5-5.5-9.7-3.9.4-7.8,1.4-11.5,2.9-.6.2-3.4,1.9-3.8,1.6l-.7-9.4-6.1-.8-.6.2-10.4,14.8-5.8-18.6c-.4-.6-5.7-.6-6.7-1l-5.4,15.5-6.9.2c2.1-4.1,4.5-8,6.4-12.2l-7.5-15.6h75.3v144.8h-126.3V85h50.6c0,.8-.6,1.6-.9,2.3-2.1,4-4.5,7.9-6.7,11.8-.8,1.3.1,2.5.7,3.8.2.5.5,1.1.7,1.6l-1.1.6c-1.4-2.6-7.1-10.8-7.7-12.3,0-.2-.2-.2-.4-.2-.7,0-4.9,1.3-5.9,1.6-8.6,2.7-21.3,8.9-20.8,19.6.3,5.2,5.5,10.3,9.3,13.5,1.2,1,3.2,2.2,4.2,3.1.3.3.6.6.5,1-1.5,0-3,0-4.1,1.3-.4.1-.3-.4-.6-.6-.9-.8-2.1-.6-3.3-.6v-2.7c-1.1.2-2.7-.2-3.6,0-.2,0,0,.6-.2.7-1.1.2-5.8-.3-6.4,0-.3.2-.3,3-.1,3.3ZM170.1,213.5c8.2-1.4,9.5-12.9,2.3-16.5-1-.5-2.2-.8-3.4-.9h-79.9c-11.6,1.9-9.2,17.8,2.1,17.6,26.3-.1,52.6.3,78.9-.2Z"/>
        <g>
          <path class="st0" d="M171.8,136.5c-.7,2.9-6.8,4.1-9.3,4.4h-1.4c0,0-1.1-15.9-1.1-15.9,2.6,3.7,6.9,5.4,10,8.3.9.8,2.1,1.9,1.8,3.2Z"/>
          <path class="st14" d="M170.7,145.4c-.9.2-4.9,1-5.4.7-.3-.1-2.5-4.5-2.8-5.2,2.5-.3,8.6-1.5,9.3-4.4.3-1.3-.9-2.4-1.8-3.2-3.1-2.8-7.5-4.6-10-8.3l1.1,16,.6,8.7-10.3-1.1-1-16.3-8.8,14h-2s-4.6-15.4-4.6-15.4l-.5-.3-5.1,15.4-5.6-.6v2.3l-10.3.4-.6-6.3c-1.3,2.5-3.9,4.3-6.3,5.7-6.1,3.5-13.4,5.2-20.3,6.4l-5-7.7c3.8-.7,7.7-1.4,11.4-2.8,16.5-6.3-1.8-15.4-7.6-20.8-15.2-14.2,3.7-23.5,16.4-26.7,1.3,2.2,3.2,4.5,4.4,6.7.2.4.4.7.4,1.2-8.4,1.9-16.8,6.7-7.7,15,4.3,3.9,9.8,6.6,13.6,11.2l-1-13.8,12.3-.6.2,15.7,10.4-30.9,2.1.4,7.2,23,13.1-18.8c.3-.1,2.1,0,2.2.3l1,13.7,1.9-2.4c4-3.3,9.1-5.1,14.2-5.9,1,1.6,1.9,3.3,2.7,5,.1.2.6.1.4.8-2.2.5-4.8,1.2-6.6,2.5-1.1.8-1.9,1.5-1.5,2.9,1,3.9,12.1,7.7,12.9,12.4,1.1,6.9-7.7,9.8-13,10.9Z"/>
          <path class="st5" d="M138.8,150.7c2.3,0,6.1,2.2,7.9,1.8.4,0,.7-.1.6-.6,5,2.5,8.5,7,6.3,12.8-3.3,8.7-19.6,6.8-27.2,8.2-1.2.2-3.3.7-3.7,2l29.1,3-.8,8.8-44.3-4.6c.5-5.8,3.1-11.2,8.2-14.3,3.5-2.1,7.6-2.9,11.6-3.4,3.3-.4,7.7-.4,10.8-1.2,1.9-.5,2.9-2.7,1.4-4.2-1.7-1.7-7.4-2.1-9.6-1.5-2,.5-3.3,1.9-3.6,3.9l-14.6-1.3-.6-.2c.1-1.9.9-3.4,1.9-5,.3.4.6.5,1,.3.6-.3,2.2-2.4,2.9-2.9.5-.4,2.9-1.6,3.5-1.6.4,0,.8.2,1.2.2,6.1,0,12.2-.3,18.2-.2Z"/>
          <path class="st0" d="M115.3,101.8c-.4-.7-1.5-.7-2-1.3.4-.2,1.7.3,1.9.2.3-.2,1.2-3.8,1.5-4.5.1-.3,0-.6.4-.7,0,1.4-.6,3.2-.6,4.5,0,.2.1.7.3.7h3c-.2-1.6-.3-3.2-.6-4.8,0-.4.3-.4.4-.3.5.5.9,4.7,1.6,5,.5.2,1.5-.2,1.7.2-.6.2-1.7.4-2.1,1-.8,1.2-1.2,4.1-1.9,5.5-.4,0-.2-.5-.2-.7.2-1,1-3.8,1-4.5,0-.2-.2-.5-.3-.5h-3c-.3,1.6.5,3,.6,4.5,0,.2.2,1-.2.9-.6-1.4-.8-4.3-1.6-5.4Z"/>
          <path class="st5" d="M117.7,111.2l-4.9-10.4.5-.2c.4.6,1.6.6,2,1.3.7,1.2,1,4,1.6,5.4.4,0,.2-.7.2-.9-.1-1.5-1-2.9-.6-4.5h3c.1,0,.3.3.3.5,0,.7-.8,3.5-1,4.5,0,.2-.2.7.2.7.7-1.4,1.1-4.4,1.9-5.5.4-.6,1.4-.8,2.1-1l.4.2-5.2,9.8-.5.3Z"/>
          <path class="st5" d="M113.3,100.5l-.5.2-.2-.3c1.8-3.3,3.4-7.2,5.4-10.3.1-.2,0-.4.5-.3,1.4,3.8,3.7,7.2,5,11l-.2.3-.4-.2c-.3-.5-1.2,0-1.7-.2-.7-.3-1.1-4.5-1.6-5s-.4-.2-.4.3c.3,1.6.4,3.2.6,4.8h-3c-.2,0-.3-.5-.3-.7,0-1.3.7-3.1.6-4.5-.4,0-.3.4-.4.7-.3.7-1.2,4.3-1.5,4.5-.2.1-1.4-.4-1.9-.2Z"/>
          <path class="st5" d="M138.8,150.7c-6,0-12.2.2-18.2.2-.4,0-.8-.2-1.2-.2-.6,0-2.9,1.2-3.5,1.6-.8.6-2.4,2.7-2.9,2.9-.4.2-.8,0-1-.3,6.1-9.9,26.4-7.3,35.4-2.9.1.4-.2.5-.6.6-1.8.3-5.6-1.8-7.9-1.8Z"/>
          <path class="st0" d="M88.2,133.9c1.1-.9,2.1.5,1.7.9,0,0-2,.3-2.1.2-.2-.2.1-.9.4-1.1Z"/>
          <path class="st14" d="M88.2,133.9c-.3.2-.7.9-.4,1.1,0,0,2-.1,2.1-.2.4-.4-.5-1.8-1.7-.9ZM86,134.5c.3-2.1,3.7-2.9,5.1-1.5.6.6,1,1.8.9,2.7-.8,0-1.7.1-2.5.3-.4,0-1.5,0-1.4.5,1,1.7,3,0,3.4.1.3,0,.4,1.3.3,1.4,0,0-2.3.6-2.6.7-2.4,0-3.6-1.8-3.2-4.1Z"/>
          <path class="st14" d="M79,138.2c0-2.9.4-5.7.2-8.6h2.1v3.4c.9-.8,2.9-1,3.7,0,1.1,1.5,0,3.7.3,5.4-3.2.3-1.8-1.1-1.9-3,0-2.2-2.3-1.4-2.3-.2v3h-2.1Z"/>
          <path class="st14" d="M72.5,130.4c.4-.3,5.2-.2,6.1-.2.7,2.4-1.6,1.4-1.9,1.7-.2.2.2,5.5.2,6.3l-2.1.2-.2-6.5h-2.1c0-.3,0-1.4,0-1.5Z"/>
          <path class="st0" d="M112.7,100.4l.2.3,4.9,10.4.5-.3,5.2-9.8.2-.3c-1.3-3.8-3.6-7.2-5-11-.5-.1-.3,0-.5.3-2,3.1-3.6,7-5.4,10.3ZM128.8,157.5c2.3-.6,7.9-.2,9.6,1.5,1.5,1.5.5,3.7-1.4,4.2-3.1.8-7.5.7-10.8,1.2-4,.5-8.1,1.3-11.6,3.4-5.1,3.1-7.6,8.5-8.2,14.3l44.3,4.6.8-8.8-29.1-3c.4-1.3,2.5-1.8,3.7-2,7.6-1.4,23.9.6,27.2-8.2,2.2-5.8-1.2-10.3-6.3-12.8-8.9-4.4-29.3-7-35.4,2.9-1,1.6-1.7,3.1-1.9,5l.6.2,14.6,1.3c.3-2.1,1.6-3.4,3.6-3.9ZM165.3,146.1c.5.3,4.5-.5,5.4-.7,5.3-1.1,14-4,13-10.9-.7-4.7-11.9-8.6-12.9-12.4-.4-1.4.4-2.1,1.5-2.9,1.8-1.4,4.4-2.1,6.6-2.5.2-.6-.3-.6-.4-.8-.8-1.7-1.8-3.4-2.7-5-5.1.8-10.2,2.6-14.2,5.9l-1.9,2.4-1-13.7c0-.3-1.8-.4-2.2-.3l-13.1,18.8-7.2-23-2.1-.4-10.4,30.9-.2-15.7-12.3.6,1,13.8c-3.8-4.6-9.3-7.2-13.6-11.2-9.1-8.3-.6-13,7.7-15,0-.5-.2-.8-.4-1.2-1.1-2.2-3.1-4.6-4.4-6.7-12.7,3.1-31.6,12.5-16.4,26.7,5.8,5.4,24.1,14.4,7.6,20.8-3.6,1.4-7.5,2.1-11.4,2.8l5,7.7c6.9-1.2,14.2-2.9,20.3-6.4,2.4-1.4,5-3.2,6.3-5.7l.6,6.3,10.3-.4v-2.3l5.6.6,5.1-15.4.5.3,4.6,15.4h2s8.8-14,8.8-14l1,16.3,10.3,1.1-.6-8.7h1.4c.3.6,2.5,4.9,2.8,5.1ZM91.1,133c-1.4-1.4-4.8-.6-5.1,1.5-.4,2.3.8,4.1,3.2,4.1.3,0,2.5-.6,2.6-.7.2-.2,0-1.4-.3-1.4-.5,0-2.5,1.6-3.4-.1,0-.5,1.1-.4,1.4-.5.8-.1,1.7-.3,2.5-.3,0-.8-.3-2.1-.9-2.7ZM79,138.2h2.1v-3c0-1.2,2.3-2,2.3.2,0,1.9-1.4,3.3,1.9,3-.3-1.7.8-4-.3-5.4-.7-1-2.8-.8-3.7,0v-3.3h-2.1c.2,2.9-.2,5.7-.2,8.6ZM78.6,130.2c-.9,0-5.7-.1-6.1.2,0,0,0,1.2,0,1.5h2.1l.2,6.5,2.1-.2c0-.8-.4-6.1-.2-6.3.3-.3,2.5.7,1.9-1.7ZM71.8,132.7c-.2-.3-.2-3.1.1-3.3.6-.4,5.2.1,6.4,0,.2,0,0-.6.2-.7,1-.2,2.6.2,3.7,0v2.7c1.2,0,2.3-.2,3.3.6.3.3.2.8.6.6,1-1.2,2.6-1.3,4.1-1.3,0-.4-.3-.8-.5-1-.9-1-3-2.2-4.2-3.1-3.8-3.2-9.1-8.3-9.3-13.5-.5-10.7,12.1-16.9,20.8-19.6,1-.3,5.2-1.6,5.9-1.6.2,0,.3,0,.4.2.6,1.5,6.3,9.6,7.7,12.3.2.4.3.7.3.8,0,.2-.3.3-.4.3-3.5.8-7.6,1.7-10.7,3.6-2.1,1.3-3,1.8-1.8,4.1s4.4,4.4,6.6,6.2l3.4,2.3-.6-9,8.6-.4c-1.2-2.9-2.9-5.7-4.2-8.6-.3-.5-.5-1.1-.7-1.6-.6-1.3-1.5-2.5-.7-3.8,2.2-3.9,4.6-7.8,6.7-11.8.4-.7.9-1.5.9-2.3h.4l7.5,15.6c-1.9,4.2-4.3,8.1-6.4,12.2l6.9-.2,5.4-15.5c1,.4,6.3.4,6.7,1l5.8,18.6,10.4-14.8.6-.2,6.1.8.7,9.4c.3.3,3.2-1.3,3.8-1.6,3.7-1.5,7.6-2.5,11.5-2.9,1.6,3.3,3.9,6.5,5.5,9.7.3.7.6.7.3,1.5-1.3.3-8.3,2-8.8,2.7-.4.7.8,1.1,1,1.2,3.7,3.3,10.7,6.4,11.3,12,1.1,10.8-13.7,14.1-21.7,14.8l.2,3.8-11.9-1.1c5.6,5.5,5.4,15.5-1.4,19.9-.9.6-2.4,1.1-3.1,1.7-.2.2-.5.3-.4.7l6.6.7c.5.2.2.8.3,1l-1.5,14-50.2-5c-.1,0-.6.1-.6-.1,0-.2.4-3.4.4-3.9,1-6.6,4.2-12.8,10-16.2,0,0,.4,0,.6-.1l1.5-.9c-2.8-.3-5.6-.4-8.4-.8-.2,0-.8.1-.8-.1.7-3.2.6-6.6,2.5-9.4.5-.7,1.9-1.6,1.9-2.7,0-.5-.3-1.2-.3-1.7-7.5,5-16.5,6.9-25.2,8.6-.1,0-.5.1-.6-.1l-8.2-12.9-.2-.6c5-.9,10.6-1.5,15.4-3.4,1.2-.5,4.8-2.2,4.7-3.6,0-1-2.4-3.8-3.3-2.6-.3.4.1,1,.1,1.4,0,.5-.4.7-.4,1.2,0,.4.3,1.2.2,1.3,0,.1-2.3,1-2.7,1-1.5.2-2.7,0-3.9-.8-.2,0,0,.6-.2.6-.9.2-2.9,0-4,0-1.3,0-2.7,0-4,0-.7,0-1.4.4-2,.4-.2,0-1.9-.3-2-.4-.6-.6,0-4.9-.3-5.9-.2-.7-1.6,0-2-.5Z"/>
        </g>
      </g>
    </g>
  </g>
</svg>