<?xml version="1.0" encoding="UTF-8"?>
<svg id="_图层_1" data-name="图层_1" xmlns="http://www.w3.org/2000/svg" width="256" height="256" version="1.1" xmlns:xlink="http://www.w3.org/1999/xlink" viewBox="0 0 256 256">
  <!-- Generator: Adobe Illustrator 29.2.1, SVG Export Plug-In . SVG Version: 2.1.0 Build 116)  -->
  <defs>
    <style>
      .st0 {
        fill: #badc3b;
      }

      .st1 {
        fill-opacity: .3;
      }

      .st1, .st2, .st3 {
        fill-rule: evenodd;
      }

      .st4 {
        fill: #628292;
      }

      .st5 {
        fill: #4284ce;
      }

      .st6 {
        fill: #abadb1;
      }

      .st7 {
        fill: #d3d3d5;
      }

      .st8 {
        fill: #81c74a;
      }

      .st9 {
        fill: #2d4996;
      }

      .st10 {
        fill: #110638;
      }

      .st11 {
        fill: #4ba84a;
      }

      .st12 {
        fill: #233776;
      }

      .st13 {
        fill: #1c5c32;
      }

      .st14 {
        fill: #bdde6b;
      }

      .st15 {
        fill: #ececed;
      }

      .st16 {
        fill: #2b7f40;
      }

      .st17 {
        fill: #fefefe;
      }

      .st18 {
        fill: #f7faab;
      }

      .st2 {
        fill: #28723f;
      }

      .st3 {
        fill: url(#_未命名的渐变_2);
      }
    </style>
    <linearGradient id="_未命名的渐变_2" data-name="未命名的渐变 2" x1="17" y1="572" x2="241" y2="720" gradientTransform="translate(0 -510)" gradientUnits="userSpaceOnUse">
      <stop offset="0" stop-color="#c3d656"/>
      <stop offset="1" stop-color="#caeac0"/>
    </linearGradient>
  </defs>
  <path class="st2" d="M104.4,42.4c-4.4-5.3-10.9-8.4-17.8-8.4H29c-6.6,0-12,5.4-12,12v114c0,6.6,5.4,12,12,12h200c6.6,0,12-5.4,12-12v-89.9c0-6.6-5.4-12-12-12h-111.6l-13-15.7Z"/>
  <path class="st1" d="M92.8,74c5,0,9.8-1.6,13.8-4.6l9.9-7.4h112.5c6.6,0,12,5.4,12,12v86c0,6.6-5.4,12-12,12H29c-6.6,0-12-5.4-12-12v-74c0-6.6,5.4-12,12-12h63.8Z"/>
  <path class="st3" d="M92.8,74c5,0,9.8-1.6,13.8-4.6l9.9-7.4h112.5c6.6,0,12,5.4,12,12v124c0,6.6-5.4,12-12,12H29c-6.6,0-12-5.4-12-12v-112c0-6.6,5.4-12,12-12h63.8Z"/>
  <g>
    <path class="st11" d="M134.2,89.1c.5,0,.4.4.5.7.3.4.8.7,1,1.1,1.2,1.6,2.7,4.7,3,6.6s.3,4.3,1.6,6.9.5.6.5.8c0,.3,0,.8,0,.9s.9.8,1,.9c.8.7,1.7,1.1,2.7,1.4s.3,0,.5,0c1.6,3.1,3.2,6.3,4.8,9.5s.1.4.2.5c-.2,0-.3,0-.4-.1-.3-.4-.5-1.1-.7-1.5-1.4-2.4-3.1-2.3-5-3.8s-1-.9-1.4-1.3-.6-.8-.7-.9c-.2,0,0,0,0,.2,0,.6.4,1.2.5,1.7s0,.2-.2.2c-.1-.5-.2-1.1-.4-1.5s-.4-.6-.4-.6c-.2-.1-.1.3-.3.2,0-.6-.3-1.2-.5-1.8h-.2c.3,1.3.7,2.5,1.1,3.7-.3.2-.8,0-1,0s0,.5-.4.5l-.3-2.9h-.2c0,0,.3.8,0,.9-1.3-5.3-2.6-10.7-3.9-16l.4.9c0,.5.9,2.9,1.1,3.6s.5,1.1.6,1.8l.2-.8c-.6-1.3-.7-3.2-1.4-4.4-.1-.2,0-.5-.1-.8-.4-2.1-1.3-4.5-2-6.6Z"/>
    <path class="st13" d="M115.4,156.7c1.3,0,2.6,0,3.9,0,.1,0,0,.2,0,.3.5,0,1.5,0,2,0,0,.3.2.5.3.8s0,.2,0,.3c-.1-.2-.2-.5-.5-.3.6,2.6,1.4,5.2,2.3,7.8s1.3,4.3,2.1,6.2,0,.2.2.2l-4-13.5c0-.1,0-.3,0-.4,0,.1.1.2.2.3,1,2.4,1.8,5.5,2.7,8s.6,1.8.9,2.8c.6,1.7,1,3.3,1.5,5s.7,2.2,1,3.3c0,.1.1.1.1,0,0-.7-.5-1.6-.6-2.3s0-.9-.1-1.3-.2,0-.2-.1c0-.3.2-.3.2-.3,0-.3-.3-1.2-.3-1.6s0-.3.2-.3c.2.6.3,1.1.5,1.7,1,3.4,1.8,6.8,2.8,10.2s0,0,0,0c0,.1,0,.3,0,.4l-.3-.2c-.5-1.7-1.1-3.3-1.7-4.9s-.2-.7-.3-1-.2-.1-.1,0c0,.3.3.8.3,1s-.1.2-.1.3.3.6,0,.6c0-.1,0-.3,0-.4h0s0,.4,0,.4c0,0,.1,0,.2,0,.2.8.4,1.6.7,2.3-.4-.1-.6-.4-1-.2-2.7-5.4-5.4-10.9-8.1-16.3,0-.1.2,0,.3,0s.4-.5.4-.5c0-.2-.4-.3-.3-.6s.6-.4.7-.6-.2-.3-.1-.5c0-.6.6-1.4.7-2.1.2-1.2,0-2-1-2.7s-1-.5-2.1-.6-1.6-.4-2.6-.2c-.1-.2-.2-.4-.3-.7s0-.2,0-.3Z"/>
    <path class="st16" d="M126.9,96.9c-.7,2.5-1.5,5.1-2.2,7.6h-.3c-.8,2.3-1.6,4.5-2.2,6.7s-1.2,4-1.5,5.8,0,.5-.1.8c-1.9,0-3.8,0-5.7,0,0-.2.1-.5.2-.6.3-.7.8-1.5,1.2-2.2,2.3-4.9,4.7-9.7,7-14.6.6,0,.6,1,1.1,1.2s.6-.5.7-.7c.9-1.4,1.1-2.5,1.6-4s0-.3.2-.2Z"/>
    <path class="st5" d="M82.6,136.2v2.2c.5-.1.8,0,1.3,0,.8.2,1.5.6,1.8,1.4.3-.2.5-.5.8-.8.6-.4,1.3-.6,2-.7s1,0,1.3,0c.5,0,1.5.7,1.9,1s1.3,1.6,1.3,1.9c-.3.3-1.6.8-1.7,1.1s.3.5.4.7c.2.3.5.6.7.9s.4.7.4.8c-2,1.8-4.8,2.4-6.9.6-.1.7.2.6-.5.7s-1.9.3-2.8.3-.3-.2-.4-.3-2.7.3-3.3.3c0-1.8,0-3.6,0-5.4s0-.9,0-.9h-.4c0,.3,0,.6,0,.9,0,1.7,0,3.3,0,5l-3.8.4c0-1,0-2,0-3.1s0-.5,0-.8c0-.5,0-1.1,0-1.6s0,0,0-.2c0-.2,0-.5,0-.7h-2.4c.1-1.1.8-2.4.9-3.5,0,0,.1-.1.5-.2,1.7,0,3.5,0,5.1,0s2.2-.3,3.2-.3.2,0,.3,0ZM82.3,136.3c-2.8.5-5.7.3-8.5.3l-.8,3.2h2.3v6.3l3.1-.3c0,0,.2,0,.2-.1v-5.9h.9v6.3l3.3-.4c0,0,0,.3,0,.3.1.1,2.7-.3,3-.3v-1.1c.3,0,.5.4.6.5,1.3,1.1,3,1.2,4.6.6s1.1-.7,1.7-1l-1.6-2.4c.3-.2,1.8-1,1.7-1.2s-.6-1-.8-1.1c-1-1.1-2.2-1.5-3.7-1.3s-2,.8-2.7,1.7c-.4-1.5-1.9-2-3.3-1.6v-2.3Z"/>
    <path class="st13" d="M129.1,90.4c-.9,2.3-1.6,4.1-2.3,6.4-.2,0-.2.1-.2.2-.5,1.5-.8,2.6-1.6,4s-.5.8-.7.7c-.5-.2-.5-1.2-1.1-1.2,2-4.1,4-8.3,5.9-12.4.8.7.2,1.5,0,2.3Z"/>
    <path class="st11" d="M149.6,157.1s0,0,0,0,0,0,0,0c-.2.2-.3.8-.4,1s-.1,0-.2,0c0,0-.2,0-.3,0-1.4.7-2.1,3.2-2.5,4.7s-.4,1.3-.4,1.9c-1,2-1.9,4.1-2.9,6.1,0,0,0,0,0-.2s.2-.7.2-.7-.4.2-.7-.4c1.1.7.4-.7.4-.8s.2,0,.4-.3c.5-1.1.3-2.7,1.2-3.6.2-.9.3-1.7.6-2.6s.4-.9.5-1.2c.3-.7.3-1.4.8-2s.8-.9,1-1,1-.5,1.4-.6.5-.3.6-.5c.1,0,.2,0,.3,0Z"/>
    <path class="st16" d="M130.2,88c0,.1-.1.6,0,.6,0,0,.3,0,.2.1l-5,19.6c0,0,0,.2,0,.3s0,0,0,0c-.4.8-.5,1.8-.8,2.6s-.1.2-.1,0c0-.3.2-.6.2-.9.1-2.5,1.3-5,1-7.6l3.4-12.3c.3-.8.9-1.6,0-2.3,0-.1,0-.3.2-.4.2,0,.2,0,.2-.3,0-.2.2-.4.3-.6.1,0,.4.5.4.6s0,.5,0,.5ZM130.1,88.7h0c0,0,0,0,0,0Z"/>
    <path class="st16" d="M119.9,165.6c-.5-1.1-1.1-2.1-1.6-3.2.3-.1.6-.5.6-.8s0-.3,0-.4c.1-.5.4-1.1.4-1.5,0-1.3-2.2-1.8-3.3-1.8,0,0,0,0,0,0,0,0,0-.2,0-.3.9-.1,1.7.1,2.6.2s1.1,0,2.1.6,1.2,1.5,1,2.7-.6,1.6-.7,2.1.2.4.1.5-.6.5-.7.6c0,.3.4.4.3.6s-.4.5-.4.5c-.1,0-.3,0-.3,0Z"/>
    <path class="st16" d="M130.6,183.8c0,.3.2.5.3.8s0,.2,0,.3c0,0,0,0,0,0s-.2-.2-.2,0c0,.4.3,1.1.5,1.5.4,1.1.8,2.4,1.2,3.5s.2.9.3,1.3c-1.6-3.1-3.1-6.3-4.7-9.5.4-.2.6,0,1,.2-.3-.8-.5-1.5-.7-2.3,0,0-.1,0-.2,0v-.4s0,0,0,0c0,.1,0,.3,0,.4.2,0,0-.5,0-.6s.1-.2.1-.3c0-.2-.3-.7-.3-1s0-.2.1,0c.2.3.2.7.3,1,.6,1.6,1.3,3.2,1.7,4.9l.3.2Z"/>
    <path class="st11" d="M118.3,162.4c-.4-.9-1.1-2.4-1.6-3.1s-.2-.1-.2-.1c0,0-.2-.5-.3-.7s0-.3-.2-.5c1,0,3.3.5,3.3,1.8s-.3,1.1-.4,1.5,0,.2,0,.4c0,.3-.4.7-.6.8Z"/>
    <path class="st0" d="M143.5,105.1c0,.1-.3,0-.4,0-.8-.4-1.2-.8-1.6-1.5-.8-1.3-1-2.7-.8-4.1.9,1.9,1.8,3.8,2.8,5.7Z"/>
    <path class="st16" d="M149.2,157.1c0,.2-.4.4-.6.5-.3.2-1.2.5-1.4.6s-.8.8-1,1c-.5.6-.6,1.3-.8,2s-.4.8-.5,1.2c-.3.8-.4,1.7-.6,2.6-.9.9-.7,2.5-1.2,3.6s-.3.2-.4.3c0,0,.7,1.5-.4.8,0-.2-.3-.8-.5-.9s-.1,0-.1,0-.1,0-.2,0c0-.1.2,0,.2-.3s-.2-.2-.2-.4c0-.3.2-.6-.5-.5.3-.5.5-.7.7,0h0s0,0,0,0c.3.2.3-.6.3-.7.1-.5.9-2.2.9-2.5s-.2-.1-.2-.1c0,0,.2-.5.2-.7.2-1.2.3-2.3.6-3.5s.8-1.6.6-1.8-.3,0-.2-.1.6-.6.9-.6c.4,0,.3.2.4.2.2,0,1.4,0,1.6,0s1.1-.4,1.1-.7c.4,0,.9,0,1.2,0ZM142.3,168.1l-.3-.3c0,.3,0,.3.3.3ZM142.8,168.8c0-.3-.2-.5-.4-.6,0,.3.2.5.4.6Z"/>
    <path class="st16" d="M142.4,169.6c.3.6.6.3.7.4s-.1.6-.2.7,0,.2,0,.2c-.2.9-1.9,4.1-2.4,5.2s0,.3-.2.3c.2-1.9,1.1-3.7,1.6-5.5s0-.5,0-.7.4-.4.3-.7c0,0,.1,0,.2,0Z"/>
    <path class="st8" d="M149.1,158.2c0,.1,0,.4,0,.5-.1.2-.4.6-.5.9-.8,1.8-1.7,3.5-2.6,5.3,0-.6.2-1.3.4-1.9.4-1.4,1.1-4,2.5-4.7s.2,0,.3,0Z"/>
    <path class="st11" d="M131.6,83.9c-.4,1.4-.8,2.8-1.3,4.1,0,0,0-.5,0-.5,0-.1-.3-.5-.4-.6.7-1.5,1.3-3.1,2.2-4.4-.1.5-.3,1-.4,1.4Z"/>
    <path class="st11" d="M133.7,190.2c0,.2-.6,1.6-.8,1.7s-.3-.5-.3-.5c-.1-.4-.2-.9-.3-1.3l.2-.3c0,0,0,.1,0,.2-.2.2,0,.6.2.8l.3.8c0-.3.4-.7.4-1s-.2,0-.2,0c0-.2.4-.5.4-.9h.2c0,.2-.2.4-.2.6s0,.1,0,.1Z"/>
    <path class="st5" d="M182.7,107.3c0,.2.1.2.2.2,1.6.8,2.9,2,3.8,3.5s1.5,4.1,1.3,6.3-.2,1.1-.3,1.6-.8,1.6-.8,1.7.4.6.5.7.2,0,.2,0c1.5,2.2,1.6,4.2,1.6,6.7-.2.8-.3,1.5-.6,2.3-2.1,5.8-8.9,7.7-14.5,6.7l1.7,2.3c.1.5.5,1,.6,1.4s0,.1,0,.2,0,0,0,0c.3,1.3.2,2.5.2,3.8-.7,3.4-2.8,5.6-5.7,7.2-4.5,2.5-9.5,3.4-14.5,3.9-.5.2-.7-1-.9-1.1h-10.4s-.8-5.1-.8-5.1l-2.5,5.1h-5.6s-2.2-4.9-2.2-4.9l-.9,4.9h-13.6s0-.2,0-.2h-8.8c0,0,.1-.9-.1-.8s-1.1.7-1.5.9c-5.8,3.2-12.5,4.6-19,5.8l-7.4-11.3c.2-.2.6-.2.8-.3,1.4-.3,2.7-.5,4.1-.8s.3,0,.4,0c.2.2.4,0,.3.4-.3,0-.6.1-.9.2-1.2.2-2.8.4-3.9.8s-.1,0-.1.1l6.8,10.4c6.3-1.1,12.9-2.5,18.5-5.6s1.4-.9,2.1-1.3.2-.1.3,0v1.2h8.9s0,.3,0,.3h12.8s.9-6,.9-6l2.7,6h5s2.8-6.2,2.8-6.2l.2.2.9,6h10.2c.4,0,.6,1,.7,1.1.3.2,4.8-.6,5.4-.7,5.2-1,13.2-3.6,14.3-9.6.7-3.6-.9-6.2-3.2-8.8,4.3,1,8.9.7,12.4-2.1,4.1-3.3,4.7-9.7,1.1-13.6.7-1.1,1.1-2.2,1.2-3.5,1-8.8-8.4-12.6-15.6-9.5-3.2,1.4-5.2,3.8-6.8,6.7l4.7,2.7c-5,.7-9.9,1.9-14.3,4.5s-2,1.2-2.7,2-.2.5-.3,0c-.4-1.4-.5-3.1-.8-4.6h-5s-7.2,11-7.2,11l-7.2-12.4h-5.1s-2.5,12.7-2.5,12.7l.3-12c-3.7,0-7.4,0-11.1,0s-1.7.2-2.1,0l-7-11c-3.3.7-6.6,1.7-9.7,3.1-7.5,3.3-15.4,9.7-10.1,18.7,3.1,5.2,8.8,7.7,13,11.6s1.9,2.1,1.6,3.2c-.5,1.7-4.2,2.8-5.7,3.2s-.6.1-.8.2c0-.2,0-.3.2-.4h0c0,0,.2,0,.3-.1.5-.1,1-.3,1.5-.5.9-.3,1.7-.6,2.5-1s.6-.4,1-.7.2-.2.3-.3.1,0,.2,0c1-1.3-1-3.1-2-3.9-4.9-4.1-11.9-7.7-13.6-14.4l-.4-2.2c0-.2,0-.4,0-.6.2-4.4,2.7-7.4,6.2-9.9s10.5-5.3,16-6.6c0,0,.2.2.3.3.3.4.5.8.8,1.2s0,.2,0,.3c2,3.1,3.9,6.2,5.8,9.3.1.1.3,0,.4,0,.4,0,.8,0,1.3,0s.7,0,1,0,.1,0,.2,0,.1,0,.2,0c1.9,0,3.8,0,5.7,0s2,0,2.9,0,.1,0,.2,0c.6,0,1.2-.1,1.8,0,0,.1,0,.2,0,.3,0,.4,0,.8,0,1.2,0,1.5,0,3,0,4.5s-.2.7,0,1.1l1.1-5.3c.1-.4.2-.8.3-1.3s.2-.8.3-1.2c.5,0,1,0,1.5,0s.1,0,.2,0c1.4,0,2.7,0,4.1,0l6.7,11.9.2.2c.2-.3.4-.7.6-1s.2-.3.3-.4c.6-.9,1.2-1.8,1.8-2.7s.3-.4.5-.7c.5-.8,1.1-1.6,1.6-2.4s1.5-2.2,2.3-3.3c1.3,0,2.6-.1,3.8-.1s1.4,0,1.6,0,.2.5.2.7c0,.3.1.6.2.8.2,1,.4,1.9.5,2.9.1.1.5-.4.6-.5.1-.1.4-.3.6-.4,2.9-2.1,7-3.6,10.5-4.3s.7-.2,1.1-.3c.9-.2,1.8-.3,2.7-.4s.3,0,.2-.1l-4-2.2c0-.3,1.7-2.8,2-3.2,3-4.1,8.3-6,13.4-5s1.9.6,2.8.9Z"/>
    <path class="st14" d="M133.3,87.2c.7,2.7,1.4,5.5,2.1,8.2,1.3,5.3,2.6,10.7,3.9,16,.5,1.9.9,3.7,1.3,5.6-.5,0-.5.4-.7.5-.3,0-.8-.2-1.1,0,0-.3.3-.4.6-.3,0-.2-.2-.3-.2-.4s0-.2,0-.4-.6-.4-.7-.6c-.4-.5-.6-1.4-1-1.9s-.1-.1-.3-.2c-.2-1.3-.4-2.7-.7-4h-.2c.1.9.4,2,.5,2.9s0,.3-.1.3c-.6-.7-1.1-1.6-1.7-2.3s-1.5-1.4-2.1-2.2-.7-1.3-1-1.8-.5-.3-.4-.7l-.4.2c-.4-1.5-1-3.4-1.7-4.7s-.3-.3-.4-.5c-.2-.5-.6-2.6-.6-3.1l2-7.8c0-.2.4,0,.5-.2s.3-1.5.5-1.7c.2,0,.2.2.4.3.4.2.5-.5.8-.7s.6-.4.8-.4Z"/>
    <path class="st11" d="M129.1,90.4l-3.4,12.3c.3,2.6-.9,5.1-1,7.6s-.2.6-.2.9,0,.2.1,0c.3-.8.4-1.8.8-2.6-.4,2-1,4-1.4,6,.2,0,.2-.3.3-.5.8-2.4.9-4.1,2.3-6.3s.5-.8.6-.8c.1,0,.3,0,.4,0,0,.2-.2.1-.2.3-.1.4.2.3.4.5.8.8,1.1,3.1,1.8,4.1s0,.2,0,.2c0,0,.3-.1.3,0s0,.2,0,.3c.3.6.6,1.2.8,1.8s.2.9.2,1,.2,0,.2-.1c-.1-.7-.5-1.6-.7-2.3s0-.6-.2-.8-.7-2-.6-2.1c0,0,.1,0,.2,0s.5.8.6.9c.2.5.3,1.4.5,1.9s.8.9,1,1.4.7,1.5,1,2.2.3.3.5.6.1.5.2.7c.2.4.8.8,1.1,1.2,1.1,1.4,1.9,3.1,2.9,4.6s1.2,1.7,1.4,1.9.1,0,.2,0c0-.1-.4-1.5-.2-1.5.1.2.3,1.6.4,1.7s.3,0,.4,0c0,0,0-.2,0-.3.4-.4,1.7,0,2.3,0-.6.9-1.2,1.8-1.8,2.7-.2-.5.1-1,0-1.4s-.2,0-.3-.1c-.1-.1-.2-.4-.3-.5,0,.2-.2.2-.2.3s0,.2,0,.3-.7,0-.8.2c0,.2.3.1.4.1.1,0,.4-.2.5-.2s0,.3,0,.4c-.1.2-.6.2-.5.3s.2.1.3.2c.3.4.3.8,1,.8-.2.3-.4.7-.6,1l-.2-.2-6.7-11.9c-1.4,0-2.7,0-4.1,0,0-.1,0-.2,0-.4-.1-.5-.3-1-.5-1.4s-1.2-3.3-1.7-3.3-1.3,1.2-1.1,1.3c.3,0,.5-.5.8-.6s.8.7,1,1c.5,1.1.8,2.3,1.4,3.3-.5,0-1,0-1.5,0-.1.4-.2.8-.3,1.2l-1.1-.3c0-.1,0-.2,0-.3-.6,0-1.2,0-1.8,0,.3-.9.7-1.7,1.1-2.6s.5-.7.5-.8c0-.2,0-.3,0-.5s.2-.5,0-.5-.9,1.8-1,1.7v-.4c-.4,1-.7,2-.7,3-1,0-2,0-2.9,0,0-.2,0-.5.1-.8.4-1.8,1-4,1.5-5.8s1.4-4.5,2.2-6.6h.3c.7-2.7,1.5-5.2,2.2-7.8s1.4-4.2,2.3-6.4ZM121,117.8h2l.8-3.3c-.2,0-.2,1-.5.7s.2-.7,0-.9-.9-.4-1-.4c-.2,0-1.1,3.5-1.3,3.9ZM124,114.1c0-.1,0-.2,0-.2,0,.1,0,.2,0,.2ZM123.9,114.3c0-.1,0-.2,0-.2,0,.1,0,.2,0,.2Z"/>
    <path class="st0" d="M131.1,106.1l.4-.2c0,.4.2.5.4.7.3.6.6,1.3,1,1.8s1.5,1.5,2.1,2.2,1.1,1.6,1.7,2.3c.2,0,.1-.2.1-.3,0-.9-.4-2-.5-2.9h.2c.3,1.4.5,2.7.7,4.1.2,0,.2,0,.3.2.4.5.6,1.4,1,1.9s.7.4.7.6,0,.3,0,.4.3.2.2.4c-.3,0-.6,0-.6.3.4-.2.8,0,1.1,0s.2-.6.7-.5c.4,1.8.9,3.5,1.3,5.3s0,.2,0,.3c-.4,0,.2.7-.3.7,0,0-.1-1.3-.2-1.5s-.3-.4-.4-.6-.6-1.3-.7-1.4-.3,0-.4,0c0-.2.2-.1.2-.2.1-.6-.6-.3-.9-.4s-.5-.3-.5-.3c0,0-.2-.5-.3-.7s-.6-.6-.6-.7c-.3-.5-.5-2.9-.7-3.6,0,0-.2,0-.2,0,0,.7.4,1.6.4,2.3s0,.2-.1.2l-2.1-2.9c-.7-.8-1.5-1.6-2.1-2.5s-.8-1.6-1.1-1.3c0,.1.2.6,0,.7-.2-1.4-.5-2.8-.9-4.2Z"/>
    <path class="st13" d="M134.2,89.1c.6,2.1,1.5,4.5,2,6.6s0,.5.1.8c-.1-.2-.3-.4-.3-.7,0,0-.2.5-.2.5l-.4-.9c-.7-2.7-1.4-5.5-2.1-8.2s-.3-1.4-.4-2.1v-.2c.5,1.4.9,2.8,1.3,4.2Z"/>
    <path class="st11" d="M144,121.5c0,.1.2.3.2.4-.5.8-1.1,1.6-1.6,2.4-.1-.5-.2-1-.3-1.5s-.1-.2-.2-.4,0-.2,0-.3c.2,0,.2-.2.4-.3s.4,0,.6,0c.3,0,.6-.3.9-.3Z"/>
    <path class="st11" d="M125.4,108.6c0,0,0-.2,0-.3,0-.2.1-.5.3-.7,0,.3,0,.7-.3.9Z"/>
    <path class="st11" d="M125.6,107.6c0-.3,0-.6.3-.8,0,.3,0,.6-.3.8Z"/>
    <path class="st16" d="M141.4,112.7c-.4-1.2-.7-2.4-1.1-3.6h.2c.2.5.5,1,.5,1.6.2.1.1-.3.3-.2s.3.5.4.6c.2.4.3,1.1.4,1.5.2,0,.2,0,.2-.2,0-.5-.4-1.2-.5-1.7s0-.3,0-.2.6.7.7.9c.4.5.9,1,1.4,1.3,1.9,1.5,3.6,1.4,5,3.8s.5,1.2.7,1.5.2.1.4.1c0,0,0,0,0,.2-1.3,0-2.6.1-3.8.1-.8,1.1-1.5,2.2-2.3,3.3,0-.2-.1-.3-.2-.4-.9-2.9-1.7-5.9-2.6-8.8Z"/>
    <path class="st8" d="M139.3,111.3c.3-.2,0-1,0-1.1h.2c0,.1.3,3,.3,3,.3,0,.2-.4.4-.5s.7.2,1,0c.9,2.9,1.7,5.9,2.6,8.8-.3,0-.6.2-.9.3s-.4,0-.6,0-.2.3-.4.3c-.4-1.8-.9-3.5-1.3-5.3s-.9-3.7-1.3-5.6Z"/>
    <path class="st12" d="M176.3,148.1c-2.1,7-12.9,9.3-19.2,10-.2,0-.9.1-1,0-.3-.2-.4-1-.7-1-1.9,0-3.8,0-5.6,0s0,0,0,0h0c0,0,0,0,0,0-.1,0-.2,0-.3,0-.3,0-.8,0-1.2,0-1,0-2.1,0-3.1,0-.3-1.2-.4-2.4-.6-3.6s-.1-.4-.2-.6,0-1-.2-.8c-.4,1-.9,2.1-1.3,3.1s-.6,1.2-.8,1.8-.3.3-.3.3c-1.1-.1-2.2-.1-3.2,0s-.3,0-.3,0c-.4,0-1,0-1.4,0s-.4,0-.5-.2-.5-1.1-.6-1.4c-.3-.6-.6-1.2-.8-1.8s0-.3-.1-.4c-.2-.4-.4-.8-.5-1.1-.1,0-.1.2-.1.3-.2.7-.2,1.5-.3,2.2s-.2,1.7-.4,2.2,0,0-.1.1c-.2,0-.4,0-.5,0-.3,0-.7,0-1,0-2.4,0-4.9,0-7.4,0s-.2,0-.3,0c-.2,0-.4,0-.5,0-.5,0-.9,0-1.3,0s-.1,0-.2,0c-.1,0-.3,0-.4,0-.6,0-1.6,0-2,0s0-.2,0-.3c-1.3,0-2.6,0-3.9,0s-2,0-2.9,0-1.4,0-2,0v-.8c-.1-.1-.8.4-.9.5-5.4,3.1-12.2,4.9-18.4,5.9s-1.3.3-1.5.1c-2.1-3.5-4.4-6.8-6.6-10.3s-.6-.8-.6-.9c0-.2,0-2.1,0-2.2l7.4,11.3c6.5-1.1,13.2-2.6,19-5.8.4-.2,1.2-.8,1.5-.9s0,.8.1.8h8.8s0,.3,0,.3h13.6s.9-4.9.9-4.9l2.2,4.9h5.6s2.5-5.1,2.5-5.1l.8,5.1h10.4c.2,0,.4,1.3.9,1.1,5-.5,10.1-1.4,14.5-3.9s5-3.8,5.7-7.2c0,1.1,0,2-.3,3.2Z"/>
    <path class="st8" d="M124.2,158.9c0,0,0,.1,0,.2-.3,0-.1,0-.1.2,1,4.6,2.8,9.4,4,14.1-.3,0,0-.4-.4-.3-.2-.6-.3-1.1-.5-1.7-.2-.8-.5-1.7-.8-2.5s-.5-2.4-.7-2.7-1-.2-1.1,0c-.8-2.5-1.7-5.6-2.7-8,.4.1,1.5,0,1.8,0s0-.3.1-.4c.1.4.2.8.4,1.1Z"/>
    <path class="st16" d="M121.7,158c0,.1,0,.3,0,.4l4,13.5c-.2,0-.1,0-.2-.2-.8-1.9-1.4-4.2-2.1-6.2s-1.6-5.2-2.3-7.8c.3-.2.4,0,.5.3Z"/>
    <path class="st16" d="M127.1,171.5c-.2,0-.2.1-.2.3,0,.4.4,1.3.3,1.6s-.3,0-.2.3.2,0,.2.1c0,.4,0,.8.1,1.3s.6,1.6.6,2.3,0,.2-.1,0c-.3-1.1-.7-2.2-1-3.3-.5-1.7-.9-3.3-1.5-5,.1,0,.6-.1.7,0s-.1.4.2.3v-.4c.3.8.6,1.7.8,2.5Z"/>
    <path class="st11" d="M127.6,173.1c.4-.1.1.3.4.3,0,.1,0,.3,0,.4-.1.1-.1.2,0,.2,0,0,0,.1,0,.2,0,.2,0,.5.1.8s0,.5.3.4c0,.1,0,.4,0,.4,0,.2,0,.3.2.3,0,.4.2.7.3,1.1.4,1.5,1.8,5.7,1.8,7s0,.3,0,.5c0-.2-.2-.5-.3-.8s0-.3,0-.4h0c-1-3.5-1.8-6.9-2.8-10.3Z"/>
    <path class="st11" d="M126.4,169v.4c-.4,0-.2-.3-.3-.3s-.5,0-.7,0c-.3-.9-.6-1.8-.9-2.8,0-.3,1-.2,1.1,0,.3.3.6,2.2.7,2.7Z"/>
    <path class="st16" d="M121.9,157h.1c0,0,0,0,0,0,.4,0,.9,0,1.3,0,.2,0,.2.1.3.3-.3.6-1.4.5-1.9.4,0-.2-.2-.5-.3-.8.1,0,.3,0,.4,0Z"/>
    <path class="st11" d="M123.8,157.8c-.2,0,0,.3-.1.4-.3.2-1.4.2-1.8,0,0-.1,0-.2-.2-.3,0,0,0-.2,0-.3.6.1,1.7.2,1.9-.4,0,.2.1.3.2.5Z"/>
    <path class="st4" d="M115.4,156.7c0,0,0,.2,0,.3h-2.7s-.3-.3-.3-.3c1,0,2,0,2.9,0Z"/>
    <path class="st16" d="M130.5,183.4s0,0,0,0h0Z"/>
    <path class="st11" d="M138.5,158.1c.2,0,.3.2.5.2s1.3,0,1.4.2,0,.4,0,.4c0,.1,0,1.1,0,1.2-.3.4-.3.8-.4,1.4s-.1.3,0,.4c0,.3,0,.6-.2.9-.1.6-.4,1.2-.5,1.8-.3,0-.1.1-.2.3-.2,1.1-.5,2.2-.7,3.3-.3.3-.8,0-1-.4s.1-.7-.3-.8l-.5,3.3v-.8c0,0,0-1.2,0-1.2h-.2c0,.7-.3,1.3-.3,1.9s0,.4,0,.6c0,.5,0,1,0,1.6-.3.3,0-.9-.2-.8l-.5,3.1c0,.3.2,0,.2,0s0,.2.4,0c0,.2-.1.5-.2.6s.1.2.1.3c0,.5-.4,1.2,0,1.7,0,0,0,.2,0,.3-.3,0-.2.1-.2.3,0,1.1-.4,2-.6,3.1l-1.3,5.8c-.4,0-.1-.2-.3-.3-.4-.3-.9,0-1.2.3s-.2.2-.3.2c-.2.1,0-.4-.3-.3,0,.3.3.5-.2.7-.2-.7-.4-1.5-.7-2.2l-.2.6-.3-.7s0,0,0,0c.2,0,0-.3,0-.4.1-.1.2.1.3.3s0,.2,0,.2c0,0,0-.1,0-.2,0-.1,0-.2,0-.3.3,0,.2-.2,0-.2,0-.2,0-.3,0-.5.3-.1.5.6.5.7s-.1.7.1.6c.9-.3.2-1.5.1-2.2,0,0,.5.1.5.2v1.2c.8,0,.3-1.1.9-1.3,0,.4,0,.8.2,1.2.1,0,.2-.2.2-.3,0-.8,0-1.7.2-2.5.2-2.1,1-5,1-7s0-.1,0-.2c.1,0,0-.2,0-.3,0-.4,0-.8.1-1.3.6-4.2,1.5-8.4,2.2-12.6.3,0,.2.5.6.4,0-.6.2-1.1.3-1.7s0-.5,0-.8Z"/>
    <path class="st8" d="M140.3,161c.2,0,.3,0,.4-.1s.3-1.5.4-1.5c.5,0,.7.4,1.2.2,0,0-.2.8-.2,1s0,.3,0,.4,0,.1,0,.2,0,.1,0,.2c0,0,0,0,0,0s0,0,0,0c0,.2-.1.3,0,.5h0c0,.1-.1.9-.2,1.1-.5,1.9-1.3,4.2-1.6,6.1s0,0,0,0c0,0,0,0,0,.2s0,.1,0,.2c0,0,0,0,0,0s0,.1,0,.2c-.2.8-.5,1.6-.7,2.3s0,.1,0,.2,0,.1,0,.3,0,0,0,0v.2c0,0,0,0,0,0v.3c0,0,0,0,0,0v.2c0,0,0,.1,0,.2v.2c0,0,0,.1,0,.2v.2c0,0,0,0,0,0v.3c0,0,0,0,0,0v.3c0,0,0,0,0,0v.2c0,0,0,0,0,0v.3c-1,3.2-1.9,6.4-2.8,9.6h.2s-.3,1-.3,1h-.2c-.1.3-.3.7-.4,1s-.1.3-.1,0l1.3-5.5c0-.2.2-.4.2-.7,0-.2.4-1.6.3-1.7-.2-.2-.3.3-.4.4s-.2,0-.2,0c0-.6.2-1.1.3-1.7.4-1.9,1.1-4.1,1.3-6,.2-.2.2-.5.3-.8.5-.1.4.6.6,1s0,.1.2.1c.9-3.3,2-6.6,2.8-9.9-.2,0-1-.2-1-.2s-.2.6-.2.8h-.4c0-.4.1-.7.2-1s.2-.6.3-.8Z"/>
    <path class="st16" d="M141.7,162.9v.3c.4-1.6,1-3.2,1.4-4.7s0-.6.3-.6c-.5,3.6-1.7,7-2.7,10.5s-.5,2.3-.9,3.4-.2.9-.6.6c0-.1,0-.2,0-.3h0c0,0,.1,0,.1,0,0-.2,0-.3-.2-.3.2-.8.4-1.6.7-2.3,0,0,.3,0,.3,0,.1-.2.2-.8-.2-.6.3-1.9,1.1-4.2,1.6-6.1ZM140.1,170.1h0c0,0,0,0,0,0ZM140,170.6c0-.1,0-.2,0-.2,0,.1,0,.2,0,.2ZM139.9,171c0-.1,0-.2,0-.2,0,.1,0,.2,0,.2ZM139.9,171.2c0-.1,0-.2,0-.2,0,.1,0,.2,0,.2ZM139.7,171.5h0c0,0,0,0,0,0Z"/>
    <path class="st14" d="M132.3,188.7c0,.1.2.3.2.4,0-.7.3-.3.4-.4s.1-1.2.2-1.4.2-.3.2-.5c.3,0,0,.6,0,.6.5-.1.4.5.4.9s0,.3,0,.5v.2c0,.1,0,.2,0,.3h0c0,.1,0,.2,0,.3,0,.3-.4.7-.4.9s.2,0,.2,0c0,.2-.4.7-.4,1l-.3-.8c0-.3-.1-.5-.2-.8s0-.1,0-.2c0-.3-.1-.7-.2-1Z"/>
    <path class="st8" d="M131.9,187.2c.5-.1.1-.3.2-.7.3-.1,0,.4.3.3s.2-.2.3-.2c.4-.2.8-.6,1.2-.3s-.1.4.3.3l-.4,1.6c0-.4.1-1.1-.4-.9,0,0,.2-.5,0-.6,0,.2-.1.4-.2.5s-.1,1.3-.2,1.4c0,0-.4-.2-.4.4,0-.1-.1-.3-.2-.4-.2-.6-.3-1-.4-1.5Z"/>
    <path class="st16" d="M141.9,156.7c.3,0,0,.6.2.8,0,0,.6,0,.7-.1.2-.1,0-.4.3-.4,0,.2-.2.4-.2.6s.2,0,.2.1c0,.2-.5,2.4-.6,2.7s0,.3-.2.2c0-.6.2-1.2.2-1.8-.4-.2-.6-.7-1.2-.7,0-.3.1-.9.3-1.1s.3-.2.3-.3Z"/>
    <path class="st11" d="M141.3,158.2c.5,0,.7.5,1.2.7,0,.6-.2,1.3-.2,1.8s0,.1,0,.2h0c0,0,0-.2,0-.4s.3-.9.2-1c-.5.2-.7-.2-1.2-.2-.1,0-.3,1.3-.4,1.5s-.2.1-.4.1c0-.3,0-.6.2-.8s.2-1.4.4-1.5c.3-.2.2.2.4-.5Z"/>
    <path class="st10" d="M142.7,155c.5-1,.9-2.1,1.3-3.1.2-.2.2.7.2.8,0,.2.1.4.2.6-.3,0-.2.7-.3.8s-.3,0-.3,0-.3,1.1-.4,1.2c-.3.3-.6,0-.6-.4Z"/>
    <path class="st16" d="M136.3,177.6c0,0,0,.2,0,.3-.1.5-.3,1.1-.3,1.7,0,0-.4,1.3-.3,1.4s.4.3.4.2c0-.2.1-.4.2-.5,0,.3,0,.5-.2.7-.2.4-.3.9-.4,1.4s0,.2-.1.2c.2-.3-.2-.6-.2-.6,0-.3.2-.8.3-1.1s0-.3,0-.3c.2-1.1.5-2,.6-3.1s0-.3.2-.3Z"/>
    <path class="st16" d="M142.2,160.8c0,0,.2.2,0,.2,0,0,0-.1,0-.2h0Z"/>
    <path class="st16" d="M138.4,175.2v-.3c0,.1,0,.2,0,.3Z"/>
    <path class="st16" d="M138.6,174.6v-.3c0,.1,0,.2,0,.3Z"/>
    <path class="st11" d="M133.7,188.9v-.2c0,.1,0,.2,0,.2Z"/>
    <path class="st11" d="M141.9,161.8s.1,0,0,0c0,0-.2,0-.2,0h0Z"/>
    <path class="st16" d="M139.1,172.7v-.2c0,.1,0,.2,0,.2Z"/>
    <path class="st16" d="M138.9,173.3v-.2c0,.1,0,.2,0,.2Z"/>
    <path class="st16" d="M138.8,173.6v-.2c0,.1,0,.2,0,.2Z"/>
    <path class="st16" d="M138.8,174v-.2c0,.1,0,.2,0,.2Z"/>
    <path class="st16" d="M138.5,174.9v-.2c0,.1,0,.2,0,.2Z"/>
    <path class="st16" d="M142,161.3s0,0,0,0h0s0,0,0,0Z"/>
    <path class="st11" d="M142.1,161.3h0s0,0,0,0c0,0,0,0,0,0Z"/>
    <path class="st11" d="M141.9,167.6h0s0,0,0,0c0,0,0,0,0,0Z"/>
    <path class="st11" d="M133.7,189.4h0c0,0,0,0,0,0Z"/>
    <path class="st12" d="M78.7,146c0,.1,0,.2,0,.3s0,.5,0,.6c-.8.2-1.7.1-2.5.3s-.4.1-.6.2-.4,0-.6,0c0-.4,0-.6,0-.9l3.8-.4Z"/>
    <path class="st12" d="M72.5,140.1h2.4c0,.2,0,.5,0,.7s0,.2,0,.2c-.5,0-.9,0-1.4,0s-.2,0-.3,0c-.1,0-.3,0-.4,0s-.2,0-.3,0c0-.3,0-.7,0-1Z"/>
    <path class="st7" d="M114.8,117.9c0,0-.1,0-.2,0h0c0,0,.1,0,.1,0Z"/>
    <path class="st9" d="M82.3,136.3v2.3c1.4-.4,2.9,0,3.3,1.6.7-.8,1.6-1.5,2.7-1.7s2.7.2,3.7,1.3.8,1,.8,1.1c0,.2-1.5,1.1-1.7,1.2l1.6,2.4c-.6.3-1.1.7-1.7,1-1.6.7-3.3.6-4.6-.6s-.3-.5-.5-.5v1.1c-.5,0-3,.4-3.1.3s0-.3,0-.3l-3.3.4v-6.3h-.9v5.9s-.1.1-.2.1l-3.1.3v-6.3h-2.3l.8-3.2c2.8,0,5.7.1,8.5-.3ZM80.1,145.4c0,.2,0,.4.3.4s1.3-.1,1.4-.2c.2,0,.3-.1.3-.4.1-1-.2-2.6,0-3.5s.7-.7,1.2-.5c.1.6-.1,3.9,0,4.1s.1,0,.1,0c0,0,0,.4.2.4s1.4-.2,1.5-.2.2-.1.2-.2c0-1.4.2-3,0-4.3s-.3-.9-.7-1.2c-.9-.7-1.9-.8-2.8,0v-2.3c0,0-.2,0-.3,0,0,0,0-.2,0-.3,0,0-1.2,0-1.3,0s-.2,0-.2.1v7.7c0,.1,0,.2,0,.3ZM73.9,139c0,.1,0,0,0,.2s0,.2,0,.2c.2.3,1.5,0,2,.2,0,1.8-.1,3.8,0,5.5s0,.2,0,.3,0,.3.2.3,1.8,0,1.9-.2c0-1.4,0-2.9,0-4.3s0-.4,0-.6-.2-1.1,0-1.1h1.6c0,0,.2-.2.2-.3,0-.2,0-1.6,0-1.7s-.2,0-.3,0,.1-.1-.2-.2c-1.6-.2-3.5.1-5.1,0,0,0-.4,1.4-.5,1.6ZM86.1,143.5c0,.3.3.7.4.9s.1.1.2.2,0,0,0,0c.9,1.5,3.3,1.4,4.7.5s.9-.6.4-.7-.9.5-1.1.6c-.4.2-.7.3-1.1.3,0-.2.1-.2.2-.2.6-.2,1.2-.4,1.7-.8,0-.1-.7-1.1-.7-1.1-.9.4-1.2.7-2.3.5s-.1,0-.2,0l3.7-2.2c.3-.4-.1-.4-.2-.5s0-.2-.2-.3c-.1-.2-.2-.2-.3-.4-.5-.5-.6-.6-1.3-.8-2.6-1-4.9,1.3-4,4ZM91.7,144.4c0-.1,0-.2,0-.2,0,.1,0,.2,0,.2Z"/>
    <path class="st12" d="M92.9,145c0,.2,0,.5,0,.7s-.4.3-.5.4c-.8.6-1.9,1.2-2.9,1.3s-2.5-.2-3.4-1.1c0,.6,0,.6-.5.7-.8.2-2.1.3-2.9.4s-.2-.2-.3-.3l-3.3.4c0-.3,0-.7,0-1,.5,0,3.1-.5,3.3-.3s-.3.4.4.3,1.9-.2,2.8-.3.4,0,.5-.7c2.1,1.8,5,1.2,6.9-.6,0,0,0,.3,0,.3Z"/>
    <path class="st4" d="M79.1,141c0,1.8,0,3.6,0,5.4-.1,0-.3,0-.4,0,0-.1,0-.2,0-.3,0-1.7,0-3.3,0-5h.4Z"/>
    <path class="st12" d="M92.9,142.4c-.4,0-.7.4-1.1.6-.1-.2-.5-.4-.4-.7s1.4-.8,1.7-1.1c0,.1,0,.7,0,.8s-.2.2-.2.4Z"/>
    <path class="st12" d="M78.7,141c0-.3,0-.6,0-.9h.4c0,0,0,.8,0,.9h-.4Z"/>
    <path class="st13" d="M149.6,157.1s0,0,0,0h0c0,0,0,0,0,0Z"/>
    <path class="st13" d="M130.1,88.7c0,0,0,0,0,0h0Z"/>
    <path class="st14" d="M129.1,177.2c.2,0,.3-.1.3.1.2.7.4,1.4.5,2.1.5,0,.1-.7.3-.9s.5,0,.5,0c0-.1-.5-1.8-.6-2.1s-.1-.8-.2-1.2c-.2-.6-.6-1.3-.7-2s.1-.2.2-.1.1.6.2.8c.1.3.4.5.5.7.3.7.2,1,1,1.6s.8.2,1.1.4,1.3,1.3,1.4,1.4c.1.3,0,1.1.2,1.5s.1.5.4.4l1-5.4c0,2-.7,4.9-1,7s-.1,1.7-.2,2.5,0,.3-.2.3c-.1-.4-.1-.8-.2-1.2s0-.3-.2-.5c-.6-.3-1.5,0-1.8.6s0,.4-.1.7,0,.3,0,.5,0,.2,0,.2c0,.1,0,.2,0,.3h0c0-.1-.1-.4-.3-.3s0,.3,0,.4c0-.1,0-.2,0-.3,0-.1,0-.3,0-.5,0-1.3-1.3-5.5-1.8-7Z"/>
    <path class="st13" d="M130.8,184.9l.3.7.2-.6c.2.7.5,1.5.7,2.2s.2,1,.4,1.5c0,.3,0,.7.2,1l-.2.3c-.4-1.2-.8-2.4-1.2-3.5s-.4-1.1-.5-1.5.1,0,.2,0Z"/>
    <path class="st16" d="M132.7,190.6c-.2-.2-.4-.6-.2-.8,0,.2.2.5.2.8Z"/>
    <path class="st9" d="M93.7,147.3c1.6-.4,5.2-1.6,5.7-3.2s-.8-2.5-1.6-3.2c-4.2-3.9-9.9-6.4-13-11.6-5.3-9,2.6-15.4,10.1-18.7s6.4-2.4,9.7-3.1l7,11c.4.2,1.7,0,2.1,0,3.7,0,7.4,0,11.1,0l-.3,12,2.5-12.6h5.1s7.2,12.4,7.2,12.4l7.2-10.9h5c.3,1.4.4,3.1.8,4.6s.2.2.3,0c.7-.8,1.8-1.5,2.7-2,4.4-2.6,9.3-3.8,14.3-4.5l-4.7-2.7c1.7-2.9,3.6-5.4,6.8-6.7,7.2-3.1,16.6.7,15.6,9.5-.1,1.3-.6,2.4-1.2,3.5,3.6,3.9,3.1,10.3-1.1,13.6-3.5,2.8-8.2,3.1-12.4,2.1,2.3,2.6,3.9,5.2,3.2,8.8-1.1,5.9-9.2,8.6-14.3,9.6s-5.2.9-5.4.7-.4-1.1-.7-1.1h-10.2s-.9-6-.9-6l-.2-.2-2.8,6.1h-5s-2.7-6-2.7-6l-.9,6h-12.8s0-.3,0-.3h-8.9s0-1.2,0-1.2c-.1,0-.2,0-.3,0-.7.4-1.4.9-2.1,1.3-5.6,3.1-12.2,4.5-18.5,5.6l-6.8-10.4c0-.2,0,0,.1-.1,1.1-.3,2.7-.5,3.9-.8,0,.2.1.2.3.2,2.1.4,3.4.5,5.3-.7s.9-.5.9-1ZM176,108.5s-.1,0-.2,0c-.1,0-.3,0-.4,0-.2,0-.4,0-.5,0-.4,0-.7.2-1,.3s-.2,0-.3,0c-.4.1-.7.2-1.2.4s-.4.2-.7.3,0,0,0,0c0,0-.1,0-.2,0-.9.5-1.2.7-1.9,1.4s-.4.4-.7.7-1,.9-.8,1.3,0,0,0,0c0,0,0,.1,0,.2s-.1,0,0,.2c.3.7,3.5,2.1,4.3,2.6.7.1.7-.3,1.2-.7,1.7-1.4,3.8-2,5.5-.3.3.7.4,1.9,0,2.5s-.5.5-.6.6-.4.2-.4.3c-.1,0-.2,0-.3,0-.6.1-1.4.2-2,.3s-1.7-.2-1.8.4,0,3,0,3.7.1.3.2.3c0,.2,0,.5.3.6.4.1,1.6,0,2.1,0,.7,0,1.8.1,2.4.4s.6.4.8.4,0,0,0,0c.8,2.9-1.1,4.3-3.9,4.1s-2.7-1.1-3.6-2.3c-.4-.2-.4,0-.6.3-.9.8-1.7,1.7-2.5,2.5-.4.4-.9.7-1.2,1.2s-.2,0-.2.2.2.4.3.5c0,.4.7.9,1,1.2,3.7,3.2,9,3.9,13.4,1.8s5.8-7,3.2-10.9c-.6-.9-1.1-1.4-1.9-2.1s-.1-.2-.2-.3c2.7-2.4,2.9-6.3.8-9.2s-.5-.7-.8-1c-1.9-2.1-4.4-2.7-7.2-2.7s-.3,0-.5,0ZM85.6,122.8c0,.9.1,1.5.2,2.3s0,.2,0,.3,0,0,0,.2c.7,5.7,8,10.1,12.1,13.5s4,3.2,4,5-3.2,4-4.9,4.7c-3.1,1.3-6.5,1.8-9.8,2.5,0,.2.1.2.2.3s.1.4.2.4c-.2.4,0,.8.2,1.2.8,1.7,2.4,3.4,3.3,5.1.4.5.7.7,1.4.6,1.4-.1,3.7-.7,5.1-1,4.4-1.1,10-3,13.6-5.8.6-.4,1.1-1.1,1.7-1.5s.2-.2.4-.1c0,.3.1.4.2.5s0,.1,0,.2,0,.2,0,.3,0,.3,0,.4c0,1.1.5,1.4,1.5,1.5,2.1.2,4.5-.2,6.6,0,.6,0,1.1-.7,1.5-.4s.5.5,1.4.6c1.3.1,3,0,4.3,0s1.9.2,2.6-.1.6-.7.7-1.2c.6-2.6.8-5.2,1.2-7.8s.1-.5.2-.6,0-.2.2-.2.4.5.5.7c1.1,2.3,1.9,4.7,3,7s.7,1.7,1.2,2.1,1.4.3,1.9.2.9-.6,1.2-1.2c1.5-2.7,2.6-5.9,4-8.6.2-.4.4-.2.7.1.4,2.4.8,4.9,1.2,7.4s0,.2,0,.3c0,.1,0,.3,0,.3,0,.1,0,.3,0,.4s0,0,0,.3c.2,1.2,1.3,1,2.2,1.1,1.5,0,3.1,0,4.6,0s1.2.2,1.8,0,.6-.8.9-.8c.5,0,.7,1.6,1.6,1.7,1.5.2,5.4-.7,7-1.2,4.5-1.3,11.4-4.9,9.3-10.7s-2.1-3.2-3.7-4.4-4.1-2.8-5.3-3.9-.1-.1-.2-.2c-.5-.5-1.5-1.5-1.8-2.3s-.2-1.3.3-1.9,0-.2.3-.2c0,.2-.2,1.2.2,1.2s0-1.2.1-1.3.4,0,.5,0c0-.3,0-.2-.3-.3,0-.3.2-.5.4-.6,1.4-.9,3-1.1,4.5-1.7s.9-.9.5-1.7-1.5-2.8-2.1-3.8-.5-.8-1.1-.9c0,0-.1,0-.1,0,0,0,0-.3-.2-.4s-.2,0-.2,0c-.6,0-1.2.2-1.8.3-3.9.9-10.3,3.4-12.2,7.2s-.3.8-.5,1.2c0-.1-.2-.3-.2-.5-.4-1.9-.7-3.9-1.1-5.8-.1-.4-.6-.8-1-.9,0,0-.1-.2-.2-.3-.2-.1-.2,0-.4,0-.4,0-.9,0-1.3,0-2.7,4.1-5.4,8.3-8.2,12.4-.2,0-.4-.4-.4-.5-2.4-4.1-4.6-8.2-6.9-12.3-.2-.3-.4-.5-.7-.6s-.3-.2-.3,0c0-.2-.3-.4-.5-.4-.5,0-1.1,0-1.6,0-2,10.1-4,20.3-6,30.4s0,.2,0,.2c-.5-.3-.2-.8-.2-1.1.2-8.2.5-16.5.8-24.7s.3-2.5,0-3.2-.5-.5-.8-.5c0-.1,0-.3,0-.4-.2,0-.4,0-.6,0-3.1,0-6.3.2-9.5,0,0,.3,0,.6,0,.9s0,.2,0,.3c.2,4.7.2,9.7.2,14.4s0,.2,0,.3,0,0,0,0c0,.1,0,.3,0,.4s0,0,0,0c0,0,0,0,0,0,0,0-.1.4-.2.5-.3.2-.6-.3-.7-.5-.3-.3-.7-.5-1-.8s-.6-.9-1.2-.9c0,0-.1,0-.2-.2s0-.3-.3-.3c0,0-.1,0-.2-.2s0-.1,0-.2-.2,0-.3,0c-.1,0-.1,0-.2-.2s0-.2-.3-.2c-1.8-1-3.7-3.1-5.4-4,.2-.2,0-.2-.3-.3s-.1,0-.2,0c0,0,0,0,0,0-.1-.5-.5-.6-.8-.9-1.5-1.5-3.5-3.7-2.6-6.1s4.7-3.8,7-4.6,3-.4,1.9-2.4-.2-.1-.2-.2c-.6-1-2.5-4.4-3.3-5s-.4-.2-.6-.3,0,0-.1,0c-.1-.1,0-.4-.4-.4s0,0,0,0c-4.1,1-8.3,2.5-11.8,4.8s-5.9,4.5-6.1,7.9ZM110.2,118.2c-2.5.5-5.2,1.2-7.4,2.5s-2.5,1.4-2.5,2.8,2.8,3.9,4,4.9c2,1.6,4.1,3,6.1,4.6l-.2-14.7ZM165.4,129.2v1.4s.1.1.2.1c.3,0,0-1,.2-1,.1.2.2.9.5.9s.1,0,.2-.2l.4-.8c0,.2,0,1,.1,1s.2,0,.2-.1v-1.4c-.7-.2-.6.5-.9.9-.3-.4-.2-1.1-.9-.9ZM102.8,129.9h0c0,0,0,0,0,0Z"/>
    <path class="st12" d="M98.5,144.4c-.4-.5-.9-1.1-1.4-1.5-3.7-3.3-8.3-5.6-11.4-9.6s-3.1-5.8-3-9.5l.4,2.2c1.7,6.7,8.7,10.3,13.6,14.4s3.1,2.6,2,3.9-.2,0-.2,0Z"/>
    <path class="st12" d="M188.8,132c-.3.7-.5,1.4-.9,2.1-2,3.7-6.4,5.4-10.5,5.5s-1.1,0-1.6,0l-1.7-2.3c5.6,1,12.4-1,14.5-6.7s.4-1.5.6-2.3c0,1.5-.2,2.5-.3,3.8Z"/>
    <path class="st4" d="M176.3,140.9c-.1-.5-.5-1-.6-1.4.5.1,1.1.1,1.6,0,4.1-.2,8.5-1.8,10.5-5.5s.6-1.4.9-2.1c0,.3,0,.4,0,.9-1.2,3.9-4.9,6.2-8.7,6.9s-2.5,0-3.2.7-.2.4-.5.5Z"/>
    <path class="st12" d="M93.7,147.3c0,.4-.6.7-.9,1-1.9,1.1-3.2,1-5.3.7s-.3,0-.3-.2c.3,0,.6-.1.9-.2,1.6-.3,3.1-.7,4.7-1.1s.5,0,.8-.2Z"/>
    <path class="st8" d="M128.5,117.1c0,0-.1,0-.2,0-.6-1-.9-2.2-1.4-3.3s-.5-1.1-1-1-.5.5-.8.6c-.1-.1.9-1.3,1.1-1.3.5,0,1.5,2.8,1.7,3.3s.3,1,.5,1.4.1.2,0,.4Z"/>
    <path class="st13" d="M126.3,119.6l-1.1,5.3c0-.4,0-.8,0-1.1,0-1.5,0-3,0-4.5.4,0,.6.3.9.3Z"/>
    <path class="st8" d="M140,128.1c-.7,0-.7-.4-1-.8s-.2-.1-.3-.2c0-.2.4-.1.5-.3s.1-.3,0-.4-.3.1-.5.2-.4,0-.4-.1c.1-.3.8-.2.8-.2s0-.2,0-.3.2-.1.2-.3c.2.1.2.4.3.5s.2,0,.3.1c.2.4,0,1,0,1.4,0,.1-.2.3-.3.4Z"/>
    <path class="st9" d="M92.9,147h0c-.1.1-.2.3-.2.4-1.5.4-3.1.8-4.7,1.1,0-.3-.2-.2-.3-.4.6-.1,1.2-.3,1.8-.4s1.5-.3,2.2-.5.7,0,1.1-.2Z"/>
    <path class="st16" d="M123.5,117.8c0-1.1.3-2,.6-3v.4c.2.1.9-1.6,1-1.7.2,0,0,.4,0,.5,0,.2.1.3,0,.5s-.4.6-.5.8c-.4.8-.8,1.7-1.1,2.6,0,0-.1,0-.2,0Z"/>
    <path class="st12" d="M187.5,121.4s-.1,0-.2,0c0-.1-.5-.7-.5-.7,0,0,.7-1.4.8-1.7.2-.5.2-1,.3-1.6.1,0,0,.3,0,.5,0,1.3,0,2.4-.5,3.6Z"/>
    <path class="st6" d="M153.3,122.4c0,0-.5.6-.6.5-.1-1-.3-2-.5-2.9.2,0,.2.1.3.2.4.6.4,1.5.8,2.2Z"/>
    <path class="st16" d="M126.6,118.3c0,.4-.1.8-.3,1.3-.3,0-.5-.4-.9-.3,0-.4.1-.7,0-1.2l1.1.3Z"/>
    <path class="st4" d="M176.4,141.2s0,0,0,0h0Z"/>
    <path class="st8" d="M121,117.8c.2-.4,1.1-3.9,1.3-3.9s1,.3,1,.4c.1.2-.1.8,0,.9.3.3.3-.6.5-.7l-.8,3.3h-2Z"/>
    <path class="st8" d="M123.9,114.3c0,0-.1,0,0-.2s.1,0,0,.2Z"/>
    <path class="st8" d="M124,114.1c0,0-.1,0,0-.2s.1,0,0,.2Z"/>
    <path class="st8" d="M140.8,99.4c-.3,1.5,0,2.9.8,4.1s.9,1.2,1.6,1.5.3.2.4,0c.5,1.1,1.1,2.2,1.7,3.3-.2,0-.3,0-.5,0-1-.3-1.9-.7-2.7-1.4s-1-.9-1-.9c0-.1,0-.6,0-.9s-.4-.6-.5-.8c-1.3-2.6-1.1-4.2-1.6-6.9s-1.8-5.1-3-6.6-.8-.7-1-1.1,0-.7-.5-.7c-.4-1.4-.8-2.8-1.3-4.2s-.2-1-.4-1.4,0-.2-.2-.2c0,.6.4,1.2.5,1.8s.3,1.4.4,2.1c-.2,0-.7.3-.8.4-.2.2-.4.8-.8.7s-.1-.3-.4-.3c-.2.1-.4,1.5-.5,1.7s-.5,0-.5.2l-2,7.8c0,.6.4,2.6.6,3.1s.3.3.4.5c.7,1.4,1.2,3.2,1.7,4.7s.8,2.8.9,4.2c.2,0,0-.5,0-.7.3-.2,1,1.1,1.1,1.3.6.9,1.5,1.6,2.1,2.5l2.1,2.9c.2,0,.1,0,.1-.2,0-.7-.4-1.6-.4-2.3,0,0,.1,0,.2,0,.1.8.4,3.1.7,3.6s.5.5.6.7.2.6.3.7.5.3.5.3c.2,0,1-.2.9.4s-.3,0-.2.2c.1,0,.3,0,.4,0s.6,1.1.7,1.4.4.4.4.6.2,1.4.2,1.5c.5,0-.2-.7.3-.7,0,.2.2.4.2.4.1.5.2,1,.3,1.5-.2.2-.4.5-.5.7-.5,0-1.9-.5-2.3,0s0,.3,0,.3c-.1-.1-.4,0-.4,0-.1,0-.3-1.4-.4-1.7-.2,0,.2,1.4.2,1.5,0,0-.1,0-.2,0-.2-.1-1.2-1.6-1.4-1.9-1-1.5-1.8-3.2-2.9-4.6s-.9-.8-1.1-1.2-.1-.5-.2-.7c-.2-.3-.2,0-.5-.6s-.7-1.5-1-2.2-.9-1-1-1.4-.2-1.3-.5-1.9-.5-.8-.6-.9c0,0,0,0-.2,0,0,0,.5,1.8.6,2.1s0,.6.2.8c.2.7.6,1.6.7,2.3s-.1.1-.2.1-.2-.8-.2-1c-.2-.6-.5-1.2-.8-1.8s0-.3,0-.3c0,0-.3.1-.3,0s0-.2,0-.2c-.7-1-1-3.3-1.8-4.1s-.5-.1-.4-.5.3,0,.2-.3c-.1,0-.3,0-.4,0s-.5.7-.6.8c-1.4,2.2-1.6,3.9-2.3,6.3s0,.6-.3.5c.4-2,1-4,1.4-6s0,0,0,0c.2-.3.2-.6.3-.9s0,0,0,0c.2-.2.2-.6.3-.8,1.3-6.6,3.7-13.3,5.1-19.9l.7-3,.6-1.6c1.4,2.3,2.5,5,3.8,7.4s3.2,6.5,4.8,9.7Z"/>
    <path class="st8" d="M135.4,155.5c.1.3.5,1.2.6,1.4s.3.2.5.2c0,.6.8.7,1.3.8,0,.2,0,.4,0,.5s-.1.3-.2.4c-.9,0-1.4-.5-2-1-.9-.7-1.1,0-1.8.5s-.7.3-.8.6c-.5.8-.8,1.7-1.2,2.5-.6,1.2-1.2,2.4-2,3.5,0,.1-.3.2-.4.1s-.1-.5-.3-.3-.2.8-.3,1c-.1.3-.5,1.3-1,1.2s-.2-.2-.2-.3c1,.1,1-1.6,1.5-2.1s.1,0,.2,0,.2,0,.2,0c0,0,0-.2,0-.2,0-.8,1.1-4.1,1.4-5.2s.2-.6.3-.9c0,0,0,0,0,0,.9,0,1.7-.1,2.2-.9s.6-2.3,1.9-1.9Z"/>
    <path class="st13" d="M131.5,157.1c0,.4-.4.7-.3,1.2,0,0,0,0,0,0-.3,0-.3.6-.5.4s.2-.7.1-.8c-.2.2-.2.5-.4.7s0,.2-.2.2c.3-.8-.8-.6-1.2-.8s-.4-.4-.6-.3-.6,1.8-.7,2.1c0,0-.1.2-.2.3h-.4c0,0,.4-.9.3-1.1-.3,0-.2.5-.3.6-.3,0-.5-.3-.9-.4s-.3,0-.5,0c-.3,0-.6-.6-1.1-.4-.2-.6-.5-1.1-.7-1.8,2.5,0,4.9,0,7.4,0Z"/>
    <path class="st4" d="M176.3,148.1c.2,0,.1.2.1.3-1.2,5.4-8.6,8.2-13.4,9.2s-4.2.9-5.7.6-.3,0-.3-.2c6.3-.7,17.2-2.9,19.2-10Z"/>
    <path class="st4" d="M91.2,162.4c6.2-1,12.9-2.8,18.4-5.9s.8-.6.9-.5v.8c-1.1.1-2.6,1.1-3.6,1.6-3.8,1.7-7.8,2.9-11.9,3.7s-2.8.7-3.6.6-.2,0-.2-.3Z"/>
    <path class="st11" d="M134.6,153.7c.3.6.6,1.2.8,1.8-1.3-.5-1.4,1.1-1.9,1.9s-1.4.9-2.2.9c-.1-.5.3-.7.3-1.2.3,0,.7,0,1,0s.3,0,.5,0,.1,0,.1-.1c.2-.5.3-1.6.4-2.2.4-.1.3-.5.6-.8s.3-.2.5-.2Z"/>
    <path class="st13" d="M141.5,157.1c-.1.2-.2.8-.3,1.1-.2.6,0,.3-.4.5s-.3,1.3-.4,1.5h0c0-.1,0-1.1,0-1.3.1-.2.2-.6.2-.8s-.3-.4-.3-.4c-.3-.1-.7,0-1,0s-.4-.4-.7-.2c0,.2,0,.4,0,.7s0,.5,0,.8c-.2,0-.6-.2-.6-.4,0-.2,0-.4,0-.5,0-.3.2-.6.2-.8,0,0,.1,0,.3,0,1.1,0,2.2,0,3.2,0Z"/>
    <path class="st16" d="M134.6,153.7c-.2,0-.3,0-.5.2-.3.3-.3.6-.6.8.1-.7.2-1.5.3-2.2s0-.2.1-.3c.2.4.4.8.5,1.1s0,.3.1.4Z"/>
    <path class="st11" d="M138,157.1c0,.3-.1.6-.2.8-.4-.2-1.2-.2-1.3-.8.4,0,1,0,1.4,0Z"/>
    <path class="st13" d="M123.9,157c0,.3.2.6.3.9s0,.4.2.8c0,.1,0,.2,0,.3-.2-.3-.3-.7-.4-1.1s0-.3-.2-.5,0-.3-.3-.3c0,0,.3,0,.5,0Z"/>
    <path class="st11" d="M124.1,157c.1.6.4,1.2.7,1.8s.2.8.4,1.1.8,1.7,1.3,1.9,1-1.4,1.1-1.7,0-.2.2-.3c-.2.7-.3,1.4-.6,2.1s-.3.6-.4.8c.3.1.5-.5.7-.6.2-.2.4.5.4.6,0,.8-.5.4-.8.7s0,1,.4.8,0-.3,0-.3c0,0,.2,0,.2.1,0,.3-.3.8-.7.7s-.2-.4-.4-.3c0,.2.2.4.3.6.5.7.8,1.1,1.3.2.9-1.5,1.3-3.9,1.8-5.5l.2-.3c-.1.9-.6,1.7-.7,2.6s0,.1.2.1c.2-.9.5-1.9.9-2.8s0-.3.2-.2c-.3,1.1-1.5,4.3-1.4,5.2v.2c-.1,0-.2,0-.3,0-.5.5-.5,2.2-1.5,2.1,0,0,0-.1,0-.2-.1-.2-.1-.4-.4-.4,0,0,0,0,0,0s0,0,0,0c-1.1-1.9-1.8-4.8-2.4-6.9s-.1-.6-.2-.9,0-.2-.3-.2c0-.3-.3-.6-.3-.9,0,0,.2,0,.3,0Z"/>
    <path class="st13" d="M133,157c-.2.1-.3,0-.5,0,0-.1.3,0,.5,0Z"/>
    <path class="st13" d="M122,157h0c0,0-.1,0-.1,0,0,0,.1,0,.2,0Z"/>
    <path class="st0" d="M137.7,158.8c0,.4,0,.9,0,1.3-.7,4.2-1.6,8.4-2.2,12.6s0,.8-.1,1.3c-.3,0,0,.2,0,.3s0,.1,0,.2l-1,5.4c-.3,0-.3-.2-.4-.4-.2-.5-.1-1.3-.2-1.5s-1.3-1.4-1.4-1.4c-.3-.2-.8-.2-1.1-.4-.8-.6-.6-.9-1-1.6s-.4-.4-.5-.7-.2-.7-.2-.8c0,0-.2,0-.2.1.1.6.5,1.3.7,2s.1.8.2,1.2.7,2,.6,2.1-.4-.2-.5,0,.2.9-.3.9c-.1-.7-.3-1.4-.5-2.1s-.1-.1-.3-.1c-.1-.4-.3-.7-.3-1.1s-.1-.2-.2-.3,0-.3,0-.4c0-.4-.2-.9-.4-1.3,0,0,0-.1,0-.2,0-.1,0-.2,0-.2,0-.1,0-.3,0-.4-1.1-4.7-3-9.4-4-14.1s-.2-.3.1-.2c.4,1.3.8,2.6,1.2,3.8s.1.6.2.6c.2-.2-.1-.5-.1-.6-.3-1.3-.6-2.7-.9-3.9h0c.6,2.1,1.4,5,2.4,6.9s0,0,0,0c0,0,0,0,0,0,.1.2.1.4.4.4,0,0,0,.1,0,.2,0,.1,0,.3.2.3.4.1.8-.9,1-1.2s.3-.9.3-1c.2-.2.2.3.3.3s.3,0,.4-.1c.8-1.1,1.4-2.3,2-3.5s.7-1.8,1.2-2.5.6-.4.8-.6c.7-.5.9-1.2,1.8-.5s1.1,1,2,1ZM125.7,163.8c0-.1,0-.2,0-.2,0,.1,0,.2,0,.2Z"/>
    <path class="st11" d="M124.5,159c.4,1.2.6,2.7.9,3.9h0c-.4-1.3-.7-2.6-1.2-3.8,0,0,0-.1,0-.2s.1-.1,0-.3c0,.1.2.3.3.3Z"/>
    <path class="st8" d="M128.6,175.4c-.2,0-.2-.3-.3-.4,0-.3-.1-.6-.1-.8.2.4.3.9.4,1.3Z"/>
    <path class="st8" d="M128.6,175.8c0,0,0-.2.2.3-.2,0-.2,0-.2-.3Z"/>
    <path class="st8" d="M128.2,174c-.2,0-.2,0,0-.2,0,0,0,0,0,.2Z"/>
    <path class="st0" d="M139.9,162.8h.4s.1-.6.2-.7.8.3,1,.2c-.8,3.3-1.9,6.6-2.8,9.9-.2,0-.1,0-.2-.1-.1-.3,0-1.1-.6-1,.5-2.2.9-4.4,1.4-6.5s.4-1.2.5-1.8Z"/>
    <path class="st16" d="M139.3,164.5c-.5,2.2-.9,4.4-1.4,6.5s0,.6-.3.8c0,0-.1-.1,0-.3,0-.7.3-1.3.2-2-.6,0-.2.4-.3.6s-.4.2-.4.4,0,.3,0,.5-.4.6-.4,1,.2.8.2,1-.1,0-.2.1c-.2.6.1,1.3,0,1.9s-.4,1.5-.6,2.2c-.5-.6,0-1.2,0-1.7s-.2-.2-.1-.3.2-.4.2-.6c-.5.2-.4,0-.4,0s-.3.2-.2,0l.5-3.1c.2,0,0,1.2.2.8,0-.5,0-1,0-1.6s0-.4,0-.6c0-.5.3-1.2.3-1.7h.2c0-.1,0,1.1,0,1.1v.8c0,0,.6-3.3.6-3.3.4,0,.2.5.3.8s.7.7,1,.4c.3-1.1.5-2.2.7-3.3s0-.3.2-.3Z"/>
    <path class="st13" d="M136.3,177.3c.2-.7.5-1.5.6-2.2s-.3-1.3,0-1.9.2,0,.2-.1c0-.2-.2-.7-.2-1s.4-.8.4-1,0-.3,0-.5c0-.3.4-.3.4-.4,0-.2-.3-.6.3-.6,0,.7-.1,1.3-.2,2s0,.3,0,.3c-.2,1.9-.9,4.1-1.3,6-.1,0,0-.2,0-.3s0-.2,0-.3Z"/>
    <path class="st8" d="M133.7,183c-.6.2-.1,1.2-.9,1.3v-1.2s-.5-.2-.5-.2c0,.7.8,1.8-.1,2.2s-.1-.5-.1-.6c0-.2-.2-.9-.5-.7,0-.2,0-.4.1-.7.3-.6,1.2-.9,1.8-.6s.2.2.2.5Z"/>
    <path class="st16" d="M138.5,158.1c0-.2,0-.4,0-.7.3-.1.5.2.7.2s.7,0,1,0,.3.4.3.4c0,.2,0,.6-.2.8,0,0,0-.4,0-.4,0-.1-1.2-.1-1.4-.2s-.2-.3-.5-.2Z"/>
    <path class="st16" d="M137.8,158.4c0,.2.4.4.6.4,0,.6-.3,1.1-.3,1.7-.4,0-.3-.4-.6-.4,0-.4,0-.9,0-1.3s.2-.3.2-.4Z"/>
    <path class="st16" d="M140.4,160.1h0c0,.4-.1.6-.2.9s-.2.6-.3.8c-.2,0,0-.3,0-.4,0-.5.1-1,.4-1.4Z"/>
    <path class="st14" d="M135.3,174c0,0,0,.2,0,.3,0,0-.3-.3,0-.3Z"/>
    <path class="st8" d="M131.4,184.3c.2,0,.3.2,0,.2,0,0,0,0,0-.2Z"/>
    <path class="st8" d="M131.3,184.8c0,0,0,.2,0,.2,0,0,0-.1,0-.2h0Z"/>
    <path class="st11" d="M136,179.5s.1,0,.2,0,.1-.6.4-.4-.2,1.4-.3,1.7-.2.3-.2.5c0,0-.4-.2-.4-.2,0-.1.2-1.4.3-1.4Z"/>
    <path class="st13" d="M140.1,169c.4-.2.3.4.2.6s-.2,0-.3,0c0,0,0-.1,0-.2,0,0,0,0,0,0s0-.1,0-.2c0,0,0,0,0-.2s0,0,0,0Z"/>
    <path class="st13" d="M139.3,172.1c.2,0,.2,0,.2.3h-.1s0,0,0,0c0,0,0-.1,0-.2Z"/>
    <path class="st16" d="M140,169.3c0,0,0-.1,0-.2,0,0,0,.1,0,.2Z"/>
    <path class="st16" d="M139.9,169.5s0,0,0,0c0,0,0,0,0,0Z"/>
    <path class="st13" d="M144.4,153.3c.2,1.2.3,2.4.6,3.6,1,0,2.1,0,3.1,0,0,.3-.8.7-1.1.7s-1.5,0-1.6,0,0-.3-.4-.2-.8.4-.9.6.2,0,.2.1c.2.2-.5,1.5-.6,1.8-.4,1.1-.4,2.3-.6,3.5s-.3.6-.2.7.2,0,.2.1c0,.3-.7,2.1-.9,2.5s0,.8-.3.7,0,0,0,0c-.2-.7-.3-.4-.7,0,.6-.1.4.2.5.5s.2.2.2.4-.2.2-.2.3c0,0,.1,0,.2,0,0,.2.4.7.5.8,0,.3-.3.5-.3.7s0,.5,0,.7c-.4,1.8-1.4,3.6-1.6,5.5-2,4.2-3.9,8.4-6,12.6-.2.4-.4.8-.7,1.1,0,0,0,0,0-.1,0-.2.2-.4.2-.6h-.2s0,0,0-.1,0,0,0,0c0-.1,0-.2,0-.3s0,0,0-.2,0-.3,0-.5l.4-1.6,1.3-5.8s0,0,0,.3c0,.3-.3.8-.3,1.1s.3.3.2.6c.1,0,.1-.1.1-.2.2-.4.3-.9.4-1.4l-1.3,5.5c0,.3,0,0,.1,0,.2-.3.3-.8.4-1.1h.2c0,0,.3-.9.3-.9h-.2c.9-3.2,1.9-6.3,2.8-9.5s0-.2,0-.3,0,0,0,0,0,0,0-.2,0,0,0,0c0,0,0-.1,0-.3s0,0,0,0c0,0,0-.1,0-.3s0,0,0,0,0,0,0-.2,0-.1,0-.2,0,0,0-.2,0-.1,0-.2,0,0,0-.2,0,0,0,0c0,0,0-.1,0-.3s0,0,0,0,0,0,0-.2,0,0,0,0c.4.3.5-.3.6-.6.4-1.1.6-2.3.9-3.4,1-3.5,2.1-6.9,2.7-10.5-.4,0-.2.4-.3.6-.4,1.6-1,3.1-1.3,4.7v-.3c0-.2,0-1,0-1s.1,0,.2,0c0,0,0,0,0,0,0-.2,0-.3,0-.5,0,0,0,0,0,0s0,0,0,0c0,0,0-.1,0-.2.3,0,0-.1,0-.2s0-.1,0-.2c.2,0,.2-.1.2-.2.1-.4.7-2.5.6-2.7s-.2,0-.2-.1c0-.2.2-.4.2-.6-.3,0-.1.2-.3.4s-.6.2-.7.1c0-.2.2-.8-.2-.8.3-.5.6-1.2.8-1.8,0,.3.3.7.6.4s.3-1.2.4-1.2.3,0,.3,0c.1,0,0-.9.3-.8Z"/>
    <path class="st11" d="M142.8,168.8c-.2-.1-.5-.3-.4-.6.2.1.5.3.4.6Z"/>
    <path class="st11" d="M142.3,168.1c-.3,0-.3,0-.3-.3l.3.3Z"/>
    <path class="st13" d="M140,170.6c0,0-.1,0,0-.2s.1,0,0,.2Z"/>
    <path class="st13" d="M139.9,171c0,0-.1,0,0-.2s.1,0,0,.2Z"/>
    <path class="st13" d="M139.9,171.2c0,0-.1,0,0-.2s.1,0,0,.2Z"/>
    <path class="st13" d="M139.7,171.5c0,0,0,0,0,0h0Z"/>
    <path class="st13" d="M140.1,170.1c0,0,0,0,0,0h0Z"/>
    <path class="st15" d="M80.1,145.4c0,0-.1-.2,0-.3v-7.7c0-.1.1-.1.2-.1.1,0,1.3-.1,1.3,0,0,0,0,.2,0,.3-.5,0-.4,1.6-.3,2s0,.4.3.3c0,0,0,.2,0,.3.1,0,.2-.2.3-.3.9-.7,2-.7,2.8,0,.7,1.6.2,3.6.3,5.3l-1.6.3s-.1,0-.1,0c-.1-.2,0-3.5,0-4.1s-.2-.4-.3-.4c.4,0,0-.4-.2-.4s-.7-.2-.6.1c-.3,0-.4,0-.6.4s-.1.3-.1.6c-.3,0-.2.1-.2.3,0,1,0,1.9,0,2.9,0,0,0,.1-.3.2s0,0-.2,0-.7,0-.7.4c0,0-.1,0-.2,0Z"/>
    <path class="st17" d="M90.1,139.5c.7.2.8.3,1.3.8,0,.3,0,.5-.2.8,0,0,0,0,0,0-.3,0-.1,0-.2.2s-.2,0-.3,0-.1,0-.2,0,0,.1,0,.2,0,0,0,0c0,0-.1,0-.2,0s0,.1,0,.2,0,0,0,0c-.2,0-.4,0-.3.3,0,0,0,0,0,0-.3,0,0,0-.2.2s0,0,0,0c0,0-.1,0-.2,0s0,.1,0,.2,0,0,0,0c0,0-.1,0-.2,0s0,.1,0,.2,0,0,0,0c-.1,0-.2,0-.2.2,0,0,0,0,0,0-.2,0-.4,0-.3.3-.2.1-.2.1-.3.3s-.3,0-.3.3.2.2.3.2c.1,0,.2,0,.3,0s0,0,.2,0c0,.6,1,.4,1.4.3s1-.4.9-.8c0,0,.8,1,.7,1.1-.5.5-1.1.7-1.7.8s-.3,0-.2.2c-1,.2-2.1,0-2.8-.8s0,0,0,0l-.2-.2c-.1-.2-.3-.7-.4-.9.2,0,.2-.2.2-.4,0-.9-.1-1.4.3-2.2s1.6-1.4,2.5-1.4.8.3,1,0ZM89.5,140.8s.2,0,0-.2c-.6-.6-2,.3-2.2,1.1s0,.4.3.5,0,0,0,0c0,.1,0,.3.4.2s1.6-1,1.6-1c.1-.2,0-.2,0-.4s-.3-.2-.3-.3Z"/>
    <path class="st17" d="M79.4,137.7l-.2,1.1c-.6.1-1.4-.2-1.7.4v5.5c-.2.5-1.4,0-1.4.7h0c0-.1,0-.1,0-.3.3,0,.3-.2.3-.5.2-1.6-.1-3.5,0-5.1,0-.3-.2-.2-.3-.2-.2-.1,0,0-.4-.2s-.8-.2-1.2,0c-.1,0-.3,0-.4,0,0-.1,0,0,0-.2.6,0,.5-1.1.9-1.2,1.4-.2,3.3.2,4.6,0Z"/>
    <path class="st10" d="M79.6,137.6s.2,0,.3,0c.1,0,.1,1.5,0,1.7s-.1.3-.2.3h-1.6c-.3,0,0,.9,0,1.1s0,.4,0,.6c0,1.4,0,2.9,0,4.3,0,0-1.7.2-1.9.2s-.2-.2-.2-.3h0l1.8-.2v-6.1h1.8v-1.6Z"/>
    <path class="st12" d="M83,140.9s0,0,0,0c0,0,.2.4.3.4-.5-.2-1,0-1.2.5-.2.9.1,2.5,0,3.5s0,.3-.3.4-1.3.2-1.4.2c-.3,0-.2-.2-.3-.4,0,0,.1,0,.2,0,.5,0,1-.2,1.5-.2.1-.1-.1-3.2,0-3.8s.6-.8,1.1-.6Z"/>
    <path class="st15" d="M90.1,139.5c-.2.4-.8,0-1,0-.9,0-2.1.6-2.5,1.4s-.3,1.3-.3,2.2,0,.3-.2.4c-.9-2.7,1.4-5,4-4Z"/>
    <path class="st12" d="M84.7,139.8c.4.3.6.7.7,1.2.2,1.3,0,3,0,4.3,0,0-.1.2-.2.2s-1.4.2-1.5.2c-.3,0-.2-.3-.2-.4l1.6-.3c-.1-1.7.3-3.7-.3-5.3Z"/>
    <path class="st15" d="M79.5,137.4v.2s0,0,0,0c-1.3.3-3.3,0-4.6,0-.4.1-.3,1.2-.9,1.2,0-.2.4-1.6.5-1.6,1.6.1,3.5-.2,5.1,0Z"/>
    <path class="st10" d="M86.7,144.7c.8.7,1.8.9,2.8.8s.7-.2,1.1-.3,1-.6,1.1-.6c.5,0-.2.6-.4.7-1.4.9-3.7,1-4.7-.5Z"/>
    <path class="st10" d="M88.3,143.7c0,0-.1,0-.3,0,0,0,0-.1,0-.2l3.8-2.4s.5,0,.2.5l-3.7,2.2Z"/>
    <path class="st15" d="M75.9,145.1c-.1-1.7,0-3.8,0-5.5v-.3c0,0,.3,0,.3.2-.1,1.6.2,3.5,0,5.1s0,.4-.3.5Z"/>
    <path class="st6" d="M91.8,141l-3.8,2.4c0-.1-.1-.2,0-.3.1-.1.1-.1.3-.3s.4,0,.3-.3c0,0,0,0,0,0,.1,0,.2,0,.2-.2,0,0,0,0,0,0,.2,0,.2,0,.2-.2,0,0,0,0,0,0,.2,0,.2,0,.2-.2,0,0,0,0,0,0,.2,0,.2,0,.2-.2,0,0,0,0,0,0,.2,0,.4,0,.3-.3,0,0,0,0,0,0,.2,0,.2,0,.2-.2,0,0,0,0,0,0,.2,0,.2,0,.2-.2,0,0,.2,0,.3,0,.2,0,.2,0,.2-.2,0,0,0,0,0,0,.2,0,.3-.2.5-.3,0,0,.1.2.2.3Z"/>
    <path class="st15" d="M90.7,143.3c.1.4-.6.7-.9.8s-1.4.3-1.4-.3c1,.2,1.3-.1,2.3-.5Z"/>
    <path class="st10" d="M74.3,139.2c.4,0,.8.2,1.2,0,.3,0,.2,0,.4.2v.3c-.4,0-1.8.2-2-.2s0-.2,0-.2c.1,0,.3,0,.4,0Z"/>
    <path class="st10" d="M81.6,137.4c0,0,.2,0,.3,0v2.3c0,0-.1.2-.3.3,0,0,0-.2,0-.3,0-.8,0-1.6,0-2.3Z"/>
    <path class="st7" d="M91.7,140.8c-.2.2-.3.3-.5.3.1-.3.2-.5.2-.8.2.2.2.3.3.4Z"/>
    <path class="st17" d="M79.5,137.4c.3,0,.1.1.2.2,0,0-.1,0-.2,0v-.2Z"/>
    <path class="st10" d="M91.7,144.4c0,0-.1,0,0-.2s.1,0,0,.2Z"/>
    <path class="st10" d="M86.6,144.6c0,0,0,0-.2-.2l.2.2Z"/>
    <path class="st17" d="M112.8,136.3c.5,0,1.2.6,1.3-.3.3-3-.4-6.6,0-9.7,0-.6-.2-3.7,0-4s.4-.1.6-.1c1.6-.1,3.3,0,4.9,0s1.2,0,1.4,0,.4-.4.4,0c0,0,0,0,0,0-.2,0-.2,0-.2.2,0,.4,0,1.2-.1,1.6-.3,7.8-.4,15.6-.8,23.3s.1,2.1-.2,3c-1.7.1-3.4,0-5.1,0s-.3,0-.3.2c-.1,0-.2,0-.3,0,.3-1,.9-1.8,1.3-2.8.5-1.4,1.2-4.8.4-6.1s-.5.5-.7.6,0-.4-.3-.3c0,0,0-.1,0-.2.6-.8.4-2.2.1-3.2-.4-1.3-.7-2.2-2.3-2.2,0,0,0-.2,0-.3Z"/>
    <path class="st15" d="M130.8,120.3c0,.2,0,.3,0,.5s-.2.3,0,.5c2.2,3.9,4.2,7.9,6.5,11.7,0,.2.6,1,.7,1,.1,0,.5,0,.7,0,0,0,0,.2,0,.3,0,.4,0,.8.5.9s.6-.2,1-.2c2.7-3.8,5.1-7.8,7.7-11.6.2-.3.5-.9.9-.9-.1.6.2,1.5.3,2.1,1.4,8,3.2,15.9,4.6,23.8.1.7.2,1.4.3,2.2,0,.2-.1.3-.3.3-2.2,0-4.4-.2-6.6.3-.3-2.5-.8-4.9-1.2-7.4s-.2-1.1-.3-1.7,0-.2,0-.3c0,0,0-.1,0-.2.2,0,.2,0,.2-.2.2-.7.5-1.8-.4-2.1s-1.4.3-1.7.9-.7,1.7-1,2.5,0,0,0,0c-.2,0-.2.2-.3.3-.6,1.1-1.7,3.3-2,4.4s0,0,0,0c-.3,0-.1.1-.2.3s0,0,0,0c-.2,0-.2.1-.2.2-.3.6-.8,2-1.1,2.4-.7.8-1.2-.2-1.4-.7-1.2-2.5-2.7-5.7-3.6-8.2s-.3-1.4-.6-1.8c-.5-.7-1.7-.6-2,.2s0,.4,0,.4-.1,0-.2,0c0,0,0,.2,0,.2,0,0,0,.2,0,.2,0,0-.1,0-.2,0,0,0,0,.2,0,.2,0,.2-.3,2.2-.3,2.3s-.1,0-.2,0c0,0,0,.2,0,.2,0,0,0,.3,0,.3s-.1,0-.2,0c0,0,0,.2,0,.2,0,0,0,.3,0,.3s-.1,0-.2,0c0,0,0,.2,0,.2,0,.1-.1,1.4-.2,1.4s-.1,0-.2,0c0,0,0,.2,0,.2,0,0,0,.3,0,.3s-.1,0-.2,0c0,0,0,.2,0,.2,0,0,0,.3,0,.3s-.1,0-.2,0c0,0,0,.2,0,.2,0,0,0,.3,0,.3s-.1,0-.2,0c0,0,0,.2,0,.2,0,.4-.3,2.5-.4,3-.2,0-.3.1-.3.3,0,0-.1,0-.2,0-.1-.1-.3,0-.5,0-1.3,0-2.8,0-4.1,0s-.3,0-.3.2c-.6,0-1,.4-1.6.5,0-.2,0-.3,0-.5.3,0,.9-.1,1-.4,1.8-8.9,3.6-17.9,5.4-26.8s.1-1.8.9-2.9,0-.4.3-.5.1,0,.2,0ZM130.6,120.9c-.1-.1-.2.1-.2.2-.4,1-.5,2.8-.8,3.9-1.4,6.8-2.8,13.7-4.1,20.5s-.5,3.5-1.1,5.1c.2,0,.4-.1.6-.2,1.3-.1,3,.2,4.3,0s.2,0,.2,0l1.7-10.5c.3-1.2,2.3-1.3,2.7-.3s.2.8.3,1.2l4.2,9.6c.3.1.5,0,.6-.2l4.8-10.4c.4-1,2.5-1.4,2.7-.2s-.5,1.9-.4,3c.1,2.4.9,5.1,1.1,7.6.2.9,1.1.3,1.7.2s4.5.1,4.7,0,0-.1,0-.2c-1.8-8.9-3.4-17.8-5.2-26.7,0-.1.1-.6,0-.6-.1-.2-.1,0-.2.1-.3.5-.6,1.1-.9,1.6-2.3,3.5-4.7,7-7,10.5-.5.6-2.7.6-2.3-.5s.3-.2.3-.5c-.2,0-.4.3-.6.2s-.4-.4-.5-.5c-2.1-3.7-4.2-7.4-6.3-11.1s-.6-.9-.7-1.2.1-.7,0-.7Z"/>
    <path class="st12" d="M123,150.5c0,.1,0,.4,0,.5s0,.3,0,.5-.1.2-.2.3,0,.2,0,.3c.2,0,.4,0,.6,0,0,.4.2.8.5.9,2.2-.1,4.6.2,6.7,0s.9-.4,1-1c.6-2.8.8-6,1.4-8.8s.1-1,.6-.9c1.3,3,2.7,6.1,4.1,9.1s0,.6.5.7c.1.8,1.5,1,2.1.6s1.4-2.4,1.7-3.1c1-2.2,1.9-4.3,3-6.4s.3-.7.5-1,0-.2.3-.2c0,.5.2,1.1.3,1.7-.2-.3-.4-.5-.7-.1-1.4,2.8-2.5,5.9-4,8.6s-.5,1-1.2,1.2-1.5.1-1.9-.2-1-1.5-1.2-2.1c-1.1-2.3-1.9-4.8-3-7s-.3-.6-.5-.7-.1,0-.2.2c0,.2-.2.5-.2.6-.5,2.6-.7,5.3-1.2,7.8s-.2,1-.7,1.2-1.9.1-2.6.1c-1.4,0-3,.2-4.3,0s-.8-.2-1.4-.6-1,.4-1.5.4c-2.1-.2-4.5.2-6.6,0s-1.5-.4-1.5-1.5c.2,0,.5,0,.7,0,0,.5.3.7.7.8,2.1.2,4.7-.2,6.9,0,.9-.1.7-1.6.7-2.3.4-8.6.6-17.2.8-25.9s.2-1.6,0-2.3-.3-.6-.5-.5c0-.2,0-.4,0-.6s0,0,0,0c.3,0,.7.2.8.5.4.7.1,2.4,0,3.2-.2,8.2-.6,16.4-.8,24.7s-.3.9.2,1.1Z"/>
    <path class="st8" d="M179.4,109.8c.2.5-.2.7-.5,1s0,.2.2.3.3.5.4.7c.3.4.6,1,.9,1.4.7.8,2.3,2.3,2.7,3.2s0,.3,0,.4c1.1-.2.8-1.9.8-2.8s0-.3,0-.5c.2,0,.2,0,.2.2.1.3.3.9.3,1.2s0,0,0,.1c0,1.3-.1,3.3-1.4,4s-.5,0-.7.1-.8.9-1.1,1.1-.3.1-.3-.1c0,0,0,0,0,0s0,0,0,0c0,0,0-.2,0-.3s.2,0,.3-.1c.3-.3.9-.8.3-1.1s-.6.4-.8.6-.5.3-.6.4c-.2,0-.3,0-.5,0-.5,0-1.4.7-1.9.9s-.4,0-.4,0c-.3.3.7,0,.7,0,.2,0,.9-.6.9,0-.9.5-1.3.5-2.3.7-.4-.2-.9.3-1.2-.3.2,0,.6.1.5-.2l-1.3-.2c0,0,0-.2,0-.2l-.8-.6v2.9c.1,0,.4-.1.5-.2.2-.2,0-.6.4-.5,0,.2,0,.3,0,.5-.2.1-.2.3-.3.4-.2.2-.4.4-.7.5,0-.8-.1-3,0-3.7s1.3-.3,1.8-.4,1.4-.1,2-.3c-.2.2,0,.4,0,.6,0,.4-.8.3-1.2.3-.1.1,0,.2.1.2.2,0,1.7-.3,1.8-.3l-.4-.8s.4-.2.4-.3c.4-.3.4.2.5.2.2.1.6-.3.7-.5.3-.4.3-1,.3-1.5s0-.7,0-1.1h-.5s0,0,0-.2c.3,0,.9,0,.8-.3,0,0,.1,0,.2,0,0,.3,0,1.4,0,1.8s-.2.6-.3.9c.2,0,.1,0,.2-.2.9-1.7,0-3.8-1.3-5.1s-4.4-1.2-5.8-.2-.4.3-.4.4c-.3.1-.7.5-.9.5,0-.5-.3-.3-.6-.4s-.4-.2-.6-.3-.7,0-.7,0c-.3,0,0,.5,0,.5h-.8c.6-.2.3-.2.3-.4,0-.5,1.5-1.6,2-1.8,2.4-1.5,5.1-2,7.8-1.3ZM176.9,110.4c0-.1,0-.2-.1-.3-.3-.2-2.1.1-2.5.2s-1.3.4-1.8.7-.3,0-.2.2.3,0,.3,0c.4,0,1.2-.5,1.7-.6.8-.2,1.7-.4,2.6-.4ZM176.3,119.9c-.2,0-.7-.1-.6.2.2,0,.7.1.6-.2Z"/>
    <path class="st18" d="M130.6,119.9h0v.4c-.3.1-.2.4-.3.5-.8,1.1-.7,1.6-.9,2.9-1.8,8.9-3.5,17.9-5.4,26.8-.1.3-.7.4-1,.4,0-.1,0-.4,0-.5s0,0,0-.2c2-10.1,4-20.3,6-30.4.5,0,1.1,0,1.6,0Z"/>
    <path class="st12" d="M109.9,135.5c.6,0,.8.6,1.2.9s.7.5,1,.8.4.7.7.5.2-.4.2-.5h0c.3.6.8,1.2,1.1,1.8s.6,1.6.8,2.1.1.7.2.8,0,.1,0,.2c0,.6.1,1.5,0,2.1,0,1.3-.5,2.8-1.1,3.9s-.7,1-.8,1.2,0,.5,0,.8,0,.2,0,.4c-.2,0-.3,0-.4.1-.5.4-1.1,1.1-1.7,1.5-3.6,2.8-9.2,4.7-13.6,5.8s-3.7.9-5.1,1-1-.1-1.4-.6c-.9-1.7-2.4-3.4-3.3-5.1s-.4-.8-.2-1.2c0,0,.2.1.3.2,0,.2.2.4.3.5,1.1,1.6,2,3.5,3.2,4.9s.4.7,1.2.7c1.3,0,3.2-.6,4.5-.9,4.8-1.2,12-3.5,15.5-7.3,2.2-2.4,2.6-6.1,1.4-9.1s-.2,0-.2,0c-.4-1-.8-1.7-1.3-2.6s-.5-.7-.9-1.2-1-1-1.4-1.5Z"/>
    <path class="st11" d="M184.6,115.2c0,.3,0,1,0,1.3s-.1.9-.2,1.2-.5,1-.5,1.2.4.4.4.6c-.3.4-.7.8-1,1.2,0,0,0,0,0,0s0,.1,0,.2c-.2,0-.7,0-.9,0,0-.4.1-.2.2-.3.6,0,.4-.2.4-.6s.1-.3.2-.4c-.2-.1-.5.3-.6.5-.2.2-.7.4-.6.8.1,0,.3,0,.4,0,0,.1,0,.2,0,.3-.1,0-.5-.2-.6-.3s0-.3-.2-.3c0,.2,0,.4,0,.5s-.1.2-.2.4c-.1,1.2,1.9,2.7,2.2,3.9s-.3,1.9-1.3.7-.2-.4-.3-.5c-.2-.2-.4-.2-.6-.4s-.1-.6-.3-.7v.7c0,0-.3,0-.3,0,0,.5,0,1,0,1.5s0,.2,0,.3c-.8,0-.5,0-.6.4s-.1.3-.2.3c0,0-.3.2-.3.5s.2.3.1.5-.5.5-.6.5c-.3,0-.3-.2-.5-.2s-.7.3-.9.3-.4,0-.6.1-.7,0-.7,0,0,.3,0,.3c-.2.2-1.4-.2-1.7-.3,0-.2.1-.2.3-.2s.3,0,.3,0c-.9-.2-1.7-.7-2.3-1.4h-.3c0,.1-.4-.1-.4-.1-.1,0-.2.3-.4.3v-.9c.2-.2.2-.5.6-.3.9,1.2,2.1,2.1,3.6,2.3,2.8.2,4.7-1.2,3.9-4.1.2,0,.5-.4.5-.5,0-.3-.5-.6-.7-.8s0-.1,0-.2,0-.2,0-.3-.2,0-.3-.1c-.5-.2-1.3-.5-1.9-.5.3-.2.8,0,1.2,0,0-.3,0-.1-.2-.2-.5-.2-1.9-.4-2.4-.3s-.4.1-.6.3-.1,0-.2,0c0-.2,0-.3,0-.5,0-.4,0-.9,0-1.3l1.3.2c0,.3-.3.1-.5.2.2.5.8,0,1.2.3-.2,0-.5.3-.8.2v.3c1.4,0,2.7.2,3.9.8s.7.6,1,.5c.6-.9-.5-1.5-.1-2.5s.2-.2.2-.2c0,.2.1.2.3.1.3-.2.9-1,1.1-1.1s.3.1.7-.1c1.3-.8,1.4-2.7,1.4-4s0-.1,0-.1c0,0,.2.2.2.3ZM181,124.6s-.2-.4-.3-.3.2.4.3.3Z"/>
    <path class="st18" d="M103.5,110.1c0,.2,0,.3,0,.4,0,.2-.1.4-.3.5-.5.6-2.4.9-3.2,1.2-4.6,1.6-10.9,4.7-13.1,9.2s-.4,1.3-.6,1.5-.5-.2-.8,0c.2-3.4,3.5-6.2,6.1-7.9s7.7-3.8,11.8-4.8Z"/>
    <path class="st4" d="M122.6,121.1c0,.2,0,.4,0,.6-.3,9.4-.6,18.8-.9,28.2s0,1.3,0,1.9c-2.4,0-4.8,0-7.2,0s-.4,0-.5,0-.5-.2-.7,0c0-.1,0-.3,0-.4,1.3-.4,2.7-.2,4.1-.2s.8,0,1.2,0,2.2,0,2.4-.3.2-1.2.2-1.5c.4-7.6.4-15.2.7-22.8s0-4.3.4-4.9.2-.5.5-.4Z"/>
    <path class="st15" d="M103.5,110.5s0,0,.1,0c0,.2,0,.4.2.3,0,0,0,.2,0,.3-.3,0-.1.5,0,.7.4.8,1.3,1.9,1.8,2.7s.6.7,0,1.1-1.7.5-2.4.8c-1.7.7-3.5,1.5-4.6,2.9s0,.1-.2.2c-2.1,1.7-2.1,4.7-.4,6.8s1.9,1.8,2.5,2.1.1,0,.2,0c0,.2.4.4.5.6s.6.5.9.5c0,0,0,0,.2.2s0,.1,0,.2.2,0,.2,0,.1,0,.2,0c0,0,0,0,0,0s0,0,0,0c-.7,0-1.2-.7-1.7-1.1-2-1.4-3.9-2.4-4.4-5-.8-4.5,3.5-6.7,7-8s1.8-.6,1.9-.7,0-.2,0-.3c-.3-.7-2-2.7-2-3.3s0-.2,0-.4c-.3,0-.4.3-.7.4-1.4.5-3,.9-4.4,1.4-3.7,1.5-9.4,4.5-11.1,8.3s-.5,2-.6,3.2c-.4.1-.5-.4-.9-.5,0,.2,0,.3.1.5.2.4.8.9,1.2,1.3,1.2,1.6,2.3,3,3.7,4.4,2.7,2.5,10.4,7.2,11.4,10.3s.4,2-.3,2c.1-.5.3-.8.2-1.4-.2-1.7-2.7-3.8-4-4.8-4-3.3-8.6-5.9-11.4-10.4l-1.1-1.1c0-.8-.2-1.4-.2-2.3.3,0,.5.3.8,0s.5-1.1.6-1.5c2.2-4.6,8.5-7.6,13.1-9.2s2.7-.6,3.2-1.2.2-.4.3-.5Z"/>
    <path class="st12" d="M170.9,138c1.6,1.1,3,2.4,3.7,4.4,2.1,5.8-4.8,9.4-9.3,10.7-1.6.5-5.5,1.4-7,1.2s-1.1-1.6-1.6-1.7-.4.6-.9.8-1.2,0-1.8,0c-1.5,0-3.1,0-4.6,0s-2,.2-2.2-1.1,0-.3,0-.3h.5c0,.4.2.7.6.8h7c.9-.4.2-1.6.3-2.3s.2-.2.3-.3c0,0,.1,0,.2.2.4.8.9,1.6,1.3,2.4,0,0,.2,0,.3,0,0,.4.6.8,1,.8,1.2,0,4.1-.7,5.3-1,4.5-1.2,12.1-4.5,9.9-10.4s-.4-.6-.4-.6c-.4-.8-.6-1.2-1.1-1.8s-.6-.8-1.1-1.3-.4-.4-.6-.7Z"/>
    <path class="st15" d="M122,120.9c0,.5-.3.7-.6,1s-.2.1-.2.2c0-.4-.3,0-.4,0s-1.1,0-1.4,0c-1.6,0-3.4-.1-4.9,0s-.5,0-.6.1c-.2.3,0,3.4,0,4-.3,3.1.4,6.7,0,9.7s-.7.2-1.3.3c0-4.7,0-9.7-.2-14.4.3,0,.4.2.7.2s.4-.2.6-.2c.5,0,1.2,0,1.7,0,1.6,0,3.6.2,5.1,0s.7-.7,1.2-.9Z"/>
    <path class="st18" d="M102,146.5s0,0,0,0c-.2,0-.2,0-.2.3,0,0,0,0,0,0-.1,0,0,0-.2.2-.3.4-.6.7-1,1-.2,0-.3,0-.3.2,0,0-.2.2-.3.3-.2,0-.5,0-.4.3-.1,0-.2.1-.3.2-.4.2-.9.3-1.2.6,0,0,0,0,0,0-.2,0-.8.2-.8.4,0,0-.2,0-.3,0-.1,0-.3,0-.3.2,0,0-.1,0-.2,0-.2,0-.7.1-.7.3-1.9.5-4.1,1.2-6,1.5s-1.2,0-1.9,0c-.2-.1-.4-.3-.7-.3,0-.1-.2-.2-.2-.3,3.3-.6,6.7-1.2,9.8-2.5s5-2.5,4.9-4.7h0c.3,0,.7-.3.8.1.2.9-.2,1.6-.6,2.4Z"/>
    <path class="st18" d="M166.6,120.1c0,0,0,.2,0,.3s0,.3,0,.3-.1,0-.2,0c-.1.2-.2.4-.3.6,0,0-.1,0-.2,0-.8.2-1.7.3-2.4.7,0,0-.1,0-.2,0-.8,0-2.3.8-3.1,1.1s-.3,0-.2.2c0,0-.1,0-.2,0-2.5.6-6,3.7-6.9,6.1l-.9.8c0,0,0-.1,0-.2,0-.4.1-1.1,0-1.3.3-.4.3-.8.5-1.2,1.9-3.8,8.3-6.3,12.2-7.2s1.2-.3,1.8-.3Z"/>
    <path class="st18" d="M149.1,121.4c0,.1,0,.2,0,.3s0,.1,0,.3c-.2,0-.1.2-.2.3s0,.2,0,.2c-.4,0-.7.6-.9.9-2.6,3.8-5,7.8-7.7,11.6-.4,0-.6.4-1,.2s-.4-.5-.5-.9c.1,0,.2,0,.3,0,0,0,0,.3.3.1s.2-.5.3-.6c2.8-4.1,5.5-8.2,8.2-12.4.4,0,.9,0,1.3,0Z"/>
    <path class="st5" d="M110.2,118.2l.2,14.7c-2-1.6-4.1-3-6.1-4.6s-4-3.2-4-4.9,1.5-2.2,2.5-2.8c2.3-1.2,4.9-1.9,7.4-2.5ZM101.3,124.7c.1.2.2.3.3.4.3.3.4.5.7.8,1.9,2,4.2,3.4,6.4,5s0,.1,0,.2c.4.3.8.6,1.3.9,0-.6,0-1.2,0-1.8s0-.2,0-.3c0-.5,0-1,0-1.5,0-2-.1-4-.2-5.9s0-.6,0-.8,0-.5,0-.8,0-.1,0-.3c0-.5-.2-1.2,0-1.8-.1-.1-3,.8-3.4.9-1.4.5-3.1,1.1-4.3,2s-1.6,1.6-.7,3Z"/>
    <path class="st12" d="M85.9,125.8c.3,1,.6,1.5,1.2,2.3,2.7,4.4,7.8,7,11.6,10.4s1.9,1.7,2.4,2.5.4.8.6,1.2,0,.6.3.6c0,0-.2.2-.2.3s0,.3,0,.4,0,.3,0,.5h0c0-1.8-2.7-3.9-4-5-4.1-3.4-11.4-7.7-12.1-13.5s0-.2,0-.2c0,.2.1.3.2.5Z"/>
    <path class="st6" d="M122,120.6c.2,0,.4,0,.6,0,0,.1,0,.3,0,.4s0,0,0,0c-.3,0-.4.2-.5.4-.4.7-.4,4-.4,4.9-.3,7.6-.3,15.2-.7,22.8s0,1.3-.2,1.5c-.2.4-2,.3-2.4.3s-.8,0-1.2,0c-1.4,0-2.7-.1-4.1.2,0-.1,0-.3,0-.3.3,0,1.1-.4,1.3-.4h5.6c.5,0,.4-1.7.4-2.1s0-.1,0-.2l.9-26.5c.3-.3.6-.5.6-1s0-.2,0-.3Z"/>
    <path class="st7" d="M164.3,133.2c.3.2.9.5,1.2.8s0,.2.2.2c1.2,1.2,3.8,2.9,5.3,3.9.2.2.4.5.6.7.2.6.8,1.2,1,1.8,2.3,6.8-5.5,9.6-10.6,10.7s-2.5.6-3.5.6-1.4-1.2-2-2.1-.4-.3-.4-.6c.1,0,.2,0,.3,0s.2,0,.3,0c0,.3,0,.1.2.2l1.1,2c.2.2.5.2.7.2,1,0,2.4-.4,3.4-.6,5.4-1.2,13.1-4.1,9.8-11.1s-.7-1.4-1.3-1.7c-.8-1-3.7-3-4.9-3.8s-4.1-2-4.4-3.8c-.5-3,1.8-4.5,4.2-5.5s2.1-.7,2.2-.8c0-.2,0-.3,0-.5-.2-.6-1-1.4-1.1-1.9s.2-.6.2-1,0-.1,0-.2c0,0,0-.3,0-.3.3.3.2.9.3,1.3.2.7,1,1.7,1.2,2.4s-.1.4-.4.6c-1.9.9-4.5,1.3-5.8,3.3s.4,4,2.3,5.3Z"/>
    <path class="st15" d="M102.9,130.2s.1,0,.2,0c1.8.9,3.7,3,5.4,4,0,0,0,.1,0,.2,0,.2,0,.4.4.3,0,0,0,0,0,0,.6,1,1.7,1.6,2.3,2.8,1.3,2.8,2,6,.6,8.9-2.1,4.4-10.7,7.2-15.1,8.3s-3.9,1.1-5.2,1.1-.9-.6-1.2-1.1c-.5-.7-1-1.8-1.5-2.4s-.5-.3-.5-.5c.2,0,.6.2.8.3.7.4,1.7,2.7,2.3,3.4.2.1,1.2-.1,1.5-.2,5.3-1,14.3-3.6,17.9-7.8s1.6-7.2-.1-10.3-5.6-4.9-8-6.9c0,0,0-.1,0-.2,0,0,.2,0,.3,0Z"/>
    <path class="st6" d="M149.7,121.7c0,0,0,.2,0,.3-.4,0-.3.7-.3,1,.1,2.1,1.1,4.6,1.3,6.7,1.4,5.6,1.9,11.8,3.3,17.4s.2,1,.6,1c0,.2.2.6.3.9-.7,0-.2,1.1-.2,1.5s.1,1-.5,1h-6.1c-.2,0-.6.3-.9.3,0,0,0-.2,0-.3.5,0,.9-.3,1.3-.3,1.6-.2,3.7.2,5.3,0s.4-.9.4-1.5c-.1-1.2-.2-1.5-.5-2.5-1.9-7.9-2.9-16.3-4.6-24.2,0-.3.2-.5.2-.8s0-.1,0-.2c.2,0,.2-.3.3-.4,0,0,.2.2.2.3Z"/>
    <path class="st12" d="M104,110.5c.2.1.4.1.6.3.7.6,2.7,4,3.3,5s.1,0,.2.2c1.1,2-.4,1.9-1.9,2.4-2.2.8-6,2.2-7,4.6s1.1,4.5,2.6,6.1.7.4.8.9c0,0-.1,0-.2,0,0-.1-.1-.2-.3-.2,0,0-.1-.1-.2-.2-.4-.4-.8-.7-1.2-1.1-.6-.6-1.8-1.7-2.1-2.4s-.1-.3-.2-.5c-1.3-5.1,4.9-6.7,8.4-8s.9-.4.6-1.1-.5-.8-.8-1.2,0-.3-.2-.4c-.9-1.5-1.9-2.9-2.7-4.4Z"/>
    <path class="st16" d="M172.9,113.1c.4-.2,1.1-.6,1.5-.6s.2,0,.1.2-.9.4-1,.5c-.3.2-1,.7-1.1,1s0,.1.2.1c.5,0,1.6-1.2,2.3-1.4s1.5-.2,1.9-.1,0,.1.1.2c.6.2,1.7.6,1.9,1.2s0,.3,0,.5.4.6.5.7,0,.3,0,.3c0,0,0,.2,0,.3,0,.2,0,1,0,1.1h.5c0,.4,0,1-.3,1.4-.4.1-.7.3-.7-.3.5-.7.3-1.8,0-2.5s-.2-.5-.3-.7-.2,0-.3-.1c-.5-.4-.5-.5-1.2-.7-2-.5-3.3.5-4.7,1.8h-.4s-3.9-2.2-3.9-2.2c.2,0,.5.3.7.2s.3-.3.6-.2.3.1.4.2c.3,0,.8,0,1,.2s.8.7.6.3-1-.7-.8-.8c.4-.1.8.2,1.1.2s.6-.4.9-.5Z"/>
    <path class="st10" d="M185.8,123.6c2.6,3.9.9,8.9-3.2,10.9s-9.8,1.4-13.4-1.8-.9-.8-1-1.2c.2.2.5.4.7.5s0,.1.2.2c1.4,1.1,2.6,1.9,4.3,2.4,3.7,1.1,8.9.4,11.5-2.6s.6-.7.9-1.2.5-1.1.5-1.3c.6-1.6.6-3.6-.2-5.1,0-.3-.1-.5-.3-.8Z"/>
    <path class="st11" d="M176,108.5c.1-.1.3,0,.5,0,2.8,0,5.3.6,7.2,2.7-.1.5.6,1,.6,1.3s-.3.5-.3.7l-.4-.4c0-.2-.1-.3-.2-.4-1.1-1.5-2.2-2.1-3.9-2.5-2.7-.7-5.4-.2-7.8,1.3s-1.9,1.3-2,1.8c-.3,0-.6,0-.9.1s-.6,0-.6.3c-.3-.4.5-1,.8-1.3.4.5.9-.3.7-.7.7-.7,1.1-.9,1.9-1.4,0,.5-1.9,1.5-1.5,1.8.5.1.9-.4,1.3-.7s.7-.5,1.1-.7.8-.4,1.2-.5.6-.2.8-.3,0,0,0,0c0,0,.2,0,.3,0,.4,0,.8-.1,1.3-.2s.7,0,1.1,0c.6,0,1.1,0,1.8.1s.2.1.2,0c-.2,0-.3-.4-.4-.5-.5-.2-1.1,0-1.7-.2-.1,0-.2,0-.2,0,0,0-.2,0-.3,0,0-.1-.3-.3-.4-.3Z"/>
    <path class="st7" d="M109.2,134.9c0,0,.1.1.2.2,0,.1.1.3.3.3,0,0,.1.1.2.2.5.5,1,1,1.4,1.5l.8,1.5c1.8,4.7,1.1,8.4-2.9,11.4,0,0-.2,0-.2.3,0,0,0,0,0,0-.2,0-.5.1-.4.3-.3.2-.6.4-.9.6s-.6,0-.6.3c0,0,0,0,0,0-.8.3-1.5.7-2.2,1s-.3,0-.2.2c0,0-.1,0-.2,0-3.5,1.3-8.5,3.2-12.3,3.5s-1,.1-1.5-.4c-.7-.8-1.6-2.9-2.3-3.5s-.4-.2-.6-.3-.2-.1-.3-.2-.1-.3-.2-.4c.3,0,.5.2.7.3s0,.1.2.2.2,0,.3,0c0,.3.3.3.5.5.5.6,1,1.7,1.5,2.4s.6,1.1,1.2,1.1c1.3,0,3.8-.8,5.2-1.1,4.4-1.1,13-4,15.1-8.3s.8-6.1-.6-8.9-1.7-1.8-2.3-2.8h.2Z"/>
    <path class="st18" d="M122,120.6c0,0,0,.2,0,.3-.5.2-.6.8-1.2.9-1.5.2-3.5,0-5.1,0s-1.3,0-1.7,0-.3.2-.6.2-.4-.2-.7-.2c0,0,0-.2,0-.3,0-.3,0-.6,0-.9,3.1.1,6.3-.2,9.5,0Z"/>
    <path class="st12" d="M131.2,120.3c0-.2.2,0,.3,0,.3.2.5.3.7.6,2.4,4.1,4.5,8.3,6.9,12.3s.3.5.4.5c0,.1-.2.6-.3.6-.2.2-.3-.1-.3-.1,0,0,0-.1,0-.2-.1-.4-.2-.4-.3-.6s0-.2,0-.3l-7.3-12.8s0,0,0,0Z"/>
    <path class="st6" d="M166.6,120.1s0-.1.2,0c.2.1.1.4.2.4s.1,0,.1,0c.7,1.2,1.3,2.6,1.9,3.8-.1.2,0,.5-.3.6-.8.3-1.6.5-2.4.8-1.8.7-5.3,2.4-4.1,4.9s.3.6.5.5c0,.2.2.4.3.5.1.2.3.4.4.6.3.3.7.6.8,1-1.9-1.3-4-2.7-2.3-5.3s3.9-2.4,5.8-3.3.5-.2.4-.6c-.2-.7-1.1-1.7-1.2-2.4s0-1-.3-1.3c0,0,0-.2,0-.3Z"/>
    <path class="st6" d="M103.5,110.1c.3,0,.2.3.4.4s.1,0,.1,0c.8,1.5,1.8,2.9,2.7,4.4s.1.3.2.4c-.1.1,0,.3-.2.5s-2.4.8-2.8,1c-2.8,1.1-7.2,3.2-6.7,6.9s.7,2,1.5,2.5c.3.7,1.5,1.8,2.1,2.4,0,0-.2,0-.3,0s-.1,0-.2,0c0-.2-.1-.2-.2-.3-2-1.8-4-3.3-3.2-6.3s.8-1.5,1.3-2.2c0,0,.1,0,.2-.2.6-.4,1.1-.9,1.6-1.2.9-.6,2-1.1,3-1.5s2.1-.6,2.7-1,.5-.4.2-.8c-.5-1-2-2.7-2.3-3.7s0-.2,0-.3,0-.2,0-.3c0-.2-.3-.4-.3-.6Z"/>
    <path class="st7" d="M147.2,151.4c0,0,0-.2,0-.3,2.1-.6,4.4-.3,6.6-.3.2,0,.3-.1.3-.3-.1-.7-.2-1.4-.3-2.2-1.5-7.9-3.2-15.8-4.6-23.8s-.4-1.6-.3-2.1,0-.1,0-.2c0,0,.1,0,.2,0s.1-.1.2-.2c0,.3-.1.5-.2.8,1.7,8,2.8,16.3,4.6,24.2s.4,1.4.5,2.5.5,1.3-.4,1.5c-1.5.2-3.7-.2-5.3,0s-.8.3-1.3.3Z"/>
    <path class="st12" d="M167.1,120.5c.6,0,.8.4,1.1.9.6.9,1.6,2.8,2.1,3.8s.4,1.3-.5,1.7c-1.5.6-3,.8-4.5,1.7s-.5.3-.4.6c0,0-.2,0-.3,0h0c0,0,0,0,0,0,0,0-.1,0-.2,0,0-.1-.4-.1-.5,0v.3c.1,0,.4,0,.4,0-.3,0-.2,0-.3.2-.5.6-.6,1.1-.3,1.9s1.2,1.8,1.8,2.3.1.1.2.2c-.2,0-.2-.2-.2-.2-.3-.2-.8-.5-1.2-.8-.1-.4-.6-.6-.8-1s-.3-.4-.4-.6v-1.4c.6-1.4,2.1-2.2,3.5-2.8s2.2-.6,2.9-1,.4-.6.2-1-.4-.7-.6-1.1c-.6-1.2-1.2-2.6-1.9-3.8Z"/>
    <path class="st4" d="M154.9,148.9c.2,1.1.5,2.2.6,3.3-2.6,0-5.1,0-7.7,0h-.5c0-.1,0-.3,0-.4.3,0,.7-.3.9-.3h6.1c.6,0,.5-.6.5-1s-.5-1.6.2-1.5Z"/>
    <path class="st7" d="M102,142.8c-.3,0-.2-.4-.3-.6.3,0,.2-.1.2-.3,0-1.9-2-3.7-3.4-4.9-4.4-3.7-8.7-6.1-12.2-11s0-.3-.3-.3c0-.2,0-.3-.2-.5,0,0,0-.2,0-.3l1.1,1.1c2.8,4.5,7.4,7.1,11.4,10.4s3.7,3.1,4,4.8,0,.9-.2,1.4Z"/>
    <path class="st10" d="M168.4,113.6l3.9,2.3h.4c1.4-1.3,2.7-2.3,4.7-1.9s.8.3,1.2.7.2,0,.3.1c.1.1.3.5.3.7-1.7-1.7-3.8-1.1-5.5.3s-.5.8-1.2.7c-.8-.6-3.9-1.9-4.3-2.6s0-.2,0-.2h0Z"/>
    <path class="st15" d="M114.3,150.6c-.2,0-.2.1-.6,0s-.3-.2-.4,0c-.2.1.2.2.3.3,0,0-.2.1-.3,0,0-.1-.2-.2-.2-.5s0-.3,0-.4c.4,0,.6.3.9,0s1.2-2.1,1.4-2.6c.3-.8.6-2.3.5-3.1s-.5-.2-.8-.1c0-.6,0-1.5,0-2.1.3,0,0,.4.3.3s.4-1.3.7-.6c.8,1.3.1,4.7-.4,6.1s-1,1.8-1.3,2.8Z"/>
    <path class="st10" d="M183.7,121.3c0,0-.5-.3-.5-.3,0,0,0-.1,0-.2,0,0,0,0,0,0,.3-.4.7-.7,1-1.2.6-.8,1-1.8,1.1-2.8s0-1.6,0-2.5-.4-1.5-.8-2.2c2,2.9,1.8,6.8-.8,9.2Z"/>
    <path class="st6" d="M131.2,120.3s0,0,0,0c0,.7,0,.7.4,1.4,2,4,4.5,7.8,6.7,11.7h.3c.1.3.2.3.3.7,0,0-.2,0-.3,0,0,0,0,0,0-.1s-.4-.1-.6-.3c-.6-.6-1.3-2.4-1.8-3.2-1.6-2.7-3.2-5.4-4.7-8.2l-.7-1.5c0-.2,0-.3,0-.5s.2-.2-.2-.3h0c.2,0,.4,0,.5.3Z"/>
    <path class="st12" d="M152.1,128.8c0,.3,0,.9,0,1.3-.2,0-.2-.2-.3-.3-.6-2-.7-4.6-1.2-6.6s-.2-.9-.5-.8c0-.1-.1-.3-.2-.4s0-.2,0-.3c.4,0,.9.5,1,.9.4,1.9.7,3.8,1.1,5.8s.2.4.2.5Z"/>
    <path class="st8" d="M171.7,127.1v.9c.1,0,.3-.3.4-.3s.4.2.4.2c0,0,0,.4.3.6-.3,0-.2.5-.3.6s-.7.3-.8.4-.3.6-.5.8,0,0-.2,0-.1.1-.2.2-.1.1-.2.2c-.1,0,0-.4.1-.5,0-.1.3-.4.3-.4,0-.2-.3-.1-.3-.3,0,0,0-.1,0-.2.3-.4,1-.7.9-1.3-.3.1-.6.8-1,.8s-.2-.2-.5-.2-.3.3-.5.4-.2.2-.3.3-.2.1-.3.2c.8-.8,1.6-1.7,2.5-2.5Z"/>
    <path class="st11" d="M185.8,123.6c.1.2.2.5.3.8.1.5.3.7-.1,1.2s0,.2-.3.2c-.1-1.1-.6-1.9-1.4-2.8s-.7-.6-1-.9c.1,0,.5-.4.6-.5.9.7,1.3,1.2,1.9,2.1Z"/>
    <path class="st10" d="M175.3,123.6c.2,0,.3,0,.5,0s.1,0,.2,0c.9,0,2.6.1,3.3.7s.5.5.5.8c-.2,0-.5-.3-.8-.4-.7-.3-1.7-.4-2.4-.4s-1.7.1-2.1,0-.2-.4-.3-.6c.4,0,.8,0,1.2,0Z"/>
    <path class="st7" d="M114.8,141c-.1-.5-.5-1.6-.8-2.1.2,0,0-.3,0-.4-.1-.5-.5-1.3-1.1-1.4h0s0,0,0,0h0c0-.2,0-.4,0-.5.3.2.8.2,1.1.4.8.5,1.4,3.2.9,4.1Z"/>
    <path class="st16" d="M184.5,112.1c.3.7.6,1.4.8,2.2l-.7.9s-.1-.2-.2-.3c0-.3-.2-.9-.3-1.2s0-.3-.2-.2c0,0,0,0,0,0,0,0,0-.3,0-.3,0-.2.4-.5.3-.7,0-.3-.7-.8-.6-1.3.3.3.6.7.8,1Z"/>
    <path class="st15" d="M115,141.9c0-.2-.1-.7-.2-.8.5-.9-.2-3.5-.9-4.1s-.8-.2-1.1-.4c0,0,0,0,0,0,1.6,0,1.9.9,2.3,2.2s.5,2.4-.1,3.2Z"/>
    <path class="st11" d="M169.3,113.2h.8c0,0-.2-.4,0-.4s.7,0,.7,0c.2,0,.4.2.6.3.3.1.5,0,.6.4-.3,0-.7-.3-1.1-.2-.1.1.8.6.8.8.2.4-.6-.3-.6-.3-.2,0-.7-.1-1-.2s-.3-.2-.4-.2c-.3,0-.4.2-.6.2s-.5-.3-.7-.2h0s0-.1,0-.2c.1,0,.2,0,.3,0,.3,0,.1-.1.2-.2s.1,0,.2,0c.1,0,.3.2.3,0,0,0,.1,0,.2,0Z"/>
    <path class="st15" d="M165.4,129.2c.7-.2.6.5.9.9.3-.4.2-1.1.9-.9v1.4s-.1.1-.2.1c-.2,0,0-.8-.1-1l-.4.8c0,0,0,.2-.2.2-.3,0-.4-.7-.5-.9-.1,0,0,.9-.2,1s-.2,0-.2-.1v-1.4Z"/>
    <path class="st0" d="M169.5,129.5l.2.5v.2c0,0,.4,0,.4,0,0,0,0,.2-.2.3-.2.2-.6.2-.5.6-.2,0-.8.1-.8,0s0-.2,0-.2c0,0-.4,0-.5,0,.3-.4.8-.8,1.2-1.2s.2-.1.3-.2Z"/>
    <path class="st7" d="M120.5,148.5c0,.4.2,2.1-.4,2.1h-5.6c-.2,0-1,.5-1.3.4,0,0,0-.1,0-.2.1,0,.3,0,.3,0s.2,0,.3,0v-.2c.3,0,.3,0,.5,0s.2,0,.3,0h5.5c.4-.1.2-1.3.2-1.6s0-.3.2-.3Z"/>
    <path class="st8" d="M172.4,109.4c-.1.1,0,.4,0,.4s-.7.4-.9.5,0,.2-.1.3c0,.1-.3,0-.1.4-.4.3-.7.8-1.3.7-.4-.4,1.6-1.3,1.5-1.8,0,0,.1,0,.2,0h0c.2-.2.4-.3.7-.4Z"/>
    <path class="st0" d="M173.6,109c-.2.8-1.2.5-1.3,1.4-.4.2-.7.5-1.1.7-.2-.4,0-.3.1-.4s0-.2.1-.3c.2-.2.9-.5.9-.5s-.1-.3,0-.4c.4-.2.7-.3,1.2-.4Z"/>
    <path class="st16" d="M183.2,120.9s.4.3.5.3.1.2.2.3c0,.1-.5.4-.6.5s0,0,0,0c0,0,0,0,0,0-.4-.2-.5-.4-.8-.7,0-.1,0-.2,0-.3.3,0,.7,0,.9,0Z"/>
    <path class="st0" d="M174.9,108.6c.4,0,.9.2,1.5.2s.2,0,.3,0c0,.5.4,0,.3.5-.4,0-.7,0-1.1,0,0-.3,0-.2-.2-.3-.6-.3-.7,0-1.2,0s-.1,0-.2,0c0,0,0-.2,0-.3s-.1,0-.2,0c0,0-.2,0-.3,0,.3,0,.6-.2,1-.3Z"/>
    <path class="st16" d="M174.7,122.8c-.1.5.5,0,.7.2v.7c-.4,0-.8,0-1.2,0,0,0-.1,0-.2-.3.2,0,.5-.3.7-.5Z"/>
    <path class="st14" d="M178.1,118.9l.4.8c0,0-1.6.4-1.8.3s-.3,0-.1-.2c.3,0,1.1.1,1.2-.3s-.1-.4,0-.6c.1,0,.2,0,.3,0Z"/>
    <path class="st15" d="M164.4,129.2c0,0,.1,0,.2,0s0,0,0,0c0,0,.2,0,.3,0,.3,0,.3,0,.3.3-.1,0-.5,0-.5,0,0,0,.1,1.2-.1,1.3s-.1-1-.2-1.2-.3,0-.4,0v-.3c.2,0,.3,0,.5,0Z"/>
    <path class="st16" d="M179.8,125s0,0,0,0c0-.2-.3-.6-.5-.8.3,0,.4-.3.4-.6.1.2.7.5.7.8s-.3.5-.5.5Z"/>
    <path class="st11" d="M168,130.8c0,.2.4,0,.5,0s0,.2,0,.2c-.3.3.6.1.7.4l-.4.5c-.1-.1-.5-.3-.7-.5s-.3-.3-.3-.5.1-.2.2-.2Z"/>
    <path class="st14" d="M173.9,108.9c-.3,0-.4.7-.4,1-.4.1-.8.3-1.2.5,0-.9,1-.7,1.3-1.4.1,0,.2,0,.3,0Z"/>
    <path class="st0" d="M169.6,112.9c0,.2.3.2-.3.3s-.1,0-.2,0c0,0-.2,0-.3,0,0,0-.2,0-.2,0-.2,0-.2,0-.2.2-.1,0-.2,0-.3,0s0,0,0,0c0-.2.5-.3.6-.3.3,0,.6-.1.9-.1Z"/>
    <path class="st11" d="M179.8,118.3c-.1.2-.5.6-.7.5s-.1-.5-.5-.2c0,0,.6-.6.6-.6,0,.6.2.5.7.3Z"/>
    <path class="st13" d="M168.9,112c.2-.3.4-.4.7-.7.2.4-.3,1.2-.7.7Z"/>
    <path class="st8" d="M176,108.5c0,0,.5.2.4.3-.6,0-1.1-.2-1.5-.2,0-.1.3,0,.5,0s.3,0,.4,0,.1,0,.2,0Z"/>
    <path class="st7" d="M149.6,121.4c-.1.2-.1.5-.3.4,0,0,0-.1,0-.2,0,0,0-.2,0-.3.2,0,.2,0,.4,0Z"/>
    <path class="st7" d="M103.5,110.1c0,.2.3.3.3.6s0,.2,0,.3c-.3,0-.1-.2-.2-.3s-.1,0-.1,0c0-.1-.1-.3,0-.4,0,0,0,0,0,0Z"/>
    <path class="st7" d="M108.7,134.5c0,0,0,.1.2.2,0,0,0,.1,0,.2-.3,0-.3-.1-.4-.3h.2Z"/>
    <path class="st12" d="M109.2,134.9h-.2s0,0,0,0c0,0,0-.1,0-.2,0,0,.2,0,.3,0s0,.2,0,.2Z"/>
    <path class="st12" d="M109.7,135.3c-.2,0-.2-.1-.3-.3.3,0,.3.2.3.3Z"/>
    <path class="st12" d="M103,130.3s-.1,0-.2,0v-.2c.1,0,.3,0,.2.3Z"/>
    <path class="st11" d="M175.8,108.5c0,0-.2,0-.4,0,0-.1.3,0,.4,0Z"/>
    <path class="st12" d="M108.5,134.3c.3,0,.2,0,.3.2h-.2c0,0,0-.1,0-.2Z"/>
    <path class="st7" d="M102.8,130.1v.2s0,0-.2,0c0,0,0,0,0,0s0,0,0,0c0,0,.1,0,.2,0Z"/>
    <path class="st12" d="M102.8,129.9c0,0,0,0,0,0h0Z"/>
    <path class="st12" d="M112.9,137.1s0,0,0,0h0Z"/>
    <path class="st11" d="M171.6,109.8s0,0,0,0h0Z"/>
    <path class="st16" d="M127.8,159.8c0-.3.6-2,.7-2.1.2-.1.4.2.6.3.4.2,1.5,0,1.2.8.2,0,.1,0,.2-.2.1-.2.2-.5.4-.7.1.1-.2.8-.1.8.2.2.2-.4.5-.4,0,.3-.2.6-.3.9-.2,0-.2.1-.2.2-.4.8-.6,1.9-.9,2.8-.1,0-.2,0-.2-.1,0-.9.5-1.7.7-2.6l-.2.3c-.5,1.7-.9,4-1.8,5.5s-.8.5-1.3-.2-.3-.4-.3-.6c.2-.1.2.2.4.3.4.1.7-.4.7-.7s-.1-.2-.2-.1,0,.3,0,.3c-.4.2-.6-.6-.4-.8.3-.4.8,0,.8-.7s-.2-.8-.4-.6-.4.7-.7.6c.1-.3.3-.5.4-.8.3-.7.4-1.5.6-2.1ZM130.2,159.1h0c0,0,0,0,0,0Z"/>
    <path class="st0" d="M129.5,164.4s.1.1,0,.2-.1,0-.2,0v-.2Z"/>
    <path class="st16" d="M124.8,158.8c.5-.2.8.3,1.1.4s.3,0,.5,0c.3,0,.5.4.9.4,0,0,0-.7.3-.6.1.2-.4,1.1-.3,1.2h.4c-.1.2-.7,1.8-1.1,1.7s-1.1-1.4-1.3-1.9-.3-.8-.4-1.1Z"/>
    <path class="st8" d="M124.1,157.9c.3,0,.2,0,.3.2,0,.3.1.6.2.9h0s-.2-.2-.3-.3c-.1-.3,0-.5-.2-.8Z"/>
    <path class="st8" d="M127.6,166.5c-.3,0-.3-.2-.4-.4.3,0,.3.2.4.4Z"/>
    <path class="st8" d="M125.5,162.9c0,.1.3.4.1.6,0,0-.2-.5-.2-.6h0Z"/>
    <path class="st8" d="M125.7,163.8c0,0-.1,0,0-.2s.1,0,0,.2Z"/>
    <path class="st8" d="M127.1,166s0,0,0,0c0,0,0,0,0,0Z"/>
    <path class="st6" d="M83,140.9c-.5-.2-1,0-1.1.6s0,3.6,0,3.8c-.5,0-1,.2-1.5.2,0-.4.4-.3.7-.4h0c0,0,.1,0,.1,0,.2,0,.2-.1.3-.2s.1,0,.2,0c0-1,0-2.1,0-3.1s0-.3.1-.6.3-.4.6-.4.6-.1.7.3Z"/>
    <path class="st6" d="M81.6,137.4c0,.8,0,1.6,0,2.3-.3,0-.3,0-.3-.3,0-.4-.2-2,.3-2Z"/>
    <path class="st7" d="M81.5,141.6c0,1,0,2.1,0,3.1,0,.1-.1,0-.2,0,0-1,0-1.9,0-2.9s0-.3.2-.3Z"/>
    <path class="st7" d="M82.3,140.6c0-.3.5-.2.6-.1s.6.4.2.4c0,0,0,0,0,0,0-.4-.4-.3-.7-.3Z"/>
    <path class="st7" d="M81.1,144.9h-.1c0,0,0,0,0,0,.2,0,.2,0,.2,0Z"/>
    <path class="st12" d="M89.5,140.8s.2.2.3.3c-.2,0-.3.2-.4.3-.5-.3-1.2.3-1.3.8-.1,0-.2.2-.3.3,0,0,0,0,0,0,0-1.1.9-1.6,1.8-1.4Z"/>
    <path class="st7" d="M89.5,140.8c-.9-.1-1.9.4-1.8,1.4-.3,0-.5.2-.3-.5s1.5-1.7,2.2-1.1,0,.2,0,.2Z"/>
    <path class="st7" d="M89.7,141c0,.2.1.2,0,.4s-1.5,1-1.6,1c-.4,0-.3,0-.4-.2.1,0,.2-.2.3-.3.4-.3.8-.5,1.3-.8s.2-.2.4-.3Z"/>
    <path class="st7" d="M88.1,143.1c-.1.2,0,.2,0,.3s0,.1,0,.2c0,0-.3.2-.3-.2s.2-.2.3-.3Z"/>
    <path class="st7" d="M90.2,141.7c0,.2-.2.2-.3.3,0-.2.2-.2.3-.3Z"/>
    <path class="st7" d="M88.7,142.6c0,.2-.2.2-.3.3,0-.2.2-.2.3-.3Z"/>
    <path class="st7" d="M90.4,141.5c0,.2,0,.2-.2.2,0,0,0-.1,0-.2s.1,0,.2,0Z"/>
    <path class="st7" d="M89.7,141.9c0,.2,0,.2-.2.2,0-.1-.1-.1.2-.2Z"/>
    <path class="st7" d="M89.5,142.1c0,.2,0,.2-.2.2,0,0,0-.1,0-.2s.1,0,.2,0Z"/>
    <path class="st7" d="M89.2,142.3c0,.2,0,.2-.2.2,0,0,0-.1,0-.2s.1,0,.2,0Z"/>
    <path class="st7" d="M89,142.4c0,.2,0,.1-.2.2,0-.3,0-.1.2-.2Z"/>
    <path class="st7" d="M91.1,141.1c0,.2,0,.2-.2.2,0,0-.1,0,.2-.2Z"/>
    <path class="st7" d="M90.7,141.4c0,.2,0,.2-.2.2,0,0,0-.1,0-.2s.1,0,.2,0Z"/>
    <path class="st6" d="M79.6,137.6v1.6h-1.8v6.1l-1.8.2c0-.7,1.3-.3,1.4-.7v-5.5c.4-.7,1.2-.3,1.8-.4l.2-1.1s0,0,0,0c0,0,.1,0,.2,0Z"/>
    <path class="st9" d="M75.4,139.2c-.3.2-.8,0-1.2,0,.3-.2.8,0,1.2,0Z"/>
    <path class="st15" d="M121.3,122.1c-.2.8,0,1.9,0,2.7-.3,7.7-.8,15.9-.7,23.5,0,0,0,.1,0,.2-.3,0-.2.1-.2.3,0,.4.1,1.5-.2,1.6h-5.5c0-.2.1-.1.3-.2,1.7,0,3.4,0,5.1,0,.3-1,.1-2,.2-3,.3-7.8.5-15.5.8-23.3s0-1.2.1-1.6,0-.3.2-.2Z"/>
    <path class="st7" d="M120.5,148.4c-.2-7.7.4-15.8.7-23.5s0-1.9,0-2.7,0,0,0,0,.1-.1.2-.2l-.9,26.5Z"/>
    <path class="st17" d="M130.6,120.9s-.1.5,0,.7.5.9.7,1.2c2,3.7,4.2,7.4,6.3,11.1,0,.1.3.5.5.5.2,0,.4-.3.6-.2,0,.2-.3.3-.3.5-.3,1.1,1.8,1.1,2.3.5,2.3-3.5,4.7-7,7-10.5s.6-1,.9-1.6,0-.3.2-.1-.1.5,0,.6c1.7,8.9,3.4,17.8,5.2,26.7,0,0,0,.2,0,.2-.3.2-4,0-4.7,0s-1.5.7-1.7-.2c-.2-2.5-1-5.1-1.1-7.6s.5-2.2.4-3c-.2-1.2-2.3-.9-2.7.2l-4.8,10.4c-.1.2-.4.3-.6.2l-4.2-9.6c-.1-.4-.1-.8-.3-1.2-.4-1-2.5-.8-2.7.3l-1.7,10.5c0,0-.2,0-.2,0-1.3.2-2.9-.1-4.3,0s-.4.1-.6.2c.6-1.6.8-3.4,1.1-5.1,1.4-6.9,2.8-13.7,4.1-20.5s.4-2.9.8-3.9.1-.3.2-.2Z"/>
    <path class="st6" d="M145.9,141.6c0,0,0,.1,0,.2,0-.5-.2-1.1-.3-1.6s.2-.2-.1-.3c-.5-.3-.8.4-1,.8l-4.8,10.3c-.4.6-1.3.3-1.9.6-1.4-3-2.8-6.1-4.1-9.1s-.2-.8-.3-1.1c.2,0,0-.3,0-.4-.3-.9-.9-1.6-1.3-.3-.8,3.1-.9,6.6-1.6,9.7s-.2,1-.8,1.1c-1.6.2-3.4-.2-5,0s-1.2.4-1.8.5c0-.1.2-.3.2-.3.6-.1,1-.4,1.6-.5,1.6-.1,3.3.2,4.9,0s.1,0,.2,0c.2,0,.3,0,.3-.3.1-.5.5-2.6.4-3v-.2c0,0,0-.3,0-.3v-.2c0,0,0-.3,0-.3v-.2c0,0,0-.3,0-.3v-.2c.1,0,.3-1.3.3-1.4v-.2c0,0,0-.3,0-.3v-.2c0,0,0-.3,0-.3v-.2c.2,0,.4-2.2.4-2.3v-.2c0,0,0-.1,0-.2v-.2c.1,0,.1-.3.2-.4.5-.4,1.1-.7,1.7-.2s.5,1.9.7,2.5c.7,2,1.9,4.4,2.8,6.4s.6,2.1,1.4,2.2,1,0,1.4-.7.9-1.8,1-2.3,0,0,0,0c.2,0,.1-.2.2-.3s0,0,0,0c.2,0,.2-.1.2-.2.7-1.5,1.4-2.9,2-4.4s0,0,0,0c.6-.7,1.1-3.4,2.4-3.3s.7,1.5.6,2.2Z"/>
    <path class="st10" d="M145.8,141.8c0,.1,0,.2,0,.3-.3,0-.2,0-.3.2-.2.3-.4.7-.5,1-1.1,2.1-2,4.3-3,6.4s-1.2,2.7-1.7,3.1-1.9.2-2.1-.6c.3,0,1.7,0,1.8,0l5.6-11.9c0,.5.2,1.1.3,1.6Z"/>
    <path class="st7" d="M131.6,140c.3-.8,1.5-.9,2-.2s.4,1.2.6,1.8c.9,2.5,2.4,5.8,3.6,8.2s.7,1.5,1.4.7.8-1.8,1.1-2.4,0-.3.2-.2c-.1.5-.7,1.8-1,2.3s-.5.8-1.4.7-1.1-1.6-1.4-2.2c-.9-2-2.1-4.3-2.8-6.4s-.3-2.2-.7-2.5-1.1-.2-1.7.2Z"/>
    <path class="st7" d="M130.8,120.8l.7,1.5c1.5,2.7,3.1,5.5,4.7,8.2s1.2,2.5,1.8,3.2.5.2.6.3,0,.1,0,.1c0,0,.2,0,.3,0,0,0,0,.1,0,.2,0,0-.1.1-.3,0,0,0,0-.2,0-.3-.2,0-.5,0-.7,0s-.6-.9-.7-1c-2.3-3.8-4.3-7.8-6.5-11.7,0-.2,0-.4,0-.5Z"/>
    <path class="st7" d="M142.9,142.7c.3-.8.6-1.7,1-2.5s1-1.2,1.7-.9.6,1.4.4,2.1,0,.3-.2.2c.2-.7.6-2.1-.6-2.2s-1.7,2.5-2.4,3.3Z"/>
    <path class="st7" d="M142.9,142.8c-.6,1.5-1.4,3-2,4.4s0,.3-.2.2c.3-1.1,1.4-3.3,2-4.4s.1-.4.3-.3Z"/>
    <path class="st7" d="M129.3,150.9c-1.5.3-3.3,0-4.9,0,0-.3.1-.2.3-.2,1.3,0,2.8,0,4.1,0s.3,0,.5,0Z"/>
    <path class="st7" d="M129.8,150.6c0,.3-.1.2-.3.3,0-.2.1-.3.3-.3Z"/>
    <path class="st7" d="M130.8,120.3c0,0-.1,0-.2,0v-.3c.3.1.2.2.2.3Z"/>
    <path class="st7" d="M140.7,147.5c0,.1,0,.3-.2.3,0-.2-.1-.4.2-.3Z"/>
    <path class="st7" d="M131,143.3v.2c0,0-.2,0-.2-.2,0,0,.2,0,.2,0Z"/>
    <path class="st7" d="M130.9,143.8v.2c0,0-.2,0-.2-.2,0,0,.2,0,.2,0Z"/>
    <path class="st7" d="M130.8,144.3v.2c0,0-.2,0-.2-.2,0,0,.2,0,.2,0Z"/>
    <path class="st7" d="M130.6,145.9v.2c0,0-.2,0-.2-.2,0,0,.2,0,.2,0Z"/>
    <path class="st7" d="M130.5,146.4v.2c0,0-.2,0-.2-.2,0,0,.2,0,.2,0Z"/>
    <path class="st7" d="M130.4,146.9v.2c0,0-.2,0-.2-.2,0,0,.2,0,.2,0Z"/>
    <path class="st7" d="M130.3,147.4v.2c0,0-.2,0-.2-.2,0,0,.2,0,.2,0Z"/>
    <path class="st7" d="M131.5,140.4v.2c0,0-.2-.1-.2-.2s.1,0,.2,0Z"/>
    <path class="st7" d="M131.4,140.8v.2c0,0-.2-.1-.2-.2s.1,0,.2,0Z"/>
    <path class="st10" d="M122.5,121.7c.2,0,.5.3.5.5.1.7,0,1.6,0,2.3-.3,8.6-.4,17.2-.8,25.9s.2,2.1-.7,2.3c-2.2-.2-4.7.2-6.9,0s-.7-.3-.7-.8c.2,0,.4,0,.5,0,2.4,0,4.8,0,7.2,0,0-.6,0-1.3,0-1.9.3-9.4.6-18.8.9-28.2Z"/>
    <path class="st10" d="M133.2,141.3c.1.3.2.8.3,1.1-.5-.1-.5.5-.6.9-.6,2.8-.8,6-1.4,8.8s-.4.9-1,1c-2.1.2-4.5-.2-6.7,0-.4-.1-.6-.5-.5-.9,2.5,0,5,0,7.4,0l1.9-11.9c.2.2.5.7.6,1Z"/>
    <path class="st4" d="M133.2,141.3c-.1-.3-.4-.8-.6-1l-1.9,11.9c-2.5,0-5,0-7.4,0s-.4,0-.6,0c0-.1,0-.2,0-.3.6-.1,1.2-.4,1.8-.5,1.6-.2,3.5.2,5,0s.7-.6.8-1.1c.7-3.1.9-6.6,1.6-9.7.5-1.3,1.1-.6,1.3.3s.2.3,0,.4Z"/>
    <path class="st4" d="M145.5,140.2l-5.6,11.9c-.1.1-1.5.1-1.8,0-.5,0-.4-.4-.5-.7.6-.2,1.5,0,1.9-.6l4.8-10.3c.2-.3.6-1,1-.8s.1.3.1.3Z"/>
    <path class="st0" d="M183.4,112.3c-.9.1-.8,1.4,0,1.4s.2-.3.5-.3c0,0,0,0,0,0,0,.1,0,.3,0,.5,0,.9.2,2.6-.8,2.8,0-.1,0-.3,0-.4-.4-.9-2.1-2.4-2.7-3.2s-.6-.9-.9-1.4-.3-.6-.4-.7-.4,0-.2-.3.7-.4.5-1c1.7.5,2.9,1,3.9,2.5Z"/>
    <path class="st11" d="M172.9,113.1c0-.2.3-.3.4-.4,1.4-1,4.5-1,5.8.2s2.2,3.3,1.3,5.1,0,.2-.2.2c0-.3.2-.6.3-.9s.1-1.5,0-1.8-.2,0-.2,0c0,0,0-.2,0-.3s-.2-.8-.5-.7,0,.7,0,.9c-.1,0-.2,0-.3,0,0-.1-.4-.5-.5-.7s0-.3,0-.5c-.2-.6-1.3-1-1.9-1.2s0-.1-.1-.2c-.4,0-1.5,0-1.9.1-.8.2-1.8,1.4-2.3,1.4s-.2,0-.2-.1c0-.3.8-.8,1.1-1s1-.5,1-.5c0,0,0-.2-.1-.2-.4,0-1.1.4-1.5.6Z"/>
    <path class="st16" d="M181.1,119.8s0,.2,0,.3h0c0,.1,0,.1,0,.2s-.1,0-.2.2c-.4,1,.8,1.6.1,2.5-.2,0-.7-.4-1-.5-1.2-.6-2.6-.7-3.9-.8v-.3c.3.1.6-.1.8-.2,1-.2,1.4-.2,2.3-.7s1-.7,1.5-.8.4,0,.5,0Z"/>
    <path class="st13" d="M175.2,122.4c0,0,0,.3.1.3.6-.1,1.4-.1,2,0s1.4.3,1.9.5c0,.3.2.3.4.4,0,0,0,.1,0,.2,0,.3,0,.7-.4.6-.7-.5-2.4-.6-3.3-.7h0c0,0-.1,0-.1,0-.2,0-.3,0-.5,0v-.7c-.1-.1-.8.4-.7-.2.1-.1.1-.3.3-.4s.1,0,.2,0Z"/>
    <path class="st11" d="M181.1,119.8c0-.1-.3-.1-.5,0-.5,0-1.1.5-1.5.8,0-.6-.6,0-.9,0s-1,.3-.7,0,.3,0,.4,0c.4-.3,1.4-.9,1.9-.9s.3.1.5,0,.5-.3.6-.4c.2-.2.4-.8.8-.6.6.4,0,.8-.3,1.1s-.2.1-.3.1Z"/>
    <path class="st0" d="M175,121.9c-.4,0-.2.3-.4.5s-.4.2-.5.2v-2.9l.8.6c0,0,0,.2,0,.2,0,.4,0,.9,0,1.3Z"/>
    <path class="st14" d="M176.9,110.4c-.9,0-1.8.1-2.6.4s-1.2.5-1.7.6-.3,0-.3,0c-.1-.1.1-.2.2-.2.5-.3,1.2-.6,1.8-.7s2.2-.5,2.5-.2.1.1.1.3Z"/>
    <path class="st11" d="M179.5,115.8h.5c0,.3,0,.6,0,1h-.5c0,0,0-.8,0-1Z"/>
    <path class="st14" d="M180.3,115c0,.1,0,.3,0,.3,0,.3-.6.2-.8.3,0,0,0-.3,0-.3.1,0,.2,0,.3,0,.2,0,.3-.2.5-.2Z"/>
    <path class="st14" d="M176.3,119.9c0,.3-.4.1-.6.2,0-.3.4-.1.6-.2Z"/>
    <path class="st11" d="M180.9,120.1h0s0,0,0,0Z"/>
    <path class="st4" d="M113.6,140.8c.6,2.4.4,4.8-.7,6.9-1.8,3.3-7.2,5.8-10.6,7s-7.3,2.1-11.1,2.8c-1.2-1.4-2.1-3.4-3.2-4.9,0,0,.2,0,.2,0,.5.5,2.2,3.7,2.6,3.8s1,0,1.4,0c3.5-.5,8.4-1.9,11.6-3.3s.4-.2.5-.3c0,0,.1,0,.2,0,.8-.3,1.5-.6,2.2-1s.3,0,.2-.2c0,0,0,0,0,0,.2,0,.5-.1.6-.3.3-.2.6-.4.9-.6s.4,0,.4-.3c0,0,0,0,0,0,.8-.4,2-1.5,2.6-2.2,2-2.6,2-6.5.7-9.5s-.2-.3,0-.4c.6.9.9,1.6,1.3,2.6Z"/>
    <path class="st10" d="M113.6,140.8s.1,0,.2,0c1.2,3,.8,6.7-1.4,9.1-3.4,3.8-10.6,6.1-15.5,7.3s-3.3.9-4.5.9-.8-.2-1.2-.7c3.7-.7,7.5-1.6,11.1-2.8s8.8-3.7,10.6-7,1.4-4.5.7-6.9Z"/>
    <path class="st18" d="M113.2,150c0-.3,0-.5,0-.8s.6-.9.8-1.2c.6-1.1,1-2.6,1.1-3.9.4-.1.7-.5.8.1s-.2,2.3-.5,3.1-1,2.3-1.4,2.6-.5-.1-.9,0Z"/>
    <path class="st6" d="M104.3,152.7c-.1.2-.3.3-.5.3-3.2,1.4-8.1,2.8-11.6,3.3s-1,.2-1.4,0-2.1-3.3-2.6-3.8c0,0-.2,0-.2,0-.2-.1-.3-.3-.3-.5.2,0,.4.2.6.3.7.5,1.6,2.6,2.3,3.5s.8.5,1.5.4c3.7-.3,8.7-2.2,12.3-3.5Z"/>
    <path class="st6" d="M111.3,137c.4.5.5.6.9,1.2-.2,0,0,.3,0,.4,1.3,2.9,1.3,6.8-.7,9.5s-1.7,1.8-2.6,2.2c0-.2.1-.2.2-.3,4-3.1,4.7-6.7,2.9-11.4l-.8-1.5Z"/>
    <path class="st6" d="M114.1,138.9c-.3-.6-.8-1.2-1.1-1.8.6,0,1,.8,1.1,1.4s.1.3,0,.4Z"/>
    <path class="st8" d="M182.3,121.3c.3.2.5.5.8.7,0,0,0,0,0,0s0,0,0,0c.3.3.7.6,1,.9.7.9,1.2,1.6,1.4,2.8s0,.3,0,.5c0,0,0-.3-.2-.3,0,.8.2,2-.2,2.7s-.4,0-.6.3-.1.3-.2.5c-.3.5-.4.9-.8,1.3-.2,0-.3.2-.5.2s0-.2-.2-.2c-1.6,1.8-6,3-8,1.7s-.8-1.1-1.4-1.3c0-.2.2-.2.2-.3.1-.2-.3-.8-.2-1.2.3,0,.5,0,.7-.2.1,0,.3,0,.4,0,.3,0,1.5.4,1.7.3s0-.3,0-.3.6,0,.7,0,.4,0,.6-.1.8-.3.9-.3c.2,0,.2.3.5.2s.6-.4.6-.5c.1-.2-.1-.3-.1-.5s.3-.4.3-.5c.3,0,.4.4.5.4.6.1,1-1.4.3-1.4,0-.5.1-1,0-1.5h.3c0,0,0-.6,0-.6.2.2.2.5.3.7s.4.3.6.4.2.4.3.5c1,1.1,1.7.8,1.3-.7s-2.3-2.8-2.2-3.9.2-.3.2-.4-.1-.4,0-.5c.1,0,0,.2.2.3s.5.2.6.3ZM185.4,125.8c0-.1,0-.2,0-.2,0,.1,0,.2,0,.2ZM181.3,126.9h0c0,0,0,0,0,0ZM179.6,129.9c-.3.2-1,.5-1.4.6-.8.2-1.7.2-2.6.2,0,.2-.2.7,0,.8s.3,0,.4.1c.3.2.4.4.8.6,1.9.7,6.4-.5,5.2-3.3s-.3-.4-.3-.5c0-.2.3-.5.2-.8l-.6-.4c0,1-.8,2.1-1.6,2.7ZM183.6,130.1c-.1-.1-.6.5-.5.6.1.1.6-.5.5-.6Z"/>
    <path class="st16" d="M185.4,116.8c-.1,1-.5,1.9-1.1,2.8,0-.3-.4-.4-.4-.6s.4-.9.5-1.2.2-.9.2-1.2l.8.3Z"/>
    <path class="st13" d="M185.3,114.3c.2.9.2,1.6,0,2.5l-.8-.3c0-.3,0-1,0-1.3l.7-.9Z"/>
    <path class="st16" d="M172.6,128h.3c.6.5,1.5,1.1,2.3,1.3,0,.2-.2,0-.3,0-.2,0-.2,0-.3.2-.1,0-.3,0-.4,0s-1.2-.8-1.3-.9c-.2-.2-.3-.5-.3-.6Z"/>
    <path class="st16" d="M175.2,122.4c.2-.1.2-.2.6-.3s1.9.1,2.4.3.2,0,.2.2c-.4,0-.8-.2-1.2,0-.6,0-1.4,0-2,0s0-.3-.1-.3Z"/>
    <path class="st0" d="M180.7,126.8c.7,0,.3,1.5-.3,1.4s-.1-.5-.5-.4c0,0,.2-.3.2-.3.6.2.5.1.6-.4s0-.2,0-.3Z"/>
    <path class="st8" d="M182.4,120.1c.1-.1.4-.6.6-.5,0,.2-.1.2-.2.4,0,.4.2.7-.4.6,0,0,.1-.6,0-.6Z"/>
    <path class="st14" d="M182.4,120.7c0,0-.1-.1-.2.3-.1,0-.3,0-.4,0,0-.4.3-.6.6-.8.1,0,0,.6,0,.6Z"/>
    <path class="st8" d="M180.7,127c0,.5,0,.6-.6.4.1-.4-.3-.5.6-.4Z"/>
    <path class="st16" d="M179.6,123.5c-.2,0-.5-.1-.4-.4,0,0,.2,0,.3.1s0,.3,0,.3Z"/>
    <path class="st8" d="M181,124.6c0,0-.4-.3-.3-.3.1-.1.4.3.3.3Z"/>
    <path class="st16" d="M183.2,120.8s0,0,0,0c0,0,0,0,0,0Z"/>
    <path class="st17" d="M102,142.8c.7,0,.5-1.6.3-2-1.1-3.2-8.7-7.8-11.4-10.3s-2.5-2.8-3.7-4.4-.9-1-1.2-1.3-.2-.3-.1-.5c.4,0,.5.6.9.5.1-1.1.2-2.1.6-3.2,1.6-3.9,7.3-6.9,11.1-8.3s3-.9,4.4-1.4.4-.4.7-.4c0,.1,0,.2,0,.4,0,.6,1.7,2.6,2,3.3s0,.2,0,.3-1.6.6-1.9.7c-3.5,1.4-7.8,3.5-7,8s2.4,3.6,4.4,5,1.1,1,1.7,1.1c0,0,0,0,0,0,0,0,0,.2,0,.2,2.4,2,6.5,4.1,8,6.9s2.6,7.4.1,10.3-12.6,6.8-17.9,7.8-1.3.3-1.5.2c-.6-.6-1.7-3-2.3-3.4s-.6-.2-.8-.3-.2,0-.3,0-.2-.2-.2-.2c.7.1,1.2.2,1.9,0,1.9-.3,4.1-1,6-1.5s.7,0,.7-.3c0,0,.1,0,.2,0s.2.2.3-.2c0,0,.2,0,.3,0,.2,0,.8-.2.8-.4,0,0,0,0,0,0,.2,0,.4,0,.6-.2s.6-.3.6-.4c.1,0,.2-.1.3-.2s.2,0,.3,0,.1-.1.1-.2c0,0,.3-.2.3-.3s.1,0,.3-.2c.4-.3.7-.6,1-1,.2,0,.2,0,.2-.2,0,0,0,0,0,0,.2-.1.1,0,.2-.3s0,0,0,0c.2,0,.3-.2.3-.3.4-.7.8-1.9.4-2.6s-.5,0-.9,0c0-.1,0-.2,0-.4s.1-.2.2-.3Z"/>
    <path class="st7" d="M98.5,119.4c1.1-1.4,2.9-2.2,4.6-2.9s1.8-.5,2.4-.8.3-.6,0-1.1c-.5-.8-1.4-1.9-1.8-2.7s-.2-.6,0-.7c.3,1,1.7,2.7,2.3,3.7s.2.5-.2.8c-.6.4-2,.7-2.7,1s-2.1.9-3,1.5-1.1.9-1.6,1.2Z"/>
    <path class="st7" d="M98.4,119.5c-.5.7-1,1.3-1.3,2.2-.8,3,1.2,4.6,3.2,6.3s.2.2.2.3c-.5-.2-2.1-1.6-2.5-2.1-1.8-2-1.7-5.1.4-6.8Z"/>
    <path class="st7" d="M100.9,128.5c.4.4.8.7,1.2,1.1-.3,0-.6-.3-.9-.5s-.5-.4-.5-.6c0,0,.2,0,.3,0Z"/>
    <path class="st7" d="M102.5,129.9c0,0-.2,0-.2,0s0-.1,0-.2c.1,0,.2,0,.3.2Z"/>
    <path class="st4" d="M172.6,139.9c.5.7.7,1.1,1.1,1.8.3,1.1.4,2,0,3.2-1.2,4.4-7.5,6.5-11.4,7.3s-3.1.7-4.4.8-.2,0-.3,0c-.5-.8-.9-1.6-1.3-2.4s-.2-.2-.2-.2c-.2-.4-.4-.9-.6-1.3h0c.6.8,1.1,1.8,1.5,2.7.3.3,1.3.1,1.7,0,5.5-.7,15.5-3.2,14.2-10.6,0-.5-.4-1-.4-1.5Z"/>
    <path class="st10" d="M152,130.1c0,0,0,.1,0,.2,0,.4.1.8.3,1.3s.2.7.3,1.1c-.2,0-.3.5-.2.7,0,.7.3,1.8.4,2.6.5,2.9,1.2,5.9,1.7,8.8s.5,2.3.5,3.4.3.6.5,1,.4.9.6,1.3c-.1.1-.3,0-.3.3-.2.7.6,1.9-.3,2.3h-7c-.4-.1-.6-.4-.6-.8,2.6,0,5.1,0,7.7,0-.1-1.1-.4-2.2-.6-3.3s-.2-.7-.3-.9,0-.2,0-.3,0,0,0,0c-1.6-8.4-3.2-16.9-4.8-25.3.4,0,.5.6.5.8.6,2,.6,4.7,1.2,6.6s0,.3.3.3Z"/>
    <path class="st10" d="M173.6,141.8s.3.3.4.6c2.2,6-5.4,9.3-9.9,10.4s-4.1,1-5.3,1-1-.3-1-.8c1.3,0,3.1-.5,4.4-.8,4-.9,10.2-3,11.4-7.3s.2-2,0-3.2Z"/>
    <path class="st6" d="M172.6,139.9c0,.5.3,1,.4,1.5,1.3,7.3-8.7,9.9-14.2,10.6s-1.4.2-1.7,0c-.5-.9-.9-1.9-1.5-2.7.1,0,.2,0,.3,0s0,0,0,0c0,.3.3.4.4.6.6.9.7,2.2,2,2.1s2.5-.4,3.5-.6c5.1-1.1,12.9-3.9,10.6-10.7s-.8-1.2-1-1.8c.5.5.7.7,1.1,1.3Z"/>
    <path class="st15" d="M101.9,143.4c.4,0,.7-.4.9,0,.3.7,0,1.9-.4,2.6s-.1.3-.3.3c.3-.8.8-1.5.6-2.4s-.5-.1-.8-.1c0-.2,0-.3,0-.5Z"/>
    <path class="st15" d="M99.3,148.9c0,.2-.5.4-.6.4-.2,0-.4,0-.6.2.3-.3.8-.4,1.2-.6Z"/>
    <path class="st15" d="M98,149.5c0,.2-.6.4-.8.4,0-.2.5-.3.8-.4Z"/>
    <path class="st15" d="M96.5,150.1c0,.3-.5.3-.7.3,0-.2.5-.3.7-.3Z"/>
    <path class="st15" d="M100,148.5s0,.1-.1.2-.2,0-.3,0c0-.2.2-.2.4-.3Z"/>
    <path class="st15" d="M97,149.9c-.1.3-.3.2-.3.2,0-.2.2-.1.3-.2Z"/>
    <path class="st15" d="M100.6,148c-.1.1-.2.1-.3.2,0-.2,0-.2.3-.2Z"/>
    <path class="st15" d="M102,146.5c0,.2,0,.1-.2.3,0-.2,0-.3.2-.3Z"/>
    <path class="st15" d="M101.8,146.9c0,.2,0,.2-.2.2.2-.2,0,0,.2-.2Z"/>
    <path class="st17" d="M166.6,120.9c0,.4-.3.7-.2,1,.1.5.9,1.4,1.1,1.9s.1.3,0,.5-1.9.7-2.2.8c-2.4,1-4.7,2.5-4.2,5.5s3,2.9,4.4,3.8,4.2,2.8,4.9,3.8,1.6,2.7,1.8,4c1.1,5.8-7.9,8.2-12.1,8.9s-1.7.4-2,.2c-.5-.2-.7-1.7-1.4-2s-.2,0-.2-.2c1,0,1.9-.3,2.8-.6,2.2-.7,5.7-2.2,5.2-5.1s-.6-.2-1.2-.1c0,0,0-.1,0-.2.7-.2.8-.9.7-1.5-.3-1.8-6.3-5.5-7.9-6.9s-2.6-3.1-3.5-3.5-.5,0-.5-.4.2-.3.5-.5c.4-.3.4-.9.6-1.3,1.1-2.6,3.7-4.3,6.2-5.5s.3,0,.3-.3c0,0,.1,0,.2,0,.6-.2,1.1-.4,1.7-.6s.9-.3,1.3-.4.3,0,.3-.3c0,0,.1,0,.2,0,.7-.1,1.5-.3,2.2-.4s.3,0,.2-.2c0,0,.1,0,.2,0,.5,0,.3-.5.6-.5Z"/>
    <path class="st15" d="M159.8,123.4c0,.2-.1.2-.3.3-2.4,1.2-5.1,2.9-6.2,5.5s-.2,1-.6,1.3-.5,0-.5.5.2.2.5.4c.8.4,2.5,2.7,3.5,3.5,1.6,1.4,7.5,5.1,7.9,6.9s0,1.3-.7,1.5c0,0,0-.3,0-.3.9-.6,0-1.9-.6-2.5-2-2.3-5.6-4.1-8-6.4s-1.4-1.9-2.5-2.4c-.1-.4-.2-.8-.3-1.3l.9-.8c.9-2.4,4.4-5.5,6.9-6.1Z"/>
    <path class="st15" d="M163.3,122c0,.2-.1.2-.3.3-.4.2-.9.2-1.3.4s-1.1.5-1.7.6c0-.2,0-.2.2-.2.8-.3,2.4-1,3.1-1.1Z"/>
    <path class="st15" d="M165.9,121.4c0,.2,0,.2-.2.2-.7.2-1.5.3-2.2.4.8-.4,1.6-.5,2.4-.7Z"/>
    <path class="st15" d="M166.5,120.7c0,0,0,0,0,.2-.3,0-.1.4-.6.5,0-.2.2-.4.3-.6s.2,0,.2,0Z"/>
    <path class="st15" d="M149.2,121.9c0,0,0,.1,0,.2,0,0-.1.1-.2.2,0,0,0-.2,0-.3,0-.1,0-.2,0-.3,0,0,0,0,0,.2Z"/>
    <path class="st17" d="M149.1,122.2s-.1,0-.2,0c0-.1,0-.3.2-.3,0,0,0,.2,0,.3Z"/>
    <path class="st12" d="M101.3,124.7c-.9-1.5-.7-2.1.7-3s2.9-1.5,4.3-2,3.3-1,3.4-.9c0,.6.1,1.3,0,1.8s0,.3,0,.3c-2.1.6-4.3,1.1-6.2,2.1s-2.1.9-2.2,1.8Z"/>
    <path class="st4" d="M109.7,120.9c0,.3,0,.5,0,.8-.2,0-.4,0-.6,0-1.3,0-5.1,1.5-6.2,2.2s-1,.8-1.3,1.4c-.1-.1-.2-.2-.3-.4,0-.9,1.5-1.4,2.2-1.8,2-.9,4.1-1.5,6.2-2.1Z"/>
    <path class="st13" d="M109.9,129.9s0,.2,0,.3c0,.6,0,1.2,0,1.8-.4-.3-.9-.6-1.3-.9s0-.2,0-.2v-.5c.1,0,.2,0,.3,0,.4,0,.8-.2,1-.5Z"/>
    <path class="st16" d="M109.9,129.9c-.2.3-.6.5-1,.5.2-.6.5-1.1.8-1.7s.2-.2.2-.3c0,.5,0,1,0,1.5Z"/>
    <path class="st6" d="M85.9,125.8c.2,0,.2.1.3.3,3.5,4.8,7.8,7.2,12.2,11s3.5,3,3.4,4.9,0,.3-.2.3c-.1-.3-.4-.9-.6-1.2.1,0,0-.4,0-.5-1.3-2.6-5.1-4.9-7.3-6.6s-4.3-3.5-6.2-5.6-.2-.2-.3-.2c-.5-.8-.8-1.4-1.2-2.3Z"/>
    <path class="st4" d="M101,141c-.5-.8-1.7-1.9-2.4-2.5-3.8-3.4-8.9-6-11.6-10.4.2,0,.2.1.3.2,2,2.1,4,3.8,6.2,5.6s6.1,4.1,7.3,6.6.2.4,0,.5Z"/>
    <path class="st15" d="M156.7,149.4c.7.3,1,1.8,1.4,2s1.6-.2,2-.2c4.2-.7,13.1-3.2,12.1-8.9s-1-3-1.8-4c.6.3,1,1.1,1.3,1.7,3.3,7-4.5,9.9-9.8,11.1s-2.4.6-3.4.6-.5,0-.7-.2l-1.1-2Z"/>
    <path class="st15" d="M156.6,149.2c0,0-.2,0-.3,0,0-.3-.3-.2-.5-.3-.3,0-.1-.1-.2-.2,1,.3,2,0,3-.3,1.7-.5,5.2-1.8,5.4-3.8s0-1-.7-.8c0-.2,0-.4,0-.6.6,0,1.1-1,1.2.1.5,3-3,4.4-5.2,5.1s-1.8.6-2.8.6Z"/>
    <path class="st17" d="M155.8,149c.2,0,.6,0,.5.3-.1,0-.2,0-.3,0s0,0,0,0v-.2Z"/>
    <path class="st4" d="M149.7,121.9c0,.1.1.3.2.4,1.6,8.4,3.2,16.8,4.8,25.3h0c0,.2,0,.3,0,.3-.4,0-.6-.7-.6-1-1.4-5.6-1.9-11.8-3.3-17.4-.2-2.1-1.2-4.6-1.3-6.7s0-.9.3-1Z"/>
    <path class="st4" d="M107.6,116.4c-3.7,1-11.7,3.5-9.3,8.8s.1.2.2.3c0,.2,0,.3.2.5-.8-.5-1.4-1.6-1.5-2.5-.6-3.7,3.8-5.8,6.7-6.9s2.7-.8,2.8-1,0-.3.2-.5c.2.4.5.6.8,1.2Z"/>
    <path class="st10" d="M107.6,116.4c.3.7.1.9-.6,1.1-3.5,1.3-9.7,2.9-8.4,8-.1,0-.2-.2-.2-.3-2.5-5.3,5.6-7.9,9.3-8.8Z"/>
    <path class="st16" d="M184.4,129.4c.8-.2-.2.8,0,1s.2,0,.1,0c-.2,0-.1.3-.2.4,0,.2-.4.6-.6.8,0,0,0,0,0,0s0,0,0,0,0,0,0,0,0,0,0,0,0,0-.2,0,0,0,0,0c0,0-.2.1-.3.2s0,0,0,0c0,0-.2.1-.3.2s0,0-.2,0,0,0,0,0c-.2.1-.8.3-1.1.5-1.6.5-3.1.8-4.8.8l-1.8-.3c-.9-.2-2-.6-2.8-1s-.4-.3-.4-.4c.9.5,2.6,1.2,3.6,1.3s.4,0,.4,0c-.8-.3-1.6-.7-2.4-1s-1.5-.9-2.3-1-.3,0-.4,0c-.1,0-1-.6-.4-.8s.2.1.2.2c.2.3.4,0,.5-.1s.1-.1.2-.2l.2-.2c0,0,.2,0,.2,0,.2.1.5,0,.7.2s.3.7.5.9c1.1,1.4,4.3,1.9,6,1.7s4.2-1.4,5.2-2.5.6-.8.8-1.3Z"/>
    <path class="st16" d="M183.9,131.6c.3,0,.6.2.8.3-2.6,3-7.8,3.7-11.5,2.6,0-.2-.1-.2-.2-.2-.3-.1-1.3-.4-1.2-.7s.1-.5.2-.5c0,0,1.8.6,2.2.7,2.2.5,5.1.4,7.1-.6.6-.2.6-.2,1.1-.5s0,0,0,0,.1,0,.2,0,.2,0,.2,0,0-.1,0-.2,0,0,0,0c0,0,.2,0,.2,0s0-.1,0-.2c0,0,0,0,0,0s.1,0,.2,0,0,0,0,0,0,0,0,0,0,0,0,0,0,0,0,0c0,0,.1,0,.2,0Z"/>
    <path class="st11" d="M185.6,126.2c.2.8,0,1.8,0,2.5s.6,0,.5.8-.4,1.1-.5,1.3c-.3.5-.5.8-.9,1.2-.3-.1-.5-.3-.8-.3l.6-.9h-.2s0-.2.2-.3c0,0-.1,0-.1,0-.2-.2.9-1.2,0-1,0-.1,0-.3.2-.5s.5-.2.6-.3c.4-.7.2-1.9.2-2.7,0,0,.1.2.2.3ZM184.8,130.6l.4-1.2-.6,1c0,.1.1.2.2.1Z"/>
    <path class="st13" d="M182.3,132.7c-.5.3-.5.3-1.1.5.3-.2.8-.4,1.1-.5Z"/>
    <path class="st13" d="M183.4,132s0,0,0,0c0,0,0,0,0,0Z"/>
    <path class="st13" d="M183.5,131.9s0,0,0,0c0,0,0,0,0,0Z"/>
    <path class="st13" d="M182.3,132.7s0,0,0,0c0,0,0,0,0,0Z"/>
    <path class="st13" d="M182.8,132.4s0,.1,0,.2-.2,0-.2,0c0,0,.2-.1.3-.2Z"/>
    <path class="st13" d="M170.1,131.8c1.8,1.4,4.1,2.1,6.4,2.2s3.2-.3,4.8-.8c-2,1-4.9,1.2-7.1.6s-2.1-.8-2.2-.7-.2.5-.2.5c0,.3,1,.6,1.2.7s.3,0,.2.2c-1.7-.5-3-1.3-4.3-2.4l1.2-.3Z"/>
    <path class="st13" d="M184.4,130.8h.2c0,0-.6.8-.6.8,0,0-.1,0-.2,0,.2-.2.5-.6.6-.8Z"/>
    <path class="st13" d="M182.6,132.6s-.1,0-.2,0c0,0,.1,0,.2,0Z"/>
    <path class="st13" d="M183.6,131.8s0,0,0,0c0,0,0,0,0,0Z"/>
    <path class="st13" d="M183.7,131.7s0,0,0,0c0,0,0,0,0,0Z"/>
    <path class="st13" d="M183.2,132.2s0,.1,0,.2-.2,0-.2,0c0,0,.2-.1.3-.2Z"/>
    <path class="st13" d="M183.2,132.2s0,0,0,0c0,0,0,0,0,0Z"/>
    <path class="st13" d="M182.8,132.4s0,0,0,0c0,0,0,0,0,0Z"/>
    <path class="st13" d="M183.4,132c0,0-.1,0-.2,0,0,0,.1,0,.2,0Z"/>
    <path class="st16" d="M186.2,129.5c0-.8-.5-.7-.5-.8-.2-.7.2-1.7,0-2.5,0-.2,0-.3,0-.5.2,0,.2,0,.3-.2.4-.5.2-.6.1-1.2.8,1.5.7,3.5.2,5.1Z"/>
    <path class="st16" d="M169.4,131s.1.2.2.3c.2.2.4.4.5.5l-1.2.3c0,0-.1-.1-.2-.2l.4-.5c0-.2-.9,0-.7-.4,0,0,.7-.2.8,0Z"/>
    <path class="st14" d="M183.4,112.3c0,.1.2.2.2.4l.4.4c0,0,0,.2,0,.3-.3,0-.2.3-.5.3-.9,0-1-1.3,0-1.4Z"/>
    <path class="st8" d="M176.7,108.8s0,0,.2,0c.5.2,1.2,0,1.7.2s.2.4.4.5c0,.2,0,0-.2,0-.6,0-1.1-.1-1.8-.1,0-.5-.4,0-.3-.5Z"/>
    <path class="st18" d="M174.1,108.9c0,0,0,.2,0,.3s.1,0,.2,0,.1,0,.2,0h0c.1.2.2.2.2.4,0,0-.2,0-.3,0h0c-.3.2-.6.2-.8.3,0-.3,0-.9.4-1s.2,0,.3,0Z"/>
    <path class="st14" d="M174.5,109.1c.5-.1.6-.3,1.2,0s.2,0,.2.3c-.4,0-.8,0-1.3.2,0-.2,0-.2-.2-.3h0Z"/>
    <path class="st14" d="M174.3,109.7h0c0,0,0,0,0,0Z"/>
    <path class="st6" d="M106.9,151.5c0,.2-.1.2-.2.2-.7.4-1.4.7-2.2,1,0-.2.1-.2.2-.2.7-.3,1.4-.7,2.2-1Z"/>
    <path class="st6" d="M107.6,151.1c-.1.2-.4.3-.6.3,0-.3.4-.3.6-.3Z"/>
    <path class="st6" d="M108.9,150.2c0,.3-.3.3-.4.3,0-.2.3-.3.4-.3Z"/>
    <path class="st4" d="M138.5,133.5h-.3c-2.1-4-4.6-7.8-6.7-11.7s-.4-.7-.4-1.4l7.3,12.8c0,0,0,.3,0,.3Z"/>
    <path class="st10" d="M169.6,125.4c.2.4.3.7-.2,1s-2.1.7-2.9,1c-1.4.6-2.8,1.4-3.4,2.8v1.4c-.1-.2-.3-.3-.4-.5-.6-1.6.1-2.7,1.5-3.6s3.6-1.6,5.5-2.1Z"/>
    <path class="st4" d="M169.6,125.4c-1.8.5-3.9,1.1-5.5,2.1s-2.1,1.9-1.5,3.6c-.2,0-.5-.3-.5-.5-1.2-2.5,2.3-4.2,4.1-4.9s1.6-.5,2.4-.8c.3-.1.2-.4.3-.6.2.4.4.6.6,1.1Z"/>
    <path class="st9" d="M164.4,129.2c-.2,0-.3,0-.5,0,0-.1.4-.1.5,0Z"/>
    <path class="st9" d="M164.6,129.2s0,0,0,0h0c0,0,0,0,0,0Z"/>
    <path class="st17" d="M113.8,150.6v.2s0,0-.2,0c0,0-.4-.1-.3-.3s.4,0,.4,0Z"/>
    <path class="st11" d="M174.2,129.5c-.2.2-.4.2-.7.2,0,.3.4.9.2,1.2s-.3,0-.2.3c.6.2.8.9,1.4,1.3,2,1.3,6.5.1,8-1.7.2,0,.1.2.2.2.1,0,.3-.2.5-.2-1,1.1-3.7,2.4-5.2,2.5s-4.9-.3-6-1.7-.4-.8-.5-.9-.5,0-.7-.2c.3-.3.4-.7.5-.8s.7-.3.8-.4c.1-.2,0-.5.3-.6.1.1,1.2.8,1.3.9Z"/>
    <path class="st11" d="M170.8,129.6c0,.2.4.1.3.3s-.2.3-.3.4-.2.4-.1.5c-.1.1-.3.4-.5.1s0-.3-.2-.2c-.7.1.3.7.4.8.4.3.8.6,1.2.8,0,0,.3.3.4.4.9.5,1.9.8,2.8,1l1.8.3c-2.2,0-4.6-.8-6.4-2.2s-.4-.3-.5-.5-.2-.3-.2-.3c0-.4.3-.4.5-.6s.1-.2.2-.3c.1-.1.6-.6.8-.6Z"/>
    <path class="st0" d="M170.8,129.4c-.3-.4-1,0-1,0s0-.1,0-.2c.1-.1.2-.4.5-.4s.3.2.5.2c.3,0,.7-.6,1-.8,0,.6-.6.9-.9,1.3Z"/>
    <path class="st11" d="M170.9,130.6c0,0,.1-.1.2-.2l-.2.2Z"/>
    <path class="st16" d="M176,123.6c0,0-.1,0-.2,0h.1c0,0,0,0,0,0Z"/>
    <path class="st8" d="M169.1,113.2c0,.3-.1.1-.3,0,0-.1.2,0,.3,0Z"/>
    <path class="st8" d="M168.7,113.3c0,0,.1.2-.2.2,0-.2,0-.2.2-.2Z"/>
    <path class="st14" d="M169.8,129.1s0,.2,0,.2c0,0,.7-.3,1,0s0,.1,0,.2c-.1,0-.6.5-.8.6h-.4s0-.2,0-.2l-.2-.5c.1,0,.2-.2.3-.3Z"/>
    <path class="st11" d="M183.2,122c0,0,0,0,0,0,0,0,0,0,0,0Z"/>
    <path class="st14" d="M174.1,108.9s.2,0,.2,0c0,0,0,.2,0,.3,0,0-.2,0-.2,0,0,0,0-.2,0-.3Z"/>
    <path class="st13" d="M130.2,159.1c0,0,0,0,0,0h0Z"/>
    <path class="st9" d="M89.3,141.3c-.4.3-.9.5-1.3.8,0-.5.8-1.1,1.3-.8Z"/>
    <path class="st8" d="M180.3,115c-.2,0-.3,0-.5.2,0-.2-.4-.8,0-.9s.4.6.5.7Z"/>
    <path class="st0" d="M179.6,129.9c.8-.5,1.6-1.7,1.6-2.7l.6.4c.1.3-.2.6-.2.8s.2.3.3.5c1.3,2.8-3.2,4-5.2,3.3s-.5-.4-.8-.6-.4-.1-.4-.1c0-.1.1-.6,0-.8.9,0,1.7,0,2.6-.2.2,1.2,1.9.4,1.4-.6Z"/>
    <path class="st14" d="M179.6,129.9c.5,1-1.2,1.8-1.4.6.4,0,1.1-.4,1.4-.6Z"/>
    <path class="st11" d="M183.6,130.1c0,0-.4.7-.5.6s.4-.7.5-.6Z"/>
    <path class="st11" d="M185.4,125.8c0,0-.1,0,0-.2s.1,0,0,.2Z"/>
    <path class="st0" d="M181.3,126.9c0,0,0,0,0,0h0Z"/>
    <path class="st7" d="M155.2,148.1c0,.4.3.5.5.7s-.1,0,.2.2v.2s-.1,0-.3,0h0c-.2-.4-.5-.5-.5-1,0,0,.1,0,.2,0Z"/>
    <path class="st12" d="M152.7,132.7c.3.8,1,1.5,1.5,2.3,1.9,2.5,4.2,3.8,6.6,5.7s1.6,1.5,2.1,1.7.1,0,.2,0c0,.4.2.4.3.5s0,.3,0,.3c0,0,0,.1,0,.2,0,.2,0,.4,0,.6h0c0-.4-1.1-1.6-1.5-1.9-2.3-2-5-3.4-7.2-5.7s-1.4-2-1.2-.4.4,1.8.6,2.5c.4,2.2.8,4.4,1.3,6.5s.3,2,.5,2.9c-.1,0-.3.1-.5.2s-.1,0-.2,0c0-1.1-.3-2.3-.5-3.4-.5-2.9-1.2-5.9-1.7-8.8s-.4-1.9-.4-2.6,0-.6.2-.7,0,0,0,0Z"/>
    <path class="st6" d="M163.3,142.9c0-.1-.2-.1-.3-.5,0-1.2-.7-1.8-1.6-2.6-2.4-2.1-5.2-3.7-7.6-5.9s-.7-.9-1.2-1.1c0,0,0,0,0,0-.1-.4-.2-.7-.3-1.1,1,.6,1.7,1.6,2.5,2.4,2.4,2.3,5.9,4.1,8,6.4s1.5,1.9.6,2.5Z"/>
    <path class="st6" d="M154.7,147.7h0c0,0,0,0,0,0Z"/>
    <path class="st18" d="M163.4,143.9c.7-.2.8.1.7.8-.3,2-3.7,3.3-5.4,3.8s-2,.5-3,.3c-.2-.2-.5-.3-.5-.7.2,0,.4-.1.5-.2,2-.4,4-.7,5.8-1.8s2-1.5,1.8-2.2h0Z"/>
    <path class="st13" d="M184.8,130.6s-.2,0-.2-.1l.6-1-.4,1.2Z"/>
    <path class="st13" d="M170.4,131.5c.1-.1.3,0,.4,0,.8.1,1.6.7,2.3,1s1.6.7,2.4,1c0,.1-.3,0-.4,0-1,0-2.7-.8-3.6-1.3s-.8-.5-1.2-.8Z"/>
    <path class="st9" d="M155.7,148c-.2-1-.3-2-.5-2.9-.4-2.2-.8-4.3-1.3-6.5s-.5-1.8-.6-2.5c-.2-1.6.8,0,1.2.4,2.2,2.2,4.9,3.6,7.2,5.7s1.4,1.5,1.5,1.9c.1.8-1.3,1.9-1.8,2.2-1.8,1-3.8,1.4-5.8,1.8ZM161,143.7c.1-.2-.8-1-1-1.2-1.4-1.3-3.2-2.3-4.6-3.4l1.2,6.4c1.6-.3,3.1-.9,4.4-1.8Z"/>
    <path class="st4" d="M163,142.4c0,0-.1,0-.2,0-.3-.6-.9-1.2-1.4-1.6-2.3-2.1-5.2-3.5-7.3-5.8-.5-.7-1.2-1.4-1.5-2.3.4.2.8.8,1.2,1.1,2.4,2.2,5.3,3.8,7.6,5.9s1.5,1.4,1.6,2.6Z"/>
    <path class="st10" d="M162.9,142.3c-.5-.2-1.5-1.3-2.1-1.7-2.4-1.9-4.7-3.1-6.6-5.7,2.1,2.3,5,3.7,7.3,5.8s1.1,1,1.4,1.6Z"/>
    <path class="st5" d="M161,143.7c-1.3.9-2.9,1.4-4.4,1.8l-1.2-6.4c1.5,1.2,3.2,2.2,4.6,3.4s1.1,1,1,1.2ZM156.6,142.7c.1.5.2,1.1.3,1.6s0,.6.1.6c.5-.1,1-.3,1.5-.4s.2-.1.2-.1c.2,0,.4,0,.6-.2s1-.4,1-.6-.7-.7-.8-.8c-1-.9-2.3-1.6-3.3-2.5-.2,0-.1,0-.1.2,0,.7.3,1.6.5,2.3Z"/>
    <path class="st12" d="M158.8,144.3c-.3-.3-.7-.5-1-.8s-.7-.7-1.2-.8c-.1-.7-.4-1.6-.5-2.3s0-.2.1-.2c1.1.9,2.3,1.6,3.3,2.5s.8.7.8.8c0,.2-.8.5-1,.6s-.4.1-.6.2Z"/>
  </g>
</svg>