<?xml version="1.0" encoding="UTF-8"?>
<svg id="_图层_1" data-name="图层_1" xmlns="http://www.w3.org/2000/svg" width="256" height="256" version="1.1" xmlns:xlink="http://www.w3.org/1999/xlink" viewBox="0 0 256 256">
  <!-- Generator: Adobe Illustrator 29.2.1, SVG Export Plug-In . SVG Version: 2.1.0 Build 116)  -->
  <defs>
    <style>
      .st0 {
        fill-opacity: .3;
      }

      .st0, .st1, .st2 {
        fill-rule: evenodd;
      }

      .st3 {
        fill: #26df55;
      }

      .st4 {
        fill: #09508f;
      }

      .st5 {
        fill: #a1a2a4;
      }

      .st5, .st6, .st7, .st8, .st9, .st10, .st11 {
        display: none;
      }

      .st12 {
        isolation: isolate;
      }

      .st1 {
        fill: #08589c;
      }

      .st6 {
        fill: #d2d2d2;
      }

      .st7 {
        fill: #fefefe;
      }

      .st8 {
        fill: #82c569;
      }

      .st9 {
        fill: #fdfefe;
      }

      .st13 {
        fill: url(#_未命名的渐变_23);
      }

      .st14 {
        mix-blend-mode: multiply;
      }

      .st11 {
        fill: #63ce12;
      }

      .st2 {
        fill: url(#_未命名的渐变_2);
      }

      .st15 {
        fill: #fdfdfd;
      }
    </style>
    <linearGradient id="_未命名的渐变_2" data-name="未命名的渐变 2" x1="17" y1="572" x2="241" y2="720" gradientTransform="translate(0 -510)" gradientUnits="userSpaceOnUse">
      <stop offset="0" stop-color="#35a4d3"/>
      <stop offset="0" stop-color="#3da8d4"/>
      <stop offset=".2" stop-color="#56b3d9"/>
      <stop offset=".4" stop-color="#7dc6e1"/>
      <stop offset=".5" stop-color="#92d0e6"/>
      <stop offset=".6" stop-color="#75b7d2"/>
      <stop offset=".7" stop-color="#458fb2"/>
      <stop offset=".8" stop-color="#22719b"/>
      <stop offset=".9" stop-color="#0d5f8d"/>
      <stop offset="1" stop-color="#065988"/>
    </linearGradient>
    <linearGradient id="_未命名的渐变_23" data-name="未命名的渐变 23" x1="134.6" y1="151.2" x2="134.6" y2="192.8" gradientUnits="userSpaceOnUse">
      <stop offset="0" stop-color="#f1ff85"/>
      <stop offset="0" stop-color="#e8fd82"/>
      <stop offset=".2" stop-color="#adf475"/>
      <stop offset=".4" stop-color="#7ded69"/>
      <stop offset=".6" stop-color="#57e760"/>
      <stop offset=".7" stop-color="#3ce35a"/>
      <stop offset=".9" stop-color="#2be056"/>
      <stop offset="1" stop-color="#26e055"/>
    </linearGradient>
  </defs>
  <g class="st12">
    <g id="_图层_11" data-name="_图层_1">
      <path class="st1" d="M104.4,42.4c-4.4-5.3-10.9-8.4-17.8-8.4H29c-6.6,0-12,5.4-12,12v114c0,6.6,5.4,12,12,12h200c6.6,0,12-5.4,12-12v-89.9c0-6.6-5.4-12-12-12h-111.6l-13-15.8h0Z"/>
      <g class="st14">
        <path class="st0" d="M92.8,74c5,0,9.8-1.6,13.8-4.6l9.9-7.4h112.5c6.6,0,12,5.4,12,12v86c0,6.6-5.4,12-12,12H29c-6.6,0-12-5.4-12-12v-74c0-6.6,5.4-12,12-12h63.8Z"/>
      </g>
      <path class="st2" d="M92.8,74c5,0,9.8-1.6,13.8-4.6l9.9-7.4h112.5c6.6,0,12,5.4,12,12v124c0,6.6-5.4,12-12,12H29c-6.6,0-12-5.4-12-12v-112c0-6.6,5.4-12,12-12h63.8Z"/>
      <rect class="st7" x="43.8" y="84.8" width="112.1" height="68.1"/>
      <g>
        <path class="st9" d="M209.5,91.6v94.6H54v-94.6h155.5ZM85.4,108.9c-.9-1.1-3.1,0-4.3.2-7.1,1.9-17.4,6.9-20.5,13.9s-.4,1.4-.3,2.3c-1,.6-.7,2.8-.5,3.8,1.2,8.9,11.5,13.3,17.2,18.8s2,1.9,2,3.4c-.8,1.7-1.1,1.8-2.8,2.6-4.7,2.2-10.2,2.7-15.2,3.9,0,.2,0,.4,0,.6,0,.7,0,1.5.2,2.2l6,9.5c1.2,1.1,6.1-.2,7.8-.6,6.3-1.4,12.5-3.7,17.8-7.3l.7,2.5,14.3-.5c1-.4.6-2.3.7-3.2,1.7.4,3.5.4,5.2.3l2.8-8.6c.4,0,.3.3.5.6.6,1.5,1.9,7.6,3.2,8s4.3.6,4.9,0l4.8-7.8c.3,2.1.1,4.3.3,6.4s.3,3.1.9,3.4c7.6,1.3,14.1,2,21.7.3,4.9-1.1,10.3-3,13-7.6,9.8,1,19.6,2.3,29.4,3.1s4.5.5,5.2.3.7-.9.8-1.4c.4-2.5,1-7.5,1-9.9s-.2-.7-.3-1.1,0-.7-.5-.9c-1.5-.5-5.3-.5-7.1-.7s-.4-.3-.5-.3c4.7-1.1,8.9-3.7,10.1-8.7s.4-3.2-.2-5.6c-1.5-6.6-7.3-9-13.5-10.6-9.8-2.4-22.6-3.3-28.9,5.9-6.3,9.2-.8,2.2-1.7,2.2-.3-.7-1.9-4.2-2.4-4.3-4.9.9-9.8,2.3-14.1,4.9l-1-12.7c-.9-.2-4.6-1.4-5.2-.9s0,.5,0,.5c0,0-.4,0-.5,0l-10.2,15.1c-.4-.2-.4-.6-.6-1-2.2-5.3-3.3-12-5.5-17.3.9.2.7-.5.6-1.1-.2-3.4-3-2.4-3.8-4.3s.5-1.5.4-2.5-2.4-4.1-3.7-4.5-1.7.6-3,0-.8-1.6-1.3-2.4c-.7-1.4-3.5-1.8-4.9-1.6s-1.1.6-1.9.6c-2.5,0-5.6-2.1-8.5-.4s-1.3,1.7-2.9,2.1-2.4-.7-4.4.6c-4.7,2.9.8,5.9-1.4,9.6h.1ZM57.4,145.5q-.2.6-.3,1.2c0,.6-.3.3-.3.8,0,2.2,1.6,1.2,1.9,1.4s0,3.4.3,4.7-.2.8.2.9c.9,0,1.6-.3,2.5-.3,2.4,0,4.3.4,6.7,0s.6-.5,1-.5.7.5,1.2.7c1.6.4,5.2-.4,4.6-2.3s-1-1.5-.9-1.5.8,0,1.1-.6c.9-1.8-1.7-3.7-3.4-3.8s-2.7,1.2-3.1,1.2-.5-.5-.8-.5c-.3-.8-2.1-.5-2.2-.6s0-1.7,0-1.9c-.3-.3-6.8.2-7.9,0-.4,0-.4.9-.5,1.3v-.2Z"/>
        <path class="st5" d="M91.3,158.8c-4.7,4-14.4,6.9-20.5,7.8-.3-1,.7-.3,1.2-.9h.6c4.2-.4,11.2-3,15-5s1-.1.8-.9h.3c.9-.3,1.7-.7,2.5-.9h0Z"/>
        <path class="st6" d="M68,164.1c.9-.2.9,1,1.2,1.6h2.8c-.5.6-1.5-.1-1.2.9h-.6c-.8-.3-.7-.5-.9-.9-1.4,0-.9-.3-1.2-1.6h-.1Z"/>
        <path class="st6" d="M81.6,147.4s.5-.2.8.6c1.3,3.3,0,5.7-2.6,7.5,0-2,2.2-1.7,2.4-3.9s-.2-.4-.2-.4v-1.2c0-.4.3-.2.3-.7s-.5-1.7-.6-1.8-.4,0-.6,0l-.3-.3v-.9c1.3.1.7.9.9,1.2h-.1Z"/>
        <path class="st6" d="M65.8,133.1c1.5.3,3,2.9,4.1,3.9s1.4,1.3,1.5,1.3c.4.3,1.5,1.2,1.6,1.2.7.4.9.7,1.2.9.6.4.8.6,1.2.9s1.2,1,1.6,1.2c.5.4.8-.5,1.6,1.2h-.9c-.3-.2-.5-.5-.6-.6v-.6h-.9c-.3-.2-.5-.5-.6-.6v-.6h-.9c0,0-.2-.2-.3-.3v-.6h-.9c0,0-.2-.2-.3-.3v-.6h-.9c-.3-.2-.4-.4-.6-.6v-.6h-.9c0-.1-.2-.2-.3-.3-.2-.3,0-1.2-1.2-.9-1.2-1.1-2.1-1.9-3.1-3.1v-.9h-.4Z"/>
        <path class="st5" d="M81.6,147.4s.6,1.6.6,1.8c0,.5-.3.6-.3.7-.5-.7-.6-1.8-.9-2.5h.6Z"/>
        <path class="st5" d="M70.2,138.1c-.8,0-.9-.6-1.2-.9,1.2-.3,1,.6,1.2.9Z"/>
        <path class="st5" d="M78.5,144c0,.3.3.6.3.9-.2-.2-.8-.5-1.2-.9,0,0,.9,0,.9,0Z"/>
        <path class="st5" d="M77,142.7v.6c0-.1-.5-.3-.9-.6h.9Z"/>
        <path class="st6" d="M141.5,142.1v.6c-.5.8-.7,2.7.3,3.1v.9c-.6.7-.5,2.5.3,3.1v.9c-.5.7-.6,2.4.3,2.8v1.2c-.6.8-.5,2.4.3,3.1v.9l-.6,2.2h-.6c.2-1.3-1.3-.4-1.9-.3s-.4,0-.6,0c.2-1-.5-.5-1.1-.6-1-.2-2.4-.7-3.3,0h-.6c0-.4-.3-.9-.3-1.2,1.1.2,7.7,1.3,8.1.9,0-5.7-1.2-11.5-1.2-17.2s.3-.4.3-.5h.6Z"/>
        <path class="st6" d="M66.4,161.6c.9,0,1.3,1.4,1.6,2.2h-.4c-.8-.7-.9-1.2-1.2-2.2Z"/>
        <path class="st6" d="M69.2,159.2c.3.7-1.1.9-1.7.9s-.4-.3-.5-.3c.5-.4,1.5-.6,2.2-.6h0Z"/>
        <path class="st6" d="M66.1,159.8c0,.5.2,1,.3,1.6-.9.2-.9-.9-.9-1.5h.6Z"/>
        <path class="st6" d="M72,158.5c0,1.2-.6.4-.9.3,0-.4.6-.3.9-.3Z"/>
        <path class="st6" d="M70.5,158.8v.6c-.2.2-.6-.3-.6-.3l.6-.3Z"/>
        <path class="st5" d="M120.8,154.8c1-.3.6,1,.9,1.6s.6.2.6.2c0,0-.3.9,1.1.6s0-.7.2-.9.5,0,.6,0l-1.2,1.9c-1.5-1-1.9-1.6-2.2-3.4h0Z"/>
        <path class="st5" d="M125.1,154.8c-.2.3,0,.8-.6.9.2-.5-.4-1.1.6-.9Z"/>
        <path class="st5" d="M141.9,145.8c-1-.4-.8-2.3-.3-3.1.1,1,.2,2.1.3,3.1Z"/>
        <path class="st5" d="M142.8,157.9c-.8-.7-.9-2.3-.3-3.1,0,1,.2,2.1.3,3.1Z"/>
        <path class="st5" d="M142.5,153.6c-.9-.4-.8-2.1-.3-2.8,0,.9.2,1.8.3,2.8Z"/>
        <path class="st5" d="M142.8,161c-.3.5-.5,0-.6,0l.6-2.2c0,.8.4,1.5,0,2.2Z"/>
        <path class="st5" d="M142.2,149.9c-.8-.6-.9-2.4-.3-3.1,0,1,.2,2.1.3,3.1Z"/>
        <path class="st5" d="M83.8,119.8l-.6.3v-.6c.2-.2.6.3.6.3Z"/>
        <path class="st5" d="M134.7,160.1c.9-.7,2.2-.2,3.3,0s1.3-.4,1.1.6c-1.5,0-3-.4-4.3-.6h-.1Z"/>
        <path class="st5" d="M139.7,160.7c.6,0,2.1-1,1.9.3-.6,0-1.5.2-1.9-.3Z"/>
        <path class="st5" d="M107.4,157c.5-.5,1.9-.6,1.6.3-.5,0-1.3-.3-1.6-.3Z"/>
        <path class="st6" d="M132.9,144.9c.9-.2.6.5.6,1.1,0,2.7.1,5,0,7.6h-.6v-.9c0-.3.3-.3.3-.7,0-.9.3-3.3-.6-3v-.9c.6-.7.3-2.1.3-3.1h0Z"/>
        <path class="st6" d="M133.5,154.2h.6v3.3c0,.5-.3.7-.3.7h-.6v-1.2c0-.8.2-1.8.3-2.8Z"/>
        <path class="st5" d="M132.5,148.9c1-.4.7,2.1.6,3s-.3.7-.3.7c-.6-.9-.2-2.5-.3-3.7Z"/>
        <path class="st5" d="M133.5,153.6v.6c0,1-.3,2-.3,2.8-.5-.8-.4-2.4-.3-3.4h.6Z"/>
        <path class="st5" d="M62.7,128.2c.9-.3.6.9.9,1.7l-.2.2c-.3-.8-.4-1-.6-1.9h-.1Z"/>
        <path class="st6" d="M88.5,159.8c.2.8-.4.6-.8.9-3.8,2-10.8,4.6-15,5-.2-.9.4-.6,1-.7,5.6-1.3,9.6-3.1,14.9-5.2h0Z"/>
        <path class="st8" d="M172.3,145.5c0-.1-.3-.2-.3-.3v-.6c0-.1.2-.2.3-.3v1.2h0Z"/>
        <path class="st11" d="M172,145.2s-.4,0-.3-.5.3-.1.3-.2v.6h0Z"/>
        <path class="st11" d="M172.3,144c0-.2.2-.2.3-.3l-.3.3Z"/>
        <path class="st8" d="M192.8,154.2l-.3-.3c.2,0,.3.3.3.3Z"/>
      </g>
    </g>
  </g>
  <g id="s2logo">
    <g>
      <path class="st13" d="M129.9,178c9.3-1.9,31.7,1.4,30.3-13.9-.3-3.4-2.2-5-4.6-6.9-4.6-3.7-11.7-5.1-17.6-5.7-8.3-.8-19.9-.8-23.7,8.2-.8,1.4-1.5,2.5-1.4,4.3l16.2,1.4c0-6.1,13.6-5.1,15-1.8,1.2,2.9-2.9,4.4-5.1,4.5-.9,0-1.8-.5-2.7-.3-.3,0-.2.7-.4.7-3.6.2-6.4,0-10.2.8-9.9,2.1-15.7,8.2-16.7,18.4l47.7,5,1.1-9.6-30.6-2.9c-.2-1.7,1.5-2.1,2.8-2.3Z"/>
      <path class="st15" d="M86.2,140.5h-2.1c.8-6.4-3-6.3-2.1,0h-2.5s.4-9.3.4-9.3h2.1s0,3.6,0,3.6c.8-1.2,4.3-.5,4.3.5v5.2Z"/>
      <path class="st15" d="M93.3,137.6c-.1.2-3.6.5-4.3.7.5,1.2,1.5,1.2,2.6,1s1.2-1.6,1.7.8c-1.5.8-5.7,1.2-6.3-.7s-.5-3.6,1.1-4.6c3.3-2,6,1.7,5.1,2.8ZM91.2,136.9c.9-.9-1.5-2-2.1-1s2,1.2,2.1,1Z"/>
      <polygon class="st15" points="79.1 132 79.1 133.7 76.9 133.7 76.9 140.5 74.8 140.5 74.8 133.7 72.7 133.7 72.7 132 79.1 132"/>
      <path class="st4" d="M91.2,136.9c-.1.1-3,.4-2.1-1s3,.2,2.1,1Z"/>
      <g class="st10">
        <path class="st4" d="M89.7,202.9h86.7c11.5,1.3,11.5,17,0,18.4h-85.4c-11-1-12-16.1-1.3-18.4ZM95.4,209.2v6.4c.6,0,4.1-.2,4.3-.4s0-1.4,0-1.4c-.1-.1-2.3,0-2.9,0v-1.1c.7.3,3.4-.5,3.6-.4s-.1,1,.5,1.8c1.3,1.7,4.3,1.3,5-.7s-1.2-1.6-3-1.8v1.1c2.7-.5,2.1,1.2.2,1.1s-1.7-2.5-.9-3.1,3,0,3.2-.2c1-1-2.3-2.6-4.3-.9s-.6,1.9-.9,2c-.8,0-2.3-.7-3.4-.4-.4-1.4,2.5-.4,2.8-.7s0-1.4,0-1.4c-.1-.2-3.6.1-4.3,0ZM116.7,209.3c-.1-.2-1.5-.4-1.8-.4-2.3.2-3.4,2.9-2.5,4.8s4.7,3.3,4.4,0c-5.4.5-3.6-4.5,1.2-3.2s.8,5.2,2.6,4.6.5-2.1.7-2.9,2.2-2.7,1.6-3.2c-.9-.9-2.4,1.4-2.7,2.1-.9-1.9-1.5-2.5-3.4-1.1,0-.3.1-.8,0-1ZM136.1,210.5c-.2-.2-.3-.6-.7-.9-2.6-1.7-2.9.2-4.6.2s-1.8-1.9-4.2-.3c-2.9,2-.5,6.7,2.4,6s1.3-1.5,1-2.1c-2.4,1.4-4.8-2.1-1.9-2.8s1.8.6,2.4,2.4,2.6,2.6,4.1,2l2.5-2.3c0,.6,0,2.6.4,2.8.7.5,4.9.4,3.9-1.7-.5,0-2.4.1-2.5,0s.1-3.9,0-4.6h-1.8s0,1.8,0,1.8c0,0-.8-.4-.9-.5ZM156.3,209.2c-.8-1-4,0-4.6,1.5-1.5,3.6,4.4,7.4,4.7,2.7-.1-.1-2.8,1.3-3.2-.9-.6-3.2,2.9-1.7,3.2-1.9s0-1.3,0-1.4ZM169.7,214.4c2.6-2.5-1-7.4-4.2-4.7-2.5,2.2-.2,6.6,2.6,5.9s.3-.6.5-.7.8-.2,1.1-.4ZM90.8,209.2c-.2.2.2,4.9,0,5.7.6-.1,3.8.2,3.9-.2.3-1.8-2.1-.5-2.5-.9s.2-4.5,0-4.6-1.4,0-1.4,0ZM110,209.3c-2.4-1.4-3.6,4.9-3.9,6.3,1.5.1,1.5-1.3,3-1.4s1.3,1.2,1.6,1.4,1.3-.1,1.4-.5-1.9-5.6-2.2-5.8ZM142.1,209.2c-.2.2.2,5.5,0,6.4,1.4-.2,3.9.8,3.9-1.2s-2.2-.2-2.5-.5.2-4.5,0-4.6-1.4,0-1.4,0ZM146.3,209.2v5.5c0,1.2,3.2,1.1,4,.9s.6-1.2.6-1.6l-2.9-.2v-1.1c1.6-.1,2.9.8,2.5-1.4-.3-.3-2.9.7-2.5-.7,1.3,0,3.1.5,2.8-1.4h-4.6ZM161.6,209.2c-.2-.2-4.3,0-5,0s0,1.2,0,1.4c.3,0,1.8,0,1.8,0v5c2.6.4.9-4.5,1.4-5s1.4,0,1.8,0c0-.3,0-1.3,0-1.4ZM163.8,209.2c-.3,0-1.4,0-1.4,0v6.1c.4.1,1.4-.2,1.4-.5v-5.5ZM171.2,209.2c-.2.2.2,5.2,0,6.1,2.1.3,1.3-2.2,1.4-3.6,1,.6,1.8,3.6,3,3.6s.9-.3.9-.5v-5.5c-2.3-.5-1.2,1.5-1.4,3.2-.8-.4-2.7-4.4-3.9-3.2Z"/>
        <path class="st15" d="M136.1,210.5c.2.1.9.6.9.5v-1.8s1.8,0,1.8,0c.1.7-.2,4.5,0,4.6s2,0,2.5,0c1,2.1-3.1,2.2-3.9,1.7s-.5-2.2-.4-2.8l-2.5,2.3c-1.5.7-3.7-.4-4.1-2s.8-3.2-2.4-2.4-.5,4.2,1.9,2.8c.3.6-.5,2-1,2.1-2.9.7-5.3-4.1-2.4-6,2.4-1.6,3,.3,4.2.3s2-1.9,4.6-.2.5.7.7.9ZM132.9,213.8c1.9,1.1,3.6-3.3.5-3.2s-1.1,2.8-.5,3.2Z"/>
        <path class="st15" d="M95.4,209.2c.7.1,4.1-.2,4.3,0s0,1.4,0,1.4c-.3.3-3.2-.7-2.8.7,1.1-.4,2.5.4,3.4.4s.3-1.4.9-2c1.9-1.7,5.3-.2,4.3.9s-2.6-.3-3.2.2-.5,2.9.9,3.1,2.5-1.6-.2-1.1v-1.1c1.8.2,4-1,3,1.8s-3.7,2.4-5,.7-.4-1.7-.5-1.8c-.1-.1-2.9.7-3.6.4v1.1c.5,0,2.7-.1,2.9,0s0,1.4,0,1.4c-.2.2-3.7.4-4.3.4v-6.4Z"/>
        <path class="st15" d="M116.7,209.3c.2.2,0,.7,0,1,1.9-1.4,2.5-.8,3.4,1.1.3-.7,1.7-3,2.7-2.1s-1.4,2.6-1.6,3.2,0,2.6-.7,2.9c-1.8.6-1.1-4.2-2.6-4.6-4.7-1.3-6.6,3.7-1.2,3.2.3,3.2-3.6,1.7-4.4,0s.2-4.6,2.5-4.8,1.7.2,1.8.4Z"/>
        <path class="st15" d="M146.3,209.2h4.6c.3,1.9-1.5,1.4-2.8,1.4-.4,1.4,2.2.4,2.5.7.4,2.2-.9,1.3-2.5,1.4v1.1s2.9.2,2.9.2c0,.4-.2,1.5-.6,1.6-.9.2-4,.3-4-.9v-5.5Z"/>
        <path class="st15" d="M171.2,209.2c1.2-1.2,3.1,2.8,3.9,3.2.2-1.7-.9-3.7,1.4-3.2v5.5c0,.2-.6.5-.9.5-1.2,0-2-3-3-3.6-.1,1.4.7,3.8-1.4,3.6.2-.9-.2-5.8,0-6.1Z"/>
        <path class="st15" d="M110,209.3c.3.2,2.2,5.5,2.2,5.8s-1.1.7-1.4.5.4-1.7-1.6-1.4-1.5,1.6-3,1.4c.2-1.5,1.5-7.8,3.9-6.3Z"/>
        <path class="st15" d="M169.7,214.4c-.2.2-.7.2-1.1.4s-.2.6-.5.7c-2.8.7-5.2-3.7-2.6-5.9,3.2-2.7,6.8,2.2,4.2,4.7ZM166.3,210.7c-1.3,1.4.2,4.1,2.1,2.9s-.4-4.6-2.1-2.9Z"/>
        <path class="st15" d="M156.3,209.2c.1.1,0,1.3,0,1.4-.3.3-3.8-1.3-3.2,1.9s3.1.8,3.2.9c-.2,4.7-6.1.9-4.7-2.7s3.8-2.5,4.6-1.5Z"/>
        <path class="st15" d="M161.6,209.2c0,0,0,1.1,0,1.4-.4,0-1.7-.1-1.8,0-.5.5,1.2,5.4-1.4,5v-5c0,0-1.5,0-1.8,0,0-.3,0-1.4,0-1.4.7,0,4.8-.2,5,0Z"/>
        <path class="st15" d="M142.1,209.2c0,0,1.4,0,1.4,0,.2.2-.2,4.5,0,4.6.3.3,2.5-.7,2.5.5,0,2.1-2.5,1-3.9,1.2.2-.9-.2-6.2,0-6.4Z"/>
        <path class="st15" d="M90.8,209.2c0,0,1.4,0,1.4,0,.2.2-.2,4.5,0,4.6.4.4,2.8-.9,2.5.9s-3.3,0-3.9.2c.2-.8-.2-5.5,0-5.7Z"/>
        <path class="st15" d="M163.8,209.2v5.5c0,.4-1,.7-1.4.5v-6.1c0,0,1.2,0,1.4,0Z"/>
        <path class="st4" d="M132.9,213.8c-.7-.4-1.6-3,.5-3.2,3.1-.2,1.4,4.2-.5,3.2Z"/>
        <path class="st4" d="M166.3,210.7c1.7-1.7,4,1.8,2.1,2.9s-3.4-1.6-2.1-2.9Z"/>
      </g>
      <g>
        <path class="st4" d="M100.1,114.2c1.2,3.2,8,7.2,10.9,9.3l-.5-9.6,8.9-.4-6.4-13.7c3.1-5.5,5.7-11.3,9.2-16.5l8.1,16.9-7,13.3c2.4-.8,5,0,7.4-.8l5.1-15.7c.1-.4.4-.5.8-.6.7-.1,6.7.6,7,.9l6.4,20.1,11.3-15.9c.8-.2,6.9.3,7.2.7l.8,10.3c5-2.7,10.5-4.4,16.1-4.9.6.2,5.9,9.6,6.4,10.7s.4.8.3,1.3c-1.3.3-9.9,2.4-10,3.4,5.2,4.5,11.7,6.3,13.5,13.7,1,12-14.3,15.2-23.5,16l.4,3.6c0,.2,0,.7,0,.7-.8.6-10.7-1.4-12.5-1.1,3.2,3.8,4.4,7.1,3.6,12.1-1.1,6.2-5.8,9.8-11.7,11l3.9.7c.9,0,5.6.3,5.7.9l-1.4,15.8-54.8-5.3c.6-5,1.4-10.6,4-15.1s4-4.8,5.1-5.6,3.3-1.5,4.5-2.1l-7.3-1.1h-2.7c.5-2.7.9-5.7,1.9-8.3s3.2-4,2.7-6.7c-8.4,5.4-18.2,7.6-27.9,9.3-.6-2-9.3-13.6-9.1-14.4s.6-.4.9-.5c5-1.7,15.8-1.5,19.7-5.5s-2-5.7-2.5-5.2c0,.7.2,4.6,0,4.9s-3.6,1.4-4.1,1.5c-3.2.1-7.7-.6-11-.7s-5.5,1-5.5-.2v-6.1c0-.7-2.1-.5-2.1-.5-.1-.1-.1-3.4,0-3.6.2-.2,6-.1,6.9-.4s.2-.6.5-.7c.4,0,3.9-.2,4,0s-.2,2.7,0,2.9,1.5,0,2.1.2c1.2.3,1.5,1.3,1.6,1.3.6,0,2.6-1.7,3.7-1.4l-5.7-4.4c-3.3-3-7.9-9.4-8.4-14-1.5-13.5,18.2-21.2,28.8-23.2l9.1,14c.2.8-.6.4-.7.5-3.8,1.2-8.1,1.9-11.5,4s-3,1.7-2,4.2ZM122.1,88.5c-.8-.2-.6.1-.8.5-.7,1.1-5.6,10.2-5.6,10.8,1.5,3.9,3.6,7.8,5.5,11.5.7.2.5-.3.7-.7,1.9-3.5,3.8-7,5.5-10.5l-5.3-11.6ZM103.9,95.4c-7.5,1.4-21.2,6.9-23.6,14.9s10.3,16.5,16.4,22.1c4.5,4.1,7.2,7.6,1.3,12.1s-11.3,3.7-16.1,5l5.1,8.1c.4.3,6.6-1.1,7.6-1.3,1.6-.4,3.8-1.1,5.5-1.6,6-1.8,11.9-4.9,15.8-9.8l.5,6.4,11-.4v-2.5s6.4.7,6.4.7l5-16c.9-.1,1.1.7,1.3,1.3.9,2,3.9,14.4,4.7,14.9s1.5.3,2-.2l9.4-14.9,1.1,17.8,11,1.1-1.8-26.7c2.6,4,7.4,5.7,10.7,8.7,6,5.5-3.3,8-7.8,8.4-.3.3,2.5,5.3,2.8,5.5,1.5.9,11.4-2,13.4-2.9s.4-.7.7-.8c2.1-1.2,4.1-1.8,5.2-4.4,3-7.3-7-10.9-11.1-14.7-5.8-5.4,1.7-7.8,6.4-8.7.2-.2-2.9-5.7-3.2-5.9-1.8-1.1-10.6,2.6-12.6,3.8s-2.9,2.1-4.4,4.1c-.2.3,0,.7-.8.4,0-1.8-.5-14.4-1.1-14.9s-2.4,0-2.6.7c-4.5,5.5-8.2,13.7-12.7,19-.3.4-.3.7-1,.6l-7.5-24.3c-.5-.9-1.9-.6-2.8-.6l-10.4,32.3-.7-16-13.2.4c.2,4.1.8,8.2,1.1,12.3s.3,2.4-.4,2.7c-3.3-5.8-17-11.3-18.4-17.8s3.4-7.3,7.2-8.8,3.6-1.3,5.4-1.5l-5-8.5ZM86.2,140.5v-5.2c0-1.1-3.4-1.8-4.3-.5v-3.6s-2.1,0-2.1,0l-.4,9.3h2.5c-.8-6.4,3-6.4,2.1,0h2.1ZM79.1,132h-6.4v1.8s2.1,0,2.1,0v6.8h2.1v-6.8h2.1s0-1.8,0-1.8ZM93.3,137.6c.9-1.1-1.7-4.8-5.1-2.8s-1.6,2.9-1.1,4.6,4.8,1.5,6.3.7c-.5-2.4-.4-1-1.7-.8s-2.1.2-2.6-1c.6-.2,4.1-.6,4.3-.7ZM114.3,159.7c-.8,1.4-1.5,2.5-1.4,4.3l16.2,1.4c0-6.1,13.6-5.1,15-1.8s-2.9,4.4-5.1,4.5-1.8-.5-2.7-.3-.2.7-.4.7c-3.6.2-6.4,0-10.2.8-9.9,2.1-15.7,8.2-16.7,18.4l47.7,5,1.1-9.6-30.6-2.9c-.2-1.7,1.5-2.1,2.8-2.3,9.3-1.9,31.7,1.4,30.3-13.9-.3-3.4-2.2-5-4.6-6.9-4.6-3.7-11.7-5.1-17.6-5.7-8.3-.8-19.9-.8-23.7,8.2Z"/>
        <path class="st15" d="M103.9,95.4l5,8.5c-1.8.2-3.8.9-5.4,1.5-3.8,1.5-8.3,4-7.2,8.8s15.1,12,18.4,17.8c.6-.2.4-2.1.4-2.7-.2-4.1-.9-8.2-1.1-12.3l13.2-.4.7,16,10.4-32.3c.9,0,2.3-.4,2.8.6l7.5,24.3c.7.2.7-.2,1-.6,4.5-5.3,8.2-13.4,12.7-19,.2-.8,2.2-1,2.6-.7.6.5,1,13.1,1.1,14.9.8.2.6-.2.8-.4,1.5-2,2.2-2.8,4.4-4.1s10.7-4.9,12.6-3.8,3.4,5.6,3.2,5.9c-4.7.9-12.2,3.3-6.4,8.7,4.1,3.8,14.1,7.4,11.1,14.7-1.1,2.6-3.1,3.2-5.2,4.4s-.2.6-.7.8c-2,1-11.9,3.9-13.4,2.9s-3.1-5.2-2.8-5.5c4.5-.4,13.8-2.9,7.8-8.4-3.3-3-8.1-4.7-10.7-8.7l1.8,26.7-11-1.1-1.1-17.8-9.4,14.9c-.5.5-1.4.5-2,.2-.8-.5-3.8-12.9-4.7-14.9s-.5-1.5-1.3-1.3l-5,16-6.4-.7v2.5s-11,.4-11,.4l-.5-6.4c-3.9,5-9.8,8-15.8,9.8s-4,1.2-5.5,1.6-7.2,1.6-7.6,1.3l-5.1-8.1c4.8-1.3,12.1-1.9,16.1-5,5.8-4.5,3.2-8-1.3-12.1-6.1-5.5-19.4-12-16.4-22.1s16.1-13.5,23.6-14.9Z"/>
        <path class="st3" d="M122.1,88.5l5.3,11.6c-1.7,3.6-3.6,7-5.5,10.5s0,.9-.7.7c-1.9-3.8-4-7.6-5.5-11.5,0-.6,4.9-9.7,5.6-10.8s0-.6.8-.5ZM123.2,94.6s-.7,0-.7,0c-.2.2,1.3,4.7.7,5.7-.8-.1-2.9.3-3.4-.3l.6-4.3c-1-.2-.6.2-.8.8-.7,2.1-.2,4.1-3.1,3.5.5.9,1.4.6,2.1,1.6s.7,2.6,1.1,3.7c.6,0,.4-.9.4-1.3,0-.9-.3-1.7-.4-2.7h3.6c.4.8-.9,3.8-.7,3.9s.7,0,.7,0c.4-.3.8-5,3.2-4.6,0-.8-1.4,0-1.8-.6s-1.1-5.3-1.4-5.5Z"/>
        <path class="st4" d="M123.2,94.6c.3.2.9,4.8,1.4,5.5s1.8-.3,1.8.6c-2.4-.4-2.8,4.3-3.2,4.6s-.7,0-.7,0c-.2-.1,1.1-3.1.7-3.9h-3.6c0,.9.3,1.7.4,2.7s.2,1.4-.4,1.3c-.4-1.1-.5-2.7-1.1-3.7s-1.6-.7-2.1-1.6c2.9.6,2.4-1.4,3.1-3.5s-.2-1,.8-.8l-.6,4.3c.5.7,2.6.2,3.4.3.5-1-.9-5.5-.7-5.7s.7,0,.7,0Z"/>
      </g>
    </g>
  </g>
</svg>