<?xml version="1.0" encoding="utf-8"?>
<!-- Generator: Adobe Illustrator 28.1.0, SVG Export Plug-In . SVG Version: 6.00 Build 0)  -->
<svg version="1.1" id="图层_1" xmlns="http://www.w3.org/2000/svg" xmlns:xlink="http://www.w3.org/1999/xlink" x="0px" y="0px"
	 width="256px" height="256px" viewBox="0 0 256 256" style="enable-background:new 0 0 256 256;" xml:space="preserve">
<style type="text/css">
	.st0{fill-rule:evenodd;clip-rule:evenodd;fill:#28723F;}
	.st1{fill-rule:evenodd;clip-rule:evenodd;fill:url(#SVGID_1_);filter:url(#Adobe_OpacityMaskFilter);}
	.st2{mask:url(#mask0_1032_27354_00000057110295201687234790000002738514453511882647_);}
	.st3{fill-rule:evenodd;clip-rule:evenodd;fill-opacity:0.3;}
	.st4{fill-rule:evenodd;clip-rule:evenodd;fill:url(#SVGID_00000095296189602461224770000003557535860045582010_);}
	.st5{display:none;fill-rule:evenodd;clip-rule:evenodd;fill:#75BE5E;}
	.st6{fill:url(#polygon15_00000177470326108366015310000007538519881975283132_);}
	.st7{fill:url(#polygon22_00000145772946452044311050000008267190559098605229_);}
	.st8{fill:url(#polygon29_00000005956589702928137880000009791670694512870806_);}
	.st9{fill:url(#polygon38_00000090974428207953986000000001942281759174793088_);}
	.st10{fill:url(#polygon47_00000124121739581296980970000001431264892846599058_);}
	.st11{fill:url(#polygon54_00000038388790458079653990000008441980982084433284_);}
</style>
<path class="st0" d="M104.4,42.4c-4.4-5.3-10.9-8.4-17.8-8.4H29c-6.6,0-12,5.4-12,12v12.1v10.1V160c0,6.6,5.4,12,12,12h200
	c6.6,0,12-5.4,12-12V70.1c0-6.6-5.4-12-12-12H117.4L104.4,42.4z"/>
<defs>
	<filter id="Adobe_OpacityMaskFilter" filterUnits="userSpaceOnUse" x="17" y="62" width="224" height="110">
		<feColorMatrix  type="matrix" values="1 0 0 0 0  0 1 0 0 0  0 0 1 0 0  0 0 0 1 0"/>
	</filter>
</defs>
<mask maskUnits="userSpaceOnUse" x="17" y="62" width="224" height="110" id="mask0_1032_27354_00000057110295201687234790000002738514453511882647_">
	
		<linearGradient id="SVGID_1_" gradientUnits="userSpaceOnUse" x1="32.5816" y1="239.5494" x2="213.3495" y2="58.4074" gradientTransform="matrix(1 0 0 -1 0 258)">
		<stop  offset="0" style="stop-color:#05815D"/>
		<stop  offset="1" style="stop-color:#0C575F"/>
	</linearGradient>
	<path class="st1" d="M104.4,42.4c-4.4-5.3-10.9-8.4-17.8-8.4H29c-6.6,0-12,5.4-12,12v12.1v10.1V160c0,6.6,5.4,12,12,12h200
		c6.6,0,12-5.4,12-12V70.1c0-6.6-5.4-12-12-12H117.4L104.4,42.4z"/>
</mask>
<g class="st2">
	<g>
		<path class="st3" d="M92.8,74c5,0,9.8-1.6,13.8-4.6l9.9-7.4H229c6.6,0,12,5.4,12,12v34v52c0,6.6-5.4,12-12,12H29
			c-6.6,0-12-5.4-12-12v-52V86c0-6.6,5.4-12,12-12h58H92.8z"/>
	</g>
</g>
<g>
	
		<linearGradient id="SVGID_00000179639596460198849230000006950024106698134679_" gradientUnits="userSpaceOnUse" x1="17" y1="196" x2="241" y2="48" gradientTransform="matrix(1 0 0 -1 0 258)">
		<stop  offset="9.057242e-07" style="stop-color:#C3D656"/>
		<stop  offset="1" style="stop-color:#CAEAC0"/>
	</linearGradient>
	<path style="fill-rule:evenodd;clip-rule:evenodd;fill:url(#SVGID_00000179639596460198849230000006950024106698134679_);" d="
		M92.8,74c5,0,9.8-1.6,13.8-4.6l9.9-7.4H229c6.6,0,12,5.4,12,12v34v90c0,6.6-5.4,12-12,12H29c-6.6,0-12-5.4-12-12v-90V86
		c0-6.6,5.4-12,12-12h58H92.8z"/>
</g>
<path class="st5" d="M98,177.8c0-0.1,0-12.6,0-27.9c0-1.9,0-3.6,0-5.2c0-20.8,0-22.9,0.4-25c0-0.2,0.1-0.5,0.2-0.7
	c0-0.2,0.1-0.3,0.1-0.5c0.7-3,2.3-7,3.9-9.6c5-8.1,13.3-13.4,22.7-14.7c2-0.3,5.8-0.3,7.8,0c7.1,0.9,13.4,4.1,18.4,9.1
	c4.6,4.7,7.5,10.5,8.7,17.3c0.3,2,0.3,7.2,0,9.2c-0.3,1.9-1,4.4-1.5,6c-0.6,1.8-2.3,5.1-3.3,6.5c-4.5,6.7-11.2,11.4-18.8,13.2
	c-2.6,0.6-4.4,0.8-8.5,0.9l-3.9,0.1l0,10.7l0,10.7l-6.5,0l0-27.2l0-27.2l0.3-1c0.8-2.9,2.5-5.3,4.9-6.8c2.2-1.4,4.1-1.9,6.9-1.9
	c1.4,0.1,1.9,0.1,2.8,0.4c3.9,1.3,6.7,4.1,7.8,8.1c0.3,0.8,0.3,1.3,0.3,3c0,1.8,0,2.1-0.3,3.1c-1.2,4-4.3,7-8.2,8
	c-1.5,0.4-2.4,0.4-5.3,0.4h-2.4v13.1l3.9-0.1c3.1-0.1,4.1-0.1,5.3-0.3c2.7-0.5,5.9-1.6,8.1-2.9c5.2-3,9.1-7.8,11-13.4
	c3-8.8,0.8-18.4-5.7-25.2c-8.1-8.3-21-9.9-30.9-3.7c-5.8,3.7-9.6,9.4-11.1,16.5c-0.3,1.3-0.3,1.4-0.3,29.2v0l0,27.9
	C99.5,178,98.1,177.9,98,177.8z M130.3,130c1.2-0.3,1.8-0.7,2.5-1.4c2.7-2.9,1.1-7.5-2.8-8.1c-2-0.3-4.1,0.7-5,2.6
	c-0.5,1.1-0.7,1.9-0.7,4.6v2.6h2.6C129,130.3,129.5,130.2,130.3,130z"/>
<g>
	
		<linearGradient id="polygon15_00000005975227558997759260000008490757956750854571_" gradientUnits="userSpaceOnUse" x1="24.5131" y1="228.4847" x2="24.5131" y2="221.7272" gradientTransform="matrix(2 0 0 -2 88.08 596.654)">
		<stop  offset="0" style="stop-color:#239738"/>
		<stop  offset="1" style="stop-color:#19611F"/>
	</linearGradient>
	<polygon id="polygon15" style="fill:url(#polygon15_00000005975227558997759260000008490757956750854571_);" points="140,139.7 
		121.6,187 152.7,141.3 	"/>
	
		<linearGradient id="polygon22_00000121984624139695404560000002320680752614815904_" gradientUnits="userSpaceOnUse" x1="12.3961" y1="230.6549" x2="12.3961" y2="222.9177" gradientTransform="matrix(2 0 0 -2 88.08 596.654)">
		<stop  offset="0" style="stop-color:#239738"/>
		<stop  offset="1" style="stop-color:#19611F"/>
	</linearGradient>
	<polygon id="polygon22" style="fill:url(#polygon22_00000121984624139695404560000002320680752614815904_);" points="104.2,135.3 
		121.6,187 117,136.9 	"/>
	
		<linearGradient id="polygon29_00000015344553451518675430000007044777983249393829_" gradientUnits="userSpaceOnUse" x1="20.2348" y1="229.8976" x2="20.2348" y2="219.2286" gradientTransform="matrix(2 0 0 -2 88.08 596.654)">
		<stop  offset="0" style="stop-color:#65AB31"/>
		<stop  offset="1" style="stop-color:#287531"/>
	</linearGradient>
	<polygon id="polygon29" style="fill:url(#polygon29_00000015344553451518675430000007044777983249393829_);" points="121.6,187 
		140.1,139.7 117,136.9 	"/>
	
		<linearGradient id="polygon38_00000130639050266257414020000007590351449093038251_" gradientUnits="userSpaceOnUse" x1="-262.6934" y1="252.3924" x2="-262.6934" y2="263.7143" gradientTransform="matrix(-2 0 0 2 -405.584 -401.3382)">
		<stop  offset="0" style="stop-color:#9FFF2A"/>
		<stop  offset="0.3359" style="stop-color:#7EE223"/>
		<stop  offset="1" style="stop-color:#40AC15"/>
	</linearGradient>
	<polygon id="polygon38" style="fill:url(#polygon38_00000130639050266257414020000007590351449093038251_);" points="117,136.9 
		135.4,89.4 104.2,135.3 	"/>
	
		<linearGradient id="polygon47_00000116197339676713403390000002937425796584066482_" gradientUnits="userSpaceOnUse" x1="-274.8102" y1="254.0753" x2="-274.8102" y2="265.5718" gradientTransform="matrix(-2 0 0 2 -405.584 -401.3382)">
		<stop  offset="0" style="stop-color:#9FFF2A"/>
		<stop  offset="0.3359" style="stop-color:#7EE223"/>
		<stop  offset="1" style="stop-color:#40AC15"/>
	</linearGradient>
	<polygon id="polygon47" style="fill:url(#polygon47_00000116197339676713403390000002937425796584066482_);" points="152.7,141.3 
		135.4,89.4 140,139.7 	"/>
	
		<linearGradient id="polygon54_00000127028315362417550270000013355680971193807758_" gradientUnits="userSpaceOnUse" x1="-267.0476" y1="249.5566" x2="-267.0476" y2="267.3472" gradientTransform="matrix(-2 0 0 2 -405.584 -401.3382)">
		<stop  offset="0" style="stop-color:#9FFF2A"/>
		<stop  offset="1" style="stop-color:#A8E910"/>
	</linearGradient>
	<polygon id="polygon54" style="fill:url(#polygon54_00000127028315362417550270000013355680971193807758_);" points="135.4,89.4 
		117,136.9 140,139.7 	"/>
</g>
</svg>
