<?xml version="1.0" encoding="utf-8"?>
<!-- Generator: Adobe Illustrator 28.2.0, SVG Export Plug-In . SVG Version: 6.00 Build 0)  -->
<svg version="1.1" id="Layer_1" xmlns="http://www.w3.org/2000/svg" xmlns:xlink="http://www.w3.org/1999/xlink" x="0px" y="0px"
	 width="256px" height="256px" viewBox="0 0 256 256" style="enable-background:new 0 0 256 256;" xml:space="preserve">
<style type="text/css">
	.st0{fill-rule:evenodd;clip-rule:evenodd;fill:url(#SVGID_1_);}
	.st1{fill-rule:evenodd;clip-rule:evenodd;fill:#A6A1A1;}
	.st2{fill-rule:evenodd;clip-rule:evenodd;fill:url(#SVGID_00000176029522972938008130000008964144760946815134_);}
	.st3{fill-rule:evenodd;clip-rule:evenodd;fill:url(#SVGID_00000055685064110562340390000011758561632232135834_);}
	.st4{fill-rule:evenodd;clip-rule:evenodd;fill:url(#SVGID_00000072275568464358869570000014962660638611917482_);}
	.st5{display:none;}
	.st6{display:inline;fill:#06A7FF;}
	.st7{display:inline;fill:#FF436A;}
	.st8{display:none;fill:url(#SVGID_00000005232782701631480220000008479674676512128430_);}
	.st9{fill:#E01E5A;}
	.st10{fill:#36C5F0;}
	.st11{fill:#2EB67D;}
	.st12{fill:#ECB22E;}
</style>
<g>
	<linearGradient id="SVGID_1_" gradientUnits="userSpaceOnUse" x1="17" y1="103" x2="241" y2="103">
		<stop  offset="0" style="stop-color:#36C5F0"/>
		<stop  offset="1" style="stop-color:#2EB67D"/>
	</linearGradient>
	<path class="st0" d="M104.4,42.4c-4.4-5.3-10.9-8.4-17.8-8.4H29c-6.6,0-12,5.4-12,12v114c0,6.6,5.4,12,12,12h200
		c6.6,0,12-5.4,12-12V70.1c0-6.6-5.4-12-12-12H117.4L104.4,42.4L104.4,42.4z"/>
	<g>
		<path class="st1" d="M92.8,74c5,0,9.8-1.6,13.8-4.6l9.9-7.4H229c6.6,0,12,5.4,12,12v86c0,6.6-5.4,12-12,12H29c-6.6,0-12-5.4-12-12
			V86c0-6.6,5.4-12,12-12H92.8z"/>
	</g>
	
		<linearGradient id="SVGID_00000140008889715601835660000016114223422713542578_" gradientUnits="userSpaceOnUse" x1="17" y1="304" x2="241" y2="452" gradientTransform="matrix(1 0 0 1 0 -242)">
		<stop  offset="0" style="stop-color:#FFFFFF"/>
		<stop  offset="1" style="stop-color:#DEFDFE"/>
	</linearGradient>
	<path style="fill-rule:evenodd;clip-rule:evenodd;fill:url(#SVGID_00000140008889715601835660000016114223422713542578_);" d="
		M92.8,74c5,0,9.8-1.6,13.8-4.6l9.9-7.4H229c6.6,0,12,5.4,12,12v124c0,6.6-5.4,12-12,12H29c-6.6,0-12-5.4-12-12V86
		c0-6.6,5.4-12,12-12H92.8z"/>
	
		<linearGradient id="SVGID_00000109030004579293727670000005355975414288881282_" gradientUnits="userSpaceOnUse" x1="16.9254" y1="57.3174" x2="240.9429" y2="54.8173" gradientTransform="matrix(1 0 0 -1 0 258)">
		<stop  offset="0" style="stop-color:#ECB22E"/>
		<stop  offset="1" style="stop-color:#E01E5A"/>
	</linearGradient>
	<path style="fill-rule:evenodd;clip-rule:evenodd;fill:url(#SVGID_00000109030004579293727670000005355975414288881282_);" d="
		M17,194v4c0,6.6,5.4,12,12,12h200c6.6,0,12-5.4,12-12v-4c0,6.6-5.4,12-12,12H29C22.4,206,17,200.6,17,194z"/>
	
		<linearGradient id="SVGID_00000091694046617137273030000012977246643488110214_" gradientUnits="userSpaceOnUse" x1="17" y1="318" x2="241" y2="318" gradientTransform="matrix(1 0 0 1 0 -242)">
		<stop  offset="0" style="stop-color:#2EB67D"/>
		<stop  offset="1" style="stop-color:#36C5F0"/>
	</linearGradient>
	<path style="fill-rule:evenodd;clip-rule:evenodd;fill:url(#SVGID_00000091694046617137273030000012977246643488110214_);" d="
		M106.6,69.4c-4,3-8.8,4.6-13.8,4.6H29c-6.6,0-12,5.4-12,12v4c0-6.6,5.4-12,12-12h63.8c5,0,9.8-1.6,13.8-4.6l9.9-7.4H229
		c6.6,0,12,5.4,12,12v-4c0-6.6-5.4-12-12-12H116.5L106.6,69.4z"/>
</g>
<g class="st5">
	<path class="st6" d="M98.8,125.7c-0.3-1.7-0.4-3.4-0.4-5.1c0-16.9,13.7-30.5,30.5-30.5s30.5,13.7,30.5,30.5c0,1.7-0.1,3.4-0.4,5.1
		c15.5,0.1,28,12.7,28,28.2S174.5,182,158.9,182c-7.9,0-15-3.2-20.1-8.4l0,0c-2.7-2.7-2.7-7.1,0-9.8c2.7-2.7,7.2-2.7,9.9,0
		c0.1,0.1,0.2,0.2,0.2,0.3c2.6,2.5,6.1,4,9.9,4c7.8,0,14.2-6.4,14.2-14.2s-6.4-14.2-14.2-14.2c-3.6,0-6.9,1.3-9.4,3.6h0l-0.2,0.2
		c-0.3,0.2-0.5,0.5-0.8,0.8l-0.5,0.5l0,0l-28.8,28.8l0,0c-5.1,5.2-12.2,8.5-20.1,8.5c-15.6,0-28.2-12.6-28.2-28.2
		S83.3,125.8,98.8,125.7L98.8,125.7L98.8,125.7z M99,168c7.8,0,14.2-6.4,14.2-14.2s-6.4-14.2-14.2-14.2s-14.2,6.4-14.2,14.2
		S91.2,168,99,168L99,168z M129,137.1c9.1,0,16.6-7.4,16.6-16.6S138.1,104,129,104s-16.6,7.4-16.6,16.6S119.8,137.1,129,137.1
		L129,137.1z"/>
	<path class="st7" d="M145.4,122.3c0-0.3,0-0.5,0-0.8c0-3.9,3.2-7.1,7.1-7.1s7.1,3.2,7.1,7.1c0,0.3,0,0.6-0.1,0.9
		c-0.9,16-14.2,28.7-30.5,28.7s-29.5-12.7-30.5-28.7c0-0.3-0.1-0.6-0.1-0.9c0-3.9,3.2-7.1,7.1-7.1s7.1,3.2,7.1,7.1
		c0,0.3,0,0.5,0,0.8c0.9,8.3,7.9,14.8,16.5,14.8S144.6,130.6,145.4,122.3L145.4,122.3L145.4,122.3z"/>
</g>
<linearGradient id="SVGID_00000110439752891550208840000005702961582555924360_" gradientUnits="userSpaceOnUse" x1="101.17" y1="58" x2="156.83" y2="58" gradientTransform="matrix(1 0 0 -1 0 258)">
	<stop  offset="0.5" style="stop-color:#FF4369"/>
	<stop  offset="0.5" style="stop-color:#11A7FD"/>
</linearGradient>
<path style="display:none;fill:url(#SVGID_00000110439752891550208840000005702961582555924360_);" d="M107.2,194h43.7
	c3.3,0,6,2.7,6,6v6h-55.7v-6C101.2,196.7,103.9,194,107.2,194z"/>
<g>
	<path class="st9" d="M101.3,150.6c0,5.7-4.6,10.4-10.4,10.4c-5.7,0-10.4-4.6-10.4-10.4c0-5.7,4.6-10.4,10.4-10.4h10.4V150.6z
		 M106.4,150.6c0-5.7,4.6-10.4,10.4-10.4s10.4,4.6,10.4,10.4v25.9c0,5.7-4.6,10.4-10.4,10.4s-10.4-4.6-10.4-10.4V150.6z"/>
	<path class="st10" d="M116.8,109c-5.7,0-10.4-4.6-10.4-10.4s4.6-10.4,10.4-10.4s10.4,4.6,10.4,10.4V109H116.8z M116.8,114.3
		c5.7,0,10.4,4.6,10.4,10.4s-4.6,10.4-10.4,10.4h-26c-5.7,0-10.4-4.6-10.4-10.4s4.6-10.4,10.4-10.4H116.8z"/>
	<path class="st11" d="M158.3,124.6c0-5.7,4.6-10.4,10.4-10.4s10.4,4.6,10.4,10.4s-4.6,10.4-10.4,10.4h-10.4V124.6z M153.1,124.6
		c0,5.7-4.6,10.4-10.4,10.4c-5.7,0-10.4-4.6-10.4-10.4v-26c0-5.7,4.6-10.4,10.4-10.4c5.7,0,10.4,4.6,10.4,10.4
		C153.1,98.7,153.1,124.6,153.1,124.6z"/>
	<path class="st12" d="M142.8,166.1c5.7,0,10.4,4.6,10.4,10.4c0,5.7-4.6,10.4-10.4,10.4s-10.4-4.6-10.4-10.4v-10.4H142.8z
		 M142.8,160.9c-5.7,0-10.4-4.6-10.4-10.4s4.6-10.4,10.4-10.4h26c5.7,0,10.4,4.6,10.4,10.4s-4.6,10.4-10.4,10.4H142.8z"/>
</g>
</svg>
