<?xml version="1.0" encoding="utf-8"?>
<!-- Generator: Adobe Illustrator 28.1.0, SVG Export Plug-In . SVG Version: 6.00 Build 0)  -->
<svg version="1.1" id="图层_1" xmlns="http://www.w3.org/2000/svg" xmlns:xlink="http://www.w3.org/1999/xlink" x="0px" y="0px"
	 width="256px" height="256px" viewBox="0 0 256 256" style="enable-background:new 0 0 256 256;" xml:space="preserve">
<style type="text/css">
	.st0{fill-rule:evenodd;clip-rule:evenodd;fill:#258BBD;}
	.st1{fill-rule:evenodd;clip-rule:evenodd;fill:url(#SVGID_1_);}
</style>
<path class="st0" d="M104.4,42.4C100,37.1,93.5,34,86.6,34H29c-6.6,0-12,5.4-12,12v12.1v10.1V160c0,6.6,5.4,12,12,12h200
	c6.6,0,12-5.4,12-12V70.1c0-6.6-5.4-12-12-12H117.4L104.4,42.4z"/>
<g>
	
		<linearGradient id="SVGID_1_" gradientUnits="userSpaceOnUse" x1="17" y1="304" x2="241" y2="452" gradientTransform="matrix(1 0 0 1 0 -242)">
		<stop  offset="1.811448e-06" style="stop-color:#FFFFFF"/>
		<stop  offset="1" style="stop-color:#A4D6FF"/>
	</linearGradient>
	<path class="st1" d="M92.8,74c5,0,9.8-1.6,13.8-4.6l9.9-7.4H229c6.6,0,12,5.4,12,12v34v90c0,6.6-5.4,12-12,12H29
		c-6.6,0-12-5.4-12-12v-90V86c0-6.6,5.4-12,12-12h58H92.8z"/>
</g>
<path id="Layer_00000098908239509812424220000000839442036982123401_" class="st0" d="M96.3,98.3c0.2-0.1,0.4-0.1,0.5-0.1
	c3.9,0,7.8,0,11.6,0c8.8,0,17.6,0,26.4,0c6,0,12,0,18,0c13.9,0,27.8,0,41.7,0.1c0.1,0,0.2,0.1,0.2,0.2c0.1,0.4,0.2,0.7,0.2,1.1
	c-1.3,0.6-2.5,1.5-3.6,2.4c-2.3,2-4.3,4.4-5.9,7c-2,3.1-3.5,6.5-4.6,9.9c-1.7,5.3-2.6,10.8-3,16.3c-0.3,3.7-0.9,7.3-1.8,10.9
	c-0.9,3.5-2.1,6.9-3.8,10.1c-1.6,2.9-3.5,5.7-5.8,8c-1.1,1.1-2.3,2.2-3.6,3.2c-1.1,0.9-2.3,1.7-3.3,2.7c-0.4,0.4-0.8,0.9-0.9,1.4
	c-0.4,0.1-0.8,0-1.2,0c-1.1,0-2.2,0-3.2,0c-1.4-0.1-2.8,0-4.2,0c-3.9,0-7.9,0-11.8,0c-0.6,0-1.2,0-1.7,0c-1.1,0-2.1,0-3.1,0
	c-0.6,0.1-1.2,0-1.8,0c-0.5,0-1,0-1.5,0c-2.1-0.1-4.2,0-6.4,0c-1.1,0-2.3,0-3.4,0c-0.6,0-1.1,0-1.6,0c-1.1,0-2.1,0-3.2,0
	c-1.7,0-3.4,0-5.1,0c-0.5,0-1,0-1.5,0c-1.5-0.1-3.1,0-4.6,0c-2.3,0-4.6,0-6.8,0c-0.6,0-1.2,0-1.8,0c-1.3,0-2.5,0-3.8,0
	c-0.5-0.1-1.1,0-1.6,0c-0.7-0.1-1.5,0-2.2,0c-1.8-0.1-3.7,0.1-5.5,0c-2.1,0.1-4.2,0-6.4,0c-1.6,0-3.1,0-4.7,0c-1.3-0.1-2.6,0-4,0
	c-0.8,0-1.6,0-2.5,0c-1.3,0-2.5,0-3.8,0c-0.7,0-1.4,0-2.1,0c1.3-1,2.6-2,3.8-3.2c3.2-3.1,6-6.6,8.4-10.3c3.8-6,6.3-12.9,6.7-20.1
	c0.1-0.7,0.1-1.5,0.1-2.2c0.2-7.3,1.7-14.5,4.7-21.2c1.5-3.3,3.3-6.5,5.6-9.4c1.3-1.6,2.7-3.1,4.2-4.4
	C93.6,99.8,94.9,98.9,96.3,98.3L96.3,98.3z M140,103.9c-3.5,3.8-6.1,8.5-7.8,13.4c-2,5.4-3,11.1-3.5,16.9
	c-0.4,5.9-1.5,11.9-3.6,17.4c-1.3,3.4-3.1,6.7-5.4,9.6c-1.9,2.4-4.1,4.5-6.5,6.4c-1.1,0.9-2.3,1.7-3.3,2.8c15.9,0,31.9,0,47.8,0
	c0.6-0.9,1.5-1.6,2.4-2.3c1.3-1,2.7-2.1,3.9-3.2c2.3-2,4.2-4.4,5.9-7c1.8-2.9,3.2-6.1,4.2-9.4c1.1-3.5,1.8-7.1,2.2-10.8
	c0.3-2,0.3-4.1,0.6-6.1c0.6-5.3,1.8-10.6,3.7-15.6c1.4-3.5,3.1-6.9,5.4-9.9c1.8-2.4,3.9-4.6,6.4-6.3c-7.9,0-15.8,0-23.7,0
	c-2.3,0-4.5-0.1-6.8,0c-4.8,0-9.6,0-14.5,0c-0.8,0-1.6,0-2.4,0C143.2,100.7,141.5,102.2,140,103.9L140,103.9z"/>
</svg>
