<?xml version="1.0" encoding="utf-8"?>
<!-- Generator: Adobe Illustrator 28.1.0, SVG Export Plug-In . SVG Version: 6.00 Build 0)  -->
<svg version="1.1" id="图层_1" xmlns="http://www.w3.org/2000/svg" xmlns:xlink="http://www.w3.org/1999/xlink" x="0px" y="0px"
	 width="256px" height="256px" viewBox="0 0 256 256" style="enable-background:new 0 0 256 256;" xml:space="preserve">
<style type="text/css">
	.st0{fill-rule:evenodd;clip-rule:evenodd;fill:#B44617;}
	.st1{fill-rule:evenodd;clip-rule:evenodd;fill:url(#SVGID_1_);filter:url(#Adobe_OpacityMaskFilter);}
	.st2{mask:url(#mask0_532_12585_00000183215018855945436120000014969511216726351290_);}
	.st3{fill-rule:evenodd;clip-rule:evenodd;fill-opacity:0.3;}
	.st4{fill-rule:evenodd;clip-rule:evenodd;fill:url(#SVGID_00000031913589864545734400000008368296682482219176_);}
	.st5{display:none;fill:#FFFFFF;}
	.st6{fill:#FFFFFF;}
</style>
<path class="st0" d="M104.4,42.4c-4.4-5.3-10.9-8.4-17.8-8.4H29c-6.6,0-12,5.4-12,12v12.1v10.1V160c0,6.6,5.4,12,12,12h200
	c6.6,0,12-5.4,12-12V70.1c0-6.6-5.4-12-12-12H117.4L104.4,42.4z"/>
<defs>
	<filter id="Adobe_OpacityMaskFilter" filterUnits="userSpaceOnUse" x="17" y="62" width="224" height="110">
		<feColorMatrix  type="matrix" values="1 0 0 0 0  0 1 0 0 0  0 0 1 0 0  0 0 0 1 0"/>
	</filter>
</defs>
<mask maskUnits="userSpaceOnUse" x="17" y="62" width="224" height="110" id="mask0_532_12585_00000183215018855945436120000014969511216726351290_">
	
		<linearGradient id="SVGID_1_" gradientUnits="userSpaceOnUse" x1="32.5816" y1="239.5494" x2="213.3495" y2="58.4074" gradientTransform="matrix(1 0 0 -1 0 258)">
		<stop  offset="0" style="stop-color:#05815D"/>
		<stop  offset="1" style="stop-color:#0C575F"/>
	</linearGradient>
	<path class="st1" d="M104.4,42.4c-4.4-5.3-10.9-8.4-17.8-8.4H29c-6.6,0-12,5.4-12,12v12.1v10.1V160c0,6.6,5.4,12,12,12h200
		c6.6,0,12-5.4,12-12V70.1c0-6.6-5.4-12-12-12H117.4L104.4,42.4z"/>
</mask>
<g class="st2">
	<g>
		<path class="st3" d="M92.8,74c5,0,9.8-1.6,13.8-4.6l9.9-7.4H229c6.6,0,12,5.4,12,12v34v52c0,6.6-5.4,12-12,12H29
			c-6.6,0-12-5.4-12-12v-52V86c0-6.6,5.4-12,12-12h58H92.8z"/>
	</g>
</g>
<g>
	
		<linearGradient id="SVGID_00000073003315436684714960000007399002640873885597_" gradientUnits="userSpaceOnUse" x1="17" y1="196" x2="241" y2="48" gradientTransform="matrix(1 0 0 -1 0 258)">
		<stop  offset="0" style="stop-color:#FB9806"/>
		<stop  offset="1" style="stop-color:#EF5821"/>
	</linearGradient>
	<path style="fill-rule:evenodd;clip-rule:evenodd;fill:url(#SVGID_00000073003315436684714960000007399002640873885597_);" d="
		M92.8,74c5,0,9.8-1.6,13.8-4.6l9.9-7.4H229c6.6,0,12,5.4,12,12v34v90c0,6.6-5.4,12-12,12H29c-6.6,0-12-5.4-12-12v-90V86
		c0-6.6,5.4-12,12-12h58H92.8z"/>
</g>
<path class="st5" d="M127.9,92.1c0.5-0.3,1.2-0.1,1.4,0.5c0.2,0.5-0.1,0.9-0.4,1.3c-1.8,2.6-3,5.6-3.6,8.7c-0.3,0.1-0.4,0.5-0.3,0.9
	c0.2,0.1,0.3,0.1,0.5,0.2c3.6-0.3,7.2-0.2,10.7,0.5c6.4,1.3,12.3,4.5,16.9,9.1c4.6,4.6,7.8,10.5,9.1,16.8c1.4,6.8,0.6,14.1-2.2,20.5
	c-6.1,13-16.4,24-28.9,31c-0.4,0.2-1,0.2-1.3-0.2c-0.3-0.4-0.2-1,0.1-1.4c1.7-2.4,2.9-5.1,3.5-7.9c0.1-0.6,0.3-1.2,0.2-1.8
	c-0.2-0.3-0.6-0.2-0.8-0.2c-6.1,0.6-12.4-0.5-17.9-3.2c-5.9-2.8-10.9-7.5-14.2-13.2c-3.1-5.2-4.7-11.3-4.6-17.3
	c0-5.5,1.5-11,4.2-15.9C106.4,108.7,116.1,98.6,127.9,92.1L127.9,92.1z M127.6,123.9c-3.6,0.5-7,2.6-9,5.7c-1.4,2.1-2.2,4.6-2.2,7.1
	c-0.1,3.4,1.2,6.7,3.6,9.1c2,2.2,4.8,3.6,7.8,4c3,0.4,6.2-0.3,8.7-2c2.6-1.6,4.6-4.2,5.4-7.2c1.7-5.1-0.3-11.1-4.7-14.2
	C134.5,124.4,130.9,123.5,127.6,123.9L127.6,123.9z"/>
<path class="st6" d="M163.9,130.9c-16.8-5.2-34.5,0.6-51.5-1.9c-5.3-1-4-7.4,0.1-9.3c11.1-6.9,24.3-8.4,37.2-9.2
	c5-0.3,8.4-5.3,6.7-10.1v0c-1.1-3.3-4.4-5.4-7.8-5.1c-24.4,2.1-53.5,7.4-66.1,29.7c-0.4,0.7-0.7,1.6-0.8,2.4
	c-5.5,34.1,42,20.6,62.3,23.1c6.2,0,6.9,8.1,1.9,10.8c-11.6,7.6-25.6,9-39.3,8.3c-5.5-0.3-9.5,5.3-7.4,10.4c0.1,0.2,0.1,0.3,0.2,0.5
	c1.2,3,4.1,4.9,7.4,4.8c25.3-0.9,55.4-7,69-29.6c0.2-0.4,0.4-0.8,0.6-1.2C179.9,145.1,174,133,163.9,130.9L163.9,130.9z"/>
</svg>
