<?xml version="1.0" encoding="utf-8"?>
<!-- Generator: Adobe Illustrator 28.1.0, SVG Export Plug-In . SVG Version: 6.00 Build 0)  -->
<svg version="1.1" id="图层_1" xmlns="http://www.w3.org/2000/svg" xmlns:xlink="http://www.w3.org/1999/xlink" x="0px" y="0px"
	 width="256px" height="256px" viewBox="0 0 256 256" style="enable-background:new 0 0 256 256;" xml:space="preserve">
<style type="text/css">
	.st0{fill-rule:evenodd;clip-rule:evenodd;fill:#57129B;}
	.st1{fill-rule:evenodd;clip-rule:evenodd;fill:url(#SVGID_1_);filter:url(#Adobe_OpacityMaskFilter);}
	.st2{mask:url(#mask0_758_21303_00000014595675756329874170000011393378174403483582_);}
	.st3{fill-rule:evenodd;clip-rule:evenodd;fill-opacity:0.3;}
	.st4{fill-rule:evenodd;clip-rule:evenodd;fill:url(#SVGID_00000181080145495292247090000009795727238509498266_);}
	.st5{display:none;fill:url(#SVGID_00000071547174812349830140000017290345787581710521_);}
	
		.st6{fill:none;stroke:url(#SVGID_00000176011716141626877940000009782829330800249785_);stroke-width:12;stroke-linecap:round;stroke-linejoin:round;stroke-miterlimit:6.25;}
	
		.st7{fill:none;stroke:url(#SVGID_00000046311582736635011580000014518542227292683141_);stroke-width:12;stroke-linecap:round;stroke-linejoin:round;stroke-miterlimit:6.25;}
</style>
<path class="st0" d="M104.4,42.4c-4.4-5.3-10.9-8.4-17.8-8.4H29c-6.6,0-12,5.4-12,12v12.1v10.1V160c0,6.6,5.4,12,12,12h200
	c6.6,0,12-5.4,12-12V70.1c0-6.6-5.4-12-12-12H117.4L104.4,42.4z"/>
<defs>
	<filter id="Adobe_OpacityMaskFilter" filterUnits="userSpaceOnUse" x="17" y="62" width="224" height="110">
		<feColorMatrix  type="matrix" values="1 0 0 0 0  0 1 0 0 0  0 0 1 0 0  0 0 0 1 0"/>
	</filter>
</defs>
<mask maskUnits="userSpaceOnUse" x="17" y="62" width="224" height="110" id="mask0_758_21303_00000014595675756329874170000011393378174403483582_">
	
		<linearGradient id="SVGID_1_" gradientUnits="userSpaceOnUse" x1="32.5816" y1="239.5494" x2="213.3495" y2="58.4074" gradientTransform="matrix(1 0 0 -1 0 258)">
		<stop  offset="0" style="stop-color:#05815D"/>
		<stop  offset="1" style="stop-color:#0C575F"/>
	</linearGradient>
	<path class="st1" d="M104.4,42.4c-4.4-5.3-10.9-8.4-17.8-8.4H29c-6.6,0-12,5.4-12,12v12.1v10.1V160c0,6.6,5.4,12,12,12h200
		c6.6,0,12-5.4,12-12V70.1c0-6.6-5.4-12-12-12H117.4L104.4,42.4z"/>
</mask>
<g class="st2">
	<g>
		<path class="st3" d="M92.8,74c5,0,9.8-1.6,13.8-4.6l9.9-7.4H229c6.6,0,12,5.4,12,12v34v52c0,6.6-5.4,12-12,12H29
			c-6.6,0-12-5.4-12-12v-52V86c0-6.6,5.4-12,12-12h58H92.8z"/>
	</g>
</g>
<g>
	
		<linearGradient id="SVGID_00000107590441444529443990000009834583105979764919_" gradientUnits="userSpaceOnUse" x1="202.8235" y1="-16.5035" x2="46.4575" y2="276.8616" gradientTransform="matrix(1 0 0 -1 0 258)">
		<stop  offset="0" style="stop-color:#FFD6BB"/>
		<stop  offset="1" style="stop-color:#FFD767"/>
	</linearGradient>
	<path style="fill-rule:evenodd;clip-rule:evenodd;fill:url(#SVGID_00000107590441444529443990000009834583105979764919_);" d="
		M92.8,74c5,0,9.8-1.6,13.8-4.6l9.9-7.4H229c6.6,0,12,5.4,12,12v34v90c0,6.6-5.4,12-12,12H29c-6.6,0-12-5.4-12-12v-90V86
		c0-6.6,5.4-12,12-12h58H92.8z"/>
</g>
<linearGradient id="SVGID_00000002353422658531198020000001074608691295244973_" gradientUnits="userSpaceOnUse" x1="128.6325" y1="166.1772" x2="128.6325" y2="96.394" gradientTransform="matrix(1 0 0 -1 0 258)">
	<stop  offset="0" style="stop-color:#9500E3"/>
	<stop  offset="1" style="stop-color:#6F24FA"/>
</linearGradient>
<path style="display:none;fill:url(#SVGID_00000002353422658531198020000001074608691295244973_);" d="M176.7,127.2v30.7
	c0,3.4-2.7,6.2-6.1,6.2c-3.4,0-6.1-2.8-6.1-6.2v-30.7c0-3.4,2.7-6.2,6.1-6.2C174,121,176.7,123.8,176.7,127.2z M166.8,107.1
	c-2.7,0-4.8,2.1-4.8,4.6s2.2,4.6,4.8,4.6h7.7c2.7,0,4.8-2.1,4.8-4.6s-2.2-4.6-4.8-4.6H166.8z M78,158v-42.8c0-4.5,3.7-8.2,8.2-8.2
	c2.6,0,4.9,1.2,6.5,3.2l3.9,4.9c5.1,6.4,14.8,6.4,19.8,0l4-5c1.6-2,4-3.2,6.6-3.1c4.5,0.1,8,3.9,8,8.4V158c0,3.3-2.7,6-6,6.1
	c-3.4,0.1-6.2-2.8-6.2-6.2V144c0-5.7-7-8.2-10.7-4.1c-1.5,1.6-3.5,2.6-5.7,2.6c-2.2,0-4.2-1-5.7-2.6c-3.7-4.1-10.7-1.6-10.7,4.1
	v13.8c0,3.4-2.8,6.3-6.2,6.2C80.7,164,78,161.3,78,158z M142.8,144v-30.7c0-3.4,2.7-6.2,6.1-6.2c3.4,0,6.1,2.8,6.1,6.2V144
	c0,3.4-2.7,6.2-6.1,6.2C145.5,150.2,142.8,147.4,142.8,144z M145.1,164.1c-2.7,0-4.8-2.1-4.8-4.6c0-2.5,2.2-4.6,4.8-4.6h7.7
	c2.7,0,4.8,2.1,4.8,4.6c0,2.5-2.2,4.6-4.8,4.6H145.1z"/>
<g id="Layer_2">
	<g id="E446_Sound_triangle_wave">
		
			<linearGradient id="SVGID_00000052075436655244728830000015316074745340795580_" gradientUnits="userSpaceOnUse" x1="78.625" y1="140.3654" x2="176.7669" y2="140.3654">
			<stop  offset="0" style="stop-color:#9500E3"/>
			<stop  offset="1" style="stop-color:#6F24FA"/>
		</linearGradient>
		
			<circle style="fill:none;stroke:url(#SVGID_00000052075436655244728830000015316074745340795580_);stroke-width:12;stroke-linecap:round;stroke-linejoin:round;stroke-miterlimit:6.25;" cx="127.7" cy="140.4" r="43.1"/>
		
			<linearGradient id="SVGID_00000159455136928814006920000012832914238723762585_" gradientUnits="userSpaceOnUse" x1="89.1721" y1="140.3654" x2="166.2197" y2="140.3654">
			<stop  offset="0" style="stop-color:#9500E3"/>
			<stop  offset="1" style="stop-color:#6F24FA"/>
		</linearGradient>
		
			<path style="fill:none;stroke:url(#SVGID_00000159455136928814006920000012832914238723762585_);stroke-width:12;stroke-linecap:round;stroke-linejoin:round;stroke-miterlimit:6.25;" d="
			M95.2,128.1c6.5,0,6.5,24.6,13,24.6s6.5-24.6,13-24.6c6.5,0,6.5,24.6,13,24.6s6.5-24.6,13-24.6c6.5,0,6.5,24.6,13,24.6"/>
	</g>
</g>
</svg>
