<?xml version="1.0" encoding="utf-8"?>
<!-- Generator: Adobe Illustrator 28.1.0, SVG Export Plug-In . SVG Version: 6.00 Build 0)  -->
<svg version="1.1" id="图层_1" xmlns="http://www.w3.org/2000/svg" xmlns:xlink="http://www.w3.org/1999/xlink" x="0px" y="0px"
	 width="256px" height="256px" viewBox="0 0 256 256" style="enable-background:new 0 0 256 256;" xml:space="preserve">
<style type="text/css">
	.st0{fill-rule:evenodd;clip-rule:evenodd;stroke:#A62929;stroke-width:0.3543;}
	.st1{fill-rule:evenodd;clip-rule:evenodd;fill:url(#SVGID_1_);filter:url(#Adobe_OpacityMaskFilter);}
	.st2{mask:url(#mask0_2031_32896_00000075148630411386915990000014219491852187286414_);}
	.st3{fill-rule:evenodd;clip-rule:evenodd;fill-opacity:0.3;}
	.st4{fill-rule:evenodd;clip-rule:evenodd;fill:url(#SVGID_00000074442224073446350900000017770853251520694936_);}
	.st5{fill:#FFDFC6;stroke:#A62929;}
	.st6{fill:#FF7C7C;fill-opacity:0.4902;stroke:#A72929;}
	.st7{fill:#A72929;stroke:#A62929;}
	.st8{stroke:#000000;}
	.st9{stroke:#A62929;stroke-width:0.3543;}
	.st10{fill:url(#path3677-0-6_00000176009140673321381960000002757346074033705620_);}
	.st11{fill:none;stroke:#000000;}
	.st12{fill:url(#path3677-0-6-7_00000091704791520741787960000004573019192382545289_);}
</style>
<path class="st0" d="M104.4,42.4c-4.4-5.3-10.9-8.4-17.8-8.4H29c-6.6,0-12,5.4-12,12v12.1v10.1V160c0,6.6,5.4,12,12,12h200
	c6.6,0,12-5.4,12-12V70.1c0-6.6-5.4-12-12-12H117.4L104.4,42.4z"/>
<defs>
	<filter id="Adobe_OpacityMaskFilter" filterUnits="userSpaceOnUse" x="17" y="62" width="224" height="110">
		<feColorMatrix  type="matrix" values="1 0 0 0 0  0 1 0 0 0  0 0 1 0 0  0 0 0 1 0"/>
	</filter>
</defs>
<mask maskUnits="userSpaceOnUse" x="17" y="62" width="224" height="110" id="mask0_2031_32896_00000075148630411386915990000014219491852187286414_">
	
		<linearGradient id="SVGID_1_" gradientUnits="userSpaceOnUse" x1="32.5816" y1="239.5494" x2="213.3495" y2="58.4074" gradientTransform="matrix(1 0 0 -1 0 258)">
		<stop  offset="0" style="stop-color:#05815D"/>
		<stop  offset="1" style="stop-color:#0C575F"/>
	</linearGradient>
	<path class="st1" d="M104.4,42.4c-4.4-5.3-10.9-8.4-17.8-8.4H29c-6.6,0-12,5.4-12,12v12.1v10.1V160c0,6.6,5.4,12,12,12h200
		c6.6,0,12-5.4,12-12V70.1c0-6.6-5.4-12-12-12H117.4L104.4,42.4z"/>
</mask>
<g class="st2">
	<g>
		<path class="st3" d="M92.8,74c5,0,9.8-1.6,13.8-4.6l9.9-7.4H229c6.6,0,12,5.4,12,12v34v52c0,6.6-5.4,12-12,12H29
			c-6.6,0-12-5.4-12-12v-52V86c0-6.6,5.4-12,12-12h58H92.8z"/>
	</g>
</g>
<g>
	
		<linearGradient id="SVGID_00000062907028091207380670000007857591231963841983_" gradientUnits="userSpaceOnUse" x1="17" y1="196" x2="241" y2="48" gradientTransform="matrix(1 0 0 -1 0 258)">
		<stop  offset="0" style="stop-color:#FCB3B2"/>
		<stop  offset="1" style="stop-color:#CA8BE8"/>
	</linearGradient>
	<path style="fill-rule:evenodd;clip-rule:evenodd;fill:url(#SVGID_00000062907028091207380670000007857591231963841983_);" d="
		M92.8,74c5,0,9.8-1.6,13.8-4.6l9.9-7.4H229c6.6,0,12,5.4,12,12v34v90c0,6.6-5.4,12-12,12H29c-6.6,0-12-5.4-12-12v-90V86
		c0-6.6,5.4-12,12-12h58H92.8z"/>
</g>
<g id="spek" transform="translate(-108.9,-300.951)">
	<g id="g3739">
		<path id="path2816" class="st5" d="M278.8,441.1c0,17.6-17.8,31.9-39.8,31.9s-39.8-14.3-39.8-31.9l0,0c0-17.6,17.8-31.9,39.8-31.9
			S278.8,423.4,278.8,441.1L278.8,441.1z"/>
		<path id="path3590" class="st6" d="M253.1,455.2c0,6.4-6.2,11.6-13.9,11.6c-7.7,0-13.9-5.2-13.9-11.6c0-6.4,6.2-11.6,13.9-11.6
			C246.9,443.5,253.1,448.8,253.1,455.2z"/>
		<path id="path3592" class="st7" d="M237.2,455.4c0,1.1-1,2.1-2.3,2.1c-1.3,0-2.3-0.9-2.3-2.1c0-1.1,1-2.1,2.3-2.1
			C236.2,453.3,237.2,454.2,237.2,455.4z"/>
		<path id="path3592-1" class="st7" d="M245.3,455.4c0,1.1-1,2.1-2.3,2.1c-1.3,0-2.3-0.9-2.3-2.1c0-1.1,1-2.1,2.3-2.1
			C244.3,453.3,245.3,454.2,245.3,455.4z"/>
		<path id="path3616-7-4" class="st8" d="M226.9,439.8c0,1.9,1.4,3.4,3,3.4c1.7,0,3-1.5,3-3.4c0-1.9-1.4-3.4-3-3.4
			C228.3,436.4,226.9,437.9,226.9,439.8z"/>
		<path id="path3616-7-4-7" class="st8" d="M251.1,439.8c0,1.9-1.4,3.4-3,3.4s-3-1.5-3-3.4c0-1.9,1.4-3.4,3-3.4
			S251.1,437.9,251.1,439.8z"/>
		<path id="path2844" class="st9" d="M238.9,395.4c-18,0-30.8,5-39.1,12.5c-7.8,7.1-11.7,16.4-12.5,25.8c-0.3,2.3-0.1,4.7,0.4,7
			c0.5,2.3,1.8,4.6,3.6,6.1c2.6,2.2,9.7,3.6,9.7,3.6s-3.3-9.1-0.4-17.6c1.4-4.1,6.8-11.1,6.8-11.1s-7.1-1.5-10.4-0.4
			c-2.6,0.9-5,2.6-6.8,4.8c1.8-6.3,5.2-12.2,10.6-17c8-7.3,20.4-12.1,38.1-12.1s30.2,4.9,38.3,12.1c5.4,4.9,8.9,10.8,10.7,17.1
			c-1.7-2.2-4.2-4-6.8-4.9c-3.3-1.1-10.4,0.4-10.4,0.4s5.4,7,6.8,11.1c3,8.5-0.4,17.6-0.4,17.6s7.1-1.4,9.7-3.6
			c1.8-1.5,3.1-3.8,3.6-6.1c0.3-1.6,0.5-3.3,0.5-5h0c-0.4-10.1-4.4-20.1-12.8-27.7C269.7,400.3,256.9,395.4,238.9,395.4z"/>
		
			<radialGradient id="path3677-0-6_00000152970393791792129740000010984784029188364683_" cx="-58.5995" cy="272.9194" r="6.5926" gradientTransform="matrix(-1.1683 -0.5776 -0.5766 1.1664 305.5461 98.1675)" gradientUnits="userSpaceOnUse">
			<stop  offset="0" style="stop-color:#FFC7C7"/>
			<stop  offset="1" style="stop-color:#FF3F3F;stop-opacity:0.498"/>
		</radialGradient>
		<path id="path3677-0-6" style="fill:url(#path3677-0-6_00000152970393791792129740000010984784029188364683_);" d="M225.3,450.3
			c0,4.6-3.9,8.4-8.6,8.4c-4.8,0-8.6-3.7-8.6-8.3c0,0,0,0,0,0c0-4.6,3.9-8.4,8.6-8.4C221.4,442,225.3,445.7,225.3,450.3
			C225.3,450.3,225.3,450.3,225.3,450.3z"/>
		<path id="path2887" class="st11" d="M250.1,431.1c-0.8-1.1-2.4-1.3-3.6-0.4c-0.2,0.1-0.3,0.3-0.4,0.4"/>
		<path id="path2887-1" class="st11" d="M227.3,431.1c0.8-1.1,2.4-1.3,3.6-0.4c0.2,0.1,0.3,0.3,0.4,0.4"/>
		
			<radialGradient id="path3677-0-6-7_00000072966125729589708490000014806913986563269819_" cx="-46.6375" cy="278.8572" r="6.5926" gradientTransform="matrix(-1.1683 -0.5776 -0.5766 1.1664 367.2607 98.108)" gradientUnits="userSpaceOnUse">
			<stop  offset="0" style="stop-color:#FFC7C7"/>
			<stop  offset="1" style="stop-color:#FF3F3F;stop-opacity:0.498"/>
		</radialGradient>
		<path id="path3677-0-6-7" style="fill:url(#path3677-0-6-7_00000072966125729589708490000014806913986563269819_);" d="
			M269.6,450.3c0,4.6-3.9,8.4-8.6,8.4s-8.6-3.7-8.6-8.3c0,0,0,0,0,0c0-4.6,3.9-8.4,8.6-8.4S269.6,445.7,269.6,450.3
			C269.6,450.3,269.6,450.3,269.6,450.3z"/>
	</g>
</g>
</svg>
