<?xml version="1.0" encoding="utf-8"?>
<!-- Generator: Adobe Illustrator 28.1.0, SVG Export Plug-In . SVG Version: 6.00 Build 0)  -->
<svg version="1.1" id="图层_1" xmlns="http://www.w3.org/2000/svg" xmlns:xlink="http://www.w3.org/1999/xlink" x="0px" y="0px"
	 width="256px" height="256px" viewBox="0 0 256 256" style="enable-background:new 0 0 256 256;" xml:space="preserve">
<style type="text/css">
	.st0{fill-rule:evenodd;clip-rule:evenodd;fill:#2D2C2B;}
	.st1{fill-rule:evenodd;clip-rule:evenodd;fill:url(#SVGID_1_);filter:url(#Adobe_OpacityMaskFilter);}
	.st2{mask:url(#mask0_539_13194_00000029005293686153350440000005057192831523635876_);}
	.st3{fill-rule:evenodd;clip-rule:evenodd;fill-opacity:0.3;}
	.st4{fill-rule:evenodd;clip-rule:evenodd;fill:url(#SVGID_00000135676737182903352740000005061934427187354294_);}
	.st5{fill:#575655;}
	.st6{fill:#2D2C2B;}
</style>
<path class="st0" d="M104.4,42.4c-4.4-5.3-10.9-8.4-17.8-8.4H29c-6.6,0-12,5.4-12,12v12.1v10.1V160c0,6.6,5.4,12,12,12h200
	c6.6,0,12-5.4,12-12V70.1c0-6.6-5.4-12-12-12H117.4L104.4,42.4z"/>
<defs>
	<filter id="Adobe_OpacityMaskFilter" filterUnits="userSpaceOnUse" x="17" y="62" width="224" height="110">
		<feColorMatrix  type="matrix" values="1 0 0 0 0  0 1 0 0 0  0 0 1 0 0  0 0 0 1 0"/>
	</filter>
</defs>
<mask maskUnits="userSpaceOnUse" x="17" y="62" width="224" height="110" id="mask0_539_13194_00000029005293686153350440000005057192831523635876_">
	
		<linearGradient id="SVGID_1_" gradientUnits="userSpaceOnUse" x1="32.5816" y1="239.5494" x2="213.3495" y2="58.4074" gradientTransform="matrix(1 0 0 -1 0 258)">
		<stop  offset="0" style="stop-color:#05815D"/>
		<stop  offset="1" style="stop-color:#0C575F"/>
	</linearGradient>
	<path class="st1" d="M104.4,42.4c-4.4-5.3-10.9-8.4-17.8-8.4H29c-6.6,0-12,5.4-12,12v12.1v10.1V160c0,6.6,5.4,12,12,12h200
		c6.6,0,12-5.4,12-12V70.1c0-6.6-5.4-12-12-12H117.4L104.4,42.4z"/>
</mask>
<g class="st2">
	<g>
		<path class="st3" d="M92.8,74c5,0,9.8-1.6,13.8-4.6l9.9-7.4H229c6.6,0,12,5.4,12,12v34v52c0,6.6-5.4,12-12,12H29
			c-6.6,0-12-5.4-12-12v-52V86c0-6.6,5.4-12,12-12h58H92.8z"/>
	</g>
</g>
<g>
	
		<linearGradient id="SVGID_00000062895021718139024500000001645980783166468264_" gradientUnits="userSpaceOnUse" x1="17" y1="196" x2="241" y2="48" gradientTransform="matrix(1 0 0 -1 0 258)">
		<stop  offset="0" style="stop-color:#FA7E17"/>
		<stop  offset="1" style="stop-color:#CC316C"/>
	</linearGradient>
	<path style="fill-rule:evenodd;clip-rule:evenodd;fill:url(#SVGID_00000062895021718139024500000001645980783166468264_);" d="
		M92.8,74c5,0,9.8-1.6,13.8-4.6l9.9-7.4H229c6.6,0,12,5.4,12,12v34v90c0,6.6-5.4,12-12,12H29c-6.6,0-12-5.4-12-12v-90V86
		c0-6.6,5.4-12,12-12h58H92.8z"/>
</g>
<path class="st5" d="M136.2,139.7h10.3c1.4,0,2.6,1.2,2.6,2.6v20.6c0,1.4-1.2,2.6-2.6,2.6h-10.3c-1.4,0-2.6-1.2-2.6-2.6v-20.6
	C133.7,140.9,134.8,139.7,136.2,139.7z"/>
<path class="st5" d="M156.9,124.3h10.3c1.4,0,2.6,1.2,2.6,2.6v36.1c0,1.4-1.2,2.6-2.6,2.6h-10.3c-1.4,0-2.6-1.2-2.6-2.6v-36.1
	C154.3,125.4,155.4,124.3,156.9,124.3z"/>
<path class="st5" d="M115.6,134.6h10.3c1.4,0,2.6,1.2,2.6,2.6v25.8c0,1.4-1.2,2.6-2.6,2.6h-10.3c-1.4,0-2.6-1.2-2.6-2.6v-25.8
	C113,135.7,114.2,134.6,115.6,134.6z"/>
<path class="st5" d="M95,147.5h10.3c1.4,0,2.6,1.2,2.6,2.6v12.9c0,1.4-1.2,2.6-2.6,2.6H95c-1.4,0-2.6-1.2-2.6-2.6V150
	C92.4,148.6,93.6,147.5,95,147.5z"/>
<path class="st6" d="M169.7,160.3H92.4v7.7c0,4.3,3.5,7.7,7.7,7.7H162c4.3,0,7.7-3.5,7.7-7.7V160.3z"/>
<path class="st5" d="M100.2,139.7H95c-1.4,0-2.6-1.2-2.6-2.6c0-1.4,1.2-2.6,2.6-2.6h3.9l16.7-20.8c0.8-1.2,2.4-1.5,3.6-0.7
	s1.5,2.4,0.7,3.6c-0.1,0.1-0.2,0.2-0.3,0.3l-17.5,21.7C101.7,139.4,100.9,139.7,100.2,139.7z"/>
<path class="st5" d="M144.6,125.4c-0.6,0-1.1-0.2-1.6-0.6c-1.1-0.9-1.3-2.5-0.4-3.6L160,99.5c0.5-0.6,1.2-1,2-1h5.2
	c1.4,0,2.6,1.2,2.6,2.6s-1.2,2.6-2.6,2.6h-3.9l-16.7,20.8C146.1,125,145.4,125.4,144.6,125.4z"/>
<rect x="128.5" y="111.4" transform="matrix(0.5999 -0.8001 0.8001 0.5999 -42.8534 152.5422)" class="st5" width="5.2" height="15.5"/>
<circle class="st6" cx="120.8" cy="111.4" r="7.7"/>
<circle class="st6" cx="141.4" cy="126.8" r="7.7"/>
</svg>
