<?xml version="1.0" encoding="utf-8"?>
<!-- Generator: Adobe Illustrator 28.1.0, SVG Export Plug-In . SVG Version: 6.00 Build 0)  -->
<svg version="1.1" id="图层_1" xmlns="http://www.w3.org/2000/svg" xmlns:xlink="http://www.w3.org/1999/xlink" x="0px" y="0px"
	 width="256px" height="256px" viewBox="0 0 256 256" style="enable-background:new 0 0 256 256;" xml:space="preserve">
<style type="text/css">
	.st0{fill-rule:evenodd;clip-rule:evenodd;fill:#4B4B4B;}
	.st1{fill-rule:evenodd;clip-rule:evenodd;fill:url(#SVGID_1_);filter:url(#Adobe_OpacityMaskFilter);}
	.st2{mask:url(#mask0_853_21769_00000026883648521993264290000011724718535981965727_);}
	.st3{fill-rule:evenodd;clip-rule:evenodd;fill-opacity:0.3;}
	.st4{fill-rule:evenodd;clip-rule:evenodd;fill:url(#SVGID_00000145759491726764330470000014875185240203487657_);}
	.st5{display:none;fill-rule:evenodd;clip-rule:evenodd;fill:url(#SVGID_00000028317587223372205250000000854840842969602206_);}
	.st6{display:none;fill-rule:evenodd;clip-rule:evenodd;fill:#FF9800;}
	.st7{fill:url(#SVGID_00000068648130785377494810000018166154457518685574_);}
	.st8{fill:url(#SVGID_00000116237603438998636360000003333362772653168770_);}
</style>
<path class="st0" d="M104.4,42.4c-4.4-5.3-10.9-8.4-17.8-8.4H29c-6.6,0-12,5.4-12,12v12.1v10.1V160c0,6.6,5.4,12,12,12h200
	c6.6,0,12-5.4,12-12V70.1c0-6.6-5.4-12-12-12H117.4L104.4,42.4z"/>
<defs>
	<filter id="Adobe_OpacityMaskFilter" filterUnits="userSpaceOnUse" x="17" y="62" width="224" height="110">
		<feColorMatrix  type="matrix" values="1 0 0 0 0  0 1 0 0 0  0 0 1 0 0  0 0 0 1 0"/>
	</filter>
</defs>
<mask maskUnits="userSpaceOnUse" x="17" y="62" width="224" height="110" id="mask0_853_21769_00000026883648521993264290000011724718535981965727_">
	
		<linearGradient id="SVGID_1_" gradientUnits="userSpaceOnUse" x1="32.5816" y1="239.5494" x2="213.3495" y2="58.4074" gradientTransform="matrix(1 0 0 -1 0 258)">
		<stop  offset="0" style="stop-color:#05815D"/>
		<stop  offset="1" style="stop-color:#0C575F"/>
	</linearGradient>
	<path class="st1" d="M104.4,42.4c-4.4-5.3-10.9-8.4-17.8-8.4H29c-6.6,0-12,5.4-12,12v12.1v10.1V160c0,6.6,5.4,12,12,12h200
		c6.6,0,12-5.4,12-12V70.1c0-6.6-5.4-12-12-12H117.4L104.4,42.4z"/>
</mask>
<g class="st2">
	<g>
		<path class="st3" d="M92.8,74c5,0,9.8-1.6,13.8-4.6l9.9-7.4H229c6.6,0,12,5.4,12,12v34v52c0,6.6-5.4,12-12,12H29
			c-6.6,0-12-5.4-12-12v-52V86c0-6.6,5.4-12,12-12h58H92.8z"/>
	</g>
</g>
<g>
	<g>
		
			<linearGradient id="SVGID_00000142144848976729511850000010047504962689561521_" gradientUnits="userSpaceOnUse" x1="17" y1="196" x2="241" y2="48" gradientTransform="matrix(1 0 0 -1 0 258)">
			<stop  offset="0.3724" style="stop-color:#436589"/>
			<stop  offset="1" style="stop-color:#99326B"/>
		</linearGradient>
		<path style="fill-rule:evenodd;clip-rule:evenodd;fill:url(#SVGID_00000142144848976729511850000010047504962689561521_);" d="
			M92.8,74c5,0,9.8-1.6,13.8-4.6l9.9-7.4H229c6.6,0,12,5.4,12,12v34v90c0,6.6-5.4,12-12,12H29c-6.6,0-12-5.4-12-12v-90V86
			c0-6.6,5.4-12,12-12h58H92.8z"/>
	</g>
</g>
<linearGradient id="SVGID_00000114759114269064452130000012640336403984178598_" gradientUnits="userSpaceOnUse" x1="126.555" y1="100.8223" x2="133.518" y2="117.8583" gradientTransform="matrix(1 0 0 -1 0 258)">
	<stop  offset="0" style="stop-color:#FF9700"/>
	<stop  offset="0.53" style="stop-color:#F48E00"/>
	<stop  offset="1" style="stop-color:#D06F00"/>
</linearGradient>
<path style="display:none;fill-rule:evenodd;clip-rule:evenodd;fill:url(#SVGID_00000114759114269064452130000012640336403984178598_);" d="
	M159.9,132c0-0.9-0.7-1.5-1.6-1.2l-58.8,18.6c-0.9,0.3-1.6,1.3-1.6,2.2v19c0,0.9,0.7,1.5,1.6,1.2l58.8-18.6c0.9-0.3,1.6-1.3,1.6-2.2
	V132z"/>
<path class="st6" d="M98,131.7c0,0.9,0.7,1.9,1.6,2.2l58.8,18.6c0.9,0.3,1.6-0.3,1.6-1.2v-19.1c0-0.9-0.7-1.9-1.6-2.2l-58.8-18.6
	c-0.9-0.3-1.6,0.3-1.6,1.2V131.7L98,131.7z"/>
<path class="st6" d="M159.9,93.3c0-0.9-0.7-1.5-1.6-1.2l-58.8,18.6c-0.9,0.3-1.6,1.3-1.6,2.2v19c0,0.9,0.7,1.5,1.6,1.2l58.8-18.6
	c0.9-0.3,1.6-1.3,1.6-2.2V93.3z"/>
<linearGradient id="SVGID_00000134933738579772470780000008665302411682025140_" gradientUnits="userSpaceOnUse" x1="93.1445" y1="158.8996" x2="163.2874" y2="120.1095" gradientTransform="matrix(1 0 0 -1 0 258)">
	<stop  offset="0" style="stop-color:#9FEDED"/>
	<stop  offset="1" style="stop-color:#76C4C4"/>
</linearGradient>
<path style="fill:url(#SVGID_00000134933738579772470780000008665302411682025140_);" d="M166.3,143.5h-32.4l-43.7-30.6
	c-2.1-1.5-2.6-4.4-1.2-6.5L98.9,92c1.5-2.2,4.5-2.7,6.6-1.1l37.1,27.2h23.7c0.6,0,1.2,0.2,1.6,0.7l10.4,10.4c0.9,0.9,0.9,2.4,0,3.3
	L168,142.8C167.5,143.2,166.9,143.5,166.3,143.5z"/>
<linearGradient id="SVGID_00000097475470451146075420000012964819186381628308_" gradientUnits="userSpaceOnUse" x1="180.0413" y1="135.1856" x2="90.6492" y2="103.1036" gradientTransform="matrix(1 0 0 -1 0 258)">
	<stop  offset="0" style="stop-color:#00CDCD"/>
	<stop  offset="1" style="stop-color:#23F0F0"/>
</linearGradient>
<path style="fill:url(#SVGID_00000097475470451146075420000012964819186381628308_);" d="M166.3,118.1h-32.4l-43.7,30.6
	c-2.1,1.5-2.6,4.4-1.2,6.5l9.9,14.4c1.5,2.2,4.5,2.7,6.6,1.1l37.1-27.2h23.7c0.6,0,1.2-0.2,1.6-0.7l10.4-10.4c0.9-0.9,0.9-2.4,0-3.3
	L168,118.8C167.5,118.3,166.9,118.1,166.3,118.1z"/>
</svg>
