<?xml version="1.0" encoding="UTF-8"?>
<svg id="_图层_1" data-name="图层 1" xmlns="http://www.w3.org/2000/svg" width="256" height="256" version="1.1" xmlns:xlink="http://www.w3.org/1999/xlink" viewBox="0 0 256 256">
  <defs>
    <style>
      .cls-1 {
        fill: url(#_未命名的渐变_27);
      }

      .cls-1, .cls-2, .cls-3, .cls-4, .cls-5, .cls-6 {
        fill-rule: evenodd;
      }

      .cls-1, .cls-2, .cls-4, .cls-5, .cls-6 {
        stroke-width: 0px;
      }

      .cls-2 {
        fill-opacity: .3;
      }

      .cls-2, .cls-5 {
        fill: #000;
      }

      .cls-3 {
        fill: url(#_未命名的渐变_7);
        stroke: #000;
        stroke-miterlimit: 14.2;
        stroke-width: .7px;
      }

      .cls-4 {
        fill: url(#_未命名的渐变_25);
      }

      .cls-6 {
        fill: url(#_未命名的渐变_4);
      }
    </style>
    <linearGradient id="_未命名的渐变_25" data-name="未命名的渐变 25" x1="17.6" y1="41.5" x2="229.3" y2="181.3" gradientUnits="userSpaceOnUse">
      <stop offset="0" stop-color="#171714"/>
      <stop offset=".5" stop-color="#818180"/>
    </linearGradient>
    <linearGradient id="_未命名的渐变_27" data-name="未命名的渐变 27" x1="17" y1="572" x2="241" y2="720" gradientTransform="translate(0 -510)" gradientUnits="userSpaceOnUse">
      <stop offset="0" stop-color="#fef84a"/>
      <stop offset=".6" stop-color="#fdd841"/>
    </linearGradient>
    <linearGradient id="_未命名的渐变_7" data-name="未命名的渐变 7" x1="73.2" y1="157.2" x2="80.5" y2="150.4" gradientUnits="userSpaceOnUse">
      <stop offset="0" stop-color="#919191"/>
      <stop offset="1" stop-color="#171713"/>
    </linearGradient>
    <linearGradient id="_未命名的渐变_4" data-name="未命名的渐变 4" x1="-261.7" y1="263.3" x2="-261.7" y2="259.1" gradientTransform="translate(1036 1030.4) scale(3.4 -3.4)" gradientUnits="userSpaceOnUse">
      <stop offset="0" stop-color="#7e7e7e"/>
      <stop offset="1" stop-color="#1f1f1f"/>
    </linearGradient>
  </defs>
  <path class="cls-4" d="M104.4,42.4c-4.4-5.3-10.9-8.4-17.8-8.4H29c-6.6,0-12,5.4-12,12v114c0,6.6,5.4,12,12,12h200c6.6,0,12-5.4,12-12v-89.9c0-6.6-5.4-12-12-12h-111.6l-13-15.7Z"/>
  <path class="cls-2" d="M92.8,74c5,0,9.8-1.6,13.8-4.6l9.9-7.4h112.5c6.6,0,12,5.4,12,12v86c0,6.6-5.4,12-12,12H29c-6.6,0-12-5.4-12-12v-74c0-6.6,5.4-12,12-12h63.8Z"/>
  <path class="cls-1" d="M92.8,74c5,0,9.8-1.6,13.8-4.6l9.9-7.4h112.5c6.6,0,12,5.4,12,12v124c0,6.6-5.4,12-12,12H29c-6.6,0-12-5.4-12-12v-112c0-6.6,5.4-12,12-12h63.8Z"/>
  <path class="cls-3" d="M175.5,95.6c-73-4.6-121.1,9.5-89.9,76.3-5.8-55.9,32.8-74.6,89.9-76.3Z"/>
  <path id="path3117" class="cls-5" d="M104.4,125.2h14.8c4.2,0,7.6,3.4,7.6,7.7v3.6c0,4.4-4.7,9.2-9.1,9.2h-5.7v12.6l-1.4,1.6h-7.6v-33.1s1.4-1.6,1.4-1.6ZM117.7,134.6c0-2-1.6-3.6-3.6-3.6h-2.1v8.9h3.6c1.5,0,2.1-.5,2.1-2v-3.2Z"/>
  <path id="path3113" class="cls-5" d="M130.3,125.2h14.8c4.2,0,7.6,3.4,7.6,7.7v17.8c0,4.4-4.7,9.2-9.1,9.2h-14.8v-33.1s1.4-1.6,1.4-1.6ZM138,131v23h3.6c1.5,0,2.1-.5,2.1-2v-17.3c0-2-1.6-3.6-3.6-3.6h-2.1Z"/>
  <path id="path3047" class="cls-5" d="M156.2,125.2h18.5v4.3l-1.4,1.6h-9.5v8.9h8.2v4.3l-1.4,1.6h-6.8v12.6l-1.4,1.6h-7.6v-33.1s1.4-1.6,1.4-1.6Z"/>
  <path id="path20" class="cls-5" d="M117.7,134.6c0-2-1.6-3.6-3.6-3.6h-3.6v10.4h3.6c2,0,3.6-1.6,3.6-3.6,0,0,0-3.2,0-3.2ZM102.9,126.7h14.8c4.2,0,7.6,3.4,7.6,7.7v3.6c0,4.2-3.4,7.7-7.6,7.7h-7.1v14.1h-7.6s0-33.1,0-33.1Z"/>
  <path id="path22" class="cls-5" d="M136.5,131v24.5h3.6c2,0,3.6-1.6,3.6-3.6v-17.3c0-2-1.6-3.6-3.6-3.6,0,0-3.6,0-3.6,0ZM128.9,126.7h14.8c4.2,0,7.6,3.4,7.6,7.7v17.8c0,4.2-3.4,7.7-7.6,7.7h-14.8v-33.1Z"/>
  <polygon id="polygon24" class="cls-5" points="173.3 126.7 173.3 131 162.4 131 162.4 141.4 170.6 141.4 170.6 145.7 162.4 145.7 162.4 159.9 154.8 159.9 154.8 126.7 173.3 126.7"/>
  <path id="polygon30" class="cls-6" d="M173.3,131h-10.9v10.4h-7.6v-14.7h18.5v4.3ZM128.9,126.7h14.8c4.2,0,7.6,3.4,7.6,7.7v7h-7.6v-6.8c0-2-1.6-3.6-3.6-3.6h-3.6v10.4h-7.6v-14.7ZM102.9,126.7h14.8c4.2,0,7.6,3.4,7.6,7.7v3.6c0,1.2-.3,2.4-.8,3.4h-10.4c2,0,3.6-1.6,3.6-3.6v-3.2c0-2-1.6-3.6-3.6-3.6h-3.6v10.4h-7.6s0-14.7,0-14.7Z"/>
</svg>