<?xml version="1.0" encoding="utf-8"?>
<!-- Generator: Adobe Illustrator 28.1.0, SVG Export Plug-In . SVG Version: 6.00 Build 0)  -->
<svg version="1.1" id="图层_1" xmlns="http://www.w3.org/2000/svg" xmlns:xlink="http://www.w3.org/1999/xlink" x="0px" y="0px"
	 width="256px" height="256px" viewBox="0 0 256 256" style="enable-background:new 0 0 256 256;" xml:space="preserve">
<style type="text/css">
	.st0{fill-rule:evenodd;clip-rule:evenodd;}
	.st1{fill-rule:evenodd;clip-rule:evenodd;fill-opacity:0.3;}
	.st2{fill-rule:evenodd;clip-rule:evenodd;fill:url(#SVGID_1_);}
	.st3{fill:#09161D;}
</style>
<path class="st0" d="M104.4,42.4C100,37.1,93.5,34,86.6,34H29c-6.6,0-12,5.4-12,12v12.1v10.1V160c0,6.6,5.4,12,12,12h200
	c6.6,0,12-5.4,12-12V70.1c0-6.6-5.4-12-12-12H117.4L104.4,42.4z"/>
<g>
	<g>
		<path class="st1" d="M92.8,74c5,0,9.8-1.6,13.8-4.6l9.9-7.4H229c6.6,0,12,5.4,12,12v34v52c0,6.6-5.4,12-12,12H29
			c-6.6,0-12-5.4-12-12v-52V86c0-6.6,5.4-12,12-12h58H92.8z"/>
	</g>
</g>
<g>
	
		<linearGradient id="SVGID_1_" gradientUnits="userSpaceOnUse" x1="17" y1="304" x2="241" y2="452" gradientTransform="matrix(1 0 0 1 0 -242)">
		<stop  offset="0" style="stop-color:#B1FFD0"/>
		<stop  offset="0.4745" style="stop-color:#80F5D2"/>
		<stop  offset="1" style="stop-color:#49D6BC"/>
	</linearGradient>
	<path class="st2" d="M92.8,74c5,0,9.8-1.6,13.8-4.6l9.9-7.4H229c6.6,0,12,5.4,12,12v34v90c0,6.6-5.4,12-12,12H29
		c-6.6,0-12-5.4-12-12v-90V86c0-6.6,5.4-12,12-12h58H92.8z"/>
</g>
<g>
	<g>
		<path class="st3" d="M173.4,125.9c-4.9-18.8-21.9-32.6-42.2-32.6c-20.1,0-37,13.6-42.1,32.1c-0.4,1.6,0.8,3.1,2.4,3.1h4.8
			c1.1,0,2.1-0.7,2.4-1.7c4.3-13.8,17.2-23.9,32.5-23.9c13.6,0,25.3,8,30.8,19.5c0.8,1.7-0.4,3.6-2.3,3.6l0,0
			c-2.2,0-3.4,2.7-1.8,4.3l8.8,8.8c1,1,2.6,1,3.6,0l8.8-8.8c1.6-1.6,0.5-4.3-1.8-4.3L173.4,125.9L173.4,125.9z"/>
		<path class="st3" d="M87.2,148c1.1,0,2.1,0.7,2.4,1.7c5.5,17.9,22,30.9,41.7,30.9c20.1,0,37-13.6,42.1-32.1
			c0.4-1.6-0.8-3.1-2.4-3.1h-4.8c-1.1,0-2.1,0.7-2.4,1.7c-4.3,13.8-17.2,23.9-32.5,23.9c-13.6,0-25.3-8-30.8-19.5
			c-0.8-1.7,0.4-3.6,2.3-3.6l0,0c2.2,0,3.4-2.7,1.8-4.3l-8.8-8.8c-1-1-2.6-1-3.6,0l-8.8,8.8c-1.6,1.6-0.5,4.3,1.8,4.3
			C85.9,148,86.6,148,87.2,148z"/>
		<path class="st3" d="M119.5,148.6h2.5c1.4,0,2.5-1.1,2.5-2.5v-18.9c0-1.4-1.1-2.5-2.5-2.5h-2.5c-1.4,0-2.5,1.1-2.5,2.5V146
			C117,147.4,118.1,148.6,119.5,148.6z M128.4,126.1v21.1c0,0.9,0.4,1.7,1.2,2.1l10.7,6.7c1.7,1.1,3.9-0.1,3.9-2.1v-34.6
			c0-2-2.2-3.2-3.9-2.1l-10.7,6.7C128.8,124.4,128.4,125.2,128.4,126.1z"/>
	</g>
</g>
</svg>
