<?xml version="1.0" encoding="utf-8"?>
<!-- Generator: Adobe Illustrator 28.1.0, SVG Export Plug-In . SVG Version: 6.00 Build 0)  -->
<svg version="1.1" id="图层_1" xmlns="http://www.w3.org/2000/svg" xmlns:xlink="http://www.w3.org/1999/xlink" x="0px" y="0px"
	 width="256px" height="256px" viewBox="0 0 256 256" style="enable-background:new 0 0 256 256;" xml:space="preserve">
<style type="text/css">
	.st0{fill-rule:evenodd;clip-rule:evenodd;fill:#DEDEDE;}
	.st1{fill-rule:evenodd;clip-rule:evenodd;fill:url(#SVGID_1_);filter:url(#Adobe_OpacityMaskFilter);}
	.st2{mask:url(#mask0_571_13706_00000150077452733435343050000010796197588732747946_);}
	.st3{fill-rule:evenodd;clip-rule:evenodd;fill-opacity:0.3;}
	.st4{fill-rule:evenodd;clip-rule:evenodd;fill:#050A52;}
	.st5{display:none;fill-rule:evenodd;clip-rule:evenodd;fill:#FFFFFF;}
	.st6{fill:#FFFFFF;}
</style>
<path class="st0" d="M104.4,42.4c-4.4-5.3-10.9-8.4-17.8-8.4H29c-6.6,0-12,5.4-12,12v12.1v10.1V160c0,6.6,5.4,12,12,12h200
	c6.6,0,12-5.4,12-12V70.1c0-6.6-5.4-12-12-12H117.4L104.4,42.4z"/>
<defs>
	<filter id="Adobe_OpacityMaskFilter" filterUnits="userSpaceOnUse" x="17" y="62" width="224" height="110">
		<feColorMatrix  type="matrix" values="1 0 0 0 0  0 1 0 0 0  0 0 1 0 0  0 0 0 1 0"/>
	</filter>
</defs>
<mask maskUnits="userSpaceOnUse" x="17" y="62" width="224" height="110" id="mask0_571_13706_00000150077452733435343050000010796197588732747946_">
	
		<linearGradient id="SVGID_1_" gradientUnits="userSpaceOnUse" x1="32.5816" y1="239.5494" x2="213.3495" y2="58.4074" gradientTransform="matrix(1 0 0 -1 0 258)">
		<stop  offset="0" style="stop-color:#05815D"/>
		<stop  offset="1" style="stop-color:#0C575F"/>
	</linearGradient>
	<path class="st1" d="M104.4,42.4c-4.4-5.3-10.9-8.4-17.8-8.4H29c-6.6,0-12,5.4-12,12v12.1v10.1V160c0,6.6,5.4,12,12,12h200
		c6.6,0,12-5.4,12-12V70.1c0-6.6-5.4-12-12-12H117.4L104.4,42.4z"/>
</mask>
<g class="st2">
	<g>
		<path class="st3" d="M92.8,74c5,0,9.8-1.6,13.8-4.6l9.9-7.4H229c6.6,0,12,5.4,12,12v34v52c0,6.6-5.4,12-12,12H29
			c-6.6,0-12-5.4-12-12v-52V86c0-6.6,5.4-12,12-12h58H92.8z"/>
	</g>
</g>
<g>
	<path class="st4" d="M92.8,74c5,0,9.8-1.6,13.8-4.6l9.9-7.4H229c6.6,0,12,5.4,12,12v34v90c0,6.6-5.4,12-12,12H29
		c-6.6,0-12-5.4-12-12v-90V86c0-6.6,5.4-12,12-12h58H92.8z"/>
</g>
<path class="st5" d="M179.5,142c0,27.6-22.4,50-50,50s-50-22.4-50-50s22.4-50,50-50S179.5,114.4,179.5,142z M138.5,117.3
	c3.3-3.9,7.7-6.7,12.8-6.8c5.1-0.2,8.9,2.1,9,5.8c0.1,1.5-0.8,4.6-3.9,4.7c-2.3,0.1-3.9-1.3-4-3.4c0-0.8,0.2-1.4,0.7-2.2
	c0.1-0.2,0.2-0.3,0.2-0.4c0.3-0.6,0.4-0.8,0.4-1.1c0-1.3-2-1.4-2.6-1.3c-7.5,0.2-9.5,10.4-11.1,18.6l-0.8,4.3
	c4.3,0.6,7.4-0.1,9.1-1.3c1.5-0.9,0.9-1.9,0.3-2.9c-0.4-0.7-0.8-1.3-0.6-2c0.4-1.8,2-2.7,3.4-2.7c1.8,0,3.1,1.9,3.1,3.8
	c-0.1,3.2-4.3,7.6-12.8,7.4c-1,0-2-0.1-2.9-0.2l-1.6,8.8l0,0.2c-1.4,6.7-3.4,15.7-10.1,23.6c-5.8,6.9-11.8,8-14.4,8.1
	c-5,0.2-8.3-2.5-8.4-6c-0.1-3.4,2.9-5.3,4.9-5.4c2.7-0.1,4.5,1.8,4.6,4c0.1,1.9-0.9,2.5-1.6,2.8c-0.1,0.1-0.1,0.1-0.2,0.2
	c-0.4,0.3-0.9,0.7-0.9,1.3c0,0.3,0.4,1.1,1.5,1.1c2-0.1,3.4-1,4.4-1.7c0,0,0.1,0,0.1-0.1c4.8-4,6.7-11.1,9.1-23.9l0.5-3.1l0-0.2
	c0.8-4.1,1.7-8.7,3.1-13.2c-1-0.8-2-1.6-2.9-2.4c-2-1.9-4-3.7-7.2-4.6c-3.1-0.9-5.1-0.1-6.4,1.6c-1.6,2-1.1,4.6,0.5,6.2l2.5,2.8
	c3.1,3.6,4.8,6.4,4.2,10.2c-1,6-8.2,10.7-16.7,8.1c-7.3-2.2-8.6-7.4-7.7-10.2c0.8-2.5,2.7-3,4.7-2.4c2.1,0.6,2.9,3.2,2.3,5.1
	c0,0,0,0,0,0.1c-0.1,0.2-0.2,0.5-0.4,1c-0.1,0.2-0.2,0.4-0.4,0.7c-0.2,0.3-0.4,0.6-0.5,1c-0.5,1.5,1.6,2.6,3.1,3
	c3.2,1,6.4-0.7,7.2-3.3c0.7-2.4-0.8-4.1-1.4-4.7l-3.1-3.3c-1.4-1.6-4.5-5.9-3-10.8c0.6-1.9,1.8-3.9,3.6-5.2
	c3.8-2.8,7.8-3.3,11.7-2.1c3.8,1.1,6.1,3.2,8.3,5.3c0.7,0.7,1.5,1.4,2.3,2C132.4,126.6,134.8,121.6,138.5,117.3z"/>
<path class="st6" d="M164,94.3H96.9c-7.8,0-14.1,6.4-14.1,14.3v67.8c0,7.9,6.3,14.3,14.1,14.3H164c7.8,0,14.1-6.4,14.1-14.3v-67.8
	C178.1,100.7,171.8,94.3,164,94.3z M130.5,181.2c-21.2,0-38.3-17.3-38.3-38.7s17.2-38.7,38.3-38.7s38.3,17.3,38.3,38.7
	S151.6,181.2,130.5,181.2L130.5,181.2z"/>
<polygon class="st6" points="162.9,142.5 138.2,128.8 140.9,137.4 120,137.4 122.7,128.8 98,142.5 122.7,156.2 120,147.5 
	140.9,147.5 138.2,156.2 "/>
</svg>
