<?xml version="1.0" encoding="utf-8"?>
<!-- Generator: Adobe Illustrator 28.1.0, SVG Export Plug-In . SVG Version: 6.00 Build 0)  -->
<svg version="1.1" id="图层_1" xmlns="http://www.w3.org/2000/svg" xmlns:xlink="http://www.w3.org/1999/xlink" x="0px" y="0px"
	 width="256px" height="256px" viewBox="0 0 256 256" style="enable-background:new 0 0 256 256;" xml:space="preserve">
<style type="text/css">
	.st0{clip-path:url(#SVGID_00000105399537302146341830000004874564837180124808_);}
	.st1{fill-rule:evenodd;clip-rule:evenodd;fill:#478CBF;}
	
		.st2{fill-rule:evenodd;clip-rule:evenodd;fill:url(#SVGID_00000094606199015462438440000002554544180963245207_);filter:url(#Adobe_OpacityMaskFilter);}
	.st3{mask:url(#mask0_2004_32093_00000101071052527610627170000013340688437368768163_);}
	.st4{fill-rule:evenodd;clip-rule:evenodd;fill-opacity:0.3;}
	.st5{fill-rule:evenodd;clip-rule:evenodd;fill:url(#SVGID_00000183953517213794845110000007578381969591361183_);}
	.st6{fill:#FFFFFF;}
	.st7{fill:#478CBF;}
</style>
<g>
	<defs>
		<rect id="SVGID_1_" width="256" height="256"/>
	</defs>
	<clipPath id="SVGID_00000145057202021896307040000014937079173224134288_">
		<use xlink:href="#SVGID_1_"  style="overflow:visible;"/>
	</clipPath>
	<g style="clip-path:url(#SVGID_00000145057202021896307040000014937079173224134288_);">
		<path class="st1" d="M104.4,42.4c-4.4-5.3-10.9-8.4-17.8-8.4H29c-6.6,0-12,5.4-12,12v12.1v10.1V160c0,6.6,5.4,12,12,12h200
			c6.6,0,12-5.4,12-12V70.1c0-6.6-5.4-12-12-12H117.4L104.4,42.4z"/>
		<defs>
			<filter id="Adobe_OpacityMaskFilter" filterUnits="userSpaceOnUse" x="17" y="62" width="224" height="110">
				<feColorMatrix  type="matrix" values="1 0 0 0 0  0 1 0 0 0  0 0 1 0 0  0 0 0 1 0"/>
			</filter>
		</defs>
		
			<mask maskUnits="userSpaceOnUse" x="17" y="62" width="224" height="110" id="mask0_2004_32093_00000101071052527610627170000013340688437368768163_">
			
				<linearGradient id="SVGID_00000022538230142413813090000004489715250740226457_" gradientUnits="userSpaceOnUse" x1="32.5816" y1="239.5494" x2="213.3495" y2="58.4074" gradientTransform="matrix(1 0 0 -1 0 258)">
				<stop  offset="0" style="stop-color:#05815D"/>
				<stop  offset="1" style="stop-color:#0C575F"/>
			</linearGradient>
			
				<path style="fill-rule:evenodd;clip-rule:evenodd;fill:url(#SVGID_00000022538230142413813090000004489715250740226457_);filter:url(#Adobe_OpacityMaskFilter);" d="
				M104.4,42.4c-4.4-5.3-10.9-8.4-17.8-8.4H29c-6.6,0-12,5.4-12,12v12.1v10.1V160c0,6.6,5.4,12,12,12h200c6.6,0,12-5.4,12-12V70.1
				c0-6.6-5.4-12-12-12H117.4L104.4,42.4z"/>
		</mask>
		<g class="st3">
			<g>
				<path class="st4" d="M92.8,74c5,0,9.8-1.6,13.8-4.6l9.9-7.4H229c6.6,0,12,5.4,12,12v34v52c0,6.6-5.4,12-12,12H29
					c-6.6,0-12-5.4-12-12v-52V86c0-6.6,5.4-12,12-12h58H92.8z"/>
			</g>
		</g>
		<g>
			
				<linearGradient id="SVGID_00000011024345179696996340000008095153375668804512_" gradientUnits="userSpaceOnUse" x1="17" y1="196" x2="241" y2="48" gradientTransform="matrix(1 0 0 -1 0 258)">
				<stop  offset="0" style="stop-color:#FBFAFA"/>
				<stop  offset="1" style="stop-color:#E9E4E4"/>
			</linearGradient>
			<path style="fill-rule:evenodd;clip-rule:evenodd;fill:url(#SVGID_00000011024345179696996340000008095153375668804512_);" d="
				M92.8,74c5,0,9.8-1.6,13.8-4.6l9.9-7.4H229c6.6,0,12,5.4,12,12v34v90c0,6.6-5.4,12-12,12H29c-6.6,0-12-5.4-12-12v-90V86
				c0-6.6,5.4-12,12-12h58H92.8z"/>
		</g>
		<path class="st6" d="M128.8,148.6c-1.8,0-3.3-1.3-3.3-3v-9.4c0-1.6,1.5-3,3.3-3c1.8,0,3.3,1.3,3.3,3v9.4
			C132.1,147.3,130.6,148.6,128.8,148.6z"/>
	</g>
</g>
<g>
	<polyline class="st7" points="102.4,122.2 172.7,122.2 130.3,86.9 125.3,107.2 106.1,107.2 102.4,122.2 	"/>
	<polygon class="st7" points="120.7,125.6 115.4,146.7 105.4,186.3 128.6,186.3 138.6,146.7 143.9,125.6 	"/>
</g>
</svg>
