<?xml version="1.0" encoding="utf-8"?>
<!-- Generator: Adobe Illustrator 28.1.0, SVG Export Plug-In . SVG Version: 6.00 Build 0)  -->
<svg version="1.1" id="图层_1" xmlns="http://www.w3.org/2000/svg" xmlns:xlink="http://www.w3.org/1999/xlink" x="0px" y="0px"
	 width="256px" height="256px" viewBox="0 0 256 256" style="enable-background:new 0 0 256 256;" xml:space="preserve">
<style type="text/css">
	.st0{fill-rule:evenodd;clip-rule:evenodd;fill:url(#SVGID_1_);}
	
		.st1{fill-rule:evenodd;clip-rule:evenodd;fill:url(#SVGID_00000007424578383616636760000016286747333842811272_);filter:url(#Adobe_OpacityMaskFilter);}
	.st2{mask:url(#mask0_2002_34005_00000083049127445043630690000003413371359699984009_);}
	.st3{fill-rule:evenodd;clip-rule:evenodd;fill-opacity:0.3;}
	.st4{fill-rule:evenodd;clip-rule:evenodd;fill:url(#SVGID_00000013186580366781848730000016589303773127837099_);}
	.st5{fill-rule:evenodd;clip-rule:evenodd;fill:url(#SVGID_00000148652838606498022620000010625583850038866328_);}
</style>
<linearGradient id="SVGID_1_" gradientUnits="userSpaceOnUse" x1="17" y1="103" x2="241" y2="103">
	<stop  offset="0" style="stop-color:#FEAC5E"/>
	<stop  offset="0.4783" style="stop-color:#C779D0"/>
	<stop  offset="0.9783" style="stop-color:#4BC0C8"/>
</linearGradient>
<path class="st0" d="M104.4,42.4c-4.4-5.3-10.9-8.4-17.8-8.4H29c-6.6,0-12,5.4-12,12v12.1v10.1V160c0,6.6,5.4,12,12,12h200
	c6.6,0,12-5.4,12-12V70.1c0-6.6-5.4-12-12-12H117.4L104.4,42.4z"/>
<defs>
	<filter id="Adobe_OpacityMaskFilter" filterUnits="userSpaceOnUse" x="17" y="62" width="224" height="110">
		<feColorMatrix  type="matrix" values="1 0 0 0 0  0 1 0 0 0  0 0 1 0 0  0 0 0 1 0"/>
	</filter>
</defs>
<mask maskUnits="userSpaceOnUse" x="17" y="62" width="224" height="110" id="mask0_2002_34005_00000083049127445043630690000003413371359699984009_">
	
		<linearGradient id="SVGID_00000141450775259965734430000016192151268940820665_" gradientUnits="userSpaceOnUse" x1="32.5816" y1="239.5494" x2="213.3495" y2="58.4074" gradientTransform="matrix(1 0 0 -1 0 258)">
		<stop  offset="0" style="stop-color:#05815D"/>
		<stop  offset="1" style="stop-color:#0C575F"/>
	</linearGradient>
	
		<path style="fill-rule:evenodd;clip-rule:evenodd;fill:url(#SVGID_00000141450775259965734430000016192151268940820665_);filter:url(#Adobe_OpacityMaskFilter);" d="
		M104.4,42.4c-4.4-5.3-10.9-8.4-17.8-8.4H29c-6.6,0-12,5.4-12,12v12.1v10.1V160c0,6.6,5.4,12,12,12h200c6.6,0,12-5.4,12-12V70.1
		c0-6.6-5.4-12-12-12H117.4L104.4,42.4z"/>
</mask>
<g class="st2">
	<g>
		<path class="st3" d="M92.8,74c5,0,9.8-1.6,13.8-4.6l9.9-7.4H229c6.6,0,12,5.4,12,12v34v52c0,6.6-5.4,12-12,12H29
			c-6.6,0-12-5.4-12-12v-52V86c0-6.6,5.4-12,12-12h58H92.8z"/>
	</g>
</g>
<g>
	
		<linearGradient id="SVGID_00000120519725876027985910000006832501673017211036_" gradientUnits="userSpaceOnUse" x1="32.6479" y1="212.6349" x2="319.1479" y2="-56.8651" gradientTransform="matrix(1 0 0 -1 0 258)">
		<stop  offset="0.3316" style="stop-color:#FAFAFA"/>
		<stop  offset="0.9509" style="stop-color:#5FC2CB"/>
		<stop  offset="1" style="stop-color:#53BEC7"/>
	</linearGradient>
	<path style="fill-rule:evenodd;clip-rule:evenodd;fill:url(#SVGID_00000120519725876027985910000006832501673017211036_);" d="
		M92.8,74c5,0,9.8-1.6,13.8-4.6l9.9-7.4H229c6.6,0,12,5.4,12,12v34v90c0,6.6-5.4,12-12,12H29c-6.6,0-12-5.4-12-12v-90V86
		c0-6.6,5.4-12,12-12h58H92.8z"/>
</g>
<linearGradient id="SVGID_00000029729921421744574250000013386858615009437330_" gradientUnits="userSpaceOnUse" x1="76.6468" y1="120.7519" x2="187.7449" y2="120.7519" gradientTransform="matrix(1 0 0 -1 0 258)">
	<stop  offset="0" style="stop-color:#FEAC5E"/>
	<stop  offset="0.4783" style="stop-color:#C779D0"/>
	<stop  offset="0.9783" style="stop-color:#4BC0C8"/>
</linearGradient>
<path style="fill-rule:evenodd;clip-rule:evenodd;fill:url(#SVGID_00000029729921421744574250000013386858615009437330_);" d="
	M144.3,107.1c-0.4,0.1-0.7,0.4-0.7,0.8v1.6c0,0.4,0.4,0.8,0.8,0.8c1.8,0,2.9,0.1,3.7,0.3c0.7,0.2,1.2,0.6,1.9,1.5c0,0,0,0,0,0
	l12.3,18l-11,16.1c-2.6,3.7-6.4,3.8-7.6,3.8c-0.4,0-0.8,0.4-0.8,0.8v1.6c0,0.2,0.1,0.4,0.3,0.6c0.2,0.2,0.4,0.2,0.6,0.2
	c0.7-0.1,1.8-0.1,2.8-0.1c-0.6,3.6-1.3,6.3-2.9,8.1c-1.7,1.9-4.4,3-9.6,3h-9.1c-0.6,0-1.1,0-1.4-0.1c-0.3-0.1-0.4-0.1-0.4-0.1
	c0,0-0.1-0.1-0.1-0.3c0-0.3,0-0.7,0-1.2V145h5.3c3,0,4.3,0.5,5,1.5c0.7,1,0.9,2.7,0.9,5.5c0,0.4,0.4,0.8,0.8,0.8h1.1
	c0.4,0,0.8-0.4,0.8-0.8v-17c0-0.4-0.4-0.8-0.8-0.8h-1.1c-0.4,0-0.8,0.4-0.8,0.8c0,2.7-0.2,4.4-0.9,5.4c-0.7,0.9-2.1,1.5-5,1.5H123
	v-15.4c0-0.5,0-0.9,0-1.2c0-0.3,0.1-0.3,0.1-0.3s0.1-0.1,0.4-0.1c0.3,0,0.8-0.1,1.4-0.1h8.9c4.9,0,7.4,1,8.9,2.8
	c1.5,1.8,2,4.8,2.5,9.1c0,0.4,0.4,0.7,0.8,0.7h1.2c0.2,0,0.4-0.1,0.6-0.3c0.2-0.2,0.2-0.4,0.2-0.6l-1.6-14.4c0-0.4-0.4-0.7-0.8-0.7
	H118l-1-13.4c0-0.4-0.4-0.8-0.8-0.7H78.6c-0.4,0-0.8,0.3-0.8,0.7l-1.1,14.4c0,0.2,0.1,0.4,0.2,0.6c0.2,0.2,0.4,0.3,0.6,0.3h1.2
	c0.4,0,0.8-0.3,0.8-0.7c0.4-5.4,0.9-8.4,2.3-9.9c0.7-0.8,1.6-1.2,3-1.6c1.4-0.3,3.3-0.5,5.8-0.5H94c0.5,0.1,0.4,0.1,0.5,0.2
	c0.1,0.2,0.1,0.7,0.1,1.4v35.5c0,0.6,0,1-0.1,1.3s-0.1,0.3-0.3,0.5c-0.4,0.3-1.8,0.5-4.5,0.5h-1.8c-0.4,0-0.8,0.4-0.8,0.8v1.6
	c0,0.2,0.1,0.4,0.2,0.6c0.2,0.2,0.4,0.2,0.6,0.2c3.1-0.1,6.4-0.1,9.6-0.1c3.2,0,6.4,0.1,9.6,0.1c0.2,0,0.4-0.1,0.6-0.2
	c0.2-0.2,0.2-0.4,0.2-0.6v-1.6c0-0.4-0.4-0.8-0.8-0.8h-1.8c-2.7,0-4-0.3-4.4-0.5c-0.2-0.1-0.3-0.2-0.3-0.5c-0.1-0.3-0.1-0.7-0.1-1.3
	v-35.5c0-0.7,0-1.2,0.1-1.4c0.1-0.2,0.1-0.2,0.4-0.3h3.4c2.4,0,4.3,0.1,5.7,0.4c1.4,0.3,2.3,0.8,3,1.5c1.3,1.4,1.8,4.2,2.2,8.8h-2.6
	c-0.4,0-0.8,0.4-0.8,0.8v1.8c0,0.4,0.4,0.8,0.8,0.8c2.3,0,3.6,0.1,4.1,0.3c0.2,0.1,0.3,0.2,0.3,0.4c0.1,0.3,0.1,0.7,0.1,1.4v35.2
	c0,0.7-0.1,1.2-0.1,1.4c-0.1,0.3-0.1,0.3-0.3,0.4c-0.4,0.2-1.8,0.3-4.1,0.3c-0.4,0-0.8,0.4-0.8,0.8v1.6c0,0.4,0.4,0.8,0.8,0.8h33.9
	c0.4,0,0.7-0.3,0.8-0.7l1.9-13.6c1.8,0,4.7,0,6.2,0.1c0.2,0,0.4-0.1,0.6-0.2c0.2-0.1,0.3-0.4,0.3-0.6v-1.6c0-0.4-0.3-0.8-0.7-0.8
	c-0.8-0.1-1.3-0.4-1.5-0.7c-0.3-0.3-0.4-0.7-0.4-1.1c0-0.6,0.2-0.9,0.5-1.3c0,0,0,0,0,0l9.8-14.3l10.7,15.7c0,0,0,0,0,0
	c0.2,0.3,0.3,0.5,0.4,0.6c0,0.1,0,0,0,0.1c0-0.1-0.1,0.8-2.1,1c-0.4,0-0.8,0.4-0.7,0.8v1.6c0,0.2,0.1,0.4,0.3,0.6
	c0.2,0.2,0.4,0.2,0.6,0.2c2-0.1,5.2-0.1,7.4-0.1c1.7,0,5,0,6.5,0.1c0.2,0,0.4-0.1,0.6-0.2c0.2-0.2,0.3-0.4,0.3-0.6v-1.6
	c0-0.4-0.4-0.8-0.8-0.8c-2.1,0-3.2-0.1-3.9-0.3c-0.7-0.2-1-0.6-1.6-1.5l0,0l-14-20.5l9.3-13.5c0,0,0,0,0,0c1-1.4,2.6-3.9,7.6-3.9
	c0.4,0,0.8-0.4,0.8-0.8v-1.6c0-0.2-0.1-0.4-0.3-0.6c-0.2-0.2-0.4-0.2-0.6-0.2c-1.4,0.1-3.9,0.1-5.5,0.1c-2.1,0-4.8,0-6.4-0.1
	c-0.2,0-0.4,0.1-0.6,0.2c-0.2,0.2-0.3,0.4-0.3,0.6v1.6c0,0.4,0.3,0.8,0.7,0.8c0.9,0.1,1.3,0.4,1.5,0.7c0.2,0.3,0.3,0.7,0.3,1.1
	c0,0.6-0.2,0.9-0.6,1.5c0,0,0,0,0,0l-7.9,11.5l-9-13.2c-0.2-0.3-0.3-0.5-0.4-0.6c0-0.1,0,0,0,0c0,0.1,0.2-0.9,2.1-1
	c0.4,0,0.8-0.4,0.8-0.8v-1.6c0-0.2-0.1-0.4-0.3-0.6c-0.2-0.1-0.4-0.2-0.6-0.2c-2,0.1-5.2,0.1-7.4,0.1c-1.7,0-5,0-6.5-0.1
	C144.4,107.1,144.4,107.1,144.3,107.1L144.3,107.1z"/>
</svg>
