<?xml version="1.0" encoding="utf-8"?>
<!-- Generator: Adobe Illustrator 28.1.0, SVG Export Plug-In . SVG Version: 6.00 Build 0)  -->
<svg version="1.1" id="图层_1" xmlns="http://www.w3.org/2000/svg" xmlns:xlink="http://www.w3.org/1999/xlink" x="0px" y="0px"
	 width="256px" height="256px" viewBox="0 0 256 256" style="enable-background:new 0 0 256 256;" xml:space="preserve">
<style type="text/css">
	.st0{fill-rule:evenodd;clip-rule:evenodd;fill:#8879D2;}
	.st1{fill-rule:evenodd;clip-rule:evenodd;fill:url(#SVGID_1_);filter:url(#Adobe_OpacityMaskFilter);}
	.st2{mask:url(#mask0_1939_31344_00000049186448918995202350000003271707350817471373_);}
	.st3{fill-rule:evenodd;clip-rule:evenodd;fill-opacity:0.3;}
	.st4{fill-rule:evenodd;clip-rule:evenodd;fill:url(#SVGID_00000139978731900258273400000011580114176886247564_);}
	.st5{fill:#FFFFFF;filter:url(#Adobe_OpacityMaskFilter_00000109748409591696146380000010269831700196576904_);}
	.st6{display:none;mask:url(#mask1_1939_31344_00000092456735242157227890000007025519248294168761_);}
	.st7{display:inline;fill:#6C31E3;}
	.st8{display:inline;fill:url(#SVGID_00000047051095088275692250000005730343398644935102_);}
	.st9{display:inline;fill:url(#SVGID_00000046327134259857043310000008716668367407751047_);}
	.st10{display:inline;fill:url(#SVGID_00000141414261350945590400000009076911206411875766_);}
	.st11{display:inline;fill:url(#SVGID_00000005262943317983631870000017998572150709526970_);}
	.st12{display:inline;fill-rule:evenodd;clip-rule:evenodd;fill:url(#SVGID_00000007386437675602781600000003006378077517161872_);}
	.st13{display:inline;fill-rule:evenodd;clip-rule:evenodd;fill:url(#SVGID_00000155148447942135176640000009823675397254113972_);}
	.st14{display:inline;fill-rule:evenodd;clip-rule:evenodd;fill:url(#SVGID_00000059310892628431726970000006188910654761991338_);}
	.st15{display:inline;fill-rule:evenodd;clip-rule:evenodd;fill:url(#SVGID_00000162336109995446045640000016019605420306318513_);}
	.st16{fill:none;}
	.st17{fill:#FFFFFF;}
</style>
<path class="st0" d="M104.4,42.4c-4.4-5.3-10.9-8.4-17.8-8.4H29c-6.6,0-12,5.4-12,12v12.1v10.1V160c0,6.6,5.4,12,12,12h200
	c6.6,0,12-5.4,12-12V70.1c0-6.6-5.4-12-12-12H117.4L104.4,42.4z"/>
<defs>
	<filter id="Adobe_OpacityMaskFilter" filterUnits="userSpaceOnUse" x="17" y="62" width="224" height="110">
		<feColorMatrix  type="matrix" values="1 0 0 0 0  0 1 0 0 0  0 0 1 0 0  0 0 0 1 0"/>
	</filter>
</defs>
<mask maskUnits="userSpaceOnUse" x="17" y="62" width="224" height="110" id="mask0_1939_31344_00000049186448918995202350000003271707350817471373_">
	
		<linearGradient id="SVGID_1_" gradientUnits="userSpaceOnUse" x1="32.5816" y1="239.5494" x2="213.3495" y2="58.4074" gradientTransform="matrix(1 0 0 -1 0 258)">
		<stop  offset="0" style="stop-color:#05815D"/>
		<stop  offset="1" style="stop-color:#0C575F"/>
	</linearGradient>
	<path class="st1" d="M104.4,42.4c-4.4-5.3-10.9-8.4-17.8-8.4H29c-6.6,0-12,5.4-12,12v12.1v10.1V160c0,6.6,5.4,12,12,12h200
		c6.6,0,12-5.4,12-12V70.1c0-6.6-5.4-12-12-12H117.4L104.4,42.4z"/>
</mask>
<g class="st2">
	<g>
		<path class="st3" d="M92.8,74c5,0,9.8-1.6,13.8-4.6l9.9-7.4H229c6.6,0,12,5.4,12,12v34v52c0,6.6-5.4,12-12,12H29
			c-6.6,0-12-5.4-12-12v-52V86c0-6.6,5.4-12,12-12h58H92.8z"/>
	</g>
</g>
<g>
	
		<linearGradient id="SVGID_00000030444874607037636960000006855045603494654138_" gradientUnits="userSpaceOnUse" x1="17" y1="196" x2="241" y2="48" gradientTransform="matrix(1 0 0 -1 0 258)">
		<stop  offset="0" style="stop-color:#C79DFB"/>
		<stop  offset="1" style="stop-color:#9FADFA"/>
	</linearGradient>
	<path style="fill-rule:evenodd;clip-rule:evenodd;fill:url(#SVGID_00000030444874607037636960000006855045603494654138_);" d="
		M92.8,74c5,0,9.8-1.6,13.8-4.6l9.9-7.4H229c6.6,0,12,5.4,12,12v34v90c0,6.6-5.4,12-12,12H29c-6.6,0-12-5.4-12-12v-90V86
		c0-6.6,5.4-12,12-12h58H92.8z"/>
</g>
<defs>
	
		<filter id="Adobe_OpacityMaskFilter_00000150066008708374535070000013015973521483106460_" filterUnits="userSpaceOnUse" x="91.1" y="86" width="76.7" height="99">
		<feColorMatrix  type="matrix" values="1 0 0 0 0  0 1 0 0 0  0 0 1 0 0  0 0 0 1 0"/>
	</filter>
</defs>
<mask maskUnits="userSpaceOnUse" x="91.1" y="86" width="76.7" height="99" id="mask1_1939_31344_00000092456735242157227890000007025519248294168761_">
	<path style="fill:#FFFFFF;filter:url(#Adobe_OpacityMaskFilter_00000150066008708374535070000013015973521483106460_);" d="M80,86
		h99v99H80V86z"/>
</mask>
<g class="st6">
	<path class="st7" d="M153.9,177.9c-0.6,4.5-5,8-9.4,6.8c-6.3-1.7-13.5-4.4-20-4.9l-10-0.8c-1.6-0.1-3.1-0.8-4.3-2L93,159.4
		c-0.9-0.9-1.5-2.1-1.8-3.4c-0.2-1.3-0.1-2.6,0.5-3.8c0,0,10.6-23.4,11-24.6c0.4-1.2,1.9-11.8,2.7-17.5c0.2-1.5,1-2.9,2.1-3.9
		l20.4-18.3c0.7-0.6,1.5-1.1,2.3-1.3c0.9-0.3,1.8-0.4,2.7-0.3c0.9,0.1,1.8,0.3,2.6,0.8c0.8,0.4,1.5,1,2,1.7l17.1,21.7
		c1,1.2,1.5,2.8,1.5,4.3c0,4.1,0.3,12.6,2.6,18c2.2,5.3,6.3,11,8.4,13.8c0.4,0.5,0.6,1.2,0.7,1.8c0,0.7-0.1,1.3-0.4,1.9
		c-2.8,4.6-5.6,9.2-8.7,13.7C155.8,168.1,154.5,173.4,153.9,177.9L153.9,177.9z"/>
	
		<radialGradient id="SVGID_00000114773709215023227480000012955205885737052340_" cx="-124.2847" cy="376.1177" r="1.0003" gradientTransform="matrix(-11.4079 -43.5059 -28.9881 7.6011 9596.3076 -8089.1924)" gradientUnits="userSpaceOnUse">
		<stop  offset="0" style="stop-color:#FFFFFF;stop-opacity:0.4"/>
		<stop  offset="1" style="stop-color:#000000;stop-opacity:0.1"/>
	</radialGradient>
	<path style="display:inline;fill:url(#SVGID_00000114773709215023227480000012955205885737052340_);" d="M112,178.4
		c8-16.2,7.8-27.9,4.4-36.2c-3.1-7.7-9-12.5-13.5-15.5c-0.1,0.4-0.3,0.9-0.4,1.3l-10.8,24c-0.5,1.2-0.7,2.5-0.5,3.8
		c0.2,1.3,0.8,2.5,1.8,3.4l17.2,17.7C110.7,177.7,111.3,178.1,112,178.4L112,178.4z"/>
	
		<radialGradient id="SVGID_00000145040333552959369560000011202699115979154824_" cx="-122.4088" cy="376.5136" r="1" gradientTransform="matrix(9.668 -73.2832 -54.1422 -7.1428 21718.2793 -6122.8457)" gradientUnits="userSpaceOnUse">
		<stop  offset="0" style="stop-color:#FFFFFF;stop-opacity:0.6"/>
		<stop  offset="1" style="stop-color:#FFFFFF;stop-opacity:0.1"/>
	</radialGradient>
	<path style="display:inline;fill:url(#SVGID_00000145040333552959369560000011202699115979154824_);" d="M133.8,145.5
		c2.2,0.2,4.3,0.7,6.3,1.5c6.6,2.5,12.6,8,17.5,18.6c0.3-0.6,0.7-1.2,1.1-1.8c3-4.5,5.9-9,8.7-13.7c0.3-0.6,0.5-1.2,0.4-1.9
		c0-0.7-0.3-1.3-0.7-1.8c-2.1-2.8-6.2-8.5-8.4-13.8c-2.3-5.5-2.6-13.9-2.6-18c0-1.6-0.5-3.1-1.5-4.3l-17.1-21.7
		c-0.1-0.1-0.2-0.2-0.3-0.3c1.1,3.4,1.3,7,0.4,10.4c-0.8,2.8-2,5.5-3.4,8l-1.4,2.7c-2.2,4.2-3.5,8.9-3.8,13.7
		C128.8,128.8,130,135.9,133.8,145.5z"/>
	
		<radialGradient id="SVGID_00000110432061313433096300000016225404835273097351_" cx="-122.4687" cy="375.6641" r="1" gradientTransform="matrix(13.3418 -61.6817 -42.1462 -9.1163 17580.6602 -3984.093)" gradientUnits="userSpaceOnUse">
		<stop  offset="0" style="stop-color:#FFFFFF;stop-opacity:0.8"/>
		<stop  offset="1" style="stop-color:#FFFFFF;stop-opacity:0.4"/>
	</radialGradient>
	<path style="display:inline;fill:url(#SVGID_00000110432061313433096300000016225404835273097351_);" d="M133.8,145.5
		c-3.8-9.6-5-16.7-4.7-22.4c0.2-4.8,1.5-9.5,3.8-13.7c0.4-0.9,0.9-1.8,1.4-2.7c1.4-2.7,2.7-5.2,3.4-8c0.9-3.4,0.7-7.1-0.4-10.4
		c-1.2-1.3-2.8-2.1-4.6-2.2c-1.7-0.1-3.4,0.5-4.7,1.7L107.5,106c-1.1,1-1.9,2.4-2.1,3.9l-2.5,16.4l-0.1,0.4
		c4.6,3,10.4,7.8,13.6,15.5c0.6,1.6,1.1,3.2,1.5,4.8C123.3,145.8,128.7,145,133.8,145.5L133.8,145.5z"/>
	
		<radialGradient id="SVGID_00000125604111802149479530000011099609921836462514_" cx="-125.5292" cy="377.9808" r="1" gradientTransform="matrix(-18.5623 -31.5176 -36.2314 21.3385 11509.4697 -11836.9395)" gradientUnits="userSpaceOnUse">
		<stop  offset="0" style="stop-color:#FFFFFF;stop-opacity:0.3"/>
		<stop  offset="1" style="stop-color:#000000;stop-opacity:0.3"/>
	</radialGradient>
	<path style="display:inline;fill:url(#SVGID_00000125604111802149479530000011099609921836462514_);" d="M144.5,184.8
		c4.4,1.2,8.8-2.3,9.4-6.8c0.5-4.3,1.8-8.5,3.8-12.4c-4.9-10.6-10.9-16.2-17.5-18.6c-7-2.6-14.5-1.7-22.2,0.1
		c1.7,7.8,0.7,18-5.9,31.4c0.8,0.3,1.6,0.6,2.4,0.6c0,0,4.7,0.4,10.4,0.8C130.4,180.3,138.8,183.2,144.5,184.8L144.5,184.8z"/>
	
		<radialGradient id="SVGID_00000060732611367012612570000001934006066912734084_" cx="-118.1804" cy="385.4971" r="1" gradientTransform="matrix(-6.9609 32.0977 21.6447 4.694 -9026.6924 2094.5505)" gradientUnits="userSpaceOnUse">
		<stop  offset="0" style="stop-color:#FFFFFF;stop-opacity:0"/>
		<stop  offset="1" style="stop-color:#FFFFFF;stop-opacity:0.2"/>
	</radialGradient>
	
		<path style="display:inline;fill-rule:evenodd;clip-rule:evenodd;fill:url(#SVGID_00000060732611367012612570000001934006066912734084_);" d="
		M129.1,122.7c-0.3,5.6,0.5,12.1,4.3,21.7l-1.2-0.1c-3.4-10-4.2-15.1-3.9-20.8c0.3-4.9,1.6-9.6,3.9-13.9c0.5-0.9,1.5-2.7,2-3.6
		c1.4-2.6,2.3-4.1,3.1-6.5c1.1-3.4,0.9-5,0.7-6.6c0.9,5.8-2.5,10.8-5,15.9C130.8,113.1,129.4,117.8,129.1,122.7L129.1,122.7z"/>
	
		<radialGradient id="SVGID_00000179631083968539237490000001618461426573791130_" cx="-113.9293" cy="379.0188" r="1" gradientTransform="matrix(17.0156 17.209 36.6546 -36.2428 -11852.7998 15825.8418)" gradientUnits="userSpaceOnUse">
		<stop  offset="0" style="stop-color:#FFFFFF;stop-opacity:0.2"/>
		<stop  offset="1" style="stop-color:#FFFFFF;stop-opacity:0.4"/>
	</radialGradient>
	
		<path style="display:inline;fill-rule:evenodd;clip-rule:evenodd;fill:url(#SVGID_00000179631083968539237490000001618461426573791130_);" d="
		M117.5,142.7c0.5,1,0.9,1.9,1.2,3.2l-1,0.2c-0.4-1.5-0.7-2.6-1.3-3.9c-3.4-8.1-9-12.3-13.5-15.4
		C108.3,129.8,113.9,134.4,117.5,142.7L117.5,142.7z"/>
	
		<radialGradient id="SVGID_00000019659884060207001510000003197186151902818436_" cx="-115.8776" cy="381.0998" r="1" gradientTransform="matrix(1.7402 25.1367 53.3791 -3.6955 -20019.5898 4461.999)" gradientUnits="userSpaceOnUse">
		<stop  offset="0" style="stop-color:#FFFFFF;stop-opacity:0.2"/>
		<stop  offset="1" style="stop-color:#FFFFFF;stop-opacity:0.3"/>
	</radialGradient>
	
		<path style="display:inline;fill-rule:evenodd;clip-rule:evenodd;fill:url(#SVGID_00000019659884060207001510000003197186151902818436_);" d="
		M118.7,146.9c1.9,8.9-0.2,20.1-6.5,31.1c5.2-10.9,7.8-21.3,5.7-30.9L118.7,146.9z"/>
	
		<radialGradient id="SVGID_00000119079954849422335560000009924533154306474663_" cx="-124.7782" cy="379.3738" r="1" gradientTransform="matrix(-38.2851 -20.1095 -63.264 120.4439 19380.8496 -48039.3359)" gradientUnits="userSpaceOnUse">
		<stop  offset="0" style="stop-color:#FFFFFF;stop-opacity:0.2"/>
		<stop  offset="0.5" style="stop-color:#FFFFFF;stop-opacity:0.2"/>
		<stop  offset="1" style="stop-color:#FFFFFF;stop-opacity:0.3"/>
	</radialGradient>
	
		<path style="display:inline;fill-rule:evenodd;clip-rule:evenodd;fill:url(#SVGID_00000119079954849422335560000009924533154306474663_);" d="
		M140.4,146.1c10.3,3.8,14.2,12.3,17.2,19.3c-3.7-7.4-8.7-15.5-17.6-18.6c-6.7-2.3-12.4-2-22.1,0.2l-0.2-1
		C128,143.8,133.4,143.5,140.4,146.1z"/>
</g>
<path class="st16" d="M69.3,64.2c23.6-0.2,63.7-0.1,90-0.1c10.9,0,20.9,0,31.4,0c2.1,0.1,1.8-0.3,1.8,1.4c0,11.9,0,23.3,0,35.6
	c0,28.9,0.1,69.2-0.1,95.6c-24.1,0.5-62.9,0-89.5,0.2c-11.1,0-21.3,0-31.9,0c-2.1-0.1-1.8,0.3-1.8-1.4c0-12,0-23.5,0-35.8
	C69.3,130.9,69.1,90.5,69.3,64.2L69.3,64.2z"/>
<path class="st17" d="M103.7,117.3c0.3,0.1,0.5,0.6,0.6,1.2c0.3,1.7,0.2,3.5,0.2,5.3c0.2,6.1-1,13.2,2.1,18.6
	c3.5,6,10.3,5.5,10.6-2.1c0.6-10.4-0.6-21.1,0.5-31.5c0.6-2.2,2.5-3.2,4.8-3c5.1,0.4,8.6,4.8,11.9,8.3c4.7,4.9,9.3,9.9,13.8,15
	c2.8,3.1,2.5,4.9-1.7,5.6c-4.2,0.8-8.6,1.6-13,2.4c-2.8,0.5-5.9,0.9-7.8,2.6c-2.7,2.3-2.9,6.2-3.8,9.4c-0.8,2.8-1.4,9.9-5.4,6.3
	c-3.5-3.2-6.8-7.1-10.2-10.6c-3.2-3.5-7.1-6.9-8.1-11.5c-1.1-4.9,0.4-10.6,3.2-14.6C102.4,117.6,103.1,117.1,103.7,117.3
	L103.7,117.3z"/>
<path class="st17" d="M173.3,133c1.2,2.1-0.8,5.2-1.3,7.5c-3.2,9.7-6.3,19.5-9.5,29.2c-1,3.6-3.8,6.1-7.4,6.9
	c-12.3,3-24.6,6.5-36.8,9.2c-3.1,0.5-2.9-2.3-2.3-4.6c2.7-11,5.5-22.1,8.2-33.1c0.6-2.4,1-5.1,2.9-6.8c1.2-1.1,3.1-1.6,4.8-2
	c6.5-1.2,13.2-2.4,19.6-3.6c5.9-1.1,12-2.1,17.9-3.2C170.5,132.4,172.4,132.2,173.3,133L173.3,133z M124.5,167.6
	c-0.1,6.8,5.4,10.8,11.9,10.2c11.1-1.2,20.6-9.6,25.3-19.4c7.1-16.9-7.2-23.5-20.9-15c-8.4,5-16.2,13.9-16.4,24L124.5,167.6z"/>
<path class="st17" d="M108.5,91.4c1.2-1.2,4.1-1.2,5.4-0.1c1.3,1,1.3,3,1.4,4.6c-0.3,15.3,0.6,30.7-0.3,45.9
	c-0.8,3.3-3.9,2.8-5.7,0.1c-1.8-2.6-1.9-5.9-1.9-8.9c-0.1-12.4,0-24.9,0-37.3C107.3,94.3,107.4,92.4,108.5,91.4L108.5,91.4z"/>
<path class="st17" d="M144.2,122.9c-0.4,0.1-0.9-0.2-1.5-0.8c-1.6-1.7-3.5-3.7-4.5-5.9c-1.1-2.3-1.1-5.1-1-8c0-4.7-0.1-9.5,0.1-14.2
	c-0.1-5,7.3-5.1,7.8-0.4c0.4,8.4,0,17,0.1,25.5C145,120.2,145.2,122.3,144.2,122.9L144.2,122.9z"/>
<path class="st17" d="M135.6,174.8c-7.6-3.1-6.9-11.5-3.2-17.5c3.6-6.1,8.9-11.2,15.7-13.2c3-0.9,6.8-0.3,9.3,1.2
	c3.6,2.3,2.9,7.3,1.7,10.8c-2.7,8.5-14.1,20.2-23.5,18.7L135.6,174.8z"/>
</svg>
