<?xml version="1.0" encoding="utf-8"?>
<!-- Generator: Adobe Illustrator 28.1.0, SVG Export Plug-In . SVG Version: 6.00 Build 0)  -->
<svg version="1.1" id="图层_1" xmlns="http://www.w3.org/2000/svg" xmlns:xlink="http://www.w3.org/1999/xlink" x="0px" y="0px"
	 width="256px" height="256px" viewBox="0 0 256 256" style="enable-background:new 0 0 256 256;" xml:space="preserve">
<style type="text/css">
	.st0{fill-rule:evenodd;clip-rule:evenodd;}
	.st1{fill-rule:evenodd;clip-rule:evenodd;fill-opacity:0.3;}
	.st2{fill-rule:evenodd;clip-rule:evenodd;fill:url(#SVGID_1_);}
	
		.st3{fill:url(#SVGID_00000132052716992346406090000014859231443423007402_);stroke:#0A0A0A;stroke-width:0.651;stroke-linecap:round;stroke-linejoin:round;}
	.st4{opacity:0.579;fill:#B6B6B6;enable-background:new    ;}
	.st5{fill:#232323;stroke:#000000;stroke-width:2;stroke-linecap:round;stroke-linejoin:round;}
	.st6{opacity:0.8;fill:url(#SVGID_00000170269256458943608530000013981866548991147697_);enable-background:new    ;}
	.st7{opacity:0.579;fill:none;stroke:url(#SVGID_00000090258875294856246080000017943172865264499106_);enable-background:new    ;}
	.st8{fill:none;stroke:url(#SVGID_00000116935682586207134040000015012000835915455886_);}
	.st9{opacity:0.579;fill:none;stroke:url(#SVGID_00000080921642296131080740000001450444478851096227_);enable-background:new    ;}
	.st10{fill:none;stroke:url(#SVGID_00000061452445437418285230000010353185664590240666_);}
	
		.st11{opacity:0.579;fill:none;stroke:url(#SVGID_00000096035633100780187910000017617021902569466497_);enable-background:new    ;}
	.st12{fill:none;stroke:url(#SVGID_00000026860431193825009230000007676707797596907416_);}
	.st13{fill:none;stroke:#000000;stroke-width:2;stroke-linecap:round;stroke-linejoin:round;}
	
		.st14{fill:url(#SVGID_00000083077769060274939960000005508254165481591992_);stroke:#D4D4D4;stroke-width:2;stroke-linecap:round;stroke-linejoin:round;}
	
		.st15{fill:url(#SVGID_00000109718067219166625890000018009899466690828471_);stroke:#000000;stroke-width:2;stroke-linecap:round;stroke-linejoin:round;}
	.st16{fill:url(#SVGID_00000115494000793453791890000016270103697601588645_);}
	
		.st17{fill:url(#SVGID_00000042724009452948619620000004620507498205203602_);stroke:#0A0A0A;stroke-width:0.651;stroke-linecap:round;stroke-linejoin:round;}
	
		.st18{opacity:0.867;fill:#ABABAB;stroke:url(#SVGID_00000049207903555503410570000001748341373325538435_);stroke-width:1.486;stroke-linecap:round;stroke-linejoin:round;enable-background:new    ;}
</style>
<path class="st0" d="M104.4,42.4C100,37.1,93.5,34,86.6,34H29c-6.6,0-12,5.4-12,12v12.1v10.1V160c0,6.6,5.4,12,12,12h200
	c6.6,0,12-5.4,12-12V70.1c0-6.6-5.4-12-12-12H117.4L104.4,42.4z"/>
<g>
	<g>
		<path class="st1" d="M92.8,74c5,0,9.8-1.6,13.8-4.6l9.9-7.4H229c6.6,0,12,5.4,12,12v34v52c0,6.6-5.4,12-12,12H29
			c-6.6,0-12-5.4-12-12v-52V86c0-6.6,5.4-12,12-12h58H92.8z"/>
	</g>
</g>
<g>
	
		<linearGradient id="SVGID_1_" gradientUnits="userSpaceOnUse" x1="32.6479" y1="287.3651" x2="319.1479" y2="556.8651" gradientTransform="matrix(1 0 0 1 0 -242)">
		<stop  offset="0" style="stop-color:#FAFAFA"/>
		<stop  offset="1" style="stop-color:#DFD8D8"/>
	</linearGradient>
	<path class="st2" d="M92.8,74c5,0,9.8-1.6,13.8-4.6l9.9-7.4H229c6.6,0,12,5.4,12,12v34v90c0,6.6-5.4,12-12,12H29
		c-6.6,0-12-5.4-12-12v-90V86c0-6.6,5.4-12,12-12h58H92.8z"/>
</g>
<g>
	
		<linearGradient id="SVGID_00000149381132086694679820000018303131531804459145_" gradientUnits="userSpaceOnUse" x1="-8.3077" y1="220.6024" x2="0.5829" y2="220.6024" gradientTransform="matrix(1.012 0 0 1.012 139.998 -102.408)">
		<stop  offset="0" style="stop-color:#0E0E0E"/>
		<stop  offset="1" style="stop-color:#8B8B8B"/>
	</linearGradient>
	
		<path style="fill:url(#SVGID_00000149381132086694679820000018303131531804459145_);stroke:#0A0A0A;stroke-width:0.651;stroke-linecap:round;stroke-linejoin:round;" d="
		M131.6,96.2v42.1h0.1c0.2,1.8,0.9,3.4,2.1,4.8c2.1,2.6,4.8,3.2,6.1,1.4c0.5-0.7,0.7-1.6,0.7-2.5h0.1V96.2H131.6z"/>
	<path class="st4" d="M141.5,142.1c-0.6,0.8-1.7,0.5-2.6-0.6c-0.9-1.1-1.2-2.7-0.6-3.4c0.6-0.8,1.7-0.5,2.6,0.6
		S142.1,141.3,141.5,142.1z"/>
	<path class="st5" d="M98.6,135.9c-1-4.5-1.3-7.7,0.4-11.5c2-4.3,5.1-7.8,9.1-10.3c3.9-2.6,6.6-5,11.3-4.4c5,0.7,5,1.2,8.3,4.6
		c3,3,6.6,8.7,9,11.4l14.2,13.5c-2.9-0.3-14.9,2.9-18.4,5c-6.9,7.8-8.8,9-11.5,16.3C112.9,152.1,99,138.6,98.6,135.9L98.6,135.9
		L98.6,135.9z"/>
	
		<linearGradient id="SVGID_00000110462456092094790420000016420403113184516751_" gradientUnits="userSpaceOnUse" x1="-21.391" y1="222.8741" x2="-11.302" y2="214.4199" gradientTransform="matrix(1.132 -7.300000e-02 7.400000e-02 1.12 128.007 -118.276)">
		<stop  offset="0" style="stop-color:#0E0E0E"/>
		<stop  offset="0.765" style="stop-color:#C7C7C7"/>
		<stop  offset="1" style="stop-color:#151515"/>
	</linearGradient>
	<path style="opacity:0.8;fill:url(#SVGID_00000110462456092094790420000016420403113184516751_);enable-background:new    ;" d="
		M116.5,110.7l29.1,28.8c-5.9,1.4-10.1,2.6-13.2,5.1l-26.3-28.9c1.6-0.7,4.1-3.1,5.1-3.8c1-0.6,1.9-0.5,3.1-1
		C115.4,110.5,115.3,110.8,116.5,110.7L116.5,110.7L116.5,110.7z"/>
	
		<linearGradient id="SVGID_00000077316450792940956030000008150165126755626392_" gradientUnits="userSpaceOnUse" x1="-2.8425" y1="236.3944" x2="25.7839" y2="236.3944" gradientTransform="matrix(1.012 0 0 1.012 111.662 -102.408)">
		<stop  offset="0" style="stop-color:#0E0E0E"/>
		<stop  offset="1" style="stop-color:#8B8B8B"/>
	</linearGradient>
	
		<path style="opacity:0.579;fill:none;stroke:url(#SVGID_00000077316450792940956030000008150165126755626392_);enable-background:new    ;" d="
		M109.3,148.2c0-8.8,4.3-13.4,6.8-15.5c5.4-4.5,14.5-8.5,21.2-6.2"/>
	
		<linearGradient id="SVGID_00000165950266275562671640000013695335699946068926_" gradientUnits="userSpaceOnUse" x1="-2.9123" y1="236.3591" x2="25.7141" y2="236.3591" gradientTransform="matrix(1.012 0 0 1.012 112.684 -101.897)">
		<stop  offset="0" style="stop-color:#0E0E0E"/>
		<stop  offset="0.765" style="stop-color:#C7C7C7"/>
		<stop  offset="1" style="stop-color:#151515"/>
	</linearGradient>
	<path style="fill:none;stroke:url(#SVGID_00000165950266275562671640000013695335699946068926_);" d="M110.2,148.7
		c0-8.8,4.3-13.4,6.8-15.5c5.4-4.5,14.5-8.5,21.2-6.2"/>
	
		<linearGradient id="SVGID_00000160171682911505759950000016406138932663156140_" gradientUnits="userSpaceOnUse" x1="-2.9826" y1="236.2541" x2="25.6438" y2="236.2541" gradientTransform="matrix(1.012 0 0 1.012 113.686 -100.384)">
		<stop  offset="0" style="stop-color:#0E0E0E"/>
		<stop  offset="1" style="stop-color:#8B8B8B"/>
	</linearGradient>
	
		<path style="opacity:0.579;fill:none;stroke:url(#SVGID_00000160171682911505759950000016406138932663156140_);enable-background:new    ;" d="
		M111.2,150.1c0-8.8,4.3-13.4,6.8-15.5c5.4-4.5,14.5-8.5,21.2-6.2"/>
	
		<linearGradient id="SVGID_00000159444712079528199710000009666371455906930104_" gradientUnits="userSpaceOnUse" x1="-3.0524" y1="236.2153" x2="25.574" y2="236.2153" gradientTransform="matrix(1.012 0 0 1.012 114.708 -99.873)">
		<stop  offset="0" style="stop-color:#0E0E0E"/>
		<stop  offset="0.765" style="stop-color:#C7C7C7"/>
		<stop  offset="1" style="stop-color:#151515"/>
	</linearGradient>
	<path style="fill:none;stroke:url(#SVGID_00000159444712079528199710000009666371455906930104_);" d="M112.1,150.6
		c0-8.8,4.3-13.4,6.8-15.5c5.4-4.5,14.5-8.5,21.2-6.2"/>
	
		<linearGradient id="SVGID_00000182524113481120177880000012244898511612135309_" gradientUnits="userSpaceOnUse" x1="-2.7024" y1="236.5345" x2="25.924" y2="236.5345" gradientTransform="matrix(1.012 0 0 1.012 109.638 -104.432)">
		<stop  offset="0" style="stop-color:#0E0E0E"/>
		<stop  offset="1" style="stop-color:#8B8B8B"/>
	</linearGradient>
	
		<path style="opacity:0.579;fill:none;stroke:url(#SVGID_00000182524113481120177880000012244898511612135309_);enable-background:new    ;" d="
		M107.4,146.4c0-8.8,4.3-13.4,6.8-15.5c5.4-4.5,14.5-8.5,21.2-6.2"/>
	
		<linearGradient id="SVGID_00000104687047162610032960000015618587257134141112_" gradientUnits="userSpaceOnUse" x1="-2.7722" y1="236.4992" x2="25.8542" y2="236.4992" gradientTransform="matrix(1.012 0 0 1.012 110.66 -103.921)">
		<stop  offset="0" style="stop-color:#0E0E0E"/>
		<stop  offset="0.765" style="stop-color:#C7C7C7"/>
		<stop  offset="1" style="stop-color:#151515"/>
	</linearGradient>
	<path style="fill:none;stroke:url(#SVGID_00000104687047162610032960000015618587257134141112_);" d="M108.4,146.8
		c0-8.8,4.3-13.4,6.8-15.5c5.4-4.5,14.5-8.5,21.2-6.2"/>
	<path class="st13" d="M98.6,135.9c-1-4.5-1.3-7.7,0.4-11.5c2-4.3,5.1-7.8,9.1-10.3c3.9-2.6,6.6-5,11.3-4.4c5,0.7,5,1.2,8.3,4.6
		c3,3,6.6,8.7,9,11.4l14.2,13.5c-2.9-0.3-14.9,2.9-18.4,5c-6.9,7.8-8.8,9-11.5,16.3C112.9,152.1,99,138.6,98.6,135.9L98.6,135.9
		L98.6,135.9z"/>
	
		<linearGradient id="SVGID_00000042004630349038576530000004607533716870821278_" gradientUnits="userSpaceOnUse" x1="-36.31" y1="251.5074" x2="18.4009" y2="212.0534" gradientTransform="matrix(1.012 0 0 1.052 156.642 -96.151)">
		<stop  offset="0" style="stop-color:#0E0E0E"/>
		<stop  offset="1" style="stop-color:#8B8B8B"/>
	</linearGradient>
	
		<path style="fill:url(#SVGID_00000042004630349038576530000004607533716870821278_);stroke:#D4D4D4;stroke-width:2;stroke-linecap:round;stroke-linejoin:round;" d="
		M122.1,139.5l44-8.2l-12.8,39.3l-41.6,10.6L122.1,139.5z"/>
	
		<linearGradient id="SVGID_00000114053444971772612440000016520080975787678891_" gradientUnits="userSpaceOnUse" x1="-36.3453" y1="251.4564" x2="18.3655" y2="212.0023" gradientTransform="matrix(1.012 0 0 1.052 157.153 -95.384)">
		<stop  offset="0" style="stop-color:#0E0E0E"/>
		<stop  offset="1" style="stop-color:#8B8B8B"/>
	</linearGradient>
	
		<path style="fill:url(#SVGID_00000114053444971772612440000016520080975787678891_);stroke:#000000;stroke-width:2;stroke-linecap:round;stroke-linejoin:round;" d="
		M122.6,140.2l44-8.2l-12.8,39.3L112.1,182L122.6,140.2L122.6,140.2L122.6,140.2z"/>
	
		<linearGradient id="SVGID_00000048465173441892731950000001208030040639570564_" gradientUnits="userSpaceOnUse" x1="130.8622" y1="149.1726" x2="146.6622" y2="164.035">
		<stop  offset="0" style="stop-color:#FAFAFA"/>
		<stop  offset="1" style="stop-color:#DFD8D8"/>
	</linearGradient>
	<path style="fill:url(#SVGID_00000048465173441892731950000001208030040639570564_);" d="M148.1,141.8c6.5,1.4,7.7,9.1,2.5,17.3
		c-5.2,8.2-14.6,13.7-21.2,12.4c-6.5-1.4-7.7-9.1-2.5-17.3C132.1,146,141.6,140.4,148.1,141.8z"/>
	
		<linearGradient id="SVGID_00000165219689423131508410000001568992384716671655_" gradientUnits="userSpaceOnUse" x1="-6.3463" y1="220.6024" x2="2.5462" y2="220.6024" gradientTransform="matrix(1.012 0 0 1.012 111.662 -102.408)">
		<stop  offset="0" style="stop-color:#0E0E0E"/>
		<stop  offset="1" style="stop-color:#8B8B8B"/>
	</linearGradient>
	
		<path style="fill:url(#SVGID_00000165219689423131508410000001568992384716671655_);stroke:#0A0A0A;stroke-width:0.651;stroke-linecap:round;stroke-linejoin:round;" d="
		M105.2,96.2v42.1h0.1c0.2,1.8,0.9,3.4,2.1,4.8c2.1,2.6,4.8,3.2,6.1,1.4c0.5-0.7,0.7-1.6,0.7-2.5h0.1V96.2H105.2z"/>
	<path class="st4" d="M111.4,142.1c-0.6,0.8-1.7,0.5-2.6-0.6c-0.9-1.1-1.2-2.7-0.6-3.4s1.7-0.5,2.6,0.6S112,141.3,111.4,142.1z"/>
	
		<linearGradient id="SVGID_00000169531265680579534450000017071464268701940133_" gradientUnits="userSpaceOnUse" x1="-326.1819" y1="306.7136" x2="-301.4424" y2="313.3698" gradientTransform="matrix(0.73 -1.158 1.086 0.224 35.102 -271.935)">
		<stop  offset="0" style="stop-color:#525252"/>
		<stop  offset="1" style="stop-color:#E8E8E8"/>
	</linearGradient>
	
		<path style="opacity:0.867;fill:#ABABAB;stroke:url(#SVGID_00000169531265680579534450000017071464268701940133_);stroke-width:1.486;stroke-linecap:round;stroke-linejoin:round;enable-background:new    ;" d="
		M151.8,143.8c4.2,4.3,1.7,13.5-5.5,20.6c-5,4.9-11.2,7.7-16,7.2"/>
</g>
</svg>
