<?xml version="1.0" encoding="UTF-8"?>
<svg xmlns="http://www.w3.org/2000/svg" width="256" height="256" version="1.1" xmlns:xlink="http://www.w3.org/1999/xlink" viewBox="0 0 256 256">
  <!-- Generator: Adobe Illustrator 29.0.0, SVG Export Plug-In . SVG Version: 2.1.0 Build 186)  -->
  <defs>
    <style>
      .st0 {
        fill: #89ff0d;
      }

      .st0, .st1, .st2, .st3 {
        fill-rule: evenodd;
      }

      .st1 {
        fill-opacity: .3;
      }

      .st4 {
        mask: url(#mask);
      }

      .st2 {
        fill: url(#_未命名的渐变);
      }

      .st5 {
        isolation: isolate;
      }

      .st6 {
        mix-blend-mode: multiply;
      }

      .st7 {
        display: none;
      }

      .st3 {
        fill: #060001;
      }
    </style>
    <linearGradient id="_未命名的渐变" data-name="未命名的渐变" x1="32.6" y1="239.5" x2="213.3" y2="58.4" gradientTransform="translate(0 258) scale(1 -1)" gradientUnits="userSpaceOnUse">
      <stop offset="0" stop-color="#05815d"/>
      <stop offset="1" stop-color="#0c575f"/>
    </linearGradient>
    <mask id="mask" x="17" y="34" width="224" height="138" maskUnits="userSpaceOnUse">
      <g id="mask0_1923_29064">
        <path class="st2" d="M104.4,42.4c-4.4-5.3-10.9-8.4-17.8-8.4H29c-6.6,0-12,5.4-12,12v114c0,6.6,5.4,12,12,12h200c6.6,0,12-5.4,12-12v-89.9c0-6.6-5.4-12-12-12h-111.6l-13-15.8Z"/>
      </g>
    </mask>
  </defs>
  <g class="st5">
    <g id="_图层_1" data-name="图层_1">
      <path class="st0" d="M104.4,42.4c-4.4-5.3-10.9-8.4-17.8-8.4H29c-6.6,0-12,5.4-12,12v114c0,6.6,5.4,12,12,12h200c6.6,0,12-5.4,12-12v-89.9c0-6.6-5.4-12-12-12h-111.6l-13-15.8Z"/>
      <g class="st4">
        <g class="st7">
          <g class="st6">
            <path class="st1" d="M92.8,74c5,0,9.8-1.6,13.8-4.6l9.9-7.4h112.5c6.6,0,12,5.4,12,12v86c0,6.6-5.4,12-12,12H29c-6.6,0-12-5.4-12-12v-74c0-6.6,5.4-12,12-12h63.8Z"/>
          </g>
        </g>
      </g>
      <path class="st3" d="M92.8,74c5,0,9.8-1.6,13.8-4.6l9.9-7.4h112.5c6.6,0,12,5.4,12,12v124c0,6.6-5.4,12-12,12H29c-6.6,0-12-5.4-12-12v-112c0-6.6,5.4-12,12-12h63.8Z"/>
      <path id="video" class="st0" d="M87,90.2c-2.6,0-4.7,2.1-4.7,4.7v80.7c0,2.6,2.1,4.7,4.7,4.7h85.4c2.6,0,4.7-2.1,4.7-4.7v-80.7c0-2.6-2.1-4.7-4.7-4.7h-85.4ZM110.6,161.6l45.7-26.4-45.7-26.4v52.7Z"/>
    </g>
  </g>
</svg>