<?xml version="1.0" encoding="utf-8"?>
<!-- Generator: Adobe Illustrator 28.1.0, SVG Export Plug-In . SVG Version: 6.00 Build 0)  -->
<svg version="1.1" id="图层_1" xmlns="http://www.w3.org/2000/svg" xmlns:xlink="http://www.w3.org/1999/xlink" x="0px" y="0px"
	 width="256px" height="256px" viewBox="0 0 256 256" style="enable-background:new 0 0 256 256;" xml:space="preserve">
<style type="text/css">
	.st0{fill-rule:evenodd;clip-rule:evenodd;}
	.st1{fill-rule:evenodd;clip-rule:evenodd;fill:url(#SVGID_1_);filter:url(#Adobe_OpacityMaskFilter);}
	.st2{mask:url(#mask0_2043_38666_00000171688433943387016390000006480469871467986363_);}
	.st3{fill-rule:evenodd;clip-rule:evenodd;fill-opacity:0.3;}
	.st4{fill-rule:evenodd;clip-rule:evenodd;fill:url(#SVGID_00000076592819066302046780000002915316128943960471_);}
	.st5{display:none;fill:none;stroke:#0468FF;stroke-width:22.6942;}
	.st6{display:none;fill:none;stroke:#1F34AB;stroke-width:22.6942;}
	.st7{display:none;fill:none;stroke:#85AEFF;stroke-width:22.6942;}
</style>
<path class="st0" d="M104.4,42.4c-4.4-5.3-10.9-8.4-17.8-8.4H29c-6.6,0-12,5.4-12,12v12.1v10.1V160c0,6.6,5.4,12,12,12h200
	c6.6,0,12-5.4,12-12V70.1c0-6.6-5.4-12-12-12H117.4L104.4,42.4z"/>
<defs>
	<filter id="Adobe_OpacityMaskFilter" filterUnits="userSpaceOnUse" x="17" y="62" width="224" height="110">
		<feColorMatrix  type="matrix" values="1 0 0 0 0  0 1 0 0 0  0 0 1 0 0  0 0 0 1 0"/>
	</filter>
</defs>
<mask maskUnits="userSpaceOnUse" x="17" y="62" width="224" height="110" id="mask0_2043_38666_00000171688433943387016390000006480469871467986363_">
	
		<linearGradient id="SVGID_1_" gradientUnits="userSpaceOnUse" x1="32.5816" y1="239.5494" x2="213.3495" y2="58.4074" gradientTransform="matrix(1 0 0 -1 0 258)">
		<stop  offset="0" style="stop-color:#05815D"/>
		<stop  offset="1" style="stop-color:#0C575F"/>
	</linearGradient>
	<path class="st1" d="M104.4,42.4c-4.4-5.3-10.9-8.4-17.8-8.4H29c-6.6,0-12,5.4-12,12v12.1v10.1V160c0,6.6,5.4,12,12,12h200
		c6.6,0,12-5.4,12-12V70.1c0-6.6-5.4-12-12-12H117.4L104.4,42.4z"/>
</mask>
<g class="st2">
	<g>
		<path class="st3" d="M92.8,74c5,0,9.8-1.6,13.8-4.6l9.9-7.4H229c6.6,0,12,5.4,12,12v34v52c0,6.6-5.4,12-12,12H29
			c-6.6,0-12-5.4-12-12v-52V86c0-6.6,5.4-12,12-12h58H92.8z"/>
	</g>
</g>
<g>
	
		<linearGradient id="SVGID_00000036948859302873158670000016900105620274281350_" gradientUnits="userSpaceOnUse" x1="32.6479" y1="212.6349" x2="319.1479" y2="-56.8651" gradientTransform="matrix(1 0 0 -1 0 258)">
		<stop  offset="0" style="stop-color:#FAFAFA"/>
		<stop  offset="1" style="stop-color:#DFD8D8"/>
	</linearGradient>
	<path style="fill-rule:evenodd;clip-rule:evenodd;fill:url(#SVGID_00000036948859302873158670000016900105620274281350_);" d="
		M92.8,74c5,0,9.8-1.6,13.8-4.6l9.9-7.4H229c6.6,0,12,5.4,12,12v34v90c0,6.6-5.4,12-12,12H29c-6.6,0-12-5.4-12-12v-90V86
		c0-6.6,5.4-12,12-12h58H92.8z"/>
</g>
<path class="st5" d="M134.9,162.5c52.9,0,52.9-70.5,0-70.5"/>
<path class="st6" d="M134.9,109.6L82,180.1"/>
<path class="st7" d="M82,127.2l17.6,35.2"/>
<path d="M166.4,138.8h-63.8c-1,0-1.7,0.7-1.7,1.7c0,1,0.7,1.7,1.7,1.7h63.8c1,0,1.7-0.7,1.7-1.7
	C168.1,139.5,167.4,138.8,166.4,138.8z M166.4,152.3h-63.8c-1,0-1.7,0.7-1.7,1.7s0.7,1.7,1.7,1.7h63.8c1,0,1.7-0.7,1.7-1.7
	S167.4,152.3,166.4,152.3z M132.9,165.7h-30.2c-1,0-1.7,0.7-1.7,1.7c0,1,0.7,1.7,1.7,1.7h30.2c1,0,1.7-0.7,1.7-1.7
	C134.6,166.4,133.9,165.7,132.9,165.7z M143.3,165.7h6.4c1,0,1.7-0.7,1.7-1.7s-0.7-1.7-1.7-1.7h-6.4c-3,0-5.4,2.7-5.4,6v5
	c0,3.4,2.3,6,5.4,6h2.7c3.4,0,5.4-2,5.4-5s-2-5-5-5h-5v-1C141.3,166.7,142.3,165.7,143.3,165.7L143.3,165.7z M146.3,172.4
	c1.3,0,1.7,0.3,1.7,1.7c0,0.3,0,1.7-2,1.7h-2.7c-1,0-2-1-2-2.7v-0.7H146.3L146.3,172.4z M166.4,172.4h-1.7v-1.7c0-1-0.7-1.7-1.7-1.7
	s-1.7,0.7-1.7,1.7v1.7h-4l3.7-7.7c0.3-0.7,0-1.7-0.7-2.3c-0.7-0.3-1.7,0-2.3,0.7l-5,10.1c-0.3,0.7-0.3,1,0,1.7
	c0.3,0.3,1,0.7,1.3,0.7h6.7v1.7c0,1,0.7,1.7,1.7,1.7c1,0,1.7-0.7,1.7-1.7v-1.3h1.7c1,0,1.7-0.7,1.7-1.7S167.4,172.4,166.4,172.4z
	 M142.9,115.4h6.7c2.7,0,5-2.3,5-5V93.5c0-2.7-2.3-5-5-5h-6.7c-2.7,0-5,2.3-5,5v16.8C137.9,113,140.3,115.4,142.9,115.4z"/>
<path d="M184.6,90.5l-5-5c-0.3,0-1-0.3-1.3-0.3h-13.4v28.5c0,2.7-2.3,5-5,5h-40.3c-2.7,0-5-2.3-5-5V85.1H90.9c-0.3,0-1,0.3-1.3,0.3
	l-5,5c0,0.3-0.3,1-0.3,1.3v87.3c0,0.3,0.3,1,0.3,1.3l5,5c0.3,0,1,0.3,1.3,0.3v-54.4c0-3.4,2.7-6,6-6h75.5c3.4,0,6,2.7,6,6v54.4
	c0.3,0,1-0.3,1.3-0.3l5-5V91.9C184.9,91.5,184.6,90.9,184.6,90.5z"/>
</svg>
