<?xml version="1.0" encoding="utf-8"?>
<!-- Generator: Adobe Illustrator 28.1.0, SVG Export Plug-In . SVG Version: 6.00 Build 0)  -->
<svg version="1.1" id="Layer_1" xmlns="http://www.w3.org/2000/svg" xmlns:xlink="http://www.w3.org/1999/xlink" x="0px" y="0px"
	 width="256px" height="256px" viewBox="0 0 256 256" style="enable-background:new 0 0 256 256;" xml:space="preserve">
<style type="text/css">
	.st0{fill-rule:evenodd;clip-rule:evenodd;fill:url(#SVGID_1_);}
	.st1{fill-rule:evenodd;clip-rule:evenodd;fill:#A6A1A1;}
	.st2{fill-rule:evenodd;clip-rule:evenodd;fill:url(#SVGID_00000093894892792437989610000013256991578143230395_);}
	.st3{fill-rule:evenodd;clip-rule:evenodd;fill:url(#SVGID_00000116231371322018574240000013901008427426965673_);}
	.st4{fill-rule:evenodd;clip-rule:evenodd;fill:url(#SVGID_00000140707018266882923750000014449942010536208815_);}
	.st5{display:none;}
	.st6{display:inline;fill:none;stroke:#FFFFFF;stroke-width:6;stroke-miterlimit:10;}
	.st7{display:inline;}
	.st8{fill:#FFFFFF;}
	.st9{fill:none;stroke:#FFFFFF;stroke-width:6;stroke-miterlimit:10;}
	.st10{display:inline;fill:#FFFFFF;}
	.st11{fill:#FEFEFE;}
</style>
<linearGradient id="SVGID_1_" gradientUnits="userSpaceOnUse" x1="17" y1="155" x2="241" y2="155" gradientTransform="matrix(1 0 0 -1 0 258)">
	<stop  offset="0" style="stop-color:#0878A1"/>
	<stop  offset="0.8" style="stop-color:#0F76B3"/>
	<stop  offset="1" style="stop-color:#1175B8"/>
</linearGradient>
<path class="st0" d="M104.4,42.4c-4.4-5.3-10.9-8.4-17.8-8.4H29c-6.6,0-12,5.4-12,12v114c0,6.6,5.4,12,12,12h200c6.6,0,12-5.4,12-12
	V70.1c0-6.6-5.4-12-12-12H117.4L104.4,42.4L104.4,42.4z"/>
<g>
	<path class="st1" d="M92.8,74c5,0,9.8-1.6,13.8-4.6l9.9-7.4H229c6.6,0,12,5.4,12,12v86c0,6.6-5.4,12-12,12H29c-6.6,0-12-5.4-12-12
		V86c0-6.6,5.4-12,12-12H92.8z"/>
</g>
<linearGradient id="SVGID_00000078753939791553544160000000737573878495564212_" gradientUnits="userSpaceOnUse" x1="17" y1="572" x2="241" y2="720" gradientTransform="matrix(1 0 0 1 0 -510)">
	<stop  offset="0" style="stop-color:#0882C8"/>
	<stop  offset="1" style="stop-color:#26B6DB"/>
</linearGradient>
<path style="fill-rule:evenodd;clip-rule:evenodd;fill:url(#SVGID_00000078753939791553544160000000737573878495564212_);" d="
	M92.8,74c5,0,9.8-1.6,13.8-4.6l9.9-7.4H229c6.6,0,12,5.4,12,12v124c0,6.6-5.4,12-12,12H29c-6.6,0-12-5.4-12-12V86
	c0-6.6,5.4-12,12-12H92.8z"/>
<linearGradient id="SVGID_00000055704052056090267460000011408878861644924818_" gradientUnits="userSpaceOnUse" x1="16.9254" y1="710.6826" x2="240.9429" y2="713.1827" gradientTransform="matrix(1 0 0 1 0 -510)">
	<stop  offset="0" style="stop-color:#0878A1"/>
	<stop  offset="0.8" style="stop-color:#0F76B3"/>
	<stop  offset="1" style="stop-color:#1175B8"/>
</linearGradient>
<path style="fill-rule:evenodd;clip-rule:evenodd;fill:url(#SVGID_00000055704052056090267460000011408878861644924818_);" d="
	M17,194v4c0,6.6,5.4,12,12,12h200c6.6,0,12-5.4,12-12v-4c0,6.6-5.4,12-12,12H29C22.4,206,17,200.6,17,194z"/>
<linearGradient id="SVGID_00000025423892116049993810000016655811804985359012_" gradientUnits="userSpaceOnUse" x1="17" y1="586" x2="241" y2="586" gradientTransform="matrix(1 0 0 1 0 -510)">
	<stop  offset="0" style="stop-color:#82DCFF"/>
	<stop  offset="1" style="stop-color:#70E7FF"/>
</linearGradient>
<path style="fill-rule:evenodd;clip-rule:evenodd;fill:url(#SVGID_00000025423892116049993810000016655811804985359012_);" d="
	M106.6,69.4c-4,3-8.8,4.6-13.8,4.6H29c-6.6,0-12,5.4-12,12v4c0-6.6,5.4-12,12-12h63.8c5,0,9.8-1.6,13.8-4.6l9.9-7.4H229
	c6.6,0,12,5.4,12,12v-4c0-6.6-5.4-12-12-12H116.5L106.6,69.4z"/>
<g class="st5">
	<circle class="st6" cx="130.6" cy="137.7" r="43.7"/>
	<g class="st7">
		<path class="st8" d="M166.6,127c4.7,1.6,9.8-0.9,11.4-5.6c1.6-4.7-0.9-9.8-5.6-11.4s-9.8,0.9-11.4,5.6
			C159.4,120.3,161.9,125.4,166.6,127z"/>
		<line class="st9" x1="169.5" y1="118.6" x2="139.4" y2="143.6"/>
	</g>
	<g class="st7">
		<path class="st8" d="M149.5,170.2c-0.4,4.9,3.2,9.3,8.2,9.8c5,0.4,9.3-3.2,9.8-8.2c0.4-4.9-3.2-9.3-8.2-9.8
			C154.3,161.6,149.9,165.2,149.5,170.2z"/>
		<line class="st9" x1="158.4" y1="171" x2="139.4" y2="143.6"/>
	</g>
	<path class="st10" d="M131.9,148.5c2.7,4.2,8.3,5.4,12.4,2.7c4.2-2.7,5.4-8.3,2.7-12.4c-2.7-4.2-8.3-5.4-12.4-2.7
		C130.4,138.7,129.2,144.3,131.9,148.5z"/>
	<g class="st7">
		<path class="st8" d="M93.1,140.6c-4.3-2.5-9.8-1.1-12.3,3.1c-2.5,4.3-1.1,9.8,3.1,12.3c4.3,2.5,9.8,1.1,12.3-3.1
			C98.7,148.7,97.3,143.2,93.1,140.6z"/>
		<line class="st9" x1="88.5" y1="148.3" x2="139.4" y2="143.6"/>
	</g>
</g>
<path class="st11" d="M129.2,120.4c-3.1,12.9-6,24.8-8.9,36.6c-0.3,1.2-0.3,2.7-1,3.6c-1.2,1.5-2.8,3.7-4.2,3.6
	c-1.4-0.1-3.4-2.4-3.8-4c-1.7-8.1-2.9-16.3-4.3-24.5c-0.3-1.7-0.6-3.4-1.1-6.1c-0.7,1.6-1.1,2.3-1.4,3.1c-2.8,7.8-2.8,7.8-11.2,7.8
	c-1.2,0-2.5,0-3.7,0c-7.2,0-7.2,0-6.2-8.1c3.2,0,6.4-0.1,9.7,0c2.3,0.1,3.5-0.7,4.2-3c1.7-5.7,3.7-11.3,5.6-16.9
	c0.8-2.4,1.9-4.9,4.7-4c1.6,0.5,3.4,2.8,3.7,4.5c1.6,7.8,2.8,15.7,4.7,23.8c0.9-3,1.9-6,2.6-9c2.8-11.4,5.5-22.8,8.2-34.2
	c0.6-2.7,1.1-6,4.8-5.6c3.5,0.3,3.8,3.6,4.1,6.3c1.3,13.2,2.4,26.4,3.6,39.6c0.5,5.7,1.1,11.4,2.5,17.2c1.4-5.8,2.9-11.7,4.3-17.5
	c1.7-6.8,3.1-13.7,5.1-20.5c0.6-1.9,2.8-3.2,4.2-4.8c1.5,1.4,3.6,2.6,4.3,4.3c2.1,5.2,3.8,10.7,5.4,16.1c0.8,3,2.4,3.9,5.3,3.7
	c3-0.2,6-0.1,9.2-0.1c0,2.7,0,5,0,7.7c-5.7,0-11.2,0.2-16.7-0.1c-1.2-0.1-2.8-1.7-3.4-3c-1.3-2.6-2-5.4-3.7-8.2
	c-0.6,2.4-1.2,4.9-1.8,7.3c-3.5,14.5-7,29-10.4,43.5c-0.6,2.6-1.4,5.2-4.5,5c-3.2-0.2-3.8-2.9-4-5.8c-1.6-18.6-3.4-37.1-5.1-55.6
	C130.1,122.6,129.8,122,129.2,120.4z"/>
</svg>
