<?xml version="1.0" encoding="utf-8"?>
<!-- Generator: Adobe Illustrator 28.1.0, SVG Export Plug-In . SVG Version: 6.00 Build 0)  -->
<svg version="1.1" id="图层_1" xmlns="http://www.w3.org/2000/svg" xmlns:xlink="http://www.w3.org/1999/xlink" x="0px" y="0px"
	 width="256px" height="256px" viewBox="0 0 256 256" style="enable-background:new 0 0 256 256;" xml:space="preserve">
<style type="text/css">
	.st0{fill-rule:evenodd;clip-rule:evenodd;fill:#2D2C2B;}
	.st1{fill-rule:evenodd;clip-rule:evenodd;fill:url(#SVGID_1_);filter:url(#Adobe_OpacityMaskFilter);}
	.st2{mask:url(#mask0_539_13285_00000143590521154695313220000009408309627074866840_);}
	.st3{fill-rule:evenodd;clip-rule:evenodd;fill-opacity:0.3;}
	.st4{fill-rule:evenodd;clip-rule:evenodd;fill:url(#SVGID_00000118374592300385614220000001000383754866104967_);}
	.st5{fill:#2C2B2C;}
</style>
<path class="st0" d="M104.4,42.4c-4.4-5.3-10.9-8.4-17.8-8.4H29c-6.6,0-12,5.4-12,12v12.1v10.1V160c0,6.6,5.4,12,12,12h200
	c6.6,0,12-5.4,12-12V70.1c0-6.6-5.4-12-12-12H117.4L104.4,42.4z"/>
<defs>
	<filter id="Adobe_OpacityMaskFilter" filterUnits="userSpaceOnUse" x="17" y="62" width="224" height="110">
		<feColorMatrix  type="matrix" values="1 0 0 0 0  0 1 0 0 0  0 0 1 0 0  0 0 0 1 0"/>
	</filter>
</defs>
<mask maskUnits="userSpaceOnUse" x="17" y="62" width="224" height="110" id="mask0_539_13285_00000143590521154695313220000009408309627074866840_">
	
		<linearGradient id="SVGID_1_" gradientUnits="userSpaceOnUse" x1="32.5816" y1="239.5494" x2="213.3495" y2="58.4074" gradientTransform="matrix(1 0 0 -1 0 258)">
		<stop  offset="0" style="stop-color:#05815D"/>
		<stop  offset="1" style="stop-color:#0C575F"/>
	</linearGradient>
	<path class="st1" d="M104.4,42.4c-4.4-5.3-10.9-8.4-17.8-8.4H29c-6.6,0-12,5.4-12,12v12.1v10.1V160c0,6.6,5.4,12,12,12h200
		c6.6,0,12-5.4,12-12V70.1c0-6.6-5.4-12-12-12H117.4L104.4,42.4z"/>
</mask>
<g class="st2">
	<g>
		<path class="st3" d="M92.8,74c5,0,9.8-1.6,13.8-4.6l9.9-7.4H229c6.6,0,12,5.4,12,12v34v52c0,6.6-5.4,12-12,12H29
			c-6.6,0-12-5.4-12-12v-52V86c0-6.6,5.4-12,12-12h58H92.8z"/>
	</g>
</g>
<g>
	
		<linearGradient id="SVGID_00000039100450620703326980000014736619242262992560_" gradientUnits="userSpaceOnUse" x1="17" y1="196" x2="241" y2="48" gradientTransform="matrix(1 0 0 -1 0 258)">
		<stop  offset="0" style="stop-color:#FFD70D"/>
		<stop  offset="1" style="stop-color:#DA6F0D"/>
	</linearGradient>
	<path style="fill-rule:evenodd;clip-rule:evenodd;fill:url(#SVGID_00000039100450620703326980000014736619242262992560_);" d="
		M92.8,74c5,0,9.8-1.6,13.8-4.6l9.9-7.4H229c6.6,0,12,5.4,12,12v34v90c0,6.6-5.4,12-12,12H29c-6.6,0-12-5.4-12-12v-90V86
		c0-6.6,5.4-12,12-12h58H92.8z"/>
</g>
<path class="st5" d="M175,100.8H90.7c-3.7,0-6.7,3-6.7,6.7v55.6c0,3.7,3,6.7,6.7,6.7H175c3.7,0,6.7-3,6.7-6.7v-55.6
	C181.7,103.8,178.7,100.8,175,100.8L175,100.8z M176,163.1c0,0.5-0.4,1-1,1H90.7c-0.5,0-1-0.4-1-1v-55.6c0-0.5,0.4-1,1-1H175
	c0.5,0,1,0.4,1,1V163.1z M155.8,175.8h-45.9c-1.6,0-2.9,1.3-2.9,2.9s1.3,2.9,2.9,2.9h46c1.6,0,2.9-1.3,2.9-2.9
	S157.4,175.8,155.8,175.8L155.8,175.8z M146.6,133.3l-19.2-11.5c-0.9-0.5-2-0.5-2.9,0c-0.9,0.5-1.5,1.5-1.5,2.5v23
	c0,1,0.6,2,1.5,2.5c0.4,0.3,0.9,0.4,1.4,0.4c0.5,0,1-0.1,1.5-0.4l19.2-11.5c0.9-0.5,1.4-1.5,1.4-2.5
	C148,134.7,147.5,133.8,146.6,133.3z"/>
</svg>
