<?xml version="1.0" encoding="utf-8"?>
<!-- Generator: Adobe Illustrator 28.1.0, SVG Export Plug-In . SVG Version: 6.00 Build 0)  -->
<svg version="1.1" id="图层_1" xmlns="http://www.w3.org/2000/svg" xmlns:xlink="http://www.w3.org/1999/xlink" x="0px" y="0px"
	 width="256px" height="256px" viewBox="0 0 256 256" style="enable-background:new 0 0 256 256;" xml:space="preserve">
<style type="text/css">
	.st0{clip-path:url(#SVGID_00000049190729154931531770000006942128939919431609_);}
	.st1{fill-rule:evenodd;clip-rule:evenodd;fill:#E6E6E6;}
	
		.st2{fill-rule:evenodd;clip-rule:evenodd;fill:url(#SVGID_00000165214570967906594460000016217735118119747763_);filter:url(#Adobe_OpacityMaskFilter);}
	.st3{mask:url(#mask0_2043_35827_00000013905074457252423590000009929998853107978429_);}
	.st4{fill-rule:evenodd;clip-rule:evenodd;fill-opacity:0.3;}
	.st5{fill-rule:evenodd;clip-rule:evenodd;fill:#403259;}
	.st6{display:none;fill:#2B90D9;}
	.st7{display:none;fill:#FFFFFF;}
	.st8{fill:#403259;}
	.st9{fill:#FFFFFF;}
</style>
<g>
	<defs>
		<rect id="SVGID_1_" width="256" height="256"/>
	</defs>
	<clipPath id="SVGID_00000099663803807717283330000003304765872740127130_">
		<use xlink:href="#SVGID_1_"  style="overflow:visible;"/>
	</clipPath>
	<g style="clip-path:url(#SVGID_00000099663803807717283330000003304765872740127130_);">
		<path class="st1" d="M104.4,42.4c-4.4-5.3-10.9-8.4-17.8-8.4H29c-6.6,0-12,5.4-12,12v12.1v10.1V160c0,6.6,5.4,12,12,12h200
			c6.6,0,12-5.4,12-12V70.1c0-6.6-5.4-12-12-12H117.4L104.4,42.4z"/>
		<defs>
			<filter id="Adobe_OpacityMaskFilter" filterUnits="userSpaceOnUse" x="17" y="62" width="224" height="110">
				<feColorMatrix  type="matrix" values="1 0 0 0 0  0 1 0 0 0  0 0 1 0 0  0 0 0 1 0"/>
			</filter>
		</defs>
		
			<mask maskUnits="userSpaceOnUse" x="17" y="62" width="224" height="110" id="mask0_2043_35827_00000013905074457252423590000009929998853107978429_">
			
				<linearGradient id="SVGID_00000159445997203410409890000018385866311861548688_" gradientUnits="userSpaceOnUse" x1="32.5816" y1="239.5494" x2="213.3495" y2="58.4074" gradientTransform="matrix(1 0 0 -1 0 258)">
				<stop  offset="0" style="stop-color:#05815D"/>
				<stop  offset="1" style="stop-color:#0C575F"/>
			</linearGradient>
			
				<path style="fill-rule:evenodd;clip-rule:evenodd;fill:url(#SVGID_00000159445997203410409890000018385866311861548688_);filter:url(#Adobe_OpacityMaskFilter);" d="
				M104.4,42.4c-4.4-5.3-10.9-8.4-17.8-8.4H29c-6.6,0-12,5.4-12,12v12.1v10.1V160c0,6.6,5.4,12,12,12h200c6.6,0,12-5.4,12-12V70.1
				c0-6.6-5.4-12-12-12H117.4L104.4,42.4z"/>
		</mask>
		<g class="st3">
			<g>
				<path class="st4" d="M92.8,74c5,0,9.8-1.6,13.8-4.6l9.9-7.4H229c6.6,0,12,5.4,12,12v34v52c0,6.6-5.4,12-12,12H29
					c-6.6,0-12-5.4-12-12v-52V86c0-6.6,5.4-12,12-12h58H92.8z"/>
			</g>
		</g>
		<g>
			<path class="st5" d="M92.8,74c5,0,9.8-1.6,13.8-4.6l9.9-7.4H229c6.6,0,12,5.4,12,12v34v90c0,6.6-5.4,12-12,12H29
				c-6.6,0-12-5.4-12-12v-90V86c0-6.6,5.4-12,12-12h58H92.8z"/>
		</g>
		<path class="st6" d="M179.4,151.4c-1.6,7.9-14,16.6-28.4,18.3c-7.5,0.9-14.8,1.7-22.7,1.3c-12.8-0.6-23-3-23-3
			c0,1.2,0.1,2.4,0.2,3.5c1.7,12.5,12.6,13.2,22.9,13.5c10.4,0.4,19.7-2.5,19.7-2.5l0.4,9.3c0,0-7.3,3.8-20.2,4.6
			c-7.2,0.4-16-0.2-26.4-2.9c-22.4-5.8-26.3-29.4-26.9-53.2c-0.2-7.1-0.1-13.8-0.1-19.4c0-24.4,16.3-31.5,16.3-31.5
			c8.2-3.7,22.3-5.3,36.9-5.4h0.4c14.6,0.1,28.7,1.7,36.9,5.4c0,0,16.3,7.2,16.3,31.5C181.7,120.9,181.9,138.9,179.4,151.4z"/>
		<path class="st7" d="M162.5,122.8v29.5h-11.9v-28.7c0-6-2.6-9.1-7.8-9.1c-5.7,0-8.6,3.6-8.6,10.8v15.7h-11.8v-15.7
			c0-7.2-2.9-10.8-8.6-10.8c-5.2,0-7.8,3.1-7.8,9.1v28.7H94.2v-29.5c0-6,1.6-10.8,4.7-14.4c3.2-3.5,7.5-5.4,12.7-5.4
			c6.1,0,10.7,2.3,13.8,6.9l3,4.9l3-4.9c3-4.6,7.7-6.9,13.8-6.9c5.3,0,9.5,1.8,12.7,5.4C160.9,112,162.5,116.8,162.5,122.8z"/>
	</g>
</g>
<path class="st8" d="M170.8,84.9H81.4v98.3h98.3V92.1C179.7,88,178.4,84.9,170.8,84.9z"/>
<path class="st9" d="M108.5,163.9c0.6,0.5,1.3,1,1.9,1.5c7.3-3.9,17.4-12.7,27-24.3c4.4-5.2,8.3-10.7,11.9-16.4c1.1-1.7,2-3.5,3-5.2
	c4.9-9.2,6.6-16.4,3.7-18.7c-3.5-2.9-12.6,2.2-23.2,11.9c6-5.2,10.9-7.6,12.7-6.2c1.3,1.1,0.7,4.1-1.2,8.3c-0.6,1.3-1.3,2.6-2,3.9
	l0,0c-2.9,5.2-7.4,11.6-12.8,18.2c-0.8,1-1.6,1.9-2.4,2.8c6.3-8.8,11-16.9,12.9-22.4c-13.7-7.5-30.9-2.4-38.4,11.3
	C95.2,140.5,98,155.3,108.5,163.9z"/>
<path class="st9" d="M117.5,177.1c9.2-5.3,16.6-11.6,26.4-21.8c-4,5.4-8.3,10.6-12.9,15.4c14.3-2.1,24.7-14.6,24.1-29
	c11.6-15.8,18.5-31.8,18.5-40.3c-0.1-3.2-1.5-5.5-7.6-5.5H161c3.5,3.9,1,14-5.7,26.1c-1.3,2.3-2.6,4.5-4,6.7
	c-3.1,4.8-6.5,9.5-10.1,13.9c-7.4,9.1-15.2,16.6-22.2,21.8c-7.3,5.7-15.2,10.6-23.5,14.6h18.8C115.5,178.3,116.6,177.6,117.5,177.1z
	"/>
</svg>
