<?xml version="1.0" encoding="utf-8"?>
<!-- Generator: Adobe Illustrator 28.1.0, SVG Export Plug-In . SVG Version: 6.00 Build 0)  -->
<svg version="1.1" id="图层_1" xmlns="http://www.w3.org/2000/svg" xmlns:xlink="http://www.w3.org/1999/xlink" x="0px" y="0px"
	 width="256px" height="256px" viewBox="0 0 256 256" style="enable-background:new 0 0 256 256;" xml:space="preserve">
<style type="text/css">
	.st0{fill-rule:evenodd;clip-rule:evenodd;fill:#579032;}
	.st1{fill-rule:evenodd;clip-rule:evenodd;fill:url(#SVGID_1_);filter:url(#Adobe_OpacityMaskFilter);}
	.st2{mask:url(#mask0_571_14348_00000070827392518076229480000008701063759474844813_);}
	.st3{fill-rule:evenodd;clip-rule:evenodd;fill-opacity:0.3;}
	.st4{fill-rule:evenodd;clip-rule:evenodd;fill:url(#SVGID_00000173883828227502698180000009622128374287648906_);}
	.st5{display:none;fill:#6DB33F;}
	.st6{display:none;fill:#FFFFFF;}
	.st7{fill:#B4B4B4;}
	.st8{fill:#F0F0F0;}
	.st9{fill:#E1E1E1;}
	.st10{fill:#101011;}
	.st11{fill:#0F0F10;}
	.st12{fill:#DCDCDC;}
	.st13{fill:#579032;}
</style>
<path class="st0" d="M104.4,42.4c-4.4-5.3-10.9-8.4-17.8-8.4H29c-6.6,0-12,5.4-12,12v12.1v10.1V160c0,6.6,5.4,12,12,12h200
	c6.6,0,12-5.4,12-12V70.1c0-6.6-5.4-12-12-12H117.4L104.4,42.4z"/>
<defs>
	<filter id="Adobe_OpacityMaskFilter" filterUnits="userSpaceOnUse" x="17" y="62" width="224" height="110">
		<feColorMatrix  type="matrix" values="1 0 0 0 0  0 1 0 0 0  0 0 1 0 0  0 0 0 1 0"/>
	</filter>
</defs>
<mask maskUnits="userSpaceOnUse" x="17" y="62" width="224" height="110" id="mask0_571_14348_00000070827392518076229480000008701063759474844813_">
	
		<linearGradient id="SVGID_1_" gradientUnits="userSpaceOnUse" x1="32.5816" y1="239.5494" x2="213.3495" y2="58.4074" gradientTransform="matrix(1 0 0 -1 0 258)">
		<stop  offset="0" style="stop-color:#05815D"/>
		<stop  offset="1" style="stop-color:#0C575F"/>
	</linearGradient>
	<path class="st1" d="M104.4,42.4c-4.4-5.3-10.9-8.4-17.8-8.4H29c-6.6,0-12,5.4-12,12v12.1v10.1V160c0,6.6,5.4,12,12,12h200
		c6.6,0,12-5.4,12-12V70.1c0-6.6-5.4-12-12-12H117.4L104.4,42.4z"/>
</mask>
<g class="st2">
	<g>
		<path class="st3" d="M92.8,74c5,0,9.8-1.6,13.8-4.6l9.9-7.4H229c6.6,0,12,5.4,12,12v34v52c0,6.6-5.4,12-12,12H29
			c-6.6,0-12-5.4-12-12v-52V86c0-6.6,5.4-12,12-12h58H92.8z"/>
	</g>
</g>
<g>
	
		<linearGradient id="SVGID_00000170267844273139142140000011708033519988844469_" gradientUnits="userSpaceOnUse" x1="10.5666" y1="191.5206" x2="249.0666" y2="51.5206" gradientTransform="matrix(1 0 0 -1 0 258)">
		<stop  offset="0" style="stop-color:#2D3D2B"/>
		<stop  offset="1" style="stop-color:#262A2D"/>
	</linearGradient>
	<path style="fill-rule:evenodd;clip-rule:evenodd;fill:url(#SVGID_00000170267844273139142140000011708033519988844469_);" d="
		M92.8,74c5,0,9.8-1.6,13.8-4.6l9.9-7.4H229c6.6,0,12,5.4,12,12v34v90c0,6.6-5.4,12-12,12H29c-6.6,0-12-5.4-12-12v-90V86
		c0-6.6,5.4-12,12-12h58H92.8z"/>
</g>
<path class="st5" d="M80,115.7c-0.6,1.5-1.5,3-2.5,4.3c-8.8-9.2-23.4-9.4-32.5-0.6c-9.1,8.8-9.4,23.4-0.6,32.5
	c0.3,0.3,0.6,0.6,0.9,0.9l0.9,0.8c9.7,8.2,24.2,6.9,32.3-2.8c3.1-3.7,5-8.3,5.4-13.2C84.6,131.9,82.9,124.5,80,115.7z M48.7,153.1
	c-0.7,0.9-1.9,0.9-2.8,0.3c-0.9-0.7-0.9-1.9-0.3-2.8c0.7-0.9,1.9-0.9,2.8-0.3C49.2,151,49.4,152.2,48.7,153.1z M79.8,146.2
	c-5.6,7.5-17.8,5-25.5,5.4c0,0-1.4,0.1-2.8,0.3c0,0,0.5-0.2,1.2-0.5c5.5-1.9,8-2.3,11.3-4c6.2-3.2,12.4-10.1,13.7-17.4
	c-2.4,6.9-9.6,12.9-16.1,15.3c-4.5,1.7-12.6,3.3-12.6,3.3l-0.3-0.2c-5.5-2.7-5.7-14.7,4.4-18.5c4.4-1.7,8.6-0.8,13.4-1.9
	c5.1-1.2,11-5,13.3-10C82.4,126.1,85.6,138.5,79.8,146.2z"/>
<path class="st5" d="M97,145.1c-0.6-0.4-1-1-0.9-1.8c0-1.1,0.9-2.1,2-2.1c0,0,0,0,0,0c0.4,0,0.8,0.1,1.1,0.3c1.9,1.3,4.1,2,6.4,2.1
	c2.2,0,3.5-0.9,3.5-2.4v-0.1c0-1.8-2.4-2.3-5-3.1c-3.3-0.9-7-2.3-7-6.5v-0.1c0-4.2,3.5-6.8,7.9-6.8c2.5,0,4.8,0.7,7,1.8
	c0.8,0.4,1.2,1.1,1.2,1.9c0,1.1-0.9,2.1-2.1,2.1h0c-0.3,0-0.7-0.1-1-0.2c-1.6-0.9-3.4-1.4-5.2-1.5c-2,0-3.1,0.9-3.1,2.2v0.1
	c0,1.7,2.4,2.3,5,3.2c3.3,1,6.9,2.5,6.9,6.5v0.1c0,4.7-3.7,7-8.3,7C102.5,147.7,99.5,146.8,97,145.1z"/>
<path class="st5" d="M115.7,127.2c0-1.4,1.1-2.5,2.5-2.6h0c1.4,0,2.6,1.1,2.6,2.6v1.5c1.7-2.3,4-4.2,7.6-4.2
	c5.2,0,10.3,4.1,10.3,11.6v0.1c0,7.4-5.1,11.6-10.3,11.6c-3.7,0-6-1.8-7.6-3.9v7.9c0,1.4-1.1,2.6-2.6,2.6c-1.4,0-2.5-1.1-2.5-2.5v0
	V127.2L115.7,127.2z M133.5,136.2L133.5,136.2c0-4.4-2.9-7.2-6.4-7.2c-3.5,0-6.5,2.9-6.5,7.1v0.1c0,4.3,3,7.1,6.5,7.1
	C130.7,143.3,133.5,140.6,133.5,136.2z"/>
<path class="st5" d="M140.7,127.2c0-1.4,1.1-2.5,2.5-2.6h0c1.4,0,2.6,1.1,2.6,2.6v1.2c0.2-1.9,3.4-3.8,5.6-3.8
	c1.3-0.1,2.4,0.9,2.5,2.1c0,0.1,0,0.2,0,0.4c0,1.2-0.9,2.3-2,2.5c-3.7,0.6-6.1,3.8-6.1,8.2v7.4c0,1.4-1.1,2.5-2.6,2.5
	c-1.4,0-2.5-1.1-2.5-2.5c0,0,0,0,0,0L140.7,127.2z"/>
<path class="st5" d="M155.9,127.2c0-1.4,1.1-2.5,2.5-2.6h0c1.4,0,2.6,1.1,2.6,2.6v18c0,1.4-1.1,2.5-2.6,2.5c-1.4,0-2.5-1.1-2.5-2.5
	V127.2z"/>
<path class="st5" d="M163.6,127.2c0-1.4,1.1-2.5,2.5-2.6h0c1.4,0,2.6,1.1,2.6,2.6v1c1.5-2.4,4.2-3.7,7-3.7c5,0,7.9,3.4,7.9,8.5v12
	c0,1.4-1,2.5-2.4,2.5c0,0,0,0-0.1,0c-1.4,0-2.5-1.1-2.6-2.5v0v-10.4c0-3.5-1.7-5.5-4.8-5.5c-2.9,0-5,2.1-5,5.5v10.4
	c0,1.4-1.1,2.6-2.6,2.6c-1.4,0-2.6-1.1-2.6-2.6L163.6,127.2z"/>
<path class="st5" d="M206,124.6c-1.4,0-2.6,1.1-2.6,2.6v1.5c-1.7-2.3-4-4.2-7.6-4.2c-5.2,0-10.3,4.1-10.3,11.6v0.1
	c0,7.4,5.1,11.6,10.3,11.6c3.7,0,6-1.8,7.6-3.9c-0.2,4-2.7,6.1-7,6.1c-2.4,0-4.7-0.6-6.8-1.8c-0.3-0.1-0.6-0.2-0.9-0.2
	c-1.2,0-2.1,0.9-2.2,2.1c0,0.9,0.6,1.8,1.4,2c2.7,1.3,5.6,2,8.6,2c4,0,7.2-0.9,9.2-3c1.8-1.8,2.8-4.6,2.8-8.4v-15.6
	C208.6,125.8,207.5,124.6,206,124.6L206,124.6z M197,143.3c-3.5,0-6.4-2.8-6.4-7.2v-0.1c0-4.3,2.9-7.1,6.4-7.1s6.5,2.9,6.5,7.1v0.1
	C203.6,140.4,200.5,143.3,197,143.3z"/>
<path class="st5" d="M161,118.5c0,1.4-1.1,2.6-2.6,2.6c-1.4,0-2.6-1.1-2.6-2.6c0-1.4,1.1-2.6,2.6-2.6C159.8,115.9,161,117,161,118.5
	C161,118.5,161,118.5,161,118.5z"/>
<path class="st5" d="M214.4,129.9c-1.4,0-2.6-1.2-2.6-2.6c0-1.4,1.2-2.6,2.6-2.6c1.4,0,2.6,1.2,2.6,2.6
	C217,128.8,215.8,129.9,214.4,129.9z M214.4,125.1c-1.2,0-2.2,1-2.2,2.2s1,2.2,2.2,2.2s2.2-1,2.2-2.2S215.7,125.1,214.4,125.1
	L214.4,125.1z M215.1,128.8l-0.8-1.2h-0.5v1.2h-0.4v-3h1.2c0.5,0,0.9,0.4,1,0.9c0,0.4-0.3,0.8-0.8,0.9l0.8,1.2H215.1z M214.6,126.2
	h-0.8v1h0.8c0.3,0,0.5-0.2,0.5-0.5C215.2,126.4,214.9,126.2,214.6,126.2z"/>
<path class="st5" d="M78.6,150.9c3.1-3.7,5-8.3,5.4-13.2L78.6,150.9z"/>
<path class="st6" d="M79.8,146.2c-5.6,7.5-17.8,5-25.5,5.4c0,0-1.4,0.1-2.8,0.3c0,0,0.5-0.2,1.2-0.5c5.5-1.9,8-2.3,11.3-4
	c6.2-3.2,12.4-10.1,13.7-17.4c-2.4,6.9-9.6,12.9-16.1,15.3c-4.5,1.7-12.6,3.3-12.6,3.3l-0.3-0.2c-5.5-2.7-5.7-14.7,4.4-18.5
	c4.4-1.7,8.6-0.8,13.4-1.9c5.1-1.2,11-5,13.3-10C82.4,126.1,85.6,138.5,79.8,146.2z"/>
<path class="st6" d="M48.7,153.1c-0.7,0.9-1.9,0.9-2.8,0.3c-0.9-0.7-0.9-1.9-0.3-2.8c0.7-0.9,1.9-0.9,2.8-0.3
	C49.2,151,49.4,152.2,48.7,153.1z"/>
<path class="st7" d="M161.9,127.3c-2.4,3.6-4.7,7.2-7.1,10.8c-0.3,0.5-0.3,0.8,0,1.3c2.1,3.2,4.2,6.4,6.3,9.6
	c0.1,0.2,0.2,0.4,0.3,0.6c-0.8,0.6-1.6,1.2-2.4,1.8c-0.4-0.2-0.7-0.3-1.3-0.6c0.3,0.6,0.5,1,0.8,1.3c-0.5,0.9-1,1.8-1.1,2.9
	c-0.5-0.3-1-0.5-1.5-0.8c-2.9-1.5-5.8-2.9-8.8-4.4c0.5-1.2,1.4-2.2,2-3.3c2.6,1.4,5.3,2.7,8,4c0.1,0,0.1,0,0.2,0c0,0,0-0.1-0.1-0.1
	c-1.7-2.6-3.4-5.2-5.1-7.8c-0.3-0.4-0.4-0.2-0.6,0c-0.8,1.2-1.7,2.5-2.5,3.7c-1.2-0.4-2.4-0.9-3.4-1.7c1.2-1.8,2.3-3.7,3.5-5.5
	c0.3-0.4,0.2-0.7,0-1.1c-1.3-2-2.6-4.1-4-6.1c0.9-0.6,1.9-1,2.8-1.5c0.4-0.2,0.6-0.4,0.2-0.8c-0.5-0.7-1-1.3-1.4-2.1
	c-0.3-0.6-0.7-0.6-1.3-0.3c-0.9,0.4-1.7,1.1-2.7,1.2c-0.6-0.9-1.2-1.7-1.8-2.6c-3.8-5.7-7.5-11.5-11.3-17.2c0.4-0.2,0.9-0.3,1.2-0.5
	c0.7-0.4,1.6-0.8,2.1-1.4c0.8-0.9,1.3-2,1.8-3.1c3.3,1.7,6.6,3.4,9.8,5.2c4.3,2.3,8.5,4.5,12.8,6.8c0.2,0.1,0.4,0.3,0.6,0.4
	c-0.5,1.2-1,2.3-1.3,3.5c-0.2-0.1-0.4-0.1-0.5-0.2c-2.9-1.5-5.8-3.1-8.7-4.6c-4.6-2.5-9.3-4.9-13.9-7.4c-0.1,0-0.1,0-0.2,0
	c0,0,0,0.1,0.1,0.1c0.5,0.8,1,1.5,1.4,2.3c3.6,5.5,7.3,11.1,10.9,16.6c0.2,0.3,0.3,0.6,0.8,0.4c3.4-1.7,6.9-3.5,10.3-5.2
	c0.1,0.7,0.3,1.3,0.6,1.9c0.2,0.6,0.8,1,0.8,1.7C160,125.8,160.8,126.9,161.9,127.3z M158.2,125.8c-3,1.4-5.9,2.9-8.9,4.4
	c-0.3,0.2-0.3,0.3-0.1,0.6c0.9,1.4,1.8,2.8,2.7,4.1c0.2,0.3,0.3,0.3,0.5,0c0.3-0.5,0.6-0.9,0.9-1.4
	C154.9,131,156.6,128.4,158.2,125.8C158.3,125.8,158.3,125.8,158.2,125.8C158.2,125.7,158.2,125.8,158.2,125.8z"/>
<path class="st7" d="M98,116.2c1.7-1.1,3.5-1.9,5.3-2.9c5.8-3.1,11.6-6.2,17.5-9.3c0.1-0.1,0.3-0.1,0.4-0.1c0.2,0.2,0.3,0.5,0.4,0.8
	c0.4,0.9,0.9,1.8,1.6,2.4c0.9,0.8,2,1.5,3.2,1.8c-3,4.6-6,9.2-9,13.8c-1.3,2-2.6,4.1-4,6.1c-0.3,0-0.5-0.1-0.7-0.2
	c-0.7-0.4-1.4-0.7-2.1-1.1c-0.5-0.3-0.8-0.2-1.1,0.3c-0.4,0.7-0.9,1.5-1.4,2.1c-0.3,0.4-0.2,0.6,0.2,0.8c1,0.5,2,0.9,2.8,1.5
	c-1.3,2-2.6,4-3.9,6c-0.3,0.4-0.3,0.7,0,1.2c1.2,1.8,2.3,3.6,3.5,5.4c-1,0.8-2.2,1.3-3.4,1.7c-0.8-1.2-1.6-2.4-2.4-3.6
	c-0.3-0.5-0.5-0.5-0.8,0c-1.6,2.5-3.2,4.9-4.8,7.4c-0.1,0.1-0.2,0.2-0.1,0.4c0.8-0.4,1.7-0.8,2.5-1.3c1.8-0.9,3.6-1.9,5.4-2.7
	c1,0.9,1.5,2,2.1,3.1c-0.6,0.3-1.3,0.7-1.9,1c-2.7,1.4-5.5,2.7-8.2,4.1c-0.3-1-0.7-1.9-1.1-2.8c0,0,0.1-0.1,0.1-0.1
	c0.2-0.3,0.7-0.8,0.5-1c-0.3-0.3-0.7,0.2-1.1,0.4c-0.8-0.6-1.6-1.2-2.4-1.8c1.3-2,2.5-4,3.8-5.9c0.9-1.4,1.9-2.9,2.8-4.3
	c0.3-0.4,0.3-0.7,0-1.2c-2.4-3.6-4.7-7.2-7.1-10.9c0.9-0.5,1.8-1,2.5-1.8c0.2-0.2,0.4-0.2,0.7-0.2c0,0,0,0,0,0.1c0,0,0,0,0,0
	c0,0,0,0-0.1-0.1c-0.1-0.3-0.1-0.6,0.1-0.9c0.6-0.8,0.9-1.8,1.1-2.8c3.4,1.7,6.9,3.4,10.3,5.2c0.5,0.2,0.6,0,0.8-0.3
	c4-6.2,8.1-12.4,12.1-18.6c0.1-0.1,0.3-0.3,0.1-0.5c-0.2,0.1-0.5,0.2-0.7,0.4c-5.2,2.8-10.4,5.6-15.7,8.3c-2.3,1.2-4.5,2.4-6.8,3.5
	C99,118.5,98.5,117.3,98,116.2z M98.5,125.8C98.4,125.8,98.4,125.7,98.5,125.8C98.3,125.8,98.3,125.8,98.5,125.8
	c1.8,3.1,3.8,6,5.7,9c0.3,0.4,0.4,0.3,0.6-0.1c0.6-1,1.3-2,2-3c0.9-1.4,0.9-1.4-0.6-2.2C103.6,128.3,101,127.1,98.5,125.8z"/>
<path class="st8" d="M97.8,125.4c-0.2,0-0.5-0.1-0.7,0.2c-0.7,0.8-1.6,1.3-2.5,1.8c-1.5,0.5-3.1,0.7-4.7,0.3
	c-3.1-0.8-5.4-3.4-5.7-6.8c-0.3-3,1.7-6,4.6-7.3c2.9-1.2,6.3-0.4,8.4,2c0.2,0.2,0.2,0.6,0.6,0.6c0.5,1.1,1,2.3,1.3,3.5
	c-0.2,0.1-0.2,0.3-0.2,0.5c0,0.5,0,1,0,1.5c-0.2,1-0.5,1.9-1.1,2.8C97.7,124.8,97.8,125.1,97.8,125.4L97.8,125.4z M91.7,123.2
	c1.6,0,2.8-1.2,2.8-2.7c0-1.5-1.2-2.7-2.7-2.7c-1.5,0-2.8,1.3-2.8,2.8C89,122,90.2,123.2,91.7,123.2z"/>
<path class="st8" d="M157.4,119.7c0.3-1.2,0.8-2.4,1.3-3.5c0.3-0.1,0.4-0.3,0.6-0.6c2.4-2.8,6.6-3.4,9.7-1.4
	c3.1,2.1,4.2,6.1,2.6,9.5c-1.6,3.3-5.5,4.9-9,3.7c-0.2-0.1-0.3-0.1-0.5-0.1c-1.1-0.4-1.9-1.5-3-2c0-0.7-0.5-1.1-0.8-1.7
	c-0.3-0.6-0.5-1.2-0.6-1.9C157.3,121.1,157.6,120.4,157.4,119.7z M164.8,123.2c1.6,0,2.8-1.2,2.8-2.7c0-1.5-1.3-2.7-2.8-2.7
	c-1.5,0-2.8,1.3-2.8,2.8C162.1,122,163.3,123.2,164.8,123.2z"/>
<path class="st8" d="M95.1,149.6c0.8,0.6,1.6,1.2,2.4,1.8c0.1,0.3,0.2,0.6,0.5,0.7c0.5,0.9,0.8,1.8,1.1,2.8c0,1,0.1,2.1-0.1,3.1
	c-0.3,1.1-0.7,2.1-1.5,3c-0.1,0.1-0.2,0.3-0.1,0.5c-0.3-0.1-0.4,0.2-0.6,0.3c-2.3,2-5,2.5-7.8,1.4c-2.9-1.2-4.4-3.5-4.6-6.5
	c-0.2-4.5,3.5-7.8,7.6-7.7C93.1,149,94.1,149.4,95.1,149.6z M94.5,156.3c0-1.5-1.2-2.7-2.7-2.7c-1.5,0-2.8,1.2-2.8,2.7
	c0,1.5,1.2,2.7,2.7,2.7C93.3,159.1,94.5,157.8,94.5,156.3z"/>
<path class="st8" d="M159.1,151.5c0.8-0.6,1.6-1.2,2.4-1.8c1-0.2,1.9-0.6,2.9-0.7c4-0.2,7.4,2.6,7.8,6.5c0.4,4.1-2.2,7.5-6.3,8.2
	c-2.2,0.4-4.2-0.3-5.9-1.7c-0.2-0.2-0.4-0.5-0.7-0.4c0-0.1,0-0.3-0.1-0.3c-0.8-0.9-1.2-2-1.6-3.1c-0.1-1-0.2-2,0-3
	c0.1-1.1,0.6-2,1.1-2.9C158.8,152,159,151.7,159.1,151.5z M164.8,159.1c1.5,0,2.8-1.2,2.8-2.8c0-1.5-1.3-2.7-2.7-2.7
	c-1.5,0-2.8,1.3-2.8,2.8C162.1,157.8,163.3,159.1,164.8,159.1z"/>
<path class="st8" d="M126.3,108.9c-1.2-0.4-2.3-1-3.2-1.8c-0.7-0.6-1.2-1.5-1.6-2.4c-0.1-0.3-0.2-0.6-0.4-0.8c0.2-0.3,0-0.6-0.1-0.9
	c-0.5-3,0.8-5.9,3.4-7.5c2.5-1.5,5.5-1.5,7.9,0.2c2.5,1.7,3.6,4.7,3,7.6c0,0.2,0,0.3,0,0.5c-0.4,1.1-1,2.2-1.8,3.1
	c-0.5,0.6-1.4,1-2.1,1.4c-0.4,0.2-0.8,0.4-1.2,0.5C129,109.2,127.7,109.2,126.3,108.9z M130.9,101.8c0-1.5-1.1-2.7-2.6-2.8
	c-1.4,0-2.7,1.2-2.7,2.7c0,1.4,1.2,2.8,2.6,2.8C129.7,104.5,130.9,103.2,130.9,101.8z"/>
<path class="st8" d="M135.6,174c0,4.3-3.2,7.7-7.3,7.7c-3.8,0-7.1-3.2-7.2-7c0-0.2,0-0.5,0-0.7c0.1-1.3,0.5-2.4,1.1-3.6
	c0.2-0.2,0.4-0.3,0.4-0.7c0.6-0.5,1.2-1,1.8-1.5c0.3-0.3,0.9-0.3,1.1-0.8c0.2,0.1,0.3,0.1,0.5,0c1.7-0.7,3.5-0.5,5.2,0.1
	c1.2,0.5,2.1,1.4,3,2.2c0,0.3,0.1,0.5,0.4,0.7C135.1,171.5,135.6,172.6,135.6,174z M130.9,174.3c0-1.5-1.2-2.7-2.6-2.8
	c-1.4,0-2.7,1.2-2.7,2.7c0,1.4,1.2,2.8,2.6,2.8C129.6,177,130.9,175.8,130.9,174.3z"/>
<path class="st7" d="M135.6,174c0-1.3-0.5-2.5-1-3.7c0.2-0.1,0.5-0.3,0.7-0.4c7.4-4,14.9-7.9,22.3-11.9c0.4,1.1,0.8,2.2,1.6,3.1
	c0.1,0.1,0,0.2,0.1,0.3c-1.8,1.1-3.8,2.1-5.7,3.1c-5.7,3.1-11.4,6.1-17.2,9.1C136.1,173.8,135.9,174,135.6,174z"/>
<path class="st7" d="M122.1,170.3c-0.5,1.1-1,2.3-1.1,3.6c-0.3,0.2-0.5,0-0.7-0.2c-7.5-4-15-8-22.6-12c-0.1-0.1-0.2-0.2-0.4-0.3
	c-0.1-0.2,0-0.3,0.1-0.5c0.7-0.9,1.2-1.9,1.5-3c0.2,0.1,0.4,0.2,0.6,0.3C107.1,162.3,114.6,166.3,122.1,170.3z"/>
<path class="st9" d="M149.4,146.5c0,0,0,0.1,0,0.1c-0.6,1.2-1.5,2.1-2,3.3c-0.1,0-0.2,0-0.3,0.1c-1-0.7-2.2-1.3-3.4-1.7
	c0-0.1-0.1-0.2-0.1-0.3c1-0.9,1.6-2,2.1-3.1c0.1,0,0.2-0.1,0.3-0.1C147,145.5,148.1,146.1,149.4,146.5z"/>
<path class="st9" d="M145.5,132.2c-0.1,0-0.2,0-0.3,0c-0.4-1.2-1.2-2.2-2-3.2c0-0.1,0-0.2,0.1-0.3c1-0.2,1.8-0.8,2.7-1.2
	c0.6-0.3,0.9-0.3,1.3,0.3c0.4,0.7,0.9,1.4,1.4,2.1c0.3,0.4,0.2,0.6-0.2,0.8C147.4,131.2,146.4,131.5,145.5,132.2z"/>
<path class="st9" d="M159.1,151.5c-0.1,0.3-0.3,0.5-0.5,0.7c-0.3-0.3-0.5-0.7-0.8-1.3C158.4,151.1,158.7,151.3,159.1,151.5z"/>
<path class="st10" d="M158.2,125.8C158.2,125.8,158.2,125.7,158.2,125.8C158.3,125.8,158.3,125.8,158.2,125.8
	C158.2,125.9,158.2,125.8,158.2,125.8z"/>
<path class="st10" d="M157.5,150.5c0,0,0,0.1,0.1,0.1c-0.1,0-0.1,0-0.2,0C157.4,150.6,157.4,150.5,157.5,150.5z"/>
<path class="st11" d="M134.1,107.6c0,0,0-0.1-0.1-0.1c0.1,0,0.1,0,0.2,0C134.1,107.6,134.1,107.6,134.1,107.6z"/>
<path class="st9" d="M107.2,146.7c0-0.1,0.1-0.2,0.1-0.3c1.2-0.4,2.4-0.9,3.4-1.7c0.1,0,0.2,0,0.3,0.1c0,0.3,0.2,0.5,0.4,0.8
	c0.5,0.8,1.1,1.7,1.6,2.5c0,0,0,0.1,0,0.1c-1.2,0.4-2.3,0.9-3.3,1.7c-0.1,0-0.2-0.1-0.3-0.1C108.7,148.8,108.1,147.6,107.2,146.7z"
	/>
<path class="st9" d="M111.4,132.1c-0.1,0-0.2,0-0.3,0c-0.9-0.6-1.9-1-2.8-1.5c-0.4-0.2-0.6-0.4-0.2-0.8c0.5-0.7,1-1.4,1.4-2.1
	c0.3-0.5,0.6-0.6,1.1-0.3c0.7,0.4,1.4,0.7,2.1,1.1c0.2,0.1,0.4,0.3,0.7,0.2c0,0.1,0,0.2,0.1,0.3c-0.6,0.5-0.9,1.2-1.3,1.9
	C111.7,131.2,111.3,131.6,111.4,132.1z"/>
<path class="st12" d="M98,152.2c-0.3-0.2-0.4-0.4-0.5-0.7c0.4-0.2,0.8-0.7,1.1-0.4c0.2,0.2-0.3,0.7-0.5,1
	C98.1,152.1,98,152.1,98,152.2z"/>
<path class="st8" d="M97.8,125.4C97.9,125.4,97.9,125.4,97.8,125.4C97.9,125.4,97.9,125.4,97.8,125.4
	C97.9,125.4,97.8,125.4,97.8,125.4C97.8,125.4,97.8,125.4,97.8,125.4z"/>
<path class="st7" d="M112.9,148.2c1.3,2,2.7,4,4,6c2.7,4.1,5.4,8.2,8.1,12.4c0.1,0.2,0.3,0.5,0.4,0.7c-0.2,0.5-0.8,0.5-1.1,0.8
	c-0.6,0.5-1.2,1-1.8,1.5c-0.6-0.6-1-1.3-1.4-2c-3.7-5.7-7.5-11.4-11.2-17.1c-0.1-0.2-0.2-0.4-0.3-0.6
	C110.6,149.2,111.7,148.7,112.9,148.2z"/>
<path class="st7" d="M131.1,167.4c4.1-6.3,8.2-12.6,12.4-18.9c0.1-0.1,0.2-0.2,0.2-0.3c1.2,0.4,2.3,1,3.4,1.7
	c-1.5,2.3-2.9,4.5-4.4,6.8c-2.7,4.1-5.4,8.2-8.1,12.4c-0.1,0.2-0.2,0.4-0.4,0.5C133.2,168.8,132.3,167.9,131.1,167.4z"/>
<path class="st8" d="M134,143.2c-0.4,0-0.5,0.4-0.7,0.6c-3,2.9-7.5,2.6-10.5-0.5c-0.9-1-1.4-2.2-1.7-3.5c-0.1-0.9-0.1-1.8,0-2.7
	c0.3-1.3,0.9-2.4,1.6-3.5c1.1-1,2.3-2,3.8-2.3c2.6-0.7,4.9,0,6.9,1.8c0.2,0.2,0.4,0.4,0.6,0.5c0.8,1,1.3,2.2,1.6,3.4
	c0,0.9,0,1.8,0,2.7C135.2,141,134.6,142.1,134,143.2z M130.9,138.4c0.2-1.5-1.4-2.8-2.6-2.8c-1.5,0.1-2.6,1.3-2.6,2.8
	c-0.1,1.5,1.3,2.8,2.7,2.8C129.6,141.2,131,140,130.9,138.4z"/>
<path class="st7" d="M135.5,137c-0.3-1.2-0.8-2.4-1.6-3.4c3.1-1.6,6.2-3.2,9.3-4.6c0.8,1,1.6,1.9,2,3.2c-2.2,1.3-4.5,2.3-6.8,3.5
	C137.5,136.1,136.5,136.6,135.5,137z"/>
<path class="st7" d="M122.7,133.6c-0.7,1.1-1.3,2.2-1.6,3.5c-3.2-1.6-6.3-3.2-9.5-4.7c-0.1,0-0.2-0.1-0.2-0.2c0-0.6,0.4-0.9,0.6-1.3
	c0.4-0.6,0.7-1.4,1.3-1.9c1.7,0.7,3.4,1.6,5,2.5C119.8,132.1,121.3,132.9,122.7,133.6z"/>
<path class="st7" d="M134,143.2c0.7-1.1,1.3-2.2,1.6-3.4c3.4,1.7,6.8,3.4,10.2,5.1c-0.6,1.1-1.2,2.3-2.1,3.1
	c-1.5-0.6-2.9-1.4-4.3-2.1C137.5,145,135.7,144.2,134,143.2z"/>
<path class="st7" d="M121.1,139.7c0.4,1.3,0.8,2.5,1.7,3.5c-0.4,0-0.7,0.3-1.1,0.5c-2.9,1.5-5.9,3-8.8,4.4c-0.5-0.8-1.1-1.7-1.6-2.5
	c-0.2-0.2-0.4-0.5-0.4-0.8c2.5-1.3,5-2.5,7.5-3.8C119.3,140.6,120.2,140.2,121.1,139.7z"/>
<path class="st13" d="M130.9,138.4c0.1,1.6-1.3,2.8-2.6,2.8c-1.4,0-2.7-1.3-2.7-2.8c0.1-1.6,1.2-2.7,2.6-2.8
	C129.5,135.5,131.1,136.9,130.9,138.4z"/>
</svg>
