<?xml version="1.0" encoding="utf-8"?>
<!-- Generator: Adobe Illustrator 28.1.0, SVG Export Plug-In . SVG Version: 6.00 Build 0)  -->
<svg version="1.1" id="图层_1" xmlns="http://www.w3.org/2000/svg" xmlns:xlink="http://www.w3.org/1999/xlink" x="0px" y="0px"
	 width="256px" height="256px" viewBox="0 0 256 256" style="enable-background:new 0 0 256 256;" xml:space="preserve">
<style type="text/css">
	.st0{fill-rule:evenodd;clip-rule:evenodd;fill:#08589C;}
	.st1{fill-rule:evenodd;clip-rule:evenodd;fill:url(#SVGID_1_);filter:url(#Adobe_OpacityMaskFilter);}
	.st2{mask:url(#mask0_571_13879_00000082335908076174229890000013575528181794881168_);}
	.st3{fill-rule:evenodd;clip-rule:evenodd;fill-opacity:0.3;}
	.st4{fill-rule:evenodd;clip-rule:evenodd;fill:url(#SVGID_00000029026153268218440080000011111806206660241593_);}
	.st5{fill:none;stroke:#FFFFFF;stroke-width:6;stroke-miterlimit:133.3333;}
	.st6{fill:none;stroke:#FFFFFF;stroke-width:6;stroke-linecap:round;stroke-miterlimit:133.3333;}
</style>
<path class="st0" d="M104.4,42.4c-4.4-5.3-10.9-8.4-17.8-8.4H29c-6.6,0-12,5.4-12,12v12.1v10.1V160c0,6.6,5.4,12,12,12h200
	c6.6,0,12-5.4,12-12V70.1c0-6.6-5.4-12-12-12H117.4L104.4,42.4z"/>
<defs>
	<filter id="Adobe_OpacityMaskFilter" filterUnits="userSpaceOnUse" x="17" y="62" width="224" height="110">
		<feColorMatrix  type="matrix" values="1 0 0 0 0  0 1 0 0 0  0 0 1 0 0  0 0 0 1 0"/>
	</filter>
</defs>
<mask maskUnits="userSpaceOnUse" x="17" y="62" width="224" height="110" id="mask0_571_13879_00000082335908076174229890000013575528181794881168_">
	
		<linearGradient id="SVGID_1_" gradientUnits="userSpaceOnUse" x1="32.5816" y1="239.5494" x2="213.3495" y2="58.4074" gradientTransform="matrix(1 0 0 -1 0 258)">
		<stop  offset="0" style="stop-color:#05815D"/>
		<stop  offset="1" style="stop-color:#0C575F"/>
	</linearGradient>
	<path class="st1" d="M104.4,42.4c-4.4-5.3-10.9-8.4-17.8-8.4H29c-6.6,0-12,5.4-12,12v12.1v10.1V160c0,6.6,5.4,12,12,12h200
		c6.6,0,12-5.4,12-12V70.1c0-6.6-5.4-12-12-12H117.4L104.4,42.4z"/>
</mask>
<g class="st2">
	<g>
		<path class="st3" d="M92.8,74c5,0,9.8-1.6,13.8-4.6l9.9-7.4H229c6.6,0,12,5.4,12,12v34v52c0,6.6-5.4,12-12,12H29
			c-6.6,0-12-5.4-12-12v-52V86c0-6.6,5.4-12,12-12h58H92.8z"/>
	</g>
</g>
<g>
	
		<linearGradient id="SVGID_00000178893331127964950900000012389508769519935121_" gradientUnits="userSpaceOnUse" x1="17" y1="196" x2="241" y2="48" gradientTransform="matrix(1 0 0 -1 0 258)">
		<stop  offset="0" style="stop-color:#9698EF"/>
		<stop  offset="0.5161" style="stop-color:#4E9DD6"/>
		<stop  offset="1" style="stop-color:#2873D7"/>
	</linearGradient>
	<path style="fill-rule:evenodd;clip-rule:evenodd;fill:url(#SVGID_00000178893331127964950900000012389508769519935121_);" d="
		M92.8,74c5,0,9.8-1.6,13.8-4.6l9.9-7.4H229c6.6,0,12,5.4,12,12v34v90c0,6.6-5.4,12-12,12H29c-6.6,0-12-5.4-12-12v-90V86
		c0-6.6,5.4-12,12-12h58H92.8z"/>
</g>
<g>
	<path class="st5" d="M93.9,129.7c0-14.1,0-21.1,1.7-23.4c1.7-2.4,8.3-4.6,21.5-9.1l2.5-0.9c6.9-2.4,10.3-3.5,13.9-3.5
		c3.6,0,7,1.2,13.9,3.5l2.5,0.9c13.2,4.5,19.8,6.8,21.5,9.1c1.7,2.4,1.7,9.4,1.7,23.4c0,2.1,0,4.4,0,6.9c0,24.8-18.6,36.8-30.3,41.9
		c-3.2,1.4-4.8,2.1-9.2,2.1s-6.1-0.7-9.2-2.1c-11.7-5.1-30.3-17.1-30.3-41.9C93.9,134.1,93.9,131.8,93.9,129.7z"/>
	<path class="st5" d="M155.5,136.6c0,2.9-0.6,5.7-1.7,8.4c-1.1,2.7-2.7,5.1-4.8,7.1c-2,2-4.5,3.7-7.1,4.8c-2.7,1.1-5.5,1.7-8.4,1.7
		s-5.7-0.6-8.4-1.7c-2.7-1.1-5.1-2.7-7.1-4.8c-2-2-3.7-4.5-4.8-7.1c-1.1-2.7-1.7-5.5-1.7-8.4s0.6-5.7,1.7-8.4
		c1.1-2.7,2.7-5.1,4.8-7.1c2-2,4.5-3.7,7.1-4.8c2.7-1.1,5.5-1.7,8.4-1.7s5.7,0.6,8.4,1.7c2.7,1.1,5.1,2.7,7.1,4.8
		c2,2,3.7,4.5,4.8,7.1C154.9,130.9,155.5,133.7,155.5,136.6L155.5,136.6z"/>
	<path class="st5" d="M141.6,145c0.4-2.7,0.7-5.5,0.7-8.4s-0.2-5.7-0.7-8.4c-0.4-2.7-1.1-5.1-1.9-7.1c-0.8-2-1.8-3.7-2.9-4.8
		c-1.1-1.1-2.2-1.7-3.4-1.7c-1.2,0-2.3,0.6-3.4,1.7c-1.1,1.1-2,2.7-2.9,4.8c-0.8,2-1.5,4.5-1.9,7.1c-0.4,2.7-0.7,5.5-0.7,8.4
		s0.2,5.7,0.7,8.4c0.4,2.7,1.1,5.1,1.9,7.1c0.8,2,1.8,3.7,2.9,4.8c1.1,1.1,2.2,1.7,3.4,1.7c1.2,0,2.3-0.6,3.4-1.7
		c1.1-1.1,2-2.7,2.9-4.8C140.5,150.1,141.2,147.7,141.6,145z"/>
	<path class="st6" d="M111.5,136.6h44"/>
</g>
</svg>
