<?xml version="1.0" encoding="utf-8"?>
<!-- Generator: Adobe Illustrator 28.1.0, SVG Export Plug-In . SVG Version: 6.00 Build 0)  -->
<svg version="1.1" id="图层_1" xmlns="http://www.w3.org/2000/svg" xmlns:xlink="http://www.w3.org/1999/xlink" x="0px" y="0px"
	 width="256px" height="256px" viewBox="0 0 256 256" style="enable-background:new 0 0 256 256;" xml:space="preserve">
<style type="text/css">
	.st0{fill-rule:evenodd;clip-rule:evenodd;fill:#5172C4;}
	.st1{fill-rule:evenodd;clip-rule:evenodd;fill:url(#SVGID_1_);filter:url(#Adobe_OpacityMaskFilter);}
	.st2{mask:url(#mask0_931_20901_00000042702212098778490110000000176590851556823461_);}
	.st3{fill-rule:evenodd;clip-rule:evenodd;fill-opacity:0.3;}
	.st4{fill-rule:evenodd;clip-rule:evenodd;fill:url(#SVGID_00000163752274742708775860000009987197567458039688_);}
	.st5{fill-rule:evenodd;clip-rule:evenodd;fill:#F5F5F5;}
	.st6{fill:#325370;}
	.st7{fill:#A0A0A0;}
	.st8{fill:#A5A5A5;}
	.st9{opacity:0.1;fill:#323232;enable-background:new    ;}
	.st10{fill:none;stroke:#5172C4;stroke-width:7;stroke-linecap:round;stroke-linejoin:round;stroke-miterlimit:133.3333;}
	.st11{fill:none;stroke:#707070;stroke-width:7;stroke-miterlimit:133.3333;}
</style>
<path class="st0" d="M104.4,42.4c-4.4-5.3-10.9-8.4-17.8-8.4H29c-6.6,0-12,5.4-12,12v12.1v10.1V160c0,6.6,5.4,12,12,12h200
	c6.6,0,12-5.4,12-12V70.1c0-6.6-5.4-12-12-12H117.4L104.4,42.4z"/>
<defs>
	<filter id="Adobe_OpacityMaskFilter" filterUnits="userSpaceOnUse" x="17" y="62" width="224" height="110">
		<feColorMatrix  type="matrix" values="1 0 0 0 0  0 1 0 0 0  0 0 1 0 0  0 0 0 1 0"/>
	</filter>
</defs>
<mask maskUnits="userSpaceOnUse" x="17" y="62" width="224" height="110" id="mask0_931_20901_00000042702212098778490110000000176590851556823461_">
	
		<linearGradient id="SVGID_1_" gradientUnits="userSpaceOnUse" x1="32.5816" y1="239.5494" x2="213.3495" y2="58.4074" gradientTransform="matrix(1 0 0 -1 0 258)">
		<stop  offset="0" style="stop-color:#05815D"/>
		<stop  offset="1" style="stop-color:#0C575F"/>
	</linearGradient>
	<path class="st1" d="M104.4,42.4c-4.4-5.3-10.9-8.4-17.8-8.4H29c-6.6,0-12,5.4-12,12v12.1v10.1V160c0,6.6,5.4,12,12,12h200
		c6.6,0,12-5.4,12-12V70.1c0-6.6-5.4-12-12-12H117.4L104.4,42.4z"/>
</mask>
<g class="st2">
	<g>
		<path class="st3" d="M92.8,74c5,0,9.8-1.6,13.8-4.6l9.9-7.4H229c6.6,0,12,5.4,12,12v34v52c0,6.6-5.4,12-12,12H29
			c-6.6,0-12-5.4-12-12v-52V86c0-6.6,5.4-12,12-12h58H92.8z"/>
	</g>
</g>
<g>
	
		<linearGradient id="SVGID_00000117645603153645775960000001521581828670902672_" gradientUnits="userSpaceOnUse" x1="17" y1="196" x2="241" y2="48" gradientTransform="matrix(1 0 0 -1 0 258)">
		<stop  offset="0" style="stop-color:#FFFFFF"/>
		<stop  offset="1" style="stop-color:#E3E3E3"/>
	</linearGradient>
	<path style="fill-rule:evenodd;clip-rule:evenodd;fill:url(#SVGID_00000117645603153645775960000001521581828670902672_);" d="
		M92.8,74c5,0,9.8-1.6,13.8-4.6l9.9-7.4H229c6.6,0,12,5.4,12,12v34v90c0,6.6-5.4,12-12,12H29c-6.6,0-12-5.4-12-12v-90V86
		c0-6.6,5.4-12,12-12h58H92.8z"/>
</g>
<g>
	<path class="st5" d="M148.4,121.5c-14.9,1.2-28.1,11.4-31,23.9c-1.5,6.5-0.2,14.2,3.4,19.8c4.7,7.3,12.4,12.5,21.8,15
		c4.7,1.2,14.5,1.2,19.7,0l3.7-0.9l3.3,1.9c1.8,1,4.2,2.3,5.2,2.9c2.9,1.6,3.2,0.8,1.8-4.4l-1.1-4.3l3.8-3.6
		c4.5-4.3,6.5-7.1,8.2-11.7c6.7-17.8-8.3-36.8-30.5-38.5C154.4,121.3,150.7,121.4,148.4,121.5z M138.5,145.7
		c4.8,2.5,9.2-3.5,5.4-7.4c-2.7-2.7-6.9-1.5-7.8,2.3C135.6,142.5,136.7,144.8,138.5,145.7z M169.3,141.5c0-1.6-0.3-2.2-1.5-3.3
		c-3.8-3.2-9,0.3-7.4,5C162,148.2,169.3,146.8,169.3,141.5z"/>
	<path class="st0" d="M105.9,88.3c-3.8,0.4-10.5,2.3-14.4,4.2C74.8,100.3,66,116,69.9,131.2c1.7,6.6,4.5,11.3,10.1,16.8
		c3.2,3.1,4.9,5.2,4.9,5.9c0,0.6-0.4,2.7-1,4.7c-1.8,6.5-1.2,7,4.4,3.7c2.2-1.2,4.8-2.7,6-3.3l2.1-1.1l4.9,1
		c5.6,1.2,11.6,1.7,12.6,1.1c0.5-0.3,0.6-0.9,0.1-2.7c-0.3-1.2-0.6-4-0.6-6.2c0-12.1,7.5-22.5,20.6-28.6c5.4-2.5,9.5-3.5,15.8-3.9
		c3.7-0.2,5.1-0.5,5.1-1c0-0.4-0.5-2.1-1.2-3.9C147.4,96.6,127.5,86,105.9,88.3z M102.7,115.4c1.3-2.4,0.9-4.8-1-6.7
		c-1.4-1.4-2.1-1.7-4-1.7c-1.8,0-2.5,0.3-3.7,1.5c-1.8,1.8-2.2,3.6-1.4,6C94.1,118.8,100.6,119.5,102.7,115.4z M131.6,115.4
		c1.3-2.2,0.8-5.3-1.2-7c-4.4-3.9-11.1,0.8-8.8,6.3C123.4,119,129.2,119.4,131.6,115.4z"/>
	<path class="st6" d="M101.7,108.7c1.9,1.9,2.3,4.3,1,6.7c-2.1,4.1-8.6,3.5-10.1-1c-0.8-2.3-0.3-4.2,1.4-6c1.2-1.2,1.9-1.5,3.7-1.5
		C99.6,107,100.3,107.2,101.7,108.7z"/>
	<path class="st6" d="M130.4,108.3c2,1.8,2.5,4.8,1.2,7c-2.4,4-8.2,3.6-10-0.7C119.3,109.2,126,104.4,130.4,108.3z"/>
	<path class="st7" d="M143.9,138.4c3.8,3.8-0.6,9.8-5.4,7.4c-1.8-0.9-2.9-3.3-2.4-5.1C137,136.9,141.2,135.7,143.9,138.4z"/>
	<path class="st8" d="M167.8,138.2c1.2,1,1.5,1.7,1.5,3.3c0,5.3-7.3,6.7-9,1.7C158.8,138.5,164,135,167.8,138.2z"/>
</g>
<path class="st9" d="M83.3,172.4c-10.8-0.4-19.2-9.4-18.8-20.2c0.4-10.8,9.4-19.2,20.2-18.8c10.8,0.4,19.2,9.4,18.8,20.2
	C103.2,164.4,94.1,172.8,83.3,172.4z"/>
<path class="st10" d="M69.6,166.4l-16.9,15"/>
<path class="st11" d="M83.3,172.4c-10.8-0.4-19.2-9.4-18.8-20.2c0.4-10.8,9.4-19.2,20.2-18.8c10.8,0.4,19.2,9.4,18.8,20.2
	C103.2,164.4,94.1,172.8,83.3,172.4z"/>
</svg>
