<?xml version="1.0" encoding="UTF-8"?>
<svg id="_图层_1" data-name="图层_1" xmlns="http://www.w3.org/2000/svg" width="256" height="256" version="1.1" xmlns:xlink="http://www.w3.org/1999/xlink" viewBox="0 0 256 256">
  <!-- Generator: Adobe Illustrator 30.0.0, SVG Export Plug-In . SVG Version: 2.1.1 Build 123)  -->
  <defs>
    <style>
      .st0 {
        fill-opacity: .3;
      }

      .st0, .st1, .st2 {
        fill-rule: evenodd;
      }

      .st1 {
        fill: url(#_未命名的渐变_61);
      }

      .st3 {
        isolation: isolate;
      }

      .st2 {
        fill: url(#_未命名的渐变_3);
      }

      .st4 {
        fill: url(#_未命名的渐变_261);
      }

      .st5 {
        mix-blend-mode: multiply;
      }

      .st6 {
        fill: url(#_未命名的渐变_26);
      }
    </style>
    <linearGradient id="_未命名的渐变_61" data-name="未命名的渐变 61" x1="17" y1="613" x2="241" y2="613" gradientTransform="translate(0 -510)" gradientUnits="userSpaceOnUse">
      <stop offset="0" stop-color="#619eea"/>
      <stop offset="1" stop-color="#2154b6"/>
      <stop offset="1" stop-color="#60dcdd"/>
    </linearGradient>
    <linearGradient id="_未命名的渐变_3" data-name="未命名的渐变 3" x1="17" y1="572" x2="241" y2="720" gradientTransform="translate(0 -510)" gradientUnits="userSpaceOnUse">
      <stop offset="0" stop-color="#feffff"/>
      <stop offset="1" stop-color="#b5d3ef"/>
    </linearGradient>
    <linearGradient id="_未命名的渐变_26" data-name="未命名的渐变 26" x1="58.81" y1="138.46" x2="202.73" y2="138.46" gradientUnits="userSpaceOnUse">
      <stop offset="0" stop-color="#619beb"/>
      <stop offset="1" stop-color="#60dfdc"/>
    </linearGradient>
    <linearGradient id="_未命名的渐变_261" data-name="未命名的渐变 26" x1="160.98" y1="110.91" x2="214.23" y2="110.91" xlink:href="#_未命名的渐变_26"/>
  </defs>
  <g class="st3">
    <g id="_图层_11" data-name="_图层_1">
      <path class="st1" d="M104.4,42.4c-4.4-5.3-10.9-8.4-17.8-8.4H29c-6.6,0-12,5.4-12,12v114c0,6.6,5.4,12,12,12h200c6.6,0,12-5.4,12-12v-89.9c0-6.6-5.4-12-12-12h-111.6l-13-15.8v.1Z"/>
      <g class="st5">
        <path class="st0" d="M92.8,74c5,0,9.8-1.6,13.8-4.6l9.9-7.4h112.5c6.6,0,12,5.4,12,12v86c0,6.6-5.4,12-12,12H29c-6.6,0-12-5.4-12-12v-74c0-6.6,5.4-12,12-12h63.8Z"/>
      </g>
      <path class="st2" d="M92.8,74c5,0,9.8-1.6,13.8-4.6l9.9-7.4h112.5c6.6,0,12,5.4,12,12v124c0,6.6-5.4,12-12,12H29c-6.6,0-12-5.4-12-12v-112c0-6.6,5.4-12,12-12h63.8Z"/>
    </g>
  </g>
  <g>
    <path class="st6" d="M90.61,157.11c.54-.51,1.43-2.91,1.74-3.74,3.73-9.89,6.43-20.66,9.92-30.7,3.22-9.24,7.47-18.47,19.1-17.44,7.9.7,12.16,7.93,14.65,14.66,4.11,11.11,6.92,23.08,11.15,34.11.63,1.66,2.17,5.58,4.2,2.55.62-.92,1.4-3.33,1.82-4.49,1.54-4.27,2.46-8.8,4.6-12.83,7.67-14.4,20.27-13.95,34.82-13.61,3.03.07,5.84-.1,8.15,2.24,4.15,4.19,1.3,11.35-4.44,11.88-8.06.74-21.18-2.98-25.79,5.37s-4.45,21.66-15.62,25.74c-9.61,3.51-16.91-2.73-20.49-11.14-4.97-11.67-7.61-25.34-12.31-37.22-.52-1.3-1.47-4.05-3.33-2.79-.77.52-1.6,2.68-1.95,3.61-2.49,6.54-4.52,13.84-6.72,20.55-3.48,10.59-6.64,28.84-21.37,27.96-9.38-.56-13.32-8.17-16.1-15.99-4.92-13.86-8.78-28.13-13.62-42.02-1.79-8.28,8.76-12.03,13-5.21l15,46.02c.38,1.46,1.86,4.16,3.6,2.49Z"/>
    <path class="st4" d="M212.65,105.35c-.77,1-2.68,2.31-3.93,2.47-6.62.43-13.83-.5-20.39.01-2.66.21-5.9,2.11-7.29,4.4-1.6,2.63-2.13,6.18-3.45,8.98-1.15.47-2.42.37-3.64.63-3.59.77-6.93,2.14-10.07,4.03l-2.91,2.19c1.81-5.24,3.11-10.69,4.96-15.91,1.1-3.1,2.49-6.43,4.51-9.03,9.7-12.5,24.78-8.78,38.66-8.99,4.85,1.55,6.74,7.08,3.55,11.23Z"/>
  </g>
</svg>