<?xml version="1.0" encoding="UTF-8"?>
<svg id="_图层_1" data-name="图层_1" xmlns="http://www.w3.org/2000/svg" width="256" height="256" version="1.1" xmlns:xlink="http://www.w3.org/1999/xlink" viewBox="0 0 256 256">
  <!-- Generator: Adobe Illustrator 29.3.1, SVG Export Plug-In . SVG Version: 2.1.0 Build 151)  -->
  <defs>
    <style>
      .st0 {
        fill: #633;
      }

      .st0, .st1 {
        display: none;
      }

      .st2 {
        fill-opacity: .3;
      }

      .st2, .st3, .st4 {
        fill-rule: evenodd;
      }

      .st5 {
        fill: #fff;
      }

      .st3 {
        fill: #2d2c2b;
      }

      .st1 {
        fill: #2c2b2c;
      }

      .st4 {
        fill: url(#_未命名的渐变_7);
      }
    </style>
    <linearGradient id="_未命名的渐变_7" data-name="未命名的渐变 7" x1="129" y1="565.4" x2="129" y2="722.7" gradientTransform="translate(0 -510)" gradientUnits="userSpaceOnUse">
      <stop offset="0" stop-color="#f0881c"/>
      <stop offset="1" stop-color="#fbc711"/>
    </linearGradient>
  </defs>
  <path class="st3" d="M104.4,42.4c-4.4-5.3-10.9-8.4-17.8-8.4H29c-6.6,0-12,5.4-12,12v114c0,6.6,5.4,12,12,12h200c6.6,0,12-5.4,12-12v-89.9c0-6.6-5.4-12-12-12h-111.6l-13-15.7Z"/>
  <path class="st2" d="M92.8,74c5,0,9.8-1.6,13.8-4.6l9.9-7.4h112.5c6.6,0,12,5.4,12,12v86c0,6.6-5.4,12-12,12H29c-6.6,0-12-5.4-12-12v-74c0-6.6,5.4-12,12-12h63.8Z"/>
  <path class="st4" d="M92.8,74c5,0,9.8-1.6,13.8-4.6l9.9-7.4h112.5c6.6,0,12,5.4,12,12v124c0,6.6-5.4,12-12,12H29c-6.6,0-12-5.4-12-12v-112c0-6.6,5.4-12,12-12h63.8Z"/>
  <path class="st1" d="M175,100.8h-84.3c-3.7,0-6.7,3-6.7,6.7v55.6c0,3.7,3,6.7,6.7,6.7h84.3c3.7,0,6.7-3,6.7-6.7v-55.6c0-3.7-3-6.7-6.7-6.7h0ZM176,163.1c0,.5-.4,1-1,1h-84.3c-.5,0-1-.4-1-1v-55.6c0-.5.4-1,1-1h84.3c.5,0,1,.4,1,1v55.6ZM155.8,175.8h-45.9c-1.6,0-2.9,1.3-2.9,2.9s1.3,2.9,2.9,2.9h46c1.6,0,2.9-1.3,2.9-2.9s-1.4-2.9-3-2.9h0ZM146.6,133.3l-19.2-11.5c-.9-.5-2-.5-2.9,0s-1.5,1.5-1.5,2.5v23c0,1,.6,2,1.5,2.5.4.3.9.4,1.4.4s1-.1,1.5-.4l19.2-11.5c.9-.5,1.4-1.5,1.4-2.5s-.5-2-1.4-2.5Z"/>
  <g>
    <path class="st0" d="M83,152.5c1.8-13.5,13.4-24,27.4-24h23.8c-.4-.9-.8-1.8-1.1-2.8-.4-1.2-.6-2.5-.6-3.9s.1-2,.4-3c-2.9-1.9-5.8-4.3-8.5-7-4.2-4.2-7.6-8.7-9.5-12.8-2.9-6.1-1.7-9.2-.2-10.7,1.5-1.5,4.6-2.7,10.7.2.6.3,1.3.6,1.9,1,0-5.1,1.5-8.3,4.4-9.4,6-2.2,13.2,7.8,17.2,18.8,1.1,3,1.9,6.1,2.5,9,12.3,1.5,22.4,9.5,26.3,21.2.4,1.2.6,2.5.6,3.9,0,5.6-3.7,10.8-8.8,13.1,1.3,3.2,1.9,6.6,1.9,10.2s-.9,8.3-2.7,12h4.9c4.3,0,7.8,3.5,7.8,7.8s-3.5,7.8-7.8,7.8h-63c-7.4,0-14.3-2.9-19.6-8.1-1.4-1.4-2.7-3-3.8-4.7-.9.3-1.8.4-2.8.4-5.3,0-9.6-4.3-9.6-9.6s3.6-8.8,8.2-9.5h0Z"/>
    <path class="st5" d="M82.7,157.1c.1,3.5.9,6.9,2.2,10-.2,0-.4,0-.7,0-2.9,0-5.2-2.3-5.2-5.2s1.5-4.3,3.6-4.9h0Z"/>
    <path class="st5" d="M110.4,132.9h27.4c.4,0,.8,0,1.1-.3,1-.6,1.4-2,.8-3-1-1.6-1.8-3.4-2.4-5.3-.3-.8-.4-1.6-.4-2.5s.2-2.1.6-3.2c0-.3.1-.5.1-.8,0-.9-.5-1.7-1.4-2.1h0c-2.9-1.8-5.9-4.3-8.8-7.1-3.9-3.8-6.9-8-8.7-11.6-1.6-3.4-1.5-5.2-1.1-5.7s2.3-.5,5.7,1.1c1.6.8,3.2,1.8,4.9,3,0,0,0,0,.1,0,2.2,1.6,4.4,3.5,6.5,5.6,3.2,3.2,6,6.8,7.8,10,.4.8,1.4,1.3,2.3,1.1.5,0,1.8-.1,1.9-.1,6,0,11.7,1.7,16.4,5,4.7,3.3,8.1,7.9,9.9,13.4.3.8.4,1.6.4,2.5,0,2.2-.9,4.3-2.3,6.1-1.4,1.7-3.4,3-5.6,3.5-.2,0-.4,0-.5.2-1.1.5-1.5,1.9-1,3,1.7,3.3,2.5,6.8,2.5,10.5,0,4.7-1.4,9.2-4,13-.7,1-.4,2.4.6,3.1.4.3.8.4,1.2.4h8.7c1.9,0,3.4,1.5,3.4,3.4s-1.5,3.4-3.4,3.4h-31.8c.5-1,.8-2.2.8-3.4,0-4.3-3.5-7.8-7.8-7.8h-7.8v-1.5c0-8.6-7-15.5-15.5-15.5h-2.9c-1.2,0-2.2,1-2.2,2.2s1,2.2,2.2,2.2h2.9c6.1,0,11.1,5,11.1,11.1v3.7c0,1.2,1,2.2,2.2,2.2h10c1.9,0,3.4,1.5,3.4,3.4s-1.5,3.4-3.4,3.4h-24.2c-6.2,0-12.1-2.4-16.5-6.8-1.6-1.6-2.9-3.3-3.9-5.2,0,0-2.9-5.8-2.9-11.2,0-12.8,10.4-23.3,23.3-23.3Z"/>
    <path class="st0" d="M90.4,156.2c0-11,9-20,20-20,1.2,0,2.2,1,2.2,2.2s-1,2.2-2.2,2.2c-8.6,0-15.6,7-15.6,15.6s-1,2.2-2.2,2.2-2.2-1-2.2-2.2h0Z"/>
    <path class="st5" d="M144.7,100.5c.9,2.4,1.6,4.9,2.1,7.2,0,0-.6,0-.8,0-2-3.2-4.6-6.5-7.8-9.7-2.1-2.1-4.2-3.9-6.3-5.5-.6-5.6.6-8,1.3-8.2,1.5-.5,7.3,4.3,11.5,16.1Z"/>
    <path d="M162.6,125.1c0,1.5-1.2,2.7-2.7,2.7s-2.7-1.2-2.7-2.7,1.2-2.7,2.7-2.7,2.7,1.2,2.7,2.7Z"/>
  </g>
</svg>