<?xml version="1.0" encoding="utf-8"?>
<!-- Generator: Adobe Illustrator 28.1.0, SVG Export Plug-In . SVG Version: 6.00 Build 0)  -->
<svg version="1.1" id="图层_1" xmlns="http://www.w3.org/2000/svg" xmlns:xlink="http://www.w3.org/1999/xlink" x="0px" y="0px"
	 width="256px" height="256px" viewBox="0 0 256 256" style="enable-background:new 0 0 256 256;" xml:space="preserve">
<style type="text/css">
	.st0{fill-rule:evenodd;clip-rule:evenodd;fill:#003333;}
	.st1{fill-rule:evenodd;clip-rule:evenodd;fill:url(#SVGID_1_);filter:url(#Adobe_OpacityMaskFilter);}
	.st2{mask:url(#mask0_2043_38445_00000164484298202919968370000014807829364831479974_);}
	.st3{fill-rule:evenodd;clip-rule:evenodd;fill-opacity:0.3;}
	.st4{fill-rule:evenodd;clip-rule:evenodd;fill:url(#SVGID_00000181055102484124436230000012294192477384639363_);}
	.st5{fill:#003333;stroke:#003333;stroke-width:6;stroke-miterlimit:133.3333;}
</style>
<path class="st0" d="M104.4,42.4c-4.4-5.3-10.9-8.4-17.8-8.4H29c-6.6,0-12,5.4-12,12v12.1v10.1V160c0,6.6,5.4,12,12,12h200
	c6.6,0,12-5.4,12-12V70.1c0-6.6-5.4-12-12-12H117.4L104.4,42.4z"/>
<defs>
	<filter id="Adobe_OpacityMaskFilter" filterUnits="userSpaceOnUse" x="17" y="62" width="224" height="110">
		<feColorMatrix  type="matrix" values="1 0 0 0 0  0 1 0 0 0  0 0 1 0 0  0 0 0 1 0"/>
	</filter>
</defs>
<mask maskUnits="userSpaceOnUse" x="17" y="62" width="224" height="110" id="mask0_2043_38445_00000164484298202919968370000014807829364831479974_">
	
		<linearGradient id="SVGID_1_" gradientUnits="userSpaceOnUse" x1="32.5816" y1="239.5494" x2="213.3495" y2="58.4074" gradientTransform="matrix(1 0 0 -1 0 258)">
		<stop  offset="0" style="stop-color:#05815D"/>
		<stop  offset="1" style="stop-color:#0C575F"/>
	</linearGradient>
	<path class="st1" d="M104.4,42.4c-4.4-5.3-10.9-8.4-17.8-8.4H29c-6.6,0-12,5.4-12,12v12.1v10.1V160c0,6.6,5.4,12,12,12h200
		c6.6,0,12-5.4,12-12V70.1c0-6.6-5.4-12-12-12H117.4L104.4,42.4z"/>
</mask>
<g class="st2">
	<g>
		<path class="st3" d="M92.8,74c5,0,9.8-1.6,13.8-4.6l9.9-7.4H229c6.6,0,12,5.4,12,12v34v52c0,6.6-5.4,12-12,12H29
			c-6.6,0-12-5.4-12-12v-52V86c0-6.6,5.4-12,12-12h58H92.8z"/>
	</g>
</g>
<g>
	
		<linearGradient id="SVGID_00000160189773795679745880000007166738784534792370_" gradientUnits="userSpaceOnUse" x1="32.6479" y1="212.6349" x2="319.1479" y2="-56.8651" gradientTransform="matrix(1 0 0 -1 0 258)">
		<stop  offset="0" style="stop-color:#FAFAFA"/>
		<stop  offset="1" style="stop-color:#DFD8D8"/>
	</linearGradient>
	<path style="fill-rule:evenodd;clip-rule:evenodd;fill:url(#SVGID_00000160189773795679745880000007166738784534792370_);" d="
		M92.8,74c5,0,9.8-1.6,13.8-4.6l9.9-7.4H229c6.6,0,12,5.4,12,12v34v90c0,6.6-5.4,12-12,12H29c-6.6,0-12-5.4-12-12v-90V86
		c0-6.6,5.4-12,12-12h58H92.8z"/>
</g>
<g>
	<path class="st5" d="M135.3,110.8H172"/>
	<path class="st5" d="M153.6,92.5v36.7"/>
	<path class="st5" d="M136.8,166.2c0-7.2,0-10.7,1.7-13.3c0.7-1.1,1.7-2.1,2.8-2.8c2.6-1.7,6.2-1.7,13.3-1.7l0,0l0,0
		c7.2,0,10.7,0,13.3,1.7c1.1,0.7,2.1,1.7,2.8,2.8c1.7,2.6,1.7,6.2,1.7,13.3l0,0l0,0c0,7.2,0,10.7-1.7,13.3c-0.7,1.1-1.7,2.1-2.8,2.8
		c-2.6,1.7-6.2,1.7-13.3,1.7l0,0l0,0c-7.2,0-10.7,0-13.3-1.7c-1.1-0.7-2.1-1.7-2.8-2.8C136.8,176.9,136.8,173.3,136.8,166.2
		L136.8,166.2L136.8,166.2z"/>
	<path class="st5" d="M80.7,166.2c0-7.2,0-10.7,1.7-13.3c0.7-1.1,1.7-2.1,2.8-2.8c2.6-1.7,6.2-1.7,13.3-1.7l0,0l0,0
		c7.2,0,10.7,0,13.3,1.7c1.1,0.7,2.1,1.7,2.8,2.8c1.7,2.6,1.7,6.2,1.7,13.3l0,0l0,0c0,7.2,0,10.7-1.7,13.3c-0.7,1.1-1.7,2.1-2.8,2.8
		c-2.6,1.7-6.2,1.7-13.3,1.7l0,0l0,0c-7.2,0-10.7,0-13.3-1.7c-1.1-0.7-2.1-1.7-2.8-2.8C80.7,176.9,80.7,173.3,80.7,166.2L80.7,166.2
		L80.7,166.2z"/>
	<path class="st5" d="M80.7,110.1c0-7.2,0-10.7,1.7-13.3c0.7-1.1,1.7-2.1,2.8-2.8c2.6-1.7,6.2-1.7,13.3-1.7l0,0l0,0
		c7.2,0,10.7,0,13.3,1.7c1.1,0.7,2.1,1.7,2.8,2.8c1.7,2.6,1.7,6.2,1.7,13.3l0,0l0,0c0,7.2,0,10.7-1.7,13.3c-0.7,1.1-1.7,2.1-2.8,2.8
		c-2.6,1.7-6.2,1.7-13.3,1.7l0,0l0,0c-7.2,0-10.7,0-13.3-1.7c-1.1-0.7-2.1-1.7-2.8-2.8C80.7,120.8,80.7,117.2,80.7,110.1L80.7,110.1
		L80.7,110.1z"/>
</g>
</svg>
