<?xml version="1.0" encoding="utf-8"?>
<!-- Generator: Adobe Illustrator 28.1.0, SVG Export Plug-In . SVG Version: 6.00 Build 0)  -->
<svg version="1.1" id="图层_1" xmlns="http://www.w3.org/2000/svg" xmlns:xlink="http://www.w3.org/1999/xlink" x="0px" y="0px"
	 width="256px" height="256px" viewBox="0 0 256 256" style="enable-background:new 0 0 256 256;" xml:space="preserve">
<style type="text/css">
	.st0{fill-rule:evenodd;clip-rule:evenodd;fill:#2C292A;}
	.st1{fill-rule:evenodd;clip-rule:evenodd;fill-opacity:0.3;}
	.st2{fill-rule:evenodd;clip-rule:evenodd;fill:#AAD400;}
	.st3{fill:#AAD400;}
</style>
<path class="st0" d="M104.4,42.4C100,37.1,93.5,34,86.6,34H29c-6.6,0-12,5.4-12,12v12.1v10.1V160c0,6.6,5.4,12,12,12h200
	c6.6,0,12-5.4,12-12V70.1c0-6.6-5.4-12-12-12H117.4L104.4,42.4z"/>
<g>
	<g>
		<path class="st1" d="M92.8,74c5,0,9.8-1.6,13.8-4.6l9.9-7.4H229c6.6,0,12,5.4,12,12v34v52c0,6.6-5.4,12-12,12H29
			c-6.6,0-12-5.4-12-12v-52V86c0-6.6,5.4-12,12-12h58H92.8z"/>
	</g>
</g>
<g>
	<path class="st2" d="M92.8,74c5,0,9.8-1.6,13.8-4.6l9.9-7.4H229c6.6,0,12,5.4,12,12v34v90c0,6.6-5.4,12-12,12H29
		c-6.6,0-12-5.4-12-12v-90V86c0-6.6,5.4-12,12-12h58H92.8z"/>
</g>
<g id="g3529_00000039816251807050287390000007129912403518613672_" transform="matrix(1.9545454,0,0,1.9545454,-3762.4142,-1800.0459)">
	<path id="path5524_00000144308653227789780240000004491418396110252216_" class="st3" d="M2021.9,991.1c0,15.2-12.3,27.5-27.5,27.5
		s-27.5-12.3-27.5-27.5s12.3-27.5,27.5-27.5C2009.6,963.5,2021.9,975.8,2021.9,991.1L2021.9,991.1z"/>
	<path id="path5526_00000046302581044976765820000006234502538748110263_" d="M1988.1,965.2c-0.9,0-1.6,0.7-1.6,1.6v5.4
		c0,0.9,0.7,1.6,1.6,1.6h4.7c0.8,4.1,0.5,5.9-1.1,10.3c-1.1-1.4-2.7-2.3-4.5-3c-1.5-0.6-2.8-1.5-3.3-2.5c0.1-0.2,0.2-0.4,0.2-0.7
		v-5.4c0-0.9-0.7-1.6-1.6-1.6h-5.4c-0.9,0-1.6,0.7-1.6,1.6v5.4c0,0.9,0.7,1.6,1.6,1.6h5.4c0.4,0,0.8-0.2,1.1-0.5
		c0.3,1.4,1.5,2.3,3.3,3.3c1.7,0.9,3.1,2.9,3.7,4.8c-0.3,0.9-0.7,1.9-1.1,3.1c-0.7,2.2-1.7,4.8-2.4,7.7c-0.8-0.4-1.6-0.7-2.4-0.9
		c-0.4-0.2-0.6-0.5-0.8-0.7c-0.6-0.9-0.2-2.5-0.4-3.7h2.1c0.9,0,1.6-0.7,1.6-1.6v-5.4c0-0.9-0.7-1.6-1.6-1.6h-5.4
		c-0.9,0-1.6,0.7-1.6,1.6v5.4c0,0.9,0.7,1.6,1.6,1.6h2.9c-0.1,1.2-1,3.1-0.2,4.2l0,0c-0.1,0-0.1,0-0.2,0c-3.2,0.1-5-0.4-6.9-1.6
		c0.3-0.3,0.5-0.7,0.5-1.1v-5.4c0-0.9-0.7-1.6-1.6-1.6h-5.4c-0.9,0-1.6,0.7-1.6,1.6v5.4c0,0.9,0.7,1.6,1.6,1.6h5.4
		c0.1,0,0.2,0,0.3,0c1.7,1.6,4,2.8,7.4,3.3c2.1,0.3,3.3,0.7,4.1,1.3c-0.7,4.3-0.6,9,1.8,13.9c0.4,0.1,0.8,0.1,1.2,0.2
		c0.8,0.1,1.7,0.1,2.5,0.1s1.7,0,2.5-0.1c0.3,0,1.2-0.2,1.5-0.2c-4-7.1-4.7-13.4-3.4-19.4c0.5-0.5,1-0.8,1.6-1.1
		c1.5-0.7,3.8-1.2,5.5-1.3c3.4-0.3,6.9-1.3,7.6-4c0.3,0.3,0.7,0.4,1.1,0.4h5.4c0.9,0,1.6-0.7,1.6-1.6v-5.4c0-0.9-0.7-1.6-1.6-1.6
		h-5.4c-0.9,0-1.6,0.7-1.6,1.6v5.4c0,0.2,0,0.3,0.1,0.4c-0.4,1.8-2.7,2.3-4.8,2.4c0.7-0.7,1-1.5,1.4-2.3c0.7-1.6,0.4-3.6,0.2-4.5
		c-0.4-1.2-0.6-3.3-0.4-5.1h2.1c0.9,0,1.6-0.7,1.6-1.6v-5.4c0-0.9-0.7-1.6-1.6-1.6h-5.4c-0.9,0-1.6,0.7-1.6,1.6v5.4
		c0,0.9,0.7,1.6,1.6,1.6h2.7c-0.6,1.6-0.5,3.4-0.2,5.3c0.1,0.8,0,2.5-0.6,3.7c-0.5,1.1-1.1,1.9-3.6,3.2c-1.5,0.1-3.4,0.3-4.9,0.9
		c2.7-8.6,1.3-14.2,0.1-17.5c0.7-0.2,1.2-0.8,1.2-1.5v-5.4c0-0.9-0.7-1.6-1.6-1.6L1988.1,965.2L1988.1,965.2z"/>
	<path id="path5528_00000170252695543601637840000012959034223343073712_" d="M1997.4,965.6c0.1,0.4,0.2,0.7,0.2,1.1v1.5
		c0.7-0.7,1.7-1.2,2.8-1.2h1.5C2000.4,966.4,1998.9,965.9,1997.4,965.6L1997.4,965.6z M1984,966.5c-1.3,0.5-2.6,1.1-3.9,1.8h2.3
		c0.5,0,1.1,0.1,1.5,0.3v-1.8C1984,966.6,1984,966.6,1984,966.5L1984,966.5z M2009.8,972.6v3.9c0,0.4-0.1,0.8-0.2,1.1h4
		C2012.6,975.8,2011.3,974.1,2009.8,972.6L2009.8,972.6z M1973,974.3c-2.4,3-4.1,6.6-4.9,10.5c0.4-0.2,0.9-0.3,1.4-0.3h3.8
		c0.3-1.2,0.8-2.4,1.3-3.6c-1-0.8-1.7-1.9-1.7-3.3L1973,974.3L1973,974.3z M2016.7,990.1c-0.7,0.7-1.7,1.1-2.7,1.1h-2.4
		c-0.7,8.6-6.9,15.7-15.2,17.5c0.5,1.3,1.2,2.6,2,4c0.1,0.2,0.2,0.4,0.2,0.6C2008.9,1010.5,2016.5,1001.2,2016.7,990.1z M1969.1,998
		c2.7,7.3,8.8,13,16.3,15.2c-0.8-2-1.2-4-1.4-5.9c-4.1-1.9-7.4-5.1-9.4-9.1c-0.1-0.1-0.2-0.2-0.3-0.2h-4.8
		C1969.3,998.1,1969.2,998.1,1969.1,998L1969.1,998z"/>
</g>
</svg>
