<?xml version="1.0" encoding="utf-8"?>
<!-- Generator: Adobe Illustrator 28.1.0, SVG Export Plug-In . SVG Version: 6.00 Build 0)  -->
<svg version="1.1" id="图层_1" xmlns="http://www.w3.org/2000/svg" xmlns:xlink="http://www.w3.org/1999/xlink" x="0px" y="0px"
	 width="256px" height="256px" viewBox="0 0 256 256" style="enable-background:new 0 0 256 256;" xml:space="preserve">
<style type="text/css">
	.st0{fill-rule:evenodd;clip-rule:evenodd;fill:url(#SVGID_1_);}
	
		.st1{fill-rule:evenodd;clip-rule:evenodd;fill:url(#SVGID_00000167383015977441791590000007404445898040714148_);filter:url(#Adobe_OpacityMaskFilter);}
	.st2{mask:url(#d_00000019646384730224338150000001784292420518837666_);}
	.st3{fill-rule:evenodd;clip-rule:evenodd;fill-opacity:0.3;}
	.st4{fill-rule:evenodd;clip-rule:evenodd;fill:url(#SVGID_00000097461922769538372350000004769725566232126636_);}
	.st5{display:none;fill-rule:evenodd;clip-rule:evenodd;fill:#525252;}
	.st6{fill:#FEFEFE;}
	.st7{fill:#505050;}
	.st8{fill:#4C81B6;}
	.st9{fill:#4D81B7;}
	.st10{fill:#EAC284;}
	.st11{fill:#5184B8;}
</style>
<linearGradient id="SVGID_1_" gradientUnits="userSpaceOnUse" x1="32.5816" y1="239.5494" x2="213.3496" y2="58.4074" gradientTransform="matrix(1 0 0 -1 0 258)">
	<stop  offset="0" style="stop-color:#717171"/>
	<stop  offset="1" style="stop-color:#282828"/>
</linearGradient>
<path class="st0" d="M104.4,42.4c-4.4-5.3-10.9-8.4-17.8-8.4H29c-6.6,0-12,5.4-12,12v114c0,6.6,5.4,12,12,12h200c6.6,0,12-5.4,12-12
	V70.1c0-6.6-5.4-12-12-12H117.4C117.4,58.1,104.4,42.4,104.4,42.4z"/>
<defs>
	<filter id="Adobe_OpacityMaskFilter" filterUnits="userSpaceOnUse" x="17" y="62" width="224" height="110">
		<feColorMatrix  type="matrix" values="1 0 0 0 0  0 1 0 0 0  0 0 1 0 0  0 0 0 1 0"/>
	</filter>
</defs>
<mask maskUnits="userSpaceOnUse" x="17" y="62" width="224" height="110" id="d_00000019646384730224338150000001784292420518837666_">
	
		<linearGradient id="SVGID_00000049210145036168467500000001120796525938828694_" gradientUnits="userSpaceOnUse" x1="32.5816" y1="239.5494" x2="213.3496" y2="58.4074" gradientTransform="matrix(1 0 0 -1 0 258)">
		<stop  offset="0" style="stop-color:#05815D"/>
		<stop  offset="1" style="stop-color:#0C575F"/>
	</linearGradient>
	
		<path style="fill-rule:evenodd;clip-rule:evenodd;fill:url(#SVGID_00000049210145036168467500000001120796525938828694_);filter:url(#Adobe_OpacityMaskFilter);" d="
		M104.4,42.4c-4.4-5.3-10.9-8.4-17.8-8.4H29c-6.6,0-12,5.4-12,12v114c0,6.6,5.4,12,12,12h200c6.6,0,12-5.4,12-12V70.1
		c0-6.6-5.4-12-12-12H117.4C117.4,58.1,104.4,42.4,104.4,42.4z"/>
</mask>
<g class="st2">
	<path class="st3" d="M92.8,74c5,0,9.8-1.6,13.8-4.6l9.9-7.4H229c6.6,0,12,5.4,12,12v86c0,6.6-5.4,12-12,12H29c-6.6,0-12-5.4-12-12
		V86c0-6.6,5.4-12,12-12H92.8z"/>
</g>
<g>
	
		<linearGradient id="SVGID_00000105385321594322429810000016393903328576864434_" gradientUnits="userSpaceOnUse" x1="17" y1="196" x2="241" y2="48" gradientTransform="matrix(1 0 0 -1 0 258)">
		<stop  offset="0" style="stop-color:#F5F5F5"/>
		<stop  offset="1" style="stop-color:#C6C6C6"/>
	</linearGradient>
	<path style="fill-rule:evenodd;clip-rule:evenodd;fill:url(#SVGID_00000105385321594322429810000016393903328576864434_);" d="
		M92.8,74c5,0,9.8-1.6,13.8-4.6l9.9-7.4H229c6.6,0,12,5.4,12,12v124c0,6.6-5.4,12-12,12H29c-6.6,0-12-5.4-12-12V86
		c0-6.6,5.4-12,12-12H92.8z"/>
</g>
<path class="st5" d="M127.9,88c-27,0-48.9,22-48.9,49.2c0,21.8,14,40.2,33.4,46.7c2.4,0.5,3.3-1.1,3.3-2.4c0-1.1-0.1-5.1-0.1-9.1
	c-13.6,2.9-16.4-5.9-16.4-5.9c-2.2-5.7-5.4-7.2-5.4-7.2c-4.4-3,0.3-3,0.3-3c4.9,0.3,7.5,5.1,7.5,5.1c4.4,7.5,11.4,5.4,14.2,4.1
	c0.4-3.2,1.7-5.4,3.1-6.6c-10.8-1.1-22.2-5.4-22.2-24.3c0-5.4,1.9-9.8,5-13.2c-0.5-1.2-2.2-6.3,0.5-13c0,0,4.1-1.3,13.4,5.1
	c4-1.1,8.1-1.6,12.2-1.6c4.1,0,8.3,0.6,12.2,1.6c9.3-6.4,13.4-5.1,13.4-5.1c2.7,6.8,1,11.8,0.5,13c3.2,3.4,5,7.8,5,13.2
	c0,18.9-11.4,23.1-22.3,24.3c1.8,1.5,3.3,4.5,3.3,9.1c0,6.6-0.1,11.9-0.1,13.5c0,1.3,0.9,2.9,3.3,2.4c19.4-6.5,33.4-24.9,33.4-46.7
	C176.7,110,154.8,88,127.9,88z"/>
<path class="st6" d="M72.7,202.9"/>
<path class="st6" d="M133.8,130.7c0-2.6-0.1-5.2,0-7.8c0.1-1.4-0.5-1.6-1.8-1.6c-15,0-30.1,0-45.1,0c-0.6,0-1.4-0.3-1.8,0.5
	c-0.6,1.2,0.2,5.8,1.3,6.9c6.6,6.8,13.1,13.6,19.7,20.4c1.2,1.2,1.3,1.9,0,3.2c-6.1,5.7-12,11.6-18.2,17.2c-2.2,2-3.1,4.1-2.9,7
	c0.1,1.5,0.6,1.8,1.9,1.8c2.7-0.1,5.5-0.4,8.1,0c5.1,0.8,6.7-3.3,10.1-6.3c-3,0-5.3,0-7.5,0c-0.2-0.3-0.5-0.6-0.7-0.9
	c6.6-6.3,13.1-12.6,19.8-18.8c1.4-1.3,1.6-2.1,0.1-3.6c-6.2-6.2-12.2-12.6-18.3-18.9c-0.5-0.5-1.4-1-1.1-1.8c0.4-1,1.5-0.5,2.2-0.5
	c9.2,0,18.4,0,27.6-0.1C130,127.3,132.3,127.9,133.8,130.7z"/>
<path class="st6" d="M141.7,154.4c2.1-0.1,3.7-0.8,5.1-2.2c7.5-7.5,15-15,22.6-22.5c0.9-0.9,0.8-1.4,0-2.2c-2.4-2.3-4.9-4.7-7.1-7.2
	c-1.3-1.4-2-1.1-3.2,0.1c-6.9,7-13.9,14-20.9,21c-0.8,0.8-1.5,1.6-2.1,2.5c-1.8,2.9-1.7,4.2,0.7,6.6c1,1,2,2,3,3
	C140.3,154.1,140.9,154.5,141.7,154.4z"/>
<path class="st6" d="M192.1,103.4c0-3.3-1.9-5.6-5.2-6.2c-2.7-0.5-5,0.5-6.9,2.4c-5.4,5.3-10.6,10.6-16,15.9c-1.1,1-0.7,1.6,0.2,2.4
	c2.4,2.4,4.9,4.7,7.2,7.2c1.1,1.2,1.8,0.9,2.8-0.1c5.1-5.2,10.3-10.3,15.4-15.4C191.2,107.8,192.2,105.8,192.1,103.4z"/>
<path class="st6" d="M104.8,176.8c1.4,0.5,2.7,1.6,3.6,0.7c2.6-2.7,5.9-2.6,9.2-2.6c2.7,0,4.7-1.5,4.9-3.8c0.2-2.2,0.9-4.2,2-5.9
	c1.6-2.4-0.1-3.6-1.6-4.8c-1.7-1.4-2.1,0.7-2.9,1.3c-2.3,2-4.3,4.3-6.5,6.4C110.7,171,107.8,173.8,104.8,176.8z"/>
<path class="st6" d="M140.2,158.6c-0.2-0.3-0.4-0.5-0.5-0.7c-2.8-2.8-5.6-5.6-8.4-8.4c-0.7-0.7-1.2-0.4-1.6,0.2
	c-1.3,1.9-2.6,3.9-4,5.8c-0.3,0.4-0.5,0.9,0,1.3c2.3,2.3,4.4,5.3,7.2,6.6c1.7,0.8,3.9-2.3,6-3.5c0.3-0.2,0.6-0.4,0.8-0.6
	C139.9,159.2,140,158.9,140.2,158.6z"/>
<path class="st6" d="M197.1,112c0-0.7-0.2-1.2-0.8-1.4c-1.2-0.5-1.9,0.3-2.6,1c-6.4,6.4-12.9,12.9-19.3,19.3c-0.9,0.9-1.7,1.9-0.5,3
	c1.1,1,2,0.1,2.8-0.7c6.4-6.4,12.9-12.9,19.3-19.3C196.4,113.3,197,112.8,197.1,112z"/>
<path class="st6" d="M122.3,178c3.8,0,7.3,0,10.7,0c0.7,0,0.8-0.5,0.8-1c0-2.7,0-5.4,0-8.5c-1.2,1.3-1.3,3.2-2.8,3.1
	c-3.7-0.3-5.3,2-6.8,4.7C123.8,176.9,123.1,177.2,122.3,178z"/>
<path class="st7" d="M133.8,130.7c-1.4-2.9-3.7-3.4-6.6-3.4c-9.2,0.1-18.4,0-27.6,0.1c-0.7,0-1.8-0.6-2.2,0.5
	c-0.3,0.8,0.6,1.3,1.1,1.8c6.1,6.3,12.1,12.7,18.3,18.9c1.5,1.5,1.3,2.3-0.1,3.6c-6.6,6.2-13.2,12.5-19.8,18.8
	c0.2,0.3,0.5,0.6,0.7,0.9c2.2,0,4.5,0,7.5,0c-3.4,3-4.9,7.1-10.1,6.3c-2.6-0.4-5.4-0.1-8.1,0c-1.3,0-1.8-0.3-1.9-1.8
	c-0.2-2.9,0.7-5,2.9-7c6.2-5.6,12.1-11.5,18.2-17.2c1.4-1.3,1.2-2,0-3.2c-6.6-6.7-13.2-13.6-19.7-20.4c-1.1-1.1-1.9-5.7-1.3-6.9
	c0.4-0.8,1.2-0.5,1.8-0.5c15,0,30.1,0,45.1,0c1.2,0,1.8,0.2,1.8,1.6C133.7,125.5,133.8,128.1,133.8,130.7z"/>
<path class="st8" d="M141.7,154.4c-0.7,0.1-1.3-0.3-1.9-0.9c-1-1-2-2-3-3c-2.4-2.4-2.5-3.7-0.7-6.6c0.6-0.9,1.3-1.8,2.1-2.5
	c7-7,14-14,20.9-21c1.2-1.2,1.9-1.5,3.2-0.1c2.3,2.5,4.7,4.8,7.1,7.2c0.9,0.8,0.9,1.3,0,2.2c-7.6,7.5-15,15-22.6,22.5
	C145.4,153.6,143.7,154.3,141.7,154.4z"/>
<path class="st9" d="M192.1,103.4c0.1,2.4-0.9,4.4-2.6,6.1c-5.1,5.1-10.3,10.3-15.4,15.4c-1,1-1.7,1.3-2.8,0.1
	c-2.3-2.5-4.7-4.8-7.2-7.2c-0.8-0.8-1.2-1.4-0.2-2.4c5.4-5.3,10.6-10.6,16-15.9c1.9-1.8,4.2-2.8,6.9-2.4
	C190.2,97.7,192.1,100.1,192.1,103.4z"/>
<path class="st10" d="M104.8,176.8c3-3,5.9-5.8,8.7-8.7c2.2-2.1,4.2-4.4,6.5-6.4c0.8-0.7,1.2-2.7,2.9-1.3c1.4,1.2,3.1,2.4,1.6,4.8
	c-1.1,1.8-1.8,3.7-2,5.9c-0.2,2.3-2.2,3.8-4.9,3.8c-3.3,0-6.5-0.1-9.2,2.6C107.5,178.4,106.2,177.3,104.8,176.8z"/>
<path class="st11" d="M140.2,158.6c-0.2,0.3-0.3,0.6-0.5,0.8c-0.2,0.2-0.5,0.5-0.8,0.6c-2.1,1.2-4.4,4.2-6,3.5
	c-2.8-1.3-4.8-4.3-7.2-6.6c-0.5-0.5-0.3-0.9,0-1.3c1.3-2,2.6-3.9,4-5.8c0.4-0.6,1-0.9,1.6-0.2c2.8,2.8,5.6,5.6,8.4,8.4
	C139.8,158.2,140,158.4,140.2,158.6z"/>
<path class="st11" d="M197.1,112c-0.1,0.8-0.6,1.4-1.2,1.9c-6.4,6.4-12.9,12.9-19.3,19.3c-0.8,0.8-1.8,1.7-2.8,0.7
	c-1.2-1.1-0.4-2.1,0.5-3c6.4-6.4,12.9-12.9,19.3-19.3c0.7-0.7,1.5-1.5,2.6-1C196.9,110.8,197.1,111.3,197.1,112z"/>
<path class="st7" d="M122.3,178c0.9-0.8,1.5-1.2,1.8-1.7c1.5-2.7,3.2-5,6.8-4.7c1.5,0.1,1.6-1.7,2.8-3.1c0,3.1,0,5.8,0,8.5
	c0,0.5-0.1,1-0.8,1C129.5,178,126.1,178,122.3,178z"/>
</svg>
