<?xml version="1.0" encoding="UTF-8"?>
<svg xmlns="http://www.w3.org/2000/svg" width="256" height="256" version="1.1" xmlns:xlink="http://www.w3.org/1999/xlink" viewBox="0 0 256 256">
  <!-- Generator: Adobe Illustrator 29.2.1, SVG Export Plug-In . SVG Version: 2.1.0 Build 116)  -->
  <defs>
    <style>
      .st0 {
        fill-opacity: .3;
      }

      .st0, .st1, .st2, .st3 {
        fill-rule: evenodd;
      }

      .st4 {
        fill: #4e94ea;
      }

      .st5 {
        mask: url(#mask);
      }

      .st1 {
        fill: #374972;
      }

      .st2 {
        fill: url(#_未命名的渐变);
      }

      .st6 {
        isolation: isolate;
      }

      .st7 {
        mix-blend-mode: multiply;
      }

      .st3 {
        fill: url(#_未命名的渐变_17);
      }
    </style>
    <linearGradient id="_未命名的渐变" data-name="未命名的渐变" x1="32.6" y1="239.5" x2="213.3" y2="58.4" gradientTransform="translate(0 258) scale(1 -1)" gradientUnits="userSpaceOnUse">
      <stop offset="0" stop-color="#05815d"/>
      <stop offset="1" stop-color="#0c575f"/>
    </linearGradient>
    <mask id="mask" x="17" y="34" width="224" height="138" maskUnits="userSpaceOnUse">
      <g id="mask0_539_13299">
        <path class="st2" d="M104.4,42.4c-4.4-5.3-10.9-8.4-17.8-8.4H29c-6.6,0-12,5.4-12,12v114c0,6.6,5.4,12,12,12h200c6.6,0,12-5.4,12-12v-89.9c0-6.6-5.4-12-12-12h-111.6l-13-15.8Z"/>
      </g>
    </mask>
    <linearGradient id="_未命名的渐变_17" data-name="未命名的渐变 17" x1="17" y1="196" x2="241" y2="48" gradientTransform="translate(0 258) scale(1 -1)" gradientUnits="userSpaceOnUse">
      <stop offset="0" stop-color="#d0d5dd"/>
      <stop offset=".4" stop-color="#ced5df"/>
      <stop offset=".7" stop-color="#c9d5e9"/>
      <stop offset=".9" stop-color="#c2d5f8"/>
      <stop offset="1" stop-color="#bfd6ff"/>
    </linearGradient>
  </defs>
  <g class="st6">
    <g id="_图层_1" data-name="图层_1">
      <path class="st1" d="M104.4,42.4c-4.4-5.3-10.9-8.4-17.8-8.4H29c-6.6,0-12,5.4-12,12v114c0,6.6,5.4,12,12,12h200c6.6,0,12-5.4,12-12v-89.9c0-6.6-5.4-12-12-12h-111.6l-13-15.8Z"/>
      <g class="st5">
        <g class="st7">
          <path class="st0" d="M92.8,74c5,0,9.8-1.6,13.8-4.6l9.9-7.4h112.5c6.6,0,12,5.4,12,12v86c0,6.6-5.4,12-12,12H29c-6.6,0-12-5.4-12-12v-74c0-6.6,5.4-12,12-12h63.8Z"/>
        </g>
      </g>
      <path class="st3" d="M92.8,74c5,0,9.8-1.6,13.8-4.6l9.9-7.4h112.5c6.6,0,12,5.4,12,12v124c0,6.6-5.4,12-12,12H29c-6.6,0-12-5.4-12-12v-112c0-6.6,5.4-12,12-12h63.8Z"/>
      <path class="st4" d="M116.4,188.2c-9.7-5.9-19.1-14.1-25.4-23.7-5.6-8.4-8.5-17.6-10.3-27.5-2.4-13.3-3.1-26.9-3.1-40.4,17.5.7,34.8-4.7,49.2-14.3,14.3,9.7,31.7,15,49.1,14.3,0,2.6,0,5.1,0,7.7-.3,15.8-2,35.3-7.9,50-5.8,14.2-18,26.2-31,34s-2.6,1.5-3.9,2.1c-2,1.1-4.1,2-6.3,3-3.6-1.4-7.1-3.2-10.4-5.2ZM171.2,113.8c.2-3.8.3-7.5.4-11.3s0-1.5,0-2.3c-7.8.4-15.8-.7-23.3-2.9s-14.9-5.7-21.5-10.1c-8.1,5.4-17.2,9.4-26.7,11.4s-12.1,2-18.1,1.6c0,4.8,0,9.6.3,14.3.8,17.3,3.6,38,14.8,51.8s17.4,16.7,27.5,21.2c.5.2,1.8.9,2.2.9s1.3-.5,1.7-.7c12.6-5.6,25.6-16.3,32.6-28.3,7.6-13.1,9.5-30.8,10.2-45.7Z"/>
      <path class="st4" d="M90.7,114.6c0-.7-.1-1.5-.1-2.1,0-1.6,0-3.2,0-4.8,4.8.3,9.8-.2,14.4-1.2,7.8-1.7,15.1-4.8,21.7-9.2,6.6,4.4,14,7.6,21.7,9.2s9.6,1.5,14.3,1.2c0,2.2,0,4.4,0,6.6-.1,5.5-.6,11.4-1.3,17s-.4,2.3-.5,3.4h-6.1s-.4-.1-.4-.1l-9.9-13.7-7.2,17.9-11-33.3-11,33.4-7.5-17.7-10,13.5h-5.4c-.4-2-.7-4-.9-6-.5-4.7-.8-9.4-.9-14.1Z"/>
      <path class="st4" d="M101.4,143.5c0-.1,0-.2.1-.3,1.6-1.8,2.9-4.2,4.5-5.9s.1-.3.4-.2l9.5,25.1,10.7-30.2,10.1,30.3,9.8-25.5c1.6,2,3.2,4.2,4.6,6.3h8c0,.6-.3,1.3-.5,1.9-3,9.9-8.5,17.6-16.5,24.1-4.7,3.9-9.9,7.1-15.5,9.5-15-6.5-28.5-18.8-32.4-35.2h7.1Z"/>
    </g>
  </g>
</svg>