<?xml version="1.0" encoding="utf-8"?>
<!-- Generator: Adobe Illustrator 28.1.0, SVG Export Plug-In . SVG Version: 6.00 Build 0)  -->
<svg version="1.1" id="图层_1" xmlns="http://www.w3.org/2000/svg" xmlns:xlink="http://www.w3.org/1999/xlink" x="0px" y="0px"
	 width="256px" height="256px" viewBox="0 0 256 256" style="enable-background:new 0 0 256 256;" xml:space="preserve">
<style type="text/css">
	.st0{fill-rule:evenodd;clip-rule:evenodd;fill:#2D2C2B;}
	.st1{fill-rule:evenodd;clip-rule:evenodd;fill:url(#SVGID_1_);filter:url(#Adobe_OpacityMaskFilter);}
	.st2{mask:url(#mask0_539_13259_00000176028830547243893080000013996626927651063705_);}
	.st3{fill-rule:evenodd;clip-rule:evenodd;fill-opacity:0.3;}
	.st4{fill-rule:evenodd;clip-rule:evenodd;fill:url(#SVGID_00000067226567867154185540000000527642268236800410_);}
	.st5{fill:#2C2B2C;}
	.st6{fill-rule:evenodd;clip-rule:evenodd;fill:#2C2B2C;}
</style>
<path class="st0" d="M104.4,42.4c-4.4-5.3-10.9-8.4-17.8-8.4H29c-6.6,0-12,5.4-12,12v12.1v10.1V160c0,6.6,5.4,12,12,12h200
	c6.6,0,12-5.4,12-12V70.1c0-6.6-5.4-12-12-12H117.4L104.4,42.4z"/>
<defs>
	<filter id="Adobe_OpacityMaskFilter" filterUnits="userSpaceOnUse" x="17" y="62" width="224" height="110">
		<feColorMatrix  type="matrix" values="1 0 0 0 0  0 1 0 0 0  0 0 1 0 0  0 0 0 1 0"/>
	</filter>
</defs>
<mask maskUnits="userSpaceOnUse" x="17" y="62" width="224" height="110" id="mask0_539_13259_00000176028830547243893080000013996626927651063705_">
	
		<linearGradient id="SVGID_1_" gradientUnits="userSpaceOnUse" x1="32.5816" y1="239.5494" x2="213.3495" y2="58.4074" gradientTransform="matrix(1 0 0 -1 0 258)">
		<stop  offset="0" style="stop-color:#05815D"/>
		<stop  offset="1" style="stop-color:#0C575F"/>
	</linearGradient>
	<path class="st1" d="M104.4,42.4c-4.4-5.3-10.9-8.4-17.8-8.4H29c-6.6,0-12,5.4-12,12v12.1v10.1V160c0,6.6,5.4,12,12,12h200
		c6.6,0,12-5.4,12-12V70.1c0-6.6-5.4-12-12-12H117.4L104.4,42.4z"/>
</mask>
<g class="st2">
	<g>
		<path class="st3" d="M92.8,74c5,0,9.8-1.6,13.8-4.6l9.9-7.4H229c6.6,0,12,5.4,12,12v34v52c0,6.6-5.4,12-12,12H29
			c-6.6,0-12-5.4-12-12v-52V86c0-6.6,5.4-12,12-12h58H92.8z"/>
	</g>
</g>
<g>
	
		<linearGradient id="SVGID_00000121997370873218274790000002412870312654839955_" gradientUnits="userSpaceOnUse" x1="17" y1="196" x2="241" y2="48" gradientTransform="matrix(1 0 0 -1 0 258)">
		<stop  offset="0" style="stop-color:#00DBFF"/>
		<stop  offset="1" style="stop-color:#A75BF4"/>
	</linearGradient>
	<path style="fill-rule:evenodd;clip-rule:evenodd;fill:url(#SVGID_00000121997370873218274790000002412870312654839955_);" d="
		M92.8,74c5,0,9.8-1.6,13.8-4.6l9.9-7.4H229c6.6,0,12,5.4,12,12v34v90c0,6.6-5.4,12-12,12H29c-6.6,0-12-5.4-12-12v-90V86
		c0-6.6,5.4-12,12-12h58H92.8z"/>
</g>
<g>
	<g>
		<g id="_x32_0_18_">
			<g>
				<path class="st5" d="M139.9,150.9h-23.7c-1.7,0-3.2,1.4-3.2,3.2v9.7c0,1.7,1.4,3.2,3.2,3.2h23.7c1.7,0,3.2-1.4,3.2-3.2V154
					C143.1,152.3,141.7,150.9,139.9,150.9z"/>
				<path class="st5" d="M150.1,160.1c0-5.6,0-11.5,0-12.9c0-3.5-1.2-4.6-3.1-6.2l0,0c-2.1-1.7-3.9-3.1-5.5-4.3
					c-0.1-0.1-0.4-0.3-0.4-0.5v-4.4h1.7v-4.2h0c0-3.2-2.6-5.8-5.9-5.8h-17.6c-3.2,0-5.9,2.6-5.9,5.9c0,0,0,0,0,0v4.2h1.7v4.4
					c0,0.2-0.3,0.5-0.4,0.5c-1.6,1.2-3.4,2.6-5.5,4.3l0,0c-1.9,1.6-3.1,2.7-3.1,6.2c0,1.4,0,7.2,0,12.9c0,5.3,0,10.3,0,11.5
					c0,3.3,2.5,6.8,6.8,6.8h15.4c0.1,0,13.7,0,15.1,0c4.2,0,6.8-3.4,6.8-6.8C150.1,170.4,150.1,165.3,150.1,160.1z M143.3,174.1
					c-1.4,0-15,0-15.1,0h-15.4c-1.8,0-2.5-1.5-2.5-2.5c0-1.1,0-6.2,0-11.5c0-5.6,0-11.5,0-12.9c0-1.7,0.1-1.7,1.5-2.9l0,0
					c2.1-1.7,3.8-3,5.4-4.2c1.3-1,2.1-2.4,2.1-4v-4.4h17.5v4.4c0,1.5,0.8,3,2.1,4c1.6,1.2,3.3,2.5,5.4,4.2l0,0
					c1.5,1.2,1.5,1.2,1.5,2.9c0,1.4,0,7.2,0,12.9c0,5.3,0,10.3,0,11.5C145.9,172.6,145.2,174.1,143.3,174.1z"/>
			</g>
		</g>
	</g>
	<g id="web-app">
		<g id="line-chart">
			<path id="Shape" class="st6" d="M104.9,110c0.4,0.8,0.6,1.8,0.6,2.7c0,3.7-3,6.6-6.6,6.6c-3.7,0-6.6-3-6.6-6.6s3-6.6,6.6-6.6
				c1,0,1.9,0.2,2.7,0.6l7.8-7.8c-0.4-0.8-0.6-1.8-0.6-2.7c0-3.7,3-6.6,6.6-6.6s6.6,3,6.6,6.6c0,1-0.2,1.9-0.6,2.7l7.8,7.8
				c0.8-0.4,1.8-0.6,2.7-0.6c1,0,1.9,0.2,2.7,0.6L146,95.5c-0.4-0.8-0.6-1.8-0.6-2.7c0-3.7,3-6.6,6.6-6.6s6.6,3,6.6,6.6
				s-3,6.6-6.6,6.6c-1,0-1.9-0.2-2.7-0.6L138.2,110c0.4,0.8,0.6,1.8,0.6,2.7c0,3.7-3,6.6-6.6,6.6s-6.6-3-6.6-6.6
				c0-1,0.2-1.9,0.6-2.7l-7.8-7.8c-0.8,0.4-1.8,0.6-2.7,0.6s-1.9-0.2-2.7-0.6L104.9,110z"/>
		</g>
	</g>
</g>
</svg>
