<?xml version="1.0" encoding="UTF-8"?>
<svg xmlns="http://www.w3.org/2000/svg" width="256" height="256" version="1.1" xmlns:xlink="http://www.w3.org/1999/xlink" viewBox="0 0 256 256">
  <!-- Generator: Adobe Illustrator 30.0.0, SVG Export Plug-In . SVG Version: 2.1.1 Build 123)  -->
  <defs>
    <style>
      .st0 {
        fill-opacity: .3;
      }

      .st0, .st1, .st2, .st3, .st4 {
        fill-rule: evenodd;
      }

      .st5 {
        mask: url(#mask);
      }

      .st1, .st6 {
        fill: #fff;
      }

      .st6 {
        display: none;
      }

      .st2 {
        fill: #ea0400;
      }

      .st3 {
        fill: url(#_未命名的渐变);
      }

      .st7 {
        isolation: isolate;
      }

      .st8 {
        mix-blend-mode: multiply;
      }

      .st4 {
        fill: url(#_未命名的渐变_2);
      }
    </style>
    <linearGradient id="_未命名的渐变" data-name="未命名的渐变" x1="32.58" y1="237.55" x2="213.35" y2="56.41" gradientTransform="translate(0 256) scale(1 -1)" gradientUnits="userSpaceOnUse">
      <stop offset="0" stop-color="#05815d"/>
      <stop offset="1" stop-color="#0c575f"/>
    </linearGradient>
    <mask id="mask" x="17" y="34" width="224" height="138" maskUnits="userSpaceOnUse">
      <g id="mask0_841_21085">
        <path class="st3" d="M104.43,42.38c-4.37-5.31-10.88-8.38-17.75-8.38H29c-6.63,0-12,5.37-12,12v114c0,6.63,5.37,12,12,12h200c6.63,0,12-5.37,12-12v-89.86c0-6.63-5.37-12-12-12h-111.6l-12.98-15.76Z"/>
      </g>
    </mask>
    <linearGradient id="_未命名的渐变_2" data-name="未命名的渐变 2" x1="17" y1="194" x2="241" y2="46" gradientTransform="translate(0 256) scale(1 -1)" gradientUnits="userSpaceOnUse">
      <stop offset="0" stop-color="#eb6b68"/>
      <stop offset="1" stop-color="#f13834"/>
    </linearGradient>
  </defs>
  <g class="st7">
    <g id="_图层_1" data-name="图层_1">
      <path class="st2" d="M104.43,42.38c-4.37-5.31-10.88-8.38-17.75-8.38H29c-6.63,0-12,5.37-12,12v114c0,6.63,5.37,12,12,12h200c6.63,0,12-5.37,12-12v-89.86c0-6.63-5.37-12-12-12h-111.6l-12.98-15.76Z"/>
      <g class="st5">
        <g class="st8">
          <path class="st0" d="M92.79,74c4.98,0,9.82-1.61,13.8-4.6l9.87-7.4h112.54c6.63,0,12,5.37,12,12v86c0,6.63-5.37,12-12,12H29c-6.63,0-12-5.37-12-12v-74c0-6.63,5.37-12,12-12h63.79Z"/>
        </g>
      </g>
      <path class="st4" d="M92.79,74c4.98,0,9.82-1.61,13.8-4.6l9.87-7.4h112.54c6.63,0,12,5.37,12,12v124c0,6.63-5.37,12-12,12H29c-6.63,0-12-5.37-12-12v-112c0-6.63,5.37-12,12-12h63.79Z"/>
      <path class="st6" d="M136.93,140.57c15.19,0,18.06-9.03,18.06-18.06,0-8.53-2.81-17.46-17.59-18.05h-.06s-11.9,0-11.9,0v22.99c0,2.87-2.36,4.93-4.72,4.93s-4.72-2.05-4.72-4.93v-27.61s0-.1,0-.1c0-1.36.5-2.53,1.36-3.36.83-.85,2-1.36,3.36-1.36h.1s.11,0,.11,0h4.52v-.02h10.26c.4,0,.94,0,1.59.02h.05c.14,0,.28,0,.41.01,7.6.26,27.5,2.88,27.5,28.71s-18.88,26.68-29.56,26.68h-21.7c-7.32-.07-11.15-.1-11.15,8.21,0,9.03,4.52,9.44,13.14,9.44v-4.91c0-2.87,2.05-4.93,4.93-4.93,2.46,0,4.93,2.46,4.93,4.93v9.85c0,2.87-2.05,4.93-4.93,4.93h-4.11c-.17,0-.33,0-.49-.02h-1.98c-12.32,0-21.35-4.51-21.35-19.29s9.03-18.06,21.35-18.06h22.58Z"/>
      <path id="WPS_logo" class="st1" d="M136.19,172.15l-9.88-20.4,8.29-17.54,9.56,19.77,19.77-41.45c.32-.96,0-2.23-.96-2.55-.32,0-.64-.32-.96-.32h-21.68l-29.97,62.49c-1.91,4.46-7.01,6.38-11.48,4.78-2.23-.96-3.83-2.55-4.78-4.46v-.32l-31.24-65.99c-1.91-3.82,0-8.61,3.83-10.52,1.28-.32,2.55-.64,3.51-.64h37.62c4.78,0,8.93,2.55,11.16,6.69l1.6,3.19-8.29,17.53-5.1-10.52c-.64-1.28-2.23-2.23-3.51-2.23h-19.13c-.96,0-1.91.96-1.91,1.91,0,.32,0,.64.32.96l19.77,41.45,12.43-25.82,8.29-17.22,4.46-8.93c1.91-4.46,6.06-7.01,10.84-7.01h37.94c4.46,0,7.97,3.51,7.97,7.97,0,1.28-.32,2.23-.64,3.51l-31.56,65.99c-1.91,4.46-7.01,6.69-11.48,4.78-2.23-.96-3.83-2.55-4.78-5.1Z"/>
    </g>
  </g>
</svg>