<?xml version="1.0" encoding="utf-8"?>
<!-- Generator: Adobe Illustrator 28.1.0, SVG Export Plug-In . SVG Version: 6.00 Build 0)  -->
<svg version="1.1" id="图层_1" xmlns="http://www.w3.org/2000/svg" xmlns:xlink="http://www.w3.org/1999/xlink" x="0px" y="0px"
	 width="256px" height="256px" viewBox="0 0 256 256" style="enable-background:new 0 0 256 256;" xml:space="preserve">
<style type="text/css">
	.st0{fill-rule:evenodd;clip-rule:evenodd;fill:url(#SVGID_1_);}
	
		.st1{fill-rule:evenodd;clip-rule:evenodd;fill:url(#SVGID_00000163065804066109455010000004964036388273346714_);filter:url(#Adobe_OpacityMaskFilter);}
	.st2{mask:url(#mask0_725_16302_00000097486003243241881120000013195210209222499218_);}
	.st3{fill-rule:evenodd;clip-rule:evenodd;fill-opacity:0.3;}
	.st4{fill-rule:evenodd;clip-rule:evenodd;fill:#5E5745;}
	.st5{fill:#6FBF43;}
	.st6{fill:#276F1C;}
	.st7{fill:#97CB3B;}
	.st8{fill:#85C63E;}
	.st9{fill:#E0EB9C;}
	.st10{fill:#EFA92B;}
	.st11{fill:#EB9625;}
	.st12{fill:#B3D653;}
	.st13{fill:#F4C24A;}
	.st14{fill:#A6D045;}
	.st15{fill:#C7DF6E;}
	.st16{fill:#EBF2B9;}
	.st17{fill:#D6E687;}
	.st18{fill:#F8D874;}
	.st19{fill:#E4500D;}
</style>
<linearGradient id="SVGID_1_" gradientUnits="userSpaceOnUse" x1="17" y1="103" x2="241" y2="103">
	<stop  offset="0" style="stop-color:#E1E1D9"/>
	<stop  offset="1" style="stop-color:#B5AE9C"/>
</linearGradient>
<path class="st0" d="M104.4,42.4c-4.4-5.3-10.9-8.4-17.8-8.4H29c-6.6,0-12,5.4-12,12v12.1v10.1V160c0,6.6,5.4,12,12,12h200
	c6.6,0,12-5.4,12-12V70.1c0-6.6-5.4-12-12-12H117.4L104.4,42.4z"/>
<defs>
	<filter id="Adobe_OpacityMaskFilter" filterUnits="userSpaceOnUse" x="17" y="62" width="224" height="110">
		<feColorMatrix  type="matrix" values="1 0 0 0 0  0 1 0 0 0  0 0 1 0 0  0 0 0 1 0"/>
	</filter>
</defs>
<mask maskUnits="userSpaceOnUse" x="17" y="62" width="224" height="110" id="mask0_725_16302_00000097486003243241881120000013195210209222499218_">
	
		<linearGradient id="SVGID_00000137114684623762906110000011337845160957991095_" gradientUnits="userSpaceOnUse" x1="32.5816" y1="239.5494" x2="213.3495" y2="58.4074" gradientTransform="matrix(1 0 0 -1 0 258)">
		<stop  offset="0" style="stop-color:#05815D"/>
		<stop  offset="1" style="stop-color:#0C575F"/>
	</linearGradient>
	
		<path style="fill-rule:evenodd;clip-rule:evenodd;fill:url(#SVGID_00000137114684623762906110000011337845160957991095_);filter:url(#Adobe_OpacityMaskFilter);" d="
		M104.4,42.4c-4.4-5.3-10.9-8.4-17.8-8.4H29c-6.6,0-12,5.4-12,12v12.1v10.1V160c0,6.6,5.4,12,12,12h200c6.6,0,12-5.4,12-12V70.1
		c0-6.6-5.4-12-12-12H117.4L104.4,42.4z"/>
</mask>
<g class="st2">
	<g>
		<path class="st3" d="M92.8,74c5,0,9.8-1.6,13.8-4.6l9.9-7.4H229c6.6,0,12,5.4,12,12v34v52c0,6.6-5.4,12-12,12H29
			c-6.6,0-12-5.4-12-12v-52V86c0-6.6,5.4-12,12-12h58H92.8z"/>
	</g>
</g>
<g>
	<path class="st4" d="M92.8,74c5,0,9.8-1.6,13.8-4.6l9.9-7.4H229c6.6,0,12,5.4,12,12v34v90c0,6.6-5.4,12-12,12H29
		c-6.6,0-12-5.4-12-12v-90V86c0-6.6,5.4-12,12-12h58H92.8z"/>
</g>
<g>
	<path class="st5" d="M192.1,132.6c-0.8,1.9-2,3.4-3.7,4.5c-0.1,0.1-0.1,0.1-0.2,0.2c0,0,0,0,0,0c-0.1,0.1-0.1,0.1-0.2,0.2
		c-0.1,0-0.1,0.1-0.2,0.1c-1.4,0.6-2.9,1.2-4.3,1.8c-0.2,0-0.3,0-0.5,0c-1.8,0.1-3.6,0.2-5.4,0c-3.9-0.3-6.8-3.2-8.1-6.9
		C177,132.6,184.6,132.6,192.1,132.6z"/>
	<path class="st6" d="M78.6,127.1c0,0.4-0.1,0.7-0.2,1.1c-1.2,3.2-2.3,6.4-3.4,9.5c-0.2,0.7-0.6,1.1-1.3,1.3
		c-1.1,0.3-2.2,0.7-3.3,1.1c-0.6-0.2-0.2-0.7-0.1-0.9c1.1-3.2,2.2-6.3,3.4-9.4c2.2-5.6,4.4-11.2,6.6-16.8c0.2-0.5,0.4-0.9-0.3-1.1
		c-1.8-1-3.6-2.1-5.4-3.1c0.1-0.6,0.4-0.3,0.8-0.3c1.1,0.2,2,1.1,3.1,1.1c0.1,0,0.1,0,0.1,0.1c0.2,0.7,0.8,0.8,1.4,0.8
		c0.1,0,0.1,0,0.2,0.1c0.5,0.8,1.2,1.2,2.1,1.3c0.1,0,0.1,0,0.2,0.1c0.1,0.5,0.5,0.6,1,0.6c0.1,0.1,0.2,0.1,0.4,0.2
		c0.1,1.1-0.9,1.9-1,2.9c-0.6,1.2-0.8,2.4-0.9,3.7c0,0-0.1,0-0.1,0c-0.3,0.5-0.6,0.9-0.8,1.5c-0.7,1.6-1.6,3.2-1.7,5
		c0,0.1,0,0.1,0,0.1c-0.2,0.1-0.2,0.2-0.2,0.4c0,0.1-0.1,0.2-0.1,0.3C78.7,126.8,78.6,126.9,78.6,127.1z"/>
	<path class="st7" d="M81.8,119.4c0,0,0.1,0,0.1,0c0.1,0,0.2,0,0.4,0c-0.1,0.4-0.1,0.7-0.2,1.1c0,0.6,0,1.2,0,1.8
		c-0.1,1,0.2,1.4,1.3,1.4c1.8-0.1,3.5,0,5.3,0c0.7,0,1.4,0.2,1.4-0.9c0-0.2,0.4-0.2,0.6-0.2c0,0.1,0,0.1,0,0.2c0,0.4,0,0.8,0.2,1.1
		c0.2,0.7,0.2,1.5,1,1.8c1,1.4,2.5,2.5,4.3,1.8c0.3,0,0.6-0.1,0.9-0.2c1-0.3,1.8-0.8,2.5-1.5c1-0.9,1.8-2,2.6-3c0,1,0.6,1,1.4,0.9
		c1.4,0,2.9-0.1,4.3,0c1.3,0.1,2-0.3,2.1-1.6c0.1-0.2,0.2-0.5,0.2-0.7c0.2,0,0.3,0,0.5,0c-0.4,2.6-1.2,5.1-2.8,7.3
		c-0.4-0.4-0.8-0.2-1.3-0.2c-8,0-16,0-23.9,0c-1-2.3-1.3-4.8-1.1-7.3C81.9,120.6,81.7,120,81.8,119.4z"/>
	<path class="st8" d="M192.1,132.6c-7.5,0-15.1,0-22.6,0c-0.9-1.7-1.3-3.5-1.4-5.4c3,0,6,0,9,0c2,1.9,3.3,3.1,6.5,1.8
		c0.1-0.1,0.2-0.2,0.3-0.2c0,0,0,0,0,0c0.1,0,0.3,0,0.4,0c0.6,0.2,1.2,0.3,1.8,0.2c2.4,0,4.7,0,7.1,0
		C193.2,130.3,192.5,131.4,192.1,132.6z"/>
	<path class="st8" d="M82.7,128.5c8,0,16,0,23.9,0c0.4,0,0.9-0.2,1.3,0.2c-0.2,1.2-1.3,2-1.8,3.2c-0.1,0.1-0.3,0.3-0.4,0.4
		c-7,0-14,0-21.1,0C83.7,131.2,83,129.9,82.7,128.5z"/>
	<path class="st7" d="M113.1,125.1c-0.1-0.3-0.1-0.6-0.2-0.9c0-0.8,0-1.7,0-2.5c0-0.4,0-0.9,0-1.3c0.1,0,0.3,0,0.4,0
		c0.1,0.7-0.2,1.4,0.2,2c0,1.6,0,1.6,1.5,1.6c1.6,0,3.2,0,4.9,0c1.5,0,1.5,0,1.5-1.6c0-0.3,0-0.6,0-0.9c0.1,0,0.3,0,0.4,0
		c0.1,0.9-0.3,2,0.6,2.7c0,0,0.1,0.1,0.1,0.1c0,0.1,0.1,0.1,0.1,0.2c0,0,0.1,0.1,0.1,0.1c0,0.1,0.1,0.1,0.1,0.1c0,0,0.1,0.1,0.1,0.1
		c0,0.1,0.1,0.1,0.2,0.1c0,0,0.1,0,0.1,0c0.8,0.5,1.5,0.3,2.2,0c0,0,0.1,0,0.1,0c0.1,0,0.1-0.1,0.2-0.1c0,0,0.1-0.1,0.1-0.1
		c0.1,0,0.1-0.1,0.1-0.1c0,0,0.1-0.1,0.1-0.1c0.1,0,0.1-0.1,0.1-0.1c0,0,0-0.1,0.1-0.1c0.4-0.1,0.5-0.5,0.6-0.9c0.3-1,0.6-2,0.7-3
		c0-0.3-0.3-1.1,0.6-0.9c-0.2,1.1-0.3,2.1-0.5,3.2c-0.5,0.8-0.1,1.1,0.7,1.1c1.8,0,3.7,0,5.5,0c0.7,0,1.1-0.4,1.1-1.1
		c0.1-0.2,0.2-0.5,0.2-0.7c0.2,0,0.4,0,0.4,0.2c-0.3,1.8-0.7,3.7-1.4,5.4c-6.9,0-13.8,0-20.6,0C113.3,126.8,113.5,125.8,113.1,125.1
		z"/>
	<path class="st6" d="M171.9,138.5c-0.1,0-0.3-0.1-0.4-0.1c0,0,0-0.1,0-0.1l-0.1,0c-0.2-0.1-0.4-0.2-0.6-0.2
		c-0.2-0.2-0.5-0.3-0.8-0.3c-0.1,0-0.3-0.1-0.4-0.1c0,0,0-0.1,0-0.1l-0.1,0c-0.2-0.1-0.4-0.3-0.6-0.4c0,0,0-0.1,0-0.1l-0.1,0
		c-2-1.4-3-3.4-3.9-5.5c-0.3-0.8-0.5-1.6-1-2.2c0.1-0.6,0.2-1.3,0.3-1.9c0.6-2.9,1.2-5.7,1.8-8.6c0.4-1.4,0.4-2.9,1-4.3
		c0.4-0.1,0.5-0.4,0.6-0.8c0.1-0.1,0.3-0.3,0.4-0.4c0,0,0,0,0,0c0-0.1,0.1-0.1,0.1-0.1c0.5-0.1,0.9-0.3,1-0.9
		c0.1-0.1,0.2-0.2,0.3-0.3c0,0,0.1-0.1,0.1-0.1c0,0,0-0.1,0.1-0.1c0.4,0,0.7-0.2,1-0.4c1.2-0.8,2.5-1.4,3.9-1.9
		c0.3-0.1,0.6-0.3,0.9,0c-1,0.7-2,1.5-2.7,2.5c-0.2,0.4-0.6,0.6-0.9,0.9c-0.6,0.1-0.7,0.4-0.7,0.9c0,0,0,0,0,0
		c-0.4-0.1-0.5,0.2-0.7,0.5c-1.8,2.5-2.5,5.4-2.9,8.4c-0.8,4.2,0,8.1,2,11.8c1,1.7,2.2,3.2,3.9,4.3
		C173.2,138.8,172.6,138.7,171.9,138.5z"/>
	<path class="st9" d="M196.2,113.1c0.2,0.2,0.4,0.4,0.4,0.7c-0.5,0.3-0.9,0.7-1.6,0.9c-0.4-0.6-1.1-0.5-1.7-0.5c-7,0-14,0-21,0
		c0.4-0.6,0.5-1.2,1.1-1.6c1.1-0.9,2.1-1.8,3.4-2.5c0.2,0.4,0.5,0.5,0.9,0.5c4.7,0,9.3,0,14,0c0.4,0,0.8,0,1-0.4c0.1,0,0.2,0,0.3,0
		c0,0,0,0,0,0c0.1,0.3,0.4,0.5,0.7,0.5c0,0,0,0,0,0c0.1,0.1,0.2,0.2,0.2,0.2c0,0,0,0,0,0c0.1,0.2,0.3,0.2,0.5,0.2c0,0,0,0,0,0
		c0.1,0.1,0.2,0.2,0.2,0.2c0,0,0,0,0,0c0.1,0.1,0.2,0.2,0.2,0.2c0,0,0,0,0,0c0.1,0.1,0.2,0.2,0.2,0.2c0,0,0,0,0,0
		c0.1,0.1,0.2,0.2,0.2,0.2c0,0,0,0,0,0c0.1,0.1,0.2,0.2,0.2,0.2c0,0,0,0,0,0c0,0.2,0,0.4,0.2,0.5c0,0,0,0,0,0
		C195.7,113,195.9,113.1,196.2,113.1z"/>
	<path class="st5" d="M84.6,132.4c7,0,14,0,21.1,0c0.2,0.3,0.4,0,0.5,0c0.1,0.1,0.2,0.2,0.3,0l0,0c0.2,0,0.4,0,0.6,0
		c-0.6,0.7-1.3,1.3-2.2,1.6c-0.3-0.6,0.7-0.6,0.5-1.2c-0.3-0.1-0.5,0.1-0.7,0.3c-1.4,1.4-3.2,2.3-5,3c-3.2,1.2-6.5,1.4-9.8,0.5
		c-1.9-0.9-3.6-2-5-3.6C84.9,132.8,84.7,132.6,84.6,132.4z"/>
	<path class="st10" d="M132.7,147.4c1,1.9,1.4,4,2.1,6c0.2,0.5,0.5,0.9,0.4,1.5c-0.6,0-1.2,0-1.8,0c-5,0-9.9,0-14.9,0
		c0.8-2.7,1.8-5.3,2.8-7.9c0.2,0,0.3,0,0.5,0c-0.1,0.4-0.2,0.8-0.3,1.1c-0.3,0.3-0.2,0.7-0.4,1c-0.5,1.2-0.3,1.4,1,1.5
		c0.3,0,0.5,0,0.8,0c2.4,0,2.4,0,2.9-2.5c0.8-0.7,1.9-0.7,2.7,0c0.1,0.4,0.2,0.8,0.3,1.2c0.2,0.4,0.2,1.2,0.7,1.2
		c1.1,0.1,2.5,0.5,3.4-0.2c0.6-0.4-0.4-1.4-0.5-2.2c0-0.1-0.1-0.2-0.2-0.3c0-0.2,0-0.4,0-0.7C132.4,147.2,132.6,147.2,132.7,147.4z
		 M125.9,152.3c0.8-0.1,1.7,0.3,2.5-0.2c0.5,0,0.5-0.4,0.4-0.7c-0.2-0.8-0.5-1.6-0.7-2.4c-0.1-0.4-0.3-0.7-0.8-0.7
		c-0.5,0-0.7,0.3-0.9,0.7c-0.3,0.9-0.7,1.8-1,2.7C125.2,152.3,125.5,152.4,125.9,152.3z"/>
	<path class="st8" d="M60.6,133.2c0.8-2.1,1.7-4.1,2.7-6.1c1.1,0.3,2.1,0.3,3.2,0.3c2.4,0,4.9,0,7.3,0c-0.8,2-1.5,4.1-2.3,6.1
		c-3.2,0-6.5,0-9.7,0C61.4,133.5,60.9,133.6,60.6,133.2z"/>
	<path class="st8" d="M164.4,127.6c-0.1,0.6-0.2,1.3-0.3,1.9c-0.2,0.7-0.4,1.3-0.5,2c-0.5,0.5-0.2,1.2-0.3,1.7c0,0.1,0,0.2-0.1,0.3
		c-0.1,0.2-0.2,0.4-0.3,0.7c-2.4,0-4.7,0-7.1,0c-0.3,0-0.7-0.1-0.9,0.3c-1-2.1-2.1-4.1-3.1-6.2c0.6-0.2,1.2-0.2,1.8-0.2
		c3.2,0,6.4,0,9.6,0C163.6,128,164,128.1,164.4,127.6z"/>
	<path class="st11" d="M85,158.7c-0.2-1.5,0.4-2.9,0.7-4.3c1.9,0,3.8,0,5.7,0c0.1,0,0.3,0,0.4,0c0.9-0.1,1.8-0.3,2.8-0.4
		c0.1,0.6,0.6,0.4,1,0.4c1.7,0,3.4,0,5.1,0c0.1,0,0.3,0,0.4,0c0.2,0.5,0.3,0.9,0.5,1.4c-1.2,1.3-2.8,2.1-4.2,3.2
		c-0.6,0.5-0.8,0.2-1.1-0.4c-0.7-1.6-0.8-1.6-2.6-1.3c-0.4,0.1-0.9,0.1-1.4,0.1c-1.2,0-1.9,0.5-1.9,1.8c-0.1,0.8-0.5,1-1.3,0.7
		C87.7,159.4,86.4,159.1,85,158.7z"/>
	<path class="st11" d="M144.9,154.2c0.7,0.1,1.4,0.4,2.1,0.3c0.1,0.1,0.1,0.1,0.2,0.2c0,0.8-0.4,1.5-0.2,2.3l0,0
		c-0.4,0.3-0.2,0.8-0.2,1.1l0,0c0,0-0.1,0-0.1,0c0,0.1,0,0.1,0.1,0.2c0,0.2,0,0.5,0,0.7c-3.3,0.1-6.6-0.5-9.9-0.5
		c-0.6,0-0.7-0.4-0.7-0.9c0-1.2,0-2.4,0-3.6c0.9-0.1,1.9,0.2,2.7-0.5c1.9,0,3.8,0,5.7,0c0.1,0.2,0.1,0.4,0.2,0.6
		C144.8,154.2,144.8,154.2,144.9,154.2z"/>
	<path class="st10" d="M91.4,154.4c-1.9,0-3.8,0-5.7,0c0.3-1.7,0.6-3.4,1.1-5c0.2,0.2,0.3,0.6,0.5,0.6c1.4,0.1,2.8,0.5,4.1-0.2
		c0.8-0.4,1.8-0.6,2.2-0.2c0.8,0.9,1.7,0.7,2.6,0.7c0.6,0,1.5,0.4,1.8-0.3c0.3-0.6-0.4-1.2-0.7-1.8c0-0.1,0-0.3-0.1-0.4
		c0.3,0,0.6,0,0.9,0c0.1,0.2,0.2,0.4,0.3,0.6c-0.3,0.5,0,0.8,0.4,1l0,0c0,0.2,0,0.4,0.2,0.5l0,0c0,0.2,0,0.4,0.2,0.5l0,0
		c0,0.2,0,0.4,0.2,0.5l0,0c0,0.2,0,0.4,0.2,0.5l0,0c0,0.2,0,0.4,0.2,0.5l0,0c0,0.2,0,0.4,0.2,0.5l0,0c0,0.2,0,0.4,0.2,0.5l0,0
		c0,0.3-0.1,0.5,0.2,0.7l0,0c0,0.2,0,0.4,0.2,0.5l0,0c0,0.2,0,0.5,0,0.7c-1.7,0-3.4,0-5.1,0c-0.4,0-0.9,0.2-1-0.4
		c0.4-0.5-0.3-0.9-0.2-1.3c0-0.2,0-0.4-0.2-0.5l0,0c0-0.2,0-0.4-0.2-0.5l0,0c0-0.3,0.1-0.5-0.2-0.7c0,0,0,0,0,0
		c-0.1-0.1-0.2-0.2-0.2-0.2c0,0,0,0,0,0c-0.6-0.7-1.2-0.7-1.4,0C91.7,152,91.4,153.2,91.4,154.4z"/>
	<path class="st8" d="M147.7,132.6c0,0.1,0,0.3,0,0.4c-0.1,0.3-0.3,0.6-0.2,1c0,0-0.1,0-0.1,0c-2.7,0-5.5,0-8.2,0
		c-0.2-1.8,0.3-3.7,0.2-5.5c0-0.1,0-0.3,0-0.4c2.9,0,5.9,0,8.8,0c0,0.5,0,1-0.1,1.6c0,0.2,0,0.3-0.1,0.5c-0.1,0.3-0.4,0.6-0.2,1
		c0,0.1,0,0.2,0,0.3C147.8,131.8,147.6,132.2,147.7,132.6z"/>
	<path class="st12" d="M60.2,121c-2.2-1.7-4.3-3.4-6.5-5.1c-0.4-0.3-0.5-0.7,0.1-0.9c0.9,0.7,1.7,1.6,2.7,2.1
		c1.2,1.1,2.3,2.2,4.4,2.1c5-0.2,10.1-0.1,15.2-0.1c-0.4,0.9-0.7,1.7-1.1,2.6c-0.1,0.3-0.2,0.5-0.6,0.4c-3.4-0.1-6.9-0.2-10.3,0
		c-1.2,0.1-2-0.3-2.8-1.1c-0.2-0.2-0.3-0.3-0.5-0.4C60.4,120.5,60.2,120.7,60.2,121z"/>
	<path class="st7" d="M193.2,128.9c-2.4,0-4.7,0-7.1,0c-0.6,0-1.2-0.1-1.8-0.2c0.5-0.5,0.4-0.7-0.3-1c-2.8-1-2.8-1-2-3.8
		c1,0.5,2,0.5,3.1,0.5c2.8,0,5.6,0,8.5,0C193.7,125.9,193.6,127.5,193.2,128.9z"/>
	<path class="st13" d="M161.5,142.2c0.5,0,1,0,1.6,0c0,0.1,0,0.2,0,0.3c-1.3-0.3-1.2,0.8-1.4,1.4c-0.4,0.4-0.5,0.9-0.7,1.4
		c-0.1,0.2-0.3,0.4-0.4,0.5c-1.3,2.6-1.3,2.6,1.6,2.6c2.9,0,2.9,0,3.6-2.8c0-0.1,0-0.2,0-0.3c0.1-0.3,0.3-0.6,0.2-0.9
		c0.3-0.4,0.4-0.9,0.4-1.4c0.1-0.1,0.3-0.1,0.4-0.2c0.2,1-0.2,1.9-0.5,2.9c-0.5,1.8-0.8,3.6-1.5,5.3c-2.8,0.4-5.6,0.1-8.4,0.2
		c-0.6,0-1-0.2-1.2-0.8c-0.1-0.3-0.1-0.6-0.5-0.4c-1.1,0.6-2.3,0.2-3.4,0.3c-0.7,0.1-0.9-0.3-0.8-0.9c0-0.3,0.1-0.6,0.2-0.9
		c1.5,0,3.1,0,4.6,0c2.8,0,2.7,0,1.8-2.6c-0.1-0.3-0.6-0.7,0.1-1c0.5,1,0.6,2.2,1.3,3.1c0.8,0,0.5-0.6,0.6-1l0,0
		c0.2-0.1,0.2-0.3,0.2-0.5l0,0c0.5-0.3,0.7-0.8,0.7-1.4l0,0c0.3-0.2,0.2-0.4,0.2-0.7l0,0c0.4-0.2,0.5-0.5,0.5-0.9l0,0
		c0.2-0.1,0.2-0.3,0.2-0.5l0,0c0.2-0.1,0.2-0.3,0.2-0.5l0,0C161.4,142.6,161.5,142.4,161.5,142.2z"/>
	<path class="st5" d="M60.6,133.2c0.3,0.5,0.8,0.3,1.2,0.3c3.2,0,6.5,0,9.7,0c-0.6,1.8-1.3,3.6-1.8,5.4c-0.2,0.7-0.5,0.7-1.1,0.4
		c-1.2-0.6-2.3-1.3-3.6-1.7c0,0,0,0,0,0c-0.1-0.2-0.2-0.2-0.4-0.2c0,0,0,0,0,0c-0.1-0.2-0.2-0.2-0.4-0.2c-0.9-0.5-1.8-1-2.8-1.4
		C59.7,134.9,59.7,134.9,60.6,133.2z"/>
	<path class="st10" d="M150.8,148.5c-0.1,0.3-0.2,0.6-0.2,0.9c-0.1,0.6,0.1,1,0.8,0.9c1.1-0.1,2.3,0.3,3.4-0.3
		c0.4-0.2,0.4,0.1,0.5,0.4c0.1,0.6,0.6,0.8,1.2,0.8c2.8-0.1,5.6,0.2,8.4-0.2c-0.3,1-0.5,2-0.8,3c-0.3-0.1-0.6-0.2-0.8-0.3
		c-2.1,0-4.1,0-6.2,0c-0.4,0-0.7,0.1-0.8,0.5c-0.3-0.5-0.5-1.1-0.8-1.6c-0.1-0.2-0.1-0.4-0.4-0.3c-0.3,0.1-0.2,0.4-0.2,0.6
		c-0.1,0.5-0.2,1-0.3,1.5c-0.2-0.7-0.7-1-1.4-0.9c-1.2,0.1-2.5,0-3.7,0c0.2-2,0.4-4,0.9-5.9c0.2,0,0.3,0,0.5,0
		C150.8,147.9,150.8,148.2,150.8,148.5z"/>
	<path class="st14" d="M195,114.7c0.6-0.1,1-0.6,1.6-0.9c0.5,0.6,0.2,0.9-0.4,1.2c-1.6,0.9-3.2,1.8-4.8,2.7
		c-0.4,0.2-0.9,0.4-1.3,0.6c-0.7,0.5-1.3,0.5-2,0c-0.7-0.5-1.5-0.8-2.4-1c-1.8-0.4-3.5-0.7-5.2,0.4l0,0c-0.2,0-0.4,0-0.5,0.2l0,0
		c-0.5,0-1,0.2-1.2,0.7c0,0-0.1,0.1-0.1,0.1c0,0-0.1,0-0.1,0.1c-0.1,0-0.1,0.1-0.1,0.1c0,0-0.1,0-0.1,0.1c-0.1,0-0.1,0.1-0.1,0.1
		c0,0-0.1,0.1-0.1,0.1c0,0-0.1,0.1-0.1,0.1c-0.7,0.3-1,0.9-1,1.6c0,0.1-0.1,0.2-0.1,0.2c-0.8,0.8-0.5,1.8-0.6,2.7
		c-1.6,0.4-3.2,0.2-4.8,0.2c-1.1,0-2.3,0.4-3-0.9c0-0.1-0.2,0-0.3,0c0-0.1,0-0.1,0-0.2c0.3-2.5,1-5,2.2-7.2c0.3-0.6,0.9-1.1,1-1.8
		c0,0,0,0,0,0c0.4-0.2,0.7-0.5,0.7-0.9c0.3-0.3,0.7-0.4,0.9-0.9c0.3,0,0.4,0.2,0.4,0.4c-0.6,0.4-0.8,1-1.1,1.6
		c-0.8,0.7-1.2,1.7-1.6,2.7c-0.4,0.7-0.7,1.5-0.9,2.3c-0.5,0.8-0.4,1.7-0.6,2.6c-0.2,0.5,0.3,0.6,0.7,0.6c1.2,0,2.4-0.1,3.6,0
		c1.8,0.2,2.9-0.3,3.3-2.2c0.1-0.4,0.3-0.7,0.5-1c0.5-0.6,1.1-1.2,1.6-1.8c3.4-2,6.8-1.7,10.1,0.2c0.3,0.2,0.5,0.2,0.8,0
		C191.6,116.7,193.3,115.7,195,114.7z"/>
	<path class="st11" d="M156.3,154.2c0.2-0.3,0.4-0.5,0.8-0.5c2.1,0,4.1,0,6.2,0c0.3,0,0.6,0.2,0.8,0.3c-0.4,1.7-0.9,3.3-1.3,5
		c-0.2,0.6-0.4,1.2-0.6,1.8c-0.9-0.1-1.7-0.2-2.6-0.3c-0.5-0.1-0.8-0.2-1-0.7C157.8,157.9,157,156,156.3,154.2z"/>
	<path class="st14" d="M60.2,121c0-0.4,0.2-0.6,0.6-0.4c0.2,0.1,0.4,0.3,0.5,0.4c0.8,0.8,1.6,1.2,2.8,1.1c3.4-0.2,6.9,0,10.3,0
		c0.4,0,0.5-0.2,0.6-0.4c0.3-0.9,0.7-1.7,1.1-2.6c0.3-0.8,0.6-1.5,0.9-2.3c0.3-0.7,0.6-1.5,0.9-2.2c0.2,0,0.5,0,0.7,0
		c-0.9,3.4-2.4,6.5-3.7,9.7c-0.6-0.5-1.2,0-1.8,0c-3-0.1-5.9,0-8.9,0C62.9,123.3,61.5,122.2,60.2,121z"/>
	<path class="st13" d="M137.2,140.2c0.1-0.3,0.4-0.3,0.7-0.3c3.2,0.1,6.5,0.2,9.7,0.4c0,1.1,0,2.2,0,3.3c0,1.6,0,1.6-1.6,1.5
		c-0.3,0-0.5,0-0.8,0c-0.7,0-0.7,0.4-0.4,0.9c0,0.1,0.1,0.1,0.1,0.2c0,0.1,0,0.1,0,0.2c0,0.1-0.1,0.2-0.1,0.3
		c-0.3,1.2-0.1,2.4-0.1,3.6c0,0.2,0,0.5-0.1,0.7c-1.9,0.7-3.7,0.6-5.6,0c0-0.7,0-1.5,0-2.2c0-0.2,0-0.3,0-0.5
		c0.5-0.9,0.1-1.8,0.2-2.7c0.1-0.8-0.3-0.9-1-0.9c-0.5,0-1.2,0.4-1.5-0.4l0,0c0.4-0.8,0.5-1.6,0.5-2.5l0,0c0.3-0.4,0.3-0.7,0-1.1
		C137.2,140.3,137.2,140.2,137.2,140.2z M144.2,145.3c0-0.4,0-0.9,0-1.3c0.9,0,2.1,0.4,2.7,0c0.7-0.5,0.2-1.8,0.2-2.7
		c0.1-0.6-0.3-0.7-0.8-0.8c-1.9-0.1-3.8-0.2-5.6-0.2c-2.4,0-2.4,0-2.9,2.3c-0.1,0.3-0.3,0.5-0.2,0.8c0.8,0.2,1.7-0.2,2.5,0.3
		c-0.1,0.5-0.1,1-0.2,1.5c-0.3,3.3-0.3,3.3,3,3.2c0.1,0,0.2,0,0.2,0c0.6,0.1,0.9-0.2,0.8-0.9C144,146.9,143.9,146.1,144.2,145.3z"/>
	<path class="st15" d="M128.3,119.4c-0.9-0.2-0.6,0.6-0.6,0.9c-0.1,1.1-0.4,2-0.7,3c-0.1,0.3-0.2,0.7-0.6,0.9
		c1.3-3.8,1.3-7.8,0.9-11.8c-0.2-1.8,0.2-3.6-0.3-5.4c-0.1-0.3,0.1-0.5,0.4-0.6c0.4,3.3,0.6,6.6,0.5,10c0,0.3-0.2,0.8,0.3,0.9
		c0.6,0.1,0.3-0.5,0.4-0.8c2.6,0,5.1,0,7.7,0c0,0.4,0,0.7,0,1.1c-0.2,0.6-0.3,1.2-0.5,1.8C133.3,119.4,130.8,119.4,128.3,119.4z"/>
	<path class="st7" d="M64.3,124.4c3,0,5.9,0,8.9,0c0.6,0,1.2-0.5,1.8,0c-0.3,1-0.6,2-1.1,2.9c-2.4,0-4.9,0-7.3,0
		c-1.1,0-2.2,0.1-3.2-0.3C63.6,126.2,63.9,125.3,64.3,124.4z"/>
	<path class="st16" d="M192.7,110.2c-0.2,0.4-0.6,0.4-1,0.4c-4.7,0-9.3,0-14,0c-0.4,0-0.8-0.1-0.9-0.5c3-2.1,6.4-2.1,9.9-1.9
		c0.3,0,0.8,0.4,0.9-0.3c0.5,0,0.9,0.6,1.4,0.4c0,0.6,0.5,0.5,0.8,0.6C190.9,109.3,191.9,109.7,192.7,110.2z"/>
	<path class="st11" d="M149.5,153.5c1.2,0,2.5,0.1,3.7,0c0.8,0,1.2,0.2,1.4,0.9c-0.1,0.8-0.6,1.6-0.4,2.5c-0.1,0.1-0.2,0.2-0.2,0.2
		c-0.4,0.5-0.5,1.1-0.4,1.8c0,0.2-0.1,0.3-0.1,0.5c-1.5,0.4-2.9-0.1-4.3-0.3c-0.4,0-0.3-0.4-0.3-0.6
		C149,156.9,149.2,155.2,149.5,153.5z"/>
	<path class="st17" d="M56.6,117.2c-1.1-0.5-1.9-1.3-2.7-2.1c0.4-0.4,0.7-0.9,1.1-1.3c0.1,0,0.2,0,0.3,0c0.1,0.5,0.4,0.4,0.8,0.4
		c2.1,0,4.3,0,6.4,0c0.3,0,0.7,0,0.8-0.4c1.1,0.9,2.1,1.9,3,2.9c-0.4,0.2-0.9,0.2-1.3,0.2c-2.4,0-4.7,0-7.1,0
		C57.3,116.9,56.9,116.8,56.6,117.2z"/>
	<path class="st13" d="M115.8,140.8c0.6,0.1,1,0.6,1.4,1c0,0.3,0,0.6,0,0.9c-0.1,0-0.1,0.1-0.2,0.1c-0.7,0-1.2,0.2-1.4,0.9l0,0
		c-0.6,0.1-0.9,0.4-0.9,1c0,0.1-0.1,0.1-0.2,0.1c-1,0.4-1.9,0.4-2.9,0c-0.5-0.2-1.1-0.1-1.7,0c-2.3,0.2-3.8,2.2-3.2,4.1
		c0,0.5,0.1,1,0.1,1.4c-0.3-0.1-0.7-1-0.9-0.1c-0.2,0.8-0.6,0.7-1.1,0.7c-0.9,0-1.9,0.2-2.6-0.6c-0.3,0.4,0,0.8-0.4,1
		c0-0.5,0-0.9-0.3-1.3c-0.2-1.6,0.1-3.1,0.9-4.6c0.6,0.4,0.1,0.9,0.1,1.3c0,0.5-0.3,1.1,0.5,1.2c1.7,0.3,2.4,0,3.2-1.5
		c0.2-0.4,0.5-0.8,0.8-1.2c0.6-0.4,1.2-0.8,1.8-1.1c1-0.2,2.1-0.5,3-0.1c1.3,0.5,2,0,2.9-0.8c0.3-0.3,0.6-0.5,1-0.8
		c0.7-0.5,0.8-1,0-1.4C115.7,141,115.7,140.9,115.8,140.8z"/>
	<path class="st6" d="M183.6,128.9c-3.2,1.3-4.5,0-6.5-1.8c-0.5-0.8-0.7-1.8-0.8-2.7c0.2-0.4,0.3-0.8,0.5-1.2
		c1.6,0.2,3.2,0.1,4.8,0.1c0,1.1-0.5,2.1-0.8,3.1c-0.2,0.7-0.1,0.9,0.6,1.1c0.8,0.2,1.5,0.5,2.2,0.8c0.4,0.1,0.4,0.3,0.2,0.5
		c0,0,0,0,0,0C183.8,128.8,183.7,128.9,183.6,128.9z"/>
	<path class="st11" d="M118.5,154.8c5,0,9.9,0,14.9,0c0.6,0,1.2,0,1.8,0c0,0.1,0,0.2,0,0.3c-1.5,0.8-3,1.6-4.5,2.4
		c-0.6,0.3-1.1,0.3-1.1-0.4c-0.1-1.6-1.1-1.8-2.5-1.7c-0.7,0.1-1.4,0-2.1,0c-0.5,0-0.9,0.1-1,0.7c-0.1,0.4-0.3,0.7-0.5,1
		c-0.2,0.5-0.5,0.7-1,0.4c-1.2-0.6-2.4-1.1-3.6-1.7c-0.4-0.2-0.6-0.5-0.6-0.9C118.4,155,118.5,154.9,118.5,154.8z"/>
	<path class="st18" d="M150.8,148.5c0-0.3,0-0.6,0-0.9c0.4-0.8,0.1-1.7,0.6-2.5c1.4,0,2.7,0,4.1,0c1.3,0,1.4-0.2,0.7-1.4
		c-0.1-1.4-1-1.8-2.2-1.9c0-0.1,0-0.2,0-0.3c2,0,2,0,2.7,1.8c0.2,0.4,0.3,0.9,0.7,1.1c0,0.1,0,0.1,0.1,0.2c0,0.1-0.1,0.1-0.1,0.2
		c-0.7,0.3-0.2,0.7-0.1,1c0.9,2.6,0.9,2.6-1.8,2.6C153.9,148.5,152.4,148.5,150.8,148.5z"/>
	<path class="st13" d="M109.7,151.5c0.1-2.8,0.1-2.8,3-3.2c1.2-0.2,2.3-0.6,3.5-0.5c0.4-0.1,0.6,0.1,0.7,0.5c0.2,1.6,0.7,3.3,0,4.9
		c-0.1,0-0.1,0-0.2,0c0.1-0.4,0.1-0.8,0.2-1.2c0-0.3,0-0.6-0.3-0.6c-1.7,0.1-3.5-0.6-5,0.6C111.2,150.9,110.3,151.6,109.7,151.5
		L109.7,151.5z"/>
	<path class="st12" d="M128.5,116.5c-0.1,0.3,0.2,0.9-0.4,0.8c-0.4,0-0.3-0.6-0.3-0.9c0.1-3.3-0.1-6.7-0.5-10
		c0.6-0.7,1.5-0.5,2.3-0.7c2.6-0.4,5.1-0.7,7.7-1.2c0.7-0.1,0.8,0.1,0.8,0.7c0,3.8-0.2,7.7-0.9,11.4c-0.2,0.9,0,2-0.7,2.8
		c-0.1-0.6,0.7-1.4-0.3-1.9c0-0.4,0-0.7,0-1.1c0.3-0.6,0.2-1.2,0.4-1.8c0.1-1.1,0.4-2.2,0.3-3.4c0.3-1.3,0.3-2.7,0.4-4
		c0.1-2.1,0.1-2.1-2-1.9c-2.1,0.3-4.2,0.6-6.4,0.9c-0.5,0.1-1.1,0.2-1,1c0.2,1.3,0.3,2.6,0.4,3.9c0,1.1,0,2.3,0,3.4
		C128.6,115.3,128.5,115.9,128.5,116.5z"/>
	<path class="st19" d="M147.2,154.6c-0.1-0.1-0.1-0.1-0.2-0.2c0-0.2,0.1-0.3,0.1-0.5c0,0,0.1-0.1,0.1-0.1l0-0.1
		c0-1.6,0.4-3.2,0.6-4.8c0.2-0.2,0.2-0.4,0.2-0.7c0-0.1,0-0.3,0-0.4c0.8-0.5,0.8-1.4,1.1-2.2c0.3-0.6,0.5-1.3,1.3-1.2
		c-0.7,4.6-1.5,9.1-1.8,13.8c0,0.5,0.1,1-0.6,1.2c-0.4-0.1-0.8-0.2-1.2-0.3c0-0.1,0-0.1,0-0.2c0-0.2,0-0.5,0-0.7c0-0.1,0-0.1,0-0.2
		c0,0,0,0,0,0c0.3-0.3,0.2-0.7,0.2-1.1c0,0,0,0,0,0C147.2,156.2,147.7,155.5,147.2,154.6z"/>
	<path class="st6" d="M155.6,137.6c-2.7-0.6-3.2-3-4.3-5c-0.6-1.2-1.2-2.5-1.9-3.7c-0.2-0.3-0.3-0.8-0.8-0.9c0-0.1-0.1-0.1-0.1-0.1
		c0.1-1,0.3-2,0.4-3c0.6-0.1,0.6,0.4,0.8,0.8c1.9,3.6,3.7,7.3,5.5,10.9C155.4,136.9,155.7,137.2,155.6,137.6z"/>
	<path class="st19" d="M101.6,150.1c0.3,0.4,0.2,0.9,0.3,1.3c0.2,1.4,0.5,2.7,1.5,3.7c0,0.2,0,0.4,0,0.7c0,0.1,0,0.3,0,0.4
		c-0.9,0.6-1.8,1.1-2.6,1.9c-0.3,0-0.5,0-0.5,0.4c0,0.1-0.1,0.1-0.1,0.1c0,0-0.1,0-0.1,0l0,0.1c-0.1,0-0.1,0.1-0.2,0.1
		c-0.4,0-0.8,0.1-1,0.6c-0.2,0-0.3,0.1-0.5,0.1c0-0.2,0-0.3-0.1-0.5c1-0.7,2-1.4,3-2.1c0.3-0.2,0.9-0.5,0.3-1
		c-0.2-0.5-0.3-0.9-0.5-1.4c0-0.3-0.1-0.6-0.4-0.7c0,0,0,0,0,0c0-0.2,0-0.4-0.2-0.5c0,0,0,0,0,0c0-0.3,0-0.5-0.2-0.7c0,0,0,0,0,0
		c0-0.2-0.1-0.4-0.2-0.5c0,0,0,0,0,0c0-0.2,0-0.4-0.2-0.5c0,0,0,0,0,0c0-0.2,0-0.4-0.2-0.5c0,0,0,0,0,0c0-0.2,0-0.4-0.2-0.5
		c0,0,0,0,0,0c0-0.2,0-0.4-0.2-0.5c0,0,0,0,0,0c0-0.2,0-0.4-0.2-0.5c0,0,0,0,0,0c0-0.2,0-0.4-0.2-0.5c0,0,0,0,0,0
		c0-0.4-0.1-0.7-0.4-1c-0.1-0.2-0.2-0.4-0.3-0.6c-0.4-1-0.9-2-1.3-2.9c0.3-0.8,0.7-0.2,1,0c0.4,0.4,0.8,0.9,1.1,1.4
		c0.8,1.2,1.6,2.5,2.6,3.6C101.4,150,101.5,150,101.6,150.1z"/>
	<path class="st6" d="M139.4,128c0,0.1,0,0.3,0,0.4c-0.5,0.3-0.4,0.7-0.4,1.2c0,2.3,0,4.6-0.4,6.9c-1.8-0.8-1-2.4-1.1-3.7
		c0,0,0.1,0,0.1,0l0-0.1c0.1-0.2,0.1-0.3,0.2-0.5c0.2,0,0.3-0.2,0.3-0.4c0.3-4.1,0.6-8.1,0.9-12.2c0.3-3,0.6-6,1-9
		c0.1-0.6-0.2-1.4,0.7-1.6c0,0.4,0,0.7-0.1,1.1c0,0.3,0,0.6-0.1,0.9c-0.2,0.2-0.2,0.5-0.1,0.7c-0.2,1.2-0.4,2.4-0.3,3.6
		c0,0.3,0,0.6,0,0.9c-0.5,0.9-0.3,2-0.3,3c-0.2,2.6-0.7,5.1-0.6,7.7C139.2,127.1,139.1,127.6,139.4,128z"/>
	<path class="st12" d="M112.9,120.3c0,0.4,0,0.9,0,1.3c-0.1-0.4-0.3-0.8-0.4-1.1c-0.1-0.8,0.2-1.7-0.5-2.4c0.4-0.3,0.3-0.8,0.3-1.3
		c-0.1-3.8-0.2-7.7-0.3-11.5c0-1,0.2-1.3,1.2-1.2c2.7,0.3,5.5,0.6,8.2,0.9c0.3,0,0.5,0.1,0.6,0.4c0,3.6,0,7.3-0.1,10.9
		c-0.4-0.6-0.1-1.3-0.2-2c-0.1-0.4,0.2-0.9-0.5-1c-0.1-0.8,0.1-1.5-0.1-2.3c0.3-1.7-0.3-3.4,0.1-5.1c0.1-0.5-0.3-0.6-0.7-0.6
		c-2.4-0.3-4.8-0.6-7.2-0.8c-0.5-0.1-0.7,0.1-0.7,0.6c0.1,2,0.3,4,0.4,6c-0.1,0.1-0.1,0.3-0.2,0.4c-0.6,0.1-0.4,0.6-0.5,1
		C112.2,115.3,112.8,117.8,112.9,120.3z"/>
	<path class="st5" d="M139.2,133.9c2.7,0,5.5,0,8.2,0c0,0.2,0,0.4,0,0.7c-0.2,0.3-0.3,0.6-0.2,0.9c0,0.1,0,0.3,0,0.4
		c-0.2,0.5-0.6,0.7-1.1,0.7c-1.5-0.1-2.9-0.2-4.4-0.2C139.1,136.4,139.1,136.4,139.2,133.9z"/>
	<path class="st6" d="M153.2,113c0.6,0.1,0.7-0.4,0.9-0.8c0.4-1,0.8-2,1-3c0.4-1.7,1.7-2.4,3.1-2.9c0.1,0.2,0.1,0.3,0.2,0.5l0,0
		c-0.3,0.2-0.3,0.4-0.2,0.7l0,0c-0.3,0.1-0.3,0.4-0.2,0.7l0,0c-0.3,0-0.2,0.3-0.2,0.5l0,0c-0.3,0.2-0.3,0.4-0.2,0.7l0,0
		c-0.3,0.1-0.2,0.3-0.2,0.5l0,0c-0.3,0.2-0.3,0.4-0.2,0.7l0,0c-0.3,0.2-0.3,0.4-0.2,0.7l0,0c-0.3,0.1-0.2,0.3-0.2,0.5l0,0
		c-0.3,0.2-0.3,0.4-0.2,0.7c0,0,0,0,0,0c-0.3,0.2-0.3,0.4-0.2,0.7l0,0c-0.3,0.1-0.2,0.3-0.2,0.5l0,0c-0.3,0.2-0.3,0.4-0.2,0.7l0,0
		c-0.3,0.3-0.5,0.7-0.5,1.1l0,0c-0.3,0.2-0.3,0.4-0.2,0.7c0,0,0,0,0,0c-0.1,0.2-0.3,0.3-0.4,0.5C154.1,115.2,153.6,114.1,153.2,113
		C153.1,113,153.2,113,153.2,113z"/>
	<path class="st17" d="M73.9,127.4c0.5-0.9,0.8-1.9,1.1-2.9c1.3-3.2,2.8-6.4,3.7-9.7c0.8-0.8,1.1-1.8,1.3-2.9
		c0.6,0.2,0.5,0.6,0.3,1.1c-2.2,5.6-4.4,11.2-6.6,16.8c-1.2,3.1-2.3,6.3-3.4,9.4c-0.1,0.3-0.5,0.7,0.1,0.9c-0.8,0.6-1.3-0.1-1.9-0.5
		c-1.2-0.7-2.6-0.8-3.5-2c1.3,0.4,2.4,1.1,3.6,1.7c0.6,0.3,0.9,0.3,1.1-0.4c0.6-1.8,1.2-3.6,1.8-5.4
		C72.3,131.4,73.1,129.4,73.9,127.4z"/>
	<path class="st9" d="M63.2,113.8c-0.1,0.5-0.4,0.4-0.8,0.4c-2.1,0-4.3,0-6.4,0c-0.3,0-0.7,0-0.8-0.4c0-0.2,0-0.4,0-0.6
		c0-0.1,0.1-0.1,0.1-0.1c0.2,0,0.4,0,0.5-0.2c0,0,0,0,0,0c0.1-0.1,0.2-0.2,0.2-0.2c0,0,0,0,0,0c0.1-0.1,0.2-0.2,0.2-0.2c0,0,0,0,0,0
		c0.1-0.1,0.2-0.2,0.2-0.2c0,0,0,0,0,0c0.2-0.1,0.2-0.3,0.2-0.5c0.1-0.1,0.2-0.2,0.4-0.4c0.1-0.1,0.2-0.2,0.3-0.2c0,0,0,0,0,0
		c0.1-0.1,0.2-0.2,0.2-0.2c0,0,0,0,0,0c0.1-0.1,0.2-0.2,0.2-0.3c0.1-0.1,0.2-0.1,0.3-0.2c0-0.1,0-0.1,0.1-0.2
		c0.1-0.1,0.2-0.1,0.3-0.2c0.3,0,0.5,0.2,0.8,0.4C60.8,111.3,61.8,112.7,63.2,113.8z"/>
	<path class="st13" d="M97.1,148.3c0.4,0.6,1,1.2,0.7,1.8c-0.3,0.6-1.2,0.2-1.8,0.3c-0.9,0-1.8,0.2-2.6-0.7
		c-0.4-0.5-1.4-0.3-2.2,0.2c-1.3,0.7-2.7,0.3-4.1,0.2c-0.2,0-0.3-0.4-0.5-0.6c0.3-2.5,1-4.8,1.6-7.2c0.2-0.9,0.8-0.5,1.3-0.4
		c-0.7,0.2-1.1,0.5-1.1,1.3c0,0.5-0.1,0.9-0.2,1.4c-0.3,0.2-0.1,0.6-0.2,0.9c-0.4,0.6-0.4,1.4-0.6,2c-0.2,0.7,0,1.2,0.9,1.2
		c2.5-0.1,5,0,7.5,0C96.4,148.5,96.7,148.5,97.1,148.3z"/>
	<path class="st12" d="M167.2,114.7c-0.6,1.4-0.6,2.9-1,4.3c-0.2,0-0.4,0-0.7,0c0.1-0.5,0.3-0.9,0.2-1.4c0.4-1,0.6-2.1,0.7-3.2
		c0.5-1.4,0.7-2.8,0.9-4.3c0.2-0.9,0.5-1.9,0.7-2.8c0.1-0.5-0.1-0.8-0.7-0.9c-1.5-0.2-3.1-0.1-4.6-0.1c-3.4,0-3.4,0-4.3,3.3
		c-0.7,1.1-0.7,2.4-1.5,3.4c-0.2,0-0.4,0-0.5-0.2c0-0.2,0-0.5,0-0.7c0,0,0,0,0,0c0.3-0.2,0.2-0.4,0.2-0.7c0,0,0,0,0,0
		c0.2-0.1,0.2-0.3,0.2-0.5c0,0,0,0,0,0c0.3-0.2,0.2-0.4,0.2-0.7c0,0,0,0,0,0c0.3-0.2,0.2-0.4,0.2-0.7c0,0,0,0,0,0
		c0.2-0.1,0.2-0.3,0.2-0.5c0,0,0,0,0,0c0.3-0.2,0.2-0.4,0.2-0.7c0,0,0,0,0,0c0.2-0.1,0.2-0.3,0.2-0.5c0,0,0,0,0,0
		c0.3-0.2,0.2-0.4,0.2-0.7c0,0,0,0,0,0c0.3-0.2,0.2-0.4,0.2-0.7c0,0,0,0,0,0c0.3-0.2,0.4-0.5,0.5-0.8c3-0.2,6-0.1,9,0
		c0.6,0,0.8,0.3,0.7,0.8c-0.5,2.3-1,4.7-1.5,7.1C167.2,114.2,167.2,114.4,167.2,114.7z"/>
	<path class="st18" d="M107,145.4c-0.3,0.4-0.6,0.8-0.8,1.2c-0.8,1.5-1.5,1.8-3.2,1.5c-0.9-0.1-0.5-0.8-0.5-1.2
		c0-0.4,0.5-0.9-0.1-1.3c1.1-3.5,4.5-6,8.3-6.1c1.2,0,2.4,0,3.6,0.4c0.5,0.2,1.2,0.3,1.5,0.9c0,0.1-0.1,0.2-0.1,0.3
		c-0.1,0-0.2,0-0.2,0c-2.9-2.2-9.5-1.1-11.5,2.7c-0.4,0.4-0.8,0.8-0.5,1.3c0.2,0.5,0.8,0.2,1.2,0.3
		C105.4,145.4,106.2,145.4,107,145.4z"/>
	<path class="st12" d="M63.2,113.8c-1.3-1.1-2.4-2.5-3.8-3.5c-0.2-0.2-0.4-0.4-0.8-0.4c0.2-0.8,0.8-0.6,1.4-0.6
		c0.6,0.6,1,1.3,1.8,1.6c0.6,0.5,1.2,1,1.7,1.6c1.2,1.4,2.8,2.4,4,3.8c0.4,0.5,0.6,0.3,0.8-0.2c0.3-0.9,0.4-1.9,1.1-2.6
		c0.1,0,0.2,0,0.2,0c-0.1,0.2-0.1,0.4-0.2,0.7c-0.3,0.9-0.6,1.8-0.9,2.7c-0.5,1.3-0.6,1.4-1.6,0.5c-0.3-0.2-0.6-0.5-0.9-0.7
		C65.2,115.7,64.2,114.7,63.2,113.8z"/>
	<path class="st16" d="M88.4,144.5c0.1-0.5,0.2-0.9,0.2-1.4c0-0.8,0.4-1.1,1.1-1.3c0.3-0.2,0.5-0.6,1-0.5c0.3,0.6,0.7,0.2,1.2,0.2
		c0.7,0,1.6-0.5,2,0.4c0.4,0.8,0.9,1.5,1.1,2.3c-0.3,0.3-0.7,0.2-1.1,0.2C92.1,144.5,90.2,144.5,88.4,144.5z"/>
	<path class="st12" d="M134.4,127.6c0.7-1.8,1-3.6,1.4-5.4c0.1,0,0.2,0,0.2,0c0.1,1-0.3,1.9-0.5,2.8c-0.5,2-1,4-2,5.8
		c-2.9,5.2-9.8,7.4-15.1,4.6c-2.7-1.4-4-4-4.7-6.7c-0.3-1.2-0.8-2.3-0.6-3.6c0.5,0.8,0.2,1.7,0.7,2.5c0.2,2.2,1.2,4.1,2.7,5.7
		c0.2,0.4,0.6,0.8,1,1c2.6,1.8,5.4,2.2,8.5,1.5c1.7-0.4,3.3-1,4.5-2.3C132.6,132,133.8,130,134.4,127.6z"/>
	<path class="st5" d="M140.7,108.8c-0.9,0.3-0.6,1.1-0.7,1.6c-0.4,3-0.7,6-1,9c-0.4,4.1-0.6,8.1-0.9,12.2c0,0.2-0.1,0.4-0.3,0.4
		c0.1-2.8,0.2-5.6,0.4-8.4c0.2-3.2,0.5-6.4,0.8-9.5c0.2-2.1,0.4-4.1,0.6-6.2c0.1-0.9,0.5-1.6,1.2-2.2
		C141.2,106.8,140.7,107.8,140.7,108.8z"/>
	<path class="st12" d="M88.2,108.4c4.9-4.3,14-5.3,19.2-0.8c0.1,0.1,0.2,0.2,0.3,0.3c0,0,0.1,0.1,0.1,0.1c0,0.1,0.1,0.1,0.2,0.1
		c0,0,0.1,0.1,0.1,0.1c0.1,0,0.1,0.1,0.2,0.2c0,0,0.1,0,0.1,0c0.1,0,0.1,0.1,0.2,0.2c0,0,0,0,0,0c0.1,0.4,0.2,0.7,0.7,0.7
		c0.1,0,0.1,0.1,0.1,0.1c-0.2,0.5,0.1,0.7,0.3,1.1c0.5,0.8,0.9,1.6,0.9,2.6c-0.2,0-0.4,0-0.6,0c-0.3-0.9-0.4-2-1.2-2.7
		c-1.2-1.8-2.7-3.3-4.7-4.1c-4.7-1.9-9.2-1.3-13.6,1c-0.7,0.4-1.3,1-2.1,1.3C88.3,108.5,88.3,108.5,88.2,108.4z"/>
	<path class="st12" d="M140.5,110.8c0-0.3,0-0.6,0.1-0.9c0.2-0.1,0.4-0.3,0.4-0.6c0.1-1.2,0.2-2.4,0.2-3.7c2.7-0.2,5.4,0.1,8.1,0.2
		c0.4,0,0.5,0.3,0.6,0.6c0.9,2,1.9,4,2.8,6c0,0,0,0.1,0,0.1c-0.1,0.1-0.1,0.1-0.2,0.2c-0.6-1.1-1.2-2.2-1.7-3.3
		c-0.4-0.9-0.8-1.7-1.1-2.6c-0.1-0.3-0.3-0.6-0.7-0.6c-2.1-0.1-4.2-0.2-6.3-0.2c-0.5,0-0.7,0.2-0.7,0.6c-0.1,1.1-0.2,2.2-0.2,3.2
		c-0.2,1.5-0.5,3-0.4,4.5c0,0.2,0,0.5-0.2,0.7c-0.2,0-0.5,0-0.7,0c0.3-1.2,0.2-2.4,0.2-3.6C140.5,111.3,140.5,111.1,140.5,110.8z"/>
	<path class="st19" d="M154.2,156.9c-0.1-0.9,0.3-1.7,0.4-2.5c0.1-0.5,0.2-1,0.3-1.5c1.5,2.5,2.4,5.1,3.4,7.8
		c-0.3-0.1-0.6-0.2-1-0.3c-1.2-0.2-1.9-0.8-2.3-2C154.9,157.9,154.7,157.3,154.2,156.9z"/>
	<path class="st19" d="M135.2,155.2c0-0.1,0-0.2,0-0.3c0-0.5-0.2-1-0.4-1.5c0.8,0.8,1.6,0.3,2.4,0.1c0.7-0.2,0.5-0.8,0.5-1.3
		c0-0.6,0-1.2,0.1-1.8c0.4-0.8,0.1-1.6,0.2-2.5c0-0.8,0-1.7-0.1-2.5c-0.1-0.2-0.3-0.3-0.4-0.5c1.7-0.1,1.6-0.1,1.6,1.6
		c0,0.5-0.5,1.1,0,1.6c0,0.2,0,0.3,0,0.5c-0.3,1.3-0.4,2.5-0.2,3.8c0,0.4,0,0.7,0,1.1c-0.8,0.6-1.8,0.4-2.7,0.5
		c-0.6,1.1-0.1,2.3-0.2,3.5c0,0.4,0.2,0.9-0.4,1c-0.7-0.7-0.3-1.6-0.5-2.3C134.8,155.8,135.6,155.6,135.2,155.2z"/>
	<path class="st6" d="M112,118.2c0.7,0.7,0.4,1.6,0.5,2.4c0,0.3-0.1,0.6-0.1,1c-0.2,0.1-0.2,0.3-0.2,0.5c0,0.2,0,0.3,0,0.5
		c0,0-0.1,0.1-0.1,0.1c-0.9,2.1-1.8,4.3-2.7,6.4c0,0,0,0.1-0.1,0.1c-0.7,0.5-1.1,1.2-1.3,1.9c0,0,0,0.1-0.1,0.1
		c-0.5,0.1-0.8,0.5-0.8,1c0,0.1-0.1,0.1-0.1,0.1c-0.2,0-0.4,0-0.6,0c0-0.1,0-0.3,0-0.4c3.1-4.1,4.9-8.7,4.9-13.9
		c0.1,0,0.2-0.1,0.3-0.1C111.8,118,111.9,118.1,112,118.2z"/>
	<path class="st10" d="M138.8,153.5c0-0.4,0-0.7,0-1.1c0.4-0.5,0.1-1.1,0.2-1.6c1.9,0.6,3.7,0.7,5.6,0c0,0.9,0.1,1.8-0.1,2.7
		C142.6,153.5,140.7,153.5,138.8,153.5z"/>
	<path class="st13" d="M121.8,146.9c-0.2,0-0.3,0-0.5,0c0.7-2.5,1.7-4.8,2.6-7.2c0.2-0.4,0.5-0.5,0.9-0.5c1.5,0,2.9,0,4.4,0
		c0.5,0,0.8,0.1,1,0.6c0.8,2.4,1.7,4.8,2.5,7.1c0,0.1,0,0.3-0.1,0.4c-0.1-0.2-0.3-0.2-0.5-0.2c-0.3-0.7-0.6-1.4-0.9-2
		c-0.2-0.6-0.4-1.2-0.6-1.8c-0.3-1-0.7-2.1-1-3.1c-0.1-0.4-0.3-0.5-0.7-0.6c-3.8-0.5-4.4-0.2-5.6,3.4c0,0.1,0,0.1,0,0.2
		c-0.3,0.6-0.6,1.3-0.7,2C122.2,145.8,122.3,146.5,121.8,146.9z"/>
	<path class="st14" d="M193.6,124.4c-2.8,0-5.6,0-8.5,0c-1.1,0-2.1,0-3.1-0.5c0.1-0.3,0.1-0.6,0.2-0.9c3.5,0.1,7.1,0.1,10.6,0.2
		C193.8,123.3,193.7,123.8,193.6,124.4z"/>
	<path class="st11" d="M101.2,149.9c-1-1.1-1.8-2.3-2.6-3.6c-0.3-0.5-0.7-1-1.1-1.4c-0.2-0.2-0.6-0.8-1,0c-1-1.1-1.4-2.5-2-3.8
		c1.6,0.1,2.9,0.7,3.6,2.3C99,145.6,100.4,147.7,101.2,149.9z"/>
	<path class="st17" d="M155.6,137.6c0.1-0.4-0.1-0.7-0.3-1.1c-1.8-3.7-3.7-7.3-5.5-10.9c-0.2-0.3-0.2-0.9-0.8-0.8
		c0.1-0.2-0.2-0.7,0.3-0.8c0.3-0.1,0.4,0.3,0.5,0.5c0.7,1.2,1.3,2.4,2,3.7c1,2.1,2.1,4.1,3.1,6.2c0,0.1,0.1,0.2,0.1,0.3
		c0.6,1.7,1.4,3,3.5,2.8c1.2-0.1,2.7,0.6,3.5,0c0.8-0.5,0.8-2.2,0.9-3.3c0.1-0.2,0.2-0.5,0.3-0.7c0.2,1.5-0.6,2.9-0.9,4.4
		c-0.1,0.3-0.4,0.4-0.6,0.4C159.6,138,157.6,138.2,155.6,137.6z"/>
	<path class="st6" d="M180.8,118.3c-0.2,0-0.4-0.1-0.5-0.1c-0.1-0.1-0.1-0.2-0.2-0.4c0,0,0,0,0,0c0.2,0,0.4,0.1,0.5-0.2c0,0,0,0,0,0
		c0.4,0.1,0.8-0.1,1.2-0.1c2.5-0.3,4.8,0,6.7,1.9c-1.5,0.1-3,0.1-4.5,0.3c-0.7,0.1-1.2-0.4-1.7-0.7c-0.4-0.2-0.8-0.3-1.2-0.5
		C180.9,118.3,180.9,118.3,180.8,118.3z"/>
	<path class="st9" d="M135.2,155.2c0.4,0.4-0.3,0.6-0.2,1c-1.4,0.3-2.5,1.1-3.8,1.8c-1.6,0.8-1.8,0.8-2.1-0.9
		c-0.2-0.8-0.5-1.2-1.4-1.1c-0.4,0.1-0.9,0.1-1.4,0c-1.3-0.2-2.1,0.3-2.4,1.6c-0.2,0.7-0.7,0.9-1.3,0.6c-1.3-0.6-2.7-1.2-4-1.9
		c-0.5-0.3-0.7-0.6-0.4-1.2c0.1,0.4,0.3,0.7,0.6,0.9c1.2,0.6,2.4,1.1,3.6,1.7c0.6,0.3,0.8,0.1,1-0.4c0.1-0.3,0.4-0.7,0.5-1
		c0.1-0.6,0.5-0.7,1-0.7c0.7,0,1.4,0.1,2.1,0c1.3-0.2,2.3,0.1,2.5,1.7c0.1,0.8,0.5,0.7,1.1,0.4C132.2,156.8,133.7,156,135.2,155.2z"
		/>
	<path class="st18" d="M101.6,155.8c0.6,0.5,0,0.8-0.3,1c-1,0.7-2,1.4-3,2.1c-0.4,0.1-0.7,0.4-0.8,0.7c-0.4,0.6-0.8,0.6-1.1-0.1
		c-0.1-0.2-0.3-0.5-0.3-0.7c-0.2-1-0.8-1.4-1.8-1c-0.7-0.2-1.4,0.2-2.2,0.3c-0.8,0-1.8,1.6-1.5,2.4c0,0.1,0.3,0.1,0.5,0.1
		c-0.1,0.1-0.3,0.2-0.4,0.2c-2-0.5-3.9-1-5.6-2c1.3,0.4,2.7,0.7,4,1.2c0.8,0.3,1.3,0.1,1.3-0.7c0.1-1.3,0.8-1.7,1.9-1.8
		c0.5,0,0.9,0,1.4-0.1c1.9-0.3,1.9-0.3,2.6,1.3c0.3,0.6,0.5,0.9,1.1,0.4C98.7,157.8,100.4,157.1,101.6,155.8z"/>
	<path class="st18" d="M148,159.4c0.7-0.2,0.6-0.7,0.6-1.2c0.3-4.6,1.1-9.2,1.8-13.8c0.1-0.7,0.3-1.4,0.4-2.2
		c0.1-0.4,0.1-0.8-0.4-0.8c0.2-0.2,0.4-0.2,0.7-0.1c-0.2,2.1-0.5,4.2-0.7,6.3c-0.5,1.9-0.7,3.9-0.9,5.9c-0.2,1.7-0.5,3.3-0.7,5
		c0,0.3-0.1,0.6,0.3,0.6c1.4,0.2,2.9,0.7,4.3,0.3c0.1,0.6-0.3,0.7-0.7,0.6C151.1,159.9,149.5,160,148,159.4z"/>
	<path class="st9" d="M90,136.6c3.3,0.9,6.6,0.7,9.8-0.5c1.8-0.7,3.6-1.6,5-3c0.2-0.2,0.4-0.4,0.7-0.3c0.2,0.6-0.8,0.6-0.5,1.2
		c-1.5,1-2.9,2.2-4.8,2.7c-1.3,0.3-2.4,0.9-3.8,0.9c-0.4,0-0.8,0-1.2,0C93.3,137.6,91.6,137.4,90,136.6L90,136.6z"/>
	<path class="st12" d="M187.7,107.9c-0.1,0.7-0.6,0.3-0.9,0.3c-3.5-0.2-6.9-0.1-9.9,1.9c-1.3,0.6-2.3,1.6-3.4,2.5
		c0-0.3-0.2-0.4-0.4-0.4c0.7-1,1.7-1.8,2.7-2.5c0.9,0,1.6-0.6,2.2-1.1c2.7-0.9,5.5-1.1,8.4-0.8C186.8,107.8,187.3,107.9,187.7,107.9
		z"/>
	<path class="st12" d="M79.9,111.8c-0.2,1.1-0.4,2.1-1.3,2.9c-0.2,0-0.5,0-0.7,0c0.1-0.2,0.1-0.3,0.2-0.5c0.9-2.3,0.9-2.3-0.9-3.1
		c-1.1-0.7-2.2-1.4-3.3-2c-0.7-0.4-1.2-1-2.1-1c0-0.1-0.1-0.2-0.1-0.3c0.2-0.7,0.5-0.7,1-0.3c0.3,0.1,0.6,0.2,0.9,0.3c0,0,0,0,0,0
		c0,0.6,0.7,0.5,0.9,0.9C76.3,109.8,78.1,110.8,79.9,111.8z"/>
	<path class="st15" d="M121.9,116.5c0-3.6,0-7.3,0.1-10.9c0.6,0.6,0.4,1.3,0.4,2c0,4.3,0,8.7,0,13c0,1.2,0.1,2.4,0.2,3.6
		c-1-0.7-0.5-1.8-0.6-2.7C121.9,119.8,121.9,118.1,121.9,116.5z"/>
	<path class="st15" d="M139.2,133.9c-0.1,2.5-0.1,2.5,2.4,2.5c1.5,0,2.9,0.1,4.4,0.2c0.6,0,0.9-0.2,1.1-0.7c0.2,0.7-0.1,1.3-0.8,1.2
		c-2.4-0.3-4.8,0.2-7.2-0.4c-0.3-0.1-0.5-0.1-0.6-0.4c0.4-2.3,0.4-4.6,0.4-6.9c0-0.5-0.1-0.9,0.4-1.2
		C139.5,130.3,139,132.1,139.2,133.9z"/>
	<path class="st11" d="M150.4,141.5c0.6,0.1,0.5,0.4,0.4,0.8c-0.1,0.7-0.3,1.4-0.4,2.2c-0.9-0.1-1.1,0.6-1.3,1.2
		c-0.3,0.8-0.3,1.7-1.1,2.2c0.2-1.7,0.5-3.3,0.7-5C148.8,141.9,149.6,141.7,150.4,141.5z"/>
	<path class="st13" d="M94.6,141.1c0.6,1.3,1,2.7,2,3.8c0.4,1,0.9,2,1.3,2.9c-0.3,0-0.6,0-0.9,0c-0.5-0.9-1-1.8-1.6-2.7
		c-0.1-0.3-0.2-0.7-0.5-0.9c-0.2-0.9-0.7-1.6-1.1-2.3c-0.4-0.9-1.3-0.3-2-0.4c-0.4,0-0.9,0.4-1.2-0.2
		C92,141.3,93.3,140.8,94.6,141.1z"/>
	<path class="st19" d="M91.1,160.5c-0.2,0-0.5,0-0.5-0.1c-0.3-0.8,0.7-2.3,1.5-2.4c0.7,0,1.4-0.4,2.2-0.3c0,0.1-0.1,0.1-0.1,0.2
		C93.9,159.8,92.5,160.2,91.1,160.5z"/>
	<path class="st18" d="M135.5,158.5c0.6-0.2,0.3-0.7,0.4-1c0.2-1.2-0.3-2.4,0.2-3.5c0,1.2,0,2.4,0,3.6c0,0.5,0.1,0.9,0.7,0.9
		c3.3,0,6.6,0.6,9.9,0.5c0,0.1,0,0.1,0,0.2c-0.2,0.3-0.5,0.5-0.8,0.4c-2.5-0.3-5-0.3-7.4-0.6c-0.6-0.1-1.3-0.1-1.9-0.1
		C136.1,158.9,135.7,159,135.5,158.5z"/>
	<path class="st18" d="M158.3,160.7c-0.9-2.7-1.9-5.3-3.4-7.8c0-0.2-0.1-0.5,0.2-0.6c0.2-0.1,0.3,0.2,0.4,0.3
		c0.3,0.5,0.5,1.1,0.8,1.6c0.8,1.8,1.5,3.7,2.3,5.5c0.2,0.5,0.6,0.7,1,0.7c0.9,0.1,1.7,0.2,2.6,0.3c-0.1,0.5-0.5,0.5-0.8,0.4
		C160.3,161,159.3,161.1,158.3,160.7z"/>
	<path class="st11" d="M112.9,145.8c-2.8,0.1-3.9,0.9-4.4,3.1c-0.2,0.8,0.2,1.5,0.3,2.2c0,0-0.1,0-0.1,0c-0.7-0.7-0.9-1.6-0.7-2.5
		c0.2-0.8,0.4-1.7,0.4-2.5C109.8,145.1,111.4,145.1,112.9,145.8z"/>
	<path class="st17" d="M103.4,156.2c0-0.1,0-0.3,0-0.4c0.6,0.2,0.9,0.8,1.3,1.2c1.2,1.5,2.8,1.9,4.7,1.7c1.8-0.2,3.4-0.9,4.9-1.8
		c0,0.1,0,0.3,0,0.4c-3.1,2.7-7.6,2.5-10.3-0.6C103.8,156.5,103.6,156.4,103.4,156.2z"/>
	<path class="st11" d="M114.6,144.9c0.1,0,0.1-0.1,0.2-0.1c0.4-0.2,0.9-0.4,0.9-1c0,0,0,0,0,0c0.6,0,1-0.5,1.4-0.9
		c0.1,0,0.1-0.1,0.2-0.1c0.2,0,0.5-0.1,0.7-0.1c0.6,0.4,0.1,0.7-0.1,1c-0.8,0.7-1.6,1.3-2.3,2c-0.7,0.7-1.4,0.8-2.2,0.2
		C113.9,145.8,114.2,145.2,114.6,144.9z"/>
	<path class="st13" d="M150.3,147.6c0.2-2.1,0.5-4.2,0.7-6.3c1-0.2,1.9,0.2,2.9,0.2c0,0.1,0,0.2,0,0.3c-2.2-0.3-2.2-0.3-2.3,1.9
		c-0.3,0.4-0.1,0.9-0.2,1.3c-0.5,0.8-0.2,1.7-0.6,2.5C150.7,147.6,150.5,147.6,150.3,147.6z"/>
	<path class="st11" d="M116.8,153.3c0.7-1.6,0.3-3.3,0-4.9c-0.1-0.4-0.2-0.6-0.7-0.5c1-0.3,1.6,0.1,1.5,1.1c-0.1,2.1,0.6,4.3-1,6.2
		c-0.2,0-0.3,0.6-0.7,0.2c0.2-0.3,0.3-0.6,0.3-0.9l0,0c0.2-0.1,0.2-0.3,0.2-0.5l0,0C116.8,153.8,116.7,153.5,116.8,153.3z"/>
	<path class="st17" d="M188.4,119.3c-1.9-1.8-4.2-2.1-6.7-1.9c-0.4,0-0.8,0.3-1.2,0.1c1.7-1,3.4-0.8,5.2-0.4c0.8,0.2,1.7,0.5,2.4,1
		c0.7,0.5,1.3,0.6,2,0c0.4-0.3,0.9-0.4,1.3-0.6C190.6,118.6,189.6,119.2,188.4,119.3z"/>
	<path class="st11" d="M137.4,144.9c0.1,0.2,0.3,0.3,0.4,0.5c-0.1,0-0.2,0-0.3,0c-2-0.1-2-0.1-1.6-2.1c0.3-1.1,0-2.4,1.3-3.1
		c0,0.1,0,0.2,0,0.2c0,0.4,0,0.7,0,1.1c0,0,0,0,0,0c-0.3,0.8-0.5,1.6-0.5,2.5c0,0,0,0,0,0C136.1,144.9,136.9,144.8,137.4,144.9z"/>
	<path class="st18" d="M114.6,144.9c-0.4,0.3-0.6,0.9-1.3,0.9c-0.1,0-0.3,0-0.4-0.1c-1.6-0.7-3.1-0.7-4.5,0.3
		c-1.1,0.7-1.4,1.8-1.6,2.9c-0.6-1.8,1-3.8,3.2-4.1c0.6-0.1,1.2-0.2,1.7,0C112.7,145.3,113.6,145.3,114.6,144.9z"/>
	<path class="st17" d="M182.3,123.1c-0.1,0.3-0.1,0.6-0.2,0.9c-0.9,2.8-0.9,2.8,2,3.8c0.7,0.2,0.7,0.5,0.3,1c-0.1,0-0.3,0-0.4,0
		c0.2-0.3,0.2-0.4-0.2-0.5c-0.7-0.2-1.5-0.6-2.2-0.8c-0.7-0.2-0.8-0.4-0.6-1.1c0.3-1,0.7-2,0.8-3.1
		C181.8,123,182.1,123.1,182.3,123.1z"/>
	<path class="st5" d="M178,108.6c-0.7,0.5-1.3,1.1-2.2,1.1c-0.3-0.4-0.6-0.1-0.9,0c-1.4,0.5-2.7,1.1-3.9,1.9c-0.3,0.2-0.6,0.4-1,0.4
		c1.4-1.4,3.2-2.1,5.1-2.7C176,108.9,177,108.6,178,108.6z"/>
	<path class="st11" d="M157.4,144.7c0-0.1,0-0.1-0.1-0.2c0.7-1.8,2.2-2.2,3.9-2.3c0,0.1,0,0.3,0,0.4c0,0,0,0,0,0
		c-0.2,0.1-0.2,0.3-0.2,0.5c0,0,0,0,0,0c-0.2,0.1-0.2,0.3-0.2,0.5c0,0,0,0,0,0c-0.1,0-0.1,0-0.2,0c-0.6-0.5-1,0-1.5,0.2
		C158.5,144.1,158.1,144.6,157.4,144.7z"/>
	<path class="st9" d="M183,139.4c0.2,0,0.3,0,0.5,0c0,0.1,0,0.1,0,0.2c-0.5,0.7-1.3,0.5-1.9,0.6c-1.9,0.4-3.8,0.4-5.6-0.3
		c0.1,0,0.3-0.1,0.4-0.1c0.8,0.1,1.6,0.1,2.5,0.2C180.2,140.1,181.7,140.2,183,139.4z"/>
	<path class="st9" d="M110.6,113.1c0-1-0.4-1.8-0.9-2.6c-0.2-0.3-0.6-0.6-0.3-1.1c1.5,1.8,2.1,3.9,2.1,6.2c-0.1,0.1-0.1,0.3-0.2,0.4
		c-0.1,0-0.1,0-0.2,0C110.9,115,110.7,114.1,110.6,113.1z"/>
	<path class="st12" d="M82.8,115.7c0-1.1,1-1.8,1-2.9c0.7-0.1,0.8-0.7,1.2-1.1c0.5-0.7,1-1.4,1.7-1.9c0,0,0.1,0.1,0.1,0.1
		c-0.1,0.2-0.2,0.4-0.3,0.7c-1.1,0.9-1.8,2.1-2.4,3.4c-0.6,0.5-0.4,1.4-1.1,1.9C82.9,115.8,82.9,115.8,82.8,115.7z"/>
	<path class="st5" d="M81.8,119.4c0,0.6,0.1,1.2-0.2,1.8c-0.5-0.4-0.5,0.1-0.6,0.4c-0.7,1.4-1,2.9-1.8,4.3c0.2-1.8,1-3.4,1.7-5
		C81.2,120.4,81.5,119.9,81.8,119.4z"/>
	<path class="st9" d="M85,133c1.4,1.5,3.1,2.7,5,3.6c0,0-0.1,0.1-0.1,0.1c-0.2,0-0.3,0-0.5,0C87.5,136,85.8,135,85,133z"/>
	<path class="st14" d="M136,122.1c-0.1,0-0.2,0-0.2,0c-0.1-0.2-0.3-0.2-0.4-0.2c0.1-0.8,0.3-1.7,0.4-2.5c0.2-0.6,0.3-1.2,0.5-1.8
		c1,0.5,0.1,1.3,0.3,1.9c0,0.1,0,0.2,0,0.3c-0.1,0.2-0.3,0.5-0.2,0.8c0,0.1,0,0.2,0,0.3c-0.1,0.2-0.3,0.5-0.2,0.8
		C136,121.9,136,122,136,122.1z"/>
	<path class="st18" d="M144.9,145.8c-0.3-0.5-0.3-0.9,0.4-0.9c0.3,0,0.5,0,0.8,0c1.6,0.1,1.6,0.1,1.6-1.5c0-1.1,0-2.2,0-3.3
		c0.5,1.7,0.2,3.5,0.2,5.3c0,0.2-0.2,0.3-0.4,0.3c-0.4-0.1-0.9-0.3-1.4-0.4C145.6,145.4,145,145.1,144.9,145.8z"/>
	<path class="st5" d="M109.4,129.1c0.9-2.1,1.8-4.3,2.7-6.4C111.7,125,110.8,127.1,109.4,129.1z"/>
	<path class="st17" d="M183.5,139.6c0-0.1,0-0.1,0-0.2c1.4-0.6,2.9-1.2,4.3-1.8C186.7,139,185.2,139.5,183.5,139.6z"/>
	<path class="st5" d="M74.5,108.7c-0.2-0.4-0.9-0.2-0.9-0.9c1.8,0,3.4,0.6,4.8,1.8c-1.2-0.1-2-1-3.1-1.1
		C75,108.4,74.6,108.1,74.5,108.7z"/>
	<path class="st15" d="M71.7,107.8c0,0.1,0.1,0.2,0.1,0.3c-0.4,1.1-0.7,2.3-1.1,3.4c-0.3,0.7-0.6,1.4-0.9,2c-0.1,0-0.2,0-0.2,0
		C70.1,111.6,70.8,109.6,71.7,107.8z"/>
	<path class="st16" d="M89.5,136.7c0.2,0,0.3,0,0.5,0c1.6,0.8,3.4,0.9,5.1,0.9c0.4,0,0.8,0,1.2,0C93.9,137.9,91.6,138.1,89.5,136.7z
		"/>
	<path class="st15" d="M176.4,139.8c-0.1,0-0.3,0.1-0.4,0.1c-1.4-0.3-2.8-0.5-4-1.4c0.6,0.1,1.2,0.3,1.9,0.4
		C174.7,139.2,175.5,139.5,176.4,139.8z"/>
	<path class="st15" d="M192.7,110.2c-0.9-0.5-1.8-0.9-2.8-1.2c-0.3-0.1-0.8,0-0.8-0.6c1.4,0.3,2.8,0.6,3.9,1.8
		C192.9,110.1,192.8,110.2,192.7,110.2z"/>
	<path class="st5" d="M61.8,110.9c-0.8-0.3-1.2-1-1.8-1.6C61.5,109.3,61.6,109.4,61.8,110.9z"/>
	<path class="st18" d="M163.1,142.5c0-0.1,0-0.2,0-0.3c1.3-0.1,2.6,0.3,3.9,0.7c-0.1,0.1-0.3,0.1-0.4,0.2
		C165.4,142.7,164.2,142.8,163.1,142.5z"/>
	<path class="st13" d="M116.1,155.3c0.3,0.4,0.4-0.2,0.7-0.2c-0.5,1-1.4,1.7-2.4,2.1c0-0.1,0-0.3,0-0.4c0,0,0,0,0,0
		c0.2,0,0.4,0,0.5-0.2l0,0c0.1-0.1,0.2-0.2,0.2-0.2l0,0c0.1-0.1,0.2-0.2,0.2-0.2c0,0,0,0,0,0c0.1-0.1,0.2-0.2,0.2-0.2c0,0,0,0,0,0
		c0.3-0.1,0.4-0.4,0.5-0.7l0,0C115.9,155.3,116,155.3,116.1,155.3z"/>
	<path class="st15" d="M141.2,105.6c-0.1,1.2-0.2,2.4-0.2,3.7c0,0.3-0.2,0.5-0.4,0.6c0-0.4,0-0.7,0.1-1.1c0-1,0.6-2,0.1-3
		C140.9,105.6,141.1,105.6,141.2,105.6z"/>
	<path class="st11" d="M144.9,145.8c0.2-0.7,0.7-0.4,1.1-0.4c0.5,0,0.9,0.2,1.4,0.4c-0.8,0.2-1.5,0.3-2.3,0.3c0,0-0.1-0.1-0.1-0.1
		C144.9,145.9,144.9,145.9,144.9,145.8z"/>
	<path class="st17" d="M176.8,123.1c-0.2,0.4-0.3,0.8-0.5,1.2c0-0.1,0-0.3,0-0.4c0.1-0.9-0.1-1.9,0.6-2.7
		C177.1,121.9,176.7,122.5,176.8,123.1z"/>
	<path class="st9" d="M112.2,122.6c0-0.2,0-0.3,0-0.5c0.2-0.1,0.2-0.3,0.2-0.5c0-0.3,0.1-0.6,0.1-1c0.1,0.4,0.3,0.8,0.4,1.1
		c0,0.8,0,1.7,0,2.5C112.3,123.8,113.1,122.9,112.2,122.6z"/>
	<path class="st5" d="M108.1,131.1c0.2-0.8,0.6-1.5,1.3-1.9C109.1,129.9,108.7,130.6,108.1,131.1z"/>
	<path class="st15" d="M111.2,116c0.1-0.1,0.1-0.3,0.2-0.4c0.4,0.7,0.2,1.5,0.2,2.2c-0.1,0-0.2,0.1-0.3,0.1
		C111.3,117.3,111.3,116.7,111.2,116z"/>
	<path class="st5" d="M82.3,111.9c-0.9-0.1-1.6-0.5-2.1-1.3C81,110.9,81.7,111.3,82.3,111.9z"/>
	<path class="st11" d="M108.8,151.1c0.3,0.1,0.4,0.8,0.9,0.4c0,0,0,0,0,0c-0.2,0.8,0.5,0.6,0.9,0.9c-0.2,0-0.3,0-0.5,0
		C109.4,152.2,108.9,151.8,108.8,151.1L108.8,151.1z"/>
	<path class="st12" d="M86.6,109.8c0.4-0.6,0.9-1.1,1.6-1.4c0,0,0.1,0.1,0.1,0.1c-0.5,0.5-0.9,1.1-1.6,1.4
		C86.7,109.9,86.7,109.9,86.6,109.8z"/>
	<path class="st18" d="M144.7,150.1c0-1.2-0.2-2.4,0.1-3.6C144.9,147.7,145,148.9,144.7,150.1z"/>
	<path class="st17" d="M177.1,121c0-0.7,0.3-1.3,1-1.6C178.1,120.1,177.5,120.5,177.1,121z"/>
	<path class="st17" d="M180.1,117.9c0.1,0.1,0.1,0.2,0.2,0.4c-0.4,0.3-0.9,0.4-1.4,0.4C179.1,118.1,179.5,117.9,180.1,117.9z"/>
	<path class="st5" d="M80,110.5c-0.6,0-1.2-0.2-1.4-0.8C79.1,109.8,79.6,110.1,80,110.5z"/>
	<path class="st15" d="M125.6,124.9c-0.7,0.3-1.5,0.5-2.2,0C124.1,124.9,124.8,124.9,125.6,124.9z"/>
	<path class="st5" d="M169.4,112.5c-0.1,0.5-0.5,0.8-1,0.9C168.6,112.9,168.9,112.6,169.4,112.5z"/>
	<path class="st11" d="M137.9,147.9c0,0.8,0.2,1.7-0.2,2.5C137.7,149.5,137.6,148.7,137.9,147.9z"/>
	<path class="st17" d="M163.2,133.2c0-0.6-0.2-1.2,0.3-1.7C163.8,132.1,163.5,132.6,163.2,133.2z"/>
	<path class="st5" d="M107.2,132.2c0-0.6,0.3-0.9,0.8-1C107.9,131.7,107.6,132,107.2,132.2z"/>
	<path class="st18" d="M153.5,158.9c0-0.6,0-1.3,0.4-1.8C154,157.8,153.8,158.4,153.5,158.9z"/>
	<path class="st5" d="M167.2,114.7c0-0.3,0-0.6,0-0.8c0.2,0,0.4,0,0.6,0.1C167.7,114.3,167.6,114.6,167.2,114.7z"/>
	<path class="st15" d="M148.5,127.9c0.1,0,0.1,0,0.1,0.1c-0.3,0.5,0,1.2-0.5,1.6c0-0.5,0-1,0.1-1.6
		C148.4,128,148.4,127.9,148.5,127.9z"/>
	<path class="st18" d="M117.9,142.6c-0.2,0-0.5,0.1-0.7,0.1c0-0.3,0-0.6,0-0.9C117.6,142,117.8,142.2,117.9,142.6z"/>
	<path class="st11" d="M98.9,159.3c0.2-0.5,0.6-0.5,1-0.6C99.6,159.1,99.3,159.3,98.9,159.3z"/>
	<path class="st5" d="M83.4,112.6c-0.5,0-0.8-0.1-1-0.6C82.9,112,83.2,112.2,83.4,112.6z"/>
	<path class="st9" d="M109.3,109.3c-0.5,0-0.6-0.3-0.7-0.7C109,108.6,109.2,108.9,109.3,109.3z"/>
	<path class="st11" d="M97.5,159.6c0.2-0.3,0.5-0.6,0.8-0.7c0,0.2,0,0.3,0.1,0.5C98.1,159.6,97.8,159.7,97.5,159.6z"/>
	<path class="st15" d="M147.7,132.6c-0.1-0.4,0.1-0.8,0.2-1.2C148.1,131.9,148.1,132.3,147.7,132.6z"/>
	<path class="st15" d="M158.9,106c-0.1,0.3-0.2,0.6-0.5,0.8c-0.1-0.2-0.1-0.3-0.2-0.5C158.4,106,158.7,105.9,158.9,106z"/>
	<path class="st15" d="M147.9,131.1c-0.2-0.4,0.1-0.7,0.2-1C148.3,130.5,148.3,130.8,147.9,131.1z"/>
	<path class="st15" d="M170.1,137.9c0.3,0,0.6,0,0.8,0.3C170.6,138.2,170.2,138.3,170.1,137.9z"/>
	<path class="st15" d="M147.2,135.5c-0.1-0.3,0-0.6,0.2-0.9C147.7,135,147.5,135.3,147.2,135.5z"/>
	<path class="st15" d="M147.5,134c-0.1-0.4,0.1-0.6,0.2-1C147.8,133.4,147.8,133.7,147.5,134z"/>
	<path class="st5" d="M73.6,107.9c-0.3-0.1-0.6-0.2-0.9-0.3C73.1,107.4,73.5,107.3,73.6,107.9z"/>
	<path class="st15" d="M193.7,110.6c-0.3,0-0.6-0.1-0.7-0.5C193.3,110.1,193.6,110.2,193.7,110.6z"/>
	<path class="st12" d="M136.3,120.7c-0.1-0.3,0.1-0.5,0.2-0.8C136.7,120.2,136.6,120.5,136.3,120.7z"/>
	<path class="st12" d="M136,121.8c-0.1-0.3,0.1-0.5,0.2-0.8C136.5,121.3,136.4,121.6,136,121.8z"/>
	<path class="st11" d="M100.3,158.4c0-0.4,0.3-0.4,0.5-0.4C100.7,158.3,100.5,158.4,100.3,158.4z"/>
	<path class="st15" d="M196.2,113.1c-0.3,0-0.5-0.2-0.5-0.5C196,112.6,196.1,112.9,196.2,113.1z"/>
	<path class="st5" d="M78.6,127.1c0-0.2,0.1-0.3,0.3-0.4C79,127,78.7,127,78.6,127.1z"/>
	<path class="st11" d="M147.9,148.3c0.1,0.3,0.1,0.5-0.2,0.7C147.6,148.7,147.7,148.5,147.9,148.3z"/>
	<path class="st17" d="M64.1,137.1c0.2,0,0.3,0,0.4,0.2C64.3,137.3,64.2,137.3,64.1,137.1z"/>
	<path class="st15" d="M55.9,112.8c-0.1,0.2-0.3,0.3-0.5,0.2C55.5,112.9,55.6,112.8,55.9,112.8z"/>
	<path class="st12" d="M152.8,112.4c0.1,0.2,0.2,0.4,0.4,0.6c0,0,0,0,0,0C152.9,112.9,152.8,112.7,152.8,112.4L152.8,112.4z"/>
	<path class="st17" d="M64.5,137.3c0.2,0,0.3,0,0.4,0.2C64.8,137.6,64.6,137.5,64.5,137.3z"/>
	<path class="st15" d="M56.8,111.6c0,0.2,0,0.4-0.2,0.5C56.5,111.9,56.6,111.8,56.8,111.6z"/>
	<path class="st15" d="M194.3,111c-0.2,0-0.4,0-0.5-0.2C194.1,110.7,194.3,110.8,194.3,111z"/>
	<path class="st15" d="M195.7,112.6c-0.2-0.1-0.2-0.3-0.2-0.5C195.7,112.3,195.8,112.4,195.7,112.6z"/>
	<path class="st12" d="M58.3,110.1c0,0.1,0,0.1-0.1,0.2C58.2,110.2,58.3,110.2,58.3,110.1z"/>
	<path class="st18" d="M161.2,142.6c0-0.1,0-0.3,0-0.4c0.1,0,0.2,0,0.3,0C161.5,142.4,161.4,142.6,161.2,142.6z"/>
	<path class="st9" d="M107.8,107.9c-0.1-0.1-0.2-0.2-0.3-0.3C107.6,107.7,107.8,107.7,107.8,107.9z"/>
	<path class="st15" d="M55.2,113.2c0,0.2,0,0.4,0,0.6c-0.1,0-0.2,0-0.3,0C55,113.6,55.1,113.4,55.2,113.2z"/>
	<path class="st5" d="M79,126.4c-0.1-0.2,0-0.3,0.2-0.4C79.2,126.2,79.2,126.3,79,126.4z"/>
	<path class="st15" d="M57.5,111c-0.1,0.1-0.2,0.2-0.3,0.2C57.3,111.2,57.4,111.1,57.5,111z"/>
	<polygon class="st15" points="169,137.2 169,137.2 169,137.3 169,137.3 	"/>
	<path class="st17" d="M188.2,137.3c0.1-0.1,0.1-0.1,0.2-0.2C188.4,137.2,188.3,137.2,188.2,137.3z"/>
	<path class="st17" d="M188,137.5c0.1-0.1,0.1-0.1,0.2-0.2C188.1,137.4,188,137.4,188,137.5z"/>
	<polygon class="st15" points="169.6,137.7 169.7,137.6 169.7,137.7 169.7,137.7 	"/>
	<path class="st18" d="M145,146c0.1,0,0.1,0,0.1,0.1c0,0-0.1,0.1-0.1,0.1C144.9,146.1,144.9,146,145,146z"/>
	<path class="st15" d="M57.7,110.8c-0.1,0.1-0.2,0.2-0.2,0.2C57.5,111,57.6,110.9,57.7,110.8z"/>
	<polygon class="st15" points="171.5,138.4 171.5,138.3 171.5,138.4 171.5,138.4 	"/>
	<path class="st15" d="M193.9,110.8c-0.1-0.1-0.2-0.2-0.2-0.2C193.8,110.6,193.9,110.6,193.9,110.8z"/>
	<path class="st15" d="M57.9,110.5c-0.1,0.1-0.2,0.2-0.2,0.3C57.8,110.7,57.9,110.6,57.9,110.5z"/>
	<path class="st9" d="M108.5,108.6c-0.1-0.1-0.1-0.1-0.2-0.2C108.4,108.4,108.5,108.4,108.5,108.6z"/>
	<path class="st9" d="M108.2,108.4c-0.1-0.1-0.1-0.1-0.2-0.2C108.2,108.2,108.3,108.2,108.2,108.4z"/>
	<path class="st9" d="M108,108.1c-0.1,0-0.1-0.1-0.2-0.1C108,108,108,108,108,108.1z"/>
	<path class="st15" d="M123.2,124.9c-0.1,0-0.1-0.1-0.2-0.1C123.2,124.7,123.2,124.8,123.2,124.9z"/>
	<path class="st15" d="M125.8,124.7c-0.1,0-0.1,0.1-0.2,0.1C125.7,124.8,125.7,124.8,125.8,124.7z"/>
	<path class="st15" d="M126.3,124.3c0,0.1-0.1,0.1-0.1,0.1C126.1,124.3,126.1,124.3,126.3,124.3z"/>
	<path class="st15" d="M122.7,124.4c0-0.1-0.1-0.1-0.1-0.2C122.7,124.2,122.8,124.3,122.7,124.4z"/>
	<path class="st15" d="M126,124.5c0,0.1-0.1,0.1-0.1,0.1C125.9,124.5,125.9,124.5,126,124.5z"/>
	<path class="st17" d="M178.2,119.3c0,0,0-0.1,0.1-0.1c0,0,0,0.1,0.1,0.1C178.3,119.3,178.2,119.3,178.2,119.3z"/>
	<path class="st17" d="M178.4,119C178.4,119,178.5,119,178.4,119c0.1-0.1,0.1,0,0.1,0C178.5,119,178.5,119,178.4,119z"/>
	<path class="st15" d="M123,124.6c-0.1,0-0.1-0.1-0.1-0.1C123,124.5,123,124.5,123,124.6z"/>
	<path class="st17" d="M178.7,118.8C178.7,118.8,178.7,118.8,178.7,118.8c0.1-0.1,0.1,0,0.1,0C178.8,118.8,178.7,118.8,178.7,118.8z
		"/>
	<path class="st17" d="M180.8,118.3c0.1-0.1,0.2-0.1,0.2,0.1C180.8,118.5,180.8,118.5,180.8,118.3z"/>
	<path class="st13" d="M144.9,154.2c-0.1,0-0.1,0-0.2-0.1C144.8,154.1,144.9,154.1,144.9,154.2z"/>
	<path class="st15" d="M56.1,112.6c-0.1,0.1-0.2,0.2-0.2,0.2C55.9,112.7,55.9,112.6,56.1,112.6z"/>
	<path class="st11" d="M147.1,153.8l0,0.1c0,0-0.1,0.1-0.1,0.1C147,153.9,147.1,153.8,147.1,153.8z"/>
	<polygon class="st5" points="137.5,132.6 137.5,132.7 137.5,132.7 137.4,132.6 	"/>
	<path class="st15" d="M56.3,112.4c-0.1,0.1-0.2,0.2-0.2,0.2C56.1,112.5,56.2,112.4,56.3,112.4z"/>
	<polygon class="st5" points="168.2,113.5 168.2,113.5 168.2,113.5 	"/>
	<path class="st15" d="M56.6,112.2c-0.1,0.1-0.2,0.2-0.2,0.2C56.3,112.2,56.4,112.1,56.6,112.2z"/>
	<path class="st15" d="M195.5,112.2c-0.1-0.1-0.2-0.2-0.2-0.2C195.3,112,195.4,112.1,195.5,112.2z"/>
	<path class="st5" d="M169.8,112.1c0,0-0.1,0.1-0.1,0.1C169.7,112.1,169.7,112,169.8,112.1z"/>
	<path class="st15" d="M195.3,112c-0.1-0.1-0.2-0.2-0.2-0.2C195.1,111.8,195.2,111.9,195.3,112z"/>
	<polygon class="st11" points="100,158.6 100.1,158.5 100.1,158.5 100.1,158.6 	"/>
	<path class="st15" d="M195,111.7c-0.1-0.1-0.2-0.2-0.2-0.2C194.9,111.6,194.9,111.6,195,111.7z"/>
	<path class="st15" d="M194.8,111.5c-0.1-0.1-0.2-0.2-0.2-0.2C194.6,111.3,194.7,111.4,194.8,111.5z"/>
	<path class="st15" d="M194.6,111.3c-0.1-0.1-0.2-0.2-0.2-0.2C194.4,111.1,194.5,111.2,194.6,111.3z"/>
	<path class="st17" d="M176.4,139.8c-0.9-0.3-1.7-0.6-2.6-0.9c-1.7-1-3-2.5-3.9-4.3c-2-3.7-2.8-7.6-2-11.8c0.1,0.1,0.3,0.2,0.4,0.2
		c0,0.1,0,0.1,0,0.2c-0.3,1.3-0.3,2.6-0.1,3.9c0,1.9,0.5,3.7,1.4,5.4c1.3,3.7,4.2,6.6,8.1,6.9c1.8,0.1,3.6,0.1,5.4,0
		c-1.3,0.8-2.7,0.7-4.1,0.6C178,139.9,177.2,139.9,176.4,139.8z"/>
	<path class="st12" d="M82.2,119.4c-0.1,0-0.2,0-0.4,0c0.1-1.3,0.3-2.5,0.9-3.7c0.1,0,0.1,0.1,0.2,0.1c0,0.4,0,0.7-0.1,1.1
		C82.5,117.7,82.4,118.6,82.2,119.4z"/>
	<path class="st14" d="M102.2,122.8c0.4-0.8,0.7-1.6,0.8-2.5c0.3-1.1,0.3-2.3,0-3.4c0-0.2,0-0.3-0.1-0.5c0.1-2.5-2.3-3.7-4.4-3.5
		c-4.4,0.3-8.2,5.8-7.8,9.4c0,0.1,0,0.2,0,0.2c-0.2,0-0.6,0-0.6,0.2c0,1.1-0.7,0.9-1.4,0.9c-1.8,0-3.5-0.1-5.3,0
		c-1.1,0-1.5-0.4-1.3-1.4c2,0,3.9,0,5.9,0c1.8,0,1.8,0,2.1-1.8c0-1.2,0.8-2.2,1.2-3.4c0.8-1,1.5-1.9,2.3-2.9c0.3-0.2,0.7-0.5,1-0.7
		c2.5-1.8,6.8-2.2,8.5,0.7c0.5,1,0.7,2,0.7,3.2c0,1.1,0,2.1,0,3.2c-0.7,1.6-0.7,1.6,1,1.6c1.8,0,3.6,0,5.4,0
		c-0.1,1.3-0.8,1.7-2.1,1.6c-1.4-0.1-2.8-0.1-4.3,0C102.8,123.8,102.2,123.8,102.2,122.8z"/>
	<path class="st6" d="M96.1,127.6c-1.8,0.6-3.2-0.4-4.3-1.8c-0.2-0.6-0.4-1.2-0.6-1.8c-0.7-4.1,1.2-7,4.2-9.4
		c1.5-1.2,3.4-1.3,5.2-0.9c-0.5,0.2-1.1,0.3-1.6,0.6c-0.7,0.4-1.6,0.5-1.9,1.4c0,0,0,0.1,0,0.1c-0.1,0-0.2,0-0.2,0.2
		c0,0-0.1,0.1-0.1,0.1c-0.1,0-0.2,0-0.2,0.2c0,0-0.1,0.1-0.1,0.1c-0.1,0-0.2,0-0.2,0.2c0,0-0.1,0,0,0c-0.6,0.1-0.9,0.5-0.9,1.1
		c0,0,0,0,0,0c-1.5,0.9-2.6,4.9-1.7,7c0.4,0.9,0.8,1.9,2,2.3c0,0,0,0,0,0C96,127.1,96,127.4,96.1,127.6z"/>
	<path class="st15" d="M91.1,117.2c-0.4,1.1-1.1,2.1-1.2,3.4c-2.6,0-5.3,0-7.9,0c0.1-0.4,0.1-0.7,0.2-1.1c0.2-0.8,0.3-1.7,0.7-2.5
		c2.3,0,4.6,0,6.9,0C90.2,116.9,90.7,116.9,91.1,117.2z"/>
	<path class="st12" d="M82,120.5c2.6,0,5.3,0,7.9,0c-0.2,1.8-0.2,1.8-2.1,1.8c-2,0-3.9,0-5.9,0C82,121.8,82,121.2,82,120.5z"/>
	<path class="st12" d="M109.9,122.1c-1.8,0-3.6,0-5.4,0c-1.6,0-1.6,0-1-1.6c2.2,0,4.4,0,6.6,0c0,0.3,0,0.6,0,0.9
		C110.1,121.7,110,121.9,109.9,122.1z"/>
	<path class="st17" d="M100.6,113.7c-1.9-0.4-3.7-0.4-5.2,0.9c-3,2.4-4.9,5.3-4.2,9.4c-0.1,0-0.2,0-0.3,0c-0.3-0.3-0.2-0.7-0.2-1.1
		c0.2-0.2,0.2-0.3,0-0.5c-0.4-3.6,3.5-9.1,7.8-9.4c2.1-0.2,4.5,1,4.4,3.5c-0.4-0.8-0.7-1.6-1.4-2.3C101.2,114,101,113.7,100.6,113.7
		z"/>
	<path class="st17" d="M111.2,116c0,0.6,0.1,1.3,0.1,1.9c0,5.2-1.8,9.8-4.9,13.9c-0.1,0-0.3,0-0.4,0c0.5-1.1,1.5-1.9,1.8-3.2
		c1.6-2.2,2.4-4.6,2.8-7.3c0.6-1.8,0.3-3.6,0.4-5.4C111.1,116,111.2,116,111.2,116z"/>
	<path class="st14" d="M111.1,116c-0.1,1.8,0.2,3.7-0.4,5.4c-0.2,0-0.3,0-0.5,0c0-0.3,0-0.6,0-0.9c0.3-1,0.3-2.1,0.2-3.2
		c-0.1-1.1,0.3-2.2-0.3-3.2c0-0.4,0-0.7,0-1.1c0.2,0,0.4,0,0.6,0C110.7,114.1,110.9,115,111.1,116z"/>
	<path class="st15" d="M90.9,124c0.1,0,0.2,0,0.3,0c0.2,0.6,0.4,1.2,0.6,1.8C91,125.4,91.1,124.6,90.9,124z"/>
	<path class="st5" d="M96.1,127.6c-0.1-0.2-0.1-0.5-0.2-0.7c0.4,0,0.9,0.1,1.1,0.5C96.7,127.5,96.4,127.6,96.1,127.6z"/>
	<path class="st15" d="M90.6,122.4c0.2,0.2,0.2,0.3,0,0.5c0-0.1,0-0.1,0-0.2C90.6,122.5,90.6,122.4,90.6,122.4z"/>
	<path class="st7" d="M168.2,127.1c-0.3-1.3-0.2-2.6,0.1-3.9c0.1,0,0.3,0,0.3,0c0.7,1.3,1.9,0.9,3,0.9c1.6,0,3.2,0.2,4.8-0.2
		c0,0.1,0,0.3,0,0.4c0,1,0.3,1.9,0.8,2.7C174.2,127.1,171.2,127.1,168.2,127.1z"/>
	<path class="st17" d="M183.6,128.9c0.1-0.1,0.2-0.2,0.3-0.2C183.8,128.8,183.7,128.9,183.6,128.9z"/>
	<path class="st9" d="M106.1,131.9c0.1,0,0.3,0,0.4,0c0,0.1,0,0.3,0,0.4c0,0,0,0,0,0c-0.1,0-0.2,0-0.3,0c-0.2,0-0.4,0.3-0.5,0
		C105.8,132.2,106,132,106.1,131.9z"/>
	<path class="st8" d="M134.4,127.6c-0.6,2.4-1.8,4.4-3.8,5.9c-0.4-0.3-0.9-0.5-1.5-0.5c-4.2,0.1-8.4-0.3-12.6,0.2
		c-1.5-1.6-2.5-3.4-2.7-5.7C120.6,127.6,127.5,127.6,134.4,127.6z"/>
	<path class="st12" d="M113.5,122.4c-0.4-0.6-0.1-1.4-0.2-2c0-0.3,0-0.6,0-0.9c2.6,0,5.3,0,7.9,0c0.1,0.7-0.2,1.4,0.2,2
		c0,0.3,0,0.6,0,0.9C118.8,122.4,116.2,122.4,113.5,122.4z"/>
	<path class="st12" d="M135.8,119.4c-0.1,0.8-0.3,1.7-0.4,2.5c-0.1,0.2-0.2,0.5-0.2,0.7c-2.4,0-4.8,0-7.3,0c0.2-1.1,0.3-2.1,0.5-3.2
		C130.8,119.4,133.3,119.4,135.8,119.4z"/>
	<path class="st14" d="M113.5,122.4c2.6,0,5.3,0,7.9,0c0,1.6,0,1.6-1.5,1.6c-1.6,0-3.2,0-4.9,0C113.5,124,113.5,124,113.5,122.4z"/>
	<path class="st14" d="M127.8,122.6c2.4,0,4.8,0,7.3,0c0,0.7-0.3,1.1-1.1,1.1c-1.8,0-3.7,0-5.5,0
		C127.7,123.7,127.3,123.4,127.8,122.6z"/>
	<path class="st14" d="M113.3,119.4c0,0.3,0,0.6,0,0.9c-0.1,0-0.3,0-0.4,0c-0.1-2.5-0.7-5.1-0.5-7.6c0-0.4-0.2-0.9,0.5-1
		c0.1,0.8-0.2,1.7,0.2,2.5c0,0.6,0,1.2,0.1,1.8C113.2,117.2,113.3,118.3,113.3,119.4z"/>
	<path class="st14" d="M121.5,121.5c-0.5-0.6-0.1-1.4-0.2-2c0-1.1,0-2.3,0-3.4c0-0.6,0-1.2,0-1.8c0-0.2,0-0.4,0.1-0.7
		c0.6,0.1,0.4,0.6,0.5,1c0.1,0.7-0.2,1.4,0.2,2c0,1.7,0,3.3,0,5C121.8,121.5,121.6,121.5,121.5,121.5z"/>
	<path class="st7" d="M148.5,127.9c-0.1,0.1-0.2,0.1-0.3,0.2c-2.9,0-5.9,0-8.8,0c-0.3-0.4-0.3-0.9-0.2-1.4c0.5-0.1,0.4-0.5,0.4-0.8
		c0-1.3,0-2.5,0.3-3.7c0.2,0,0.4,0,0.7,0c0,0.2,0,0.3,0,0.5c-0.3,1-0.1,1.3,0.9,1.4c1.9,0,3.8-0.1,5.7,0c1.1,0.1,1.5-0.4,1.5-1.4
		c0-0.2-0.1-0.6,0.3-0.6c0.4-0.1,0.5,0.4,0.6,0.6c0.3,1.1,1,1.4,2.2,1.4c3.8-0.1,7.5,0,11.3,0c1.5,0,1.6-0.1,1.7-1.6
		c0.3-0.7,0.5-1.5,0.5-2.3c0.4-0.3,0.2-0.8,0.2-1.1c0.2,0,0.4,0,0.7,0c-0.6,2.9-1.2,5.7-1.8,8.6c-0.3,0.5-0.8,0.5-1.3,0.5
		c-3.2,0-6.4,0-9.6,0c-0.6,0-1.2,0.1-1.8,0.2c-0.7-1.2-1.3-2.5-2-3.7c-0.1-0.2-0.2-0.6-0.5-0.5c-0.4,0.1-0.1,0.5-0.3,0.8
		C148.8,125.8,148.7,126.9,148.5,127.9z"/>
	<path class="st15" d="M168.2,123.1c-0.1-0.1-0.3-0.2-0.4-0.2c0.4-3,1.2-5.9,2.9-8.4c0.2-0.2,0.3-0.6,0.7-0.5
		c-0.1,0.7-0.7,1.2-1,1.8C169.2,118.1,168.5,120.5,168.2,123.1z"/>
	<path class="st15" d="M172.1,113c0,0.5-0.3,0.8-0.7,0.9C171.3,113.5,171.5,113.1,172.1,113z"/>
	<path class="st17" d="M195,114.7c-1.7,1-3.4,2-5.2,3c-0.3,0.2-0.5,0.2-0.8,0c-3.3-1.9-6.7-2.2-10.1-0.2c-0.1-0.7-0.7-0.5-1.1-0.5
		c-2.4,0-4.7,0-7.1,0c0.3-1,0.8-2,1.6-2.7c7,0,14,0,21,0C193.9,114.2,194.6,114.1,195,114.7z"/>
	<path class="st6" d="M106.3,132.3c0.1,0,0.2,0,0.3,0C106.4,132.5,106.3,132.5,106.3,132.3z"/>
	<path class="st18" d="M131.3,145.1c0.3,0.7,0.6,1.4,0.9,2c0,0.2,0,0.4,0,0.7c-1.2,0.5-2.5,0.1-3.7,0.3c-0.8-0.7-1.9-0.7-2.7,0
		c-1.5,0-2.9,0-4.4,0c0.1-0.4,0.2-0.8,0.3-1.1c0.5-0.4,0.4-1.2,0.8-1.6c2.5,0,5.1,0,7.6,0C130.6,145.4,131,145.5,131.3,145.1z"/>
	<path class="st13" d="M121.5,148.1c1.5,0,2.9,0,4.4,0c-0.5,2.5-0.5,2.5-2.9,2.5c-0.3,0-0.5,0-0.8,0c-1.3,0-1.5-0.2-1-1.5
		C121.3,148.8,121.2,148.3,121.5,148.1z"/>
	<path class="st13" d="M128.6,148.1c1.2-0.2,2.5,0.3,3.7-0.3c0.1,0.1,0.2,0.2,0.2,0.3c0.1,0.8,1.1,1.8,0.5,2.2
		c-0.9,0.6-2.2,0.3-3.4,0.2c-0.5-0.1-0.5-0.8-0.7-1.2C128.7,148.9,128.7,148.5,128.6,148.1z"/>
	<path class="st5" d="M162.8,134.2c-0.2,1.2-0.1,2.8-0.9,3.3c-0.8,0.5-2.3-0.1-3.5,0c-2.1,0.2-2.9-1.1-3.5-2.8
		c0-0.1-0.1-0.2-0.1-0.3c0.2-0.3,0.6-0.3,0.9-0.3C158.1,134.2,160.5,134.2,162.8,134.2z"/>
	<path class="st19" d="M94.3,152.7c-0.1,0.5,0.6,0.8,0.2,1.3c-0.9,0.1-1.8,0.3-2.8,0.4c0.2-1,0.4-2,0.6-3c0.1-0.6,0.5-0.8,1.1-0.6
		c0,0,0,0,0,0c0.1,0.1,0.2,0.2,0.2,0.2c0,0,0,0,0,0c0,0.3,0,0.5,0.2,0.7c0,0,0,0,0,0c0.1,0.2,0.2,0.3,0.2,0.5c0,0,0,0,0,0
		C94.2,152.3,94.2,152.5,94.3,152.7z"/>
	<path class="st18" d="M93.4,150.8c-0.6-0.2-0.9,0-1.1,0.6c-0.2,1-0.4,2-0.6,3c-0.1,0-0.3,0-0.4,0c0-1.2,0.4-2.4,0.7-3.6
		C92.2,150.1,92.9,150.1,93.4,150.8z"/>
	<path class="st13" d="M100.7,153.7c0.3,0.1,0.4,0.4,0.4,0.7c-0.1,0-0.3,0-0.4,0C100.7,154.2,100.7,154,100.7,153.7z"/>
	<path class="st13" d="M147.2,154.6c0.5,0.8,0,1.5-0.2,2.3C146.8,156.1,147.2,155.4,147.2,154.6z"/>
	<path class="st13" d="M147,156.9c0,0.4,0.1,0.8-0.2,1.1C146.8,157.7,146.6,157.2,147,156.9z"/>
	<path class="st13" d="M146.7,158c0,0.1,0,0.1,0,0.2C146.7,158.2,146.7,158.1,146.7,158C146.6,158.1,146.7,158.1,146.7,158z"/>
	<path class="st18" d="M95.5,145.1c0.5,0.9,1,1.8,1.6,2.7c0,0.1,0,0.3,0.1,0.4c-0.3,0.2-0.7,0.2-1.1,0.2c-2.5,0-5,0-7.5,0
		c-0.9,0-1.2-0.4-0.9-1.2c0.2-0.7,0.1-1.4,0.6-2c2.1,0,4.2,0,6.3,0C94.8,145.4,95.2,145.5,95.5,145.1z"/>
	<path class="st13" d="M98.2,148.5c0.3,0.3,0.5,0.6,0.4,1C98.3,149.2,97.9,149,98.2,148.5z"/>
	<path class="st13" d="M93.9,151.7c-0.2-0.2-0.2-0.4-0.2-0.7C93.9,151.2,93.8,151.5,93.9,151.7z"/>
	<path class="st13" d="M100.2,152.6c0.2,0.2,0.3,0.4,0.2,0.7C100.2,153.1,100.2,152.9,100.2,152.6z"/>
	<path class="st13" d="M99.5,151.2c0.2,0.1,0.2,0.3,0.2,0.5C99.6,151.6,99.5,151.4,99.5,151.2z"/>
	<path class="st13" d="M94.1,152.2c-0.1-0.2-0.2-0.3-0.2-0.5C94.1,151.8,94.1,152,94.1,152.2z"/>
	<path class="st13" d="M94.3,152.7c-0.1-0.2-0.2-0.3-0.2-0.5C94.3,152.3,94.3,152.5,94.3,152.7z"/>
	<path class="st13" d="M100,152.1c0.2,0.1,0.2,0.3,0.2,0.5C100,152.5,100,152.3,100,152.1z"/>
	<path class="st13" d="M100.4,153.3c0.2,0.1,0.2,0.3,0.2,0.5C100.5,153.6,100.4,153.5,100.4,153.3z"/>
	<path class="st13" d="M98.6,149.4c0.2,0.1,0.2,0.3,0.2,0.5C98.6,149.8,98.6,149.6,98.6,149.4z"/>
	<path class="st13" d="M98.9,149.9c0.2,0.1,0.2,0.3,0.2,0.5C98.9,150.3,98.8,150.1,98.9,149.9z"/>
	<path class="st13" d="M99.1,150.3c0.2,0.1,0.2,0.3,0.2,0.5C99.1,150.7,99.1,150.5,99.1,150.3z"/>
	<path class="st13" d="M99.8,151.7c0.2,0.1,0.2,0.3,0.2,0.5C99.8,152.1,99.8,151.9,99.8,151.7z"/>
	<path class="st13" d="M99.3,150.8c0.2,0.1,0.2,0.3,0.2,0.5C99.3,151.2,99.3,151,99.3,150.8z"/>
	<path class="st13" d="M93.6,151c-0.1-0.1-0.2-0.2-0.2-0.2C93.5,150.9,93.5,151,93.6,151z"/>
	<path class="st15" d="M66.1,116.7c0.3,0.2,0.6,0.4,0.9,0.7c1,0.9,1.1,0.9,1.6-0.5c2.8,0,5.6,0,8.4,0c-0.3,0.8-0.6,1.5-0.9,2.3
		c-5.1,0-10.1-0.1-15.2,0.1c-2,0.1-3.1-1-4.4-2.1c0.3-0.4,0.8-0.2,1.2-0.2c2.4,0,4.7,0,7.1,0C65.3,116.9,65.7,116.9,66.1,116.7z"/>
	<path class="st18" d="M165.8,145.4c0,0.1,0,0.2,0,0.3c-0.7,2.8-0.7,2.8-3.6,2.8c-2.9,0-2.9,0-1.6-2.6c0.1-0.2,0.2-0.4,0.4-0.5
		C162.6,145.4,164.2,145.4,165.8,145.4z"/>
	<path class="st19" d="M157.4,144.7c0.7-0.1,1.1-0.6,1.6-0.9c0.5-0.2,0.9-0.7,1.5-0.2c-0.1,0.3-0.2,0.6-0.3,0.9c0,0,0,0,0,0
		c-0.3,0.2-0.3,0.4-0.2,0.7c0,0,0,0,0,0c-0.5,0.3-0.6,0.8-0.7,1.4c0,0,0,0,0,0c-0.2,0.1-0.2,0.3-0.2,0.5c0,0,0,0,0,0
		c-0.2,0.3-0.4,0.7-0.6,1c-0.7-0.9-0.8-2.1-1.3-3.1C157.4,144.8,157.4,144.7,157.4,144.7z"/>
	<path class="st16" d="M163.1,142.5c1.1,0.3,2.3,0.1,3.4,0.5c0,0.5-0.1,1-0.4,1.4c-0.4-0.4-0.9-0.2-1.4-0.3c-1-0.1-2,0.3-3-0.2
		C161.9,143.3,161.8,142.3,163.1,142.5z"/>
	<path class="st9" d="M161.7,144c1,0.5,2,0.1,3,0.2c0.5,0.1,1-0.2,1.4,0.3c0,0.3-0.1,0.6-0.2,0.9c-1.6,0-3.2,0-4.8,0
		C161.2,144.9,161.3,144.4,161.7,144z"/>
	<path class="st18" d="M159.4,146.5c0.1-0.5,0.2-1,0.7-1.4C160.1,145.7,160,146.2,159.4,146.5z"/>
	<path class="st18" d="M158.6,148c0.2-0.3,0.4-0.7,0.6-1C159.1,147.3,159.4,148,158.6,148z"/>
	<path class="st18" d="M160.3,144.4c0.1-0.3,0.2-0.6,0.3-0.9c0.1,0,0.1,0,0.2,0C160.8,143.9,160.8,144.3,160.3,144.4z"/>
	<path class="st18" d="M160.1,145.1c-0.1-0.3,0-0.5,0.2-0.7C160.3,144.7,160.4,145,160.1,145.1z"/>
	<path class="st18" d="M159.2,146.9c0-0.2,0-0.4,0.2-0.5C159.4,146.7,159.4,146.9,159.2,146.9z"/>
	<path class="st18" d="M161,143.1c0-0.2,0-0.4,0.2-0.5C161.3,142.8,161.2,143,161,143.1z"/>
	<path class="st18" d="M160.8,143.5c0-0.2,0-0.4,0.2-0.5C161,143.3,161,143.5,160.8,143.5z"/>
	<path class="st12" d="M177.3,119.2c-0.2,0.3-0.4,0.7-0.5,1c-0.4,1.9-1.5,2.4-3.3,2.2c-1.2-0.2-2.4,0-3.6,0c-0.4,0-0.9-0.1-0.7-0.6
		c0.2-0.9,0.1-1.8,0.6-2.6C172.3,119.2,174.8,119.2,177.3,119.2z"/>
	<path class="st15" d="M177.3,119.2c-2.5,0-5,0-7.5,0c0.2-0.8,0.5-1.6,0.9-2.3c2.4,0,4.7,0,7.1,0c0.4,0,1-0.2,1.1,0.5
		C178.4,118,177.8,118.6,177.3,119.2z"/>
	<path class="st17" d="M180.5,117.6c0,0.3-0.3,0.2-0.5,0.2C180.1,117.6,180.3,117.6,180.5,117.6z"/>
	<path class="st17" d="M77,116.9c-2.8,0-5.6,0-8.4,0c0.3-0.9,0.6-1.8,0.9-2.7c2.8,0,5.7,0,8.5,0c-0.1,0.2-0.1,0.3-0.2,0.5
		C77.6,115.4,77.3,116.2,77,116.9z"/>
	<path class="st16" d="M140.2,143.8c-0.8-0.5-1.7-0.1-2.5-0.3c-0.1-0.3,0.1-0.6,0.2-0.8c0.5-2.3,0.5-2.3,2.9-2.3
		c1.9,0,3.8,0.1,5.6,0.2c0.5,0,0.9,0.2,0.8,0.8c-0.1,0.9,0.4,2.2-0.2,2.7c-0.6,0.4-1.8,0-2.7,0C142.9,143.7,141.5,143.8,140.2,143.8
		z"/>
	<path class="st18" d="M144.2,145.3c-0.3,0.8-0.2,1.6-0.2,2.4c0,0.6-0.2,0.9-0.8,0.9c-0.1,0-0.2,0-0.2,0c-3.2,0.1-3.2,0.1-3-3.2
		C141.4,145.3,142.8,145.3,144.2,145.3z"/>
	<path class="st9" d="M144.2,145.3c-1.4,0-2.8,0-4.2,0c0.1-0.5,0.1-1,0.2-1.5c1.4,0,2.7-0.1,4,0.2
		C144.2,144.4,144.2,144.9,144.2,145.3z"/>
	<path class="st18" d="M137.4,144.9c-0.5-0.1-1.3,0-0.7-0.9c0.3,0.9,1,0.4,1.5,0.4c0.7,0,1.1,0.2,1,0.9c-0.1,0.9,0.2,1.8-0.2,2.7
		c-0.5-0.5,0-1.1,0-1.6C139.1,144.9,139.1,144.9,137.4,144.9z"/>
	<path class="st18" d="M139,150.8c-0.1,0.5,0.2,1.1-0.2,1.6c-0.1-1.3-0.1-2.6,0.2-3.8C139,149.3,139,150.1,139,150.8z"/>
	<path class="st18" d="M136.7,144c0-0.9,0.1-1.7,0.5-2.5C137.2,142.4,137.1,143.2,136.7,144z"/>
	<path class="st18" d="M137.2,141.5c0-0.4,0-0.7,0-1.1C137.5,140.8,137.5,141.1,137.2,141.5z"/>
	<path class="st17" d="M136.6,114.7c-0.2,0.6-0.1,1.3-0.4,1.8c-2.6,0-5.1,0-7.7,0c0-0.6,0-1.2,0-1.8
		C131.3,114.7,133.9,114.7,136.6,114.7z"/>
	<path class="st10" d="M110.1,152.4c0.2,0,0.3,0,0.5,0c0.1,0,0.2,0,0.3,0l0.1,0l0.1-0.1c0.1-0.1,0.2-0.1,0.3-0.2
		c1.5-1.2,3.4-0.5,5-0.6c0.3,0,0.4,0.3,0.3,0.6c0,0.4-0.1,0.8-0.2,1.2c0,0.2,0,0.4,0,0.7c0,0,0,0,0,0c-0.2,0.1-0.2,0.3-0.2,0.5
		c0,0,0,0,0,0c-0.1,0.2-0.3,0.3-0.4,0.5c-0.4-0.1-0.8-0.2-1.2-0.2c-3.5,0-7,0-10.4,0c-0.4,0-0.8-0.1-0.9,0.5c-1.1-1-1.4-2.3-1.5-3.7
		c0.3-0.2,0.1-0.7,0.4-1c0.7,0.8,1.7,0.5,2.6,0.6c0.5,0,0.9,0.1,1.1-0.7c0.2-0.9,0.6,0,0.9,0.1c0,0,0,0,0,0c0,0.2,0,0.5,0.3,0.6
		C107.9,152.3,108.9,152.7,110.1,152.4z"/>
	<path class="st16" d="M103.9,143.8c2-3.9,8.6-5,11.5-2.7c0.1,0,0.1,0,0.2,0c0.8,0.5,0.7,1,0,1.4c-0.3,0.2-0.7,0.5-1,0.8
		c-0.8,0.8-1.6,1.3-2.9,0.8c-0.9-0.4-2-0.1-3,0.1c-0.4-0.4-0.8-0.2-1.3-0.2C106.3,143.9,105.1,144.2,103.9,143.8z"/>
	<path class="st19" d="M106.8,150.4C106.8,150.4,106.8,150.4,106.8,150.4c0-0.5,0-1,0-1.5c0.2-1.2,0.6-2.2,1.6-2.9
		c0.1,0.9-0.2,1.7-0.4,2.5c-0.2,1,0,1.8,0.7,2.5c0.2,0.7,0.7,1.1,1.4,1.3c-1.2,0.3-2.2-0.1-3-1.4C107,150.8,106.9,150.6,106.8,150.4
		z"/>
	<path class="st9" d="M103.9,143.8c1.2,0.4,2.4,0.1,3.7,0.2c0.4,0,0.9-0.2,1.3,0.2c-0.6,0.4-1.2,0.8-1.8,1.1c-0.8,0-1.6,0-2.5,0
		c-0.4,0-1,0.2-1.2-0.3C103.1,144.6,103.5,144.1,103.9,143.8z"/>
	<path class="st18" d="M117.1,142.9c-0.4,0.4-0.8,0.9-1.4,0.9C115.9,143.1,116.4,142.9,117.1,142.9z"/>
	<path class="st18" d="M115.7,143.8c0,0.6-0.5,0.7-0.9,1C114.8,144.2,115.1,143.9,115.7,143.8z"/>
	<path class="st16" d="M151.7,143.8c0.2-2.2,0.2-2.2,2.3-1.9c1.2,0.1,2.2,0.5,2.2,1.9C154.7,143.8,153.2,143.8,151.7,143.8z"/>
	<path class="st9" d="M151.7,143.8c1.5,0,3,0,4.6,0c0.6,1.2,0.6,1.4-0.7,1.4c-1.4,0-2.7,0-4.1,0
		C151.6,144.7,151.4,144.2,151.7,143.8z"/>
	<path class="st17" d="M116.5,154c0-0.2,0-0.4,0-0.7c0.1,0,0.1,0,0.2,0C116.7,153.5,116.8,153.8,116.5,154z"/>
	<path class="st16" d="M128.5,111.3c-0.1-1.3-0.2-2.6-0.4-3.9c-0.1-0.8,0.4-1,1-1c2.1-0.3,4.2-0.7,6.4-0.9c2-0.3,2.1-0.2,2,1.9
		c-0.1,1.3-0.1,2.7-0.4,4C134.1,111.3,131.3,111.3,128.5,111.3z"/>
	<path class="st9" d="M128.5,111.3c2.8,0,5.6,0,8.4,0c0.1,1.1-0.2,2.2-0.3,3.4c-2.7,0-5.4,0-8.1,0
		C128.5,113.5,128.5,112.4,128.5,111.3z"/>
	<path class="st11" d="M103.4,155.1c0.1-0.5,0.5-0.5,0.9-0.5c3.5,0,7,0,10.4,0c0.4,0,0.8,0.1,1.2,0.2c0,0.1,0,0.3,0,0.4c0,0,0,0,0,0
		c-0.5,0-0.5,0.4-0.5,0.7c0,0,0,0,0,0c-0.1,0.1-0.2,0.2-0.2,0.2c0,0,0,0,0,0c-0.1,0.1-0.2,0.2-0.2,0.2c0,0,0,0,0,0
		c-0.1,0-0.2,0.1-0.2,0.2c0,0,0,0,0,0c-0.2,0-0.4,0-0.5,0.2c0,0,0,0,0,0c-1.5,0.9-3.1,1.6-4.9,1.8c-1.8,0.2-3.4-0.3-4.7-1.7
		c-0.4-0.4-0.7-1-1.3-1.2C103.4,155.6,103.4,155.4,103.4,155.1z"/>
	<path class="st14" d="M140.5,122.1c-0.2,0-0.4,0-0.7,0c0-0.7,0.1-1.4,0.1-2c0-1.4,0.6-2.7,0.1-4.1c0-0.3,0-0.6,0-0.9
		c0.1,0,0.1,0,0.2,0c0.2,0,0.5,0,0.7,0c0.1,0.8-0.4,1.5,0,2.3c-0.5,0.9-0.1,1.8-0.2,2.7C140.3,120.7,140.7,121.5,140.5,122.1z"/>
	<path class="st15" d="M140.1,116c0.5,1.4-0.1,2.7-0.1,4.1c0,0.7-0.1,1.3-0.1,2c-0.3,1.2-0.2,2.5-0.3,3.7c0,0.3,0.1,0.7-0.4,0.8
		c-0.2-2.6,0.4-5.1,0.6-7.7C139.9,118,139.6,117,140.1,116z"/>
	<path class="st15" d="M140.3,115.1c-0.1,0-0.1,0-0.2,0c-0.1-1.2,0.1-2.4,0.3-3.6c0,0,0.1,0,0.1,0
		C140.6,112.8,140.6,114,140.3,115.1z"/>
	<path class="st5" d="M140.5,111.6c0,0-0.1,0-0.1,0c-0.1-0.3-0.1-0.5,0.1-0.7C140.5,111.1,140.5,111.3,140.5,111.6z"/>
	<path class="st16" d="M113.1,111.3c-0.1-2-0.3-4-0.4-6c0-0.5,0.2-0.7,0.7-0.6c2.4,0.3,4.8,0.6,7.2,0.8c0.4,0,0.8,0.1,0.7,0.6
		c-0.4,1.7,0.2,3.4-0.1,5.1C118.4,111.3,115.7,111.3,113.1,111.3z"/>
	<path class="st9" d="M113.1,111.3c2.7,0,5.4,0,8.1,0c0.2,0.8,0,1.5,0.1,2.3c0,0.2,0,0.4-0.1,0.7c-2.7,0-5.4,0-8.1,0
		c-0.4-0.8-0.1-1.7-0.2-2.5C112.9,111.6,113,111.4,113.1,111.3z"/>
	<path class="st14" d="M152.8,112.5c0.1,0.2,0.2,0.4,0.4,0.5c0.5,1.1,1,2.2,1.5,3.3c0.6,0.3,0.4-0.2,0.4-0.5c0,0,0,0,0,0
		c0.3-0.1,0.2-0.4,0.2-0.7c0,0,0,0,0,0c0.6-0.2,0.5-0.7,0.5-1.1c0,0,0,0,0,0c0.3-0.1,0.2-0.4,0.2-0.7c0,0,0,0,0,0
		c0.2-0.1,0.2-0.3,0.2-0.5c0,0,0,0,0,0c0.1,0,0.2,0,0.2,0c0.1,0.2,0.3,0.2,0.5,0.2c-0.1,0.4-0.2,0.9-0.3,1.3
		c-0.6,0.9-0.8,1.9-1.1,2.9c-0.7,1.3-0.8-0.1-1.1-0.2c-0.3-1-0.8-2-1.4-3c-0.2-0.5-0.3-1-0.5-1.5
		C152.6,112.6,152.7,112.5,152.8,112.5z"/>
	<path class="st15" d="M155.7,114c0,0.5,0.1,0.9-0.5,1.1C155.3,114.7,155.4,114.3,155.7,114z"/>
	<path class="st15" d="M155.1,115.8c0,0.2,0.2,0.8-0.4,0.5C154.8,116.1,154.9,116,155.1,115.8z"/>
	<path class="st15" d="M156.4,112.9c-0.1,0-0.2,0-0.2,0c-0.1-0.3-0.1-0.5,0.2-0.7C156.4,112.4,156.4,112.6,156.4,112.9z"/>
	<path class="st15" d="M156,113.3c0,0.3,0.1,0.5-0.2,0.7C155.7,113.7,155.7,113.5,156,113.3z"/>
	<path class="st15" d="M155.3,115.1c0,0.3,0.1,0.5-0.2,0.7C155,115.5,155,115.3,155.3,115.1z"/>
	<path class="st15" d="M157.3,109.7c0,0.3,0.1,0.5-0.2,0.7C157.1,110.1,157.1,109.8,157.3,109.7z"/>
	<path class="st15" d="M158.5,106.7c0,0.3,0.1,0.5-0.2,0.7C158.2,107.1,158.2,106.9,158.5,106.7z"/>
	<path class="st15" d="M158.2,107.4c0,0.3,0.1,0.5-0.2,0.7C157.9,107.8,157.9,107.6,158.2,107.4z"/>
	<path class="st15" d="M157.8,108.5c0,0.3,0.1,0.5-0.2,0.7C157.5,109,157.5,108.7,157.8,108.5z"/>
	<path class="st15" d="M157.1,110.4c0,0.3,0.1,0.5-0.2,0.7C156.8,110.8,156.8,110.5,157.1,110.4z"/>
	<path class="st15" d="M156.6,111.5c0,0.3,0.1,0.5-0.2,0.7C156.4,111.9,156.4,111.7,156.6,111.5z"/>
	<path class="st15" d="M156.9,111c0,0.2,0,0.4-0.2,0.5C156.6,111.3,156.6,111.1,156.9,111z"/>
	<path class="st15" d="M157.6,109.2c0,0.2,0,0.4-0.2,0.5C157.3,109.5,157.3,109.3,157.6,109.2z"/>
	<path class="st15" d="M158,108.1c0,0.2,0,0.4-0.2,0.5C157.8,108.4,157.7,108.1,158,108.1z"/>
	<path class="st15" d="M156.2,112.8c0,0.2,0,0.4-0.2,0.5C156,113.1,155.9,112.9,156.2,112.8z"/>
	<path class="st9" d="M95.5,145.1c-0.3,0.3-0.7,0.2-1,0.2c-2.1,0-4.2,0-6.3,0c0.1-0.3-0.1-0.7,0.2-0.9c1.8,0,3.7,0,5.5,0
		c0.4,0,0.8,0.1,1.1-0.2C95.3,144.4,95.4,144.8,95.5,145.1z"/>
	<path class="st15" d="M154.4,117.2c0.4,0.2,0.5,1.5,1.1,0.2c3,0,6,0,9,0c0.4,0,0.8-0.1,1.2,0.2c0.1,0.5-0.2,0.9-0.2,1.4
		c-0.1,0.4,0.1,0.8-0.2,1.1c-8.2,0-16.3,0-24.5,0c0.1-0.9-0.2-1.8,0.2-2.7c4.1,0,8.2,0,12.2,0C153.6,117.4,154.1,117.5,154.4,117.2z
		"/>
	<path class="st9" d="M156.6,114.4c0.1-0.4,0.2-0.9,0.3-1.3c0.8-1,0.9-2.4,1.5-3.4c0.5,0.5,1.1,0.5,1.8,0.5c2.4,0,4.7,0,7.1,0
		c-0.2,1.5-0.5,2.9-0.9,4.3C163.2,114.4,159.9,114.4,156.6,114.4z"/>
	<path class="st16" d="M167.3,110.2c-2.4,0-4.7,0-7.1,0c-0.6,0-1.3,0-1.8-0.5c0.9-3.4,0.9-3.4,4.3-3.3c1.5,0,3.1,0,4.6,0.1
		c0.6,0.1,0.8,0.3,0.7,0.9C167.8,108.3,167.6,109.2,167.3,110.2z"/>
	<path class="st17" d="M156.6,114.4c3.3,0,6.5,0,9.8,0c-0.1,1.1-0.3,2.1-0.7,3.2c-0.3-0.4-0.8-0.2-1.2-0.2c-3,0-6,0-9,0
		C155.8,116.4,156,115.3,156.6,114.4z"/>
	<path class="st9" d="M78.1,114.2c-2.8,0-5.7,0-8.5,0c0.1-0.2,0.1-0.4,0.2-0.7c0.3-0.7,0.6-1.4,0.9-2c1.8,0,3.7,0,5.5,0
		c0.4,0,0.9,0.2,1-0.4C79,111.9,79,111.9,78.1,114.2z"/>
	<path class="st5" d="M116.5,133.2c4.2-0.5,8.4-0.1,12.6-0.2c0.5,0,1,0.1,1.5,0.5c-1.2,1.3-2.8,1.9-4.5,2.3c-3,0.7-5.9,0.3-8.5-1.5
		C117.1,134,116.8,133.7,116.5,133.2z"/>
	<path class="st16" d="M86.8,109.9c0.7-0.3,1.1-0.8,1.6-1.4c0.8-0.3,1.4-0.9,2.1-1.3c4.4-2.3,8.9-2.9,13.6-1c2,0.8,3.5,2.3,4.7,4.1
		c-0.4,0.5-1.1,0.5-1.7,0.5c-6.2,0-12.4,0-18.5,0c-0.7,0-1.4,0-2.1-0.2C86.6,110.4,86.7,110.2,86.8,109.9z"/>
	<path class="st9" d="M86.5,110.6c0.7,0.2,1.4,0.2,2.1,0.2c6.2,0,12.4,0,18.5,0c0.6,0,1.2,0.1,1.7-0.5c0.7,0.8,0.9,1.8,1.2,2.7
		c0,0.4,0,0.7,0,1.1c-2.4,0-4.7,0-7.1,0c-1.7-2.9-6-2.5-8.5-0.7c-0.3,0.2-0.7,0.5-1,0.7c-0.3-0.4-0.7-0.3-1.1-0.3
		c-2.7,0-5.5,0-8.2,0C84.6,112.7,85.3,111.5,86.5,110.6z"/>
	<path class="st9" d="M152.5,112.7c0.2,0.5,0.3,1,0.5,1.5c-0.3,0.4-0.8,0.2-1.2,0.2c-3.5,0-7.1,0-10.6,0c0-1.5,0.2-3,0.4-4.5
		c2.6,0,5.3,0,7.9,0c0.5,0,1,0.1,1.3-0.5C151.4,110.5,152,111.6,152.5,112.7z"/>
	<path class="st17" d="M141.2,114.4c3.5,0,7.1,0,10.6,0c0.4,0,0.8,0.1,1.2-0.2c0.6,0.9,1,1.9,1.4,3c-0.3,0.4-0.8,0.2-1.2,0.2
		c-4.1,0-8.2,0-12.2,0c-0.4-0.8,0.1-1.5,0-2.3C141.3,115,141.2,114.7,141.2,114.4z"/>
	<path class="st16" d="M150.8,109.4c-0.3,0.6-0.8,0.5-1.3,0.5c-2.6,0-5.3,0-7.9,0c0.1-1.1,0.2-2.2,0.2-3.2c0-0.5,0.2-0.7,0.7-0.6
		c2.1,0.1,4.2,0.2,6.3,0.2c0.4,0,0.6,0.2,0.7,0.6C150,107.7,150.4,108.6,150.8,109.4z"/>
	<path class="st5" d="M112.3,121.5c0.1,0.2,0.1,0.4-0.2,0.5C112.1,121.9,112.1,121.7,112.3,121.5z"/>
	<path class="st16" d="M123.3,143.3c0-0.1,0-0.2,0-0.2c1.2-3.6,1.8-4,5.6-3.4c0.4,0.1,0.6,0.2,0.7,0.6c0.3,1,0.7,2.1,1,3.1
		C128.2,143.3,125.8,143.3,123.3,143.3z"/>
	<path class="st9" d="M123.3,143.3c2.4,0,4.9,0,7.3,0c0.2,0.6,0.4,1.2,0.6,1.8c-0.3,0.3-0.7,0.2-1,0.2c-2.5,0-5.1,0-7.6,0
		C122.8,144.6,123,144,123.3,143.3z"/>
	<path class="st16" d="M77.2,111.1c-0.1,0.6-0.6,0.4-1,0.4c-1.8,0-3.7,0-5.5,0c0.4-1.1,0.7-2.3,1.1-3.4c0.9-0.1,1.4,0.6,2.1,1
		C75,109.7,76.1,110.4,77.2,111.1z"/>
	<path class="st17" d="M115.9,155.3c0-0.1,0-0.3,0-0.4c0.1-0.2,0.3-0.3,0.4-0.5c0,0.3-0.1,0.6-0.3,0.9
		C116,155.3,115.9,155.3,115.9,155.3z"/>
	<path class="st17" d="M116.3,154.4c0-0.2,0-0.4,0.2-0.5C116.5,154.1,116.5,154.3,116.3,154.4z"/>
	<path class="st17" d="M84,114c2.7,0,5.5,0,8.2,0c0.4,0,0.8-0.1,1.1,0.3c-0.8,1-1.5,1.9-2.3,2.9c-0.4-0.3-0.9-0.2-1.3-0.2
		c-2.3,0-4.6,0-6.9,0c0-0.4,0-0.7,0.1-1.1C83.6,115.4,83.5,114.5,84,114z"/>
	<path class="st17" d="M115.4,156c0-0.3,0-0.7,0.5-0.7C115.8,155.6,115.7,155.9,115.4,156z"/>
	<path class="st17" d="M114.3,156.9c0.1-0.2,0.3-0.3,0.5-0.2C114.6,156.9,114.5,156.9,114.3,156.9z"/>
	<path class="st17" d="M115.2,156.2c0.1-0.1,0.2-0.2,0.2-0.2C115.3,156.1,115.3,156.1,115.2,156.2z"/>
	<path class="st17" d="M115,156.5c0.1-0.1,0.2-0.2,0.2-0.2C115.1,156.3,115,156.4,115,156.5z"/>
	<path class="st17" d="M114.7,156.7c0-0.1,0.1-0.2,0.2-0.2C114.9,156.5,114.8,156.6,114.7,156.7z"/>
	<path class="st5" d="M95.9,126.9c-1.1-0.3-1.5-1.3-2-2.3c-0.9-2,0.2-6.1,1.7-7c0,0.4-0.2,0.6-0.4,0.9c-1.6,2.2-1.7,6.1,0.6,8
		C95.8,126.6,95.8,126.8,95.9,126.9z"/>
	<path class="st5" d="M100.6,113.7c0.4,0,0.6,0.3,0.9,0.4c-1.6,0-3,0.8-4.3,1.6c0.2-1,1.2-1.1,1.9-1.4
		C99.5,114,100.1,113.9,100.6,113.7z"/>
	<path class="st17" d="M102.9,116.9c0.3,1.1,0.3,2.3,0,3.4C102.9,119.2,102.9,118.1,102.9,116.9z"/>
	<path class="st5" d="M95.6,117.6c0-0.6,0.3-1,0.9-1.1C96.3,117,96,117.3,95.6,117.6z"/>
	<path class="st5" d="M96.7,116.2c0-0.1,0-0.2,0.2-0.2C97,116.2,96.9,116.2,96.7,116.2z"/>
	<path class="st5" d="M97,116c0-0.1,0-0.2,0.2-0.2C97.2,116,97.1,116,97,116z"/>
	<path class="st5" d="M96.5,116.4c0-0.1,0-0.2,0.2-0.2C96.7,116.4,96.7,116.5,96.5,116.4z"/>
	<path class="st17" d="M102.9,114.2c2.4,0,4.7,0,7.1,0c0.6,1,0.3,2.1,0.3,3.2c-2.2,0-4.5,0-6.7,0
		C103.6,116.3,103.4,115.2,102.9,114.2z"/>
	<path class="st15" d="M103.6,117.4c2.2,0,4.5,0,6.7,0c0.1,1.1,0,2.1-0.2,3.2c-2.2,0-4.4,0-6.6,0
		C103.6,119.5,103.6,118.4,103.6,117.4z"/>
	<path class="st15" d="M121.2,116c0,1.1,0,2.3,0,3.4c-2.6,0-5.3,0-7.9,0c-0.1-1.1-0.1-2.3-0.2-3.4C115.8,116,118.5,116,121.2,116z"
		/>
	<path class="st17" d="M121.2,116c-2.7,0-5.4,0-8.1,0c0-0.6,0-1.2-0.1-1.8c2.7,0,5.4,0,8.1,0C121.2,114.8,121.2,115.4,121.2,116z"/>
	<path class="st12" d="M140.8,120.1c8.2,0,16.3,0,24.5,0c0,0.8-0.2,1.5-0.5,2.3c-4.5,0-9,0-13.4,0c-0.6,0-1.2,0.1-1.8,0.2
		c-0.2-0.2-0.2-0.7-0.6-0.6c-0.3,0.1-0.2,0.4-0.3,0.6c-2.7,0-5.4,0-8.2,0c0-0.2,0-0.3,0-0.5C140.7,121.5,140.3,120.7,140.8,120.1z"
		/>
	<path class="st14" d="M149.6,122.6c0.6-0.2,1.2-0.2,1.8-0.2c4.5,0,9,0,13.4,0c-0.1,1.5-0.2,1.6-1.7,1.6c-3.8,0-7.5-0.1-11.3,0
		C150.7,124,149.9,123.7,149.6,122.6z"/>
	<path class="st14" d="M140.5,122.6c2.7,0,5.4,0,8.2,0c0,1-0.4,1.4-1.5,1.4c-1.9-0.1-3.8,0-5.7,0
		C140.5,123.9,140.3,123.6,140.5,122.6z"/>
	<path class="st13" d="M106.8,150.4c0.1,0.2,0.2,0.4,0.3,0.6C106.8,150.9,106.8,150.7,106.8,150.4z"/>
	<path class="st13" d="M110.9,152.4c0-0.1,0.1-0.1,0.2,0C111,152.3,111,152.4,110.9,152.4L110.9,152.4z"/>
</g>
</svg>
