<?xml version="1.0" encoding="utf-8"?>
<!-- Generator: Adobe Illustrator 28.1.0, SVG Export Plug-In . SVG Version: 6.00 Build 0)  -->
<svg version="1.1" id="图层_1" xmlns="http://www.w3.org/2000/svg" xmlns:xlink="http://www.w3.org/1999/xlink" x="0px" y="0px"
	 width="256px" height="256px" viewBox="0 0 256 256" style="enable-background:new 0 0 256 256;" xml:space="preserve">
<style type="text/css">
	.st0{fill-rule:evenodd;clip-rule:evenodd;fill:url(#SVGID_1_);}
	
		.st1{fill-rule:evenodd;clip-rule:evenodd;fill:url(#SVGID_00000083087409026195386640000003811711693479998100_);filter:url(#Adobe_OpacityMaskFilter);}
	.st2{mask:url(#mask0_989_23974_00000083082901719980747540000015834557479472992917_);}
	.st3{fill-rule:evenodd;clip-rule:evenodd;fill-opacity:0.3;}
	.st4{fill-rule:evenodd;clip-rule:evenodd;fill:url(#SVGID_00000066504040420291807010000005702979063168645764_);}
	.st5{fill:#FFFFFF;}
	.st6{fill:url(#SVGID_00000087373713252610453390000002413631227468229507_);}
	.st7{fill:url(#SVGID_00000090258596598322104420000013001599946368509348_);}
	.st8{fill:url(#SVGID_00000078746746352761938100000015329323463399918255_);}
	.st9{fill:url(#SVGID_00000000213097822480659190000001054939949544586889_);}
	.st10{fill:url(#SVGID_00000115483088532344553560000002943648372081358993_);}
	.st11{fill:url(#SVGID_00000152973209913459848200000015146275146796935093_);}
	.st12{fill:url(#SVGID_00000054228274419650100270000002742482716851919773_);}
	.st13{fill:url(#SVGID_00000163062107721160775740000009536263271404515511_);}
	.st14{fill:url(#SVGID_00000070824731441030479750000013830550389033770939_);}
	.st15{fill:url(#SVGID_00000141451831180888023250000002961965608171329957_);}
	.st16{fill:url(#SVGID_00000132795632164486076390000000360235173083411132_);}
	.st17{fill:url(#SVGID_00000121256583989101144700000012985088377866143886_);}
	.st18{fill:url(#SVGID_00000023990283410598887980000002070818285468321193_);}
	.st19{fill:url(#SVGID_00000114784588988132490170000001623111226815226765_);}
	.st20{fill:url(#SVGID_00000044891980413127162590000014314693064391368360_);}
	.st21{fill:#E60012;}
	.st22{fill:url(#SVGID_00000082344746204804369780000002585093119405554055_);}
	.st23{fill:url(#SVGID_00000101083305771665998000000002250176631781643188_);}
</style>
<linearGradient id="SVGID_1_" gradientUnits="userSpaceOnUse" x1="129" y1="224" x2="129" y2="86" gradientTransform="matrix(1 0 0 -1 0 258)">
	<stop  offset="0" style="stop-color:#023D7B"/>
	<stop  offset="1" style="stop-color:#000000"/>
</linearGradient>
<path class="st0" d="M104.4,42.4c-4.4-5.3-10.9-8.4-17.8-8.4H29c-6.6,0-12,5.4-12,12v12.1v10.1V160c0,6.6,5.4,12,12,12h200
	c6.6,0,12-5.4,12-12V70.1c0-6.6-5.4-12-12-12H117.4L104.4,42.4z"/>
<defs>
	<filter id="Adobe_OpacityMaskFilter" filterUnits="userSpaceOnUse" x="17" y="62" width="224" height="110">
		<feColorMatrix  type="matrix" values="1 0 0 0 0  0 1 0 0 0  0 0 1 0 0  0 0 0 1 0"/>
	</filter>
</defs>
<mask maskUnits="userSpaceOnUse" x="17" y="62" width="224" height="110" id="mask0_989_23974_00000083082901719980747540000015834557479472992917_">
	
		<linearGradient id="SVGID_00000022527186614882515140000000918405730175552695_" gradientUnits="userSpaceOnUse" x1="32.5816" y1="239.5494" x2="213.3495" y2="58.4074" gradientTransform="matrix(1 0 0 -1 0 258)">
		<stop  offset="0" style="stop-color:#05815D"/>
		<stop  offset="1" style="stop-color:#0C575F"/>
	</linearGradient>
	
		<path style="fill-rule:evenodd;clip-rule:evenodd;fill:url(#SVGID_00000022527186614882515140000000918405730175552695_);filter:url(#Adobe_OpacityMaskFilter);" d="
		M104.4,42.4c-4.4-5.3-10.9-8.4-17.8-8.4H29c-6.6,0-12,5.4-12,12v12.1v10.1V160c0,6.6,5.4,12,12,12h200c6.6,0,12-5.4,12-12V70.1
		c0-6.6-5.4-12-12-12H117.4L104.4,42.4z"/>
</mask>
<g class="st2">
	<g>
		<path class="st3" d="M92.8,74c5,0,9.8-1.6,13.8-4.6l9.9-7.4H229c6.6,0,12,5.4,12,12v34v52c0,6.6-5.4,12-12,12H29
			c-6.6,0-12-5.4-12-12v-52V86c0-6.6,5.4-12,12-12h58H92.8z"/>
	</g>
</g>
<g>
	
		<linearGradient id="SVGID_00000168796857702369521760000013096377824864071811_" gradientUnits="userSpaceOnUse" x1="17" y1="196" x2="241" y2="48" gradientTransform="matrix(1 0 0 -1 0 258)">
		<stop  offset="0" style="stop-color:#0259A5"/>
		<stop  offset="0.9999" style="stop-color:#023C79"/>
	</linearGradient>
	<path style="fill-rule:evenodd;clip-rule:evenodd;fill:url(#SVGID_00000168796857702369521760000013096377824864071811_);" d="
		M92.8,74c5,0,9.8-1.6,13.8-4.6l9.9-7.4H229c6.6,0,12,5.4,12,12v34v90c0,6.6-5.4,12-12,12H29c-6.6,0-12-5.4-12-12v-90V86
		c0-6.6,5.4-12,12-12h58H92.8z"/>
</g>
<g>
	<path class="st5" d="M104.4,107.1l5.9,0c2.4,0,4.4-1.9,4.4-4.3c0-2.4-2-4.3-4.4-4.3l-1.5,0c-0.1,0-0.2-0.1-0.2-0.2
		c0-0.1,0.1-0.2,0.2-0.2l5.9,0l0-1.8h-5.9c-1.1,0-2.1,0.9-2.1,2.1c0,1.1,0.9,2.1,2.1,2.1l1.5,0c1.4,0,2.5,1.1,2.5,2.5
		c0,1.4-1.1,2.5-2.5,2.5h-5.9L104.4,107.1z"/>
	<path class="st5" d="M117.8,97.5c0-0.8,0.6-1.4,1.4-1.4h6.3V98h-5.4c-0.4,0-0.4,0.4-0.4,0.4h4.5v1.8h-6.4L117.8,97.5z"/>
	<path class="st5" d="M119.2,104.8c-0.8,0-1.4-0.6-1.4-1.4v-2.7h6.4v1.8h-4.5c0,0.4,0.4,0.4,0.4,0.4h5.4l0,1.8L119.2,104.8z"/>
	<path class="st5" d="M128.5,103.4c0,0.8,0.6,1.4,1.4,1.4h3.8v-4.1h-2.9v1.8h1.1l0,0.4h-1.1c-0.2,0-0.4-0.2-0.4-0.4l0-4.1
		c0,0,0-0.4,0.4-0.4h5.2l0-1.8l-6.1,0c-0.8,0-1.4,0.6-1.4,1.4L128.5,103.4"/>
	<path class="st5" d="M141.7,96.1c0.1-0.2,0.3-0.4,0.6-0.4c0.3,0,0.5,0.2,0.6,0.4l3,8.7h-4.3l0-2.1h1.4l-0.7-1.9l-2.1,6.3H138
		L141.7,96.1z"/>
	<path class="st5" d="M104.4,104.8h5.9c1.1,0,2.1-0.9,2.1-2.1c0-1.1-0.9-2.1-2.1-2.1l-1.5,0c-1.4,0-2.5-1.1-2.5-2.5
		c0-1.4,1.1-2.5,2.5-2.5l5.9,0l0-1.9h-5.9c-2.4,0-4.4,1.9-4.4,4.3c0,2.4,2,4.3,4.4,4.3l1.5,0c0.1,0,0.2,0.1,0.2,0.2
		c0,0.1-0.1,0.2-0.2,0.2l-5.9,0L104.4,104.8z"/>
	<path class="st5" d="M119.2,105.2c-1,0-1.9-0.8-1.9-1.9v-5.9c0-1,0.8-1.8,1.9-1.8l6.3,0v-1.8h-6.3c-2,0-3.7,1.7-3.7,3.7v5.9
		c0,2,1.7,3.7,3.7,3.7l6.3,0l0-1.8L119.2,105.2z"/>
	<path class="st5" d="M129.9,105.2c-1,0-1.8-0.8-1.8-1.8v-5.9c0-1,0.8-1.8,1.8-1.8h6.1v-1.8h-6.1c-2,0-3.7,1.7-3.7,3.7v5.9
		c0,2,1.7,3.7,3.7,3.7l6.1,0v-8.7h-5.2v1.8h3.4v5H129.9z"/>
	<path class="st5" d="M146.4,105.2h-4.9v1.8h7.5l-3.9-11.5c-0.3-1.1-1.5-1.9-2.8-1.9c-1.3,0-2.5,0.8-2.8,1.9l-3.9,11.5h2l3.8-11.2
		c0.2-0.4,0.5-0.6,0.9-0.6c0.4,0,0.8,0.3,0.9,0.6L146.4,105.2z"/>
</g>
<g>
	
		<linearGradient id="SVGID_00000115517287583059112800000005524626711176750990_" gradientUnits="userSpaceOnUse" x1="62.4496" y1="139.6056" x2="190.1288" y2="139.6056">
		<stop  offset="0" style="stop-color:#0259A5"/>
		<stop  offset="0.9999" style="stop-color:#023C79"/>
	</linearGradient>
	<path style="fill:url(#SVGID_00000115517287583059112800000005524626711176750990_);" d="M189.7,127.5l-1.8-0.3l0.8-4l0.1-0.5
		l-0.5-0.1l-7.6-1.5l0.4-1.8l0.1-0.5l-0.5-0.1l-1-0.2l-8.9-1.7l-0.5-0.1l-0.1,0.5l-0.4,1.8l-6.9-1.4l-0.5-0.1l-0.1,0.5l-0.8,4
		l-1.6-0.3l-0.5-0.1l-0.1,0.5l-1.4,7.5l-0.1,0.5l0.5,0.1l1.6,0.3l-0.8,4l-0.1,0.5l0.5,0.1l1.3,0.3l-0.1,0.5l-1.7-0.3l-4-14.9
		L155,120l-0.5,0.1l-11.4,3.1l0.8-5.4l0.1-0.7l-0.7,0.2l-3.2,0.9l-7.6,2l-0.3,0.1l0,0.3l-0.7,4.6c-0.2-0.1-0.5-0.2-0.8-0.2
		c-0.6-0.1-1.5-0.2-2.1-0.3c-0.2-2-1.2-3.4-2.9-4c-2.5-0.8-4.3,0.6-5.1,1.7c-0.2-0.5-0.5-1-0.8-1.3c-1.1-1.2-2.4-1.3-2.7-1.3h0
		c-2.1,0-3.6,0.9-4.3,2.5c-0.4,0-0.8-0.1-0.8-0.1h-0.1c-0.7,0-1.7,0.2-2.5,0.8c-0.3-0.7-0.6-1.6-0.6-1.6l0-0.1c-0.5-1-2.3-2.7-5-1.7
		c-1,0.3-1.8,1.1-2.3,2.1c-0.3,0.5-0.4,1.1-0.4,1.7c0,0.5,0.1,1,0.3,1.6c0.4,1,0.6,1.7,0.8,2.1c-1.4,0.4-3,1.7-3.3,3.8l0,0.6
		c0,1.5,0.7,3.4,3.7,4.2c-0.1,0.6-0.9,4.9-1.5,8.1c-1.9-8.1-4.9-20.5-4.9-20.5c-0.3-1.3-1.1-2.5-2.3-3.2c-1.2-0.7-2.5-0.9-3.9-0.6
		c-2.7,0.7-4.4,3.4-3.8,6.1c0,0.4,0.4,2.9,0.5,4.2c-0.6,0.2-0.9,0.3-1.6,0.4c-0.4-1.9-1.6-6.9-1.6-6.9c-0.3-1.3-1.1-2.5-2.3-3.2
		c-1.2-0.7-2.5-0.9-3.9-0.6c-1.3,0.3-2.5,1.1-3.2,2.3c-0.5,0.8-0.8,1.7-0.8,2.7c0,0.4,0,0.8,0.1,1.2c0,0,0.5,2.2,0.9,3.7
		c-0.8,0.2-1.2,0.3-1.7,0.4c-0.2-0.3-0.4-0.4-0.5-0.6c-0.4-1.2-1.1-2.2-2.2-2.8c-1.2-0.7-2.5-0.9-3.9-0.6c-1.3,0.3-2.5,1.1-3.2,2.3
		c-0.7,1.2-0.9,2.5-0.6,3.9l6.3,27c0.4,1.7,2.1,2.8,3.8,2.4c0,0,17.6-4.2,24.8-5.9c0.1,0.2,0.3,0.3,0.5,0.5c2.4,2,4.8,1,6,0.4
		c0.6,0.6,1.3,1,2.1,1.2c0,0,0,0,0,0c0,0,0.1,0,0.1,0l-0.1,0c0.2,0,1.8,0.3,17.7,3.2l0,0l0,0c1.3,0.2,2.7-0.2,3.7-0.9
		c0.7-0.6,1.2-1.3,1.3-2.2c0-0.3,0.1-0.7,0.1-1c0-1.4-0.4-2.5-1.3-3.3c-0.3-0.3-0.6-0.5-1-0.6c0.3-0.3,0.5-0.6,0.8-0.9
		c1-1.3,1.5-2.9,1.5-4.5c0-0.3,0-0.5,0-0.8c0.4-0.1,0.8-0.3,1.1-0.6l4.4,16.4l0.1,0.5l0.5-0.1l10.3-2.8l0.4-0.1l-0.1-0.5l-0.3-1
		l3.7-1l3.7-1l0.3,1l0.1,0.5l0.5-0.1l2-0.5l25.3,4.9l0.5,0.1l0.1-0.5l2.4-12.5l1.4,0.3l0.5,0.1l0.1-0.5l1.4-7.5l0.1-0.5l-0.5-0.1
		l-3.6-0.7l0.1-0.4l0,0l1.7,0.3l0.5,0.1l0.1-0.5l0.8-4l1.7,0.3l0.5,0.1l0.1-0.5l1.5-7.5l0.1-0.5L189.7,127.5z"/>
	<path class="st5" d="M185.1,139.4c0,0,0.6-3.2,0.9-4.4c0.6,0.1,2.2,0.4,2.2,0.4l1.5-7.5c0,0-1.6-0.3-2.2-0.4
		c0.2-1.2,0.9-4.4,0.9-4.4s-6.5-1.3-8-1.6c0.1-0.6,0.4-2.3,0.4-2.3l-1-0.2l-8.9-1.7c0,0-0.3,1.7-0.4,2.3c-1.5-0.3-7.4-1.4-7.4-1.4
		s-0.6,3.2-0.9,4.4c-0.5-0.1-2.1-0.4-2.1-0.4l-1.5,7.5c0,0,1.6,0.3,2.1,0.4c-0.2,1.2-0.9,4.4-0.9,4.4s1.4,0.3,1.8,0.3
		c-0.1,0.6-0.2,0.8-0.3,1.4c-0.6-0.1-1.6-0.3-2.4-0.5l-4.1-15.1c0,0-8.4,2.3-12.1,3.2c0.2-1.4,0.9-6.1,0.9-6.1l-3.2,0.9l-7.6,2
		c0,0-0.5,3.5-0.8,5.4c-0.4-0.2-0.8-0.4-1.2-0.4c-0.8-0.1-1.9-0.3-2.6-0.4c0,0,0,0,0-0.1c0-1.4-0.5-3.2-2.4-3.8
		c-2.5-0.8-4.1,0.8-4.6,1.8l0,0l-0.6,1.1c0,0,0,0,0,0c0-1.1-0.4-2-1-2.7c-0.9-1-2.1-1-2.2-1.1h0h0c-2,0-3.4,0.9-3.9,2.6
		c-0.6-0.1-1.2-0.1-1.2-0.1h0c-0.7,0-2,0.3-2.8,1.2l-1-2.4l0,0c-0.4-0.8-1.9-2.2-4.2-1.4c-0.8,0.3-1.5,1-1.9,1.8
		c-0.2,0.5-0.3,0.9-0.3,1.4c0,0.4,0.1,0.9,0.2,1.3c0.7,1.9,1,2.6,1,2.7l0,0.1l0,0c0,0,0,0,0,0.1c-0.1,0-0.1,0-0.2,0
		c-1.3,0.1-3.1,1.3-3.4,3.4c0,0.2,0,0.4,0,0.5c0,2.7,2.3,3.4,3.8,3.7c-0.2,1.1-1.7,9.1-2.2,11.8l-5.6-23.5c-0.3-1.2-1-2.1-2-2.8
		c-1-0.6-2.2-0.8-3.4-0.5c-1.2,0.3-2.1,1-2.8,2c-0.6,1-0.8,2.2-0.5,3.3c0,0.3,0.5,3.9,0.6,4.8c-0.7,0.2-2,0.6-2.8,0.8
		c-0.3-1.1-1.8-7.6-1.8-7.6c-0.3-1.2-1-2.1-2-2.8c-1-0.6-2.2-0.8-3.4-0.5c-1.2,0.3-2.1,1-2.8,2c-0.4,0.7-0.7,1.5-0.7,2.3
		c0,0.4,0,0.7,0.1,1c0,0,0.7,3,1,4.3c-0.8,0.2-2.3,0.5-2.8,0.6c-0.3-0.3-0.8-0.9-0.9-1c-0.3-1.1-1-2-1.9-2.6c-1-0.6-2.2-0.8-3.4-0.5
		c-1.2,0.3-2.1,1-2.8,2c-0.6,1-0.8,2.2-0.5,3.4l6.3,27c0.3,1.4,1.7,2.2,3,1.9c0,0,18.3-4.4,25.2-6c0.2,0.3,0.4,0.5,0.6,0.7
		c2.1,1.7,4.4,1,5.7,0c0.4,0.6,1.1,1.2,2.2,1.4l17.6,3.1l0,0c1.2,0.2,2.3-0.1,3.2-0.8c0.6-0.5,1-1.1,1-1.7c0.2-1.7-0.1-2.9-1-3.7
		c-0.6-0.5-1.3-0.7-1.9-0.8c0.6-0.4,1.2-1,1.6-1.6c0.9-1.2,1.4-2.7,1.4-4.2c0-0.4,0-0.9-0.1-1.3c0.7-0.1,1.5-0.4,2.1-1.1l4.6,17.3
		l10.3-2.8c0,0-0.2-0.9-0.4-1.5c2.3-0.6,6-1.6,8.4-2.2c0.2,0.6,0.4,1.5,0.4,1.5l2.1-0.6l25.4,4.9c0,0,2.2-11.3,2.5-13
		c0.4,0.1,1.9,0.4,1.9,0.4l1.4-7.5c0,0-3-0.6-4.1-0.8c0.1-0.6,0.2-0.8,0.3-1.4C183.4,139.1,185.1,139.4,185.1,139.4"/>
	
		<linearGradient id="SVGID_00000054264200464043474890000017309577410423191473_" gradientUnits="userSpaceOnUse" x1="155.3519" y1="139.2824" x2="188.3692" y2="139.2824">
		<stop  offset="0" style="stop-color:#0259A5"/>
		<stop  offset="0.9999" style="stop-color:#023C79"/>
	</linearGradient>
	<path style="fill:url(#SVGID_00000054264200464043474890000017309577410423191473_);" d="M184.3,138.2c0,0,0.9-4.4,0.9-4.4
		c0.6,0.1,2.2,0.4,2.2,0.4l1.1-5.4c0,0-1.7-0.3-2.2-0.4c0,0,0.9-4.4,0.9-4.4s-7-1.4-8-1.6c0.1-0.6,0.4-2.3,0.4-2.3l-1.1-0.2
		l-6.8-1.3c0,0-0.3,1.7-0.4,2.3c-1.6-0.3-7.4-1.4-7.4-1.4s-0.9,4.4-0.9,4.4c-0.2,0-2.1-0.4-2.1-0.4l-1.1,5.4c0,0,1.9,0.4,2.1,0.4
		c0,0-0.9,4.4-0.9,4.4s1.7,0.3,1.8,0.3c0,0-0.7,3.4-0.7,3.4c-1.1-0.2-3.8-0.7-3.8-0.7l-1.1,5.4l0.7,0.1l-2.5,13L180,160l2.5-13
		l1.9,0.4l1.1-5.4c0,0-2.8-0.6-4.1-0.8c0,0,0.7-3.4,0.7-3.4C182.4,137.8,184.3,138.2,184.3,138.2"/>
	<path class="st5" d="M175.3,145.7l-11-2.1l-5.4-1l-0.6,3.2l-0.2,1.3l-0.5,2.8l-0.2,1l-0.7,3.5l5.4,1l11,2.1l6.1,1.2l0.7-3.5l0.2-1
		l0.5-2.8l0.2-1.3l0.6-3.2L175.3,145.7z M173.7,154l-11-2.1l0.2-1l11,2.1L173.7,154z M174.5,150.2l-11-2.1l0.2-1.3l11,2.1
		L174.5,150.2z"/>
	<path class="st5" d="M178.7,136l4.7,0.9l0.6-3.2l0.2-1.2l2.2,0.4l0.6-3.2l-2.2-0.4l0.2-1.2l0.6-3.2l-4.7-0.9l-3.4-0.7l0.4-2.3
		l-5.7-1.1l-0.4,2.3l-7.4-1.4l-0.6,3.2l7.4,1.4l-0.2,1.2l-9.5-1.8l-0.6,3.2l9.5,1.8l-0.2,1.2l-7.4-1.4l-0.6,3.2l7.4,1.4l-0.2,1.2
		l-5.6-1.1l-0.6,3.2l5.6,1.1l-0.2,1.2l-9.4-1.8l-0.6,3.2l25.1,4.9l0.6-3.2l-9.9-1.9l0.2-1.2l5.8,1.1l0.6-3.2l-5.8-1.1l0.2-1.2
		L178.7,136z M177,126.5l3.4,0.7l-0.2,1.2l-3.4-0.7L177,126.5z M176.2,130.9l3.4,0.7l-0.2,1.2l-3.4-0.7L176.2,130.9z"/>
	
		<linearGradient id="SVGID_00000067202767483869559440000017876480219494761889_" gradientUnits="userSpaceOnUse" x1="127.0399" y1="139.8408" x2="162.3957" y2="139.8408">
		<stop  offset="0" style="stop-color:#0259A5"/>
		<stop  offset="0.9999" style="stop-color:#023C79"/>
	</linearGradient>
	<path style="fill:url(#SVGID_00000067202767483869559440000017876480219494761889_);" d="M140.6,119.6l-7,1.9c0,0-0.8,5-0.9,6.1
		c-1.1,0.3-5.7,1.5-5.7,1.5l8.4,31.5l8.3-2.2c0,0-0.4-1.3-0.4-1.5c1.6-0.4,8.7-2.3,10.3-2.8c0,0.2,0.4,1.5,0.4,1.5l8.3-2.2
		l-8.4-31.5c0,0-10.1,2.7-12.6,3.4c0.3-1.8,0.9-6.1,0.9-6.1L140.6,119.6z M139.5,122.2c-0.3,1.8-0.9,6.1-0.9,6.1s11.9-3.2,13.8-3.7
		c0.5,1.9,6.8,25.2,7.3,27.2c-1.2,0.3-2.8,0.7-3.9,1.1c0-0.2-0.4-1.5-0.4-1.5l-14.7,3.9c0,0,0.4,1.3,0.4,1.5
		c-1.2,0.3-2.8,0.7-3.9,1.1c-0.5-1.9-6.8-25.2-7.3-27.2c1.4-0.4,4.9-1.3,4.9-1.3s0.8-5,0.9-6.1C136.4,123,138,122.6,139.5,122.2"/>
	
		<linearGradient id="SVGID_00000180362984355006241980000016937065426394776739_" gradientUnits="userSpaceOnUse" x1="137.9491" y1="145.6404" x2="154.2825" y2="145.6404">
		<stop  offset="0" style="stop-color:#0259A5"/>
		<stop  offset="0.9999" style="stop-color:#023C79"/>
	</linearGradient>
	<path style="fill:url(#SVGID_00000180362984355006241980000016937065426394776739_);" d="M151.3,140.5l-13.4,3.6l1.9,7l14.5-3.9
		l-1.9-7L151.3,140.5z M150.8,143c0.2,0.9,0.5,1.7,0.7,2.6c-1.6,0.4-8.5,2.3-10.1,2.7c-0.2-0.9-0.5-1.7-0.7-2.6
		C142.3,145.2,149.2,143.4,150.8,143"/>
	
		<linearGradient id="SVGID_00000048478048497624558470000003871635138823196299_" gradientUnits="userSpaceOnUse" x1="135.0967" y1="134.9879" x2="151.4271" y2="134.9879">
		<stop  offset="0" style="stop-color:#0259A5"/>
		<stop  offset="0.9999" style="stop-color:#023C79"/>
	</linearGradient>
	<path style="fill:url(#SVGID_00000048478048497624558470000003871635138823196299_);" d="M148.5,129.9l-13.4,3.6l1.9,7l14.5-3.9
		l-1.9-7L148.5,129.9z M148,132.3c0.2,0.9,0.5,1.7,0.7,2.6c-1.6,0.4-8.5,2.3-10.1,2.7c-0.2-0.9-0.5-1.7-0.7-2.6
		C139.5,134.6,146.3,132.8,148,132.3"/>
	<path class="st5" d="M140,126.8l0.9-6.1l-6.3,1.7l-0.9,6.1l-5.3,1.4l7.9,29.3l6.1-1.6l-0.4-1.5l12.5-3.4l0.4,1.5l6.1-1.6l-7.9-29.3
		L140,126.8z M152.9,146.4l-12.3,3.3l-1.3-4.8l12.3-3.3L152.9,146.4z M150.1,135.7l-12.3,3.3l-1.3-4.8l12.3-3.3L150.1,135.7z"/>
	<path class="st5" d="M132.1,126.2c-0.5-0.3-1-0.5-1.4-0.6c-0.8-0.1-1.9-0.3-2.6-0.4c0,0,0,0,0-0.1c0-1.4-0.5-3.2-2.4-3.8
		c-2.5-0.8-4.1,0.8-4.6,1.8l0,0l-0.6,1.1c0,0,0,0,0,0c0-1.1-0.4-2-1-2.7c-0.9-1-2.1-1-2.2-1h0h0c-2,0-3.4,0.9-3.9,2.6
		c-0.6-0.1-1.2-0.1-1.2-0.1h0c-0.7,0-1.9,0.3-2.8,1.2l-1-2.4l0,0c-0.4-0.8-1.9-2.2-4.2-1.4c-0.8,0.3-1.5,1-1.9,1.8
		c-0.2,0.5-0.3,0.9-0.3,1.4c0,0.4,0.1,0.9,0.2,1.3c0.7,1.9,1,2.6,1,2.7l0,0l0,0.1c0,0,0,0,0,0.1c-0.1,0-0.1,0-0.2,0
		c-1.3,0.1-3.1,1.3-3.4,3.4c0,0.2,0,0.4,0,0.5c0,2.7,2.3,3.4,3.8,3.7c-0.2,1.3-2.2,12.2-2.3,12.7c-0.9,0.7-3.7,3-3.8,5.2
		c0,0,0,0.1,0,0.1c0,0.8,0.3,1.5,1,2c2.1,1.7,4.4,1,5.7,0c0.4,0.6,1.1,1.2,2.2,1.4c0,0,17.6,3.1,17.6,3.1l0,0
		c1.2,0.2,2.3-0.1,3.2-0.8c0.6-0.5,1-1.1,1-1.7c0.2-1.7-0.1-2.9-1-3.7c-0.6-0.5-1.3-0.7-1.9-0.8c0.6-0.4,1.2-1,1.6-1.6
		c0.9-1.2,1.4-2.7,1.4-4.2c0-0.4,0-0.9-0.1-1.3c0.9-0.1,1.9-0.6,2.5-1.9l-2.5-10.1L132.1,126.2z"/>
	
		<linearGradient id="SVGID_00000173851993450578359660000017975367131957637508_" gradientUnits="userSpaceOnUse" x1="114.8433" y1="142.1904" x2="131.5572" y2="142.1904">
		<stop  offset="0" style="stop-color:#0259A5"/>
		<stop  offset="0.9999" style="stop-color:#023C79"/>
	</linearGradient>
	<path style="fill:url(#SVGID_00000173851993450578359660000017975367131957637508_);" d="M119.5,138.2l2,0.2l2-2l-1.2-0.2
		c-2.2-0.3-2.7-2.2-2.5-3c0.1-0.8,1.2-2.6,3-2.3l6.9,1.1c0.3,0,1.8,0.7,2,1.9c0.2,2.2-0.7,2.7-0.7,2.7l-3.2,2.7
		c3.2,0.8,2.4,3.4,2.4,3.4c-0.6,2.6-2.9,2.1-2.9,2.1c1.4,4.3-1.9,8.6-6.4,8.6c-4.5,0-6.9-4-5.4-5.9c1.5-1.9,3.7-1.4,4.5-0.5
		c0.9,0.9,2.3,0.5,2.5-0.4c0.3-1.3-1.1-2.4-2.3-2.8c-1.3-0.4-2-0.3-2.8-1.1C116.2,141.8,115.7,138.2,119.5,138.2"/>
	
		<linearGradient id="SVGID_00000032642810239429864700000006220781623825316506_" gradientUnits="userSpaceOnUse" x1="102.6707" y1="124.5024" x2="108.8948" y2="124.5024">
		<stop  offset="0" style="stop-color:#0259A5"/>
		<stop  offset="0.9999" style="stop-color:#023C79"/>
	</linearGradient>
	<path style="fill:url(#SVGID_00000032642810239429864700000006220781623825316506_);" d="M104.4,120.9c-1,0.4-2.2,1.7-1.5,3.6
		c0.7,1.9,1,2.6,1,2.6s1.1,1.8,3.4,0.8c2.1-0.8,1.6-3.1,1.6-3.1l-1.2-2.9C107.7,122,106.7,120.1,104.4,120.9"/>
	
		<linearGradient id="SVGID_00000039107460535284884460000008356760159845826984_" gradientUnits="userSpaceOnUse" x1="104.9673" y1="136.4069" x2="120.2238" y2="136.4069">
		<stop  offset="0" style="stop-color:#0259A5"/>
		<stop  offset="0.9999" style="stop-color:#023C79"/>
	</linearGradient>
	<path style="fill:url(#SVGID_00000039107460535284884460000008356760159845826984_);" d="M114.6,150.8c-0.7-1.3-0.6-2.7,0.1-3.7
		c0.9-1.2,2-1.5,2.8-1.6c0.3,0,0.7,0,1,0.1l0.2-1.3c-0.7-0.2-1.3-0.3-2-1c-0.8-0.8-1.2-2.5-0.7-3.9c0.3-0.7,1.2-1.9,3.5-1.9h0
		c0,0,0.2,0,0.4,0.1l0.3-1.3c-0.9-0.7-1.3-1.8-1.3-2.6c0-0.1,0-0.2,0-0.3l-0.1-0.1c-0.8-0.7-1.2-1.5-1.3-2.3l-1.8-0.3l0.2-0.8
		l1.6,0.2c0.1-0.8,0.3-1.6,0.6-2.1l1.9-3.3l-0.4-0.1c0.2-3.5-2.5-3.6-2.5-3.6c-1.9,0-3.1,0.9-3.2,2.7l-1.9-0.2c0,0-2.4,0-2.8,2.2
		c-0.4,2,0.9,3.1,2.2,3.4l-2.2,12.1c-0.7,3.7-3.4,2.8-4.2,5.3c-0.3,1,0.6,4.3,3.6,3.5c0,0-0.9-2.8,1.3-4.3c1.7-1.2,1.6,0.2,2.8-2.3
		c0,0,0.6-1.4,1.1-3.7c0.5-2.4,0.7-4,0.7-4l0.8,0.1l-1.8,9.8l-2,0.2c0,0-2.6,0.5-2.3,3.4c0.2,2.6,3.4,2.4,3.4,2.4s1.3,0,2.1-0.5
		C114.7,151,114.6,150.9,114.6,150.8"/>
	
		<linearGradient id="SVGID_00000040545799265708156750000008792254890578736006_" gradientUnits="userSpaceOnUse" x1="98.1709" y1="143.7101" x2="127.4972" y2="143.7101">
		<stop  offset="0" style="stop-color:#0259A5"/>
		<stop  offset="0.9999" style="stop-color:#023C79"/>
	</linearGradient>
	<path style="fill:url(#SVGID_00000040545799265708156750000008792254890578736006_);" d="M124,153.5c-1,0.5-2.2,0.8-3.3,0.8
		c-2.6,0-4.4-1.1-5.4-2.4c-0.9,0.6-2.3,0.6-2.6,0.6h0c-1,0.1-2.8-0.3-3.7-1.7c-0.1,0-0.2,0.1-0.2,0.1c-1.4,0.3-2.6,0-3.4-0.9
		c-0.8-0.8-1.1-2-1.1-2.9c0-0.3,0-0.5,0.1-0.7c0.4-1.3,1.3-1.9,2.1-2.4c0.7-0.4,1.3-0.8,1.7-1.7l1.7-10.9c0,0,0.1-2-1.9-2.4
		c-0.5-0.1-3.4-0.7-4.8-0.6c-0.9,0.1-2.5,0.9-2.7,2.7c-0.3,2.7,2.1,3.2,3.9,3.5l-0.7,4l-0.5,0.6l0.2,1.2l-1.5,8c0,0-5.7,4.1-3,6.3
		c2.7,2.2,5.4-0.5,5.4-0.5s0.6,1.5,2.2,1.8l17.6,3.1c1.6,0.2,3.2-0.6,3.4-1.9C127.9,153.5,125.2,153.3,124,153.5"/>
	
		<linearGradient id="SVGID_00000147198298002119518560000001924226332973250995_" gradientUnits="userSpaceOnUse" x1="118.2741" y1="127.1383" x2="132.5289" y2="127.1383">
		<stop  offset="0" style="stop-color:#0259A5"/>
		<stop  offset="0.9999" style="stop-color:#023C79"/>
	</linearGradient>
	<path style="fill:url(#SVGID_00000147198298002119518560000001924226332973250995_);" d="M130.6,126.3c-1.2-0.2-3.3-0.5-3.3-0.5
		s0.5-3.1-1.9-3.8c-2.5-0.8-3.7,1.4-3.7,1.4l-2.9,5.1c0,0-1.4,2.4,0.4,4c0.5-1.2,1.8-2.5,3.6-2.3l6.9,1.1l-0.1,0
		c0.1,0,0.4,0,0.6,0.1c0.9-0.1,2.1-0.5,2.3-1.9C132.8,127.3,131.7,126.5,130.6,126.3"/>
	<path class="st5" d="M77.7,120.1c-1.2,0.3-2.1,1-2.8,2c-0.4,0.7-0.7,1.5-0.7,2.3c0,0.3,0,0.7,0.1,1c0,0,0.7,3,1,4.3
		c-0.8,0.2-2.3,0.5-2.8,0.6c-0.3-0.3-0.8-0.9-0.9-1c-0.3-1.1-1-2-1.9-2.6c-1-0.6-2.2-0.8-3.4-0.5c-1.2,0.3-2.1,1-2.8,2
		c-0.6,1-0.8,2.2-0.5,3.4l6.3,27c0.3,1.4,1.7,2.2,3.1,1.9l27.8-6.7c0.7-0.2,1.2-0.6,1.6-1.1c0.4-0.6,0.5-1.3,0.3-1.9l-6.5-27.3
		c-0.3-1.2-1-2.1-2-2.8c-1-0.6-2.2-0.8-3.4-0.5c-1.2,0.3-2.1,1-2.8,2c-0.6,1-0.8,2.2-0.5,3.4l0-0.1c0,0,0.5,3.9,0.6,4.8
		c-0.7,0.2-2,0.6-2.8,0.8c-0.3-1.1-1.8-7.6-1.8-7.6c-0.3-1.2-1-2.1-2-2.8C80.1,120.1,78.9,119.9,77.7,120.1"/>
	
		<linearGradient id="SVGID_00000133512479240809992970000015898842597322492838_" gradientUnits="userSpaceOnUse" x1="63.7636" y1="140.3095" x2="101.6961" y2="140.3095">
		<stop  offset="0" style="stop-color:#0259A5"/>
		<stop  offset="0.9999" style="stop-color:#023C79"/>
	</linearGradient>
	<path style="fill:url(#SVGID_00000133512479240809992970000015898842597322492838_);" d="M87.8,125.4c-0.5-2,0.8-4.1,2.8-4.6
		c2-0.5,4.1,0.8,4.6,2.8l6.5,27.3c0.2,1-0.4,2-1.4,2.3l-27.8,6.7c-1,0.2-2-0.4-2.3-1.4l-6.3-27c-0.5-2,0.8-4.1,2.8-4.6
		c2-0.5,4.1,0.8,4.6,2.8l1.2,1.4l3.8-0.8l-1.2-5c-0.5-2,0.8-4.1,2.8-4.6c2-0.5,4.1,0.8,4.6,2.8l1.9,8.3l4-1.1L87.8,125.4z"/>
	
		<linearGradient id="SVGID_00000126293924036307620510000003143459569494100614_" gradientUnits="userSpaceOnUse" x1="82.7082" y1="138.0767" x2="99.2235" y2="138.0767">
		<stop  offset="0" style="stop-color:#0259A5"/>
		<stop  offset="0.9999" style="stop-color:#023C79"/>
	</linearGradient>
	<path style="fill:url(#SVGID_00000126293924036307620510000003143459569494100614_);" d="M84.3,125.2l-1.5,15.4c0,0,0,0.1,0,0.1
		c0,0.4,0.1,0.7,0.4,1c0.3,0.3,0.6,0.5,1,0.5c0.1,0,1.7,0.1,2.4,0.2c-0.2,1.2-1.2,7-1.2,7c0,0.2-0.1,0.4-0.1,0.6
		c0,0.9,0.3,1.4,0.7,1.7c0.6,0.6,1.5,0.8,2.7,0.6l0,0l8.4-1.9c0.9-0.2,1.6-0.8,2-1.5c0.3-0.7,0.3-1.4,0-2.1l0,0l0,0
		c-1.4-2.7-3.6-6.8-3.7-7v0c-0.2-0.4-0.5-0.6-0.8-0.8c0-0.5,0.7-7.8,0.7-7.8c0,0,0-0.1,0-0.1c0-0.4-0.1-0.7-0.4-1
		c-0.3-0.3-0.7-0.5-1.1-0.5c0,0-1,0-1.9-0.1c0-0.7,0.3-3.8,0.3-3.8c0,0,0-0.1,0-0.1c0-0.4-0.1-0.7-0.4-1c-0.3-0.3-0.6-0.5-1-0.5
		l-4.8-0.2C85,123.8,84.3,124.4,84.3,125.2 M86.4,126.1c0.8,0,2.4,0.1,3.3,0.1c0,0.7-0.1,1.7-0.2,2.4c-1,0-1.6,0.6-1.7,1.7
		c0,0-0.3,3-0.3,3v0c0,0.8,0.6,1.5,1.4,1.6l0,0c0.8,0.1,1.5-0.5,1.6-1.4c0,0,0.1-1.1,0.2-1.9c0.6,0,1.4,0,2,0.1
		c-0.1,1.6-0.5,5.2-0.6,6.7c-0.8,0.4-3.2,1.7-3.2,1.7l-0.1,0c-0.2,0.2-0.4,0.4-0.5,0.6v0c-0.5-0.6-1.3-0.7-1.7-0.7
		c-0.3,0-1.1-0.1-1.7-0.1C85.3,137.3,86.2,128.6,86.4,126.1 M93.5,141.2c0.7,1.4,2.9,5.5,3.5,6.5c0,0,0,0.1,0,0.2c0,0,0,0,0,0.1
		c0,0.1-0.2,0.2-0.5,0.3c0,0-8.2,1.9-8.3,1.9c-0.4,0.1-0.6,0-0.7,0c0,0,0-0.1,0-0.1c0-0.1,0-0.2,0-0.3c0,0,0.9-5.3,1.1-6.8
		c0.2,0.4,1.1,2.1,1.1,2.1c0.2,0.3,0.5,0.6,0.9,0.7c0.4,0.1,0.8,0.1,1.2-0.1c0,0,0.1,0,0.1,0c0.5-0.3,0.8-0.8,0.8-1.3
		c0-0.2-0.1-0.5-0.2-0.7c0,0-0.4-0.8-0.7-1.4C92.3,141.8,93,141.4,93.5,141.2"/>
	<path class="st5" d="M84.6,125.2l-1.5,15.4c0,0,0,0.1,0,0.1c0,0.3,0.1,0.5,0.3,0.7c0.2,0.2,0.5,0.4,0.8,0.4c0.1,0,1.9,0.2,2.6,0.2
		c0.1,0,0.2,0,0.3,0c0,0,0,0.1,0,0.2c0,0-1.2,7.2-1.2,7.2c0,0.2-0.1,0.4-0.1,0.6c0,0.6,0.2,1.1,0.6,1.5c0.5,0.5,1.3,0.7,2.3,0.5l0,0
		l8.3-1.9c0.8-0.2,1.4-0.7,1.7-1.3c0.3-0.6,0.3-1.2,0-1.8l0,0l0,0c-1.4-2.7-3.6-6.8-3.7-7l0,0c-0.2-0.4-0.5-0.6-0.8-0.7
		c0,0,0.7-8.1,0.7-8.1c0,0,0-0.1,0-0.1c0-0.3-0.1-0.5-0.3-0.7c-0.2-0.2-0.5-0.4-0.8-0.4c0,0-1.3,0-2.3-0.1c0-0.1,0.3-4.2,0.3-4.2
		c0,0,0-0.1,0-0.1c0-0.3-0.1-0.5-0.3-0.7c-0.2-0.2-0.5-0.4-0.8-0.4l-4.8-0.2C85.2,124.1,84.7,124.6,84.6,125.2"/>
	
		<linearGradient id="SVGID_00000150815692574971718810000000221271082289858994_" gradientUnits="userSpaceOnUse" x1="83.8315" y1="138.0774" x2="98.0987" y2="138.0774">
		<stop  offset="0" style="stop-color:#0259A5"/>
		<stop  offset="0.9999" style="stop-color:#023C79"/>
	</linearGradient>
	<path style="fill:url(#SVGID_00000150815692574971718810000000221271082289858994_);" d="M94.2,140.2c0.1,0.2,3.7,7,3.7,7
		c0.4,0.9-0.1,1.8-1.2,2.1l-8.3,1.9c-1.2,0.2-2.2-0.1-2-1.7c0.3-1.6,1.2-7.2,1.2-7.2c0.2-1-0.4-1.1-1-1.1c-0.6,0-2.5-0.2-2.5-0.2
		c-0.2,0-0.4-0.2-0.3-0.4l1.5-15.4c0-0.2,0.2-0.4,0.4-0.4l4.8,0.2c0.2,0,0.4,0.2,0.3,0.4l-0.3,4.2c0,0-0.6,0-0.9,0
		c-0.3,0-0.7-0.1-0.8,0.7l-0.3,2.9c0,0.2,0.1,0.4,0.4,0.4l0,0c0.2,0,0.4-0.1,0.4-0.3l0.2-2.6c0-0.2,0.2-0.4,0.4-0.4l3.5,0.1
		c0.2,0,0.4,0.2,0.3,0.4l-0.7,8.1l-3.7,2c-0.4,0.3,0,1,0,1c0.1,0.2,0,0,0.1,0.2l1.2,2.2c0.1,0.2,0.3,0.2,0.5,0.1l0,0
		c0.2-0.1,0.2-0.3,0.2-0.5l-1.1-2.1c-0.1-0.2,0-0.4,0.2-0.5l2.8-1.6C93.8,139.8,94.1,139.9,94.2,140.2"/>
	
		<linearGradient id="SVGID_00000034778109833712880200000017771848098757025969_" gradientUnits="userSpaceOnUse" x1="68.3368" y1="141.482" x2="85.0357" y2="141.482">
		<stop  offset="0" style="stop-color:#0259A5"/>
		<stop  offset="0.9999" style="stop-color:#023C79"/>
	</linearGradient>
	<path style="fill:url(#SVGID_00000034778109833712880200000017771848098757025969_);" d="M69.5,128.6L68.3,144c0,0,0,0.1,0,0.1
		c0,0.4,0.1,0.7,0.4,1c0.3,0.3,0.6,0.5,1,0.5c0.1,0,1.7,0.1,2.4,0.1c-0.2,1.1-0.9,5.6-1.1,7c0,0.2,0,0.3,0,0.5
		c0,0.7,0.3,1.4,0.8,1.9c0.8,0.7,1.9,0.8,2.6,0.7l0,0l8.4-2.3c0.9-0.3,1.6-0.8,1.9-1.5c0.1-0.3,0.2-0.6,0.2-1c0-0.4-0.1-0.8-0.3-1.2
		l0,0l-3.9-7c-0.2-0.4-0.5-0.6-0.7-0.8c0-0.5,0.5-7.8,0.5-7.8c0,0,0-0.1,0-0.1c0-0.4-0.1-0.7-0.4-1c-0.3-0.3-0.7-0.5-1.1-0.5
		c0,0-1,0-2.1,0c0-0.7,0.2-3.8,0.2-3.8c0,0,0,0,0-0.1c0-0.4-0.1-0.7-0.4-1c-0.3-0.3-0.7-0.5-1.1-0.5l-4.8-0.1
		C70.2,127.2,69.5,127.8,69.5,128.6 M71.7,129.4c0.9,0,2.4,0,3.3,0c0,0.7-0.1,1.7-0.1,2.4c-0.8,0.1-1.7,0.8-1.8,2.1v0l-0.1,2.6v0
		c0,0.8,0.6,1.5,1.4,1.5h0c0.8,0.1,1.5-0.6,1.6-1.4c0,0,0.1-1.1,0.1-1.9c0.7,0,1.4,0,2.2,0c-0.1,1.6-0.3,5.3-0.4,6.7
		c-0.7,0.5-3.2,1.9-3.2,1.9l0,0c-0.3,0.2-0.4,0.4-0.5,0.7c0-0.1-0.1-0.1-0.1-0.2c-0.5-0.6-1.3-0.6-1.7-0.6c-0.3,0-1.1,0-1.7-0.1
		C70.8,140.7,71.5,132,71.7,129.4 M79.1,144.3c0.8,1.4,3.4,6,3.6,6.5c0,0,0,0.1,0,0.2c0,0,0,0,0,0.1c0,0.1-0.2,0.2-0.5,0.3
		c0,0-7.6,2-8.3,2.2c-0.3,0-0.5,0-0.6-0.1c0,0-0.1-0.1-0.1-0.2c0-0.1,0-0.1,0-0.2c0.2-1.4,0.9-5.9,1.1-7c0,0,0.1,0.1,0.1,0.1
		c0,0,0,0,0,0.1c0,0,1.1,1.9,1.1,1.9c0.2,0.4,0.5,0.6,0.9,0.7c0.4,0.1,0.8,0,1.2-0.2l0,0c0.5-0.3,0.7-0.8,0.7-1.3
		c0-0.2-0.1-0.5-0.2-0.7c0,0-0.4-0.8-0.7-1.3C78,145,78.8,144.5,79.1,144.3"/>
	<path class="st5" d="M84.4,150L84.4,150l-3.9-7c-0.2-0.4-0.5-0.6-0.8-0.7c0,0,0.5-8.1,0.5-8.1c0,0,0,0,0-0.1c0-0.3-0.1-0.6-0.3-0.8
		c-0.2-0.2-0.5-0.3-0.8-0.3c0,0-1.4,0-2.4,0c0-0.1,0.2-4.2,0.2-4.2c0,0,0,0,0-0.1c0-0.3-0.1-0.6-0.3-0.8c-0.2-0.2-0.5-0.3-0.8-0.3
		l-4.8-0.1c-0.6,0-1.1,0.5-1.2,1.1L68.7,144c0,0,0,0.1,0,0.1c0,0.3,0.1,0.5,0.3,0.7c0.2,0.2,0.5,0.4,0.8,0.4c0.1,0,1.9,0.1,2.6,0.1
		c0.1,0,0.2,0,0.3,0c0,0,0,0.1,0,0.2c0,0.1-0.9,5.7-1.1,7.3c0,0.2,0,0.3,0,0.4c0,0.8,0.3,1.3,0.6,1.6c0.7,0.6,1.6,0.7,2.3,0.6l0,0
		l8.4-2.3c0.8-0.2,1.4-0.7,1.7-1.3c0.1-0.3,0.2-0.5,0.2-0.8C84.7,150.6,84.6,150.3,84.4,150"/>
	
		<linearGradient id="SVGID_00000076587326038553232350000006899619601665950359_" gradientUnits="userSpaceOnUse" x1="69.4609" y1="141.4815" x2="83.9125" y2="141.4815">
		<stop  offset="0" style="stop-color:#0259A5"/>
		<stop  offset="0.9999" style="stop-color:#023C79"/>
	</linearGradient>
	<path style="fill:url(#SVGID_00000076587326038553232350000006899619601665950359_);" d="M79,142.2l-3.6,2.2c-0.4,0.3,0,1,0,1
		c0.1,0.2,0,0,0.1,0.2l1.1,1.9c0.1,0.2,0.3,0.2,0.5,0.1l0,0c0.2-0.1,0.2-0.3,0.1-0.5l-1.1-1.9c-0.1-0.2,0-0.4,0.1-0.5l2.4-1.4
		c0.2-0.1,0.5-0.2,0.7-0.3c0,0,0.2-0.1,0.5,0.4l3.9,6.9c0.4,0.9,0,1.8-1.2,2.1l-8.3,2.2c-0.9,0.2-2.2-0.2-2-1.7
		c0.2-1.6,1.1-7.3,1.1-7.3c0.2-1-0.4-1-1-1c-0.6,0-2.5-0.1-2.5-0.1c-0.2,0-0.4-0.2-0.4-0.4l1.1-15.4c0-0.2,0.2-0.4,0.4-0.4l4.8,0.1
		c0.2,0,0.4,0.2,0.4,0.4L76,133c0,0-0.6,0-0.9,0c-0.3,0-0.8,0.3-0.8,1.1l-0.1,2.6c0,0.2,0.2,0.4,0.4,0.4h0c0.2,0,0.4-0.1,0.4-0.4
		l0.2-2.6c0-0.2,0.2-0.4,0.4-0.4l3.7,0c0.2,0,0.4,0.2,0.4,0.4L79,142.2z"/>
	<polygon class="st21" points="101,137.4 98.1,137.4 100.4,139.4 99.5,142 101.6,140.2 103.6,141.9 102.9,139.1 104.9,137.3 
		102.3,137.3 101.7,135.2 	"/>
	
		<linearGradient id="SVGID_00000132046117610183348430000005097431564690547361_" gradientUnits="userSpaceOnUse" x1="97.0885" y1="138.4819" x2="105.8397" y2="138.4819">
		<stop  offset="0" style="stop-color:#0259A5"/>
		<stop  offset="0.9999" style="stop-color:#023C79"/>
	</linearGradient>
	<path style="fill:url(#SVGID_00000132046117610183348430000005097431564690547361_);" d="M101.3,135.1c0,0-0.5,1.5-0.6,2h-3.6
		c0,0,2.6,2.2,2.9,2.5c-0.1,0.4-1.3,3.7-1.3,3.7s2.5-2.2,2.9-2.5c0.4,0.3,2.7,2.3,2.7,2.3s-0.9-3.4-1-3.8c0.3-0.3,2.5-2.2,2.5-2.2
		s-2.8,0-3.3,0c-0.1-0.4-0.9-3.1-0.9-3.1L101.3,135.1z"/>
	<polygon class="st5" points="101,137.4 98.1,137.4 100.4,139.4 99.5,142 101.6,140.2 103.6,141.9 102.9,139.1 104.9,137.3 
		102.3,137.3 101.7,135.2 	"/>
	<polygon class="st21" points="129.9,150.5 127,151.2 129.7,152.6 129.4,155.3 131,153.2 133.4,154.4 132.1,151.8 133.6,149.7 
		131.1,150.2 130.1,148.2 	"/>
	
		<linearGradient id="SVGID_00000036234707794908158000000016555646464190253456_" gradientUnits="userSpaceOnUse" x1="125.969" y1="151.7959" x2="134.5174" y2="151.7959">
		<stop  offset="0" style="stop-color:#0259A5"/>
		<stop  offset="0.9999" style="stop-color:#023C79"/>
	</linearGradient>
	<path style="fill:url(#SVGID_00000036234707794908158000000016555646464190253456_);" d="M129.7,148.2c0,0-0.1,1.6-0.2,2
		c-0.4,0.1-3.6,0.8-3.6,0.8s3,1.6,3.4,1.8c-0.1,0.4-0.5,3.9-0.5,3.9s2-2.6,2.3-3c0.4,0.2,3.1,1.7,3.1,1.7s-1.6-3.1-1.8-3.5
		c0.2-0.3,2-2.7,2-2.7s-2.8,0.5-3.2,0.6c-0.2-0.4-1.5-2.9-1.5-2.9L129.7,148.2z"/>
	<polygon class="st5" points="129.9,150.5 127,151.2 129.7,152.6 129.4,155.3 131,153.2 133.4,154.4 132.1,151.8 133.6,149.7 
		131.1,150.2 130.1,148.2 	"/>
</g>
</svg>
