<?xml version="1.0" encoding="UTF-8"?>
<svg xmlns="http://www.w3.org/2000/svg" width="256" height="256" version="1.1" xmlns:xlink="http://www.w3.org/1999/xlink" viewBox="0 0 256 256">
  <!-- Generator: Adobe Illustrator 29.2.1, SVG Export Plug-In . SVG Version: 2.1.0 Build 116)  -->
  <defs>
    <style>
      .st0 {
        fill: url(#_未命名的渐变_134);
      }

      .st1 {
        fill-opacity: .3;
      }

      .st1, .st2, .st3, .st4 {
        fill-rule: evenodd;
      }

      .st5 {
        fill: url(#_未命名的渐变_131);
      }

      .st2 {
        fill: url(#_未命名的渐变_24);
      }

      .st6 {
        fill: url(#_未命名的渐变_27);
      }

      .st7 {
        fill: url(#_未命名的渐变_8);
      }

      .st8 {
        fill: url(#_未命名的渐变_5);
      }

      .st9 {
        mask: url(#mask);
      }

      .st10 {
        fill: none;
      }

      .st11 {
        fill: url(#_未命名的渐变_132);
      }

      .st12 {
        fill: url(#_未命名的渐变_133);
      }

      .st13 {
        fill: url(#_未命名的渐变_9);
      }

      .st14 {
        isolation: isolate;
      }

      .st3 {
        fill: url(#_未命名的渐变_3);
      }

      .st15 {
        fill: url(#_未命名的渐变_6);
      }

      .st16 {
        fill: url(#_未命名的渐变_261);
      }

      .st17 {
        fill: url(#_未命名的渐变_7);
      }

      .st18 {
        fill: url(#_未命名的渐变_135);
      }

      .st19 {
        fill: url(#_未命名的渐变_13);
      }

      .st20 {
        fill: url(#_未命名的渐变_281);
      }

      .st21 {
        fill: url(#_未命名的渐变_28);
      }

      .st22 {
        mix-blend-mode: multiply;
      }

      .st23 {
        display: none;
      }

      .st24 {
        fill: url(#_未命名的渐变_282);
      }

      .st25 {
        fill: url(#_未命名的渐变_4);
      }

      .st26 {
        fill: url(#_未命名的渐变_14);
      }

      .st27 {
        fill: #1693e2;
      }

      .st28 {
        fill: url(#_未命名的渐变_26);
      }

      .st4 {
        fill: url(#_未命名的渐变_2);
      }

      .st29 {
        clip-path: url(#clippath);
      }

      .st30 {
        fill: url(#_未命名的渐变_25);
      }
    </style>
    <linearGradient id="_未命名的渐变_24" data-name="未命名的渐变 24" x1="129" y1="86" x2="129" y2="224" gradientTransform="translate(0 258) scale(1 -1)" gradientUnits="userSpaceOnUse">
      <stop offset="0" stop-color="#12aef5"/>
      <stop offset=".2" stop-color="#12aaf2"/>
      <stop offset=".4" stop-color="#149feb"/>
      <stop offset=".6" stop-color="#178dde"/>
      <stop offset=".8" stop-color="#1c74cd"/>
      <stop offset="1" stop-color="#2154b6"/>
      <stop offset="1" stop-color="#2253b6"/>
    </linearGradient>
    <linearGradient id="_未命名的渐变_2" data-name="未命名的渐变 2" x1="32.6" y1="239.5" x2="213.3" y2="58.4" gradientTransform="translate(0 258) scale(1 -1)" gradientUnits="userSpaceOnUse">
      <stop offset="0" stop-color="#05815d"/>
      <stop offset="1" stop-color="#0c575f"/>
    </linearGradient>
    <mask id="mask" x="17" y="34" width="224" height="138" maskUnits="userSpaceOnUse">
      <g id="mask0_1708_28834">
        <path class="st4" d="M104.4,42.4c-4.4-5.3-10.9-8.4-17.8-8.4H29c-6.6,0-12,5.4-12,12v114c0,6.6,5.4,12,12,12h200c6.6,0,12-5.4,12-12v-89.9c0-6.6-5.4-12-12-12h-111.6l-13-15.8Z"/>
      </g>
    </mask>
    <linearGradient id="_未命名的渐变_3" data-name="未命名的渐变 3" x1="17" y1="196" x2="241" y2="48" gradientTransform="translate(0 258) scale(1 -1)" gradientUnits="userSpaceOnUse">
      <stop offset="0" stop-color="#feffff"/>
      <stop offset="1" stop-color="#b5d3ef"/>
    </linearGradient>
    <clipPath id="clippath">
      <rect class="st10" x="83" y="85" width="92.7" height="102"/>
    </clipPath>
    <radialGradient id="_未命名的渐变_4" data-name="未命名的渐变 4" cx="-553.4" cy="517.5" fx="-553.4" fy="517.5" r="1" gradientTransform="translate(-80280.3 15710.6) rotate(110.5) scale(77.3 -134.9)" gradientUnits="userSpaceOnUse">
      <stop offset="0" stop-color="#ae7fe2"/>
      <stop offset="1" stop-color="#0078d4"/>
    </radialGradient>
    <linearGradient id="_未命名的渐变_5" data-name="未命名的渐变 5" x1="128.9" y1="98.3" x2="117.9" y2="117.4" gradientTransform="translate(0 258) scale(1 -1)" gradientUnits="userSpaceOnUse">
      <stop offset="0" stop-color="#114a8b"/>
      <stop offset="1" stop-color="#0078d4" stop-opacity="0"/>
    </linearGradient>
    <radialGradient id="_未命名的渐变_6" data-name="未命名的渐变 6" cx="-546.9" cy="506" fx="-546.9" fy="506" r="1" gradientTransform="translate(42545.9 18239.3) rotate(-8.4) scale(72 -47.5)" gradientUnits="userSpaceOnUse">
      <stop offset=".1" stop-color="#d59dff"/>
      <stop offset="1" stop-color="#5e438f"/>
    </radialGradient>
    <linearGradient id="_未命名的渐变_7" data-name="未命名的渐变 7" x1="156" y1="126.7" x2="144.2" y2="109.7" gradientTransform="translate(0 258) scale(1 -1)" gradientUnits="userSpaceOnUse">
      <stop offset="0" stop-color="#493474"/>
      <stop offset="1" stop-color="#8c66ba" stop-opacity="0"/>
    </linearGradient>
    <radialGradient id="_未命名的渐变_8" data-name="未命名的渐变 8" cx="-564.4" cy="514.1" fx="-564.4" fy="514.1" r="1" gradientTransform="translate(-19147.9 -56343.9) rotate(-165.8) scale(57.8 -97.3)" gradientUnits="userSpaceOnUse">
      <stop offset="0" stop-color="#50e6ff"/>
      <stop offset="1" stop-color="#436dcd"/>
    </radialGradient>
    <linearGradient id="_未命名的渐变_9" data-name="未命名的渐变 9" x1="113.1" y1="139.4" x2="130.5" y2="139.4" gradientTransform="translate(0 258) scale(1 -1)" gradientUnits="userSpaceOnUse">
      <stop offset="0" stop-color="#2d3f80"/>
      <stop offset="1" stop-color="#436dcd" stop-opacity="0"/>
    </linearGradient>
    <linearGradient id="_未命名的渐变_28" data-name="未命名的渐变 28" x1="51.9" y1="150.1" x2="51.9" y2="98.6" gradientTransform="translate(0 258) scale(1 -1)" gradientUnits="userSpaceOnUse">
      <stop offset="0" stop-color="#239738"/>
      <stop offset="1" stop-color="#19611f"/>
    </linearGradient>
    <linearGradient id="_未命名的渐变_281" data-name="未命名的渐变 28" x1="56.5" y1="123.6" x2="56.5" y2="116.4" xlink:href="#_未命名的渐变_28"/>
    <linearGradient id="_未命名的渐变_282" data-name="未命名的渐变 28" x1="43.7" y1="125.8" x2="43.7" y2="117.7" xlink:href="#_未命名的渐变_28"/>
    <linearGradient id="_未命名的渐变_27" data-name="未命名的渐变 27" x1="52" y1="125" x2="52" y2="113.8" gradientTransform="translate(0 258) scale(1 -1)" gradientUnits="userSpaceOnUse">
      <stop offset="0" stop-color="#65ab31"/>
      <stop offset="1" stop-color="#287531"/>
    </linearGradient>
    <linearGradient id="_未命名的渐变_26" data-name="未命名的渐变 26" x1="-1160.2" y1="624.3" x2="-1160.2" y2="636.3" gradientTransform="translate(-1112.8 -509) rotate(-180) scale(1 -1)" gradientUnits="userSpaceOnUse">
      <stop offset="0" stop-color="#9fff2a"/>
      <stop offset=".3" stop-color="#7ee223"/>
      <stop offset="1" stop-color="#40ac15"/>
    </linearGradient>
    <linearGradient id="_未命名的渐变_261" data-name="未命名的渐变 26" x1="-1173" y1="626.1" x2="-1173" y2="638.2" xlink:href="#_未命名的渐变_26"/>
    <linearGradient id="_未命名的渐变_25" data-name="未命名的渐变 25" x1="-1164.8" y1="621.3" x2="-1164.8" y2="640.1" gradientTransform="translate(-1112.8 -509) rotate(-180) scale(1 -1)" gradientUnits="userSpaceOnUse">
      <stop offset="0" stop-color="#9fff2a"/>
      <stop offset="1" stop-color="#a8e910"/>
    </linearGradient>
    <linearGradient id="_未命名的渐变_13" data-name="未命名的渐变 13" x1="146.1" y1="146.8" x2="146.1" y2="99.5" gradientTransform="translate(0 258) scale(1 -1)" gradientUnits="userSpaceOnUse">
      <stop offset="0" stop-color="#12aef5"/>
      <stop offset="1" stop-color="#2253b6"/>
    </linearGradient>
    <linearGradient id="_未命名的渐变_131" data-name="未命名的渐变 13" x1="78.9" y1="151.3" x2="78.9" y2="99" xlink:href="#_未命名的渐变_13"/>
    <linearGradient id="_未命名的渐变_132" data-name="未命名的渐变 13" x1="104.1" y1="142.1" x2="104.1" y2="99.9" xlink:href="#_未命名的渐变_13"/>
    <linearGradient id="_未命名的渐变_133" data-name="未命名的渐变 13" x1="99" y1="153.9" x2="99" y2="144.7" xlink:href="#_未命名的渐变_13"/>
    <linearGradient id="_未命名的渐变_134" data-name="未命名的渐变 13" x1="106.1" y1="154.1" x2="106.1" y2="144.7" xlink:href="#_未命名的渐变_13"/>
    <linearGradient id="_未命名的渐变_135" data-name="未命名的渐变 13" x1="113.1" y1="151.7" x2="113.1" y2="144.7" xlink:href="#_未命名的渐变_13"/>
    <linearGradient id="_未命名的渐变_14" data-name="未命名的渐变 14" x1="196.7" y1="150.8" x2="196.7" y2="90.1" gradientTransform="translate(0 258) scale(1 -1)" gradientUnits="userSpaceOnUse">
      <stop offset="0" stop-color="#61cb36"/>
      <stop offset="1" stop-color="#02b447"/>
    </linearGradient>
  </defs>
  <g class="st14">
    <g id="_图层_1" data-name="图层_1">
      <path class="st2" d="M104.4,42.4c-4.4-5.3-10.9-8.4-17.8-8.4H29c-6.6,0-12,5.4-12,12v114c0,6.6,5.4,12,12,12h200c6.6,0,12-5.4,12-12v-89.9c0-6.6-5.4-12-12-12h-111.6l-13-15.8Z"/>
      <g class="st9">
        <g class="st22">
          <path class="st1" d="M92.8,74c5,0,9.8-1.6,13.8-4.6l9.9-7.4h112.5c6.6,0,12,5.4,12,12v86c0,6.6-5.4,12-12,12H29c-6.6,0-12-5.4-12-12v-74c0-6.6,5.4-12,12-12h63.8Z"/>
        </g>
      </g>
      <path class="st3" d="M92.8,74c5,0,9.8-1.6,13.8-4.6l9.9-7.4h112.5c6.6,0,12,5.4,12,12v124c0,6.6-5.4,12-12,12H29c-6.6,0-12-5.4-12-12v-112c0-6.6,5.4-12,12-12h63.8Z"/>
      <g class="st23">
        <g class="st29">
          <g>
            <path class="st25" d="M120.3,87.4l-.5.3c-.8.5-1.6,1.1-2.3,1.7l1.5-1.1h12.8l2.3,17.6-11.6,11.6-11.6,8.1v9.3c0,6.5,3.4,12.5,8.9,15.9l12.2,7.4-25.8,15h-5l-9.3-5.6c-5.6-3.4-8.9-9.4-8.9-15.9v-31.2c0-6.5,3.4-12.5,8.9-15.9l27.8-16.8c.2-.1.3-.2.5-.3Z"/>
            <path class="st8" d="M120.3,87.4l-.5.3c-.8.5-1.6,1.1-2.3,1.7l1.5-1.1h12.8l2.3,17.6-11.6,11.6-11.6,8.1v9.3c0,6.5,3.4,12.5,8.9,15.9l12.2,7.4-25.8,15h-5l-9.3-5.6c-5.6-3.4-8.9-9.4-8.9-15.9v-31.2c0-6.5,3.4-12.5,8.9-15.9l27.8-16.8c.2-.1.3-.2.5-.3Z"/>
            <path class="st15" d="M147.9,124.4v10.4c0,6.5-3.4,12.5-8.9,15.9l-27.8,16.8c-5.7,3.4-12.8,3.6-18.6.4l27.2,16.4c5.9,3.6,13.3,3.6,19.2,0l27.8-16.8c5.6-3.4,8.9-9.4,8.9-15.9v-7.5l-2.3-3.5-25.5-16.2Z"/>
            <path class="st17" d="M147.9,124.4v10.4c0,6.5-3.4,12.5-8.9,15.9l-27.8,16.8c-5.7,3.4-12.8,3.6-18.6.4l27.2,16.4c5.9,3.6,13.3,3.6,19.2,0l27.8-16.8c5.6-3.4,8.9-9.4,8.9-15.9v-7.5l-2.3-3.5-25.5-16.2Z"/>
            <path class="st7" d="M166.8,104.5l-27.8-16.8c-5.7-3.5-12.8-3.6-18.6-.3l-.6.3c-5.6,3.4-8.9,9.4-8.9,15.9v22l8.9-5.4c5.9-3.6,13.3-3.6,19.2,0l27.8,16.8c5.4,3.3,8.7,9,8.9,15.3,0-.2,0-.4,0-.6v-31.2c0-6.5-3.4-12.5-8.9-15.9Z"/>
            <path class="st13" d="M166.8,104.5l-27.8-16.8c-5.7-3.5-12.8-3.6-18.6-.3l-.6.3c-5.6,3.4-8.9,9.4-8.9,15.9v22l8.9-5.4c5.9-3.6,13.3-3.6,19.2,0l27.8,16.8c5.4,3.3,8.7,9,8.9,15.3,0-.2,0-.4,0-.6v-31.2c0-6.5-3.4-12.5-8.9-15.9Z"/>
          </g>
        </g>
      </g>
      <g>
        <polygon class="st21" points="48.4 159.4 64.7 135.3 55.6 107.9 39.2 132.2 48.4 159.4"/>
        <polygon class="st20" points="64.7 135.3 58 134.4 48.3 159.4 64.7 135.3"/>
        <polygon class="st24" points="45.9 133 39.1 132.2 48.3 159.4 45.9 133"/>
        <polygon class="st6" points="45.9 133 48.3 159.4 58.1 134.5 45.9 133"/>
        <polygon class="st28" points="39.1 132.2 45.9 133 55.6 107.9 39.1 132.2"/>
        <polygon class="st16" points="58 134.4 64.7 135.3 55.6 107.9 58 134.4"/>
        <polygon class="st30" points="58 134.4 55.6 107.9 45.9 133 58 134.4"/>
        <g>
          <path class="st19" d="M176.5,134.6c-1.6-1.1-4.7-2.3-6.6-2.8-1.9-.6-4.3-1.4-5.5-2.1-1.2-.6-1.3-1.3-1.3-2.2s.7-3,4.4-3,7.1,3.2,7.1,3.2l6-7.2s-2.3-1.9-3.4-2.5-3-1.7-6.2-2.3-6.4-.4-9.2.4c-2.9.7-5.7,2.8-7.3,4.6s-2.6,4.2-2.6,7.8,1.4,5.9,2.8,7.9c1.5,2,6.2,3.7,8.5,4.5s3.6,1.2,5,1.9,1.8,1.8,1.8,2.5c0,.9-.3,1.4-.9,2-.7.7-2,1.3-4.2,1.3-4.9,0-7.7-3.4-7.7-3.4l-4,5.1-6.6-34.4h-9.5l-4.3,17-4.4-21.7h-9.5l-8,46.9h11.2l2.3-14.8,3.2,14.8h10.2l3-14.9,2.3,14.9h11.5l-.5-2.5c1,.6,2,1.2,2.8,1.5,2.4,1,4.6,1.4,8.7,1.4s6.8-.9,8.5-1.8c1.7-.9,7.3-4.3,7.3-11.2s-3.4-9.7-5-10.8Z"/>
          <path class="st5" d="M92.7,131.1c-2-1.3-6.3-3.2-8.7-3.8-2.8-.7-6-2-7.3-3-1.3-1.1-1.5-2.4-1.5-3.5s1.7-4.5,6.4-4.5,8.8,3.6,8.8,3.6l6.1-7.7s-2.1-1.7-3.4-2.4c-1.3-.7-3-2-6.9-2.6-4-.7-8.4-.5-12.1.7-3.5,1.1-5.5,2.3-7.8,5.2-2.3,2.8-3.3,5.1-3.3,9.5s1.3,6.5,3.2,8.8c2.1,2.4,6.4,4.3,9.3,5.3,1.9.6,3.7,1.1,5.6,1.9,1.5.6,3.1,1.4,4.1,2.7,1,1.4,1.3,3.5,0,4.9-1,1.1-2.5,1.8-3.9,2.1-1.2.3-2.5.4-3.8.4-5.9,0-11.7-5.8-11.7-5.8l-6.2,8.5s5.5,4.2,8.5,5.4c3,1.2,5.6,2.4,10.6,2.4s8.4-1.1,10.6-2.2c2.2-1.1,8.8-5.3,8.8-13.6,0-7.8-3.4-10.8-5.4-12.1Z"/>
          <path class="st11" d="M98.2,133.6c1.4,1.9,2.3,4.8,2.3,9.5s-.8,6.3-2.3,8.4v6.5h11.9v-42.2h-11.9v17.7h0Z"/>
        </g>
        <g>
          <path class="st12" d="M102.5,106.2h-2.5v6.8l-2,.2v-7h-2.4l.6-2.2h6.4v2.2h0Z"/>
          <path class="st0" d="M108.9,113.1h-1.8c0,.1,0-3.9,0-3.9,0-.4,0-.7-.2-.8-.1-.2-.3-.5-.8-.5-.4,0-.8.4-1,.6-.1.2-.2.6-.2,1.1v3.5l-1.7.2v-9.2l1.5-.2v3.3c.1-.2.3-.3.5-.4.2-.1.4-.3.6-.3.3-.1.5-.2.8-.2.5,0,.9.1,1.3.3.4.2.6.6.8,1,.1.3.2.6.2.9v4.6h0Z"/>
          <path class="st18" d="M116.4,108.2c-1.4,1-2.8,2-4.2,3,.3.4,1.1.5,1.5.5.2,0,1.2-.2,1.6-.7.4.4.7.9,1.1,1.3-1.2.9-2.8,1.3-4.3.8-1.6-.6-2.6-2.3-2.2-4,.3-1.7,1.7-2.7,3.3-2.8,1.4,0,2.5.8,3.1,1.9ZM114.3,108.2c-.6-.4-1.1-.6-1.8-.2-.7.4-.9,1.1-.7,1.9.8-.6,1.7-1.1,2.5-1.7Z"/>
        </g>
        <path class="st26" d="M211.2,145.6v-38.4h-12l-20.8,26.2s5.4,3.2,5.4,11.8-7.4,12.9-7.4,12.9h22.2v9.9h12.6v-9.8h5.9v-12.6h-5.9ZM198.4,145.3h-12.7l12.7-17.8v17.8Z"/>
        <g>
          <path class="st27" d="M179.7,115.5h-.8v-.3h1.9v.3h-.8v2.1h-.3v-2.1Z"/>
          <path class="st27" d="M181,115.3h.4l.8,2,.8-2h.4v2.4h-.3v-2h0l-.7,2h-.3l-.7-2h0v2h-.3v-2.4h0Z"/>
        </g>
      </g>
    </g>
  </g>
</svg>